G04 #@! TF.GenerationSoftware,KiCad,Pcbnew,(2017-02-02 revision 8dadc18)-makepkg*
G04 #@! TF.CreationDate,2017-03-26T00:07:33+03:00*
G04 #@! TF.ProjectId,Badge,42616467652E6B696361645F70636200,rev?*
G04 #@! TF.FileFunction,Legend,Top*
G04 #@! TF.FilePolarity,Positive*
%FSLAX46Y46*%
G04 Gerber Fmt 4.6, Leading zero omitted, Abs format (unit mm)*
G04 Created by KiCad (PCBNEW (2017-02-02 revision 8dadc18)-makepkg) date 03/26/17 00:07:33*
%MOMM*%
%LPD*%
G01*
G04 APERTURE LIST*
%ADD10C,0.100000*%
%ADD11C,0.150000*%
%ADD12C,0.149860*%
%ADD13C,0.200660*%
%ADD14C,0.127000*%
%ADD15C,0.158750*%
%ADD16C,0.160020*%
%ADD17C,0.050000*%
%ADD18C,0.125000*%
%ADD19C,0.075000*%
%ADD20C,0.031750*%
G04 APERTURE END LIST*
D10*
D11*
X190100000Y-104700000D02*
X193500000Y-104700000D01*
X193500000Y-104700000D02*
X193500000Y-109700000D01*
X193500000Y-109700000D02*
X190100000Y-109700000D01*
X190100000Y-109700000D02*
X190100000Y-104700000D01*
X134577000Y-103675000D02*
X134577000Y-109875000D01*
X134577000Y-109875000D02*
X128177000Y-109875000D01*
X128177000Y-109875000D02*
X128177000Y-103675000D01*
X128177000Y-103675000D02*
X134577000Y-103675000D01*
X126600000Y-78300000D02*
X133000000Y-78300000D01*
X126600000Y-84500000D02*
X126600000Y-78300000D01*
X133000000Y-84500000D02*
X126600000Y-84500000D01*
X133000000Y-78300000D02*
X133000000Y-84500000D01*
X136677000Y-94775000D02*
X142877000Y-94775000D01*
X142877000Y-94775000D02*
X142877000Y-101175000D01*
X142877000Y-101175000D02*
X136677000Y-101175000D01*
X136677000Y-101175000D02*
X136677000Y-94775000D01*
D12*
X169999900Y-105400460D02*
X171600100Y-105400460D01*
X171600100Y-105400460D02*
X171600100Y-108199540D01*
X171600100Y-108199540D02*
X169999900Y-108199540D01*
X169999900Y-108199540D02*
X169999900Y-105400460D01*
X170350420Y-105400460D02*
X169999900Y-105750980D01*
D11*
X187752000Y-62621800D02*
X191816000Y-62621800D01*
X191816000Y-62621800D02*
X191816000Y-65669800D01*
X191816000Y-65669800D02*
X187752000Y-65669800D01*
X187752000Y-65669800D02*
X187752000Y-62621800D01*
X196200000Y-56700000D02*
X196200000Y-55600000D01*
X197400000Y-56700000D02*
X196200000Y-56700000D01*
X197400000Y-54500000D02*
X197400000Y-56700000D01*
X196200000Y-54500000D02*
X197400000Y-54500000D01*
X196200000Y-55600000D02*
X196200000Y-54500000D01*
X196400000Y-59000000D02*
X196400000Y-60100000D01*
X196400000Y-60100000D02*
X195200000Y-60100000D01*
X195200000Y-60100000D02*
X195200000Y-57900000D01*
X195200000Y-57900000D02*
X196400000Y-57900000D01*
X196400000Y-57900000D02*
X196400000Y-59000000D01*
X130178000Y-88200000D02*
G75*
G03X130178000Y-88200000I-1778000J0D01*
G01*
X125352000Y-85152000D02*
X125352000Y-91248000D01*
X125352000Y-91248000D02*
X131448000Y-91248000D01*
X131448000Y-91248000D02*
X131448000Y-85152000D01*
X131448000Y-85152000D02*
X125352000Y-85152000D01*
X154700000Y-103800000D02*
X154700000Y-104600000D01*
X151700000Y-103800000D02*
X154700000Y-103800000D01*
X151700000Y-105400000D02*
X151700000Y-103800000D01*
X154700000Y-105400000D02*
X151700000Y-105400000D01*
X154700000Y-104600000D02*
X154700000Y-105400000D01*
X194400000Y-108900000D02*
X193600000Y-108900000D01*
X193600000Y-108900000D02*
X193600000Y-105900000D01*
X193600000Y-105900000D02*
X195200000Y-105900000D01*
X195200000Y-105900000D02*
X195200000Y-108900000D01*
X195200000Y-108900000D02*
X194400000Y-108900000D01*
X182100000Y-105000000D02*
X182100000Y-104200000D01*
X182100000Y-104200000D02*
X185100000Y-104200000D01*
X185100000Y-104200000D02*
X185100000Y-105800000D01*
X185100000Y-105800000D02*
X182100000Y-105800000D01*
X182100000Y-105800000D02*
X182100000Y-105000000D01*
X193100000Y-56423600D02*
X193100000Y-55623600D01*
X196100000Y-56423600D02*
X193100000Y-56423600D01*
X196100000Y-54823600D02*
X196100000Y-56423600D01*
X193100000Y-54823600D02*
X196100000Y-54823600D01*
X193100000Y-55623600D02*
X193100000Y-54823600D01*
X188800000Y-53900000D02*
X188000000Y-53900000D01*
X188000000Y-53900000D02*
X188000000Y-50900000D01*
X188000000Y-50900000D02*
X189600000Y-50900000D01*
X189600000Y-50900000D02*
X189600000Y-53900000D01*
X189600000Y-53900000D02*
X188800000Y-53900000D01*
X185900000Y-57400000D02*
X185900000Y-58200000D01*
X182900000Y-57400000D02*
X185900000Y-57400000D01*
X182900000Y-59000000D02*
X182900000Y-57400000D01*
X185900000Y-59000000D02*
X182900000Y-59000000D01*
X185900000Y-58200000D02*
X185900000Y-59000000D01*
X191300000Y-61800000D02*
X191300000Y-62600000D01*
X191300000Y-62600000D02*
X188300000Y-62600000D01*
X188300000Y-62600000D02*
X188300000Y-61000000D01*
X188300000Y-61000000D02*
X191300000Y-61000000D01*
X191300000Y-61000000D02*
X191300000Y-61800000D01*
X164100000Y-110600000D02*
X164100000Y-109800000D01*
X167100000Y-110600000D02*
X164100000Y-110600000D01*
X167100000Y-109000000D02*
X167100000Y-110600000D01*
X164100000Y-109000000D02*
X167100000Y-109000000D01*
X164100000Y-109800000D02*
X164100000Y-109000000D01*
X181000000Y-105900000D02*
X181800000Y-105900000D01*
X181800000Y-105900000D02*
X181800000Y-108900000D01*
X181800000Y-108900000D02*
X180200000Y-108900000D01*
X180200000Y-108900000D02*
X180200000Y-105900000D01*
X180200000Y-105900000D02*
X181000000Y-105900000D01*
X193600000Y-54100000D02*
X192800000Y-54100000D01*
X192800000Y-54100000D02*
X192800000Y-51100000D01*
X192800000Y-51100000D02*
X194400000Y-51100000D01*
X194400000Y-51100000D02*
X194400000Y-54100000D01*
X194400000Y-54100000D02*
X193600000Y-54100000D01*
X161100000Y-108600000D02*
X161100000Y-107800000D01*
X164100000Y-108600000D02*
X161100000Y-108600000D01*
X164100000Y-107000000D02*
X164100000Y-108600000D01*
X161100000Y-107000000D02*
X164100000Y-107000000D01*
X161100000Y-107800000D02*
X161100000Y-107000000D01*
X185900000Y-59800000D02*
X185900000Y-60600000D01*
X185900000Y-60600000D02*
X182900000Y-60600000D01*
X182900000Y-60600000D02*
X182900000Y-59000000D01*
X182900000Y-59000000D02*
X185900000Y-59000000D01*
X185900000Y-59000000D02*
X185900000Y-59800000D01*
X192073000Y-62598100D02*
X192873000Y-62598100D01*
X192073000Y-65598100D02*
X192073000Y-62598100D01*
X193673000Y-65598100D02*
X192073000Y-65598100D01*
X193673000Y-62598100D02*
X193673000Y-65598100D01*
X192873000Y-62598100D02*
X193673000Y-62598100D01*
X187495000Y-65629800D02*
X186695000Y-65629800D01*
X187495000Y-62629800D02*
X187495000Y-65629800D01*
X185895000Y-62629800D02*
X187495000Y-62629800D01*
X185895000Y-65629800D02*
X185895000Y-62629800D01*
X186695000Y-65629800D02*
X185895000Y-65629800D01*
X193900000Y-59200000D02*
X194700000Y-59200000D01*
X194700000Y-59200000D02*
X194700000Y-62200000D01*
X194700000Y-62200000D02*
X193100000Y-62200000D01*
X193100000Y-62200000D02*
X193100000Y-59200000D01*
X193100000Y-59200000D02*
X193900000Y-59200000D01*
X149800000Y-106100000D02*
X150600000Y-106100000D01*
X149800000Y-109100000D02*
X149800000Y-106100000D01*
X151400000Y-109100000D02*
X149800000Y-109100000D01*
X151400000Y-106100000D02*
X151400000Y-109100000D01*
X150600000Y-106100000D02*
X151400000Y-106100000D01*
X114575000Y-84085700D02*
X114575000Y-83285700D01*
X117575000Y-84085700D02*
X114575000Y-84085700D01*
X117575000Y-82485700D02*
X117575000Y-84085700D01*
X114575000Y-82485700D02*
X117575000Y-82485700D01*
X114575000Y-83285700D02*
X114575000Y-82485700D01*
X114575000Y-85685700D02*
X114575000Y-84885700D01*
X117575000Y-85685700D02*
X114575000Y-85685700D01*
X117575000Y-84085700D02*
X117575000Y-85685700D01*
X114575000Y-84085700D02*
X117575000Y-84085700D01*
X114575000Y-84885700D02*
X114575000Y-84085700D01*
X126577000Y-103675000D02*
X127377000Y-103675000D01*
X126577000Y-106675000D02*
X126577000Y-103675000D01*
X128177000Y-106675000D02*
X126577000Y-106675000D01*
X128177000Y-103675000D02*
X128177000Y-106675000D01*
X127377000Y-103675000D02*
X128177000Y-103675000D01*
X139677000Y-101975000D02*
X139677000Y-102775000D01*
X139677000Y-102775000D02*
X136677000Y-102775000D01*
X136677000Y-102775000D02*
X136677000Y-101175000D01*
X136677000Y-101175000D02*
X139677000Y-101175000D01*
X139677000Y-101175000D02*
X139677000Y-101975000D01*
X124977000Y-103675000D02*
X125777000Y-103675000D01*
X124977000Y-106675000D02*
X124977000Y-103675000D01*
X126577000Y-106675000D02*
X124977000Y-106675000D01*
X126577000Y-103675000D02*
X126577000Y-106675000D01*
X125777000Y-103675000D02*
X126577000Y-103675000D01*
X139677000Y-102775000D02*
X139677000Y-103575000D01*
X136677000Y-102775000D02*
X139677000Y-102775000D01*
X136677000Y-104375000D02*
X136677000Y-102775000D01*
X139677000Y-104375000D02*
X136677000Y-104375000D01*
X139677000Y-103575000D02*
X139677000Y-104375000D01*
X136800000Y-78300000D02*
X137600000Y-78300000D01*
X136800000Y-81300000D02*
X136800000Y-78300000D01*
X138400000Y-81300000D02*
X136800000Y-81300000D01*
X138400000Y-78300000D02*
X138400000Y-81300000D01*
X137600000Y-78300000D02*
X138400000Y-78300000D01*
X159400000Y-57700000D02*
X160200000Y-57700000D01*
X159400000Y-60700000D02*
X159400000Y-57700000D01*
X161000000Y-60700000D02*
X159400000Y-60700000D01*
X161000000Y-57700000D02*
X161000000Y-60700000D01*
X160200000Y-57700000D02*
X161000000Y-57700000D01*
X114575000Y-86485700D02*
X114575000Y-85685700D01*
X114575000Y-85685700D02*
X117575000Y-85685700D01*
X117575000Y-85685700D02*
X117575000Y-87285700D01*
X117575000Y-87285700D02*
X114575000Y-87285700D01*
X114575000Y-87285700D02*
X114575000Y-86485700D01*
X104866000Y-93692400D02*
X104766000Y-93692400D01*
X104766000Y-93692400D02*
X104766000Y-64292400D01*
X104766000Y-64292400D02*
X104866000Y-64292400D01*
X107966000Y-63692400D02*
X109166000Y-63692400D01*
X109166000Y-63692400D02*
X109166000Y-94292400D01*
X109166000Y-94292400D02*
X107966000Y-94292400D01*
X107966000Y-94292400D02*
X107966000Y-63692400D01*
X165930000Y-59270000D02*
X181170000Y-59270000D01*
X181170000Y-56730000D02*
X165930000Y-56730000D01*
X181170000Y-56730000D02*
X181170000Y-59270000D01*
X165930000Y-59270000D02*
X165676000Y-59270000D01*
X165676000Y-59270000D02*
X165676000Y-56730000D01*
X165676000Y-56730000D02*
X165930000Y-56730000D01*
X165930000Y-56730000D02*
X165803000Y-56730000D01*
X165803000Y-56730000D02*
X165803000Y-59270000D01*
X165930000Y-59270000D02*
X165930000Y-56730000D01*
X158700000Y-108600000D02*
X164100000Y-108600000D01*
X164100000Y-108600000D02*
X164100000Y-110600000D01*
X164100000Y-110600000D02*
X158700000Y-110600000D01*
X158700000Y-110600000D02*
X158700000Y-108600000D01*
D13*
X161001220Y-109600000D02*
X161798780Y-109000560D01*
X161798780Y-109000560D02*
X161798780Y-110199440D01*
X161798780Y-110199440D02*
X161001220Y-109600000D01*
X161001220Y-109000560D02*
X161001220Y-110199440D01*
D11*
X188400000Y-59500000D02*
X187900000Y-59500000D01*
X187900000Y-59500000D02*
X187900000Y-59000000D01*
X191900000Y-59000000D02*
X191900000Y-59500000D01*
X191900000Y-59500000D02*
X191400000Y-59500000D01*
X191400000Y-55500000D02*
X191900000Y-55500000D01*
X191900000Y-55500000D02*
X191900000Y-56000000D01*
X187900000Y-56000000D02*
X187900000Y-55500000D01*
X187900000Y-55500000D02*
X188400000Y-55500000D01*
X188400000Y-55500000D02*
X187900000Y-56000000D01*
X187200000Y-55950000D02*
X188350000Y-54800000D01*
X192600000Y-54800000D02*
X192600000Y-60200000D01*
X192600000Y-60200000D02*
X187200000Y-60200000D01*
X187200000Y-60200000D02*
X187200000Y-54800000D01*
X187200000Y-54800000D02*
X192600000Y-54800000D01*
X184200000Y-105900000D02*
X185000000Y-105900000D01*
X185000000Y-105900000D02*
X185000000Y-108900000D01*
X185000000Y-108900000D02*
X183400000Y-108900000D01*
X183400000Y-108900000D02*
X183400000Y-105900000D01*
X183400000Y-105900000D02*
X184200000Y-105900000D01*
X176600000Y-106500000D02*
X177400000Y-106500000D01*
X177400000Y-106500000D02*
X177400000Y-109500000D01*
X177400000Y-109500000D02*
X175800000Y-109500000D01*
X175800000Y-109500000D02*
X175800000Y-106500000D01*
X175800000Y-106500000D02*
X176600000Y-106500000D01*
X146800000Y-107100000D02*
X146000000Y-107100000D01*
X146000000Y-107100000D02*
X146000000Y-104100000D01*
X146000000Y-104100000D02*
X147600000Y-104100000D01*
X147600000Y-104100000D02*
X147600000Y-107100000D01*
X147600000Y-107100000D02*
X146800000Y-107100000D01*
X185900000Y-61200000D02*
X185900000Y-62000000D01*
X182900000Y-61200000D02*
X185900000Y-61200000D01*
X182900000Y-62800000D02*
X182900000Y-61200000D01*
X185900000Y-62800000D02*
X182900000Y-62800000D01*
X185900000Y-62000000D02*
X185900000Y-62800000D01*
X167600000Y-104500000D02*
X168400000Y-104500000D01*
X168400000Y-104500000D02*
X168400000Y-107500000D01*
X168400000Y-107500000D02*
X166800000Y-107500000D01*
X166800000Y-107500000D02*
X166800000Y-104500000D01*
X166800000Y-104500000D02*
X167600000Y-104500000D01*
X164200000Y-105500000D02*
X165000000Y-105500000D01*
X164200000Y-108500000D02*
X164200000Y-105500000D01*
X165800000Y-108500000D02*
X164200000Y-108500000D01*
X165800000Y-105500000D02*
X165800000Y-108500000D01*
X165000000Y-105500000D02*
X165800000Y-105500000D01*
X164100000Y-106200000D02*
X164100000Y-107000000D01*
X164100000Y-107000000D02*
X161100000Y-107000000D01*
X161100000Y-107000000D02*
X161100000Y-105400000D01*
X161100000Y-105400000D02*
X164100000Y-105400000D01*
X164100000Y-105400000D02*
X164100000Y-106200000D01*
X153300000Y-109800000D02*
X153300000Y-110600000D01*
X150300000Y-109800000D02*
X153300000Y-109800000D01*
X150300000Y-111400000D02*
X150300000Y-109800000D01*
X153300000Y-111400000D02*
X150300000Y-111400000D01*
X153300000Y-110600000D02*
X153300000Y-111400000D01*
X145200000Y-107100000D02*
X144400000Y-107100000D01*
X144400000Y-107100000D02*
X144400000Y-104100000D01*
X144400000Y-104100000D02*
X146000000Y-104100000D01*
X146000000Y-104100000D02*
X146000000Y-107100000D01*
X146000000Y-107100000D02*
X145200000Y-107100000D01*
X121800000Y-75900000D02*
X122600000Y-75900000D01*
X122600000Y-75900000D02*
X122600000Y-78900000D01*
X122600000Y-78900000D02*
X121000000Y-78900000D01*
X121000000Y-78900000D02*
X121000000Y-75900000D01*
X121000000Y-75900000D02*
X121800000Y-75900000D01*
X119200000Y-75900000D02*
X120000000Y-75900000D01*
X119200000Y-78900000D02*
X119200000Y-75900000D01*
X120800000Y-78900000D02*
X119200000Y-78900000D01*
X120800000Y-75900000D02*
X120800000Y-78900000D01*
X120000000Y-75900000D02*
X120800000Y-75900000D01*
X118200000Y-75900000D02*
X119000000Y-75900000D01*
X119000000Y-75900000D02*
X119000000Y-78900000D01*
X119000000Y-78900000D02*
X117400000Y-78900000D01*
X117400000Y-78900000D02*
X117400000Y-75900000D01*
X117400000Y-75900000D02*
X118200000Y-75900000D01*
X191200000Y-53900000D02*
X190400000Y-53900000D01*
X191200000Y-50900000D02*
X191200000Y-53900000D01*
X189600000Y-50900000D02*
X191200000Y-50900000D01*
X189600000Y-53900000D02*
X189600000Y-50900000D01*
X190400000Y-53900000D02*
X189600000Y-53900000D01*
X183400000Y-108900000D02*
X182600000Y-108900000D01*
X183400000Y-105900000D02*
X183400000Y-108900000D01*
X181800000Y-105900000D02*
X183400000Y-105900000D01*
X181800000Y-108900000D02*
X181800000Y-105900000D01*
X182600000Y-108900000D02*
X181800000Y-108900000D01*
X185800000Y-108900000D02*
X185000000Y-108900000D01*
X185000000Y-108900000D02*
X185000000Y-105900000D01*
X185000000Y-105900000D02*
X186600000Y-105900000D01*
X186600000Y-105900000D02*
X186600000Y-108900000D01*
X186600000Y-108900000D02*
X185800000Y-108900000D01*
X109900000Y-98400000D02*
X109900000Y-97600000D01*
X109900000Y-97600000D02*
X112900000Y-97600000D01*
X112900000Y-97600000D02*
X112900000Y-99200000D01*
X112900000Y-99200000D02*
X109900000Y-99200000D01*
X109900000Y-99200000D02*
X109900000Y-98400000D01*
X109900000Y-97600000D02*
X109900000Y-96800000D01*
X112900000Y-97600000D02*
X109900000Y-97600000D01*
X112900000Y-96000000D02*
X112900000Y-97600000D01*
X109900000Y-96000000D02*
X112900000Y-96000000D01*
X109900000Y-96800000D02*
X109900000Y-96000000D01*
X125100000Y-57400000D02*
X125100000Y-56600000D01*
X125100000Y-56600000D02*
X128100000Y-56600000D01*
X128100000Y-56600000D02*
X128100000Y-58200000D01*
X128100000Y-58200000D02*
X125100000Y-58200000D01*
X125100000Y-58200000D02*
X125100000Y-57400000D01*
X125100000Y-59000000D02*
X125100000Y-58200000D01*
X125100000Y-58200000D02*
X128100000Y-58200000D01*
X128100000Y-58200000D02*
X128100000Y-59800000D01*
X128100000Y-59800000D02*
X125100000Y-59800000D01*
X125100000Y-59800000D02*
X125100000Y-59000000D01*
X125100000Y-60600000D02*
X125100000Y-59800000D01*
X125100000Y-59800000D02*
X128100000Y-59800000D01*
X128100000Y-59800000D02*
X128100000Y-61400000D01*
X128100000Y-61400000D02*
X125100000Y-61400000D01*
X125100000Y-61400000D02*
X125100000Y-60600000D01*
X124294000Y-63159500D02*
X124294000Y-62359500D01*
X124294000Y-62359500D02*
X127294000Y-62359500D01*
X127294000Y-62359500D02*
X127294000Y-63959500D01*
X127294000Y-63959500D02*
X124294000Y-63959500D01*
X124294000Y-63959500D02*
X124294000Y-63159500D01*
X124294000Y-65559500D02*
X124294000Y-64759500D01*
X127294000Y-65559500D02*
X124294000Y-65559500D01*
X127294000Y-63959500D02*
X127294000Y-65559500D01*
X124294000Y-63959500D02*
X127294000Y-63959500D01*
X124294000Y-64759500D02*
X124294000Y-63959500D01*
X124294000Y-68759500D02*
X124294000Y-67959500D01*
X127294000Y-68759500D02*
X124294000Y-68759500D01*
X127294000Y-67159500D02*
X127294000Y-68759500D01*
X124294000Y-67159500D02*
X127294000Y-67159500D01*
X124294000Y-67959500D02*
X124294000Y-67159500D01*
X124294000Y-69559500D02*
X124294000Y-68759500D01*
X124294000Y-68759500D02*
X127294000Y-68759500D01*
X127294000Y-68759500D02*
X127294000Y-70359500D01*
X127294000Y-70359500D02*
X124294000Y-70359500D01*
X124294000Y-70359500D02*
X124294000Y-69559500D01*
X111000000Y-62500000D02*
X110200000Y-62500000D01*
X110200000Y-62500000D02*
X110200000Y-59500000D01*
X110200000Y-59500000D02*
X111800000Y-59500000D01*
X111800000Y-59500000D02*
X111800000Y-62500000D01*
X111800000Y-62500000D02*
X111000000Y-62500000D01*
X124294000Y-67159500D02*
X124294000Y-66359500D01*
X127294000Y-67159500D02*
X124294000Y-67159500D01*
X127294000Y-65559500D02*
X127294000Y-67159500D01*
X124294000Y-65559500D02*
X127294000Y-65559500D01*
X124294000Y-66359500D02*
X124294000Y-65559500D01*
D14*
X152324000Y-60581000D02*
X149276000Y-60581000D01*
X149276000Y-60581000D02*
X149276000Y-59819000D01*
X149276000Y-59819000D02*
X152324000Y-59819000D01*
X152324000Y-59819000D02*
X152324000Y-60581000D01*
D11*
X196300000Y-57900000D02*
X195200000Y-57900000D01*
X195200000Y-57900000D02*
X195200000Y-56700000D01*
X195200000Y-56700000D02*
X197400000Y-56700000D01*
X197400000Y-56700000D02*
X197400000Y-57900000D01*
X197400000Y-57900000D02*
X196300000Y-57900000D01*
X137400000Y-77000000D02*
X138500000Y-77000000D01*
X138500000Y-77000000D02*
X138500000Y-78200000D01*
X138500000Y-78200000D02*
X136300000Y-78200000D01*
X136300000Y-78200000D02*
X136300000Y-77000000D01*
X136300000Y-77000000D02*
X137400000Y-77000000D01*
X195206000Y-57555700D02*
X194636000Y-57555700D01*
X194636000Y-57555700D02*
X194636000Y-57955700D01*
X194636000Y-57955700D02*
X195206000Y-57955700D01*
X193156000Y-58385700D02*
X195156000Y-58385700D01*
X193156000Y-57125700D02*
X195156000Y-57125700D01*
X193106000Y-56575700D02*
X195206000Y-56575700D01*
X195206000Y-56575700D02*
X195206000Y-58935700D01*
X195206000Y-58935700D02*
X193106000Y-58935700D01*
X193106000Y-58935700D02*
X193106000Y-56575700D01*
D14*
X146324000Y-109781000D02*
X143276000Y-109781000D01*
X143276000Y-109781000D02*
X143276000Y-109019000D01*
X143276000Y-109019000D02*
X146324000Y-109019000D01*
X146324000Y-109019000D02*
X146324000Y-109781000D01*
D11*
X203944380Y-80919495D02*
X202944380Y-80919495D01*
X202944380Y-80681400D01*
X202992000Y-80538542D01*
X203087238Y-80443304D01*
X203182476Y-80395685D01*
X203372952Y-80348066D01*
X203515809Y-80348066D01*
X203706285Y-80395685D01*
X203801523Y-80443304D01*
X203896761Y-80538542D01*
X203944380Y-80681400D01*
X203944380Y-80919495D01*
X202944380Y-80014733D02*
X202944380Y-79348066D01*
X203944380Y-79776638D01*
X206198666Y-81324257D02*
X206198666Y-80848066D01*
X206484380Y-81419495D02*
X205484380Y-81086161D01*
X206484380Y-80752828D01*
X206484380Y-80419495D02*
X205484380Y-80419495D01*
X206484380Y-79848066D01*
X205484380Y-79848066D01*
X205484380Y-79514733D02*
X205484380Y-78943304D01*
X206484380Y-79229019D02*
X205484380Y-79229019D01*
X191700000Y-107471428D02*
X191414285Y-107471428D01*
X191414285Y-106871428D01*
X192157142Y-106871428D02*
X192042857Y-106871428D01*
X191985714Y-106900000D01*
X191957142Y-106928571D01*
X191900000Y-107014285D01*
X191871428Y-107128571D01*
X191871428Y-107357142D01*
X191900000Y-107414285D01*
X191928571Y-107442857D01*
X191985714Y-107471428D01*
X192100000Y-107471428D01*
X192157142Y-107442857D01*
X192185714Y-107414285D01*
X192214285Y-107357142D01*
X192214285Y-107214285D01*
X192185714Y-107157142D01*
X192157142Y-107128571D01*
X192100000Y-107100000D01*
X191985714Y-107100000D01*
X191928571Y-107128571D01*
X191900000Y-107157142D01*
X191871428Y-107214285D01*
X189671428Y-108185714D02*
X189671428Y-108528571D01*
X189671428Y-108357142D02*
X189071428Y-108357142D01*
X189157142Y-108414285D01*
X189214285Y-108471428D01*
X189242857Y-108528571D01*
X189071428Y-107814285D02*
X189071428Y-107757142D01*
X189100000Y-107700000D01*
X189128571Y-107671428D01*
X189185714Y-107642857D01*
X189300000Y-107614285D01*
X189442857Y-107614285D01*
X189557142Y-107642857D01*
X189614285Y-107671428D01*
X189642857Y-107700000D01*
X189671428Y-107757142D01*
X189671428Y-107814285D01*
X189642857Y-107871428D01*
X189614285Y-107900000D01*
X189557142Y-107928571D01*
X189442857Y-107957142D01*
X189300000Y-107957142D01*
X189185714Y-107928571D01*
X189128571Y-107900000D01*
X189100000Y-107871428D01*
X189071428Y-107814285D01*
X189071428Y-107242857D02*
X189071428Y-107185714D01*
X189100000Y-107128571D01*
X189128571Y-107100000D01*
X189185714Y-107071428D01*
X189300000Y-107042857D01*
X189442857Y-107042857D01*
X189557142Y-107071428D01*
X189614285Y-107100000D01*
X189642857Y-107128571D01*
X189671428Y-107185714D01*
X189671428Y-107242857D01*
X189642857Y-107300000D01*
X189614285Y-107328571D01*
X189557142Y-107357142D01*
X189442857Y-107385714D01*
X189300000Y-107385714D01*
X189185714Y-107357142D01*
X189128571Y-107328571D01*
X189100000Y-107300000D01*
X189071428Y-107242857D01*
X189271428Y-106528571D02*
X189671428Y-106528571D01*
X189271428Y-106785714D02*
X189585714Y-106785714D01*
X189642857Y-106757142D01*
X189671428Y-106700000D01*
X189671428Y-106614285D01*
X189642857Y-106557142D01*
X189614285Y-106528571D01*
X189671428Y-106242857D02*
X189071428Y-106242857D01*
X189357142Y-106242857D02*
X189357142Y-105900000D01*
X189671428Y-105900000D02*
X189071428Y-105900000D01*
D12*
X130905824Y-104675093D02*
X130905824Y-104389645D01*
X131505264Y-104389645D01*
X131505264Y-104817817D02*
X131505264Y-105188899D01*
X131276906Y-104989085D01*
X131276906Y-105074720D01*
X131248361Y-105131809D01*
X131219817Y-105160354D01*
X131162727Y-105188899D01*
X131020003Y-105188899D01*
X130962914Y-105160354D01*
X130934369Y-105131809D01*
X130905824Y-105074720D01*
X130905824Y-104903451D01*
X130934369Y-104846361D01*
X130962914Y-104817817D01*
D15*
X135336071Y-107447500D02*
X134912738Y-107447500D01*
X135577976Y-107296309D02*
X135124404Y-107145119D01*
X135124404Y-107538214D01*
X134973214Y-107780119D02*
X134942976Y-107810357D01*
X134912738Y-107780119D01*
X134942976Y-107749880D01*
X134973214Y-107780119D01*
X134912738Y-107780119D01*
X135547738Y-108022023D02*
X135547738Y-108445357D01*
X134912738Y-108173214D01*
X135336071Y-108959404D02*
X134912738Y-108959404D01*
X135336071Y-108687261D02*
X135003452Y-108687261D01*
X134942976Y-108717500D01*
X134912738Y-108777976D01*
X134912738Y-108868690D01*
X134942976Y-108929166D01*
X134973214Y-108959404D01*
X134912738Y-109261785D02*
X135547738Y-109261785D01*
X135245357Y-109261785D02*
X135245357Y-109624642D01*
X134912738Y-109624642D02*
X135547738Y-109624642D01*
D16*
D12*
X130071175Y-83499906D02*
X130071175Y-83785354D01*
X129471735Y-83785354D01*
X129671548Y-83043190D02*
X130071175Y-83043190D01*
X129443190Y-83185914D02*
X129871361Y-83328638D01*
X129871361Y-82957556D01*
D15*
X129663928Y-80752500D02*
X130087261Y-80752500D01*
X129422023Y-80903690D02*
X129875595Y-81054880D01*
X129875595Y-80661785D01*
X130026785Y-80419880D02*
X130057023Y-80389642D01*
X130087261Y-80419880D01*
X130057023Y-80450119D01*
X130026785Y-80419880D01*
X130087261Y-80419880D01*
X129452261Y-80177976D02*
X129452261Y-79754642D01*
X130087261Y-80026785D01*
X129663928Y-79240595D02*
X130087261Y-79240595D01*
X129663928Y-79512738D02*
X129996547Y-79512738D01*
X130057023Y-79482500D01*
X130087261Y-79422023D01*
X130087261Y-79331309D01*
X130057023Y-79270833D01*
X130026785Y-79240595D01*
X130087261Y-78938214D02*
X129452261Y-78938214D01*
X129754642Y-78938214D02*
X129754642Y-78575357D01*
X130087261Y-78575357D02*
X129452261Y-78575357D01*
D16*
D12*
X137477093Y-98446175D02*
X137191645Y-98446175D01*
X137191645Y-97846735D01*
X137990899Y-98446175D02*
X137648361Y-98446175D01*
X137819630Y-98446175D02*
X137819630Y-97846735D01*
X137762540Y-97932369D01*
X137705451Y-97989459D01*
X137648361Y-98018003D01*
D15*
X140247500Y-93863928D02*
X140247500Y-94287261D01*
X140096309Y-93622023D02*
X139945119Y-94075595D01*
X140338214Y-94075595D01*
X140580119Y-94226785D02*
X140610357Y-94257023D01*
X140580119Y-94287261D01*
X140549880Y-94257023D01*
X140580119Y-94226785D01*
X140580119Y-94287261D01*
X140822023Y-93652261D02*
X141245357Y-93652261D01*
X140973214Y-94287261D01*
X141759404Y-93863928D02*
X141759404Y-94287261D01*
X141487261Y-93863928D02*
X141487261Y-94196547D01*
X141517500Y-94257023D01*
X141577976Y-94287261D01*
X141668690Y-94287261D01*
X141729166Y-94257023D01*
X141759404Y-94226785D01*
X142061785Y-94287261D02*
X142061785Y-93652261D01*
X142061785Y-93954642D02*
X142424642Y-93954642D01*
X142424642Y-94287261D02*
X142424642Y-93652261D01*
D16*
D11*
X171071428Y-107500000D02*
X170471428Y-107500000D01*
X170471428Y-107357142D01*
X170500000Y-107271428D01*
X170557142Y-107214285D01*
X170614285Y-107185714D01*
X170728571Y-107157142D01*
X170814285Y-107157142D01*
X170928571Y-107185714D01*
X170985714Y-107214285D01*
X171042857Y-107271428D01*
X171071428Y-107357142D01*
X171071428Y-107500000D01*
X170900000Y-106928571D02*
X170900000Y-106642857D01*
X171071428Y-106985714D02*
X170471428Y-106785714D01*
X171071428Y-106585714D01*
X171071428Y-106071428D02*
X171071428Y-106414285D01*
X171071428Y-106242857D02*
X170471428Y-106242857D01*
X170557142Y-106300000D01*
X170614285Y-106357142D01*
X170642857Y-106414285D01*
X173671428Y-108685714D02*
X173071428Y-108685714D01*
X173500000Y-108485714D01*
X173071428Y-108285714D01*
X173671428Y-108285714D01*
X173500000Y-108028571D02*
X173500000Y-107742857D01*
X173671428Y-108085714D02*
X173071428Y-107885714D01*
X173671428Y-107685714D01*
X173071428Y-107542857D02*
X173671428Y-107142857D01*
X173071428Y-107142857D02*
X173671428Y-107542857D01*
X173271428Y-106657142D02*
X173671428Y-106657142D01*
X173042857Y-106800000D02*
X173471428Y-106942857D01*
X173471428Y-106571428D01*
X173271428Y-106085714D02*
X173671428Y-106085714D01*
X173042857Y-106228571D02*
X173471428Y-106371428D01*
X173471428Y-106000000D01*
X173071428Y-105485714D02*
X173071428Y-105771428D01*
X173357142Y-105800000D01*
X173328571Y-105771428D01*
X173300000Y-105714285D01*
X173300000Y-105571428D01*
X173328571Y-105514285D01*
X173357142Y-105485714D01*
X173414285Y-105457142D01*
X173557142Y-105457142D01*
X173614285Y-105485714D01*
X173642857Y-105514285D01*
X173671428Y-105571428D01*
X173671428Y-105714285D01*
X173642857Y-105771428D01*
X173614285Y-105800000D01*
X173071428Y-105257142D02*
X173071428Y-104885714D01*
X173300000Y-105085714D01*
X173300000Y-105000000D01*
X173328571Y-104942857D01*
X173357142Y-104914285D01*
X173414285Y-104885714D01*
X173557142Y-104885714D01*
X173614285Y-104914285D01*
X173642857Y-104942857D01*
X173671428Y-105000000D01*
X173671428Y-105171428D01*
X173642857Y-105228571D01*
X173614285Y-105257142D01*
X169671428Y-105028571D02*
X169671428Y-105371428D01*
X169671428Y-105200000D02*
X169071428Y-105200000D01*
X169157142Y-105257142D01*
X169214285Y-105314285D01*
X169242857Y-105371428D01*
D12*
X188770847Y-63817535D02*
X189170474Y-64416975D01*
X189170474Y-63817535D02*
X188770847Y-64416975D01*
X189313198Y-63817535D02*
X189655735Y-63817535D01*
X189484466Y-64416975D02*
X189484466Y-63817535D01*
X189827003Y-64245706D02*
X190112451Y-64245706D01*
X189769914Y-64416975D02*
X189969727Y-63817535D01*
X190169540Y-64416975D01*
X190654801Y-64416975D02*
X190369354Y-64416975D01*
X190369354Y-63817535D01*
X190826070Y-63874624D02*
X190854615Y-63846080D01*
X190911704Y-63817535D01*
X191054428Y-63817535D01*
X191111518Y-63846080D01*
X191140062Y-63874624D01*
X191168607Y-63931714D01*
X191168607Y-63988803D01*
X191140062Y-64074438D01*
X190797525Y-64416975D01*
X191168607Y-64416975D01*
D10*
X186279238Y-61964847D02*
X186298285Y-61945800D01*
X186336380Y-61926752D01*
X186431619Y-61926752D01*
X186469714Y-61945800D01*
X186488761Y-61964847D01*
X186507809Y-62002942D01*
X186507809Y-62041038D01*
X186488761Y-62098180D01*
X186260190Y-62326752D01*
X186507809Y-62326752D01*
X186641142Y-61926752D02*
X186907809Y-61926752D01*
X186736380Y-62326752D01*
X187060190Y-62326752D02*
X187060190Y-61926752D01*
X187193523Y-62212466D01*
X187326857Y-61926752D01*
X187326857Y-62326752D01*
X187517333Y-62326752D02*
X187517333Y-61926752D01*
X187517333Y-62117228D02*
X187745904Y-62117228D01*
X187745904Y-62326752D02*
X187745904Y-61926752D01*
X187898285Y-62060085D02*
X188107809Y-62060085D01*
X187898285Y-62326752D01*
X188107809Y-62326752D01*
D11*
X197214285Y-53885714D02*
X197242857Y-53914285D01*
X197271428Y-54000000D01*
X197271428Y-54057142D01*
X197242857Y-54142857D01*
X197185714Y-54200000D01*
X197128571Y-54228571D01*
X197014285Y-54257142D01*
X196928571Y-54257142D01*
X196814285Y-54228571D01*
X196757142Y-54200000D01*
X196700000Y-54142857D01*
X196671428Y-54057142D01*
X196671428Y-54000000D01*
X196700000Y-53914285D01*
X196728571Y-53885714D01*
X196671428Y-53371428D02*
X196671428Y-53485714D01*
X196700000Y-53542857D01*
X196728571Y-53571428D01*
X196814285Y-53628571D01*
X196928571Y-53657142D01*
X197157142Y-53657142D01*
X197214285Y-53628571D01*
X197242857Y-53600000D01*
X197271428Y-53542857D01*
X197271428Y-53428571D01*
X197242857Y-53371428D01*
X197214285Y-53342857D01*
X197157142Y-53314285D01*
X197014285Y-53314285D01*
X196957142Y-53342857D01*
X196928571Y-53371428D01*
X196900000Y-53428571D01*
X196900000Y-53542857D01*
X196928571Y-53600000D01*
X196957142Y-53628571D01*
X197014285Y-53657142D01*
X196671428Y-52800000D02*
X196671428Y-52914285D01*
X196700000Y-52971428D01*
X196728571Y-53000000D01*
X196814285Y-53057142D01*
X196928571Y-53085714D01*
X197157142Y-53085714D01*
X197214285Y-53057142D01*
X197242857Y-53028571D01*
X197271428Y-52971428D01*
X197271428Y-52857142D01*
X197242857Y-52800000D01*
X197214285Y-52771428D01*
X197157142Y-52742857D01*
X197014285Y-52742857D01*
X196957142Y-52771428D01*
X196928571Y-52800000D01*
X196900000Y-52857142D01*
X196900000Y-52971428D01*
X196928571Y-53028571D01*
X196957142Y-53057142D01*
X197014285Y-53085714D01*
D17*
X197690476Y-56238095D02*
X197490476Y-56238095D01*
X197490476Y-56190476D01*
X197500000Y-56161904D01*
X197519047Y-56142857D01*
X197538095Y-56133333D01*
X197576190Y-56123809D01*
X197604761Y-56123809D01*
X197642857Y-56133333D01*
X197661904Y-56142857D01*
X197680952Y-56161904D01*
X197690476Y-56190476D01*
X197690476Y-56238095D01*
X197690476Y-56009523D02*
X197680952Y-56028571D01*
X197671428Y-56038095D01*
X197652380Y-56047619D01*
X197595238Y-56047619D01*
X197576190Y-56038095D01*
X197566666Y-56028571D01*
X197557142Y-56009523D01*
X197557142Y-55980952D01*
X197566666Y-55961904D01*
X197576190Y-55952380D01*
X197595238Y-55942857D01*
X197652380Y-55942857D01*
X197671428Y-55952380D01*
X197680952Y-55961904D01*
X197690476Y-55980952D01*
X197690476Y-56009523D01*
X197690476Y-55857142D02*
X197490476Y-55857142D01*
X197690476Y-55742857D01*
X197490476Y-55742857D01*
X197690476Y-55619047D02*
X197680952Y-55638095D01*
X197671428Y-55647619D01*
X197652380Y-55657142D01*
X197595238Y-55657142D01*
X197576190Y-55647619D01*
X197566666Y-55638095D01*
X197557142Y-55619047D01*
X197557142Y-55590476D01*
X197566666Y-55571428D01*
X197576190Y-55561904D01*
X197595238Y-55552380D01*
X197652380Y-55552380D01*
X197671428Y-55561904D01*
X197680952Y-55571428D01*
X197690476Y-55590476D01*
X197690476Y-55619047D01*
X197557142Y-55495238D02*
X197557142Y-55419047D01*
X197490476Y-55466666D02*
X197661904Y-55466666D01*
X197680952Y-55457142D01*
X197690476Y-55438095D01*
X197690476Y-55419047D01*
X197690476Y-55352380D02*
X197490476Y-55352380D01*
X197633333Y-55285714D01*
X197490476Y-55219047D01*
X197690476Y-55219047D01*
X197690476Y-55095238D02*
X197680952Y-55114285D01*
X197671428Y-55123809D01*
X197652380Y-55133333D01*
X197595238Y-55133333D01*
X197576190Y-55123809D01*
X197566666Y-55114285D01*
X197557142Y-55095238D01*
X197557142Y-55066666D01*
X197566666Y-55047619D01*
X197576190Y-55038095D01*
X197595238Y-55028571D01*
X197652380Y-55028571D01*
X197671428Y-55038095D01*
X197680952Y-55047619D01*
X197690476Y-55066666D01*
X197690476Y-55095238D01*
X197557142Y-54857142D02*
X197690476Y-54857142D01*
X197557142Y-54942857D02*
X197661904Y-54942857D01*
X197680952Y-54933333D01*
X197690476Y-54914285D01*
X197690476Y-54885714D01*
X197680952Y-54866666D01*
X197671428Y-54857142D01*
X197557142Y-54761904D02*
X197690476Y-54761904D01*
X197576190Y-54761904D02*
X197566666Y-54752380D01*
X197557142Y-54733333D01*
X197557142Y-54704761D01*
X197566666Y-54685714D01*
X197585714Y-54676190D01*
X197690476Y-54676190D01*
X197557142Y-54609523D02*
X197557142Y-54533333D01*
X197490476Y-54580952D02*
X197661904Y-54580952D01*
X197680952Y-54571428D01*
X197690476Y-54552380D01*
X197690476Y-54533333D01*
D11*
X196214285Y-59385714D02*
X196242857Y-59414285D01*
X196271428Y-59500000D01*
X196271428Y-59557142D01*
X196242857Y-59642857D01*
X196185714Y-59700000D01*
X196128571Y-59728571D01*
X196014285Y-59757142D01*
X195928571Y-59757142D01*
X195814285Y-59728571D01*
X195757142Y-59700000D01*
X195700000Y-59642857D01*
X195671428Y-59557142D01*
X195671428Y-59500000D01*
X195700000Y-59414285D01*
X195728571Y-59385714D01*
X195671428Y-58871428D02*
X195671428Y-58985714D01*
X195700000Y-59042857D01*
X195728571Y-59071428D01*
X195814285Y-59128571D01*
X195928571Y-59157142D01*
X196157142Y-59157142D01*
X196214285Y-59128571D01*
X196242857Y-59100000D01*
X196271428Y-59042857D01*
X196271428Y-58928571D01*
X196242857Y-58871428D01*
X196214285Y-58842857D01*
X196157142Y-58814285D01*
X196014285Y-58814285D01*
X195957142Y-58842857D01*
X195928571Y-58871428D01*
X195900000Y-58928571D01*
X195900000Y-59042857D01*
X195928571Y-59100000D01*
X195957142Y-59128571D01*
X196014285Y-59157142D01*
X195871428Y-58300000D02*
X196271428Y-58300000D01*
X195642857Y-58442857D02*
X196071428Y-58585714D01*
X196071428Y-58214285D01*
D18*
X196726190Y-60140476D02*
X196726190Y-59830952D01*
X196916666Y-59997619D01*
X196916666Y-59926190D01*
X196940476Y-59878571D01*
X196964285Y-59854761D01*
X197011904Y-59830952D01*
X197130952Y-59830952D01*
X197178571Y-59854761D01*
X197202380Y-59878571D01*
X197226190Y-59926190D01*
X197226190Y-60069047D01*
X197202380Y-60116666D01*
X197178571Y-60140476D01*
X197178571Y-59616666D02*
X197202380Y-59592857D01*
X197226190Y-59616666D01*
X197202380Y-59640476D01*
X197178571Y-59616666D01*
X197226190Y-59616666D01*
X197226190Y-59354761D02*
X197226190Y-59259523D01*
X197202380Y-59211904D01*
X197178571Y-59188095D01*
X197107142Y-59140476D01*
X197011904Y-59116666D01*
X196821428Y-59116666D01*
X196773809Y-59140476D01*
X196750000Y-59164285D01*
X196726190Y-59211904D01*
X196726190Y-59307142D01*
X196750000Y-59354761D01*
X196773809Y-59378571D01*
X196821428Y-59402380D01*
X196940476Y-59402380D01*
X196988095Y-59378571D01*
X197011904Y-59354761D01*
X197035714Y-59307142D01*
X197035714Y-59211904D01*
X197011904Y-59164285D01*
X196988095Y-59140476D01*
X196940476Y-59116666D01*
X196892857Y-58902380D02*
X197392857Y-58902380D01*
X196916666Y-58902380D02*
X196892857Y-58854761D01*
X196892857Y-58759523D01*
X196916666Y-58711904D01*
X196940476Y-58688095D01*
X196988095Y-58664285D01*
X197130952Y-58664285D01*
X197178571Y-58688095D01*
X197202380Y-58711904D01*
X197226190Y-58759523D01*
X197226190Y-58854761D01*
X197202380Y-58902380D01*
X196726190Y-58378571D02*
X196845238Y-58378571D01*
X196797619Y-58497619D02*
X196845238Y-58378571D01*
X196797619Y-58259523D01*
X196940476Y-58450000D02*
X196845238Y-58378571D01*
X196940476Y-58307142D01*
D11*
X127685714Y-90842857D02*
X127771428Y-90871428D01*
X127914285Y-90871428D01*
X127971428Y-90842857D01*
X128000000Y-90814285D01*
X128028571Y-90757142D01*
X128028571Y-90700000D01*
X128000000Y-90642857D01*
X127971428Y-90614285D01*
X127914285Y-90585714D01*
X127800000Y-90557142D01*
X127742857Y-90528571D01*
X127714285Y-90500000D01*
X127685714Y-90442857D01*
X127685714Y-90385714D01*
X127714285Y-90328571D01*
X127742857Y-90300000D01*
X127800000Y-90271428D01*
X127942857Y-90271428D01*
X128028571Y-90300000D01*
X128257142Y-90700000D02*
X128542857Y-90700000D01*
X128200000Y-90871428D02*
X128400000Y-90271428D01*
X128600000Y-90871428D01*
X129114285Y-90871428D02*
X128771428Y-90871428D01*
X128942857Y-90871428D02*
X128942857Y-90271428D01*
X128885714Y-90357142D01*
X128828571Y-90414285D01*
X128771428Y-90442857D01*
X126408857Y-86106857D02*
X126494571Y-86135428D01*
X126637428Y-86135428D01*
X126694571Y-86106857D01*
X126723142Y-86078285D01*
X126751714Y-86021142D01*
X126751714Y-85964000D01*
X126723142Y-85906857D01*
X126694571Y-85878285D01*
X126637428Y-85849714D01*
X126523142Y-85821142D01*
X126466000Y-85792571D01*
X126437428Y-85764000D01*
X126408857Y-85706857D01*
X126408857Y-85649714D01*
X126437428Y-85592571D01*
X126466000Y-85564000D01*
X126523142Y-85535428D01*
X126666000Y-85535428D01*
X126751714Y-85564000D01*
X126951714Y-85535428D02*
X127094571Y-86135428D01*
X127208857Y-85706857D01*
X127323142Y-86135428D01*
X127466000Y-85535428D01*
X127551714Y-86192571D02*
X128008857Y-86192571D01*
X128151714Y-86135428D02*
X128151714Y-85535428D01*
X128380285Y-85535428D01*
X128437428Y-85564000D01*
X128466000Y-85592571D01*
X128494571Y-85649714D01*
X128494571Y-85735428D01*
X128466000Y-85792571D01*
X128437428Y-85821142D01*
X128380285Y-85849714D01*
X128151714Y-85849714D01*
X128751714Y-85535428D02*
X128751714Y-86021142D01*
X128780285Y-86078285D01*
X128808857Y-86106857D01*
X128866000Y-86135428D01*
X128980285Y-86135428D01*
X129037428Y-86106857D01*
X129066000Y-86078285D01*
X129094571Y-86021142D01*
X129094571Y-85535428D01*
X129351714Y-86106857D02*
X129437428Y-86135428D01*
X129580285Y-86135428D01*
X129637428Y-86106857D01*
X129666000Y-86078285D01*
X129694571Y-86021142D01*
X129694571Y-85964000D01*
X129666000Y-85906857D01*
X129637428Y-85878285D01*
X129580285Y-85849714D01*
X129466000Y-85821142D01*
X129408857Y-85792571D01*
X129380285Y-85764000D01*
X129351714Y-85706857D01*
X129351714Y-85649714D01*
X129380285Y-85592571D01*
X129408857Y-85564000D01*
X129466000Y-85535428D01*
X129608857Y-85535428D01*
X129694571Y-85564000D01*
X129951714Y-86135428D02*
X129951714Y-85535428D01*
X129951714Y-85821142D02*
X130294571Y-85821142D01*
X130294571Y-86135428D02*
X130294571Y-85535428D01*
X152934285Y-104864285D02*
X152905714Y-104892857D01*
X152820000Y-104921428D01*
X152762857Y-104921428D01*
X152677142Y-104892857D01*
X152620000Y-104835714D01*
X152591428Y-104778571D01*
X152562857Y-104664285D01*
X152562857Y-104578571D01*
X152591428Y-104464285D01*
X152620000Y-104407142D01*
X152677142Y-104350000D01*
X152762857Y-104321428D01*
X152820000Y-104321428D01*
X152905714Y-104350000D01*
X152934285Y-104378571D01*
X153477142Y-104321428D02*
X153191428Y-104321428D01*
X153162857Y-104607142D01*
X153191428Y-104578571D01*
X153248571Y-104550000D01*
X153391428Y-104550000D01*
X153448571Y-104578571D01*
X153477142Y-104607142D01*
X153505714Y-104664285D01*
X153505714Y-104807142D01*
X153477142Y-104864285D01*
X153448571Y-104892857D01*
X153391428Y-104921428D01*
X153248571Y-104921428D01*
X153191428Y-104892857D01*
X153162857Y-104864285D01*
X153877142Y-104321428D02*
X153934285Y-104321428D01*
X153991428Y-104350000D01*
X154020000Y-104378571D01*
X154048571Y-104435714D01*
X154077142Y-104550000D01*
X154077142Y-104692857D01*
X154048571Y-104807142D01*
X154020000Y-104864285D01*
X153991428Y-104892857D01*
X153934285Y-104921428D01*
X153877142Y-104921428D01*
X153820000Y-104892857D01*
X153791428Y-104864285D01*
X153762857Y-104807142D01*
X153734285Y-104692857D01*
X153734285Y-104550000D01*
X153762857Y-104435714D01*
X153791428Y-104378571D01*
X153820000Y-104350000D01*
X153877142Y-104321428D01*
X152971428Y-105521428D02*
X153028571Y-105521428D01*
X153085714Y-105550000D01*
X153114285Y-105578571D01*
X153142857Y-105635714D01*
X153171428Y-105750000D01*
X153171428Y-105892857D01*
X153142857Y-106007142D01*
X153114285Y-106064285D01*
X153085714Y-106092857D01*
X153028571Y-106121428D01*
X152971428Y-106121428D01*
X152914285Y-106092857D01*
X152885714Y-106064285D01*
X152857142Y-106007142D01*
X152828571Y-105892857D01*
X152828571Y-105750000D01*
X152857142Y-105635714D01*
X152885714Y-105578571D01*
X152914285Y-105550000D01*
X152971428Y-105521428D01*
X153428571Y-106064285D02*
X153457142Y-106092857D01*
X153428571Y-106121428D01*
X153400000Y-106092857D01*
X153428571Y-106064285D01*
X153428571Y-106121428D01*
X154028571Y-106121428D02*
X153685714Y-106121428D01*
X153857142Y-106121428D02*
X153857142Y-105521428D01*
X153800000Y-105607142D01*
X153742857Y-105664285D01*
X153685714Y-105692857D01*
X154542857Y-105721428D02*
X154542857Y-106121428D01*
X154285714Y-105721428D02*
X154285714Y-106035714D01*
X154314285Y-106092857D01*
X154371428Y-106121428D01*
X154457142Y-106121428D01*
X154514285Y-106092857D01*
X154542857Y-106064285D01*
X194444285Y-107845714D02*
X194472857Y-107874285D01*
X194501428Y-107960000D01*
X194501428Y-108017142D01*
X194472857Y-108102857D01*
X194415714Y-108160000D01*
X194358571Y-108188571D01*
X194244285Y-108217142D01*
X194158571Y-108217142D01*
X194044285Y-108188571D01*
X193987142Y-108160000D01*
X193930000Y-108102857D01*
X193901428Y-108017142D01*
X193901428Y-107960000D01*
X193930000Y-107874285D01*
X193958571Y-107845714D01*
X194101428Y-107331428D02*
X194501428Y-107331428D01*
X193872857Y-107474285D02*
X194301428Y-107617142D01*
X194301428Y-107245714D01*
X194101428Y-106760000D02*
X194501428Y-106760000D01*
X193872857Y-106902857D02*
X194301428Y-107045714D01*
X194301428Y-106674285D01*
X196071428Y-108071428D02*
X196071428Y-108414285D01*
X196071428Y-108242857D02*
X195471428Y-108242857D01*
X195557142Y-108300000D01*
X195614285Y-108357142D01*
X195642857Y-108414285D01*
X195471428Y-107528571D02*
X195471428Y-107814285D01*
X195757142Y-107842857D01*
X195728571Y-107814285D01*
X195700000Y-107757142D01*
X195700000Y-107614285D01*
X195728571Y-107557142D01*
X195757142Y-107528571D01*
X195814285Y-107500000D01*
X195957142Y-107500000D01*
X196014285Y-107528571D01*
X196042857Y-107557142D01*
X196071428Y-107614285D01*
X196071428Y-107757142D01*
X196042857Y-107814285D01*
X196014285Y-107842857D01*
X195471428Y-107128571D02*
X195471428Y-107071428D01*
X195500000Y-107014285D01*
X195528571Y-106985714D01*
X195585714Y-106957142D01*
X195700000Y-106928571D01*
X195842857Y-106928571D01*
X195957142Y-106957142D01*
X196014285Y-106985714D01*
X196042857Y-107014285D01*
X196071428Y-107071428D01*
X196071428Y-107128571D01*
X196042857Y-107185714D01*
X196014285Y-107214285D01*
X195957142Y-107242857D01*
X195842857Y-107271428D01*
X195700000Y-107271428D01*
X195585714Y-107242857D01*
X195528571Y-107214285D01*
X195500000Y-107185714D01*
X195471428Y-107128571D01*
X195671428Y-106671428D02*
X196271428Y-106671428D01*
X195700000Y-106671428D02*
X195671428Y-106614285D01*
X195671428Y-106500000D01*
X195700000Y-106442857D01*
X195728571Y-106414285D01*
X195785714Y-106385714D01*
X195957142Y-106385714D01*
X196014285Y-106414285D01*
X196042857Y-106442857D01*
X196071428Y-106500000D01*
X196071428Y-106614285D01*
X196042857Y-106671428D01*
X183254285Y-105174285D02*
X183225714Y-105202857D01*
X183140000Y-105231428D01*
X183082857Y-105231428D01*
X182997142Y-105202857D01*
X182940000Y-105145714D01*
X182911428Y-105088571D01*
X182882857Y-104974285D01*
X182882857Y-104888571D01*
X182911428Y-104774285D01*
X182940000Y-104717142D01*
X182997142Y-104660000D01*
X183082857Y-104631428D01*
X183140000Y-104631428D01*
X183225714Y-104660000D01*
X183254285Y-104688571D01*
X183768571Y-104831428D02*
X183768571Y-105231428D01*
X183625714Y-104602857D02*
X183482857Y-105031428D01*
X183854285Y-105031428D01*
X184340000Y-104631428D02*
X184225714Y-104631428D01*
X184168571Y-104660000D01*
X184140000Y-104688571D01*
X184082857Y-104774285D01*
X184054285Y-104888571D01*
X184054285Y-105117142D01*
X184082857Y-105174285D01*
X184111428Y-105202857D01*
X184168571Y-105231428D01*
X184282857Y-105231428D01*
X184340000Y-105202857D01*
X184368571Y-105174285D01*
X184397142Y-105117142D01*
X184397142Y-104974285D01*
X184368571Y-104917142D01*
X184340000Y-104888571D01*
X184282857Y-104860000D01*
X184168571Y-104860000D01*
X184111428Y-104888571D01*
X184082857Y-104917142D01*
X184054285Y-104974285D01*
X182761428Y-103271428D02*
X182818571Y-103271428D01*
X182875714Y-103300000D01*
X182904285Y-103328571D01*
X182932857Y-103385714D01*
X182961428Y-103500000D01*
X182961428Y-103642857D01*
X182932857Y-103757142D01*
X182904285Y-103814285D01*
X182875714Y-103842857D01*
X182818571Y-103871428D01*
X182761428Y-103871428D01*
X182704285Y-103842857D01*
X182675714Y-103814285D01*
X182647142Y-103757142D01*
X182618571Y-103642857D01*
X182618571Y-103500000D01*
X182647142Y-103385714D01*
X182675714Y-103328571D01*
X182704285Y-103300000D01*
X182761428Y-103271428D01*
X183218571Y-103814285D02*
X183247142Y-103842857D01*
X183218571Y-103871428D01*
X183190000Y-103842857D01*
X183218571Y-103814285D01*
X183218571Y-103871428D01*
X183818571Y-103871428D02*
X183475714Y-103871428D01*
X183647142Y-103871428D02*
X183647142Y-103271428D01*
X183590000Y-103357142D01*
X183532857Y-103414285D01*
X183475714Y-103442857D01*
X184332857Y-103471428D02*
X184332857Y-103871428D01*
X184075714Y-103471428D02*
X184075714Y-103785714D01*
X184104285Y-103842857D01*
X184161428Y-103871428D01*
X184247142Y-103871428D01*
X184304285Y-103842857D01*
X184332857Y-103814285D01*
X194214285Y-55837885D02*
X194185714Y-55866457D01*
X194100000Y-55895028D01*
X194042857Y-55895028D01*
X193957142Y-55866457D01*
X193900000Y-55809314D01*
X193871428Y-55752171D01*
X193842857Y-55637885D01*
X193842857Y-55552171D01*
X193871428Y-55437885D01*
X193900000Y-55380742D01*
X193957142Y-55323600D01*
X194042857Y-55295028D01*
X194100000Y-55295028D01*
X194185714Y-55323600D01*
X194214285Y-55352171D01*
X194757142Y-55295028D02*
X194471428Y-55295028D01*
X194442857Y-55580742D01*
X194471428Y-55552171D01*
X194528571Y-55523600D01*
X194671428Y-55523600D01*
X194728571Y-55552171D01*
X194757142Y-55580742D01*
X194785714Y-55637885D01*
X194785714Y-55780742D01*
X194757142Y-55837885D01*
X194728571Y-55866457D01*
X194671428Y-55895028D01*
X194528571Y-55895028D01*
X194471428Y-55866457D01*
X194442857Y-55837885D01*
X194985714Y-55295028D02*
X195385714Y-55295028D01*
X195128571Y-55895028D01*
X194814285Y-54671428D02*
X194471428Y-54671428D01*
X194642857Y-54671428D02*
X194642857Y-54071428D01*
X194585714Y-54157142D01*
X194528571Y-54214285D01*
X194471428Y-54242857D01*
X195185714Y-54071428D02*
X195242857Y-54071428D01*
X195300000Y-54100000D01*
X195328571Y-54128571D01*
X195357142Y-54185714D01*
X195385714Y-54300000D01*
X195385714Y-54442857D01*
X195357142Y-54557142D01*
X195328571Y-54614285D01*
X195300000Y-54642857D01*
X195242857Y-54671428D01*
X195185714Y-54671428D01*
X195128571Y-54642857D01*
X195100000Y-54614285D01*
X195071428Y-54557142D01*
X195042857Y-54442857D01*
X195042857Y-54300000D01*
X195071428Y-54185714D01*
X195100000Y-54128571D01*
X195128571Y-54100000D01*
X195185714Y-54071428D01*
X195642857Y-54271428D02*
X195642857Y-54671428D01*
X195642857Y-54328571D02*
X195671428Y-54300000D01*
X195728571Y-54271428D01*
X195814285Y-54271428D01*
X195871428Y-54300000D01*
X195900000Y-54357142D01*
X195900000Y-54671428D01*
X189014285Y-52585714D02*
X189042857Y-52614285D01*
X189071428Y-52700000D01*
X189071428Y-52757142D01*
X189042857Y-52842857D01*
X188985714Y-52900000D01*
X188928571Y-52928571D01*
X188814285Y-52957142D01*
X188728571Y-52957142D01*
X188614285Y-52928571D01*
X188557142Y-52900000D01*
X188500000Y-52842857D01*
X188471428Y-52757142D01*
X188471428Y-52700000D01*
X188500000Y-52614285D01*
X188528571Y-52585714D01*
X188471428Y-52071428D02*
X188471428Y-52185714D01*
X188500000Y-52242857D01*
X188528571Y-52271428D01*
X188614285Y-52328571D01*
X188728571Y-52357142D01*
X188957142Y-52357142D01*
X189014285Y-52328571D01*
X189042857Y-52300000D01*
X189071428Y-52242857D01*
X189071428Y-52128571D01*
X189042857Y-52071428D01*
X189014285Y-52042857D01*
X188957142Y-52014285D01*
X188814285Y-52014285D01*
X188757142Y-52042857D01*
X188728571Y-52071428D01*
X188700000Y-52128571D01*
X188700000Y-52242857D01*
X188728571Y-52300000D01*
X188757142Y-52328571D01*
X188814285Y-52357142D01*
X188528571Y-51785714D02*
X188500000Y-51757142D01*
X188471428Y-51700000D01*
X188471428Y-51557142D01*
X188500000Y-51500000D01*
X188528571Y-51471428D01*
X188585714Y-51442857D01*
X188642857Y-51442857D01*
X188728571Y-51471428D01*
X189071428Y-51814285D01*
X189071428Y-51442857D01*
X186928571Y-52814285D02*
X186900000Y-52785714D01*
X186871428Y-52728571D01*
X186871428Y-52585714D01*
X186900000Y-52528571D01*
X186928571Y-52500000D01*
X186985714Y-52471428D01*
X187042857Y-52471428D01*
X187128571Y-52500000D01*
X187471428Y-52842857D01*
X187471428Y-52471428D01*
X186928571Y-52242857D02*
X186900000Y-52214285D01*
X186871428Y-52157142D01*
X186871428Y-52014285D01*
X186900000Y-51957142D01*
X186928571Y-51928571D01*
X186985714Y-51900000D01*
X187042857Y-51900000D01*
X187128571Y-51928571D01*
X187471428Y-52271428D01*
X187471428Y-51900000D01*
X186871428Y-51528571D02*
X186871428Y-51471428D01*
X186900000Y-51414285D01*
X186928571Y-51385714D01*
X186985714Y-51357142D01*
X187100000Y-51328571D01*
X187242857Y-51328571D01*
X187357142Y-51357142D01*
X187414285Y-51385714D01*
X187442857Y-51414285D01*
X187471428Y-51471428D01*
X187471428Y-51528571D01*
X187442857Y-51585714D01*
X187414285Y-51614285D01*
X187357142Y-51642857D01*
X187242857Y-51671428D01*
X187100000Y-51671428D01*
X186985714Y-51642857D01*
X186928571Y-51614285D01*
X186900000Y-51585714D01*
X186871428Y-51528571D01*
X187071428Y-51071428D02*
X187671428Y-51071428D01*
X187100000Y-51071428D02*
X187071428Y-51014285D01*
X187071428Y-50900000D01*
X187100000Y-50842857D01*
X187128571Y-50814285D01*
X187185714Y-50785714D01*
X187357142Y-50785714D01*
X187414285Y-50814285D01*
X187442857Y-50842857D01*
X187471428Y-50900000D01*
X187471428Y-51014285D01*
X187442857Y-51071428D01*
X184014285Y-58414285D02*
X183985714Y-58442857D01*
X183900000Y-58471428D01*
X183842857Y-58471428D01*
X183757142Y-58442857D01*
X183700000Y-58385714D01*
X183671428Y-58328571D01*
X183642857Y-58214285D01*
X183642857Y-58128571D01*
X183671428Y-58014285D01*
X183700000Y-57957142D01*
X183757142Y-57900000D01*
X183842857Y-57871428D01*
X183900000Y-57871428D01*
X183985714Y-57900000D01*
X184014285Y-57928571D01*
X184528571Y-57871428D02*
X184414285Y-57871428D01*
X184357142Y-57900000D01*
X184328571Y-57928571D01*
X184271428Y-58014285D01*
X184242857Y-58128571D01*
X184242857Y-58357142D01*
X184271428Y-58414285D01*
X184300000Y-58442857D01*
X184357142Y-58471428D01*
X184471428Y-58471428D01*
X184528571Y-58442857D01*
X184557142Y-58414285D01*
X184585714Y-58357142D01*
X184585714Y-58214285D01*
X184557142Y-58157142D01*
X184528571Y-58128571D01*
X184471428Y-58100000D01*
X184357142Y-58100000D01*
X184300000Y-58128571D01*
X184271428Y-58157142D01*
X184242857Y-58214285D01*
X185157142Y-58471428D02*
X184814285Y-58471428D01*
X184985714Y-58471428D02*
X184985714Y-57871428D01*
X184928571Y-57957142D01*
X184871428Y-58014285D01*
X184814285Y-58042857D01*
X184271428Y-56471428D02*
X184328571Y-56471428D01*
X184385714Y-56500000D01*
X184414285Y-56528571D01*
X184442857Y-56585714D01*
X184471428Y-56700000D01*
X184471428Y-56842857D01*
X184442857Y-56957142D01*
X184414285Y-57014285D01*
X184385714Y-57042857D01*
X184328571Y-57071428D01*
X184271428Y-57071428D01*
X184214285Y-57042857D01*
X184185714Y-57014285D01*
X184157142Y-56957142D01*
X184128571Y-56842857D01*
X184128571Y-56700000D01*
X184157142Y-56585714D01*
X184185714Y-56528571D01*
X184214285Y-56500000D01*
X184271428Y-56471428D01*
X184728571Y-57014285D02*
X184757142Y-57042857D01*
X184728571Y-57071428D01*
X184700000Y-57042857D01*
X184728571Y-57014285D01*
X184728571Y-57071428D01*
X185328571Y-57071428D02*
X184985714Y-57071428D01*
X185157142Y-57071428D02*
X185157142Y-56471428D01*
X185100000Y-56557142D01*
X185042857Y-56614285D01*
X184985714Y-56642857D01*
X185842857Y-56671428D02*
X185842857Y-57071428D01*
X185585714Y-56671428D02*
X185585714Y-56985714D01*
X185614285Y-57042857D01*
X185671428Y-57071428D01*
X185757142Y-57071428D01*
X185814285Y-57042857D01*
X185842857Y-57014285D01*
X189414285Y-62014285D02*
X189385714Y-62042857D01*
X189300000Y-62071428D01*
X189242857Y-62071428D01*
X189157142Y-62042857D01*
X189100000Y-61985714D01*
X189071428Y-61928571D01*
X189042857Y-61814285D01*
X189042857Y-61728571D01*
X189071428Y-61614285D01*
X189100000Y-61557142D01*
X189157142Y-61500000D01*
X189242857Y-61471428D01*
X189300000Y-61471428D01*
X189385714Y-61500000D01*
X189414285Y-61528571D01*
X189928571Y-61471428D02*
X189814285Y-61471428D01*
X189757142Y-61500000D01*
X189728571Y-61528571D01*
X189671428Y-61614285D01*
X189642857Y-61728571D01*
X189642857Y-61957142D01*
X189671428Y-62014285D01*
X189700000Y-62042857D01*
X189757142Y-62071428D01*
X189871428Y-62071428D01*
X189928571Y-62042857D01*
X189957142Y-62014285D01*
X189985714Y-61957142D01*
X189985714Y-61814285D01*
X189957142Y-61757142D01*
X189928571Y-61728571D01*
X189871428Y-61700000D01*
X189757142Y-61700000D01*
X189700000Y-61728571D01*
X189671428Y-61757142D01*
X189642857Y-61814285D01*
X190357142Y-61471428D02*
X190414285Y-61471428D01*
X190471428Y-61500000D01*
X190500000Y-61528571D01*
X190528571Y-61585714D01*
X190557142Y-61700000D01*
X190557142Y-61842857D01*
X190528571Y-61957142D01*
X190500000Y-62014285D01*
X190471428Y-62042857D01*
X190414285Y-62071428D01*
X190357142Y-62071428D01*
X190300000Y-62042857D01*
X190271428Y-62014285D01*
X190242857Y-61957142D01*
X190214285Y-61842857D01*
X190214285Y-61700000D01*
X190242857Y-61585714D01*
X190271428Y-61528571D01*
X190300000Y-61500000D01*
X190357142Y-61471428D01*
X191814285Y-61471428D02*
X191471428Y-61471428D01*
X191642857Y-61471428D02*
X191642857Y-60871428D01*
X191585714Y-60957142D01*
X191528571Y-61014285D01*
X191471428Y-61042857D01*
X192185714Y-60871428D02*
X192242857Y-60871428D01*
X192300000Y-60900000D01*
X192328571Y-60928571D01*
X192357142Y-60985714D01*
X192385714Y-61100000D01*
X192385714Y-61242857D01*
X192357142Y-61357142D01*
X192328571Y-61414285D01*
X192300000Y-61442857D01*
X192242857Y-61471428D01*
X192185714Y-61471428D01*
X192128571Y-61442857D01*
X192100000Y-61414285D01*
X192071428Y-61357142D01*
X192042857Y-61242857D01*
X192042857Y-61100000D01*
X192071428Y-60985714D01*
X192100000Y-60928571D01*
X192128571Y-60900000D01*
X192185714Y-60871428D01*
X192642857Y-61071428D02*
X192642857Y-61471428D01*
X192642857Y-61128571D02*
X192671428Y-61100000D01*
X192728571Y-61071428D01*
X192814285Y-61071428D01*
X192871428Y-61100000D01*
X192900000Y-61157142D01*
X192900000Y-61471428D01*
X165194285Y-109984285D02*
X165165714Y-110012857D01*
X165080000Y-110041428D01*
X165022857Y-110041428D01*
X164937142Y-110012857D01*
X164880000Y-109955714D01*
X164851428Y-109898571D01*
X164822857Y-109784285D01*
X164822857Y-109698571D01*
X164851428Y-109584285D01*
X164880000Y-109527142D01*
X164937142Y-109470000D01*
X165022857Y-109441428D01*
X165080000Y-109441428D01*
X165165714Y-109470000D01*
X165194285Y-109498571D01*
X165737142Y-109441428D02*
X165451428Y-109441428D01*
X165422857Y-109727142D01*
X165451428Y-109698571D01*
X165508571Y-109670000D01*
X165651428Y-109670000D01*
X165708571Y-109698571D01*
X165737142Y-109727142D01*
X165765714Y-109784285D01*
X165765714Y-109927142D01*
X165737142Y-109984285D01*
X165708571Y-110012857D01*
X165651428Y-110041428D01*
X165508571Y-110041428D01*
X165451428Y-110012857D01*
X165422857Y-109984285D01*
X165994285Y-109498571D02*
X166022857Y-109470000D01*
X166080000Y-109441428D01*
X166222857Y-109441428D01*
X166280000Y-109470000D01*
X166308571Y-109498571D01*
X166337142Y-109555714D01*
X166337142Y-109612857D01*
X166308571Y-109698571D01*
X165965714Y-110041428D01*
X166337142Y-110041428D01*
X167700000Y-110071428D02*
X167357142Y-110071428D01*
X167528571Y-110071428D02*
X167528571Y-109471428D01*
X167471428Y-109557142D01*
X167414285Y-109614285D01*
X167357142Y-109642857D01*
X168214285Y-109671428D02*
X168214285Y-110071428D01*
X167957142Y-109671428D02*
X167957142Y-109985714D01*
X167985714Y-110042857D01*
X168042857Y-110071428D01*
X168128571Y-110071428D01*
X168185714Y-110042857D01*
X168214285Y-110014285D01*
X181214285Y-107785714D02*
X181242857Y-107814285D01*
X181271428Y-107900000D01*
X181271428Y-107957142D01*
X181242857Y-108042857D01*
X181185714Y-108100000D01*
X181128571Y-108128571D01*
X181014285Y-108157142D01*
X180928571Y-108157142D01*
X180814285Y-108128571D01*
X180757142Y-108100000D01*
X180700000Y-108042857D01*
X180671428Y-107957142D01*
X180671428Y-107900000D01*
X180700000Y-107814285D01*
X180728571Y-107785714D01*
X180871428Y-107271428D02*
X181271428Y-107271428D01*
X180642857Y-107414285D02*
X181071428Y-107557142D01*
X181071428Y-107185714D01*
X181271428Y-106928571D02*
X181271428Y-106814285D01*
X181242857Y-106757142D01*
X181214285Y-106728571D01*
X181128571Y-106671428D01*
X181014285Y-106642857D01*
X180785714Y-106642857D01*
X180728571Y-106671428D01*
X180700000Y-106700000D01*
X180671428Y-106757142D01*
X180671428Y-106871428D01*
X180700000Y-106928571D01*
X180728571Y-106957142D01*
X180785714Y-106985714D01*
X180928571Y-106985714D01*
X180985714Y-106957142D01*
X181014285Y-106928571D01*
X181042857Y-106871428D01*
X181042857Y-106757142D01*
X181014285Y-106700000D01*
X180985714Y-106671428D01*
X180928571Y-106642857D01*
X181397428Y-110995428D02*
X181397428Y-111338285D01*
X181397428Y-111166857D02*
X180797428Y-111166857D01*
X180883142Y-111224000D01*
X180940285Y-111281142D01*
X180968857Y-111338285D01*
X180797428Y-110624000D02*
X180797428Y-110566857D01*
X180826000Y-110509714D01*
X180854571Y-110481142D01*
X180911714Y-110452571D01*
X181026000Y-110424000D01*
X181168857Y-110424000D01*
X181283142Y-110452571D01*
X181340285Y-110481142D01*
X181368857Y-110509714D01*
X181397428Y-110566857D01*
X181397428Y-110624000D01*
X181368857Y-110681142D01*
X181340285Y-110709714D01*
X181283142Y-110738285D01*
X181168857Y-110766857D01*
X181026000Y-110766857D01*
X180911714Y-110738285D01*
X180854571Y-110709714D01*
X180826000Y-110681142D01*
X180797428Y-110624000D01*
X180797428Y-110052571D02*
X180797428Y-109995428D01*
X180826000Y-109938285D01*
X180854571Y-109909714D01*
X180911714Y-109881142D01*
X181026000Y-109852571D01*
X181168857Y-109852571D01*
X181283142Y-109881142D01*
X181340285Y-109909714D01*
X181368857Y-109938285D01*
X181397428Y-109995428D01*
X181397428Y-110052571D01*
X181368857Y-110109714D01*
X181340285Y-110138285D01*
X181283142Y-110166857D01*
X181168857Y-110195428D01*
X181026000Y-110195428D01*
X180911714Y-110166857D01*
X180854571Y-110138285D01*
X180826000Y-110109714D01*
X180797428Y-110052571D01*
X180997428Y-109595428D02*
X181597428Y-109595428D01*
X181026000Y-109595428D02*
X180997428Y-109538285D01*
X180997428Y-109424000D01*
X181026000Y-109366857D01*
X181054571Y-109338285D01*
X181111714Y-109309714D01*
X181283142Y-109309714D01*
X181340285Y-109338285D01*
X181368857Y-109366857D01*
X181397428Y-109424000D01*
X181397428Y-109538285D01*
X181368857Y-109595428D01*
X193914285Y-52985714D02*
X193942857Y-53014285D01*
X193971428Y-53100000D01*
X193971428Y-53157142D01*
X193942857Y-53242857D01*
X193885714Y-53300000D01*
X193828571Y-53328571D01*
X193714285Y-53357142D01*
X193628571Y-53357142D01*
X193514285Y-53328571D01*
X193457142Y-53300000D01*
X193400000Y-53242857D01*
X193371428Y-53157142D01*
X193371428Y-53100000D01*
X193400000Y-53014285D01*
X193428571Y-52985714D01*
X193371428Y-52442857D02*
X193371428Y-52728571D01*
X193657142Y-52757142D01*
X193628571Y-52728571D01*
X193600000Y-52671428D01*
X193600000Y-52528571D01*
X193628571Y-52471428D01*
X193657142Y-52442857D01*
X193714285Y-52414285D01*
X193857142Y-52414285D01*
X193914285Y-52442857D01*
X193942857Y-52471428D01*
X193971428Y-52528571D01*
X193971428Y-52671428D01*
X193942857Y-52728571D01*
X193914285Y-52757142D01*
X193371428Y-51900000D02*
X193371428Y-52014285D01*
X193400000Y-52071428D01*
X193428571Y-52100000D01*
X193514285Y-52157142D01*
X193628571Y-52185714D01*
X193857142Y-52185714D01*
X193914285Y-52157142D01*
X193942857Y-52128571D01*
X193971428Y-52071428D01*
X193971428Y-51957142D01*
X193942857Y-51900000D01*
X193914285Y-51871428D01*
X193857142Y-51842857D01*
X193714285Y-51842857D01*
X193657142Y-51871428D01*
X193628571Y-51900000D01*
X193600000Y-51957142D01*
X193600000Y-52071428D01*
X193628571Y-52128571D01*
X193657142Y-52157142D01*
X193714285Y-52185714D01*
X194728571Y-53214285D02*
X194700000Y-53185714D01*
X194671428Y-53128571D01*
X194671428Y-52985714D01*
X194700000Y-52928571D01*
X194728571Y-52900000D01*
X194785714Y-52871428D01*
X194842857Y-52871428D01*
X194928571Y-52900000D01*
X195271428Y-53242857D01*
X195271428Y-52871428D01*
X194728571Y-52642857D02*
X194700000Y-52614285D01*
X194671428Y-52557142D01*
X194671428Y-52414285D01*
X194700000Y-52357142D01*
X194728571Y-52328571D01*
X194785714Y-52300000D01*
X194842857Y-52300000D01*
X194928571Y-52328571D01*
X195271428Y-52671428D01*
X195271428Y-52300000D01*
X194671428Y-51928571D02*
X194671428Y-51871428D01*
X194700000Y-51814285D01*
X194728571Y-51785714D01*
X194785714Y-51757142D01*
X194900000Y-51728571D01*
X195042857Y-51728571D01*
X195157142Y-51757142D01*
X195214285Y-51785714D01*
X195242857Y-51814285D01*
X195271428Y-51871428D01*
X195271428Y-51928571D01*
X195242857Y-51985714D01*
X195214285Y-52014285D01*
X195157142Y-52042857D01*
X195042857Y-52071428D01*
X194900000Y-52071428D01*
X194785714Y-52042857D01*
X194728571Y-52014285D01*
X194700000Y-51985714D01*
X194671428Y-51928571D01*
X194871428Y-51471428D02*
X195471428Y-51471428D01*
X194900000Y-51471428D02*
X194871428Y-51414285D01*
X194871428Y-51300000D01*
X194900000Y-51242857D01*
X194928571Y-51214285D01*
X194985714Y-51185714D01*
X195157142Y-51185714D01*
X195214285Y-51214285D01*
X195242857Y-51242857D01*
X195271428Y-51300000D01*
X195271428Y-51414285D01*
X195242857Y-51471428D01*
X162214285Y-108014285D02*
X162185714Y-108042857D01*
X162100000Y-108071428D01*
X162042857Y-108071428D01*
X161957142Y-108042857D01*
X161900000Y-107985714D01*
X161871428Y-107928571D01*
X161842857Y-107814285D01*
X161842857Y-107728571D01*
X161871428Y-107614285D01*
X161900000Y-107557142D01*
X161957142Y-107500000D01*
X162042857Y-107471428D01*
X162100000Y-107471428D01*
X162185714Y-107500000D01*
X162214285Y-107528571D01*
X162757142Y-107471428D02*
X162471428Y-107471428D01*
X162442857Y-107757142D01*
X162471428Y-107728571D01*
X162528571Y-107700000D01*
X162671428Y-107700000D01*
X162728571Y-107728571D01*
X162757142Y-107757142D01*
X162785714Y-107814285D01*
X162785714Y-107957142D01*
X162757142Y-108014285D01*
X162728571Y-108042857D01*
X162671428Y-108071428D01*
X162528571Y-108071428D01*
X162471428Y-108042857D01*
X162442857Y-108014285D01*
X163328571Y-107471428D02*
X163042857Y-107471428D01*
X163014285Y-107757142D01*
X163042857Y-107728571D01*
X163100000Y-107700000D01*
X163242857Y-107700000D01*
X163300000Y-107728571D01*
X163328571Y-107757142D01*
X163357142Y-107814285D01*
X163357142Y-107957142D01*
X163328571Y-108014285D01*
X163300000Y-108042857D01*
X163242857Y-108071428D01*
X163100000Y-108071428D01*
X163042857Y-108042857D01*
X163014285Y-108014285D01*
X160300000Y-108071428D02*
X159957142Y-108071428D01*
X160128571Y-108071428D02*
X160128571Y-107471428D01*
X160071428Y-107557142D01*
X160014285Y-107614285D01*
X159957142Y-107642857D01*
X160557142Y-107671428D02*
X160557142Y-108071428D01*
X160557142Y-107728571D02*
X160585714Y-107700000D01*
X160642857Y-107671428D01*
X160728571Y-107671428D01*
X160785714Y-107700000D01*
X160814285Y-107757142D01*
X160814285Y-108071428D01*
X184014285Y-60014285D02*
X183985714Y-60042857D01*
X183900000Y-60071428D01*
X183842857Y-60071428D01*
X183757142Y-60042857D01*
X183700000Y-59985714D01*
X183671428Y-59928571D01*
X183642857Y-59814285D01*
X183642857Y-59728571D01*
X183671428Y-59614285D01*
X183700000Y-59557142D01*
X183757142Y-59500000D01*
X183842857Y-59471428D01*
X183900000Y-59471428D01*
X183985714Y-59500000D01*
X184014285Y-59528571D01*
X184557142Y-59471428D02*
X184271428Y-59471428D01*
X184242857Y-59757142D01*
X184271428Y-59728571D01*
X184328571Y-59700000D01*
X184471428Y-59700000D01*
X184528571Y-59728571D01*
X184557142Y-59757142D01*
X184585714Y-59814285D01*
X184585714Y-59957142D01*
X184557142Y-60014285D01*
X184528571Y-60042857D01*
X184471428Y-60071428D01*
X184328571Y-60071428D01*
X184271428Y-60042857D01*
X184242857Y-60014285D01*
X185100000Y-59671428D02*
X185100000Y-60071428D01*
X184957142Y-59442857D02*
X184814285Y-59871428D01*
X185185714Y-59871428D01*
X181071428Y-60071428D02*
X181128571Y-60071428D01*
X181185714Y-60100000D01*
X181214285Y-60128571D01*
X181242857Y-60185714D01*
X181271428Y-60300000D01*
X181271428Y-60442857D01*
X181242857Y-60557142D01*
X181214285Y-60614285D01*
X181185714Y-60642857D01*
X181128571Y-60671428D01*
X181071428Y-60671428D01*
X181014285Y-60642857D01*
X180985714Y-60614285D01*
X180957142Y-60557142D01*
X180928571Y-60442857D01*
X180928571Y-60300000D01*
X180957142Y-60185714D01*
X180985714Y-60128571D01*
X181014285Y-60100000D01*
X181071428Y-60071428D01*
X181528571Y-60614285D02*
X181557142Y-60642857D01*
X181528571Y-60671428D01*
X181500000Y-60642857D01*
X181528571Y-60614285D01*
X181528571Y-60671428D01*
X182128571Y-60671428D02*
X181785714Y-60671428D01*
X181957142Y-60671428D02*
X181957142Y-60071428D01*
X181900000Y-60157142D01*
X181842857Y-60214285D01*
X181785714Y-60242857D01*
X182642857Y-60271428D02*
X182642857Y-60671428D01*
X182385714Y-60271428D02*
X182385714Y-60585714D01*
X182414285Y-60642857D01*
X182471428Y-60671428D01*
X182557142Y-60671428D01*
X182614285Y-60642857D01*
X182642857Y-60614285D01*
X193087285Y-64483814D02*
X193115857Y-64512385D01*
X193144428Y-64598100D01*
X193144428Y-64655242D01*
X193115857Y-64740957D01*
X193058714Y-64798100D01*
X193001571Y-64826671D01*
X192887285Y-64855242D01*
X192801571Y-64855242D01*
X192687285Y-64826671D01*
X192630142Y-64798100D01*
X192573000Y-64740957D01*
X192544428Y-64655242D01*
X192544428Y-64598100D01*
X192573000Y-64512385D01*
X192601571Y-64483814D01*
X192544428Y-63940957D02*
X192544428Y-64226671D01*
X192830142Y-64255242D01*
X192801571Y-64226671D01*
X192773000Y-64169528D01*
X192773000Y-64026671D01*
X192801571Y-63969528D01*
X192830142Y-63940957D01*
X192887285Y-63912385D01*
X193030142Y-63912385D01*
X193087285Y-63940957D01*
X193115857Y-63969528D01*
X193144428Y-64026671D01*
X193144428Y-64169528D01*
X193115857Y-64226671D01*
X193087285Y-64255242D01*
X192544428Y-63712385D02*
X192544428Y-63340957D01*
X192773000Y-63540957D01*
X192773000Y-63455242D01*
X192801571Y-63398100D01*
X192830142Y-63369528D01*
X192887285Y-63340957D01*
X193030142Y-63340957D01*
X193087285Y-63369528D01*
X193115857Y-63398100D01*
X193144428Y-63455242D01*
X193144428Y-63626671D01*
X193115857Y-63683814D01*
X193087285Y-63712385D01*
X194544428Y-65083814D02*
X194544428Y-65426671D01*
X194544428Y-65255242D02*
X193944428Y-65255242D01*
X194030142Y-65312385D01*
X194087285Y-65369528D01*
X194115857Y-65426671D01*
X194201571Y-64740957D02*
X194173000Y-64798100D01*
X194144428Y-64826671D01*
X194087285Y-64855242D01*
X194058714Y-64855242D01*
X194001571Y-64826671D01*
X193973000Y-64798100D01*
X193944428Y-64740957D01*
X193944428Y-64626671D01*
X193973000Y-64569528D01*
X194001571Y-64540957D01*
X194058714Y-64512385D01*
X194087285Y-64512385D01*
X194144428Y-64540957D01*
X194173000Y-64569528D01*
X194201571Y-64626671D01*
X194201571Y-64740957D01*
X194230142Y-64798100D01*
X194258714Y-64826671D01*
X194315857Y-64855242D01*
X194430142Y-64855242D01*
X194487285Y-64826671D01*
X194515857Y-64798100D01*
X194544428Y-64740957D01*
X194544428Y-64626671D01*
X194515857Y-64569528D01*
X194487285Y-64540957D01*
X194430142Y-64512385D01*
X194315857Y-64512385D01*
X194258714Y-64540957D01*
X194230142Y-64569528D01*
X194201571Y-64626671D01*
X194144428Y-64255242D02*
X194744428Y-64255242D01*
X194173000Y-64255242D02*
X194144428Y-64198100D01*
X194144428Y-64083814D01*
X194173000Y-64026671D01*
X194201571Y-63998100D01*
X194258714Y-63969528D01*
X194430142Y-63969528D01*
X194487285Y-63998100D01*
X194515857Y-64026671D01*
X194544428Y-64083814D01*
X194544428Y-64198100D01*
X194515857Y-64255242D01*
X186909285Y-64515514D02*
X186937857Y-64544085D01*
X186966428Y-64629800D01*
X186966428Y-64686942D01*
X186937857Y-64772657D01*
X186880714Y-64829800D01*
X186823571Y-64858371D01*
X186709285Y-64886942D01*
X186623571Y-64886942D01*
X186509285Y-64858371D01*
X186452142Y-64829800D01*
X186395000Y-64772657D01*
X186366428Y-64686942D01*
X186366428Y-64629800D01*
X186395000Y-64544085D01*
X186423571Y-64515514D01*
X186366428Y-63972657D02*
X186366428Y-64258371D01*
X186652142Y-64286942D01*
X186623571Y-64258371D01*
X186595000Y-64201228D01*
X186595000Y-64058371D01*
X186623571Y-64001228D01*
X186652142Y-63972657D01*
X186709285Y-63944085D01*
X186852142Y-63944085D01*
X186909285Y-63972657D01*
X186937857Y-64001228D01*
X186966428Y-64058371D01*
X186966428Y-64201228D01*
X186937857Y-64258371D01*
X186909285Y-64286942D01*
X186966428Y-63372657D02*
X186966428Y-63715514D01*
X186966428Y-63544085D02*
X186366428Y-63544085D01*
X186452142Y-63601228D01*
X186509285Y-63658371D01*
X186537857Y-63715514D01*
X185566428Y-65115514D02*
X185566428Y-65458371D01*
X185566428Y-65286942D02*
X184966428Y-65286942D01*
X185052142Y-65344085D01*
X185109285Y-65401228D01*
X185137857Y-65458371D01*
X185223571Y-64772657D02*
X185195000Y-64829800D01*
X185166428Y-64858371D01*
X185109285Y-64886942D01*
X185080714Y-64886942D01*
X185023571Y-64858371D01*
X184995000Y-64829800D01*
X184966428Y-64772657D01*
X184966428Y-64658371D01*
X184995000Y-64601228D01*
X185023571Y-64572657D01*
X185080714Y-64544085D01*
X185109285Y-64544085D01*
X185166428Y-64572657D01*
X185195000Y-64601228D01*
X185223571Y-64658371D01*
X185223571Y-64772657D01*
X185252142Y-64829800D01*
X185280714Y-64858371D01*
X185337857Y-64886942D01*
X185452142Y-64886942D01*
X185509285Y-64858371D01*
X185537857Y-64829800D01*
X185566428Y-64772657D01*
X185566428Y-64658371D01*
X185537857Y-64601228D01*
X185509285Y-64572657D01*
X185452142Y-64544085D01*
X185337857Y-64544085D01*
X185280714Y-64572657D01*
X185252142Y-64601228D01*
X185223571Y-64658371D01*
X185166428Y-64286942D02*
X185766428Y-64286942D01*
X185195000Y-64286942D02*
X185166428Y-64229800D01*
X185166428Y-64115514D01*
X185195000Y-64058371D01*
X185223571Y-64029800D01*
X185280714Y-64001228D01*
X185452142Y-64001228D01*
X185509285Y-64029800D01*
X185537857Y-64058371D01*
X185566428Y-64115514D01*
X185566428Y-64229800D01*
X185537857Y-64286942D01*
X194114285Y-61285714D02*
X194142857Y-61314285D01*
X194171428Y-61400000D01*
X194171428Y-61457142D01*
X194142857Y-61542857D01*
X194085714Y-61600000D01*
X194028571Y-61628571D01*
X193914285Y-61657142D01*
X193828571Y-61657142D01*
X193714285Y-61628571D01*
X193657142Y-61600000D01*
X193600000Y-61542857D01*
X193571428Y-61457142D01*
X193571428Y-61400000D01*
X193600000Y-61314285D01*
X193628571Y-61285714D01*
X193571428Y-60742857D02*
X193571428Y-61028571D01*
X193857142Y-61057142D01*
X193828571Y-61028571D01*
X193800000Y-60971428D01*
X193800000Y-60828571D01*
X193828571Y-60771428D01*
X193857142Y-60742857D01*
X193914285Y-60714285D01*
X194057142Y-60714285D01*
X194114285Y-60742857D01*
X194142857Y-60771428D01*
X194171428Y-60828571D01*
X194171428Y-60971428D01*
X194142857Y-61028571D01*
X194114285Y-61057142D01*
X194171428Y-60428571D02*
X194171428Y-60314285D01*
X194142857Y-60257142D01*
X194114285Y-60228571D01*
X194028571Y-60171428D01*
X193914285Y-60142857D01*
X193685714Y-60142857D01*
X193628571Y-60171428D01*
X193600000Y-60200000D01*
X193571428Y-60257142D01*
X193571428Y-60371428D01*
X193600000Y-60428571D01*
X193628571Y-60457142D01*
X193685714Y-60485714D01*
X193828571Y-60485714D01*
X193885714Y-60457142D01*
X193914285Y-60428571D01*
X193942857Y-60371428D01*
X193942857Y-60257142D01*
X193914285Y-60200000D01*
X193885714Y-60171428D01*
X193828571Y-60142857D01*
X195071428Y-62300000D02*
X195071428Y-61928571D01*
X195300000Y-62128571D01*
X195300000Y-62042857D01*
X195328571Y-61985714D01*
X195357142Y-61957142D01*
X195414285Y-61928571D01*
X195557142Y-61928571D01*
X195614285Y-61957142D01*
X195642857Y-61985714D01*
X195671428Y-62042857D01*
X195671428Y-62214285D01*
X195642857Y-62271428D01*
X195614285Y-62300000D01*
X195614285Y-61671428D02*
X195642857Y-61642857D01*
X195671428Y-61671428D01*
X195642857Y-61700000D01*
X195614285Y-61671428D01*
X195671428Y-61671428D01*
X195071428Y-61442857D02*
X195071428Y-61071428D01*
X195300000Y-61271428D01*
X195300000Y-61185714D01*
X195328571Y-61128571D01*
X195357142Y-61100000D01*
X195414285Y-61071428D01*
X195557142Y-61071428D01*
X195614285Y-61100000D01*
X195642857Y-61128571D01*
X195671428Y-61185714D01*
X195671428Y-61357142D01*
X195642857Y-61414285D01*
X195614285Y-61442857D01*
X195271428Y-60814285D02*
X195871428Y-60814285D01*
X195300000Y-60814285D02*
X195271428Y-60757142D01*
X195271428Y-60642857D01*
X195300000Y-60585714D01*
X195328571Y-60557142D01*
X195385714Y-60528571D01*
X195557142Y-60528571D01*
X195614285Y-60557142D01*
X195642857Y-60585714D01*
X195671428Y-60642857D01*
X195671428Y-60757142D01*
X195642857Y-60814285D01*
X150764285Y-107925714D02*
X150792857Y-107954285D01*
X150821428Y-108040000D01*
X150821428Y-108097142D01*
X150792857Y-108182857D01*
X150735714Y-108240000D01*
X150678571Y-108268571D01*
X150564285Y-108297142D01*
X150478571Y-108297142D01*
X150364285Y-108268571D01*
X150307142Y-108240000D01*
X150250000Y-108182857D01*
X150221428Y-108097142D01*
X150221428Y-108040000D01*
X150250000Y-107954285D01*
X150278571Y-107925714D01*
X150221428Y-107382857D02*
X150221428Y-107668571D01*
X150507142Y-107697142D01*
X150478571Y-107668571D01*
X150450000Y-107611428D01*
X150450000Y-107468571D01*
X150478571Y-107411428D01*
X150507142Y-107382857D01*
X150564285Y-107354285D01*
X150707142Y-107354285D01*
X150764285Y-107382857D01*
X150792857Y-107411428D01*
X150821428Y-107468571D01*
X150821428Y-107611428D01*
X150792857Y-107668571D01*
X150764285Y-107697142D01*
X150478571Y-107011428D02*
X150450000Y-107068571D01*
X150421428Y-107097142D01*
X150364285Y-107125714D01*
X150335714Y-107125714D01*
X150278571Y-107097142D01*
X150250000Y-107068571D01*
X150221428Y-107011428D01*
X150221428Y-106897142D01*
X150250000Y-106840000D01*
X150278571Y-106811428D01*
X150335714Y-106782857D01*
X150364285Y-106782857D01*
X150421428Y-106811428D01*
X150450000Y-106840000D01*
X150478571Y-106897142D01*
X150478571Y-107011428D01*
X150507142Y-107068571D01*
X150535714Y-107097142D01*
X150592857Y-107125714D01*
X150707142Y-107125714D01*
X150764285Y-107097142D01*
X150792857Y-107068571D01*
X150821428Y-107011428D01*
X150821428Y-106897142D01*
X150792857Y-106840000D01*
X150764285Y-106811428D01*
X150707142Y-106782857D01*
X150592857Y-106782857D01*
X150535714Y-106811428D01*
X150507142Y-106840000D01*
X150478571Y-106897142D01*
X152271428Y-107700000D02*
X152271428Y-108042857D01*
X152271428Y-107871428D02*
X151671428Y-107871428D01*
X151757142Y-107928571D01*
X151814285Y-107985714D01*
X151842857Y-108042857D01*
X151871428Y-107185714D02*
X152271428Y-107185714D01*
X151871428Y-107442857D02*
X152185714Y-107442857D01*
X152242857Y-107414285D01*
X152271428Y-107357142D01*
X152271428Y-107271428D01*
X152242857Y-107214285D01*
X152214285Y-107185714D01*
X115689285Y-83499985D02*
X115660714Y-83528557D01*
X115575000Y-83557128D01*
X115517857Y-83557128D01*
X115432142Y-83528557D01*
X115375000Y-83471414D01*
X115346428Y-83414271D01*
X115317857Y-83299985D01*
X115317857Y-83214271D01*
X115346428Y-83099985D01*
X115375000Y-83042842D01*
X115432142Y-82985700D01*
X115517857Y-82957128D01*
X115575000Y-82957128D01*
X115660714Y-82985700D01*
X115689285Y-83014271D01*
X116260714Y-83557128D02*
X115917857Y-83557128D01*
X116089285Y-83557128D02*
X116089285Y-82957128D01*
X116032142Y-83042842D01*
X115975000Y-83099985D01*
X115917857Y-83128557D01*
X116775000Y-82957128D02*
X116660714Y-82957128D01*
X116603571Y-82985700D01*
X116575000Y-83014271D01*
X116517857Y-83099985D01*
X116489285Y-83214271D01*
X116489285Y-83442842D01*
X116517857Y-83499985D01*
X116546428Y-83528557D01*
X116603571Y-83557128D01*
X116717857Y-83557128D01*
X116775000Y-83528557D01*
X116803571Y-83499985D01*
X116832142Y-83442842D01*
X116832142Y-83299985D01*
X116803571Y-83242842D01*
X116775000Y-83214271D01*
X116717857Y-83185700D01*
X116603571Y-83185700D01*
X116546428Y-83214271D01*
X116517857Y-83242842D01*
X116489285Y-83299985D01*
X118071428Y-83071428D02*
X118128571Y-83071428D01*
X118185714Y-83100000D01*
X118214285Y-83128571D01*
X118242857Y-83185714D01*
X118271428Y-83300000D01*
X118271428Y-83442857D01*
X118242857Y-83557142D01*
X118214285Y-83614285D01*
X118185714Y-83642857D01*
X118128571Y-83671428D01*
X118071428Y-83671428D01*
X118014285Y-83642857D01*
X117985714Y-83614285D01*
X117957142Y-83557142D01*
X117928571Y-83442857D01*
X117928571Y-83300000D01*
X117957142Y-83185714D01*
X117985714Y-83128571D01*
X118014285Y-83100000D01*
X118071428Y-83071428D01*
X118528571Y-83614285D02*
X118557142Y-83642857D01*
X118528571Y-83671428D01*
X118500000Y-83642857D01*
X118528571Y-83614285D01*
X118528571Y-83671428D01*
X119128571Y-83671428D02*
X118785714Y-83671428D01*
X118957142Y-83671428D02*
X118957142Y-83071428D01*
X118900000Y-83157142D01*
X118842857Y-83214285D01*
X118785714Y-83242857D01*
X119642857Y-83271428D02*
X119642857Y-83671428D01*
X119385714Y-83271428D02*
X119385714Y-83585714D01*
X119414285Y-83642857D01*
X119471428Y-83671428D01*
X119557142Y-83671428D01*
X119614285Y-83642857D01*
X119642857Y-83614285D01*
X115689285Y-85099985D02*
X115660714Y-85128557D01*
X115575000Y-85157128D01*
X115517857Y-85157128D01*
X115432142Y-85128557D01*
X115375000Y-85071414D01*
X115346428Y-85014271D01*
X115317857Y-84899985D01*
X115317857Y-84814271D01*
X115346428Y-84699985D01*
X115375000Y-84642842D01*
X115432142Y-84585700D01*
X115517857Y-84557128D01*
X115575000Y-84557128D01*
X115660714Y-84585700D01*
X115689285Y-84614271D01*
X116260714Y-85157128D02*
X115917857Y-85157128D01*
X116089285Y-85157128D02*
X116089285Y-84557128D01*
X116032142Y-84642842D01*
X115975000Y-84699985D01*
X115917857Y-84728557D01*
X116775000Y-84757128D02*
X116775000Y-85157128D01*
X116632142Y-84528557D02*
X116489285Y-84957128D01*
X116860714Y-84957128D01*
X118214285Y-85071428D02*
X117871428Y-85071428D01*
X118042857Y-85071428D02*
X118042857Y-84471428D01*
X117985714Y-84557142D01*
X117928571Y-84614285D01*
X117871428Y-84642857D01*
X118585714Y-84471428D02*
X118642857Y-84471428D01*
X118700000Y-84500000D01*
X118728571Y-84528571D01*
X118757142Y-84585714D01*
X118785714Y-84700000D01*
X118785714Y-84842857D01*
X118757142Y-84957142D01*
X118728571Y-85014285D01*
X118700000Y-85042857D01*
X118642857Y-85071428D01*
X118585714Y-85071428D01*
X118528571Y-85042857D01*
X118500000Y-85014285D01*
X118471428Y-84957142D01*
X118442857Y-84842857D01*
X118442857Y-84700000D01*
X118471428Y-84585714D01*
X118500000Y-84528571D01*
X118528571Y-84500000D01*
X118585714Y-84471428D01*
X119300000Y-84671428D02*
X119300000Y-85071428D01*
X119042857Y-84671428D02*
X119042857Y-84985714D01*
X119071428Y-85042857D01*
X119128571Y-85071428D01*
X119214285Y-85071428D01*
X119271428Y-85042857D01*
X119300000Y-85014285D01*
X127591285Y-105560714D02*
X127619857Y-105589285D01*
X127648428Y-105675000D01*
X127648428Y-105732142D01*
X127619857Y-105817857D01*
X127562714Y-105875000D01*
X127505571Y-105903571D01*
X127391285Y-105932142D01*
X127305571Y-105932142D01*
X127191285Y-105903571D01*
X127134142Y-105875000D01*
X127077000Y-105817857D01*
X127048428Y-105732142D01*
X127048428Y-105675000D01*
X127077000Y-105589285D01*
X127105571Y-105560714D01*
X127648428Y-104989285D02*
X127648428Y-105332142D01*
X127648428Y-105160714D02*
X127048428Y-105160714D01*
X127134142Y-105217857D01*
X127191285Y-105275000D01*
X127219857Y-105332142D01*
X127105571Y-104760714D02*
X127077000Y-104732142D01*
X127048428Y-104675000D01*
X127048428Y-104532142D01*
X127077000Y-104475000D01*
X127105571Y-104446428D01*
X127162714Y-104417857D01*
X127219857Y-104417857D01*
X127305571Y-104446428D01*
X127648428Y-104789285D01*
X127648428Y-104417857D01*
X127848428Y-107475000D02*
X127848428Y-107817857D01*
X127848428Y-107646428D02*
X127248428Y-107646428D01*
X127334142Y-107703571D01*
X127391285Y-107760714D01*
X127419857Y-107817857D01*
X127448428Y-107217857D02*
X127848428Y-107217857D01*
X127505571Y-107217857D02*
X127477000Y-107189285D01*
X127448428Y-107132142D01*
X127448428Y-107046428D01*
X127477000Y-106989285D01*
X127534142Y-106960714D01*
X127848428Y-106960714D01*
X137791285Y-102289285D02*
X137762714Y-102317857D01*
X137677000Y-102346428D01*
X137619857Y-102346428D01*
X137534142Y-102317857D01*
X137477000Y-102260714D01*
X137448428Y-102203571D01*
X137419857Y-102089285D01*
X137419857Y-102003571D01*
X137448428Y-101889285D01*
X137477000Y-101832142D01*
X137534142Y-101775000D01*
X137619857Y-101746428D01*
X137677000Y-101746428D01*
X137762714Y-101775000D01*
X137791285Y-101803571D01*
X138362714Y-102346428D02*
X138019857Y-102346428D01*
X138191285Y-102346428D02*
X138191285Y-101746428D01*
X138134142Y-101832142D01*
X138077000Y-101889285D01*
X138019857Y-101917857D01*
X138934142Y-102346428D02*
X138591285Y-102346428D01*
X138762714Y-102346428D02*
X138762714Y-101746428D01*
X138705571Y-101832142D01*
X138648428Y-101889285D01*
X138591285Y-101917857D01*
X140477000Y-102046428D02*
X140134142Y-102046428D01*
X140305571Y-102046428D02*
X140305571Y-101446428D01*
X140248428Y-101532142D01*
X140191285Y-101589285D01*
X140134142Y-101617857D01*
X140734142Y-101646428D02*
X140734142Y-102046428D01*
X140734142Y-101703571D02*
X140762714Y-101675000D01*
X140819857Y-101646428D01*
X140905571Y-101646428D01*
X140962714Y-101675000D01*
X140991285Y-101732142D01*
X140991285Y-102046428D01*
X125941285Y-105275000D02*
X125969857Y-105303571D01*
X125998428Y-105389285D01*
X125998428Y-105446428D01*
X125969857Y-105532142D01*
X125912714Y-105589285D01*
X125855571Y-105617857D01*
X125741285Y-105646428D01*
X125655571Y-105646428D01*
X125541285Y-105617857D01*
X125484142Y-105589285D01*
X125427000Y-105532142D01*
X125398428Y-105446428D01*
X125398428Y-105389285D01*
X125427000Y-105303571D01*
X125455571Y-105275000D01*
X125655571Y-104932142D02*
X125627000Y-104989285D01*
X125598428Y-105017857D01*
X125541285Y-105046428D01*
X125512714Y-105046428D01*
X125455571Y-105017857D01*
X125427000Y-104989285D01*
X125398428Y-104932142D01*
X125398428Y-104817857D01*
X125427000Y-104760714D01*
X125455571Y-104732142D01*
X125512714Y-104703571D01*
X125541285Y-104703571D01*
X125598428Y-104732142D01*
X125627000Y-104760714D01*
X125655571Y-104817857D01*
X125655571Y-104932142D01*
X125684142Y-104989285D01*
X125712714Y-105017857D01*
X125769857Y-105046428D01*
X125884142Y-105046428D01*
X125941285Y-105017857D01*
X125969857Y-104989285D01*
X125998428Y-104932142D01*
X125998428Y-104817857D01*
X125969857Y-104760714D01*
X125941285Y-104732142D01*
X125884142Y-104703571D01*
X125769857Y-104703571D01*
X125712714Y-104732142D01*
X125684142Y-104760714D01*
X125655571Y-104817857D01*
X126248428Y-107960714D02*
X126248428Y-108303571D01*
X126248428Y-108132142D02*
X125648428Y-108132142D01*
X125734142Y-108189285D01*
X125791285Y-108246428D01*
X125819857Y-108303571D01*
X125648428Y-107589285D02*
X125648428Y-107532142D01*
X125677000Y-107475000D01*
X125705571Y-107446428D01*
X125762714Y-107417857D01*
X125877000Y-107389285D01*
X126019857Y-107389285D01*
X126134142Y-107417857D01*
X126191285Y-107446428D01*
X126219857Y-107475000D01*
X126248428Y-107532142D01*
X126248428Y-107589285D01*
X126219857Y-107646428D01*
X126191285Y-107675000D01*
X126134142Y-107703571D01*
X126019857Y-107732142D01*
X125877000Y-107732142D01*
X125762714Y-107703571D01*
X125705571Y-107675000D01*
X125677000Y-107646428D01*
X125648428Y-107589285D01*
X125848428Y-106875000D02*
X126248428Y-106875000D01*
X125848428Y-107132142D02*
X126162714Y-107132142D01*
X126219857Y-107103571D01*
X126248428Y-107046428D01*
X126248428Y-106960714D01*
X126219857Y-106903571D01*
X126191285Y-106875000D01*
X138077000Y-103789285D02*
X138048428Y-103817857D01*
X137962714Y-103846428D01*
X137905571Y-103846428D01*
X137819857Y-103817857D01*
X137762714Y-103760714D01*
X137734142Y-103703571D01*
X137705571Y-103589285D01*
X137705571Y-103503571D01*
X137734142Y-103389285D01*
X137762714Y-103332142D01*
X137819857Y-103275000D01*
X137905571Y-103246428D01*
X137962714Y-103246428D01*
X138048428Y-103275000D01*
X138077000Y-103303571D01*
X138591285Y-103446428D02*
X138591285Y-103846428D01*
X138448428Y-103217857D02*
X138305571Y-103646428D01*
X138677000Y-103646428D01*
X140191285Y-104046428D02*
X139848428Y-104046428D01*
X140019857Y-104046428D02*
X140019857Y-103446428D01*
X139962714Y-103532142D01*
X139905571Y-103589285D01*
X139848428Y-103617857D01*
X140562714Y-103446428D02*
X140619857Y-103446428D01*
X140677000Y-103475000D01*
X140705571Y-103503571D01*
X140734142Y-103560714D01*
X140762714Y-103675000D01*
X140762714Y-103817857D01*
X140734142Y-103932142D01*
X140705571Y-103989285D01*
X140677000Y-104017857D01*
X140619857Y-104046428D01*
X140562714Y-104046428D01*
X140505571Y-104017857D01*
X140477000Y-103989285D01*
X140448428Y-103932142D01*
X140419857Y-103817857D01*
X140419857Y-103675000D01*
X140448428Y-103560714D01*
X140477000Y-103503571D01*
X140505571Y-103475000D01*
X140562714Y-103446428D01*
X141277000Y-103646428D02*
X141277000Y-104046428D01*
X141019857Y-103646428D02*
X141019857Y-103960714D01*
X141048428Y-104017857D01*
X141105571Y-104046428D01*
X141191285Y-104046428D01*
X141248428Y-104017857D01*
X141277000Y-103989285D01*
X137764285Y-80235714D02*
X137792857Y-80264285D01*
X137821428Y-80350000D01*
X137821428Y-80407142D01*
X137792857Y-80492857D01*
X137735714Y-80550000D01*
X137678571Y-80578571D01*
X137564285Y-80607142D01*
X137478571Y-80607142D01*
X137364285Y-80578571D01*
X137307142Y-80550000D01*
X137250000Y-80492857D01*
X137221428Y-80407142D01*
X137221428Y-80350000D01*
X137250000Y-80264285D01*
X137278571Y-80235714D01*
X137221428Y-80035714D02*
X137221428Y-79664285D01*
X137450000Y-79864285D01*
X137450000Y-79778571D01*
X137478571Y-79721428D01*
X137507142Y-79692857D01*
X137564285Y-79664285D01*
X137707142Y-79664285D01*
X137764285Y-79692857D01*
X137792857Y-79721428D01*
X137821428Y-79778571D01*
X137821428Y-79950000D01*
X137792857Y-80007142D01*
X137764285Y-80035714D01*
X137821428Y-79092857D02*
X137821428Y-79435714D01*
X137821428Y-79264285D02*
X137221428Y-79264285D01*
X137307142Y-79321428D01*
X137364285Y-79378571D01*
X137392857Y-79435714D01*
X139221428Y-80285714D02*
X139221428Y-80628571D01*
X139221428Y-80457142D02*
X138621428Y-80457142D01*
X138707142Y-80514285D01*
X138764285Y-80571428D01*
X138792857Y-80628571D01*
X138621428Y-79914285D02*
X138621428Y-79857142D01*
X138650000Y-79800000D01*
X138678571Y-79771428D01*
X138735714Y-79742857D01*
X138850000Y-79714285D01*
X138992857Y-79714285D01*
X139107142Y-79742857D01*
X139164285Y-79771428D01*
X139192857Y-79800000D01*
X139221428Y-79857142D01*
X139221428Y-79914285D01*
X139192857Y-79971428D01*
X139164285Y-80000000D01*
X139107142Y-80028571D01*
X138992857Y-80057142D01*
X138850000Y-80057142D01*
X138735714Y-80028571D01*
X138678571Y-80000000D01*
X138650000Y-79971428D01*
X138621428Y-79914285D01*
X138821428Y-79200000D02*
X139221428Y-79200000D01*
X138821428Y-79457142D02*
X139135714Y-79457142D01*
X139192857Y-79428571D01*
X139221428Y-79371428D01*
X139221428Y-79285714D01*
X139192857Y-79228571D01*
X139164285Y-79200000D01*
X161684285Y-59522214D02*
X161712857Y-59550785D01*
X161741428Y-59636500D01*
X161741428Y-59693642D01*
X161712857Y-59779357D01*
X161655714Y-59836500D01*
X161598571Y-59865071D01*
X161484285Y-59893642D01*
X161398571Y-59893642D01*
X161284285Y-59865071D01*
X161227142Y-59836500D01*
X161170000Y-59779357D01*
X161141428Y-59693642D01*
X161141428Y-59636500D01*
X161170000Y-59550785D01*
X161198571Y-59522214D01*
X161141428Y-59322214D02*
X161141428Y-58950785D01*
X161370000Y-59150785D01*
X161370000Y-59065071D01*
X161398571Y-59007928D01*
X161427142Y-58979357D01*
X161484285Y-58950785D01*
X161627142Y-58950785D01*
X161684285Y-58979357D01*
X161712857Y-59007928D01*
X161741428Y-59065071D01*
X161741428Y-59236500D01*
X161712857Y-59293642D01*
X161684285Y-59322214D01*
X161141428Y-58750785D02*
X161141428Y-58379357D01*
X161370000Y-58579357D01*
X161370000Y-58493642D01*
X161398571Y-58436500D01*
X161427142Y-58407928D01*
X161484285Y-58379357D01*
X161627142Y-58379357D01*
X161684285Y-58407928D01*
X161712857Y-58436500D01*
X161741428Y-58493642D01*
X161741428Y-58665071D01*
X161712857Y-58722214D01*
X161684285Y-58750785D01*
X158471888Y-60027631D02*
X158471888Y-59970488D01*
X158500460Y-59913345D01*
X158529031Y-59884774D01*
X158586174Y-59856202D01*
X158700460Y-59827631D01*
X158843317Y-59827631D01*
X158957602Y-59856202D01*
X159014745Y-59884774D01*
X159043317Y-59913345D01*
X159071888Y-59970488D01*
X159071888Y-60027631D01*
X159043317Y-60084774D01*
X159014745Y-60113345D01*
X158957602Y-60141917D01*
X158843317Y-60170488D01*
X158700460Y-60170488D01*
X158586174Y-60141917D01*
X158529031Y-60113345D01*
X158500460Y-60084774D01*
X158471888Y-60027631D01*
X159014745Y-59570488D02*
X159043317Y-59541917D01*
X159071888Y-59570488D01*
X159043317Y-59599060D01*
X159014745Y-59570488D01*
X159071888Y-59570488D01*
X159071888Y-58970488D02*
X159071888Y-59313345D01*
X159071888Y-59141917D02*
X158471888Y-59141917D01*
X158557602Y-59199060D01*
X158614745Y-59256202D01*
X158643317Y-59313345D01*
X158671888Y-58456202D02*
X159071888Y-58456202D01*
X158671888Y-58713345D02*
X158986174Y-58713345D01*
X159043317Y-58684774D01*
X159071888Y-58627631D01*
X159071888Y-58541917D01*
X159043317Y-58484774D01*
X159014745Y-58456202D01*
X115689285Y-86699985D02*
X115660714Y-86728557D01*
X115575000Y-86757128D01*
X115517857Y-86757128D01*
X115432142Y-86728557D01*
X115375000Y-86671414D01*
X115346428Y-86614271D01*
X115317857Y-86499985D01*
X115317857Y-86414271D01*
X115346428Y-86299985D01*
X115375000Y-86242842D01*
X115432142Y-86185700D01*
X115517857Y-86157128D01*
X115575000Y-86157128D01*
X115660714Y-86185700D01*
X115689285Y-86214271D01*
X115917857Y-86214271D02*
X115946428Y-86185700D01*
X116003571Y-86157128D01*
X116146428Y-86157128D01*
X116203571Y-86185700D01*
X116232142Y-86214271D01*
X116260714Y-86271414D01*
X116260714Y-86328557D01*
X116232142Y-86414271D01*
X115889285Y-86757128D01*
X116260714Y-86757128D01*
X116632142Y-86157128D02*
X116689285Y-86157128D01*
X116746428Y-86185700D01*
X116775000Y-86214271D01*
X116803571Y-86271414D01*
X116832142Y-86385700D01*
X116832142Y-86528557D01*
X116803571Y-86642842D01*
X116775000Y-86699985D01*
X116746428Y-86728557D01*
X116689285Y-86757128D01*
X116632142Y-86757128D01*
X116575000Y-86728557D01*
X116546428Y-86699985D01*
X116517857Y-86642842D01*
X116489285Y-86528557D01*
X116489285Y-86385700D01*
X116517857Y-86271414D01*
X116546428Y-86214271D01*
X116575000Y-86185700D01*
X116632142Y-86157128D01*
X115445488Y-87556668D02*
X115502631Y-87556668D01*
X115559774Y-87585240D01*
X115588345Y-87613811D01*
X115616917Y-87670954D01*
X115645488Y-87785240D01*
X115645488Y-87928097D01*
X115616917Y-88042382D01*
X115588345Y-88099525D01*
X115559774Y-88128097D01*
X115502631Y-88156668D01*
X115445488Y-88156668D01*
X115388345Y-88128097D01*
X115359774Y-88099525D01*
X115331202Y-88042382D01*
X115302631Y-87928097D01*
X115302631Y-87785240D01*
X115331202Y-87670954D01*
X115359774Y-87613811D01*
X115388345Y-87585240D01*
X115445488Y-87556668D01*
X115902631Y-88099525D02*
X115931202Y-88128097D01*
X115902631Y-88156668D01*
X115874060Y-88128097D01*
X115902631Y-88099525D01*
X115902631Y-88156668D01*
X116502631Y-88156668D02*
X116159774Y-88156668D01*
X116331202Y-88156668D02*
X116331202Y-87556668D01*
X116274060Y-87642382D01*
X116216917Y-87699525D01*
X116159774Y-87728097D01*
X117016917Y-87756668D02*
X117016917Y-88156668D01*
X116759774Y-87756668D02*
X116759774Y-88070954D01*
X116788345Y-88128097D01*
X116845488Y-88156668D01*
X116931202Y-88156668D01*
X116988345Y-88128097D01*
X117016917Y-88099525D01*
X106937428Y-78635257D02*
X106337428Y-78635257D01*
X106337428Y-78492400D01*
X106366000Y-78406685D01*
X106423142Y-78349542D01*
X106480285Y-78320971D01*
X106594571Y-78292400D01*
X106680285Y-78292400D01*
X106794571Y-78320971D01*
X106851714Y-78349542D01*
X106908857Y-78406685D01*
X106937428Y-78492400D01*
X106937428Y-78635257D01*
X106937428Y-78035257D02*
X106337428Y-78035257D01*
X106337428Y-77892400D01*
X106366000Y-77806685D01*
X106423142Y-77749542D01*
X106480285Y-77720971D01*
X106594571Y-77692400D01*
X106680285Y-77692400D01*
X106794571Y-77720971D01*
X106851714Y-77749542D01*
X106908857Y-77806685D01*
X106937428Y-77892400D01*
X106937428Y-78035257D01*
X106394571Y-77463828D02*
X106366000Y-77435257D01*
X106337428Y-77378114D01*
X106337428Y-77235257D01*
X106366000Y-77178114D01*
X106394571Y-77149542D01*
X106451714Y-77120971D01*
X106508857Y-77120971D01*
X106594571Y-77149542D01*
X106937428Y-77492400D01*
X106937428Y-77120971D01*
X105523142Y-80970971D02*
X105523142Y-80770971D01*
X105837428Y-80685257D02*
X105837428Y-80970971D01*
X105237428Y-80970971D01*
X105237428Y-80685257D01*
X105837428Y-80085257D02*
X105551714Y-80285257D01*
X105837428Y-80428114D02*
X105237428Y-80428114D01*
X105237428Y-80199542D01*
X105266000Y-80142400D01*
X105294571Y-80113828D01*
X105351714Y-80085257D01*
X105437428Y-80085257D01*
X105494571Y-80113828D01*
X105523142Y-80142400D01*
X105551714Y-80199542D01*
X105551714Y-80428114D01*
X105608857Y-79828114D02*
X105608857Y-79370971D01*
X105237428Y-79170971D02*
X105237428Y-78828114D01*
X105837428Y-78999542D02*
X105237428Y-78999542D01*
X105523142Y-78428114D02*
X105523142Y-78628114D01*
X105837428Y-78628114D02*
X105237428Y-78628114D01*
X105237428Y-78342400D01*
X105237428Y-78199542D02*
X105237428Y-77856685D01*
X105837428Y-78028114D02*
X105237428Y-78028114D01*
X105237428Y-77542400D02*
X105237428Y-77485257D01*
X105266000Y-77428114D01*
X105294571Y-77399542D01*
X105351714Y-77370971D01*
X105466000Y-77342400D01*
X105608857Y-77342400D01*
X105723142Y-77370971D01*
X105780285Y-77399542D01*
X105808857Y-77428114D01*
X105837428Y-77485257D01*
X105837428Y-77542400D01*
X105808857Y-77599542D01*
X105780285Y-77628114D01*
X105723142Y-77656685D01*
X105608857Y-77685257D01*
X105466000Y-77685257D01*
X105351714Y-77656685D01*
X105294571Y-77628114D01*
X105266000Y-77599542D01*
X105237428Y-77542400D01*
X105237428Y-77142400D02*
X105237428Y-76770971D01*
X105466000Y-76970971D01*
X105466000Y-76885257D01*
X105494571Y-76828114D01*
X105523142Y-76799542D01*
X105580285Y-76770971D01*
X105723142Y-76770971D01*
X105780285Y-76799542D01*
X105808857Y-76828114D01*
X105837428Y-76885257D01*
X105837428Y-77056685D01*
X105808857Y-77113828D01*
X105780285Y-77142400D01*
X105237428Y-76228114D02*
X105237428Y-76513828D01*
X105523142Y-76542400D01*
X105494571Y-76513828D01*
X105466000Y-76456685D01*
X105466000Y-76313828D01*
X105494571Y-76256685D01*
X105523142Y-76228114D01*
X105580285Y-76199542D01*
X105723142Y-76199542D01*
X105780285Y-76228114D01*
X105808857Y-76256685D01*
X105837428Y-76313828D01*
X105837428Y-76456685D01*
X105808857Y-76513828D01*
X105780285Y-76542400D01*
X105608857Y-75942400D02*
X105608857Y-75485257D01*
X105237428Y-74942400D02*
X105237428Y-75056685D01*
X105266000Y-75113828D01*
X105294571Y-75142400D01*
X105380285Y-75199542D01*
X105494571Y-75228114D01*
X105723142Y-75228114D01*
X105780285Y-75199542D01*
X105808857Y-75170971D01*
X105837428Y-75113828D01*
X105837428Y-74999542D01*
X105808857Y-74942400D01*
X105780285Y-74913828D01*
X105723142Y-74885257D01*
X105580285Y-74885257D01*
X105523142Y-74913828D01*
X105494571Y-74942400D01*
X105466000Y-74999542D01*
X105466000Y-75113828D01*
X105494571Y-75170971D01*
X105523142Y-75199542D01*
X105580285Y-75228114D01*
X171612388Y-55822308D02*
X172012388Y-56422308D01*
X172012388Y-55822308D02*
X171612388Y-56422308D01*
X172526674Y-56422308D02*
X172240960Y-56422308D01*
X172240960Y-55822308D01*
X173040960Y-56422308D02*
X172698102Y-56422308D01*
X172869531Y-56422308D02*
X172869531Y-55822308D01*
X172812388Y-55908022D01*
X172755245Y-55965165D01*
X172698102Y-55993737D01*
X165485714Y-58452380D02*
X164914285Y-58452380D01*
X165200000Y-58452380D02*
X165200000Y-57452380D01*
X165104761Y-57595238D01*
X165009523Y-57690476D01*
X164914285Y-57738095D01*
X161157142Y-111471428D02*
X161157142Y-110871428D01*
X161300000Y-110871428D01*
X161385714Y-110900000D01*
X161442857Y-110957142D01*
X161471428Y-111014285D01*
X161500000Y-111128571D01*
X161500000Y-111214285D01*
X161471428Y-111328571D01*
X161442857Y-111385714D01*
X161385714Y-111442857D01*
X161300000Y-111471428D01*
X161157142Y-111471428D01*
X161700000Y-110871428D02*
X162071428Y-110871428D01*
X161871428Y-111100000D01*
X161957142Y-111100000D01*
X162014285Y-111128571D01*
X162042857Y-111157142D01*
X162071428Y-111214285D01*
X162071428Y-111357142D01*
X162042857Y-111414285D01*
X162014285Y-111442857D01*
X161957142Y-111471428D01*
X161785714Y-111471428D01*
X161728571Y-111442857D01*
X161700000Y-111414285D01*
X159151428Y-109891428D02*
X159151428Y-109291428D01*
X159380000Y-109291428D01*
X159437142Y-109320000D01*
X159465714Y-109348571D01*
X159494285Y-109405714D01*
X159494285Y-109491428D01*
X159465714Y-109548571D01*
X159437142Y-109577142D01*
X159380000Y-109605714D01*
X159151428Y-109605714D01*
X159751428Y-109891428D02*
X159751428Y-109291428D01*
X159951428Y-109720000D01*
X160151428Y-109291428D01*
X160151428Y-109891428D01*
X160722857Y-109891428D02*
X160437142Y-109891428D01*
X160437142Y-109291428D01*
X161208571Y-109891428D02*
X160922857Y-109891428D01*
X160922857Y-109291428D01*
X161665714Y-109491428D02*
X161665714Y-109891428D01*
X161522857Y-109262857D02*
X161380000Y-109691428D01*
X161751428Y-109691428D01*
X162294285Y-109891428D02*
X161951428Y-109891428D01*
X162122857Y-109891428D02*
X162122857Y-109291428D01*
X162065714Y-109377142D01*
X162008571Y-109434285D01*
X161951428Y-109462857D01*
X162808571Y-109491428D02*
X162808571Y-109891428D01*
X162665714Y-109262857D02*
X162522857Y-109691428D01*
X162894285Y-109691428D01*
X163208571Y-109548571D02*
X163151428Y-109520000D01*
X163122857Y-109491428D01*
X163094285Y-109434285D01*
X163094285Y-109405714D01*
X163122857Y-109348571D01*
X163151428Y-109320000D01*
X163208571Y-109291428D01*
X163322857Y-109291428D01*
X163380000Y-109320000D01*
X163408571Y-109348571D01*
X163437142Y-109405714D01*
X163437142Y-109434285D01*
X163408571Y-109491428D01*
X163380000Y-109520000D01*
X163322857Y-109548571D01*
X163208571Y-109548571D01*
X163151428Y-109577142D01*
X163122857Y-109605714D01*
X163094285Y-109662857D01*
X163094285Y-109777142D01*
X163122857Y-109834285D01*
X163151428Y-109862857D01*
X163208571Y-109891428D01*
X163322857Y-109891428D01*
X163380000Y-109862857D01*
X163408571Y-109834285D01*
X163437142Y-109777142D01*
X163437142Y-109662857D01*
X163408571Y-109605714D01*
X163380000Y-109577142D01*
X163322857Y-109548571D01*
X186257142Y-54471428D02*
X186257142Y-53871428D01*
X186400000Y-53871428D01*
X186485714Y-53900000D01*
X186542857Y-53957142D01*
X186571428Y-54014285D01*
X186600000Y-54128571D01*
X186600000Y-54214285D01*
X186571428Y-54328571D01*
X186542857Y-54385714D01*
X186485714Y-54442857D01*
X186400000Y-54471428D01*
X186257142Y-54471428D01*
X186857142Y-54471428D02*
X186857142Y-53871428D01*
X187000000Y-53871428D01*
X187085714Y-53900000D01*
X187142857Y-53957142D01*
X187171428Y-54014285D01*
X187200000Y-54128571D01*
X187200000Y-54214285D01*
X187171428Y-54328571D01*
X187142857Y-54385714D01*
X187085714Y-54442857D01*
X187000000Y-54471428D01*
X186857142Y-54471428D01*
X187742857Y-53871428D02*
X187457142Y-53871428D01*
X187428571Y-54157142D01*
X187457142Y-54128571D01*
X187514285Y-54100000D01*
X187657142Y-54100000D01*
X187714285Y-54128571D01*
X187742857Y-54157142D01*
X187771428Y-54214285D01*
X187771428Y-54357142D01*
X187742857Y-54414285D01*
X187714285Y-54442857D01*
X187657142Y-54471428D01*
X187514285Y-54471428D01*
X187457142Y-54442857D01*
X187428571Y-54414285D01*
X188642857Y-57564285D02*
X188614285Y-57592857D01*
X188528571Y-57621428D01*
X188471428Y-57621428D01*
X188385714Y-57592857D01*
X188328571Y-57535714D01*
X188300000Y-57478571D01*
X188271428Y-57364285D01*
X188271428Y-57278571D01*
X188300000Y-57164285D01*
X188328571Y-57107142D01*
X188385714Y-57050000D01*
X188471428Y-57021428D01*
X188528571Y-57021428D01*
X188614285Y-57050000D01*
X188642857Y-57078571D01*
X189242857Y-57564285D02*
X189214285Y-57592857D01*
X189128571Y-57621428D01*
X189071428Y-57621428D01*
X188985714Y-57592857D01*
X188928571Y-57535714D01*
X188900000Y-57478571D01*
X188871428Y-57364285D01*
X188871428Y-57278571D01*
X188900000Y-57164285D01*
X188928571Y-57107142D01*
X188985714Y-57050000D01*
X189071428Y-57021428D01*
X189128571Y-57021428D01*
X189214285Y-57050000D01*
X189242857Y-57078571D01*
X189814285Y-57621428D02*
X189471428Y-57621428D01*
X189642857Y-57621428D02*
X189642857Y-57021428D01*
X189585714Y-57107142D01*
X189528571Y-57164285D01*
X189471428Y-57192857D01*
X190385714Y-57621428D02*
X190042857Y-57621428D01*
X190214285Y-57621428D02*
X190214285Y-57021428D01*
X190157142Y-57107142D01*
X190100000Y-57164285D01*
X190042857Y-57192857D01*
X190757142Y-57021428D02*
X190814285Y-57021428D01*
X190871428Y-57050000D01*
X190900000Y-57078571D01*
X190928571Y-57135714D01*
X190957142Y-57250000D01*
X190957142Y-57392857D01*
X190928571Y-57507142D01*
X190900000Y-57564285D01*
X190871428Y-57592857D01*
X190814285Y-57621428D01*
X190757142Y-57621428D01*
X190700000Y-57592857D01*
X190671428Y-57564285D01*
X190642857Y-57507142D01*
X190614285Y-57392857D01*
X190614285Y-57250000D01*
X190642857Y-57135714D01*
X190671428Y-57078571D01*
X190700000Y-57050000D01*
X190757142Y-57021428D01*
X191528571Y-57621428D02*
X191185714Y-57621428D01*
X191357142Y-57621428D02*
X191357142Y-57021428D01*
X191300000Y-57107142D01*
X191242857Y-57164285D01*
X191185714Y-57192857D01*
X187031428Y-55671428D02*
X186688571Y-55671428D01*
X186860000Y-55671428D02*
X186860000Y-55071428D01*
X186802857Y-55157142D01*
X186745714Y-55214285D01*
X186688571Y-55242857D01*
X184501428Y-107745714D02*
X184215714Y-107945714D01*
X184501428Y-108088571D02*
X183901428Y-108088571D01*
X183901428Y-107860000D01*
X183930000Y-107802857D01*
X183958571Y-107774285D01*
X184015714Y-107745714D01*
X184101428Y-107745714D01*
X184158571Y-107774285D01*
X184187142Y-107802857D01*
X184215714Y-107860000D01*
X184215714Y-108088571D01*
X183958571Y-107517142D02*
X183930000Y-107488571D01*
X183901428Y-107431428D01*
X183901428Y-107288571D01*
X183930000Y-107231428D01*
X183958571Y-107202857D01*
X184015714Y-107174285D01*
X184072857Y-107174285D01*
X184158571Y-107202857D01*
X184501428Y-107545714D01*
X184501428Y-107174285D01*
X184158571Y-106831428D02*
X184130000Y-106888571D01*
X184101428Y-106917142D01*
X184044285Y-106945714D01*
X184015714Y-106945714D01*
X183958571Y-106917142D01*
X183930000Y-106888571D01*
X183901428Y-106831428D01*
X183901428Y-106717142D01*
X183930000Y-106660000D01*
X183958571Y-106631428D01*
X184015714Y-106602857D01*
X184044285Y-106602857D01*
X184101428Y-106631428D01*
X184130000Y-106660000D01*
X184158571Y-106717142D01*
X184158571Y-106831428D01*
X184187142Y-106888571D01*
X184215714Y-106917142D01*
X184272857Y-106945714D01*
X184387142Y-106945714D01*
X184444285Y-106917142D01*
X184472857Y-106888571D01*
X184501428Y-106831428D01*
X184501428Y-106717142D01*
X184472857Y-106660000D01*
X184444285Y-106631428D01*
X184387142Y-106602857D01*
X184272857Y-106602857D01*
X184215714Y-106631428D01*
X184187142Y-106660000D01*
X184158571Y-106717142D01*
X184471428Y-110357142D02*
X184471428Y-110700000D01*
X184471428Y-110528571D02*
X183871428Y-110528571D01*
X183957142Y-110585714D01*
X184014285Y-110642857D01*
X184042857Y-110700000D01*
X183871428Y-109985714D02*
X183871428Y-109928571D01*
X183900000Y-109871428D01*
X183928571Y-109842857D01*
X183985714Y-109814285D01*
X184100000Y-109785714D01*
X184242857Y-109785714D01*
X184357142Y-109814285D01*
X184414285Y-109842857D01*
X184442857Y-109871428D01*
X184471428Y-109928571D01*
X184471428Y-109985714D01*
X184442857Y-110042857D01*
X184414285Y-110071428D01*
X184357142Y-110100000D01*
X184242857Y-110128571D01*
X184100000Y-110128571D01*
X183985714Y-110100000D01*
X183928571Y-110071428D01*
X183900000Y-110042857D01*
X183871428Y-109985714D01*
X184471428Y-109528571D02*
X183871428Y-109528571D01*
X184242857Y-109471428D02*
X184471428Y-109300000D01*
X184071428Y-109300000D02*
X184300000Y-109528571D01*
X176811428Y-108435714D02*
X176525714Y-108635714D01*
X176811428Y-108778571D02*
X176211428Y-108778571D01*
X176211428Y-108550000D01*
X176240000Y-108492857D01*
X176268571Y-108464285D01*
X176325714Y-108435714D01*
X176411428Y-108435714D01*
X176468571Y-108464285D01*
X176497142Y-108492857D01*
X176525714Y-108550000D01*
X176525714Y-108778571D01*
X176211428Y-108235714D02*
X176211428Y-107864285D01*
X176440000Y-108064285D01*
X176440000Y-107978571D01*
X176468571Y-107921428D01*
X176497142Y-107892857D01*
X176554285Y-107864285D01*
X176697142Y-107864285D01*
X176754285Y-107892857D01*
X176782857Y-107921428D01*
X176811428Y-107978571D01*
X176811428Y-108150000D01*
X176782857Y-108207142D01*
X176754285Y-108235714D01*
X176211428Y-107492857D02*
X176211428Y-107435714D01*
X176240000Y-107378571D01*
X176268571Y-107350000D01*
X176325714Y-107321428D01*
X176440000Y-107292857D01*
X176582857Y-107292857D01*
X176697142Y-107321428D01*
X176754285Y-107350000D01*
X176782857Y-107378571D01*
X176811428Y-107435714D01*
X176811428Y-107492857D01*
X176782857Y-107550000D01*
X176754285Y-107578571D01*
X176697142Y-107607142D01*
X176582857Y-107635714D01*
X176440000Y-107635714D01*
X176325714Y-107607142D01*
X176268571Y-107578571D01*
X176240000Y-107550000D01*
X176211428Y-107492857D01*
X177671428Y-109014285D02*
X177671428Y-108642857D01*
X177900000Y-108842857D01*
X177900000Y-108757142D01*
X177928571Y-108700000D01*
X177957142Y-108671428D01*
X178014285Y-108642857D01*
X178157142Y-108642857D01*
X178214285Y-108671428D01*
X178242857Y-108700000D01*
X178271428Y-108757142D01*
X178271428Y-108928571D01*
X178242857Y-108985714D01*
X178214285Y-109014285D01*
X177671428Y-108442857D02*
X177671428Y-108071428D01*
X177900000Y-108271428D01*
X177900000Y-108185714D01*
X177928571Y-108128571D01*
X177957142Y-108100000D01*
X178014285Y-108071428D01*
X178157142Y-108071428D01*
X178214285Y-108100000D01*
X178242857Y-108128571D01*
X178271428Y-108185714D01*
X178271428Y-108357142D01*
X178242857Y-108414285D01*
X178214285Y-108442857D01*
X177671428Y-107700000D02*
X177671428Y-107642857D01*
X177700000Y-107585714D01*
X177728571Y-107557142D01*
X177785714Y-107528571D01*
X177900000Y-107500000D01*
X178042857Y-107500000D01*
X178157142Y-107528571D01*
X178214285Y-107557142D01*
X178242857Y-107585714D01*
X178271428Y-107642857D01*
X178271428Y-107700000D01*
X178242857Y-107757142D01*
X178214285Y-107785714D01*
X178157142Y-107814285D01*
X178042857Y-107842857D01*
X177900000Y-107842857D01*
X177785714Y-107814285D01*
X177728571Y-107785714D01*
X177700000Y-107757142D01*
X177671428Y-107700000D01*
X178271428Y-107242857D02*
X177671428Y-107242857D01*
X178042857Y-107185714D02*
X178271428Y-107014285D01*
X177871428Y-107014285D02*
X178100000Y-107242857D01*
X147071428Y-105975714D02*
X146785714Y-106175714D01*
X147071428Y-106318571D02*
X146471428Y-106318571D01*
X146471428Y-106090000D01*
X146500000Y-106032857D01*
X146528571Y-106004285D01*
X146585714Y-105975714D01*
X146671428Y-105975714D01*
X146728571Y-106004285D01*
X146757142Y-106032857D01*
X146785714Y-106090000D01*
X146785714Y-106318571D01*
X146471428Y-105775714D02*
X146471428Y-105404285D01*
X146700000Y-105604285D01*
X146700000Y-105518571D01*
X146728571Y-105461428D01*
X146757142Y-105432857D01*
X146814285Y-105404285D01*
X146957142Y-105404285D01*
X147014285Y-105432857D01*
X147042857Y-105461428D01*
X147071428Y-105518571D01*
X147071428Y-105690000D01*
X147042857Y-105747142D01*
X147014285Y-105775714D01*
X146528571Y-105175714D02*
X146500000Y-105147142D01*
X146471428Y-105090000D01*
X146471428Y-104947142D01*
X146500000Y-104890000D01*
X146528571Y-104861428D01*
X146585714Y-104832857D01*
X146642857Y-104832857D01*
X146728571Y-104861428D01*
X147071428Y-105204285D01*
X147071428Y-104832857D01*
X147271428Y-103400000D02*
X147271428Y-103742857D01*
X147271428Y-103571428D02*
X146671428Y-103571428D01*
X146757142Y-103628571D01*
X146814285Y-103685714D01*
X146842857Y-103742857D01*
X146671428Y-103028571D02*
X146671428Y-102971428D01*
X146700000Y-102914285D01*
X146728571Y-102885714D01*
X146785714Y-102857142D01*
X146900000Y-102828571D01*
X147042857Y-102828571D01*
X147157142Y-102857142D01*
X147214285Y-102885714D01*
X147242857Y-102914285D01*
X147271428Y-102971428D01*
X147271428Y-103028571D01*
X147242857Y-103085714D01*
X147214285Y-103114285D01*
X147157142Y-103142857D01*
X147042857Y-103171428D01*
X146900000Y-103171428D01*
X146785714Y-103142857D01*
X146728571Y-103114285D01*
X146700000Y-103085714D01*
X146671428Y-103028571D01*
X146671428Y-102457142D02*
X146671428Y-102400000D01*
X146700000Y-102342857D01*
X146728571Y-102314285D01*
X146785714Y-102285714D01*
X146900000Y-102257142D01*
X147042857Y-102257142D01*
X147157142Y-102285714D01*
X147214285Y-102314285D01*
X147242857Y-102342857D01*
X147271428Y-102400000D01*
X147271428Y-102457142D01*
X147242857Y-102514285D01*
X147214285Y-102542857D01*
X147157142Y-102571428D01*
X147042857Y-102600000D01*
X146900000Y-102600000D01*
X146785714Y-102571428D01*
X146728571Y-102542857D01*
X146700000Y-102514285D01*
X146671428Y-102457142D01*
X184114285Y-62271428D02*
X183914285Y-61985714D01*
X183771428Y-62271428D02*
X183771428Y-61671428D01*
X184000000Y-61671428D01*
X184057142Y-61700000D01*
X184085714Y-61728571D01*
X184114285Y-61785714D01*
X184114285Y-61871428D01*
X184085714Y-61928571D01*
X184057142Y-61957142D01*
X184000000Y-61985714D01*
X183771428Y-61985714D01*
X184314285Y-61671428D02*
X184685714Y-61671428D01*
X184485714Y-61900000D01*
X184571428Y-61900000D01*
X184628571Y-61928571D01*
X184657142Y-61957142D01*
X184685714Y-62014285D01*
X184685714Y-62157142D01*
X184657142Y-62214285D01*
X184628571Y-62242857D01*
X184571428Y-62271428D01*
X184400000Y-62271428D01*
X184342857Y-62242857D01*
X184314285Y-62214285D01*
X184885714Y-61671428D02*
X185257142Y-61671428D01*
X185057142Y-61900000D01*
X185142857Y-61900000D01*
X185200000Y-61928571D01*
X185228571Y-61957142D01*
X185257142Y-62014285D01*
X185257142Y-62157142D01*
X185228571Y-62214285D01*
X185200000Y-62242857D01*
X185142857Y-62271428D01*
X184971428Y-62271428D01*
X184914285Y-62242857D01*
X184885714Y-62214285D01*
X186100000Y-60728571D02*
X186128571Y-60700000D01*
X186185714Y-60671428D01*
X186328571Y-60671428D01*
X186385714Y-60700000D01*
X186414285Y-60728571D01*
X186442857Y-60785714D01*
X186442857Y-60842857D01*
X186414285Y-60928571D01*
X186071428Y-61271428D01*
X186442857Y-61271428D01*
X186814285Y-60671428D02*
X186871428Y-60671428D01*
X186928571Y-60700000D01*
X186957142Y-60728571D01*
X186985714Y-60785714D01*
X187014285Y-60900000D01*
X187014285Y-61042857D01*
X186985714Y-61157142D01*
X186957142Y-61214285D01*
X186928571Y-61242857D01*
X186871428Y-61271428D01*
X186814285Y-61271428D01*
X186757142Y-61242857D01*
X186728571Y-61214285D01*
X186700000Y-61157142D01*
X186671428Y-61042857D01*
X186671428Y-60900000D01*
X186700000Y-60785714D01*
X186728571Y-60728571D01*
X186757142Y-60700000D01*
X186814285Y-60671428D01*
X187271428Y-61271428D02*
X187271428Y-60671428D01*
X187328571Y-61042857D02*
X187500000Y-61271428D01*
X187500000Y-60871428D02*
X187271428Y-61100000D01*
X167791428Y-106265714D02*
X167505714Y-106465714D01*
X167791428Y-106608571D02*
X167191428Y-106608571D01*
X167191428Y-106380000D01*
X167220000Y-106322857D01*
X167248571Y-106294285D01*
X167305714Y-106265714D01*
X167391428Y-106265714D01*
X167448571Y-106294285D01*
X167477142Y-106322857D01*
X167505714Y-106380000D01*
X167505714Y-106608571D01*
X167248571Y-106037142D02*
X167220000Y-106008571D01*
X167191428Y-105951428D01*
X167191428Y-105808571D01*
X167220000Y-105751428D01*
X167248571Y-105722857D01*
X167305714Y-105694285D01*
X167362857Y-105694285D01*
X167448571Y-105722857D01*
X167791428Y-106065714D01*
X167791428Y-105694285D01*
X167191428Y-105180000D02*
X167191428Y-105294285D01*
X167220000Y-105351428D01*
X167248571Y-105380000D01*
X167334285Y-105437142D01*
X167448571Y-105465714D01*
X167677142Y-105465714D01*
X167734285Y-105437142D01*
X167762857Y-105408571D01*
X167791428Y-105351428D01*
X167791428Y-105237142D01*
X167762857Y-105180000D01*
X167734285Y-105151428D01*
X167677142Y-105122857D01*
X167534285Y-105122857D01*
X167477142Y-105151428D01*
X167448571Y-105180000D01*
X167420000Y-105237142D01*
X167420000Y-105351428D01*
X167448571Y-105408571D01*
X167477142Y-105437142D01*
X167534285Y-105465714D01*
X167328571Y-104300000D02*
X167300000Y-104271428D01*
X167271428Y-104214285D01*
X167271428Y-104071428D01*
X167300000Y-104014285D01*
X167328571Y-103985714D01*
X167385714Y-103957142D01*
X167442857Y-103957142D01*
X167528571Y-103985714D01*
X167871428Y-104328571D01*
X167871428Y-103957142D01*
X167271428Y-103585714D02*
X167271428Y-103528571D01*
X167300000Y-103471428D01*
X167328571Y-103442857D01*
X167385714Y-103414285D01*
X167500000Y-103385714D01*
X167642857Y-103385714D01*
X167757142Y-103414285D01*
X167814285Y-103442857D01*
X167842857Y-103471428D01*
X167871428Y-103528571D01*
X167871428Y-103585714D01*
X167842857Y-103642857D01*
X167814285Y-103671428D01*
X167757142Y-103700000D01*
X167642857Y-103728571D01*
X167500000Y-103728571D01*
X167385714Y-103700000D01*
X167328571Y-103671428D01*
X167300000Y-103642857D01*
X167271428Y-103585714D01*
X167871428Y-103128571D02*
X167271428Y-103128571D01*
X167642857Y-103071428D02*
X167871428Y-102900000D01*
X167471428Y-102900000D02*
X167700000Y-103128571D01*
X165271428Y-107385714D02*
X164985714Y-107585714D01*
X165271428Y-107728571D02*
X164671428Y-107728571D01*
X164671428Y-107500000D01*
X164700000Y-107442857D01*
X164728571Y-107414285D01*
X164785714Y-107385714D01*
X164871428Y-107385714D01*
X164928571Y-107414285D01*
X164957142Y-107442857D01*
X164985714Y-107500000D01*
X164985714Y-107728571D01*
X164671428Y-107185714D02*
X164671428Y-106814285D01*
X164900000Y-107014285D01*
X164900000Y-106928571D01*
X164928571Y-106871428D01*
X164957142Y-106842857D01*
X165014285Y-106814285D01*
X165157142Y-106814285D01*
X165214285Y-106842857D01*
X165242857Y-106871428D01*
X165271428Y-106928571D01*
X165271428Y-107100000D01*
X165242857Y-107157142D01*
X165214285Y-107185714D01*
X164871428Y-106300000D02*
X165271428Y-106300000D01*
X164642857Y-106442857D02*
X165071428Y-106585714D01*
X165071428Y-106214285D01*
X165271428Y-104871428D02*
X165271428Y-105214285D01*
X165271428Y-105042857D02*
X164671428Y-105042857D01*
X164757142Y-105100000D01*
X164814285Y-105157142D01*
X164842857Y-105214285D01*
X165271428Y-104614285D02*
X164671428Y-104614285D01*
X165042857Y-104557142D02*
X165271428Y-104385714D01*
X164871428Y-104385714D02*
X165100000Y-104614285D01*
X162214285Y-106471428D02*
X162014285Y-106185714D01*
X161871428Y-106471428D02*
X161871428Y-105871428D01*
X162100000Y-105871428D01*
X162157142Y-105900000D01*
X162185714Y-105928571D01*
X162214285Y-105985714D01*
X162214285Y-106071428D01*
X162185714Y-106128571D01*
X162157142Y-106157142D01*
X162100000Y-106185714D01*
X161871428Y-106185714D01*
X162414285Y-105871428D02*
X162785714Y-105871428D01*
X162585714Y-106100000D01*
X162671428Y-106100000D01*
X162728571Y-106128571D01*
X162757142Y-106157142D01*
X162785714Y-106214285D01*
X162785714Y-106357142D01*
X162757142Y-106414285D01*
X162728571Y-106442857D01*
X162671428Y-106471428D01*
X162500000Y-106471428D01*
X162442857Y-106442857D01*
X162414285Y-106414285D01*
X163300000Y-105871428D02*
X163185714Y-105871428D01*
X163128571Y-105900000D01*
X163100000Y-105928571D01*
X163042857Y-106014285D01*
X163014285Y-106128571D01*
X163014285Y-106357142D01*
X163042857Y-106414285D01*
X163071428Y-106442857D01*
X163128571Y-106471428D01*
X163242857Y-106471428D01*
X163300000Y-106442857D01*
X163328571Y-106414285D01*
X163357142Y-106357142D01*
X163357142Y-106214285D01*
X163328571Y-106157142D01*
X163300000Y-106128571D01*
X163242857Y-106100000D01*
X163128571Y-106100000D01*
X163071428Y-106128571D01*
X163042857Y-106157142D01*
X163014285Y-106214285D01*
X159842857Y-106471428D02*
X159500000Y-106471428D01*
X159671428Y-106471428D02*
X159671428Y-105871428D01*
X159614285Y-105957142D01*
X159557142Y-106014285D01*
X159500000Y-106042857D01*
X160214285Y-105871428D02*
X160271428Y-105871428D01*
X160328571Y-105900000D01*
X160357142Y-105928571D01*
X160385714Y-105985714D01*
X160414285Y-106100000D01*
X160414285Y-106242857D01*
X160385714Y-106357142D01*
X160357142Y-106414285D01*
X160328571Y-106442857D01*
X160271428Y-106471428D01*
X160214285Y-106471428D01*
X160157142Y-106442857D01*
X160128571Y-106414285D01*
X160100000Y-106357142D01*
X160071428Y-106242857D01*
X160071428Y-106100000D01*
X160100000Y-105985714D01*
X160128571Y-105928571D01*
X160157142Y-105900000D01*
X160214285Y-105871428D01*
X160671428Y-106471428D02*
X160671428Y-105871428D01*
X160728571Y-106242857D02*
X160900000Y-106471428D01*
X160900000Y-106071428D02*
X160671428Y-106300000D01*
X151474285Y-110841428D02*
X151274285Y-110555714D01*
X151131428Y-110841428D02*
X151131428Y-110241428D01*
X151360000Y-110241428D01*
X151417142Y-110270000D01*
X151445714Y-110298571D01*
X151474285Y-110355714D01*
X151474285Y-110441428D01*
X151445714Y-110498571D01*
X151417142Y-110527142D01*
X151360000Y-110555714D01*
X151131428Y-110555714D01*
X151674285Y-110241428D02*
X152045714Y-110241428D01*
X151845714Y-110470000D01*
X151931428Y-110470000D01*
X151988571Y-110498571D01*
X152017142Y-110527142D01*
X152045714Y-110584285D01*
X152045714Y-110727142D01*
X152017142Y-110784285D01*
X151988571Y-110812857D01*
X151931428Y-110841428D01*
X151760000Y-110841428D01*
X151702857Y-110812857D01*
X151674285Y-110784285D01*
X152245714Y-110241428D02*
X152645714Y-110241428D01*
X152388571Y-110841428D01*
X154042857Y-110871428D02*
X153700000Y-110871428D01*
X153871428Y-110871428D02*
X153871428Y-110271428D01*
X153814285Y-110357142D01*
X153757142Y-110414285D01*
X153700000Y-110442857D01*
X154414285Y-110271428D02*
X154471428Y-110271428D01*
X154528571Y-110300000D01*
X154557142Y-110328571D01*
X154585714Y-110385714D01*
X154614285Y-110500000D01*
X154614285Y-110642857D01*
X154585714Y-110757142D01*
X154557142Y-110814285D01*
X154528571Y-110842857D01*
X154471428Y-110871428D01*
X154414285Y-110871428D01*
X154357142Y-110842857D01*
X154328571Y-110814285D01*
X154300000Y-110757142D01*
X154271428Y-110642857D01*
X154271428Y-110500000D01*
X154300000Y-110385714D01*
X154328571Y-110328571D01*
X154357142Y-110300000D01*
X154414285Y-110271428D01*
X154871428Y-110871428D02*
X154871428Y-110271428D01*
X154928571Y-110642857D02*
X155100000Y-110871428D01*
X155100000Y-110471428D02*
X154871428Y-110700000D01*
X145471428Y-105985714D02*
X145185714Y-106185714D01*
X145471428Y-106328571D02*
X144871428Y-106328571D01*
X144871428Y-106100000D01*
X144900000Y-106042857D01*
X144928571Y-106014285D01*
X144985714Y-105985714D01*
X145071428Y-105985714D01*
X145128571Y-106014285D01*
X145157142Y-106042857D01*
X145185714Y-106100000D01*
X145185714Y-106328571D01*
X144871428Y-105785714D02*
X144871428Y-105414285D01*
X145100000Y-105614285D01*
X145100000Y-105528571D01*
X145128571Y-105471428D01*
X145157142Y-105442857D01*
X145214285Y-105414285D01*
X145357142Y-105414285D01*
X145414285Y-105442857D01*
X145442857Y-105471428D01*
X145471428Y-105528571D01*
X145471428Y-105700000D01*
X145442857Y-105757142D01*
X145414285Y-105785714D01*
X145128571Y-105071428D02*
X145100000Y-105128571D01*
X145071428Y-105157142D01*
X145014285Y-105185714D01*
X144985714Y-105185714D01*
X144928571Y-105157142D01*
X144900000Y-105128571D01*
X144871428Y-105071428D01*
X144871428Y-104957142D01*
X144900000Y-104900000D01*
X144928571Y-104871428D01*
X144985714Y-104842857D01*
X145014285Y-104842857D01*
X145071428Y-104871428D01*
X145100000Y-104900000D01*
X145128571Y-104957142D01*
X145128571Y-105071428D01*
X145157142Y-105128571D01*
X145185714Y-105157142D01*
X145242857Y-105185714D01*
X145357142Y-105185714D01*
X145414285Y-105157142D01*
X145442857Y-105128571D01*
X145471428Y-105071428D01*
X145471428Y-104957142D01*
X145442857Y-104900000D01*
X145414285Y-104871428D01*
X145357142Y-104842857D01*
X145242857Y-104842857D01*
X145185714Y-104871428D01*
X145157142Y-104900000D01*
X145128571Y-104957142D01*
X145721428Y-103457142D02*
X145721428Y-103800000D01*
X145721428Y-103628571D02*
X145121428Y-103628571D01*
X145207142Y-103685714D01*
X145264285Y-103742857D01*
X145292857Y-103800000D01*
X145121428Y-103085714D02*
X145121428Y-103028571D01*
X145150000Y-102971428D01*
X145178571Y-102942857D01*
X145235714Y-102914285D01*
X145350000Y-102885714D01*
X145492857Y-102885714D01*
X145607142Y-102914285D01*
X145664285Y-102942857D01*
X145692857Y-102971428D01*
X145721428Y-103028571D01*
X145721428Y-103085714D01*
X145692857Y-103142857D01*
X145664285Y-103171428D01*
X145607142Y-103200000D01*
X145492857Y-103228571D01*
X145350000Y-103228571D01*
X145235714Y-103200000D01*
X145178571Y-103171428D01*
X145150000Y-103142857D01*
X145121428Y-103085714D01*
X145721428Y-102628571D02*
X145121428Y-102628571D01*
X145492857Y-102571428D02*
X145721428Y-102400000D01*
X145321428Y-102400000D02*
X145550000Y-102628571D01*
X122121428Y-77785714D02*
X121835714Y-77985714D01*
X122121428Y-78128571D02*
X121521428Y-78128571D01*
X121521428Y-77900000D01*
X121550000Y-77842857D01*
X121578571Y-77814285D01*
X121635714Y-77785714D01*
X121721428Y-77785714D01*
X121778571Y-77814285D01*
X121807142Y-77842857D01*
X121835714Y-77900000D01*
X121835714Y-78128571D01*
X121721428Y-77271428D02*
X122121428Y-77271428D01*
X121492857Y-77414285D02*
X121921428Y-77557142D01*
X121921428Y-77185714D01*
X121521428Y-77014285D02*
X121521428Y-76642857D01*
X121750000Y-76842857D01*
X121750000Y-76757142D01*
X121778571Y-76700000D01*
X121807142Y-76671428D01*
X121864285Y-76642857D01*
X122007142Y-76642857D01*
X122064285Y-76671428D01*
X122092857Y-76700000D01*
X122121428Y-76757142D01*
X122121428Y-76928571D01*
X122092857Y-76985714D01*
X122064285Y-77014285D01*
X123421428Y-77471428D02*
X123421428Y-77814285D01*
X123421428Y-77642857D02*
X122821428Y-77642857D01*
X122907142Y-77700000D01*
X122964285Y-77757142D01*
X122992857Y-77814285D01*
X123421428Y-77214285D02*
X122821428Y-77214285D01*
X123192857Y-77157142D02*
X123421428Y-76985714D01*
X123021428Y-76985714D02*
X123250000Y-77214285D01*
X120196428Y-77760714D02*
X119910714Y-77960714D01*
X120196428Y-78103571D02*
X119596428Y-78103571D01*
X119596428Y-77875000D01*
X119625000Y-77817857D01*
X119653571Y-77789285D01*
X119710714Y-77760714D01*
X119796428Y-77760714D01*
X119853571Y-77789285D01*
X119882142Y-77817857D01*
X119910714Y-77875000D01*
X119910714Y-78103571D01*
X119796428Y-77246428D02*
X120196428Y-77246428D01*
X119567857Y-77389285D02*
X119996428Y-77532142D01*
X119996428Y-77160714D01*
X119796428Y-76675000D02*
X120196428Y-76675000D01*
X119567857Y-76817857D02*
X119996428Y-76960714D01*
X119996428Y-76589285D01*
X120171428Y-79671428D02*
X120171428Y-80014285D01*
X120171428Y-79842857D02*
X119571428Y-79842857D01*
X119657142Y-79900000D01*
X119714285Y-79957142D01*
X119742857Y-80014285D01*
X120171428Y-79414285D02*
X119571428Y-79414285D01*
X119942857Y-79357142D02*
X120171428Y-79185714D01*
X119771428Y-79185714D02*
X120000000Y-79414285D01*
X118421428Y-77735714D02*
X118135714Y-77935714D01*
X118421428Y-78078571D02*
X117821428Y-78078571D01*
X117821428Y-77850000D01*
X117850000Y-77792857D01*
X117878571Y-77764285D01*
X117935714Y-77735714D01*
X118021428Y-77735714D01*
X118078571Y-77764285D01*
X118107142Y-77792857D01*
X118135714Y-77850000D01*
X118135714Y-78078571D01*
X118021428Y-77221428D02*
X118421428Y-77221428D01*
X117792857Y-77364285D02*
X118221428Y-77507142D01*
X118221428Y-77135714D01*
X117821428Y-76621428D02*
X117821428Y-76907142D01*
X118107142Y-76935714D01*
X118078571Y-76907142D01*
X118050000Y-76850000D01*
X118050000Y-76707142D01*
X118078571Y-76650000D01*
X118107142Y-76621428D01*
X118164285Y-76592857D01*
X118307142Y-76592857D01*
X118364285Y-76621428D01*
X118392857Y-76650000D01*
X118421428Y-76707142D01*
X118421428Y-76850000D01*
X118392857Y-76907142D01*
X118364285Y-76935714D01*
X117928571Y-75671428D02*
X117585714Y-75671428D01*
X117757142Y-75671428D02*
X117757142Y-75071428D01*
X117700000Y-75157142D01*
X117642857Y-75214285D01*
X117585714Y-75242857D01*
X118185714Y-75671428D02*
X118185714Y-75071428D01*
X118242857Y-75442857D02*
X118414285Y-75671428D01*
X118414285Y-75271428D02*
X118185714Y-75500000D01*
X190646428Y-52835714D02*
X190360714Y-53035714D01*
X190646428Y-53178571D02*
X190046428Y-53178571D01*
X190046428Y-52950000D01*
X190075000Y-52892857D01*
X190103571Y-52864285D01*
X190160714Y-52835714D01*
X190246428Y-52835714D01*
X190303571Y-52864285D01*
X190332142Y-52892857D01*
X190360714Y-52950000D01*
X190360714Y-53178571D01*
X190046428Y-52635714D02*
X190046428Y-52264285D01*
X190275000Y-52464285D01*
X190275000Y-52378571D01*
X190303571Y-52321428D01*
X190332142Y-52292857D01*
X190389285Y-52264285D01*
X190532142Y-52264285D01*
X190589285Y-52292857D01*
X190617857Y-52321428D01*
X190646428Y-52378571D01*
X190646428Y-52550000D01*
X190617857Y-52607142D01*
X190589285Y-52635714D01*
X190046428Y-51721428D02*
X190046428Y-52007142D01*
X190332142Y-52035714D01*
X190303571Y-52007142D01*
X190275000Y-51950000D01*
X190275000Y-51807142D01*
X190303571Y-51750000D01*
X190332142Y-51721428D01*
X190389285Y-51692857D01*
X190532142Y-51692857D01*
X190589285Y-51721428D01*
X190617857Y-51750000D01*
X190646428Y-51807142D01*
X190646428Y-51950000D01*
X190617857Y-52007142D01*
X190589285Y-52035714D01*
X191471428Y-51985714D02*
X191471428Y-52271428D01*
X191757142Y-52300000D01*
X191728571Y-52271428D01*
X191700000Y-52214285D01*
X191700000Y-52071428D01*
X191728571Y-52014285D01*
X191757142Y-51985714D01*
X191814285Y-51957142D01*
X191957142Y-51957142D01*
X192014285Y-51985714D01*
X192042857Y-52014285D01*
X192071428Y-52071428D01*
X192071428Y-52214285D01*
X192042857Y-52271428D01*
X192014285Y-52300000D01*
X191471428Y-51442857D02*
X191471428Y-51557142D01*
X191500000Y-51614285D01*
X191528571Y-51642857D01*
X191614285Y-51700000D01*
X191728571Y-51728571D01*
X191957142Y-51728571D01*
X192014285Y-51700000D01*
X192042857Y-51671428D01*
X192071428Y-51614285D01*
X192071428Y-51500000D01*
X192042857Y-51442857D01*
X192014285Y-51414285D01*
X191957142Y-51385714D01*
X191814285Y-51385714D01*
X191757142Y-51414285D01*
X191728571Y-51442857D01*
X191700000Y-51500000D01*
X191700000Y-51614285D01*
X191728571Y-51671428D01*
X191757142Y-51700000D01*
X191814285Y-51728571D01*
X192071428Y-51128571D02*
X191471428Y-51128571D01*
X191842857Y-51071428D02*
X192071428Y-50900000D01*
X191671428Y-50900000D02*
X191900000Y-51128571D01*
X182871428Y-107735714D02*
X182585714Y-107935714D01*
X182871428Y-108078571D02*
X182271428Y-108078571D01*
X182271428Y-107850000D01*
X182300000Y-107792857D01*
X182328571Y-107764285D01*
X182385714Y-107735714D01*
X182471428Y-107735714D01*
X182528571Y-107764285D01*
X182557142Y-107792857D01*
X182585714Y-107850000D01*
X182585714Y-108078571D01*
X182328571Y-107507142D02*
X182300000Y-107478571D01*
X182271428Y-107421428D01*
X182271428Y-107278571D01*
X182300000Y-107221428D01*
X182328571Y-107192857D01*
X182385714Y-107164285D01*
X182442857Y-107164285D01*
X182528571Y-107192857D01*
X182871428Y-107535714D01*
X182871428Y-107164285D01*
X182271428Y-106621428D02*
X182271428Y-106907142D01*
X182557142Y-106935714D01*
X182528571Y-106907142D01*
X182500000Y-106850000D01*
X182500000Y-106707142D01*
X182528571Y-106650000D01*
X182557142Y-106621428D01*
X182614285Y-106592857D01*
X182757142Y-106592857D01*
X182814285Y-106621428D01*
X182842857Y-106650000D01*
X182871428Y-106707142D01*
X182871428Y-106850000D01*
X182842857Y-106907142D01*
X182814285Y-106935714D01*
X182871428Y-109871428D02*
X182871428Y-110214285D01*
X182871428Y-110042857D02*
X182271428Y-110042857D01*
X182357142Y-110100000D01*
X182414285Y-110157142D01*
X182442857Y-110214285D01*
X182871428Y-109614285D02*
X182271428Y-109614285D01*
X182642857Y-109557142D02*
X182871428Y-109385714D01*
X182471428Y-109385714D02*
X182700000Y-109614285D01*
X186011428Y-107915714D02*
X185725714Y-108115714D01*
X186011428Y-108258571D02*
X185411428Y-108258571D01*
X185411428Y-108030000D01*
X185440000Y-107972857D01*
X185468571Y-107944285D01*
X185525714Y-107915714D01*
X185611428Y-107915714D01*
X185668571Y-107944285D01*
X185697142Y-107972857D01*
X185725714Y-108030000D01*
X185725714Y-108258571D01*
X185468571Y-107687142D02*
X185440000Y-107658571D01*
X185411428Y-107601428D01*
X185411428Y-107458571D01*
X185440000Y-107401428D01*
X185468571Y-107372857D01*
X185525714Y-107344285D01*
X185582857Y-107344285D01*
X185668571Y-107372857D01*
X186011428Y-107715714D01*
X186011428Y-107344285D01*
X185411428Y-107144285D02*
X185411428Y-106744285D01*
X186011428Y-107001428D01*
X186071428Y-110357142D02*
X186071428Y-110700000D01*
X186071428Y-110528571D02*
X185471428Y-110528571D01*
X185557142Y-110585714D01*
X185614285Y-110642857D01*
X185642857Y-110700000D01*
X185471428Y-109985714D02*
X185471428Y-109928571D01*
X185500000Y-109871428D01*
X185528571Y-109842857D01*
X185585714Y-109814285D01*
X185700000Y-109785714D01*
X185842857Y-109785714D01*
X185957142Y-109814285D01*
X186014285Y-109842857D01*
X186042857Y-109871428D01*
X186071428Y-109928571D01*
X186071428Y-109985714D01*
X186042857Y-110042857D01*
X186014285Y-110071428D01*
X185957142Y-110100000D01*
X185842857Y-110128571D01*
X185700000Y-110128571D01*
X185585714Y-110100000D01*
X185528571Y-110071428D01*
X185500000Y-110042857D01*
X185471428Y-109985714D01*
X186071428Y-109528571D02*
X185471428Y-109528571D01*
X185842857Y-109471428D02*
X186071428Y-109300000D01*
X185671428Y-109300000D02*
X185900000Y-109528571D01*
X111350000Y-98671428D02*
X111150000Y-98385714D01*
X111007142Y-98671428D02*
X111007142Y-98071428D01*
X111235714Y-98071428D01*
X111292857Y-98100000D01*
X111321428Y-98128571D01*
X111350000Y-98185714D01*
X111350000Y-98271428D01*
X111321428Y-98328571D01*
X111292857Y-98357142D01*
X111235714Y-98385714D01*
X111007142Y-98385714D01*
X111864285Y-98071428D02*
X111750000Y-98071428D01*
X111692857Y-98100000D01*
X111664285Y-98128571D01*
X111607142Y-98214285D01*
X111578571Y-98328571D01*
X111578571Y-98557142D01*
X111607142Y-98614285D01*
X111635714Y-98642857D01*
X111692857Y-98671428D01*
X111807142Y-98671428D01*
X111864285Y-98642857D01*
X111892857Y-98614285D01*
X111921428Y-98557142D01*
X111921428Y-98414285D01*
X111892857Y-98357142D01*
X111864285Y-98328571D01*
X111807142Y-98300000D01*
X111692857Y-98300000D01*
X111635714Y-98328571D01*
X111607142Y-98357142D01*
X111578571Y-98414285D01*
X113535714Y-98821428D02*
X113335714Y-98535714D01*
X113192857Y-98821428D02*
X113192857Y-98221428D01*
X113421428Y-98221428D01*
X113478571Y-98250000D01*
X113507142Y-98278571D01*
X113535714Y-98335714D01*
X113535714Y-98421428D01*
X113507142Y-98478571D01*
X113478571Y-98507142D01*
X113421428Y-98535714D01*
X113192857Y-98535714D01*
X111425000Y-97096428D02*
X111225000Y-96810714D01*
X111082142Y-97096428D02*
X111082142Y-96496428D01*
X111310714Y-96496428D01*
X111367857Y-96525000D01*
X111396428Y-96553571D01*
X111425000Y-96610714D01*
X111425000Y-96696428D01*
X111396428Y-96753571D01*
X111367857Y-96782142D01*
X111310714Y-96810714D01*
X111082142Y-96810714D01*
X111625000Y-96496428D02*
X112025000Y-96496428D01*
X111767857Y-97096428D01*
X113510714Y-97346428D02*
X113310714Y-97060714D01*
X113167857Y-97346428D02*
X113167857Y-96746428D01*
X113396428Y-96746428D01*
X113453571Y-96775000D01*
X113482142Y-96803571D01*
X113510714Y-96860714D01*
X113510714Y-96946428D01*
X113482142Y-97003571D01*
X113453571Y-97032142D01*
X113396428Y-97060714D01*
X113167857Y-97060714D01*
X126500000Y-57671428D02*
X126300000Y-57385714D01*
X126157142Y-57671428D02*
X126157142Y-57071428D01*
X126385714Y-57071428D01*
X126442857Y-57100000D01*
X126471428Y-57128571D01*
X126500000Y-57185714D01*
X126500000Y-57271428D01*
X126471428Y-57328571D01*
X126442857Y-57357142D01*
X126385714Y-57385714D01*
X126157142Y-57385714D01*
X126842857Y-57328571D02*
X126785714Y-57300000D01*
X126757142Y-57271428D01*
X126728571Y-57214285D01*
X126728571Y-57185714D01*
X126757142Y-57128571D01*
X126785714Y-57100000D01*
X126842857Y-57071428D01*
X126957142Y-57071428D01*
X127014285Y-57100000D01*
X127042857Y-57128571D01*
X127071428Y-57185714D01*
X127071428Y-57214285D01*
X127042857Y-57271428D01*
X127014285Y-57300000D01*
X126957142Y-57328571D01*
X126842857Y-57328571D01*
X126785714Y-57357142D01*
X126757142Y-57385714D01*
X126728571Y-57442857D01*
X126728571Y-57557142D01*
X126757142Y-57614285D01*
X126785714Y-57642857D01*
X126842857Y-57671428D01*
X126957142Y-57671428D01*
X127014285Y-57642857D01*
X127042857Y-57614285D01*
X127071428Y-57557142D01*
X127071428Y-57442857D01*
X127042857Y-57385714D01*
X127014285Y-57357142D01*
X126957142Y-57328571D01*
X128692857Y-57721428D02*
X128350000Y-57721428D01*
X128521428Y-57721428D02*
X128521428Y-57121428D01*
X128464285Y-57207142D01*
X128407142Y-57264285D01*
X128350000Y-57292857D01*
X129064285Y-57121428D02*
X129121428Y-57121428D01*
X129178571Y-57150000D01*
X129207142Y-57178571D01*
X129235714Y-57235714D01*
X129264285Y-57350000D01*
X129264285Y-57492857D01*
X129235714Y-57607142D01*
X129207142Y-57664285D01*
X129178571Y-57692857D01*
X129121428Y-57721428D01*
X129064285Y-57721428D01*
X129007142Y-57692857D01*
X128978571Y-57664285D01*
X128950000Y-57607142D01*
X128921428Y-57492857D01*
X128921428Y-57350000D01*
X128950000Y-57235714D01*
X128978571Y-57178571D01*
X129007142Y-57150000D01*
X129064285Y-57121428D01*
X129521428Y-57721428D02*
X129521428Y-57121428D01*
X129578571Y-57492857D02*
X129750000Y-57721428D01*
X129750000Y-57321428D02*
X129521428Y-57550000D01*
X126214285Y-59271428D02*
X126014285Y-58985714D01*
X125871428Y-59271428D02*
X125871428Y-58671428D01*
X126100000Y-58671428D01*
X126157142Y-58700000D01*
X126185714Y-58728571D01*
X126214285Y-58785714D01*
X126214285Y-58871428D01*
X126185714Y-58928571D01*
X126157142Y-58957142D01*
X126100000Y-58985714D01*
X125871428Y-58985714D01*
X126785714Y-59271428D02*
X126442857Y-59271428D01*
X126614285Y-59271428D02*
X126614285Y-58671428D01*
X126557142Y-58757142D01*
X126500000Y-58814285D01*
X126442857Y-58842857D01*
X127157142Y-58671428D02*
X127214285Y-58671428D01*
X127271428Y-58700000D01*
X127300000Y-58728571D01*
X127328571Y-58785714D01*
X127357142Y-58900000D01*
X127357142Y-59042857D01*
X127328571Y-59157142D01*
X127300000Y-59214285D01*
X127271428Y-59242857D01*
X127214285Y-59271428D01*
X127157142Y-59271428D01*
X127100000Y-59242857D01*
X127071428Y-59214285D01*
X127042857Y-59157142D01*
X127014285Y-59042857D01*
X127014285Y-58900000D01*
X127042857Y-58785714D01*
X127071428Y-58728571D01*
X127100000Y-58700000D01*
X127157142Y-58671428D01*
X128692857Y-59321428D02*
X128350000Y-59321428D01*
X128521428Y-59321428D02*
X128521428Y-58721428D01*
X128464285Y-58807142D01*
X128407142Y-58864285D01*
X128350000Y-58892857D01*
X129064285Y-58721428D02*
X129121428Y-58721428D01*
X129178571Y-58750000D01*
X129207142Y-58778571D01*
X129235714Y-58835714D01*
X129264285Y-58950000D01*
X129264285Y-59092857D01*
X129235714Y-59207142D01*
X129207142Y-59264285D01*
X129178571Y-59292857D01*
X129121428Y-59321428D01*
X129064285Y-59321428D01*
X129007142Y-59292857D01*
X128978571Y-59264285D01*
X128950000Y-59207142D01*
X128921428Y-59092857D01*
X128921428Y-58950000D01*
X128950000Y-58835714D01*
X128978571Y-58778571D01*
X129007142Y-58750000D01*
X129064285Y-58721428D01*
X129521428Y-59321428D02*
X129521428Y-58721428D01*
X129578571Y-59092857D02*
X129750000Y-59321428D01*
X129750000Y-58921428D02*
X129521428Y-59150000D01*
X126164285Y-60821428D02*
X125964285Y-60535714D01*
X125821428Y-60821428D02*
X125821428Y-60221428D01*
X126050000Y-60221428D01*
X126107142Y-60250000D01*
X126135714Y-60278571D01*
X126164285Y-60335714D01*
X126164285Y-60421428D01*
X126135714Y-60478571D01*
X126107142Y-60507142D01*
X126050000Y-60535714D01*
X125821428Y-60535714D01*
X126735714Y-60821428D02*
X126392857Y-60821428D01*
X126564285Y-60821428D02*
X126564285Y-60221428D01*
X126507142Y-60307142D01*
X126450000Y-60364285D01*
X126392857Y-60392857D01*
X126964285Y-60278571D02*
X126992857Y-60250000D01*
X127050000Y-60221428D01*
X127192857Y-60221428D01*
X127250000Y-60250000D01*
X127278571Y-60278571D01*
X127307142Y-60335714D01*
X127307142Y-60392857D01*
X127278571Y-60478571D01*
X126935714Y-60821428D01*
X127307142Y-60821428D01*
X128642857Y-60921428D02*
X128300000Y-60921428D01*
X128471428Y-60921428D02*
X128471428Y-60321428D01*
X128414285Y-60407142D01*
X128357142Y-60464285D01*
X128300000Y-60492857D01*
X129014285Y-60321428D02*
X129071428Y-60321428D01*
X129128571Y-60350000D01*
X129157142Y-60378571D01*
X129185714Y-60435714D01*
X129214285Y-60550000D01*
X129214285Y-60692857D01*
X129185714Y-60807142D01*
X129157142Y-60864285D01*
X129128571Y-60892857D01*
X129071428Y-60921428D01*
X129014285Y-60921428D01*
X128957142Y-60892857D01*
X128928571Y-60864285D01*
X128900000Y-60807142D01*
X128871428Y-60692857D01*
X128871428Y-60550000D01*
X128900000Y-60435714D01*
X128928571Y-60378571D01*
X128957142Y-60350000D01*
X129014285Y-60321428D01*
X129471428Y-60921428D02*
X129471428Y-60321428D01*
X129528571Y-60692857D02*
X129700000Y-60921428D01*
X129700000Y-60521428D02*
X129471428Y-60750000D01*
X125358285Y-63380928D02*
X125158285Y-63095214D01*
X125015428Y-63380928D02*
X125015428Y-62780928D01*
X125244000Y-62780928D01*
X125301142Y-62809500D01*
X125329714Y-62838071D01*
X125358285Y-62895214D01*
X125358285Y-62980928D01*
X125329714Y-63038071D01*
X125301142Y-63066642D01*
X125244000Y-63095214D01*
X125015428Y-63095214D01*
X125929714Y-63380928D02*
X125586857Y-63380928D01*
X125758285Y-63380928D02*
X125758285Y-62780928D01*
X125701142Y-62866642D01*
X125644000Y-62923785D01*
X125586857Y-62952357D01*
X126444000Y-62980928D02*
X126444000Y-63380928D01*
X126301142Y-62752357D02*
X126158285Y-63180928D01*
X126529714Y-63180928D01*
X127836857Y-63480928D02*
X127494000Y-63480928D01*
X127665428Y-63480928D02*
X127665428Y-62880928D01*
X127608285Y-62966642D01*
X127551142Y-63023785D01*
X127494000Y-63052357D01*
X128208285Y-62880928D02*
X128265428Y-62880928D01*
X128322571Y-62909500D01*
X128351142Y-62938071D01*
X128379714Y-62995214D01*
X128408285Y-63109500D01*
X128408285Y-63252357D01*
X128379714Y-63366642D01*
X128351142Y-63423785D01*
X128322571Y-63452357D01*
X128265428Y-63480928D01*
X128208285Y-63480928D01*
X128151142Y-63452357D01*
X128122571Y-63423785D01*
X128094000Y-63366642D01*
X128065428Y-63252357D01*
X128065428Y-63109500D01*
X128094000Y-62995214D01*
X128122571Y-62938071D01*
X128151142Y-62909500D01*
X128208285Y-62880928D01*
X128665428Y-63480928D02*
X128665428Y-62880928D01*
X128722571Y-63252357D02*
X128894000Y-63480928D01*
X128894000Y-63080928D02*
X128665428Y-63309500D01*
X125458285Y-65130928D02*
X125258285Y-64845214D01*
X125115428Y-65130928D02*
X125115428Y-64530928D01*
X125344000Y-64530928D01*
X125401142Y-64559500D01*
X125429714Y-64588071D01*
X125458285Y-64645214D01*
X125458285Y-64730928D01*
X125429714Y-64788071D01*
X125401142Y-64816642D01*
X125344000Y-64845214D01*
X125115428Y-64845214D01*
X126029714Y-65130928D02*
X125686857Y-65130928D01*
X125858285Y-65130928D02*
X125858285Y-64530928D01*
X125801142Y-64616642D01*
X125744000Y-64673785D01*
X125686857Y-64702357D01*
X126544000Y-64530928D02*
X126429714Y-64530928D01*
X126372571Y-64559500D01*
X126344000Y-64588071D01*
X126286857Y-64673785D01*
X126258285Y-64788071D01*
X126258285Y-65016642D01*
X126286857Y-65073785D01*
X126315428Y-65102357D01*
X126372571Y-65130928D01*
X126486857Y-65130928D01*
X126544000Y-65102357D01*
X126572571Y-65073785D01*
X126601142Y-65016642D01*
X126601142Y-64873785D01*
X126572571Y-64816642D01*
X126544000Y-64788071D01*
X126486857Y-64759500D01*
X126372571Y-64759500D01*
X126315428Y-64788071D01*
X126286857Y-64816642D01*
X126258285Y-64873785D01*
X127936857Y-65080928D02*
X127594000Y-65080928D01*
X127765428Y-65080928D02*
X127765428Y-64480928D01*
X127708285Y-64566642D01*
X127651142Y-64623785D01*
X127594000Y-64652357D01*
X128308285Y-64480928D02*
X128365428Y-64480928D01*
X128422571Y-64509500D01*
X128451142Y-64538071D01*
X128479714Y-64595214D01*
X128508285Y-64709500D01*
X128508285Y-64852357D01*
X128479714Y-64966642D01*
X128451142Y-65023785D01*
X128422571Y-65052357D01*
X128365428Y-65080928D01*
X128308285Y-65080928D01*
X128251142Y-65052357D01*
X128222571Y-65023785D01*
X128194000Y-64966642D01*
X128165428Y-64852357D01*
X128165428Y-64709500D01*
X128194000Y-64595214D01*
X128222571Y-64538071D01*
X128251142Y-64509500D01*
X128308285Y-64480928D01*
X128765428Y-65080928D02*
X128765428Y-64480928D01*
X128822571Y-64852357D02*
X128994000Y-65080928D01*
X128994000Y-64680928D02*
X128765428Y-64909500D01*
X125458285Y-68180928D02*
X125258285Y-67895214D01*
X125115428Y-68180928D02*
X125115428Y-67580928D01*
X125344000Y-67580928D01*
X125401142Y-67609500D01*
X125429714Y-67638071D01*
X125458285Y-67695214D01*
X125458285Y-67780928D01*
X125429714Y-67838071D01*
X125401142Y-67866642D01*
X125344000Y-67895214D01*
X125115428Y-67895214D01*
X126029714Y-68180928D02*
X125686857Y-68180928D01*
X125858285Y-68180928D02*
X125858285Y-67580928D01*
X125801142Y-67666642D01*
X125744000Y-67723785D01*
X125686857Y-67752357D01*
X126315428Y-68180928D02*
X126429714Y-68180928D01*
X126486857Y-68152357D01*
X126515428Y-68123785D01*
X126572571Y-68038071D01*
X126601142Y-67923785D01*
X126601142Y-67695214D01*
X126572571Y-67638071D01*
X126544000Y-67609500D01*
X126486857Y-67580928D01*
X126372571Y-67580928D01*
X126315428Y-67609500D01*
X126286857Y-67638071D01*
X126258285Y-67695214D01*
X126258285Y-67838071D01*
X126286857Y-67895214D01*
X126315428Y-67923785D01*
X126372571Y-67952357D01*
X126486857Y-67952357D01*
X126544000Y-67923785D01*
X126572571Y-67895214D01*
X126601142Y-67838071D01*
X127836857Y-68180928D02*
X127494000Y-68180928D01*
X127665428Y-68180928D02*
X127665428Y-67580928D01*
X127608285Y-67666642D01*
X127551142Y-67723785D01*
X127494000Y-67752357D01*
X128208285Y-67580928D02*
X128265428Y-67580928D01*
X128322571Y-67609500D01*
X128351142Y-67638071D01*
X128379714Y-67695214D01*
X128408285Y-67809500D01*
X128408285Y-67952357D01*
X128379714Y-68066642D01*
X128351142Y-68123785D01*
X128322571Y-68152357D01*
X128265428Y-68180928D01*
X128208285Y-68180928D01*
X128151142Y-68152357D01*
X128122571Y-68123785D01*
X128094000Y-68066642D01*
X128065428Y-67952357D01*
X128065428Y-67809500D01*
X128094000Y-67695214D01*
X128122571Y-67638071D01*
X128151142Y-67609500D01*
X128208285Y-67580928D01*
X128665428Y-68180928D02*
X128665428Y-67580928D01*
X128722571Y-67952357D02*
X128894000Y-68180928D01*
X128894000Y-67780928D02*
X128665428Y-68009500D01*
X125308285Y-69880928D02*
X125108285Y-69595214D01*
X124965428Y-69880928D02*
X124965428Y-69280928D01*
X125194000Y-69280928D01*
X125251142Y-69309500D01*
X125279714Y-69338071D01*
X125308285Y-69395214D01*
X125308285Y-69480928D01*
X125279714Y-69538071D01*
X125251142Y-69566642D01*
X125194000Y-69595214D01*
X124965428Y-69595214D01*
X125536857Y-69338071D02*
X125565428Y-69309500D01*
X125622571Y-69280928D01*
X125765428Y-69280928D01*
X125822571Y-69309500D01*
X125851142Y-69338071D01*
X125879714Y-69395214D01*
X125879714Y-69452357D01*
X125851142Y-69538071D01*
X125508285Y-69880928D01*
X125879714Y-69880928D01*
X126251142Y-69280928D02*
X126308285Y-69280928D01*
X126365428Y-69309500D01*
X126394000Y-69338071D01*
X126422571Y-69395214D01*
X126451142Y-69509500D01*
X126451142Y-69652357D01*
X126422571Y-69766642D01*
X126394000Y-69823785D01*
X126365428Y-69852357D01*
X126308285Y-69880928D01*
X126251142Y-69880928D01*
X126194000Y-69852357D01*
X126165428Y-69823785D01*
X126136857Y-69766642D01*
X126108285Y-69652357D01*
X126108285Y-69509500D01*
X126136857Y-69395214D01*
X126165428Y-69338071D01*
X126194000Y-69309500D01*
X126251142Y-69280928D01*
X127836857Y-69780928D02*
X127494000Y-69780928D01*
X127665428Y-69780928D02*
X127665428Y-69180928D01*
X127608285Y-69266642D01*
X127551142Y-69323785D01*
X127494000Y-69352357D01*
X128208285Y-69180928D02*
X128265428Y-69180928D01*
X128322571Y-69209500D01*
X128351142Y-69238071D01*
X128379714Y-69295214D01*
X128408285Y-69409500D01*
X128408285Y-69552357D01*
X128379714Y-69666642D01*
X128351142Y-69723785D01*
X128322571Y-69752357D01*
X128265428Y-69780928D01*
X128208285Y-69780928D01*
X128151142Y-69752357D01*
X128122571Y-69723785D01*
X128094000Y-69666642D01*
X128065428Y-69552357D01*
X128065428Y-69409500D01*
X128094000Y-69295214D01*
X128122571Y-69238071D01*
X128151142Y-69209500D01*
X128208285Y-69180928D01*
X128665428Y-69780928D02*
X128665428Y-69180928D01*
X128722571Y-69552357D02*
X128894000Y-69780928D01*
X128894000Y-69380928D02*
X128665428Y-69609500D01*
X111371428Y-61385714D02*
X111085714Y-61585714D01*
X111371428Y-61728571D02*
X110771428Y-61728571D01*
X110771428Y-61500000D01*
X110800000Y-61442857D01*
X110828571Y-61414285D01*
X110885714Y-61385714D01*
X110971428Y-61385714D01*
X111028571Y-61414285D01*
X111057142Y-61442857D01*
X111085714Y-61500000D01*
X111085714Y-61728571D01*
X110828571Y-61157142D02*
X110800000Y-61128571D01*
X110771428Y-61071428D01*
X110771428Y-60928571D01*
X110800000Y-60871428D01*
X110828571Y-60842857D01*
X110885714Y-60814285D01*
X110942857Y-60814285D01*
X111028571Y-60842857D01*
X111371428Y-61185714D01*
X111371428Y-60814285D01*
X110971428Y-60300000D02*
X111371428Y-60300000D01*
X110742857Y-60442857D02*
X111171428Y-60585714D01*
X111171428Y-60214285D01*
X109471428Y-61671428D02*
X109471428Y-61300000D01*
X109700000Y-61500000D01*
X109700000Y-61414285D01*
X109728571Y-61357142D01*
X109757142Y-61328571D01*
X109814285Y-61300000D01*
X109957142Y-61300000D01*
X110014285Y-61328571D01*
X110042857Y-61357142D01*
X110071428Y-61414285D01*
X110071428Y-61585714D01*
X110042857Y-61642857D01*
X110014285Y-61671428D01*
X110071428Y-61014285D02*
X110071428Y-60900000D01*
X110042857Y-60842857D01*
X110014285Y-60814285D01*
X109928571Y-60757142D01*
X109814285Y-60728571D01*
X109585714Y-60728571D01*
X109528571Y-60757142D01*
X109500000Y-60785714D01*
X109471428Y-60842857D01*
X109471428Y-60957142D01*
X109500000Y-61014285D01*
X109528571Y-61042857D01*
X109585714Y-61071428D01*
X109728571Y-61071428D01*
X109785714Y-61042857D01*
X109814285Y-61014285D01*
X109842857Y-60957142D01*
X109842857Y-60842857D01*
X109814285Y-60785714D01*
X109785714Y-60757142D01*
X109728571Y-60728571D01*
X109471428Y-60357142D02*
X109471428Y-60300000D01*
X109500000Y-60242857D01*
X109528571Y-60214285D01*
X109585714Y-60185714D01*
X109700000Y-60157142D01*
X109842857Y-60157142D01*
X109957142Y-60185714D01*
X110014285Y-60214285D01*
X110042857Y-60242857D01*
X110071428Y-60300000D01*
X110071428Y-60357142D01*
X110042857Y-60414285D01*
X110014285Y-60442857D01*
X109957142Y-60471428D01*
X109842857Y-60500000D01*
X109700000Y-60500000D01*
X109585714Y-60471428D01*
X109528571Y-60442857D01*
X109500000Y-60414285D01*
X109471428Y-60357142D01*
X110071428Y-59557142D02*
X109785714Y-59757142D01*
X110071428Y-59900000D02*
X109471428Y-59900000D01*
X109471428Y-59671428D01*
X109500000Y-59614285D01*
X109528571Y-59585714D01*
X109585714Y-59557142D01*
X109671428Y-59557142D01*
X109728571Y-59585714D01*
X109757142Y-59614285D01*
X109785714Y-59671428D01*
X109785714Y-59900000D01*
X125508285Y-66580928D02*
X125308285Y-66295214D01*
X125165428Y-66580928D02*
X125165428Y-65980928D01*
X125394000Y-65980928D01*
X125451142Y-66009500D01*
X125479714Y-66038071D01*
X125508285Y-66095214D01*
X125508285Y-66180928D01*
X125479714Y-66238071D01*
X125451142Y-66266642D01*
X125394000Y-66295214D01*
X125165428Y-66295214D01*
X126079714Y-66580928D02*
X125736857Y-66580928D01*
X125908285Y-66580928D02*
X125908285Y-65980928D01*
X125851142Y-66066642D01*
X125794000Y-66123785D01*
X125736857Y-66152357D01*
X126422571Y-66238071D02*
X126365428Y-66209500D01*
X126336857Y-66180928D01*
X126308285Y-66123785D01*
X126308285Y-66095214D01*
X126336857Y-66038071D01*
X126365428Y-66009500D01*
X126422571Y-65980928D01*
X126536857Y-65980928D01*
X126594000Y-66009500D01*
X126622571Y-66038071D01*
X126651142Y-66095214D01*
X126651142Y-66123785D01*
X126622571Y-66180928D01*
X126594000Y-66209500D01*
X126536857Y-66238071D01*
X126422571Y-66238071D01*
X126365428Y-66266642D01*
X126336857Y-66295214D01*
X126308285Y-66352357D01*
X126308285Y-66466642D01*
X126336857Y-66523785D01*
X126365428Y-66552357D01*
X126422571Y-66580928D01*
X126536857Y-66580928D01*
X126594000Y-66552357D01*
X126622571Y-66523785D01*
X126651142Y-66466642D01*
X126651142Y-66352357D01*
X126622571Y-66295214D01*
X126594000Y-66266642D01*
X126536857Y-66238071D01*
X127836857Y-66630928D02*
X127494000Y-66630928D01*
X127665428Y-66630928D02*
X127665428Y-66030928D01*
X127608285Y-66116642D01*
X127551142Y-66173785D01*
X127494000Y-66202357D01*
X128208285Y-66030928D02*
X128265428Y-66030928D01*
X128322571Y-66059500D01*
X128351142Y-66088071D01*
X128379714Y-66145214D01*
X128408285Y-66259500D01*
X128408285Y-66402357D01*
X128379714Y-66516642D01*
X128351142Y-66573785D01*
X128322571Y-66602357D01*
X128265428Y-66630928D01*
X128208285Y-66630928D01*
X128151142Y-66602357D01*
X128122571Y-66573785D01*
X128094000Y-66516642D01*
X128065428Y-66402357D01*
X128065428Y-66259500D01*
X128094000Y-66145214D01*
X128122571Y-66088071D01*
X128151142Y-66059500D01*
X128208285Y-66030928D01*
X128665428Y-66630928D02*
X128665428Y-66030928D01*
X128722571Y-66402357D02*
X128894000Y-66630928D01*
X128894000Y-66230928D02*
X128665428Y-66459500D01*
X150742857Y-62687571D02*
X150685714Y-62659000D01*
X150628571Y-62601857D01*
X150542857Y-62516142D01*
X150485714Y-62487571D01*
X150428571Y-62487571D01*
X150457142Y-62630428D02*
X150400000Y-62601857D01*
X150342857Y-62544714D01*
X150314285Y-62430428D01*
X150314285Y-62230428D01*
X150342857Y-62116142D01*
X150400000Y-62059000D01*
X150457142Y-62030428D01*
X150571428Y-62030428D01*
X150628571Y-62059000D01*
X150685714Y-62116142D01*
X150714285Y-62230428D01*
X150714285Y-62430428D01*
X150685714Y-62544714D01*
X150628571Y-62601857D01*
X150571428Y-62630428D01*
X150457142Y-62630428D01*
X151285714Y-62630428D02*
X150942857Y-62630428D01*
X151114285Y-62630428D02*
X151114285Y-62030428D01*
X151057142Y-62116142D01*
X151000000Y-62173285D01*
X150942857Y-62201857D01*
D12*
X148530691Y-58370595D02*
X148530691Y-57771155D01*
X149158676Y-58370595D02*
X148958862Y-58085147D01*
X148816139Y-58370595D02*
X148816139Y-57771155D01*
X149044497Y-57771155D01*
X149101586Y-57799700D01*
X149130131Y-57828244D01*
X149158676Y-57885334D01*
X149158676Y-57970968D01*
X149130131Y-58028058D01*
X149101586Y-58056602D01*
X149044497Y-58085147D01*
X148816139Y-58085147D01*
X149701026Y-58370595D02*
X149415579Y-58370595D01*
X149415579Y-57771155D01*
X149900840Y-58370595D02*
X149900840Y-57771155D01*
X150100653Y-58199326D01*
X150300466Y-57771155D01*
X150300466Y-58370595D01*
X150871361Y-58370595D02*
X150585914Y-58370595D01*
X150585914Y-57771155D01*
X151099720Y-58370595D02*
X151213899Y-58370595D01*
X151270988Y-58342050D01*
X151299533Y-58313505D01*
X151356622Y-58227871D01*
X151385167Y-58113692D01*
X151385167Y-57885334D01*
X151356622Y-57828244D01*
X151328078Y-57799700D01*
X151270988Y-57771155D01*
X151156809Y-57771155D01*
X151099720Y-57799700D01*
X151071175Y-57828244D01*
X151042630Y-57885334D01*
X151042630Y-58028058D01*
X151071175Y-58085147D01*
X151099720Y-58113692D01*
X151156809Y-58142237D01*
X151270988Y-58142237D01*
X151328078Y-58113692D01*
X151356622Y-58085147D01*
X151385167Y-58028058D01*
X151584980Y-57771155D02*
X151956062Y-57771155D01*
X151756249Y-57999513D01*
X151841883Y-57999513D01*
X151898973Y-58028058D01*
X151927518Y-58056602D01*
X151956062Y-58113692D01*
X151956062Y-58256416D01*
X151927518Y-58313505D01*
X151898973Y-58342050D01*
X151841883Y-58370595D01*
X151670615Y-58370595D01*
X151613525Y-58342050D01*
X151584980Y-58313505D01*
X152327144Y-57771155D02*
X152384234Y-57771155D01*
X152441323Y-57799700D01*
X152469868Y-57828244D01*
X152498413Y-57885334D01*
X152526958Y-57999513D01*
X152526958Y-58142237D01*
X152498413Y-58256416D01*
X152469868Y-58313505D01*
X152441323Y-58342050D01*
X152384234Y-58370595D01*
X152327144Y-58370595D01*
X152270055Y-58342050D01*
X152241510Y-58313505D01*
X152212965Y-58256416D01*
X152184420Y-58142237D01*
X152184420Y-57999513D01*
X152212965Y-57885334D01*
X152241510Y-57828244D01*
X152270055Y-57799700D01*
X152327144Y-57771155D01*
X152726771Y-57771155D02*
X153097853Y-57771155D01*
X152898040Y-57999513D01*
X152983674Y-57999513D01*
X153040763Y-58028058D01*
X153069308Y-58056602D01*
X153097853Y-58113692D01*
X153097853Y-58256416D01*
X153069308Y-58313505D01*
X153040763Y-58342050D01*
X152983674Y-58370595D01*
X152812405Y-58370595D01*
X152755316Y-58342050D01*
X152726771Y-58313505D01*
D11*
X196150000Y-57571428D02*
X195864285Y-57571428D01*
X195864285Y-56971428D01*
X196292857Y-56971428D02*
X196692857Y-56971428D01*
X196435714Y-57571428D01*
D19*
X197826190Y-56826190D02*
X197540476Y-56826190D01*
X197683333Y-56826190D02*
X197683333Y-56326190D01*
X197635714Y-56397619D01*
X197588095Y-56445238D01*
X197540476Y-56469047D01*
X198016666Y-56373809D02*
X198040476Y-56350000D01*
X198088095Y-56326190D01*
X198207142Y-56326190D01*
X198254761Y-56350000D01*
X198278571Y-56373809D01*
X198302380Y-56421428D01*
X198302380Y-56469047D01*
X198278571Y-56540476D01*
X197992857Y-56826190D01*
X198302380Y-56826190D01*
X198516666Y-56492857D02*
X198516666Y-56826190D01*
X198516666Y-56540476D02*
X198540476Y-56516666D01*
X198588095Y-56492857D01*
X198659523Y-56492857D01*
X198707142Y-56516666D01*
X198730952Y-56564285D01*
X198730952Y-56826190D01*
X198969047Y-56826190D02*
X198969047Y-56326190D01*
X198969047Y-56564285D02*
X199254761Y-56564285D01*
X199254761Y-56826190D02*
X199254761Y-56326190D01*
X199564285Y-56326190D02*
X199564285Y-56445238D01*
X199445238Y-56397619D02*
X199564285Y-56445238D01*
X199683333Y-56397619D01*
X199492857Y-56540476D02*
X199564285Y-56445238D01*
X199635714Y-56540476D01*
D11*
X137300000Y-77871428D02*
X137014285Y-77871428D01*
X137014285Y-77271428D01*
X137785714Y-77271428D02*
X137500000Y-77271428D01*
X137471428Y-77557142D01*
X137500000Y-77528571D01*
X137557142Y-77500000D01*
X137700000Y-77500000D01*
X137757142Y-77528571D01*
X137785714Y-77557142D01*
X137814285Y-77614285D01*
X137814285Y-77757142D01*
X137785714Y-77814285D01*
X137757142Y-77842857D01*
X137700000Y-77871428D01*
X137557142Y-77871428D01*
X137500000Y-77842857D01*
X137471428Y-77814285D01*
D17*
X136557142Y-76635714D02*
X136585714Y-76645238D01*
X136595238Y-76654761D01*
X136604761Y-76673809D01*
X136604761Y-76702380D01*
X136595238Y-76721428D01*
X136585714Y-76730952D01*
X136566666Y-76740476D01*
X136490476Y-76740476D01*
X136490476Y-76540476D01*
X136557142Y-76540476D01*
X136576190Y-76550000D01*
X136585714Y-76559523D01*
X136595238Y-76578571D01*
X136595238Y-76597619D01*
X136585714Y-76616666D01*
X136576190Y-76626190D01*
X136557142Y-76635714D01*
X136490476Y-76635714D01*
X136785714Y-76740476D02*
X136690476Y-76740476D01*
X136690476Y-76540476D01*
X136852380Y-76740476D02*
X136852380Y-76540476D01*
X136919047Y-76683333D01*
X136985714Y-76540476D01*
X136985714Y-76740476D01*
X137185714Y-76740476D02*
X137071428Y-76740476D01*
X137128571Y-76740476D02*
X137128571Y-76540476D01*
X137109523Y-76569047D01*
X137090476Y-76588095D01*
X137071428Y-76597619D01*
X137366666Y-76540476D02*
X137271428Y-76540476D01*
X137261904Y-76635714D01*
X137271428Y-76626190D01*
X137290476Y-76616666D01*
X137338095Y-76616666D01*
X137357142Y-76626190D01*
X137366666Y-76635714D01*
X137376190Y-76654761D01*
X137376190Y-76702380D01*
X137366666Y-76721428D01*
X137357142Y-76730952D01*
X137338095Y-76740476D01*
X137290476Y-76740476D01*
X137271428Y-76730952D01*
X137261904Y-76721428D01*
X137452380Y-76683333D02*
X137547619Y-76683333D01*
X137433333Y-76740476D02*
X137500000Y-76540476D01*
X137566666Y-76740476D01*
X137738095Y-76550000D02*
X137719047Y-76540476D01*
X137690476Y-76540476D01*
X137661904Y-76550000D01*
X137642857Y-76569047D01*
X137633333Y-76588095D01*
X137623809Y-76626190D01*
X137623809Y-76654761D01*
X137633333Y-76692857D01*
X137642857Y-76711904D01*
X137661904Y-76730952D01*
X137690476Y-76740476D01*
X137709523Y-76740476D01*
X137738095Y-76730952D01*
X137747619Y-76721428D01*
X137747619Y-76654761D01*
X137709523Y-76654761D01*
X137938095Y-76740476D02*
X137823809Y-76740476D01*
X137880952Y-76740476D02*
X137880952Y-76540476D01*
X137861904Y-76569047D01*
X137842857Y-76588095D01*
X137823809Y-76597619D01*
X138061904Y-76540476D02*
X138080952Y-76540476D01*
X138100000Y-76550000D01*
X138109523Y-76559523D01*
X138119047Y-76578571D01*
X138128571Y-76616666D01*
X138128571Y-76664285D01*
X138119047Y-76702380D01*
X138109523Y-76721428D01*
X138100000Y-76730952D01*
X138080952Y-76740476D01*
X138061904Y-76740476D01*
X138042857Y-76730952D01*
X138033333Y-76721428D01*
X138023809Y-76702380D01*
X138014285Y-76664285D01*
X138014285Y-76616666D01*
X138023809Y-76578571D01*
X138033333Y-76559523D01*
X138042857Y-76550000D01*
X138061904Y-76540476D01*
X138204761Y-76559523D02*
X138214285Y-76550000D01*
X138233333Y-76540476D01*
X138280952Y-76540476D01*
X138300000Y-76550000D01*
X138309523Y-76559523D01*
X138319047Y-76578571D01*
X138319047Y-76597619D01*
X138309523Y-76626190D01*
X138195238Y-76740476D01*
X138319047Y-76740476D01*
X192841714Y-57922366D02*
X192851238Y-57893795D01*
X192860761Y-57884271D01*
X192879809Y-57874747D01*
X192908380Y-57874747D01*
X192927428Y-57884271D01*
X192936952Y-57893795D01*
X192946476Y-57912842D01*
X192946476Y-57989033D01*
X192746476Y-57989033D01*
X192746476Y-57922366D01*
X192756000Y-57903319D01*
X192765523Y-57893795D01*
X192784571Y-57884271D01*
X192803619Y-57884271D01*
X192822666Y-57893795D01*
X192832190Y-57903319D01*
X192841714Y-57922366D01*
X192841714Y-57989033D01*
X192946476Y-57693795D02*
X192946476Y-57789033D01*
X192746476Y-57789033D01*
X192946476Y-57627128D02*
X192746476Y-57627128D01*
X192946476Y-57512842D01*
X192746476Y-57512842D01*
X192946476Y-57312842D02*
X192946476Y-57427128D01*
X192946476Y-57369985D02*
X192746476Y-57369985D01*
X192775047Y-57389033D01*
X192794095Y-57408080D01*
X192803619Y-57427128D01*
D20*
X193148857Y-57746628D02*
X193167000Y-57752676D01*
X193173047Y-57758723D01*
X193179095Y-57770819D01*
X193179095Y-57788961D01*
X193173047Y-57801057D01*
X193167000Y-57807104D01*
X193154904Y-57813152D01*
X193106523Y-57813152D01*
X193106523Y-57686152D01*
X193148857Y-57686152D01*
X193160952Y-57692200D01*
X193167000Y-57698247D01*
X193173047Y-57710342D01*
X193173047Y-57722438D01*
X193167000Y-57734533D01*
X193160952Y-57740580D01*
X193148857Y-57746628D01*
X193106523Y-57746628D01*
X193227476Y-57776866D02*
X193287952Y-57776866D01*
X193215380Y-57813152D02*
X193257714Y-57686152D01*
X193300047Y-57813152D01*
X193402857Y-57813152D02*
X193342380Y-57813152D01*
X193342380Y-57686152D01*
X193445190Y-57686152D02*
X193445190Y-57788961D01*
X193451238Y-57801057D01*
X193457285Y-57807104D01*
X193469380Y-57813152D01*
X193493571Y-57813152D01*
X193505666Y-57807104D01*
X193511714Y-57801057D01*
X193517761Y-57788961D01*
X193517761Y-57686152D01*
X193578238Y-57813152D02*
X193578238Y-57686152D01*
X193650809Y-57813152D01*
X193650809Y-57686152D01*
X193729428Y-57740580D02*
X193717333Y-57734533D01*
X193711285Y-57728485D01*
X193705238Y-57716390D01*
X193705238Y-57710342D01*
X193711285Y-57698247D01*
X193717333Y-57692200D01*
X193729428Y-57686152D01*
X193753619Y-57686152D01*
X193765714Y-57692200D01*
X193771761Y-57698247D01*
X193777809Y-57710342D01*
X193777809Y-57716390D01*
X193771761Y-57728485D01*
X193765714Y-57734533D01*
X193753619Y-57740580D01*
X193729428Y-57740580D01*
X193717333Y-57746628D01*
X193711285Y-57752676D01*
X193705238Y-57764771D01*
X193705238Y-57788961D01*
X193711285Y-57801057D01*
X193717333Y-57807104D01*
X193729428Y-57813152D01*
X193753619Y-57813152D01*
X193765714Y-57807104D01*
X193771761Y-57801057D01*
X193777809Y-57788961D01*
X193777809Y-57764771D01*
X193771761Y-57752676D01*
X193765714Y-57746628D01*
X193753619Y-57740580D01*
X193886666Y-57686152D02*
X193862476Y-57686152D01*
X193850380Y-57692200D01*
X193844333Y-57698247D01*
X193832238Y-57716390D01*
X193826190Y-57740580D01*
X193826190Y-57788961D01*
X193832238Y-57801057D01*
X193838285Y-57807104D01*
X193850380Y-57813152D01*
X193874571Y-57813152D01*
X193886666Y-57807104D01*
X193892714Y-57801057D01*
X193898761Y-57788961D01*
X193898761Y-57758723D01*
X193892714Y-57746628D01*
X193886666Y-57740580D01*
X193874571Y-57734533D01*
X193850380Y-57734533D01*
X193838285Y-57740580D01*
X193832238Y-57746628D01*
X193826190Y-57758723D01*
X193971333Y-57740580D02*
X193959238Y-57734533D01*
X193953190Y-57728485D01*
X193947142Y-57716390D01*
X193947142Y-57710342D01*
X193953190Y-57698247D01*
X193959238Y-57692200D01*
X193971333Y-57686152D01*
X193995523Y-57686152D01*
X194007619Y-57692200D01*
X194013666Y-57698247D01*
X194019714Y-57710342D01*
X194019714Y-57716390D01*
X194013666Y-57728485D01*
X194007619Y-57734533D01*
X193995523Y-57740580D01*
X193971333Y-57740580D01*
X193959238Y-57746628D01*
X193953190Y-57752676D01*
X193947142Y-57764771D01*
X193947142Y-57788961D01*
X193953190Y-57801057D01*
X193959238Y-57807104D01*
X193971333Y-57813152D01*
X193995523Y-57813152D01*
X194007619Y-57807104D01*
X194013666Y-57801057D01*
X194019714Y-57788961D01*
X194019714Y-57764771D01*
X194013666Y-57752676D01*
X194007619Y-57746628D01*
X193995523Y-57740580D01*
X194110428Y-57686152D02*
X194110428Y-57776866D01*
X194104380Y-57795009D01*
X194092285Y-57807104D01*
X194074142Y-57813152D01*
X194062047Y-57813152D01*
X194195095Y-57686152D02*
X194219285Y-57686152D01*
X194231380Y-57692200D01*
X194243476Y-57704295D01*
X194249523Y-57728485D01*
X194249523Y-57770819D01*
X194243476Y-57795009D01*
X194231380Y-57807104D01*
X194219285Y-57813152D01*
X194195095Y-57813152D01*
X194183000Y-57807104D01*
X194170904Y-57795009D01*
X194164857Y-57770819D01*
X194164857Y-57728485D01*
X194170904Y-57704295D01*
X194183000Y-57692200D01*
X194195095Y-57686152D01*
X194303952Y-57813152D02*
X194303952Y-57686152D01*
X194303952Y-57746628D02*
X194376523Y-57746628D01*
X194376523Y-57813152D02*
X194376523Y-57686152D01*
X194430952Y-57776866D02*
X194491428Y-57776866D01*
X194418857Y-57813152D02*
X194461190Y-57686152D01*
X194503523Y-57813152D01*
X194545857Y-57813152D02*
X194545857Y-57686152D01*
X194618428Y-57813152D01*
X194618428Y-57686152D01*
X194672857Y-57807104D02*
X194691000Y-57813152D01*
X194721238Y-57813152D01*
X194733333Y-57807104D01*
X194739380Y-57801057D01*
X194745428Y-57788961D01*
X194745428Y-57776866D01*
X194739380Y-57764771D01*
X194733333Y-57758723D01*
X194721238Y-57752676D01*
X194697047Y-57746628D01*
X194684952Y-57740580D01*
X194678904Y-57734533D01*
X194672857Y-57722438D01*
X194672857Y-57710342D01*
X194678904Y-57698247D01*
X194684952Y-57692200D01*
X194697047Y-57686152D01*
X194727285Y-57686152D01*
X194745428Y-57692200D01*
X194824047Y-57686152D02*
X194848238Y-57686152D01*
X194860333Y-57692200D01*
X194872428Y-57704295D01*
X194878476Y-57728485D01*
X194878476Y-57770819D01*
X194872428Y-57795009D01*
X194860333Y-57807104D01*
X194848238Y-57813152D01*
X194824047Y-57813152D01*
X194811952Y-57807104D01*
X194799857Y-57795009D01*
X194793809Y-57770819D01*
X194793809Y-57728485D01*
X194799857Y-57704295D01*
X194811952Y-57692200D01*
X194824047Y-57686152D01*
X194932904Y-57813152D02*
X194932904Y-57686152D01*
X195005476Y-57813152D01*
X195005476Y-57686152D01*
D11*
X194927428Y-56427128D02*
X194584571Y-56427128D01*
X194756000Y-56427128D02*
X194756000Y-55827128D01*
X194698857Y-55912842D01*
X194641714Y-55969985D01*
X194584571Y-55998557D01*
X146942857Y-111328571D02*
X146885714Y-111300000D01*
X146828571Y-111242857D01*
X146742857Y-111157142D01*
X146685714Y-111128571D01*
X146628571Y-111128571D01*
X146657142Y-111271428D02*
X146600000Y-111242857D01*
X146542857Y-111185714D01*
X146514285Y-111071428D01*
X146514285Y-110871428D01*
X146542857Y-110757142D01*
X146600000Y-110700000D01*
X146657142Y-110671428D01*
X146771428Y-110671428D01*
X146828571Y-110700000D01*
X146885714Y-110757142D01*
X146914285Y-110871428D01*
X146914285Y-111071428D01*
X146885714Y-111185714D01*
X146828571Y-111242857D01*
X146771428Y-111271428D01*
X146657142Y-111271428D01*
X147142857Y-110728571D02*
X147171428Y-110700000D01*
X147228571Y-110671428D01*
X147371428Y-110671428D01*
X147428571Y-110700000D01*
X147457142Y-110728571D01*
X147485714Y-110785714D01*
X147485714Y-110842857D01*
X147457142Y-110928571D01*
X147114285Y-111271428D01*
X147485714Y-111271428D01*
D12*
X143656754Y-109387182D02*
X143742388Y-109415727D01*
X143770933Y-109444272D01*
X143799478Y-109501361D01*
X143799478Y-109586996D01*
X143770933Y-109644085D01*
X143742388Y-109672630D01*
X143685299Y-109701175D01*
X143456940Y-109701175D01*
X143456940Y-109101735D01*
X143656754Y-109101735D01*
X143713843Y-109130280D01*
X143742388Y-109158824D01*
X143770933Y-109215914D01*
X143770933Y-109273003D01*
X143742388Y-109330093D01*
X143713843Y-109358638D01*
X143656754Y-109387182D01*
X143456940Y-109387182D01*
X144398918Y-109644085D02*
X144370373Y-109672630D01*
X144284739Y-109701175D01*
X144227649Y-109701175D01*
X144142015Y-109672630D01*
X144084925Y-109615540D01*
X144056380Y-109558451D01*
X144027836Y-109444272D01*
X144027836Y-109358638D01*
X144056380Y-109244459D01*
X144084925Y-109187369D01*
X144142015Y-109130280D01*
X144227649Y-109101735D01*
X144284739Y-109101735D01*
X144370373Y-109130280D01*
X144398918Y-109158824D01*
X144741455Y-109358638D02*
X144684365Y-109330093D01*
X144655820Y-109301548D01*
X144627276Y-109244459D01*
X144627276Y-109215914D01*
X144655820Y-109158824D01*
X144684365Y-109130280D01*
X144741455Y-109101735D01*
X144855634Y-109101735D01*
X144912723Y-109130280D01*
X144941268Y-109158824D01*
X144969813Y-109215914D01*
X144969813Y-109244459D01*
X144941268Y-109301548D01*
X144912723Y-109330093D01*
X144855634Y-109358638D01*
X144741455Y-109358638D01*
X144684365Y-109387182D01*
X144655820Y-109415727D01*
X144627276Y-109472817D01*
X144627276Y-109586996D01*
X144655820Y-109644085D01*
X144684365Y-109672630D01*
X144741455Y-109701175D01*
X144855634Y-109701175D01*
X144912723Y-109672630D01*
X144941268Y-109644085D01*
X144969813Y-109586996D01*
X144969813Y-109472817D01*
X144941268Y-109415727D01*
X144912723Y-109387182D01*
X144855634Y-109358638D01*
X145483619Y-109301548D02*
X145483619Y-109701175D01*
X145340895Y-109073190D02*
X145198171Y-109501361D01*
X145569253Y-109501361D01*
X145883245Y-109358638D02*
X145826156Y-109330093D01*
X145797611Y-109301548D01*
X145769066Y-109244459D01*
X145769066Y-109215914D01*
X145797611Y-109158824D01*
X145826156Y-109130280D01*
X145883245Y-109101735D01*
X145997424Y-109101735D01*
X146054514Y-109130280D01*
X146083059Y-109158824D01*
X146111603Y-109215914D01*
X146111603Y-109244459D01*
X146083059Y-109301548D01*
X146054514Y-109330093D01*
X145997424Y-109358638D01*
X145883245Y-109358638D01*
X145826156Y-109387182D01*
X145797611Y-109415727D01*
X145769066Y-109472817D01*
X145769066Y-109586996D01*
X145797611Y-109644085D01*
X145826156Y-109672630D01*
X145883245Y-109701175D01*
X145997424Y-109701175D01*
X146054514Y-109672630D01*
X146083059Y-109644085D01*
X146111603Y-109586996D01*
X146111603Y-109472817D01*
X146083059Y-109415727D01*
X146054514Y-109387182D01*
X145997424Y-109358638D01*
M02*
