G04 #@! TF.GenerationSoftware,KiCad,Pcbnew,(2017-02-02 revision 8dadc18)-makepkg*
G04 #@! TF.CreationDate,2017-03-26T00:07:33+03:00*
G04 #@! TF.ProjectId,Badge,42616467652E6B696361645F70636200,rev?*
G04 #@! TF.FileFunction,Soldermask,Bot*
G04 #@! TF.FilePolarity,Negative*
%FSLAX46Y46*%
G04 Gerber Fmt 4.6, Leading zero omitted, Abs format (unit mm)*
G04 Created by KiCad (PCBNEW (2017-02-02 revision 8dadc18)-makepkg) date 03/26/17 00:07:33*
%MOMM*%
%LPD*%
G01*
G04 APERTURE LIST*
%ADD10C,0.100000*%
%ADD11R,1.000000X0.400000*%
%ADD12O,1.000000X0.400000*%
%ADD13O,0.400000X1.000000*%
%ADD14R,1.200000X1.200000*%
%ADD15R,0.450000X1.200000*%
%ADD16C,0.450000*%
%ADD17R,2.300000X4.200000*%
%ADD18R,1.216000X1.089000*%
%ADD19R,1.700000X1.700000*%
%ADD20C,1.700000*%
%ADD21R,0.800000X0.800000*%
%ADD22R,1.000000X0.500000*%
%ADD23O,1.000000X0.500000*%
%ADD24O,0.500000X1.000000*%
%ADD25R,1.200000X1.300000*%
%ADD26R,1.700000X1.400000*%
%ADD27R,1.300000X1.200000*%
%ADD28R,1.400000X1.700000*%
%ADD29R,1.089000X1.216000*%
%ADD30R,1.701140X0.700380*%
%ADD31R,1.701140X1.701140*%
%ADD32R,1.700000X2.700000*%
%ADD33R,2.700000X1.700000*%
%ADD34R,0.600000X1.450000*%
%ADD35R,1.300000X1.800000*%
%ADD36R,1.400000X0.480000*%
%ADD37O,1.400000X0.480000*%
%ADD38O,0.480000X1.400000*%
%ADD39C,1.200000*%
%ADD40R,1.398880X2.099920*%
%ADD41R,1.100000X1.200000*%
%ADD42R,1.200000X1.100000*%
%ADD43R,1.280000X1.200000*%
G04 APERTURE END LIST*
D10*
D11*
X133302000Y-95385700D03*
D12*
X133302000Y-95785700D03*
X133302000Y-96185700D03*
X133302000Y-96585700D03*
X133302000Y-96985700D03*
X133302000Y-97385700D03*
X133302000Y-97785700D03*
X133302000Y-98185700D03*
X133302000Y-98585700D03*
X133302000Y-98985700D03*
X133302000Y-99385700D03*
X133302000Y-99785700D03*
D13*
X132502000Y-100585700D03*
X132102000Y-100585700D03*
X131702000Y-100585700D03*
X131302000Y-100585700D03*
X130902000Y-100585700D03*
X130502000Y-100585700D03*
X130102000Y-100585700D03*
X129702000Y-100585700D03*
X129302000Y-100585700D03*
X128902000Y-100585700D03*
X128502000Y-100585700D03*
X128102000Y-100585700D03*
D12*
X127302000Y-99785700D03*
X127302000Y-99385700D03*
X127302000Y-98985700D03*
X127302000Y-98585700D03*
X127302000Y-98185700D03*
X127302000Y-97785700D03*
X127302000Y-97385700D03*
X127302000Y-96985700D03*
X127302000Y-96585700D03*
X127302000Y-96185700D03*
X127302000Y-95785700D03*
X127302000Y-95385700D03*
D13*
X128102000Y-94585700D03*
X128502000Y-94585700D03*
X128902000Y-94585700D03*
X129302000Y-94585700D03*
X129702000Y-94585700D03*
X130102000Y-94585700D03*
X130502000Y-94585700D03*
X130902000Y-94585700D03*
X131302000Y-94585700D03*
X131702000Y-94585700D03*
X132102000Y-94585700D03*
X132502000Y-94585700D03*
D14*
X131802000Y-96085700D03*
X131802000Y-97085700D03*
X131802000Y-98085700D03*
X131802000Y-99085700D03*
X130802000Y-96085700D03*
X130802000Y-97085700D03*
X130802000Y-98085700D03*
X130802000Y-99085700D03*
X129802000Y-96085700D03*
X129802000Y-97085700D03*
X129802000Y-98085700D03*
X129802000Y-99085700D03*
X128802000Y-96085700D03*
X128802000Y-97085700D03*
X128802000Y-98085700D03*
X128802000Y-99085700D03*
D15*
X159850000Y-108350000D03*
D10*
G36*
X159473527Y-107750542D02*
X159484448Y-107752162D01*
X159495157Y-107754844D01*
X159505552Y-107758564D01*
X159515532Y-107763284D01*
X159525002Y-107768960D01*
X159533869Y-107775536D01*
X159542050Y-107782950D01*
X159549464Y-107791131D01*
X159556040Y-107799998D01*
X159561716Y-107809468D01*
X159566436Y-107819448D01*
X159570156Y-107829843D01*
X159572838Y-107840552D01*
X159574458Y-107851473D01*
X159575000Y-107862500D01*
X159575000Y-108837500D01*
X159574458Y-108848527D01*
X159572838Y-108859448D01*
X159570156Y-108870157D01*
X159566436Y-108880552D01*
X159561716Y-108890532D01*
X159556040Y-108900002D01*
X159549464Y-108908869D01*
X159542050Y-108917050D01*
X159533869Y-108924464D01*
X159525002Y-108931040D01*
X159515532Y-108936716D01*
X159505552Y-108941436D01*
X159495157Y-108945156D01*
X159484448Y-108947838D01*
X159473527Y-108949458D01*
X159462500Y-108950000D01*
X159237500Y-108950000D01*
X159226473Y-108949458D01*
X159215552Y-108947838D01*
X159204843Y-108945156D01*
X159194448Y-108941436D01*
X159184468Y-108936716D01*
X159174998Y-108931040D01*
X159166131Y-108924464D01*
X159157950Y-108917050D01*
X159150536Y-108908869D01*
X159143960Y-108900002D01*
X159138284Y-108890532D01*
X159133564Y-108880552D01*
X159129844Y-108870157D01*
X159127162Y-108859448D01*
X159125542Y-108848527D01*
X159125000Y-108837500D01*
X159125000Y-107862500D01*
X159125542Y-107851473D01*
X159127162Y-107840552D01*
X159129844Y-107829843D01*
X159133564Y-107819448D01*
X159138284Y-107809468D01*
X159143960Y-107799998D01*
X159150536Y-107791131D01*
X159157950Y-107782950D01*
X159166131Y-107775536D01*
X159174998Y-107768960D01*
X159184468Y-107763284D01*
X159194448Y-107758564D01*
X159204843Y-107754844D01*
X159215552Y-107752162D01*
X159226473Y-107750542D01*
X159237500Y-107750000D01*
X159462500Y-107750000D01*
X159473527Y-107750542D01*
X159473527Y-107750542D01*
G37*
D16*
X159350000Y-108350000D03*
D10*
G36*
X158973527Y-107500542D02*
X158984448Y-107502162D01*
X158995157Y-107504844D01*
X159005552Y-107508564D01*
X159015532Y-107513284D01*
X159025002Y-107518960D01*
X159033869Y-107525536D01*
X159042050Y-107532950D01*
X159049464Y-107541131D01*
X159056040Y-107549998D01*
X159061716Y-107559468D01*
X159066436Y-107569448D01*
X159070156Y-107579843D01*
X159072838Y-107590552D01*
X159074458Y-107601473D01*
X159075000Y-107612500D01*
X159075000Y-107837500D01*
X159074458Y-107848527D01*
X159072838Y-107859448D01*
X159070156Y-107870157D01*
X159066436Y-107880552D01*
X159061716Y-107890532D01*
X159056040Y-107900002D01*
X159049464Y-107908869D01*
X159042050Y-107917050D01*
X159033869Y-107924464D01*
X159025002Y-107931040D01*
X159015532Y-107936716D01*
X159005552Y-107941436D01*
X158995157Y-107945156D01*
X158984448Y-107947838D01*
X158973527Y-107949458D01*
X158962500Y-107950000D01*
X157987500Y-107950000D01*
X157976473Y-107949458D01*
X157965552Y-107947838D01*
X157954843Y-107945156D01*
X157944448Y-107941436D01*
X157934468Y-107936716D01*
X157924998Y-107931040D01*
X157916131Y-107924464D01*
X157907950Y-107917050D01*
X157900536Y-107908869D01*
X157893960Y-107900002D01*
X157888284Y-107890532D01*
X157883564Y-107880552D01*
X157879844Y-107870157D01*
X157877162Y-107859448D01*
X157875542Y-107848527D01*
X157875000Y-107837500D01*
X157875000Y-107612500D01*
X157875542Y-107601473D01*
X157877162Y-107590552D01*
X157879844Y-107579843D01*
X157883564Y-107569448D01*
X157888284Y-107559468D01*
X157893960Y-107549998D01*
X157900536Y-107541131D01*
X157907950Y-107532950D01*
X157916131Y-107525536D01*
X157924998Y-107518960D01*
X157934468Y-107513284D01*
X157944448Y-107508564D01*
X157954843Y-107504844D01*
X157965552Y-107502162D01*
X157976473Y-107500542D01*
X157987500Y-107500000D01*
X158962500Y-107500000D01*
X158973527Y-107500542D01*
X158973527Y-107500542D01*
G37*
D16*
X158475000Y-107725000D03*
D10*
G36*
X158973527Y-107000542D02*
X158984448Y-107002162D01*
X158995157Y-107004844D01*
X159005552Y-107008564D01*
X159015532Y-107013284D01*
X159025002Y-107018960D01*
X159033869Y-107025536D01*
X159042050Y-107032950D01*
X159049464Y-107041131D01*
X159056040Y-107049998D01*
X159061716Y-107059468D01*
X159066436Y-107069448D01*
X159070156Y-107079843D01*
X159072838Y-107090552D01*
X159074458Y-107101473D01*
X159075000Y-107112500D01*
X159075000Y-107337500D01*
X159074458Y-107348527D01*
X159072838Y-107359448D01*
X159070156Y-107370157D01*
X159066436Y-107380552D01*
X159061716Y-107390532D01*
X159056040Y-107400002D01*
X159049464Y-107408869D01*
X159042050Y-107417050D01*
X159033869Y-107424464D01*
X159025002Y-107431040D01*
X159015532Y-107436716D01*
X159005552Y-107441436D01*
X158995157Y-107445156D01*
X158984448Y-107447838D01*
X158973527Y-107449458D01*
X158962500Y-107450000D01*
X157987500Y-107450000D01*
X157976473Y-107449458D01*
X157965552Y-107447838D01*
X157954843Y-107445156D01*
X157944448Y-107441436D01*
X157934468Y-107436716D01*
X157924998Y-107431040D01*
X157916131Y-107424464D01*
X157907950Y-107417050D01*
X157900536Y-107408869D01*
X157893960Y-107400002D01*
X157888284Y-107390532D01*
X157883564Y-107380552D01*
X157879844Y-107370157D01*
X157877162Y-107359448D01*
X157875542Y-107348527D01*
X157875000Y-107337500D01*
X157875000Y-107112500D01*
X157875542Y-107101473D01*
X157877162Y-107090552D01*
X157879844Y-107079843D01*
X157883564Y-107069448D01*
X157888284Y-107059468D01*
X157893960Y-107049998D01*
X157900536Y-107041131D01*
X157907950Y-107032950D01*
X157916131Y-107025536D01*
X157924998Y-107018960D01*
X157934468Y-107013284D01*
X157944448Y-107008564D01*
X157954843Y-107004844D01*
X157965552Y-107002162D01*
X157976473Y-107000542D01*
X157987500Y-107000000D01*
X158962500Y-107000000D01*
X158973527Y-107000542D01*
X158973527Y-107000542D01*
G37*
D16*
X158475000Y-107225000D03*
D10*
G36*
X158973527Y-106500542D02*
X158984448Y-106502162D01*
X158995157Y-106504844D01*
X159005552Y-106508564D01*
X159015532Y-106513284D01*
X159025002Y-106518960D01*
X159033869Y-106525536D01*
X159042050Y-106532950D01*
X159049464Y-106541131D01*
X159056040Y-106549998D01*
X159061716Y-106559468D01*
X159066436Y-106569448D01*
X159070156Y-106579843D01*
X159072838Y-106590552D01*
X159074458Y-106601473D01*
X159075000Y-106612500D01*
X159075000Y-106837500D01*
X159074458Y-106848527D01*
X159072838Y-106859448D01*
X159070156Y-106870157D01*
X159066436Y-106880552D01*
X159061716Y-106890532D01*
X159056040Y-106900002D01*
X159049464Y-106908869D01*
X159042050Y-106917050D01*
X159033869Y-106924464D01*
X159025002Y-106931040D01*
X159015532Y-106936716D01*
X159005552Y-106941436D01*
X158995157Y-106945156D01*
X158984448Y-106947838D01*
X158973527Y-106949458D01*
X158962500Y-106950000D01*
X157987500Y-106950000D01*
X157976473Y-106949458D01*
X157965552Y-106947838D01*
X157954843Y-106945156D01*
X157944448Y-106941436D01*
X157934468Y-106936716D01*
X157924998Y-106931040D01*
X157916131Y-106924464D01*
X157907950Y-106917050D01*
X157900536Y-106908869D01*
X157893960Y-106900002D01*
X157888284Y-106890532D01*
X157883564Y-106880552D01*
X157879844Y-106870157D01*
X157877162Y-106859448D01*
X157875542Y-106848527D01*
X157875000Y-106837500D01*
X157875000Y-106612500D01*
X157875542Y-106601473D01*
X157877162Y-106590552D01*
X157879844Y-106579843D01*
X157883564Y-106569448D01*
X157888284Y-106559468D01*
X157893960Y-106549998D01*
X157900536Y-106541131D01*
X157907950Y-106532950D01*
X157916131Y-106525536D01*
X157924998Y-106518960D01*
X157934468Y-106513284D01*
X157944448Y-106508564D01*
X157954843Y-106504844D01*
X157965552Y-106502162D01*
X157976473Y-106500542D01*
X157987500Y-106500000D01*
X158962500Y-106500000D01*
X158973527Y-106500542D01*
X158973527Y-106500542D01*
G37*
D16*
X158475000Y-106725000D03*
D10*
G36*
X159473527Y-105500542D02*
X159484448Y-105502162D01*
X159495157Y-105504844D01*
X159505552Y-105508564D01*
X159515532Y-105513284D01*
X159525002Y-105518960D01*
X159533869Y-105525536D01*
X159542050Y-105532950D01*
X159549464Y-105541131D01*
X159556040Y-105549998D01*
X159561716Y-105559468D01*
X159566436Y-105569448D01*
X159570156Y-105579843D01*
X159572838Y-105590552D01*
X159574458Y-105601473D01*
X159575000Y-105612500D01*
X159575000Y-106587500D01*
X159574458Y-106598527D01*
X159572838Y-106609448D01*
X159570156Y-106620157D01*
X159566436Y-106630552D01*
X159561716Y-106640532D01*
X159556040Y-106650002D01*
X159549464Y-106658869D01*
X159542050Y-106667050D01*
X159533869Y-106674464D01*
X159525002Y-106681040D01*
X159515532Y-106686716D01*
X159505552Y-106691436D01*
X159495157Y-106695156D01*
X159484448Y-106697838D01*
X159473527Y-106699458D01*
X159462500Y-106700000D01*
X159237500Y-106700000D01*
X159226473Y-106699458D01*
X159215552Y-106697838D01*
X159204843Y-106695156D01*
X159194448Y-106691436D01*
X159184468Y-106686716D01*
X159174998Y-106681040D01*
X159166131Y-106674464D01*
X159157950Y-106667050D01*
X159150536Y-106658869D01*
X159143960Y-106650002D01*
X159138284Y-106640532D01*
X159133564Y-106630552D01*
X159129844Y-106620157D01*
X159127162Y-106609448D01*
X159125542Y-106598527D01*
X159125000Y-106587500D01*
X159125000Y-105612500D01*
X159125542Y-105601473D01*
X159127162Y-105590552D01*
X159129844Y-105579843D01*
X159133564Y-105569448D01*
X159138284Y-105559468D01*
X159143960Y-105549998D01*
X159150536Y-105541131D01*
X159157950Y-105532950D01*
X159166131Y-105525536D01*
X159174998Y-105518960D01*
X159184468Y-105513284D01*
X159194448Y-105508564D01*
X159204843Y-105504844D01*
X159215552Y-105502162D01*
X159226473Y-105500542D01*
X159237500Y-105500000D01*
X159462500Y-105500000D01*
X159473527Y-105500542D01*
X159473527Y-105500542D01*
G37*
D16*
X159350000Y-106100000D03*
D10*
G36*
X159973527Y-105500542D02*
X159984448Y-105502162D01*
X159995157Y-105504844D01*
X160005552Y-105508564D01*
X160015532Y-105513284D01*
X160025002Y-105518960D01*
X160033869Y-105525536D01*
X160042050Y-105532950D01*
X160049464Y-105541131D01*
X160056040Y-105549998D01*
X160061716Y-105559468D01*
X160066436Y-105569448D01*
X160070156Y-105579843D01*
X160072838Y-105590552D01*
X160074458Y-105601473D01*
X160075000Y-105612500D01*
X160075000Y-106587500D01*
X160074458Y-106598527D01*
X160072838Y-106609448D01*
X160070156Y-106620157D01*
X160066436Y-106630552D01*
X160061716Y-106640532D01*
X160056040Y-106650002D01*
X160049464Y-106658869D01*
X160042050Y-106667050D01*
X160033869Y-106674464D01*
X160025002Y-106681040D01*
X160015532Y-106686716D01*
X160005552Y-106691436D01*
X159995157Y-106695156D01*
X159984448Y-106697838D01*
X159973527Y-106699458D01*
X159962500Y-106700000D01*
X159737500Y-106700000D01*
X159726473Y-106699458D01*
X159715552Y-106697838D01*
X159704843Y-106695156D01*
X159694448Y-106691436D01*
X159684468Y-106686716D01*
X159674998Y-106681040D01*
X159666131Y-106674464D01*
X159657950Y-106667050D01*
X159650536Y-106658869D01*
X159643960Y-106650002D01*
X159638284Y-106640532D01*
X159633564Y-106630552D01*
X159629844Y-106620157D01*
X159627162Y-106609448D01*
X159625542Y-106598527D01*
X159625000Y-106587500D01*
X159625000Y-105612500D01*
X159625542Y-105601473D01*
X159627162Y-105590552D01*
X159629844Y-105579843D01*
X159633564Y-105569448D01*
X159638284Y-105559468D01*
X159643960Y-105549998D01*
X159650536Y-105541131D01*
X159657950Y-105532950D01*
X159666131Y-105525536D01*
X159674998Y-105518960D01*
X159684468Y-105513284D01*
X159694448Y-105508564D01*
X159704843Y-105504844D01*
X159715552Y-105502162D01*
X159726473Y-105500542D01*
X159737500Y-105500000D01*
X159962500Y-105500000D01*
X159973527Y-105500542D01*
X159973527Y-105500542D01*
G37*
D16*
X159850000Y-106100000D03*
D10*
G36*
X161223527Y-106500542D02*
X161234448Y-106502162D01*
X161245157Y-106504844D01*
X161255552Y-106508564D01*
X161265532Y-106513284D01*
X161275002Y-106518960D01*
X161283869Y-106525536D01*
X161292050Y-106532950D01*
X161299464Y-106541131D01*
X161306040Y-106549998D01*
X161311716Y-106559468D01*
X161316436Y-106569448D01*
X161320156Y-106579843D01*
X161322838Y-106590552D01*
X161324458Y-106601473D01*
X161325000Y-106612500D01*
X161325000Y-106837500D01*
X161324458Y-106848527D01*
X161322838Y-106859448D01*
X161320156Y-106870157D01*
X161316436Y-106880552D01*
X161311716Y-106890532D01*
X161306040Y-106900002D01*
X161299464Y-106908869D01*
X161292050Y-106917050D01*
X161283869Y-106924464D01*
X161275002Y-106931040D01*
X161265532Y-106936716D01*
X161255552Y-106941436D01*
X161245157Y-106945156D01*
X161234448Y-106947838D01*
X161223527Y-106949458D01*
X161212500Y-106950000D01*
X160237500Y-106950000D01*
X160226473Y-106949458D01*
X160215552Y-106947838D01*
X160204843Y-106945156D01*
X160194448Y-106941436D01*
X160184468Y-106936716D01*
X160174998Y-106931040D01*
X160166131Y-106924464D01*
X160157950Y-106917050D01*
X160150536Y-106908869D01*
X160143960Y-106900002D01*
X160138284Y-106890532D01*
X160133564Y-106880552D01*
X160129844Y-106870157D01*
X160127162Y-106859448D01*
X160125542Y-106848527D01*
X160125000Y-106837500D01*
X160125000Y-106612500D01*
X160125542Y-106601473D01*
X160127162Y-106590552D01*
X160129844Y-106579843D01*
X160133564Y-106569448D01*
X160138284Y-106559468D01*
X160143960Y-106549998D01*
X160150536Y-106541131D01*
X160157950Y-106532950D01*
X160166131Y-106525536D01*
X160174998Y-106518960D01*
X160184468Y-106513284D01*
X160194448Y-106508564D01*
X160204843Y-106504844D01*
X160215552Y-106502162D01*
X160226473Y-106500542D01*
X160237500Y-106500000D01*
X161212500Y-106500000D01*
X161223527Y-106500542D01*
X161223527Y-106500542D01*
G37*
D16*
X160725000Y-106725000D03*
D10*
G36*
X161223527Y-107000542D02*
X161234448Y-107002162D01*
X161245157Y-107004844D01*
X161255552Y-107008564D01*
X161265532Y-107013284D01*
X161275002Y-107018960D01*
X161283869Y-107025536D01*
X161292050Y-107032950D01*
X161299464Y-107041131D01*
X161306040Y-107049998D01*
X161311716Y-107059468D01*
X161316436Y-107069448D01*
X161320156Y-107079843D01*
X161322838Y-107090552D01*
X161324458Y-107101473D01*
X161325000Y-107112500D01*
X161325000Y-107337500D01*
X161324458Y-107348527D01*
X161322838Y-107359448D01*
X161320156Y-107370157D01*
X161316436Y-107380552D01*
X161311716Y-107390532D01*
X161306040Y-107400002D01*
X161299464Y-107408869D01*
X161292050Y-107417050D01*
X161283869Y-107424464D01*
X161275002Y-107431040D01*
X161265532Y-107436716D01*
X161255552Y-107441436D01*
X161245157Y-107445156D01*
X161234448Y-107447838D01*
X161223527Y-107449458D01*
X161212500Y-107450000D01*
X160237500Y-107450000D01*
X160226473Y-107449458D01*
X160215552Y-107447838D01*
X160204843Y-107445156D01*
X160194448Y-107441436D01*
X160184468Y-107436716D01*
X160174998Y-107431040D01*
X160166131Y-107424464D01*
X160157950Y-107417050D01*
X160150536Y-107408869D01*
X160143960Y-107400002D01*
X160138284Y-107390532D01*
X160133564Y-107380552D01*
X160129844Y-107370157D01*
X160127162Y-107359448D01*
X160125542Y-107348527D01*
X160125000Y-107337500D01*
X160125000Y-107112500D01*
X160125542Y-107101473D01*
X160127162Y-107090552D01*
X160129844Y-107079843D01*
X160133564Y-107069448D01*
X160138284Y-107059468D01*
X160143960Y-107049998D01*
X160150536Y-107041131D01*
X160157950Y-107032950D01*
X160166131Y-107025536D01*
X160174998Y-107018960D01*
X160184468Y-107013284D01*
X160194448Y-107008564D01*
X160204843Y-107004844D01*
X160215552Y-107002162D01*
X160226473Y-107000542D01*
X160237500Y-107000000D01*
X161212500Y-107000000D01*
X161223527Y-107000542D01*
X161223527Y-107000542D01*
G37*
D16*
X160725000Y-107225000D03*
D10*
G36*
X161223527Y-107500542D02*
X161234448Y-107502162D01*
X161245157Y-107504844D01*
X161255552Y-107508564D01*
X161265532Y-107513284D01*
X161275002Y-107518960D01*
X161283869Y-107525536D01*
X161292050Y-107532950D01*
X161299464Y-107541131D01*
X161306040Y-107549998D01*
X161311716Y-107559468D01*
X161316436Y-107569448D01*
X161320156Y-107579843D01*
X161322838Y-107590552D01*
X161324458Y-107601473D01*
X161325000Y-107612500D01*
X161325000Y-107837500D01*
X161324458Y-107848527D01*
X161322838Y-107859448D01*
X161320156Y-107870157D01*
X161316436Y-107880552D01*
X161311716Y-107890532D01*
X161306040Y-107900002D01*
X161299464Y-107908869D01*
X161292050Y-107917050D01*
X161283869Y-107924464D01*
X161275002Y-107931040D01*
X161265532Y-107936716D01*
X161255552Y-107941436D01*
X161245157Y-107945156D01*
X161234448Y-107947838D01*
X161223527Y-107949458D01*
X161212500Y-107950000D01*
X160237500Y-107950000D01*
X160226473Y-107949458D01*
X160215552Y-107947838D01*
X160204843Y-107945156D01*
X160194448Y-107941436D01*
X160184468Y-107936716D01*
X160174998Y-107931040D01*
X160166131Y-107924464D01*
X160157950Y-107917050D01*
X160150536Y-107908869D01*
X160143960Y-107900002D01*
X160138284Y-107890532D01*
X160133564Y-107880552D01*
X160129844Y-107870157D01*
X160127162Y-107859448D01*
X160125542Y-107848527D01*
X160125000Y-107837500D01*
X160125000Y-107612500D01*
X160125542Y-107601473D01*
X160127162Y-107590552D01*
X160129844Y-107579843D01*
X160133564Y-107569448D01*
X160138284Y-107559468D01*
X160143960Y-107549998D01*
X160150536Y-107541131D01*
X160157950Y-107532950D01*
X160166131Y-107525536D01*
X160174998Y-107518960D01*
X160184468Y-107513284D01*
X160194448Y-107508564D01*
X160204843Y-107504844D01*
X160215552Y-107502162D01*
X160226473Y-107500542D01*
X160237500Y-107500000D01*
X161212500Y-107500000D01*
X161223527Y-107500542D01*
X161223527Y-107500542D01*
G37*
D16*
X160725000Y-107725000D03*
D17*
X133900000Y-81000000D03*
X127700000Y-81000000D03*
D18*
X162470000Y-107846000D03*
X162470000Y-106322000D03*
D19*
X140200000Y-84400000D03*
D20*
X140200000Y-86400000D03*
D21*
X159119000Y-104720000D03*
X160119000Y-104720000D03*
D22*
X114900000Y-85250000D03*
D23*
X114900000Y-85750000D03*
X114900000Y-86250000D03*
X114900000Y-86750000D03*
D24*
X114150000Y-87500000D03*
X113650000Y-87500000D03*
X113150000Y-87500000D03*
X112650000Y-87500000D03*
D23*
X111900000Y-86750000D03*
X111900000Y-86250000D03*
X111900000Y-85750000D03*
X111900000Y-85250000D03*
D24*
X112650000Y-84500000D03*
X113150000Y-84500000D03*
X113650000Y-84500000D03*
X114150000Y-84500000D03*
D19*
X113400000Y-86000000D03*
D25*
X110770000Y-76183600D03*
X110770000Y-79883600D03*
X104770000Y-76183600D03*
X104770000Y-79883600D03*
D26*
X103770000Y-75783600D03*
X103770000Y-80283600D03*
X111770000Y-75783600D03*
X111770000Y-80283600D03*
D27*
X108250000Y-72400000D03*
X104550000Y-72400000D03*
X108250000Y-66400000D03*
X104550000Y-66400000D03*
D28*
X108650000Y-65400000D03*
X104150000Y-65400000D03*
X108650000Y-73400000D03*
X104150000Y-73400000D03*
D29*
X125438000Y-87600000D03*
X126962000Y-87600000D03*
X111438000Y-66400000D03*
X112962000Y-66400000D03*
X109438000Y-58000000D03*
X110962000Y-58000000D03*
X139669000Y-66907700D03*
X138145000Y-66907700D03*
D18*
X118112000Y-74600400D03*
X118112000Y-73076400D03*
D29*
X112962000Y-69600000D03*
X111438000Y-69600000D03*
X110962000Y-51600000D03*
X109438000Y-51600000D03*
X109438000Y-56400000D03*
X110962000Y-56400000D03*
X109438000Y-54800000D03*
X110962000Y-54800000D03*
X138145000Y-68507700D03*
X139669000Y-68507700D03*
X139669000Y-70107700D03*
X138145000Y-70107700D03*
X132162000Y-84200000D03*
X130638000Y-84200000D03*
X110962000Y-53200000D03*
X109438000Y-53200000D03*
D18*
X143600000Y-107562000D03*
X143600000Y-106038000D03*
D29*
X129962000Y-52400000D03*
X128438000Y-52400000D03*
X118962000Y-52600000D03*
X117438000Y-52600000D03*
D18*
X108600000Y-90838000D03*
X108600000Y-92362000D03*
D29*
X137415000Y-96775000D03*
X138939000Y-96775000D03*
X121490000Y-100884000D03*
X123014000Y-100884000D03*
D18*
X111800000Y-90838000D03*
X111800000Y-92362000D03*
X131600000Y-104438000D03*
X131600000Y-105962000D03*
D29*
X123014000Y-102408000D03*
X121490000Y-102408000D03*
X133731000Y-86435000D03*
X135255000Y-86435000D03*
D18*
X130000000Y-104438000D03*
X130000000Y-105962000D03*
X143600000Y-110562000D03*
X143600000Y-109038000D03*
D29*
X112962000Y-68000000D03*
X111438000Y-68000000D03*
D18*
X133731000Y-104469000D03*
X133731000Y-105993000D03*
D29*
X131962000Y-89800000D03*
X130438000Y-89800000D03*
X133731000Y-84911000D03*
X135255000Y-84911000D03*
X133638000Y-89800000D03*
X135162000Y-89800000D03*
D18*
X126600000Y-104438000D03*
X126600000Y-105962000D03*
X113400000Y-90838000D03*
X113400000Y-92362000D03*
D29*
X138939000Y-99975000D03*
X137415000Y-99975000D03*
X125438000Y-89800000D03*
X126962000Y-89800000D03*
X138939000Y-98375000D03*
X137415000Y-98375000D03*
D18*
X110200000Y-92362000D03*
X110200000Y-90838000D03*
D29*
X123739000Y-98975000D03*
X122215000Y-98975000D03*
D18*
X121500000Y-108112000D03*
X121500000Y-106588000D03*
D29*
X123739000Y-97375000D03*
X122215000Y-97375000D03*
D30*
X157400300Y-61699460D03*
X157400300Y-60599640D03*
X157400300Y-59499820D03*
X157400300Y-58400000D03*
X157400300Y-57300180D03*
X157400300Y-56200360D03*
X157400300Y-55100540D03*
X157400300Y-54000720D03*
D31*
X151598940Y-65100520D03*
X159800600Y-65100520D03*
X151598940Y-51699480D03*
X159800600Y-51699480D03*
D19*
X167200000Y-58000000D03*
D20*
X169740000Y-58000000D03*
X172280000Y-58000000D03*
X174820000Y-58000000D03*
X177360000Y-58000000D03*
X179900000Y-58000000D03*
D32*
X119150000Y-109650000D03*
X108850000Y-109650000D03*
X119150000Y-105450000D03*
X108850000Y-105450000D03*
D33*
X116200000Y-103250000D03*
X111800000Y-103250000D03*
D34*
X115300000Y-105125000D03*
X114650000Y-105125000D03*
X114000000Y-105125000D03*
X113350000Y-105125000D03*
X112700000Y-105125000D03*
D35*
X121800000Y-77300000D03*
X120200000Y-77300000D03*
X118600000Y-77300000D03*
X121800000Y-82300000D03*
X120200000Y-82300000D03*
X118600000Y-82300000D03*
D36*
X116850000Y-69400000D03*
D37*
X116850000Y-68900000D03*
X116850000Y-68400000D03*
X116850000Y-67900000D03*
X116850000Y-67400000D03*
X116850000Y-66900000D03*
X116850000Y-66400000D03*
X116850000Y-65900000D03*
X116850000Y-65400000D03*
X116850000Y-64900000D03*
X116850000Y-64400000D03*
X116850000Y-63900000D03*
X116850000Y-63400000D03*
X116850000Y-62900000D03*
X116850000Y-62400000D03*
X116850000Y-61900000D03*
X116850000Y-61400000D03*
X116850000Y-60900000D03*
X116850000Y-60400000D03*
X116850000Y-59900000D03*
X116850000Y-59400000D03*
X116850000Y-58900000D03*
X116850000Y-58400000D03*
X116850000Y-57900000D03*
X116850000Y-57400000D03*
D38*
X118600000Y-55650000D03*
X119100000Y-55650000D03*
X119600000Y-55650000D03*
X120100000Y-55650000D03*
X120600000Y-55650000D03*
X121100000Y-55650000D03*
X121600000Y-55650000D03*
X122100000Y-55650000D03*
X122600000Y-55650000D03*
X123100000Y-55650000D03*
X123600000Y-55650000D03*
X124100000Y-55650000D03*
X124600000Y-55650000D03*
X125100000Y-55650000D03*
X125600000Y-55650000D03*
X126100000Y-55650000D03*
X126600000Y-55650000D03*
X127100000Y-55650000D03*
X127600000Y-55650000D03*
X128100000Y-55650000D03*
X128600000Y-55650000D03*
X129100000Y-55650000D03*
X129600000Y-55650000D03*
X130100000Y-55650000D03*
X130600000Y-55650000D03*
D37*
X132350000Y-57400000D03*
X132350000Y-57900000D03*
X132350000Y-58400000D03*
X132350000Y-58900000D03*
X132350000Y-59400000D03*
X132350000Y-59900000D03*
X132350000Y-60400000D03*
X132350000Y-60900000D03*
X132350000Y-61400000D03*
X132350000Y-61900000D03*
X132350000Y-62400000D03*
X132350000Y-62900000D03*
X132350000Y-63400000D03*
X132350000Y-63900000D03*
X132350000Y-64400000D03*
X132350000Y-64900000D03*
X132350000Y-65400000D03*
X132350000Y-65900000D03*
X132350000Y-66400000D03*
X132350000Y-66900000D03*
X132350000Y-67400000D03*
X132350000Y-67900000D03*
X132350000Y-68400000D03*
X132350000Y-68900000D03*
X132350000Y-69400000D03*
D38*
X130600000Y-71150000D03*
X130100000Y-71150000D03*
X129600000Y-71150000D03*
X129100000Y-71150000D03*
X128600000Y-71150000D03*
X128100000Y-71150000D03*
X127600000Y-71150000D03*
X127100000Y-71150000D03*
X126600000Y-71150000D03*
X126100000Y-71150000D03*
X125600000Y-71150000D03*
X125100000Y-71150000D03*
X124600000Y-71150000D03*
X124100000Y-71150000D03*
X123600000Y-71150000D03*
X123100000Y-71150000D03*
X122600000Y-71150000D03*
X122100000Y-71150000D03*
X121600000Y-71150000D03*
X121100000Y-71150000D03*
X120600000Y-71150000D03*
X120100000Y-71150000D03*
X119600000Y-71150000D03*
X119100000Y-71150000D03*
X118600000Y-71150000D03*
D39*
X182200000Y-60800000D03*
D40*
X110900180Y-64249120D03*
X110900180Y-60550880D03*
X113099820Y-60550880D03*
X113099820Y-64249120D03*
D41*
X118450000Y-97400000D03*
X119950000Y-97400000D03*
X112050000Y-71800000D03*
X113550000Y-71800000D03*
D42*
X145200000Y-110550000D03*
X145200000Y-109050000D03*
D41*
X103350000Y-63800000D03*
X101850000Y-63800000D03*
D42*
X120600000Y-85250000D03*
X120600000Y-86750000D03*
X123100000Y-106600000D03*
X123100000Y-108100000D03*
X145200000Y-107550000D03*
X145200000Y-106050000D03*
D41*
X119950000Y-99000000D03*
X118450000Y-99000000D03*
X113350000Y-89200000D03*
X111850000Y-89200000D03*
X124067000Y-92277000D03*
X122567000Y-92277000D03*
X137450000Y-94600000D03*
X138950000Y-94600000D03*
X131950000Y-88000000D03*
X130450000Y-88000000D03*
D42*
X135800000Y-105950000D03*
X135800000Y-104450000D03*
D41*
X139061000Y-90847000D03*
X140561000Y-90847000D03*
X140550000Y-92400000D03*
X139050000Y-92400000D03*
X139050000Y-89200000D03*
X140550000Y-89200000D03*
D42*
X128200000Y-104450000D03*
X128200000Y-105950000D03*
D41*
X122567000Y-93801000D03*
X124067000Y-93801000D03*
D43*
X120260000Y-88600000D03*
X118940000Y-88600000D03*
D21*
X114900000Y-90800000D03*
X115900000Y-90800000D03*
D29*
X122555000Y-95325000D03*
X124079000Y-95325000D03*
X111838000Y-73800000D03*
X113362000Y-73800000D03*
X133731000Y-87959000D03*
X135255000Y-87959000D03*
M02*
