M48
;DRILL file {KiCad (2017-02-02 revision 8dadc18)-makepkg} date 03/26/17 00:18:29
;FORMAT={-:-/ absolute / metric / decimal}
FMAT,2
METRIC,TZ
T1C0.300
T2C0.400
T3C0.800
T4C0.900
%
G90
G05
M71
T1
X100.85Y-65.85
X101.35Y-86.35
X101.35Y-89.05
X101.35Y-91.75
X101.35Y-94.45
X101.35Y-97.15
X101.35Y-99.85
X101.35Y-102.55
X101.35Y-105.25
X101.651Y-77.364
X102.106Y-71.477
X102.389Y-85.283
X102.551Y-68.637
X102.79Y-82.783
X102.791Y-74.34
X103.35Y-53.35
X103.35Y-97.35
X103.35Y-105.85
X103.35Y-108.55
X105.241Y-67.45
X105.341Y-71.127
X105.752Y-74.384
X106.05Y-105.85
X106.05Y-108.55
X106.335Y-83.553
X106.35Y-56.85
X106.45Y-69.257
X106.63Y-68.133
X106.702Y-89.645
X107.35Y-95.35
X107.85Y-62.85
X108.012Y-54.411
X108.06Y-56.269
X108.06Y-58.127
X108.107Y-52.767
X108.131Y-87.429
X109.33Y-88.777
X109.68Y-86.286
X109.771Y-61.064
X109.85Y-61.945
X110.35Y-101.35
X110.706Y-94.249
X110.96Y-71.821
X111.35Y-94.85
X111.368Y-81.54
X111.934Y-84.118
X111.95Y-104.699
X112.049Y-62.402
X112.058Y-63.735
X112.074Y-59.248
X112.85Y-54.35
X112.896Y-94.886
X113.098Y-58.898
X113.205Y-99.984
X113.248Y-101.946
X113.658Y-56.484
X113.85Y-51.35
X114.12Y-78.987
X114.266Y-94.826
X114.35Y-97.85
X114.354Y-88.558
X114.496Y-69.188
X114.845Y-60.3
X115.116Y-61.635
X115.183Y-52.505
X115.31Y-101.95
X115.663Y-77.644
X115.694Y-62.341
X115.709Y-59.849
X115.865Y-95.002
X115.932Y-89.535
X116.002Y-82.238
X116.012Y-80.237
X116.331Y-88.543
X116.35Y-55.388
X116.445Y-51.362
X116.645Y-87.548
X116.75Y-93.85
X116.85Y-100.85
X117.14Y-78.02
X117.15Y-77.009
X117.815Y-92.555
X117.884Y-83.656
X118.1Y-103.58
X118.224Y-54.578
X118.283Y-80.85
X118.327Y-59.206
X118.873Y-62.009
X119.09Y-101.318
X119.132Y-61.066
X119.256Y-73.725
X119.292Y-67.892
X119.362Y-68.799
X119.543Y-56.899
X119.648Y-107.35
X119.993Y-67.261
X120.012Y-75.849
X120.104Y-54.498
X120.253Y-83.75
X120.43Y-89.65
X120.595Y-95.009
X120.604Y-67.924
X120.926Y-75.733
X121.048Y-74.726
X121.066Y-68.771
X121.112Y-73.196
X121.249Y-80.913
X121.258Y-103.466
X121.299Y-110.473
X121.427Y-69.773
X121.512Y-53.921
X121.743Y-109.207
X121.85Y-83.63
X121.869Y-75.642
X122.087Y-53.088
X122.304Y-67.845
X122.35Y-104.35
X122.366Y-68.845
X122.595Y-91.123
X122.774Y-61.372
X123.268Y-68.78
X123.293Y-51.884
X123.362Y-58.318
X123.366Y-80.674
X123.411Y-72.621
X123.452Y-87.28
X123.552Y-60.835
X123.791Y-68.005
X123.837Y-65.254
X123.999Y-110.473
X124.004Y-66.172
X124.046Y-67.091
X124.18Y-75.102
X124.284Y-60.263
X124.293Y-58.44
X124.719Y-106.028
X124.752Y-76.069
X124.759Y-59.367
X124.85Y-101.35
X125.162Y-73.825
X125.31Y-76.941
X125.35Y-83.35
X125.737Y-102.717
X125.85Y-107.85
X126.158Y-53.733
X126.29Y-98.08
X126.392Y-97.077
X126.4Y-86.442
X126.646Y-94.133
X126.699Y-110.473
X127.023Y-75.987
X127.448Y-53.737
X127.47Y-85.584
X127.472Y-63.959
X127.652Y-73.141
X128.012Y-89.968
X128.09Y-68.708
X128.102Y-92.935
X128.467Y-54.007
X128.821Y-87.493
X128.844Y-93.459
X129.127Y-101.646
X129.16Y-61.074
X129.17Y-62.086
X129.193Y-92.204
X129.375Y-54.459
X129.399Y-74.538
X129.399Y-110.473
X129.498Y-88.207
X129.499Y-84.078
X129.745Y-79.301
X129.745Y-82.001
X129.956Y-60.472
X130.062Y-93.517
X130.245Y-86.324
X130.25Y-57.468
X130.297Y-67.343
X130.35Y-53.474
X130.533Y-66.443
X130.591Y-68.424
X130.597Y-85.32
X130.728Y-64.09
X130.827Y-77.738
X130.844Y-92.498
X130.895Y-101.502
X131.182Y-65.807
X131.199Y-64.898
X131.2Y-67.189
X131.223Y-69.075
X131.853Y-91.555
X131.878Y-70.134
X132.029Y-102.236
X132.099Y-110.473
X132.238Y-75.397
X132.353Y-92.489
X132.424Y-76.932
X132.823Y-70.129
X133.183Y-100.438
X133.241Y-102.249
X133.487Y-94.756
X133.6Y-58.088
X133.708Y-62.753
X133.731Y-91.569
X133.88Y-61.372
X134.131Y-63.738
X134.799Y-110.473
X134.819Y-97.6
X135.315Y-73.962
X135.508Y-76.071
X135.565Y-61.357
X135.582Y-98.889
X135.718Y-108.155
X135.774Y-99.865
X135.832Y-69.219
X135.854Y-77.473
X135.971Y-97.887
X136.058Y-88.993
X136.2Y-86.319
X136.85Y-56.85
X136.85Y-59.55
X136.932Y-63.94
X137.176Y-91.67
X137.214Y-67.708
X137.237Y-84.968
X137.499Y-110.473
X137.576Y-82.212
X137.782Y-104.633
X137.897Y-53.383
X138.041Y-71.3
X138.047Y-92.939
X138.222Y-106.823
X138.251Y-62.93
X138.368Y-73.211
X138.382Y-88.022
X139.124Y-87.33
X139.472Y-61.566
X139.55Y-56.85
X139.55Y-59.55
X139.558Y-79.257
X139.798Y-108.026
X139.877Y-71.166
X139.938Y-93.456
X140.199Y-110.473
X140.32Y-88.15
X140.462Y-103.837
X140.731Y-80.187
X140.789Y-63.3
X140.922Y-106.823
X141.561Y-90.575
X141.85Y-72.85
X141.85Y-75.55
X142.317Y-107.083
X142.364Y-110.823
X142.542Y-105.851
X143.35Y-56.85
X143.676Y-63.769
X146.05Y-56.85
X146.581Y-111.3
X146.696Y-110.101
X148.218Y-110.598
X148.452Y-103.851
X149.638Y-105.195
X151.758Y-108.718
X151.969Y-62.223
X152.306Y-58.785
X152.557Y-63.708
X153.55Y-64.75
X153.778Y-109.105
X153.892Y-56.156
X154.066Y-111.261
X154.75Y-64.75
X154.915Y-57.682
X155.205Y-104.558
X155.538Y-105.878
X155.95Y-64.75
X156.355Y-109.523
X156.599Y-107.55
X156.766Y-111.261
X157.15Y-64.75
X157.793Y-106.612
X158.264Y-104.651
X158.35Y-64.75
X158.701Y-61.743
X158.787Y-55.492
X158.988Y-56.469
X159.076Y-58.563
X159.466Y-111.261
X159.965Y-54.568
X160.535Y-105.931
X161.258Y-59.392
X161.258Y-60.292
X162.166Y-111.261
X163.277Y-105.04
X164.338Y-104.996
X164.35Y-61.85
X164.35Y-64.55
X164.866Y-111.261
X167.05Y-61.85
X167.05Y-64.55
X167.566Y-111.261
X167.831Y-108.393
X167.844Y-103.783
X168.35Y-51.35
X169.157Y-105.05
X169.75Y-61.85
X169.75Y-64.55
X170.266Y-111.261
X171.Y-107.882
X171.05Y-51.35
X172.45Y-61.85
X172.45Y-64.55
X172.966Y-111.261
X173.214Y-106.602
X173.303Y-60.379
X173.368Y-107.613
X173.75Y-51.35
X174.171Y-109.028
X174.173Y-104.83
X174.986Y-106.026
X175.15Y-61.85
X175.15Y-64.55
X175.469Y-108.704
X175.666Y-111.261
X176.08Y-55.158
X176.45Y-51.35
X176.581Y-103.024
X176.873Y-104.83
X177.85Y-61.85
X177.85Y-64.55
X178.366Y-111.261
X179.15Y-51.35
X179.281Y-103.024
X180.55Y-61.85
X180.55Y-64.55
X181.066Y-111.261
X181.756Y-104.578
X181.85Y-51.35
X181.981Y-103.024
X182.5Y-58.
X182.65Y-61.95
X183.766Y-111.261
X184.55Y-51.35
X184.681Y-103.024
X184.888Y-63.702
X185.539Y-60.904
X186.466Y-111.261
X186.791Y-57.786
X187.079Y-105.249
X187.381Y-103.024
X187.5Y-52.
X187.803Y-62.314
X188.02Y-108.114
X188.348Y-105.596
X188.713Y-109.063
X188.866Y-103.891
X189.081Y-109.965
X189.1Y-56.7
X189.1Y-57.5
X189.1Y-58.3
X189.166Y-111.261
X189.51Y-106.201
X189.774Y-54.447
X189.9Y-56.7
X189.9Y-57.5
X189.9Y-58.3
X190.081Y-103.024
X190.439Y-60.522
X190.7Y-56.7
X190.7Y-57.5
X190.7Y-58.3
X190.82Y-110.228
X191.177Y-66.132
X191.463Y-104.01
X191.652Y-53.946
X191.866Y-111.261
X192.Y-51.
X192.259Y-59.19
X192.535Y-110.132
X192.781Y-103.024
X193.011Y-66.108
X193.631Y-103.915
X194.25Y-105.01
X194.345Y-64.941
X194.441Y-109.846
X194.566Y-111.261
X195.Y-51.5
X195.124Y-54.566
X195.227Y-61.534
X195.481Y-103.024
X195.751Y-108.346
X195.775Y-106.773
X195.846Y-109.846
X197.Y-52.5
X197.266Y-111.261
X197.5Y-51.5
X198.Y-55.5
X198.181Y-103.024
X199.Y-55.
X201.15Y-51.75
X201.15Y-54.45
X201.15Y-62.55
X201.15Y-65.25
X201.15Y-67.95
X201.15Y-70.65
X201.15Y-73.35
X201.15Y-76.05
X201.15Y-78.75
X201.15Y-81.45
X201.15Y-84.15
X201.15Y-86.85
X201.15Y-89.55
X201.15Y-92.25
X201.15Y-94.95
X201.15Y-97.65
X201.15Y-100.35
X201.15Y-103.05
X201.15Y-105.75
X201.15Y-108.45
X201.15Y-111.15
T2
X128.802Y-96.086
X128.802Y-97.086
X128.802Y-98.086
X128.802Y-99.086
X129.802Y-96.086
X129.802Y-97.086
X129.802Y-98.086
X129.802Y-99.086
X130.802Y-96.086
X130.802Y-97.086
X130.802Y-98.086
X130.802Y-99.086
X131.802Y-96.086
X131.802Y-97.086
X131.802Y-98.086
X131.802Y-99.086
T3
X113.4Y-86.
X140.2Y-84.4
X140.2Y-86.4
T4
X167.2Y-58.
X169.74Y-58.
X172.28Y-58.
X174.82Y-58.
X177.36Y-58.
X179.9Y-58.
T0
M30
