  0
SECTION
  2
HEADER
  9
$ANGBASE
  50
0.0
  9
$ANGDIR
  70
  1
  9
$MEASUREMENT
  70
0
  0
ENDSEC
  0
SECTION
  2
TABLES
  0
TABLE
  2
LTYPE
  70
1
  0
LTYPE
  2
CONTINUOUS
  70
0
  3
Solid line
  72
65
  73
0
  40
0.0
  0
ENDTAB
  0
TABLE
  2
STYLE
  70
4
  0
STYLE
  2
KICAD
  70
0
  40
0
  41
1
  42
1
  50
0
  71
0
  3
isocp.shx
  0
STYLE
  2
KICADB
  70
0
  40
0
  41
1
  42
1
  50
0
  71
0
  3
isocp.shx
  0
STYLE
  2
KICADI
  70
0
  40
0
  41
1
  42
1
  50
15
  71
0
  3
isocp.shx
  0
STYLE
  2
KICADBI
  70
0
  40
0
  41
1
  42
1
  50
15
  71
0
  3
isocp.shx
  0
ENDTAB
  0
TABLE
  2
LAYER
  70
30
  0
LAYER
  2
BLACK
  70
0
  62
7
  6
CONTINUOUS
  0
LAYER
  2
GRAY1
  70
0
  62
251
  6
CONTINUOUS
  0
LAYER
  2
GRAY2
  70
0
  62
8
  6
CONTINUOUS
  0
LAYER
  2
GRAY3
  70
0
  62
9
  6
CONTINUOUS
  0
LAYER
  2
WHITE
  70
0
  62
7
  6
CONTINUOUS
  0
LAYER
  2
LYELLOW
  70
0
  62
51
  6
CONTINUOUS
  0
LAYER
  2
BLUE1
  70
0
  62
178
  6
CONTINUOUS
  0
LAYER
  2
GREEN1
  70
0
  62
98
  6
CONTINUOUS
  0
LAYER
  2
CYAN1
  70
0
  62
138
  6
CONTINUOUS
  0
LAYER
  2
RED1
  70
0
  62
18
  6
CONTINUOUS
  0
LAYER
  2
MAGENTA1
  70
0
  62
228
  6
CONTINUOUS
  0
LAYER
  2
BROWN1
  70
0
  62
58
  6
CONTINUOUS
  0
LAYER
  2
BLUE2
  70
0
  62
5
  6
CONTINUOUS
  0
LAYER
  2
GREEN2
  70
0
  62
3
  6
CONTINUOUS
  0
LAYER
  2
CYAN2
  70
0
  62
4
  6
CONTINUOUS
  0
LAYER
  2
RED2
  70
0
  62
1
  6
CONTINUOUS
  0
LAYER
  2
MAGENTA2
  70
0
  62
6
  6
CONTINUOUS
  0
LAYER
  2
BROWN2
  70
0
  62
54
  6
CONTINUOUS
  0
LAYER
  2
BLUE3
  70
0
  62
171
  6
CONTINUOUS
  0
LAYER
  2
GREEN3
  70
0
  62
91
  6
CONTINUOUS
  0
LAYER
  2
CYAN3
  70
0
  62
131
  6
CONTINUOUS
  0
LAYER
  2
RED3
  70
0
  62
11
  6
CONTINUOUS
  0
LAYER
  2
MAGENTA3
  70
0
  62
221
  6
CONTINUOUS
  0
LAYER
  2
YELLOW3
  70
0
  62
2
  6
CONTINUOUS
  0
LAYER
  2
BLUE4
  70
0
  62
5
  6
CONTINUOUS
  0
LAYER
  2
GREEN4
  70
0
  62
3
  6
CONTINUOUS
  0
LAYER
  2
CYAN4
  70
0
  62
4
  6
CONTINUOUS
  0
LAYER
  2
RED4
  70
0
  62
1
  6
CONTINUOUS
  0
LAYER
  2
MAGENTA4
  70
0
  62
6
  6
CONTINUOUS
  0
LAYER
  2
YELLOW4
  70
0
  62
2
  6
CONTINUOUS
  0
ENDTAB
  0
ENDSEC
  0
SECTION
  2
ENTITIES
0
LINE
8
Black
10
177.002
20
-166.007
11
177.002
21
-198.007
0
LINE
8
Black
10
177.002
20
-198.007
11
285.002
21
-198.007
0
LINE
8
Black
10
285.002
20
-198.007
11
285.002
21
-166.007
0
LINE
8
Black
10
285.002
20
-166.007
11
177.002
21
-166.007
0
LINE
8
Black
10
10
20
-10
11
10
21
-200.007
0
LINE
8
Black
10
10
20
-200.007
11
287.002
21
-200.007
0
LINE
8
Black
10
287.002
20
-200.007
11
287.002
21
-10
0
LINE
8
Black
10
287.002
20
-10
11
10
21
-10
0
LINE
8
Black
10
12
20
-12
11
12
21
-198.007
0
LINE
8
Black
10
12
20
-198.007
11
285.002
21
-198.007
0
LINE
8
Black
10
285.002
20
-198.007
11
285.002
21
-12
0
LINE
8
Black
10
285.002
20
-12
11
12
21
-12
0
LINE
8
Black
10
60
20
-12
11
60
21
-10
0
LINE
8
Black
10
110
20
-12
11
110
21
-10
0
LINE
8
Black
10
160
20
-12
11
160
21
-10
0
LINE
8
Black
10
210
20
-12
11
210
21
-10
0
LINE
8
Black
10
260
20
-12
11
260
21
-10
0
LINE
8
Black
10
36.0655
20
-11.5881
11
35.3226
21
-11.5881
0
LINE
8
Black
10
35.694
20
-11.5881
11
35.694
21
-10.2881
0
LINE
8
Black
10
35.694
20
-10.2881
11
35.5702
21
-10.4738
0
LINE
8
Black
10
35.5702
20
-10.4738
11
35.4464
21
-10.5976
0
LINE
8
Black
10
35.4464
20
-10.5976
11
35.3226
21
-10.6595
0
LINE
8
Black
10
85.3226
20
-10.4119
11
85.3845
21
-10.35
0
LINE
8
Black
10
85.3845
20
-10.35
11
85.5083
21
-10.2881
0
LINE
8
Black
10
85.5083
20
-10.2881
11
85.8179
21
-10.2881
0
LINE
8
Black
10
85.8179
20
-10.2881
11
85.9417
21
-10.35
0
LINE
8
Black
10
85.9417
20
-10.35
11
86.0036
21
-10.4119
0
LINE
8
Black
10
86.0036
20
-10.4119
11
86.0655
21
-10.5357
0
LINE
8
Black
10
86.0655
20
-10.5357
11
86.0655
21
-10.6595
0
LINE
8
Black
10
86.0655
20
-10.6595
11
86.0036
21
-10.8452
0
LINE
8
Black
10
86.0036
20
-10.8452
11
85.2607
21
-11.5881
0
LINE
8
Black
10
85.2607
20
-11.5881
11
86.0655
21
-11.5881
0
LINE
8
Black
10
135.261
20
-10.2881
11
136.065
21
-10.2881
0
LINE
8
Black
10
136.065
20
-10.2881
11
135.632
21
-10.7833
0
LINE
8
Black
10
135.632
20
-10.7833
11
135.818
21
-10.7833
0
LINE
8
Black
10
135.818
20
-10.7833
11
135.942
21
-10.8452
0
LINE
8
Black
10
135.942
20
-10.8452
11
136.004
21
-10.9071
0
LINE
8
Black
10
136.004
20
-10.9071
11
136.065
21
-11.031
0
LINE
8
Black
10
136.065
20
-11.031
11
136.065
21
-11.3405
0
LINE
8
Black
10
136.065
20
-11.3405
11
136.004
21
-11.4643
0
LINE
8
Black
10
136.004
20
-11.4643
11
135.942
21
-11.5262
0
LINE
8
Black
10
135.942
20
-11.5262
11
135.818
21
-11.5881
0
LINE
8
Black
10
135.818
20
-11.5881
11
135.446
21
-11.5881
0
LINE
8
Black
10
135.446
20
-11.5881
11
135.323
21
-11.5262
0
LINE
8
Black
10
135.323
20
-11.5262
11
135.261
21
-11.4643
0
LINE
8
Black
10
185.942
20
-10.7214
11
185.942
21
-11.5881
0
LINE
8
Black
10
185.632
20
-10.2262
11
185.323
21
-11.1548
0
LINE
8
Black
10
185.323
20
-11.1548
11
186.127
21
-11.1548
0
LINE
8
Black
10
236.004
20
-10.2881
11
235.385
21
-10.2881
0
LINE
8
Black
10
235.385
20
-10.2881
11
235.323
21
-10.9071
0
LINE
8
Black
10
235.323
20
-10.9071
11
235.385
21
-10.8452
0
LINE
8
Black
10
235.385
20
-10.8452
11
235.508
21
-10.7833
0
LINE
8
Black
10
235.508
20
-10.7833
11
235.818
21
-10.7833
0
LINE
8
Black
10
235.818
20
-10.7833
11
235.942
21
-10.8452
0
LINE
8
Black
10
235.942
20
-10.8452
11
236.004
21
-10.9071
0
LINE
8
Black
10
236.004
20
-10.9071
11
236.065
21
-11.031
0
LINE
8
Black
10
236.065
20
-11.031
11
236.065
21
-11.3405
0
LINE
8
Black
10
236.065
20
-11.3405
11
236.004
21
-11.4643
0
LINE
8
Black
10
236.004
20
-11.4643
11
235.942
21
-11.5262
0
LINE
8
Black
10
235.942
20
-11.5262
11
235.818
21
-11.5881
0
LINE
8
Black
10
235.818
20
-11.5881
11
235.508
21
-11.5881
0
LINE
8
Black
10
235.508
20
-11.5881
11
235.385
21
-11.5262
0
LINE
8
Black
10
235.385
20
-11.5262
11
235.323
21
-11.4643
0
LINE
8
Black
10
285.942
20
-10.2881
11
285.694
21
-10.2881
0
LINE
8
Black
10
285.694
20
-10.2881
11
285.57
21
-10.35
0
LINE
8
Black
10
285.57
20
-10.35
11
285.508
21
-10.4119
0
LINE
8
Black
10
285.508
20
-10.4119
11
285.385
21
-10.5976
0
LINE
8
Black
10
285.385
20
-10.5976
11
285.323
21
-10.8452
0
LINE
8
Black
10
285.323
20
-10.8452
11
285.323
21
-11.3405
0
LINE
8
Black
10
285.323
20
-11.3405
11
285.385
21
-11.4643
0
LINE
8
Black
10
285.385
20
-11.4643
11
285.446
21
-11.5262
0
LINE
8
Black
10
285.446
20
-11.5262
11
285.57
21
-11.5881
0
LINE
8
Black
10
285.57
20
-11.5881
11
285.818
21
-11.5881
0
LINE
8
Black
10
285.818
20
-11.5881
11
285.942
21
-11.5262
0
LINE
8
Black
10
285.942
20
-11.5262
11
286.004
21
-11.4643
0
LINE
8
Black
10
286.004
20
-11.4643
11
286.065
21
-11.3405
0
LINE
8
Black
10
286.065
20
-11.3405
11
286.065
21
-11.031
0
LINE
8
Black
10
286.065
20
-11.031
11
286.004
21
-10.9071
0
LINE
8
Black
10
286.004
20
-10.9071
11
285.942
21
-10.8452
0
LINE
8
Black
10
285.942
20
-10.8452
11
285.818
21
-10.7833
0
LINE
8
Black
10
285.818
20
-10.7833
11
285.57
21
-10.7833
0
LINE
8
Black
10
285.57
20
-10.7833
11
285.446
21
-10.8452
0
LINE
8
Black
10
285.446
20
-10.8452
11
285.385
21
-10.9071
0
LINE
8
Black
10
285.385
20
-10.9071
11
285.323
21
-11.031
0
LINE
8
Black
10
60
20
-198.007
11
60
21
-200.007
0
LINE
8
Black
10
110
20
-198.007
11
110
21
-200.007
0
LINE
8
Black
10
160
20
-198.007
11
160
21
-200.007
0
LINE
8
Black
10
210
20
-198.007
11
210
21
-200.007
0
LINE
8
Black
10
260
20
-198.007
11
260
21
-200.007
0
LINE
8
Black
10
36.0655
20
-199.595
11
35.3226
21
-199.595
0
LINE
8
Black
10
35.694
20
-199.595
11
35.694
21
-198.295
0
LINE
8
Black
10
35.694
20
-198.295
11
35.5702
21
-198.481
0
LINE
8
Black
10
35.5702
20
-198.481
11
35.4464
21
-198.605
0
LINE
8
Black
10
35.4464
20
-198.605
11
35.3226
21
-198.667
0
LINE
8
Black
10
85.3226
20
-198.419
11
85.3845
21
-198.357
0
LINE
8
Black
10
85.3845
20
-198.357
11
85.5083
21
-198.295
0
LINE
8
Black
10
85.5083
20
-198.295
11
85.8179
21
-198.295
0
LINE
8
Black
10
85.8179
20
-198.295
11
85.9417
21
-198.357
0
LINE
8
Black
10
85.9417
20
-198.357
11
86.0036
21
-198.419
0
LINE
8
Black
10
86.0036
20
-198.419
11
86.0655
21
-198.543
0
LINE
8
Black
10
86.0655
20
-198.543
11
86.0655
21
-198.667
0
LINE
8
Black
10
86.0655
20
-198.667
11
86.0036
21
-198.852
0
LINE
8
Black
10
86.0036
20
-198.852
11
85.2607
21
-199.595
0
LINE
8
Black
10
85.2607
20
-199.595
11
86.0655
21
-199.595
0
LINE
8
Black
10
135.261
20
-198.295
11
136.065
21
-198.295
0
LINE
8
Black
10
136.065
20
-198.295
11
135.632
21
-198.791
0
LINE
8
Black
10
135.632
20
-198.791
11
135.818
21
-198.791
0
LINE
8
Black
10
135.818
20
-198.791
11
135.942
21
-198.852
0
LINE
8
Black
10
135.942
20
-198.852
11
136.004
21
-198.914
0
LINE
8
Black
10
136.004
20
-198.914
11
136.065
21
-199.038
0
LINE
8
Black
10
136.065
20
-199.038
11
136.065
21
-199.348
0
LINE
8
Black
10
136.065
20
-199.348
11
136.004
21
-199.471
0
LINE
8
Black
10
136.004
20
-199.471
11
135.942
21
-199.533
0
LINE
8
Black
10
135.942
20
-199.533
11
135.818
21
-199.595
0
LINE
8
Black
10
135.818
20
-199.595
11
135.446
21
-199.595
0
LINE
8
Black
10
135.446
20
-199.595
11
135.323
21
-199.533
0
LINE
8
Black
10
135.323
20
-199.533
11
135.261
21
-199.471
0
LINE
8
Black
10
185.942
20
-198.729
11
185.942
21
-199.595
0
LINE
8
Black
10
185.632
20
-198.233
11
185.323
21
-199.162
0
LINE
8
Black
10
185.323
20
-199.162
11
186.127
21
-199.162
0
LINE
8
Black
10
236.004
20
-198.295
11
235.385
21
-198.295
0
LINE
8
Black
10
235.385
20
-198.295
11
235.323
21
-198.914
0
LINE
8
Black
10
235.323
20
-198.914
11
235.385
21
-198.852
0
LINE
8
Black
10
235.385
20
-198.852
11
235.508
21
-198.791
0
LINE
8
Black
10
235.508
20
-198.791
11
235.818
21
-198.791
0
LINE
8
Black
10
235.818
20
-198.791
11
235.942
21
-198.852
0
LINE
8
Black
10
235.942
20
-198.852
11
236.004
21
-198.914
0
LINE
8
Black
10
236.004
20
-198.914
11
236.065
21
-199.038
0
LINE
8
Black
10
236.065
20
-199.038
11
236.065
21
-199.348
0
LINE
8
Black
10
236.065
20
-199.348
11
236.004
21
-199.471
0
LINE
8
Black
10
236.004
20
-199.471
11
235.942
21
-199.533
0
LINE
8
Black
10
235.942
20
-199.533
11
235.818
21
-199.595
0
LINE
8
Black
10
235.818
20
-199.595
11
235.508
21
-199.595
0
LINE
8
Black
10
235.508
20
-199.595
11
235.385
21
-199.533
0
LINE
8
Black
10
235.385
20
-199.533
11
235.323
21
-199.471
0
LINE
8
Black
10
285.942
20
-198.295
11
285.694
21
-198.295
0
LINE
8
Black
10
285.694
20
-198.295
11
285.57
21
-198.357
0
LINE
8
Black
10
285.57
20
-198.357
11
285.508
21
-198.419
0
LINE
8
Black
10
285.508
20
-198.419
11
285.385
21
-198.605
0
LINE
8
Black
10
285.385
20
-198.605
11
285.323
21
-198.852
0
LINE
8
Black
10
285.323
20
-198.852
11
285.323
21
-199.348
0
LINE
8
Black
10
285.323
20
-199.348
11
285.385
21
-199.471
0
LINE
8
Black
10
285.385
20
-199.471
11
285.446
21
-199.533
0
LINE
8
Black
10
285.446
20
-199.533
11
285.57
21
-199.595
0
LINE
8
Black
10
285.57
20
-199.595
11
285.818
21
-199.595
0
LINE
8
Black
10
285.818
20
-199.595
11
285.942
21
-199.533
0
LINE
8
Black
10
285.942
20
-199.533
11
286.004
21
-199.471
0
LINE
8
Black
10
286.004
20
-199.471
11
286.065
21
-199.348
0
LINE
8
Black
10
286.065
20
-199.348
11
286.065
21
-199.038
0
LINE
8
Black
10
286.065
20
-199.038
11
286.004
21
-198.914
0
LINE
8
Black
10
286.004
20
-198.914
11
285.942
21
-198.852
0
LINE
8
Black
10
285.942
20
-198.852
11
285.818
21
-198.791
0
LINE
8
Black
10
285.818
20
-198.791
11
285.57
21
-198.791
0
LINE
8
Black
10
285.57
20
-198.791
11
285.446
21
-198.852
0
LINE
8
Black
10
285.446
20
-198.852
11
285.385
21
-198.914
0
LINE
8
Black
10
285.385
20
-198.914
11
285.323
21
-199.038
0
LINE
8
Black
10
10
20
-60
11
12
21
-60
0
LINE
8
Black
10
10
20
-110
11
12
21
-110
0
LINE
8
Black
10
10
20
-160
11
12
21
-160
0
LINE
8
Black
10
10.6905
20
-35.2167
11
11.3095
21
-35.2167
0
LINE
8
Black
10
10.5667
20
-35.5881
11
11
21
-34.2881
0
LINE
8
Black
10
11
20
-34.2881
11
11.4333
21
-35.5881
0
LINE
8
Black
10
11.0929
20
-84.9071
11
11.2786
21
-84.969
0
LINE
8
Black
10
11.2786
20
-84.969
11
11.3405
21
-85.031
0
LINE
8
Black
10
11.3405
20
-85.031
11
11.4024
21
-85.1548
0
LINE
8
Black
10
11.4024
20
-85.1548
11
11.4024
21
-85.3405
0
LINE
8
Black
10
11.4024
20
-85.3405
11
11.3405
21
-85.4643
0
LINE
8
Black
10
11.3405
20
-85.4643
11
11.2786
21
-85.5262
0
LINE
8
Black
10
11.2786
20
-85.5262
11
11.1548
21
-85.5881
0
LINE
8
Black
10
11.1548
20
-85.5881
11
10.6595
21
-85.5881
0
LINE
8
Black
10
10.6595
20
-85.5881
11
10.6595
21
-84.2881
0
LINE
8
Black
10
10.6595
20
-84.2881
11
11.0929
21
-84.2881
0
LINE
8
Black
10
11.0929
20
-84.2881
11
11.2167
21
-84.35
0
LINE
8
Black
10
11.2167
20
-84.35
11
11.2786
21
-84.4119
0
LINE
8
Black
10
11.2786
20
-84.4119
11
11.3405
21
-84.5357
0
LINE
8
Black
10
11.3405
20
-84.5357
11
11.3405
21
-84.6595
0
LINE
8
Black
10
11.3405
20
-84.6595
11
11.2786
21
-84.7833
0
LINE
8
Black
10
11.2786
20
-84.7833
11
11.2167
21
-84.8452
0
LINE
8
Black
10
11.2167
20
-84.8452
11
11.0929
21
-84.9071
0
LINE
8
Black
10
11.0929
20
-84.9071
11
10.6595
21
-84.9071
0
LINE
8
Black
10
11.4024
20
-135.464
11
11.3405
21
-135.526
0
LINE
8
Black
10
11.3405
20
-135.526
11
11.1548
21
-135.588
0
LINE
8
Black
10
11.1548
20
-135.588
11
11.031
21
-135.588
0
LINE
8
Black
10
11.031
20
-135.588
11
10.8452
21
-135.526
0
LINE
8
Black
10
10.8452
20
-135.526
11
10.7214
21
-135.402
0
LINE
8
Black
10
10.7214
20
-135.402
11
10.6595
21
-135.279
0
LINE
8
Black
10
10.6595
20
-135.279
11
10.5976
21
-135.031
0
LINE
8
Black
10
10.5976
20
-135.031
11
10.5976
21
-134.845
0
LINE
8
Black
10
10.5976
20
-134.845
11
10.6595
21
-134.598
0
LINE
8
Black
10
10.6595
20
-134.598
11
10.7214
21
-134.474
0
LINE
8
Black
10
10.7214
20
-134.474
11
10.8452
21
-134.35
0
LINE
8
Black
10
10.8452
20
-134.35
11
11.031
21
-134.288
0
LINE
8
Black
10
11.031
20
-134.288
11
11.1548
21
-134.288
0
LINE
8
Black
10
11.1548
20
-134.288
11
11.3405
21
-134.35
0
LINE
8
Black
10
11.3405
20
-134.35
11
11.4024
21
-134.412
0
LINE
8
Black
10
10.6595
20
-185.588
11
10.6595
21
-184.288
0
LINE
8
Black
10
10.6595
20
-184.288
11
10.969
21
-184.288
0
LINE
8
Black
10
10.969
20
-184.288
11
11.1548
21
-184.35
0
LINE
8
Black
10
11.1548
20
-184.35
11
11.2786
21
-184.474
0
LINE
8
Black
10
11.2786
20
-184.474
11
11.3405
21
-184.598
0
LINE
8
Black
10
11.3405
20
-184.598
11
11.4024
21
-184.845
0
LINE
8
Black
10
11.4024
20
-184.845
11
11.4024
21
-185.031
0
LINE
8
Black
10
11.4024
20
-185.031
11
11.3405
21
-185.279
0
LINE
8
Black
10
11.3405
20
-185.279
11
11.2786
21
-185.402
0
LINE
8
Black
10
11.2786
20
-185.402
11
11.1548
21
-185.526
0
LINE
8
Black
10
11.1548
20
-185.526
11
10.969
21
-185.588
0
LINE
8
Black
10
10.969
20
-185.588
11
10.6595
21
-185.588
0
LINE
8
Black
10
287.002
20
-60
11
285.002
21
-60
0
LINE
8
Black
10
287.002
20
-110
11
285.002
21
-110
0
LINE
8
Black
10
287.002
20
-160
11
285.002
21
-160
0
LINE
8
Black
10
285.693
20
-35.2167
11
286.312
21
-35.2167
0
LINE
8
Black
10
285.569
20
-35.5881
11
286.002
21
-34.2881
0
LINE
8
Black
10
286.002
20
-34.2881
11
286.436
21
-35.5881
0
LINE
8
Black
10
286.095
20
-84.9071
11
286.281
21
-84.969
0
LINE
8
Black
10
286.281
20
-84.969
11
286.343
21
-85.031
0
LINE
8
Black
10
286.343
20
-85.031
11
286.405
21
-85.1548
0
LINE
8
Black
10
286.405
20
-85.1548
11
286.405
21
-85.3405
0
LINE
8
Black
10
286.405
20
-85.3405
11
286.343
21
-85.4643
0
LINE
8
Black
10
286.343
20
-85.4643
11
286.281
21
-85.5262
0
LINE
8
Black
10
286.281
20
-85.5262
11
286.157
21
-85.5881
0
LINE
8
Black
10
286.157
20
-85.5881
11
285.662
21
-85.5881
0
LINE
8
Black
10
285.662
20
-85.5881
11
285.662
21
-84.2881
0
LINE
8
Black
10
285.662
20
-84.2881
11
286.095
21
-84.2881
0
LINE
8
Black
10
286.095
20
-84.2881
11
286.219
21
-84.35
0
LINE
8
Black
10
286.219
20
-84.35
11
286.281
21
-84.4119
0
LINE
8
Black
10
286.281
20
-84.4119
11
286.343
21
-84.5357
0
LINE
8
Black
10
286.343
20
-84.5357
11
286.343
21
-84.6595
0
LINE
8
Black
10
286.343
20
-84.6595
11
286.281
21
-84.7833
0
LINE
8
Black
10
286.281
20
-84.7833
11
286.219
21
-84.8452
0
LINE
8
Black
10
286.219
20
-84.8452
11
286.095
21
-84.9071
0
LINE
8
Black
10
286.095
20
-84.9071
11
285.662
21
-84.9071
0
LINE
8
Black
10
286.405
20
-135.464
11
286.343
21
-135.526
0
LINE
8
Black
10
286.343
20
-135.526
11
286.157
21
-135.588
0
LINE
8
Black
10
286.157
20
-135.588
11
286.033
21
-135.588
0
LINE
8
Black
10
286.033
20
-135.588
11
285.847
21
-135.526
0
LINE
8
Black
10
285.847
20
-135.526
11
285.724
21
-135.402
0
LINE
8
Black
10
285.724
20
-135.402
11
285.662
21
-135.279
0
LINE
8
Black
10
285.662
20
-135.279
11
285.6
21
-135.031
0
LINE
8
Black
10
285.6
20
-135.031
11
285.6
21
-134.845
0
LINE
8
Black
10
285.6
20
-134.845
11
285.662
21
-134.598
0
LINE
8
Black
10
285.662
20
-134.598
11
285.724
21
-134.474
0
LINE
8
Black
10
285.724
20
-134.474
11
285.847
21
-134.35
0
LINE
8
Black
10
285.847
20
-134.35
11
286.033
21
-134.288
0
LINE
8
Black
10
286.033
20
-134.288
11
286.157
21
-134.288
0
LINE
8
Black
10
286.157
20
-134.288
11
286.343
21
-134.35
0
LINE
8
Black
10
286.343
20
-134.35
11
286.405
21
-134.412
0
LINE
8
Black
10
285.662
20
-185.588
11
285.662
21
-184.288
0
LINE
8
Black
10
285.662
20
-184.288
11
285.971
21
-184.288
0
LINE
8
Black
10
285.971
20
-184.288
11
286.157
21
-184.35
0
LINE
8
Black
10
286.157
20
-184.35
11
286.281
21
-184.474
0
LINE
8
Black
10
286.281
20
-184.474
11
286.343
21
-184.598
0
LINE
8
Black
10
286.343
20
-184.598
11
286.405
21
-184.845
0
LINE
8
Black
10
286.405
20
-184.845
11
286.405
21
-185.031
0
LINE
8
Black
10
286.405
20
-185.031
11
286.343
21
-185.279
0
LINE
8
Black
10
286.343
20
-185.279
11
286.281
21
-185.402
0
LINE
8
Black
10
286.281
20
-185.402
11
286.157
21
-185.526
0
LINE
8
Black
10
286.157
20
-185.526
11
285.971
21
-185.588
0
LINE
8
Black
10
285.971
20
-185.588
11
285.662
21
-185.588
0
LINE
8
Black
10
200.434
20
-193.786
11
200.434
21
-192.286
0
LINE
8
Black
10
200.434
20
-192.286
11
200.791
21
-192.286
0
LINE
8
Black
10
200.791
20
-192.286
11
201.006
21
-192.357
0
LINE
8
Black
10
201.006
20
-192.357
11
201.149
21
-192.5
0
LINE
8
Black
10
201.149
20
-192.5
11
201.22
21
-192.643
0
LINE
8
Black
10
201.22
20
-192.643
11
201.291
21
-192.929
0
LINE
8
Black
10
201.291
20
-192.929
11
201.291
21
-193.143
0
LINE
8
Black
10
201.291
20
-193.143
11
201.22
21
-193.429
0
LINE
8
Black
10
201.22
20
-193.429
11
201.149
21
-193.571
0
LINE
8
Black
10
201.149
20
-193.571
11
201.006
21
-193.714
0
LINE
8
Black
10
201.006
20
-193.714
11
200.791
21
-193.786
0
LINE
8
Black
10
200.791
20
-193.786
11
200.434
21
-193.786
0
LINE
8
Black
10
202.577
20
-193.786
11
202.577
21
-193
0
LINE
8
Black
10
202.577
20
-193
11
202.506
21
-192.857
0
LINE
8
Black
10
202.506
20
-192.857
11
202.363
21
-192.786
0
LINE
8
Black
10
202.363
20
-192.786
11
202.077
21
-192.786
0
LINE
8
Black
10
202.077
20
-192.786
11
201.934
21
-192.857
0
LINE
8
Black
10
202.577
20
-193.714
11
202.434
21
-193.786
0
LINE
8
Black
10
202.434
20
-193.786
11
202.077
21
-193.786
0
LINE
8
Black
10
202.077
20
-193.786
11
201.934
21
-193.714
0
LINE
8
Black
10
201.934
20
-193.714
11
201.863
21
-193.571
0
LINE
8
Black
10
201.863
20
-193.571
11
201.863
21
-193.429
0
LINE
8
Black
10
201.863
20
-193.429
11
201.934
21
-193.286
0
LINE
8
Black
10
201.934
20
-193.286
11
202.077
21
-193.214
0
LINE
8
Black
10
202.077
20
-193.214
11
202.434
21
-193.214
0
LINE
8
Black
10
202.434
20
-193.214
11
202.577
21
-193.143
0
LINE
8
Black
10
203.077
20
-192.786
11
203.649
21
-192.786
0
LINE
8
Black
10
203.291
20
-192.286
11
203.291
21
-193.571
0
LINE
8
Black
10
203.291
20
-193.571
11
203.363
21
-193.714
0
LINE
8
Black
10
203.363
20
-193.714
11
203.506
21
-193.786
0
LINE
8
Black
10
203.506
20
-193.786
11
203.649
21
-193.786
0
LINE
8
Black
10
204.72
20
-193.714
11
204.577
21
-193.786
0
LINE
8
Black
10
204.577
20
-193.786
11
204.291
21
-193.786
0
LINE
8
Black
10
204.291
20
-193.786
11
204.149
21
-193.714
0
LINE
8
Black
10
204.149
20
-193.714
11
204.077
21
-193.571
0
LINE
8
Black
10
204.077
20
-193.571
11
204.077
21
-193
0
LINE
8
Black
10
204.077
20
-193
11
204.149
21
-192.857
0
LINE
8
Black
10
204.149
20
-192.857
11
204.291
21
-192.786
0
LINE
8
Black
10
204.291
20
-192.786
11
204.577
21
-192.786
0
LINE
8
Black
10
204.577
20
-192.786
11
204.72
21
-192.857
0
LINE
8
Black
10
204.72
20
-192.857
11
204.791
21
-193
0
LINE
8
Black
10
204.791
20
-193
11
204.791
21
-193.143
0
LINE
8
Black
10
204.791
20
-193.143
11
204.077
21
-193.286
0
LINE
8
Black
10
205.434
20
-193.643
11
205.506
21
-193.714
0
LINE
8
Black
10
205.506
20
-193.714
11
205.434
21
-193.786
0
LINE
8
Black
10
205.434
20
-193.786
11
205.363
21
-193.714
0
LINE
8
Black
10
205.363
20
-193.714
11
205.434
21
-193.643
0
LINE
8
Black
10
205.434
20
-193.643
11
205.434
21
-193.786
0
LINE
8
Black
10
205.434
20
-192.857
11
205.506
21
-192.929
0
LINE
8
Black
10
205.506
20
-192.929
11
205.434
21
-193
0
LINE
8
Black
10
205.434
20
-193
11
205.363
21
-192.929
0
LINE
8
Black
10
205.363
20
-192.929
11
205.434
21
-192.857
0
LINE
8
Black
10
205.434
20
-192.857
11
205.434
21
-193
0
LINE
8
Black
10
177.002
20
-194.507
11
285.002
21
-194.507
0
LINE
8
Black
10
178.434
20
-196.586
11
178.434
21
-195.086
0
LINE
8
Black
10
179.291
20
-196.586
11
178.649
21
-195.729
0
LINE
8
Black
10
179.291
20
-195.086
11
178.434
21
-195.943
0
LINE
8
Black
10
179.934
20
-196.586
11
179.934
21
-195.586
0
LINE
8
Black
10
179.934
20
-195.086
11
179.863
21
-195.157
0
LINE
8
Black
10
179.863
20
-195.157
11
179.934
21
-195.229
0
LINE
8
Black
10
179.934
20
-195.229
11
180.006
21
-195.157
0
LINE
8
Black
10
180.006
20
-195.157
11
179.934
21
-195.086
0
LINE
8
Black
10
179.934
20
-195.086
11
179.934
21
-195.229
0
LINE
8
Black
10
181.506
20
-196.443
11
181.434
21
-196.514
0
LINE
8
Black
10
181.434
20
-196.514
11
181.22
21
-196.586
0
LINE
8
Black
10
181.22
20
-196.586
11
181.077
21
-196.586
0
LINE
8
Black
10
181.077
20
-196.586
11
180.863
21
-196.514
0
LINE
8
Black
10
180.863
20
-196.514
11
180.72
21
-196.371
0
LINE
8
Black
10
180.72
20
-196.371
11
180.649
21
-196.229
0
LINE
8
Black
10
180.649
20
-196.229
11
180.577
21
-195.943
0
LINE
8
Black
10
180.577
20
-195.943
11
180.577
21
-195.729
0
LINE
8
Black
10
180.577
20
-195.729
11
180.649
21
-195.443
0
LINE
8
Black
10
180.649
20
-195.443
11
180.72
21
-195.3
0
LINE
8
Black
10
180.72
20
-195.3
11
180.863
21
-195.157
0
LINE
8
Black
10
180.863
20
-195.157
11
181.077
21
-195.086
0
LINE
8
Black
10
181.077
20
-195.086
11
181.22
21
-195.086
0
LINE
8
Black
10
181.22
20
-195.086
11
181.434
21
-195.157
0
LINE
8
Black
10
181.434
20
-195.157
11
181.506
21
-195.229
0
LINE
8
Black
10
182.791
20
-196.586
11
182.791
21
-195.8
0
LINE
8
Black
10
182.791
20
-195.8
11
182.72
21
-195.657
0
LINE
8
Black
10
182.72
20
-195.657
11
182.577
21
-195.586
0
LINE
8
Black
10
182.577
20
-195.586
11
182.291
21
-195.586
0
LINE
8
Black
10
182.291
20
-195.586
11
182.149
21
-195.657
0
LINE
8
Black
10
182.791
20
-196.514
11
182.649
21
-196.586
0
LINE
8
Black
10
182.649
20
-196.586
11
182.291
21
-196.586
0
LINE
8
Black
10
182.291
20
-196.586
11
182.149
21
-196.514
0
LINE
8
Black
10
182.149
20
-196.514
11
182.077
21
-196.371
0
LINE
8
Black
10
182.077
20
-196.371
11
182.077
21
-196.229
0
LINE
8
Black
10
182.077
20
-196.229
11
182.149
21
-196.086
0
LINE
8
Black
10
182.149
20
-196.086
11
182.291
21
-196.014
0
LINE
8
Black
10
182.291
20
-196.014
11
182.649
21
-196.014
0
LINE
8
Black
10
182.649
20
-196.014
11
182.791
21
-195.943
0
LINE
8
Black
10
184.149
20
-196.586
11
184.149
21
-195.086
0
LINE
8
Black
10
184.149
20
-196.514
11
184.006
21
-196.586
0
LINE
8
Black
10
184.006
20
-196.586
11
183.72
21
-196.586
0
LINE
8
Black
10
183.72
20
-196.586
11
183.577
21
-196.514
0
LINE
8
Black
10
183.577
20
-196.514
11
183.506
21
-196.443
0
LINE
8
Black
10
183.506
20
-196.443
11
183.434
21
-196.3
0
LINE
8
Black
10
183.434
20
-196.3
11
183.434
21
-195.871
0
LINE
8
Black
10
183.434
20
-195.871
11
183.506
21
-195.729
0
LINE
8
Black
10
183.506
20
-195.729
11
183.577
21
-195.657
0
LINE
8
Black
10
183.577
20
-195.657
11
183.72
21
-195.586
0
LINE
8
Black
10
183.72
20
-195.586
11
184.006
21
-195.586
0
LINE
8
Black
10
184.006
20
-195.586
11
184.149
21
-195.657
0
LINE
8
Black
10
186.006
20
-195.8
11
186.506
21
-195.8
0
LINE
8
Black
10
186.72
20
-196.586
11
186.006
21
-196.586
0
LINE
8
Black
10
186.006
20
-196.586
11
186.006
21
-195.086
0
LINE
8
Black
10
186.006
20
-195.086
11
186.72
21
-195.086
0
LINE
8
Black
10
187.363
20
-196.443
11
187.434
21
-196.514
0
LINE
8
Black
10
187.434
20
-196.514
11
187.363
21
-196.586
0
LINE
8
Black
10
187.363
20
-196.586
11
187.291
21
-196.514
0
LINE
8
Black
10
187.291
20
-196.514
11
187.363
21
-196.443
0
LINE
8
Black
10
187.363
20
-196.443
11
187.363
21
-196.586
0
LINE
8
Black
10
188.077
20
-196.586
11
188.077
21
-195.086
0
LINE
8
Black
10
188.077
20
-195.086
11
188.434
21
-195.086
0
LINE
8
Black
10
188.434
20
-195.086
11
188.649
21
-195.157
0
LINE
8
Black
10
188.649
20
-195.157
11
188.791
21
-195.3
0
LINE
8
Black
10
188.791
20
-195.3
11
188.863
21
-195.443
0
LINE
8
Black
10
188.863
20
-195.443
11
188.934
21
-195.729
0
LINE
8
Black
10
188.934
20
-195.729
11
188.934
21
-195.943
0
LINE
8
Black
10
188.934
20
-195.943
11
188.863
21
-196.229
0
LINE
8
Black
10
188.863
20
-196.229
11
188.791
21
-196.371
0
LINE
8
Black
10
188.791
20
-196.371
11
188.649
21
-196.514
0
LINE
8
Black
10
188.649
20
-196.514
11
188.434
21
-196.586
0
LINE
8
Black
10
188.434
20
-196.586
11
188.077
21
-196.586
0
LINE
8
Black
10
189.577
20
-196.443
11
189.649
21
-196.514
0
LINE
8
Black
10
189.649
20
-196.514
11
189.577
21
-196.586
0
LINE
8
Black
10
189.577
20
-196.586
11
189.506
21
-196.514
0
LINE
8
Black
10
189.506
20
-196.514
11
189.577
21
-196.443
0
LINE
8
Black
10
189.577
20
-196.443
11
189.577
21
-196.586
0
LINE
8
Black
10
190.22
20
-196.157
11
190.934
21
-196.157
0
LINE
8
Black
10
190.077
20
-196.586
11
190.577
21
-195.086
0
LINE
8
Black
10
190.577
20
-195.086
11
191.077
21
-196.586
0
LINE
8
Black
10
191.577
20
-196.443
11
191.649
21
-196.514
0
LINE
8
Black
10
191.649
20
-196.514
11
191.577
21
-196.586
0
LINE
8
Black
10
191.577
20
-196.586
11
191.506
21
-196.514
0
LINE
8
Black
10
191.506
20
-196.514
11
191.577
21
-196.443
0
LINE
8
Black
10
191.577
20
-196.443
11
191.577
21
-196.586
0
LINE
8
Black
10
194.577
20
-196.586
11
194.577
21
-195.086
0
LINE
8
Black
10
194.72
20
-196.014
11
195.149
21
-196.586
0
LINE
8
Black
10
195.149
20
-195.586
11
194.577
21
-196.157
0
LINE
8
Black
10
195.791
20
-196.586
11
195.791
21
-195.586
0
LINE
8
Black
10
195.791
20
-195.086
11
195.72
21
-195.157
0
LINE
8
Black
10
195.72
20
-195.157
11
195.791
21
-195.229
0
LINE
8
Black
10
195.791
20
-195.229
11
195.863
21
-195.157
0
LINE
8
Black
10
195.863
20
-195.157
11
195.791
21
-195.086
0
LINE
8
Black
10
195.791
20
-195.086
11
195.791
21
-195.229
0
LINE
8
Black
10
197.149
20
-196.514
11
197.006
21
-196.586
0
LINE
8
Black
10
197.006
20
-196.586
11
196.72
21
-196.586
0
LINE
8
Black
10
196.72
20
-196.586
11
196.577
21
-196.514
0
LINE
8
Black
10
196.577
20
-196.514
11
196.506
21
-196.443
0
LINE
8
Black
10
196.506
20
-196.443
11
196.434
21
-196.3
0
LINE
8
Black
10
196.434
20
-196.3
11
196.434
21
-195.871
0
LINE
8
Black
10
196.434
20
-195.871
11
196.506
21
-195.729
0
LINE
8
Black
10
196.506
20
-195.729
11
196.577
21
-195.657
0
LINE
8
Black
10
196.577
20
-195.657
11
196.72
21
-195.586
0
LINE
8
Black
10
196.72
20
-195.586
11
197.006
21
-195.586
0
LINE
8
Black
10
197.006
20
-195.586
11
197.149
21
-195.657
0
LINE
8
Black
10
198.434
20
-196.586
11
198.434
21
-195.8
0
LINE
8
Black
10
198.434
20
-195.8
11
198.363
21
-195.657
0
LINE
8
Black
10
198.363
20
-195.657
11
198.22
21
-195.586
0
LINE
8
Black
10
198.22
20
-195.586
11
197.934
21
-195.586
0
LINE
8
Black
10
197.934
20
-195.586
11
197.791
21
-195.657
0
LINE
8
Black
10
198.434
20
-196.514
11
198.291
21
-196.586
0
LINE
8
Black
10
198.291
20
-196.586
11
197.934
21
-196.586
0
LINE
8
Black
10
197.934
20
-196.586
11
197.791
21
-196.514
0
LINE
8
Black
10
197.791
20
-196.514
11
197.72
21
-196.371
0
LINE
8
Black
10
197.72
20
-196.371
11
197.72
21
-196.229
0
LINE
8
Black
10
197.72
20
-196.229
11
197.791
21
-196.086
0
LINE
8
Black
10
197.791
20
-196.086
11
197.934
21
-196.014
0
LINE
8
Black
10
197.934
20
-196.014
11
198.291
21
-196.014
0
LINE
8
Black
10
198.291
20
-196.014
11
198.434
21
-195.943
0
LINE
8
Black
10
199.791
20
-196.586
11
199.791
21
-195.086
0
LINE
8
Black
10
199.791
20
-196.514
11
199.649
21
-196.586
0
LINE
8
Black
10
199.649
20
-196.586
11
199.363
21
-196.586
0
LINE
8
Black
10
199.363
20
-196.586
11
199.22
21
-196.514
0
LINE
8
Black
10
199.22
20
-196.514
11
199.149
21
-196.443
0
LINE
8
Black
10
199.149
20
-196.443
11
199.077
21
-196.3
0
LINE
8
Black
10
199.077
20
-196.3
11
199.077
21
-195.871
0
LINE
8
Black
10
199.077
20
-195.871
11
199.149
21
-195.729
0
LINE
8
Black
10
199.149
20
-195.729
11
199.22
21
-195.657
0
LINE
8
Black
10
199.22
20
-195.657
11
199.363
21
-195.586
0
LINE
8
Black
10
199.363
20
-195.586
11
199.649
21
-195.586
0
LINE
8
Black
10
199.649
20
-195.586
11
199.791
21
-195.657
0
LINE
8
Black
10
202.077
20
-197.157
11
202.006
21
-197.086
0
LINE
8
Black
10
202.006
20
-197.086
11
201.863
21
-196.871
0
LINE
8
Black
10
201.863
20
-196.871
11
201.791
21
-196.729
0
LINE
8
Black
10
201.791
20
-196.729
11
201.72
21
-196.514
0
LINE
8
Black
10
201.72
20
-196.514
11
201.649
21
-196.157
0
LINE
8
Black
10
201.649
20
-196.157
11
201.649
21
-195.871
0
LINE
8
Black
10
201.649
20
-195.871
11
201.72
21
-195.514
0
LINE
8
Black
10
201.72
20
-195.514
11
201.791
21
-195.3
0
LINE
8
Black
10
201.791
20
-195.3
11
201.863
21
-195.157
0
LINE
8
Black
10
201.863
20
-195.157
11
202.006
21
-194.943
0
LINE
8
Black
10
202.006
20
-194.943
11
202.077
21
-194.871
0
LINE
8
Black
10
202.577
20
-195.229
11
202.649
21
-195.157
0
LINE
8
Black
10
202.649
20
-195.157
11
202.791
21
-195.086
0
LINE
8
Black
10
202.791
20
-195.086
11
203.149
21
-195.086
0
LINE
8
Black
10
203.149
20
-195.086
11
203.291
21
-195.157
0
LINE
8
Black
10
203.291
20
-195.157
11
203.363
21
-195.229
0
LINE
8
Black
10
203.363
20
-195.229
11
203.434
21
-195.371
0
LINE
8
Black
10
203.434
20
-195.371
11
203.434
21
-195.514
0
LINE
8
Black
10
203.434
20
-195.514
11
203.363
21
-195.729
0
LINE
8
Black
10
203.363
20
-195.729
11
202.506
21
-196.586
0
LINE
8
Black
10
202.506
20
-196.586
11
203.434
21
-196.586
0
LINE
8
Black
10
204.363
20
-195.086
11
204.506
21
-195.086
0
LINE
8
Black
10
204.506
20
-195.086
11
204.649
21
-195.157
0
LINE
8
Black
10
204.649
20
-195.157
11
204.72
21
-195.229
0
LINE
8
Black
10
204.72
20
-195.229
11
204.791
21
-195.371
0
LINE
8
Black
10
204.791
20
-195.371
11
204.863
21
-195.657
0
LINE
8
Black
10
204.863
20
-195.657
11
204.863
21
-196.014
0
LINE
8
Black
10
204.863
20
-196.014
11
204.791
21
-196.3
0
LINE
8
Black
10
204.791
20
-196.3
11
204.72
21
-196.443
0
LINE
8
Black
10
204.72
20
-196.443
11
204.649
21
-196.514
0
LINE
8
Black
10
204.649
20
-196.514
11
204.506
21
-196.586
0
LINE
8
Black
10
204.506
20
-196.586
11
204.363
21
-196.586
0
LINE
8
Black
10
204.363
20
-196.586
11
204.22
21
-196.514
0
LINE
8
Black
10
204.22
20
-196.514
11
204.149
21
-196.443
0
LINE
8
Black
10
204.149
20
-196.443
11
204.077
21
-196.3
0
LINE
8
Black
10
204.077
20
-196.3
11
204.006
21
-196.014
0
LINE
8
Black
10
204.006
20
-196.014
11
204.006
21
-195.657
0
LINE
8
Black
10
204.006
20
-195.657
11
204.077
21
-195.371
0
LINE
8
Black
10
204.077
20
-195.371
11
204.149
21
-195.229
0
LINE
8
Black
10
204.149
20
-195.229
11
204.22
21
-195.157
0
LINE
8
Black
10
204.22
20
-195.157
11
204.363
21
-195.086
0
LINE
8
Black
10
206.291
20
-196.586
11
205.434
21
-196.586
0
LINE
8
Black
10
205.863
20
-196.586
11
205.863
21
-195.086
0
LINE
8
Black
10
205.863
20
-195.086
11
205.72
21
-195.3
0
LINE
8
Black
10
205.72
20
-195.3
11
205.577
21
-195.443
0
LINE
8
Black
10
205.577
20
-195.443
11
205.434
21
-195.514
0
LINE
8
Black
10
206.791
20
-195.086
11
207.791
21
-195.086
0
LINE
8
Black
10
207.791
20
-195.086
11
207.149
21
-196.586
0
LINE
8
Black
10
208.363
20
-196.014
11
209.506
21
-196.014
0
LINE
8
Black
10
210.506
20
-195.086
11
210.649
21
-195.086
0
LINE
8
Black
10
210.649
20
-195.086
11
210.791
21
-195.157
0
LINE
8
Black
10
210.791
20
-195.157
11
210.863
21
-195.229
0
LINE
8
Black
10
210.863
20
-195.229
11
210.934
21
-195.371
0
LINE
8
Black
10
210.934
20
-195.371
11
211.006
21
-195.657
0
LINE
8
Black
10
211.006
20
-195.657
11
211.006
21
-196.014
0
LINE
8
Black
10
211.006
20
-196.014
11
210.934
21
-196.3
0
LINE
8
Black
10
210.934
20
-196.3
11
210.863
21
-196.443
0
LINE
8
Black
10
210.863
20
-196.443
11
210.791
21
-196.514
0
LINE
8
Black
10
210.791
20
-196.514
11
210.649
21
-196.586
0
LINE
8
Black
10
210.649
20
-196.586
11
210.506
21
-196.586
0
LINE
8
Black
10
210.506
20
-196.586
11
210.363
21
-196.514
0
LINE
8
Black
10
210.363
20
-196.514
11
210.291
21
-196.443
0
LINE
8
Black
10
210.291
20
-196.443
11
210.22
21
-196.3
0
LINE
8
Black
10
210.22
20
-196.3
11
210.149
21
-196.014
0
LINE
8
Black
10
210.149
20
-196.014
11
210.149
21
-195.657
0
LINE
8
Black
10
210.149
20
-195.657
11
210.22
21
-195.371
0
LINE
8
Black
10
210.22
20
-195.371
11
210.291
21
-195.229
0
LINE
8
Black
10
210.291
20
-195.229
11
210.363
21
-195.157
0
LINE
8
Black
10
210.363
20
-195.157
11
210.506
21
-195.086
0
LINE
8
Black
10
211.577
20
-195.229
11
211.649
21
-195.157
0
LINE
8
Black
10
211.649
20
-195.157
11
211.791
21
-195.086
0
LINE
8
Black
10
211.791
20
-195.086
11
212.149
21
-195.086
0
LINE
8
Black
10
212.149
20
-195.086
11
212.291
21
-195.157
0
LINE
8
Black
10
212.291
20
-195.157
11
212.363
21
-195.229
0
LINE
8
Black
10
212.363
20
-195.229
11
212.434
21
-195.371
0
LINE
8
Black
10
212.434
20
-195.371
11
212.434
21
-195.514
0
LINE
8
Black
10
212.434
20
-195.514
11
212.363
21
-195.729
0
LINE
8
Black
10
212.363
20
-195.729
11
211.506
21
-196.586
0
LINE
8
Black
10
211.506
20
-196.586
11
212.434
21
-196.586
0
LINE
8
Black
10
213.077
20
-196.014
11
214.22
21
-196.014
0
LINE
8
Black
10
215.22
20
-195.086
11
215.363
21
-195.086
0
LINE
8
Black
10
215.363
20
-195.086
11
215.506
21
-195.157
0
LINE
8
Black
10
215.506
20
-195.157
11
215.577
21
-195.229
0
LINE
8
Black
10
215.577
20
-195.229
11
215.649
21
-195.371
0
LINE
8
Black
10
215.649
20
-195.371
11
215.72
21
-195.657
0
LINE
8
Black
10
215.72
20
-195.657
11
215.72
21
-196.014
0
LINE
8
Black
10
215.72
20
-196.014
11
215.649
21
-196.3
0
LINE
8
Black
10
215.649
20
-196.3
11
215.577
21
-196.443
0
LINE
8
Black
10
215.577
20
-196.443
11
215.506
21
-196.514
0
LINE
8
Black
10
215.506
20
-196.514
11
215.363
21
-196.586
0
LINE
8
Black
10
215.363
20
-196.586
11
215.22
21
-196.586
0
LINE
8
Black
10
215.22
20
-196.586
11
215.077
21
-196.514
0
LINE
8
Black
10
215.077
20
-196.514
11
215.006
21
-196.443
0
LINE
8
Black
10
215.006
20
-196.443
11
214.934
21
-196.3
0
LINE
8
Black
10
214.934
20
-196.3
11
214.863
21
-196.014
0
LINE
8
Black
10
214.863
20
-196.014
11
214.863
21
-195.657
0
LINE
8
Black
10
214.863
20
-195.657
11
214.934
21
-195.371
0
LINE
8
Black
10
214.934
20
-195.371
11
215.006
21
-195.229
0
LINE
8
Black
10
215.006
20
-195.229
11
215.077
21
-195.157
0
LINE
8
Black
10
215.077
20
-195.157
11
215.22
21
-195.086
0
LINE
8
Black
10
216.291
20
-195.229
11
216.363
21
-195.157
0
LINE
8
Black
10
216.363
20
-195.157
11
216.506
21
-195.086
0
LINE
8
Black
10
216.506
20
-195.086
11
216.863
21
-195.086
0
LINE
8
Black
10
216.863
20
-195.086
11
217.006
21
-195.157
0
LINE
8
Black
10
217.006
20
-195.157
11
217.077
21
-195.229
0
LINE
8
Black
10
217.077
20
-195.229
11
217.149
21
-195.371
0
LINE
8
Black
10
217.149
20
-195.371
11
217.149
21
-195.514
0
LINE
8
Black
10
217.149
20
-195.514
11
217.077
21
-195.729
0
LINE
8
Black
10
217.077
20
-195.729
11
216.22
21
-196.586
0
LINE
8
Black
10
216.22
20
-196.586
11
217.149
21
-196.586
0
LINE
8
Black
10
218.934
20
-196.586
11
218.934
21
-195.586
0
LINE
8
Black
10
218.934
20
-195.871
11
219.006
21
-195.729
0
LINE
8
Black
10
219.006
20
-195.729
11
219.077
21
-195.657
0
LINE
8
Black
10
219.077
20
-195.657
11
219.22
21
-195.586
0
LINE
8
Black
10
219.22
20
-195.586
11
219.363
21
-195.586
0
LINE
8
Black
10
220.434
20
-196.514
11
220.291
21
-196.586
0
LINE
8
Black
10
220.291
20
-196.586
11
220.006
21
-196.586
0
LINE
8
Black
10
220.006
20
-196.586
11
219.863
21
-196.514
0
LINE
8
Black
10
219.863
20
-196.514
11
219.791
21
-196.371
0
LINE
8
Black
10
219.791
20
-196.371
11
219.791
21
-195.8
0
LINE
8
Black
10
219.791
20
-195.8
11
219.863
21
-195.657
0
LINE
8
Black
10
219.863
20
-195.657
11
220.006
21
-195.586
0
LINE
8
Black
10
220.006
20
-195.586
11
220.291
21
-195.586
0
LINE
8
Black
10
220.291
20
-195.586
11
220.434
21
-195.657
0
LINE
8
Black
10
220.434
20
-195.657
11
220.506
21
-195.8
0
LINE
8
Black
10
220.506
20
-195.8
11
220.506
21
-195.943
0
LINE
8
Black
10
220.506
20
-195.943
11
219.791
21
-196.086
0
LINE
8
Black
10
221.006
20
-195.586
11
221.363
21
-196.586
0
LINE
8
Black
10
221.363
20
-196.586
11
221.72
21
-195.586
0
LINE
8
Black
10
222.291
20
-196.586
11
222.291
21
-195.586
0
LINE
8
Black
10
222.291
20
-195.086
11
222.22
21
-195.157
0
LINE
8
Black
10
222.22
20
-195.157
11
222.291
21
-195.229
0
LINE
8
Black
10
222.291
20
-195.229
11
222.363
21
-195.157
0
LINE
8
Black
10
222.363
20
-195.157
11
222.291
21
-195.086
0
LINE
8
Black
10
222.291
20
-195.086
11
222.291
21
-195.229
0
LINE
8
Black
10
222.934
20
-196.514
11
223.077
21
-196.586
0
LINE
8
Black
10
223.077
20
-196.586
11
223.363
21
-196.586
0
LINE
8
Black
10
223.363
20
-196.586
11
223.506
21
-196.514
0
LINE
8
Black
10
223.506
20
-196.514
11
223.577
21
-196.371
0
LINE
8
Black
10
223.577
20
-196.371
11
223.577
21
-196.3
0
LINE
8
Black
10
223.577
20
-196.3
11
223.506
21
-196.157
0
LINE
8
Black
10
223.506
20
-196.157
11
223.363
21
-196.086
0
LINE
8
Black
10
223.363
20
-196.086
11
223.149
21
-196.086
0
LINE
8
Black
10
223.149
20
-196.086
11
223.006
21
-196.014
0
LINE
8
Black
10
223.006
20
-196.014
11
222.934
21
-195.871
0
LINE
8
Black
10
222.934
20
-195.871
11
222.934
21
-195.8
0
LINE
8
Black
10
222.934
20
-195.8
11
223.006
21
-195.657
0
LINE
8
Black
10
223.006
20
-195.657
11
223.149
21
-195.586
0
LINE
8
Black
10
223.149
20
-195.586
11
223.363
21
-195.586
0
LINE
8
Black
10
223.363
20
-195.586
11
223.506
21
-195.657
0
LINE
8
Black
10
224.22
20
-196.586
11
224.22
21
-195.586
0
LINE
8
Black
10
224.22
20
-195.086
11
224.149
21
-195.157
0
LINE
8
Black
10
224.149
20
-195.157
11
224.22
21
-195.229
0
LINE
8
Black
10
224.22
20
-195.229
11
224.291
21
-195.157
0
LINE
8
Black
10
224.291
20
-195.157
11
224.22
21
-195.086
0
LINE
8
Black
10
224.22
20
-195.086
11
224.22
21
-195.229
0
LINE
8
Black
10
225.149
20
-196.586
11
225.006
21
-196.514
0
LINE
8
Black
10
225.006
20
-196.514
11
224.934
21
-196.443
0
LINE
8
Black
10
224.934
20
-196.443
11
224.863
21
-196.3
0
LINE
8
Black
10
224.863
20
-196.3
11
224.863
21
-195.871
0
LINE
8
Black
10
224.863
20
-195.871
11
224.934
21
-195.729
0
LINE
8
Black
10
224.934
20
-195.729
11
225.006
21
-195.657
0
LINE
8
Black
10
225.006
20
-195.657
11
225.149
21
-195.586
0
LINE
8
Black
10
225.149
20
-195.586
11
225.363
21
-195.586
0
LINE
8
Black
10
225.363
20
-195.586
11
225.506
21
-195.657
0
LINE
8
Black
10
225.506
20
-195.657
11
225.577
21
-195.729
0
LINE
8
Black
10
225.577
20
-195.729
11
225.649
21
-195.871
0
LINE
8
Black
10
225.649
20
-195.871
11
225.649
21
-196.3
0
LINE
8
Black
10
225.649
20
-196.3
11
225.577
21
-196.443
0
LINE
8
Black
10
225.577
20
-196.443
11
225.506
21
-196.514
0
LINE
8
Black
10
225.506
20
-196.514
11
225.363
21
-196.586
0
LINE
8
Black
10
225.363
20
-196.586
11
225.149
21
-196.586
0
LINE
8
Black
10
226.291
20
-195.586
11
226.291
21
-196.586
0
LINE
8
Black
10
226.291
20
-195.729
11
226.363
21
-195.657
0
LINE
8
Black
10
226.363
20
-195.657
11
226.506
21
-195.586
0
LINE
8
Black
10
226.506
20
-195.586
11
226.72
21
-195.586
0
LINE
8
Black
10
226.72
20
-195.586
11
226.863
21
-195.657
0
LINE
8
Black
10
226.863
20
-195.657
11
226.934
21
-195.8
0
LINE
8
Black
10
226.934
20
-195.8
11
226.934
21
-196.586
0
LINE
8
Black
10
229.006
20
-195.729
11
228.863
21
-195.657
0
LINE
8
Black
10
228.863
20
-195.657
11
228.791
21
-195.586
0
LINE
8
Black
10
228.791
20
-195.586
11
228.72
21
-195.443
0
LINE
8
Black
10
228.72
20
-195.443
11
228.72
21
-195.371
0
LINE
8
Black
10
228.72
20
-195.371
11
228.791
21
-195.229
0
LINE
8
Black
10
228.791
20
-195.229
11
228.863
21
-195.157
0
LINE
8
Black
10
228.863
20
-195.157
11
229.006
21
-195.086
0
LINE
8
Black
10
229.006
20
-195.086
11
229.291
21
-195.086
0
LINE
8
Black
10
229.291
20
-195.086
11
229.434
21
-195.157
0
LINE
8
Black
10
229.434
20
-195.157
11
229.506
21
-195.229
0
LINE
8
Black
10
229.506
20
-195.229
11
229.577
21
-195.371
0
LINE
8
Black
10
229.577
20
-195.371
11
229.577
21
-195.443
0
LINE
8
Black
10
229.577
20
-195.443
11
229.506
21
-195.586
0
LINE
8
Black
10
229.506
20
-195.586
11
229.434
21
-195.657
0
LINE
8
Black
10
229.434
20
-195.657
11
229.291
21
-195.729
0
LINE
8
Black
10
229.291
20
-195.729
11
229.006
21
-195.729
0
LINE
8
Black
10
229.006
20
-195.729
11
228.863
21
-195.8
0
LINE
8
Black
10
228.863
20
-195.8
11
228.791
21
-195.871
0
LINE
8
Black
10
228.791
20
-195.871
11
228.72
21
-196.014
0
LINE
8
Black
10
228.72
20
-196.014
11
228.72
21
-196.3
0
LINE
8
Black
10
228.72
20
-196.3
11
228.791
21
-196.443
0
LINE
8
Black
10
228.791
20
-196.443
11
228.863
21
-196.514
0
LINE
8
Black
10
228.863
20
-196.514
11
229.006
21
-196.586
0
LINE
8
Black
10
229.006
20
-196.586
11
229.291
21
-196.586
0
LINE
8
Black
10
229.291
20
-196.586
11
229.434
21
-196.514
0
LINE
8
Black
10
229.434
20
-196.514
11
229.506
21
-196.443
0
LINE
8
Black
10
229.506
20
-196.443
11
229.577
21
-196.3
0
LINE
8
Black
10
229.577
20
-196.3
11
229.577
21
-196.014
0
LINE
8
Black
10
229.577
20
-196.014
11
229.506
21
-195.871
0
LINE
8
Black
10
229.506
20
-195.871
11
229.434
21
-195.8
0
LINE
8
Black
10
229.434
20
-195.8
11
229.291
21
-195.729
0
LINE
8
Black
10
230.863
20
-196.586
11
230.863
21
-195.086
0
LINE
8
Black
10
230.863
20
-196.514
11
230.72
21
-196.586
0
LINE
8
Black
10
230.72
20
-196.586
11
230.434
21
-196.586
0
LINE
8
Black
10
230.434
20
-196.586
11
230.291
21
-196.514
0
LINE
8
Black
10
230.291
20
-196.514
11
230.22
21
-196.443
0
LINE
8
Black
10
230.22
20
-196.443
11
230.149
21
-196.3
0
LINE
8
Black
10
230.149
20
-196.3
11
230.149
21
-195.871
0
LINE
8
Black
10
230.149
20
-195.871
11
230.22
21
-195.729
0
LINE
8
Black
10
230.22
20
-195.729
11
230.291
21
-195.657
0
LINE
8
Black
10
230.291
20
-195.657
11
230.434
21
-195.586
0
LINE
8
Black
10
230.434
20
-195.586
11
230.72
21
-195.586
0
LINE
8
Black
10
230.72
20
-195.586
11
230.863
21
-195.657
0
LINE
8
Black
10
232.22
20
-196.586
11
232.22
21
-195.8
0
LINE
8
Black
10
232.22
20
-195.8
11
232.149
21
-195.657
0
LINE
8
Black
10
232.149
20
-195.657
11
232.006
21
-195.586
0
LINE
8
Black
10
232.006
20
-195.586
11
231.72
21
-195.586
0
LINE
8
Black
10
231.72
20
-195.586
11
231.577
21
-195.657
0
LINE
8
Black
10
232.22
20
-196.514
11
232.077
21
-196.586
0
LINE
8
Black
10
232.077
20
-196.586
11
231.72
21
-196.586
0
LINE
8
Black
10
231.72
20
-196.586
11
231.577
21
-196.514
0
LINE
8
Black
10
231.577
20
-196.514
11
231.506
21
-196.371
0
LINE
8
Black
10
231.506
20
-196.371
11
231.506
21
-196.229
0
LINE
8
Black
10
231.506
20
-196.229
11
231.577
21
-196.086
0
LINE
8
Black
10
231.577
20
-196.086
11
231.72
21
-196.014
0
LINE
8
Black
10
231.72
20
-196.014
11
232.077
21
-196.014
0
LINE
8
Black
10
232.077
20
-196.014
11
232.22
21
-195.943
0
LINE
8
Black
10
233.577
20
-196.586
11
233.577
21
-195.086
0
LINE
8
Black
10
233.577
20
-196.514
11
233.434
21
-196.586
0
LINE
8
Black
10
233.434
20
-196.586
11
233.149
21
-196.586
0
LINE
8
Black
10
233.149
20
-196.586
11
233.006
21
-196.514
0
LINE
8
Black
10
233.006
20
-196.514
11
232.934
21
-196.443
0
LINE
8
Black
10
232.934
20
-196.443
11
232.863
21
-196.3
0
LINE
8
Black
10
232.863
20
-196.3
11
232.863
21
-195.871
0
LINE
8
Black
10
232.863
20
-195.871
11
232.934
21
-195.729
0
LINE
8
Black
10
232.934
20
-195.729
11
233.006
21
-195.657
0
LINE
8
Black
10
233.006
20
-195.657
11
233.149
21
-195.586
0
LINE
8
Black
10
233.149
20
-195.586
11
233.434
21
-195.586
0
LINE
8
Black
10
233.434
20
-195.586
11
233.577
21
-195.657
0
LINE
8
Black
10
234.934
20
-196.514
11
234.791
21
-196.586
0
LINE
8
Black
10
234.791
20
-196.586
11
234.506
21
-196.586
0
LINE
8
Black
10
234.506
20
-196.586
11
234.363
21
-196.514
0
LINE
8
Black
10
234.363
20
-196.514
11
234.291
21
-196.443
0
LINE
8
Black
10
234.291
20
-196.443
11
234.22
21
-196.3
0
LINE
8
Black
10
234.22
20
-196.3
11
234.22
21
-195.871
0
LINE
8
Black
10
234.22
20
-195.871
11
234.291
21
-195.729
0
LINE
8
Black
10
234.291
20
-195.729
11
234.363
21
-195.657
0
LINE
8
Black
10
234.363
20
-195.657
11
234.506
21
-195.586
0
LINE
8
Black
10
234.506
20
-195.586
11
234.791
21
-195.586
0
LINE
8
Black
10
234.791
20
-195.586
11
234.934
21
-195.657
0
LINE
8
Black
10
236.363
20
-196.586
11
235.506
21
-196.586
0
LINE
8
Black
10
235.934
20
-196.586
11
235.934
21
-195.086
0
LINE
8
Black
10
235.934
20
-195.086
11
235.791
21
-195.3
0
LINE
8
Black
10
235.791
20
-195.3
11
235.649
21
-195.443
0
LINE
8
Black
10
235.649
20
-195.443
11
235.506
21
-195.514
0
LINE
8
Black
10
237.22
20
-195.729
11
237.077
21
-195.657
0
LINE
8
Black
10
237.077
20
-195.657
11
237.006
21
-195.586
0
LINE
8
Black
10
237.006
20
-195.586
11
236.934
21
-195.443
0
LINE
8
Black
10
236.934
20
-195.443
11
236.934
21
-195.371
0
LINE
8
Black
10
236.934
20
-195.371
11
237.006
21
-195.229
0
LINE
8
Black
10
237.006
20
-195.229
11
237.077
21
-195.157
0
LINE
8
Black
10
237.077
20
-195.157
11
237.22
21
-195.086
0
LINE
8
Black
10
237.22
20
-195.086
11
237.506
21
-195.086
0
LINE
8
Black
10
237.506
20
-195.086
11
237.649
21
-195.157
0
LINE
8
Black
10
237.649
20
-195.157
11
237.72
21
-195.229
0
LINE
8
Black
10
237.72
20
-195.229
11
237.791
21
-195.371
0
LINE
8
Black
10
237.791
20
-195.371
11
237.791
21
-195.443
0
LINE
8
Black
10
237.791
20
-195.443
11
237.72
21
-195.586
0
LINE
8
Black
10
237.72
20
-195.586
11
237.649
21
-195.657
0
LINE
8
Black
10
237.649
20
-195.657
11
237.506
21
-195.729
0
LINE
8
Black
10
237.506
20
-195.729
11
237.22
21
-195.729
0
LINE
8
Black
10
237.22
20
-195.729
11
237.077
21
-195.8
0
LINE
8
Black
10
237.077
20
-195.8
11
237.006
21
-195.871
0
LINE
8
Black
10
237.006
20
-195.871
11
236.934
21
-196.014
0
LINE
8
Black
10
236.934
20
-196.014
11
236.934
21
-196.3
0
LINE
8
Black
10
236.934
20
-196.3
11
237.006
21
-196.443
0
LINE
8
Black
10
237.006
20
-196.443
11
237.077
21
-196.514
0
LINE
8
Black
10
237.077
20
-196.514
11
237.22
21
-196.586
0
LINE
8
Black
10
237.22
20
-196.586
11
237.506
21
-196.586
0
LINE
8
Black
10
237.506
20
-196.586
11
237.649
21
-196.514
0
LINE
8
Black
10
237.649
20
-196.514
11
237.72
21
-196.443
0
LINE
8
Black
10
237.72
20
-196.443
11
237.791
21
-196.3
0
LINE
8
Black
10
237.791
20
-196.3
11
237.791
21
-196.014
0
LINE
8
Black
10
237.791
20
-196.014
11
237.72
21
-195.871
0
LINE
8
Black
10
237.72
20
-195.871
11
237.649
21
-195.8
0
LINE
8
Black
10
237.649
20
-195.8
11
237.506
21
-195.729
0
LINE
8
Black
10
238.291
20
-197.157
11
238.363
21
-197.086
0
LINE
8
Black
10
238.363
20
-197.086
11
238.506
21
-196.871
0
LINE
8
Black
10
238.506
20
-196.871
11
238.577
21
-196.729
0
LINE
8
Black
10
238.577
20
-196.729
11
238.649
21
-196.514
0
LINE
8
Black
10
238.649
20
-196.514
11
238.72
21
-196.157
0
LINE
8
Black
10
238.72
20
-196.157
11
238.72
21
-195.871
0
LINE
8
Black
10
238.72
20
-195.871
11
238.649
21
-195.514
0
LINE
8
Black
10
238.649
20
-195.514
11
238.577
21
-195.3
0
LINE
8
Black
10
238.577
20
-195.3
11
238.506
21
-195.157
0
LINE
8
Black
10
238.506
20
-195.157
11
238.363
21
-194.943
0
LINE
8
Black
10
238.363
20
-194.943
11
238.291
21
-194.871
0
LINE
8
Black
10
239.434
20
-196.014
11
240.577
21
-196.014
0
LINE
8
Black
10
241.291
20
-196.586
11
241.291
21
-195.586
0
LINE
8
Black
10
241.291
20
-195.729
11
241.363
21
-195.657
0
LINE
8
Black
10
241.363
20
-195.657
11
241.506
21
-195.586
0
LINE
8
Black
10
241.506
20
-195.586
11
241.72
21
-195.586
0
LINE
8
Black
10
241.72
20
-195.586
11
241.863
21
-195.657
0
LINE
8
Black
10
241.863
20
-195.657
11
241.934
21
-195.8
0
LINE
8
Black
10
241.934
20
-195.8
11
241.934
21
-196.586
0
LINE
8
Black
10
241.934
20
-195.8
11
242.006
21
-195.657
0
LINE
8
Black
10
242.006
20
-195.657
11
242.149
21
-195.586
0
LINE
8
Black
10
242.149
20
-195.586
11
242.363
21
-195.586
0
LINE
8
Black
10
242.363
20
-195.586
11
242.506
21
-195.657
0
LINE
8
Black
10
242.506
20
-195.657
11
242.577
21
-195.8
0
LINE
8
Black
10
242.577
20
-195.8
11
242.577
21
-196.586
0
LINE
8
Black
10
243.934
20
-196.586
11
243.934
21
-195.8
0
LINE
8
Black
10
243.934
20
-195.8
11
243.863
21
-195.657
0
LINE
8
Black
10
243.863
20
-195.657
11
243.72
21
-195.586
0
LINE
8
Black
10
243.72
20
-195.586
11
243.434
21
-195.586
0
LINE
8
Black
10
243.434
20
-195.586
11
243.291
21
-195.657
0
LINE
8
Black
10
243.934
20
-196.514
11
243.791
21
-196.586
0
LINE
8
Black
10
243.791
20
-196.586
11
243.434
21
-196.586
0
LINE
8
Black
10
243.434
20
-196.586
11
243.291
21
-196.514
0
LINE
8
Black
10
243.291
20
-196.514
11
243.22
21
-196.371
0
LINE
8
Black
10
243.22
20
-196.371
11
243.22
21
-196.229
0
LINE
8
Black
10
243.22
20
-196.229
11
243.291
21
-196.086
0
LINE
8
Black
10
243.291
20
-196.086
11
243.434
21
-196.014
0
LINE
8
Black
10
243.434
20
-196.014
11
243.791
21
-196.014
0
LINE
8
Black
10
243.791
20
-196.014
11
243.934
21
-195.943
0
LINE
8
Black
10
244.649
20
-196.586
11
244.649
21
-195.086
0
LINE
8
Black
10
244.791
20
-196.014
11
245.22
21
-196.586
0
LINE
8
Black
10
245.22
20
-195.586
11
244.649
21
-196.157
0
LINE
8
Black
10
246.434
20
-196.514
11
246.291
21
-196.586
0
LINE
8
Black
10
246.291
20
-196.586
11
246.006
21
-196.586
0
LINE
8
Black
10
246.006
20
-196.586
11
245.863
21
-196.514
0
LINE
8
Black
10
245.863
20
-196.514
11
245.791
21
-196.371
0
LINE
8
Black
10
245.791
20
-196.371
11
245.791
21
-195.8
0
LINE
8
Black
10
245.791
20
-195.8
11
245.863
21
-195.657
0
LINE
8
Black
10
245.863
20
-195.657
11
246.006
21
-195.586
0
LINE
8
Black
10
246.006
20
-195.586
11
246.291
21
-195.586
0
LINE
8
Black
10
246.291
20
-195.586
11
246.434
21
-195.657
0
LINE
8
Black
10
246.434
20
-195.657
11
246.506
21
-195.8
0
LINE
8
Black
10
246.506
20
-195.8
11
246.506
21
-195.943
0
LINE
8
Black
10
246.506
20
-195.943
11
245.791
21
-196.086
0
LINE
8
Black
10
247.149
20
-195.586
11
247.149
21
-197.086
0
LINE
8
Black
10
247.149
20
-195.657
11
247.291
21
-195.586
0
LINE
8
Black
10
247.291
20
-195.586
11
247.577
21
-195.586
0
LINE
8
Black
10
247.577
20
-195.586
11
247.72
21
-195.657
0
LINE
8
Black
10
247.72
20
-195.657
11
247.791
21
-195.729
0
LINE
8
Black
10
247.791
20
-195.729
11
247.863
21
-195.871
0
LINE
8
Black
10
247.863
20
-195.871
11
247.863
21
-196.3
0
LINE
8
Black
10
247.863
20
-196.3
11
247.791
21
-196.443
0
LINE
8
Black
10
247.791
20
-196.443
11
247.72
21
-196.514
0
LINE
8
Black
10
247.72
20
-196.514
11
247.577
21
-196.586
0
LINE
8
Black
10
247.577
20
-196.586
11
247.291
21
-196.586
0
LINE
8
Black
10
247.291
20
-196.586
11
247.149
21
-196.514
0
LINE
8
Black
10
248.506
20
-196.586
11
248.506
21
-195.086
0
LINE
8
Black
10
248.649
20
-196.014
11
249.077
21
-196.586
0
LINE
8
Black
10
249.077
20
-195.586
11
248.506
21
-196.157
0
LINE
8
Black
10
250.363
20
-195.586
11
250.363
21
-196.8
0
LINE
8
Black
10
250.363
20
-196.8
11
250.291
21
-196.943
0
LINE
8
Black
10
250.291
20
-196.943
11
250.22
21
-197.014
0
LINE
8
Black
10
250.22
20
-197.014
11
250.077
21
-197.086
0
LINE
8
Black
10
250.077
20
-197.086
11
249.863
21
-197.086
0
LINE
8
Black
10
249.863
20
-197.086
11
249.72
21
-197.014
0
LINE
8
Black
10
250.363
20
-196.514
11
250.22
21
-196.586
0
LINE
8
Black
10
250.22
20
-196.586
11
249.934
21
-196.586
0
LINE
8
Black
10
249.934
20
-196.586
11
249.791
21
-196.514
0
LINE
8
Black
10
249.791
20
-196.514
11
249.72
21
-196.443
0
LINE
8
Black
10
249.72
20
-196.443
11
249.649
21
-196.3
0
LINE
8
Black
10
249.649
20
-196.3
11
249.649
21
-195.871
0
LINE
8
Black
10
249.649
20
-195.871
11
249.72
21
-195.729
0
LINE
8
Black
10
249.72
20
-195.729
11
249.791
21
-195.657
0
LINE
8
Black
10
249.791
20
-195.657
11
249.934
21
-195.586
0
LINE
8
Black
10
249.934
20
-195.586
11
250.22
21
-195.586
0
LINE
8
Black
10
250.22
20
-195.586
11
250.363
21
-195.657
0
LINE
8
Black
10
177.002
20
-191.507
11
285.002
21
-191.507
0
LINE
8
Black
10
264.411
20
-193.786
11
263.911
21
-193.071
0
LINE
8
Black
10
263.554
20
-193.786
11
263.554
21
-192.286
0
LINE
8
Black
10
263.554
20
-192.286
11
264.126
21
-192.286
0
LINE
8
Black
10
264.126
20
-192.286
11
264.269
21
-192.357
0
LINE
8
Black
10
264.269
20
-192.357
11
264.34
21
-192.429
0
LINE
8
Black
10
264.34
20
-192.429
11
264.411
21
-192.571
0
LINE
8
Black
10
264.411
20
-192.571
11
264.411
21
-192.786
0
LINE
8
Black
10
264.411
20
-192.786
11
264.34
21
-192.929
0
LINE
8
Black
10
264.34
20
-192.929
11
264.269
21
-193
0
LINE
8
Black
10
264.269
20
-193
11
264.126
21
-193.071
0
LINE
8
Black
10
264.126
20
-193.071
11
263.554
21
-193.071
0
LINE
8
Black
10
265.626
20
-193.714
11
265.483
21
-193.786
0
LINE
8
Black
10
265.483
20
-193.786
11
265.197
21
-193.786
0
LINE
8
Black
10
265.197
20
-193.786
11
265.054
21
-193.714
0
LINE
8
Black
10
265.054
20
-193.714
11
264.983
21
-193.571
0
LINE
8
Black
10
264.983
20
-193.571
11
264.983
21
-193
0
LINE
8
Black
10
264.983
20
-193
11
265.054
21
-192.857
0
LINE
8
Black
10
265.054
20
-192.857
11
265.197
21
-192.786
0
LINE
8
Black
10
265.197
20
-192.786
11
265.483
21
-192.786
0
LINE
8
Black
10
265.483
20
-192.786
11
265.626
21
-192.857
0
LINE
8
Black
10
265.626
20
-192.857
11
265.697
21
-193
0
LINE
8
Black
10
265.697
20
-193
11
265.697
21
-193.143
0
LINE
8
Black
10
265.697
20
-193.143
11
264.983
21
-193.286
0
LINE
8
Black
10
266.197
20
-192.786
11
266.554
21
-193.786
0
LINE
8
Black
10
266.554
20
-193.786
11
266.911
21
-192.786
0
LINE
8
Black
10
267.483
20
-193.643
11
267.554
21
-193.714
0
LINE
8
Black
10
267.554
20
-193.714
11
267.483
21
-193.786
0
LINE
8
Black
10
267.483
20
-193.786
11
267.411
21
-193.714
0
LINE
8
Black
10
267.411
20
-193.714
11
267.483
21
-193.643
0
LINE
8
Black
10
267.483
20
-193.643
11
267.483
21
-193.786
0
LINE
8
Black
10
267.483
20
-192.857
11
267.554
21
-192.929
0
LINE
8
Black
10
267.554
20
-192.929
11
267.483
21
-193
0
LINE
8
Black
10
267.483
20
-193
11
267.411
21
-192.929
0
LINE
8
Black
10
267.411
20
-192.929
11
267.483
21
-192.857
0
LINE
8
Black
10
267.483
20
-192.857
11
267.483
21
-193
0
LINE
8
Black
10
178.363
20
-193.714
11
178.577
21
-193.786
0
LINE
8
Black
10
178.577
20
-193.786
11
178.934
21
-193.786
0
LINE
8
Black
10
178.934
20
-193.786
11
179.077
21
-193.714
0
LINE
8
Black
10
179.077
20
-193.714
11
179.149
21
-193.643
0
LINE
8
Black
10
179.149
20
-193.643
11
179.22
21
-193.5
0
LINE
8
Black
10
179.22
20
-193.5
11
179.22
21
-193.357
0
LINE
8
Black
10
179.22
20
-193.357
11
179.149
21
-193.214
0
LINE
8
Black
10
179.149
20
-193.214
11
179.077
21
-193.143
0
LINE
8
Black
10
179.077
20
-193.143
11
178.934
21
-193.071
0
LINE
8
Black
10
178.934
20
-193.071
11
178.649
21
-193
0
LINE
8
Black
10
178.649
20
-193
11
178.506
21
-192.929
0
LINE
8
Black
10
178.506
20
-192.929
11
178.434
21
-192.857
0
LINE
8
Black
10
178.434
20
-192.857
11
178.363
21
-192.714
0
LINE
8
Black
10
178.363
20
-192.714
11
178.363
21
-192.571
0
LINE
8
Black
10
178.363
20
-192.571
11
178.434
21
-192.429
0
LINE
8
Black
10
178.434
20
-192.429
11
178.506
21
-192.357
0
LINE
8
Black
10
178.506
20
-192.357
11
178.649
21
-192.286
0
LINE
8
Black
10
178.649
20
-192.286
11
179.006
21
-192.286
0
LINE
8
Black
10
179.006
20
-192.286
11
179.22
21
-192.357
0
LINE
8
Black
10
179.863
20
-193.786
11
179.863
21
-192.786
0
LINE
8
Black
10
179.863
20
-192.286
11
179.791
21
-192.357
0
LINE
8
Black
10
179.791
20
-192.357
11
179.863
21
-192.429
0
LINE
8
Black
10
179.863
20
-192.429
11
179.934
21
-192.357
0
LINE
8
Black
10
179.934
20
-192.357
11
179.863
21
-192.286
0
LINE
8
Black
10
179.863
20
-192.286
11
179.863
21
-192.429
0
LINE
8
Black
10
180.434
20
-192.786
11
181.22
21
-192.786
0
LINE
8
Black
10
181.22
20
-192.786
11
180.434
21
-193.786
0
LINE
8
Black
10
180.434
20
-193.786
11
181.22
21
-193.786
0
LINE
8
Black
10
182.363
20
-193.714
11
182.22
21
-193.786
0
LINE
8
Black
10
182.22
20
-193.786
11
181.934
21
-193.786
0
LINE
8
Black
10
181.934
20
-193.786
11
181.791
21
-193.714
0
LINE
8
Black
10
181.791
20
-193.714
11
181.72
21
-193.571
0
LINE
8
Black
10
181.72
20
-193.571
11
181.72
21
-193
0
LINE
8
Black
10
181.72
20
-193
11
181.791
21
-192.857
0
LINE
8
Black
10
181.791
20
-192.857
11
181.934
21
-192.786
0
LINE
8
Black
10
181.934
20
-192.786
11
182.22
21
-192.786
0
LINE
8
Black
10
182.22
20
-192.786
11
182.363
21
-192.857
0
LINE
8
Black
10
182.363
20
-192.857
11
182.434
21
-193
0
LINE
8
Black
10
182.434
20
-193
11
182.434
21
-193.143
0
LINE
8
Black
10
182.434
20
-193.143
11
181.72
21
-193.286
0
LINE
8
Black
10
183.077
20
-193.643
11
183.149
21
-193.714
0
LINE
8
Black
10
183.149
20
-193.714
11
183.077
21
-193.786
0
LINE
8
Black
10
183.077
20
-193.786
11
183.006
21
-193.714
0
LINE
8
Black
10
183.006
20
-193.714
11
183.077
21
-193.643
0
LINE
8
Black
10
183.077
20
-193.643
11
183.077
21
-193.786
0
LINE
8
Black
10
183.077
20
-192.857
11
183.149
21
-192.929
0
LINE
8
Black
10
183.149
20
-192.929
11
183.077
21
-193
0
LINE
8
Black
10
183.077
20
-193
11
183.006
21
-192.929
0
LINE
8
Black
10
183.006
20
-192.929
11
183.077
21
-192.857
0
LINE
8
Black
10
183.077
20
-192.857
11
183.077
21
-193
0
LINE
8
Black
10
184.863
20
-193.357
11
185.577
21
-193.357
0
LINE
8
Black
10
184.72
20
-193.786
11
185.22
21
-192.286
0
LINE
8
Black
10
185.22
20
-192.286
11
185.72
21
-193.786
0
LINE
8
Black
10
186.863
20
-192.786
11
186.863
21
-193.786
0
LINE
8
Black
10
186.506
20
-192.214
11
186.149
21
-193.286
0
LINE
8
Black
10
186.149
20
-193.286
11
187.077
21
-193.286
0
LINE
8
Black
10
263.434
20
-196.586
11
263.434
21
-195.086
0
LINE
8
Black
10
264.791
20
-196.586
11
264.791
21
-195.086
0
LINE
8
Black
10
264.791
20
-196.514
11
264.649
21
-196.586
0
LINE
8
Black
10
264.649
20
-196.586
11
264.363
21
-196.586
0
LINE
8
Black
10
264.363
20
-196.586
11
264.22
21
-196.514
0
LINE
8
Black
10
264.22
20
-196.514
11
264.149
21
-196.443
0
LINE
8
Black
10
264.149
20
-196.443
11
264.077
21
-196.3
0
LINE
8
Black
10
264.077
20
-196.3
11
264.077
21
-195.871
0
LINE
8
Black
10
264.077
20
-195.871
11
264.149
21
-195.729
0
LINE
8
Black
10
264.149
20
-195.729
11
264.22
21
-195.657
0
LINE
8
Black
10
264.22
20
-195.657
11
264.363
21
-195.586
0
LINE
8
Black
10
264.363
20
-195.586
11
264.649
21
-195.586
0
LINE
8
Black
10
264.649
20
-195.586
11
264.791
21
-195.657
0
LINE
8
Black
10
265.506
20
-196.443
11
265.577
21
-196.514
0
LINE
8
Black
10
265.577
20
-196.514
11
265.506
21
-196.586
0
LINE
8
Black
10
265.506
20
-196.586
11
265.434
21
-196.514
0
LINE
8
Black
10
265.434
20
-196.514
11
265.506
21
-196.443
0
LINE
8
Black
10
265.506
20
-196.443
11
265.506
21
-196.586
0
LINE
8
Black
10
265.506
20
-195.657
11
265.577
21
-195.729
0
LINE
8
Black
10
265.577
20
-195.729
11
265.506
21
-195.8
0
LINE
8
Black
10
265.506
20
-195.8
11
265.434
21
-195.729
0
LINE
8
Black
10
265.434
20
-195.729
11
265.506
21
-195.657
0
LINE
8
Black
10
265.506
20
-195.657
11
265.506
21
-195.8
0
LINE
8
Black
10
268.149
20
-196.586
11
267.291
21
-196.586
0
LINE
8
Black
10
267.72
20
-196.586
11
267.72
21
-195.086
0
LINE
8
Black
10
267.72
20
-195.086
11
267.577
21
-195.3
0
LINE
8
Black
10
267.577
20
-195.3
11
267.434
21
-195.443
0
LINE
8
Black
10
267.434
20
-195.443
11
267.291
21
-195.514
0
LINE
8
Black
10
269.863
20
-195.014
11
268.577
21
-196.943
0
LINE
8
Black
10
271.149
20
-196.586
11
270.291
21
-196.586
0
LINE
8
Black
10
270.72
20
-196.586
11
270.72
21
-195.086
0
LINE
8
Black
10
270.72
20
-195.086
11
270.577
21
-195.3
0
LINE
8
Black
10
270.577
20
-195.3
11
270.434
21
-195.443
0
LINE
8
Black
10
270.434
20
-195.443
11
270.291
21
-195.514
0
LINE
8
Black
10
177.002
20
-187.507
11
285.002
21
-187.507
0
LINE
8
Black
10
178.715
20
-188.212
11
179.857
21
-188.212
0
LINE
8
Black
10
179.036
20
-190.212
11
179.286
21
-188.212
0
LINE
8
Black
10
180.274
20
-190.212
11
180.441
21
-188.879
0
LINE
8
Black
10
180.524
20
-188.212
11
180.417
21
-188.307
0
LINE
8
Black
10
180.417
20
-188.307
11
180.5
21
-188.402
0
LINE
8
Black
10
180.5
20
-188.402
11
180.607
21
-188.307
0
LINE
8
Black
10
180.607
20
-188.307
11
180.524
21
-188.212
0
LINE
8
Black
10
180.524
20
-188.212
11
180.5
21
-188.402
0
LINE
8
Black
10
181.107
20
-188.879
11
181.869
21
-188.879
0
LINE
8
Black
10
181.476
20
-188.212
11
181.262
21
-189.926
0
LINE
8
Black
10
181.262
20
-189.926
11
181.334
21
-190.117
0
LINE
8
Black
10
181.334
20
-190.117
11
181.512
21
-190.212
0
LINE
8
Black
10
181.512
20
-190.212
11
181.703
21
-190.212
0
LINE
8
Black
10
182.655
20
-190.212
11
182.476
21
-190.117
0
LINE
8
Black
10
182.476
20
-190.117
11
182.405
21
-189.926
0
LINE
8
Black
10
182.405
20
-189.926
11
182.619
21
-188.212
0
LINE
8
Black
10
184.191
20
-190.117
11
183.988
21
-190.212
0
LINE
8
Black
10
183.988
20
-190.212
11
183.607
21
-190.212
0
LINE
8
Black
10
183.607
20
-190.212
11
183.429
21
-190.117
0
LINE
8
Black
10
183.429
20
-190.117
11
183.357
21
-189.926
0
LINE
8
Black
10
183.357
20
-189.926
11
183.453
21
-189.164
0
LINE
8
Black
10
183.453
20
-189.164
11
183.572
21
-188.974
0
LINE
8
Black
10
183.572
20
-188.974
11
183.774
21
-188.879
0
LINE
8
Black
10
183.774
20
-188.879
11
184.155
21
-188.879
0
LINE
8
Black
10
184.155
20
-188.879
11
184.334
21
-188.974
0
LINE
8
Black
10
184.334
20
-188.974
11
184.405
21
-189.164
0
LINE
8
Black
10
184.405
20
-189.164
11
184.381
21
-189.355
0
LINE
8
Black
10
184.381
20
-189.355
11
183.405
21
-189.545
0
LINE
8
Black
10
185.155
20
-190.021
11
185.238
21
-190.117
0
LINE
8
Black
10
185.238
20
-190.117
11
185.131
21
-190.212
0
LINE
8
Black
10
185.131
20
-190.212
11
185.048
21
-190.117
0
LINE
8
Black
10
185.048
20
-190.117
11
185.155
21
-190.021
0
LINE
8
Black
10
185.155
20
-190.021
11
185.131
21
-190.212
0
LINE
8
Black
10
185.286
20
-188.974
11
185.369
21
-189.069
0
LINE
8
Black
10
185.369
20
-189.069
11
185.262
21
-189.164
0
LINE
8
Black
10
185.262
20
-189.164
11
185.179
21
-189.069
0
LINE
8
Black
10
185.179
20
-189.069
11
185.286
21
-188.974
0
LINE
8
Black
10
185.286
20
-188.974
11
185.262
21
-189.164
0
LINE
8
Black
10
178.934
20
-185.6
11
178.434
21
-185.6
0
LINE
8
Black
10
178.434
20
-186.386
11
178.434
21
-184.886
0
LINE
8
Black
10
178.434
20
-184.886
11
179.149
21
-184.886
0
LINE
8
Black
10
179.72
20
-186.386
11
179.72
21
-185.386
0
LINE
8
Black
10
179.72
20
-184.886
11
179.649
21
-184.957
0
LINE
8
Black
10
179.649
20
-184.957
11
179.72
21
-185.029
0
LINE
8
Black
10
179.72
20
-185.029
11
179.791
21
-184.957
0
LINE
8
Black
10
179.791
20
-184.957
11
179.72
21
-184.886
0
LINE
8
Black
10
179.72
20
-184.886
11
179.72
21
-185.029
0
LINE
8
Black
10
180.649
20
-186.386
11
180.506
21
-186.314
0
LINE
8
Black
10
180.506
20
-186.314
11
180.434
21
-186.171
0
LINE
8
Black
10
180.434
20
-186.171
11
180.434
21
-184.886
0
LINE
8
Black
10
181.791
20
-186.314
11
181.649
21
-186.386
0
LINE
8
Black
10
181.649
20
-186.386
11
181.363
21
-186.386
0
LINE
8
Black
10
181.363
20
-186.386
11
181.22
21
-186.314
0
LINE
8
Black
10
181.22
20
-186.314
11
181.149
21
-186.171
0
LINE
8
Black
10
181.149
20
-186.171
11
181.149
21
-185.6
0
LINE
8
Black
10
181.149
20
-185.6
11
181.22
21
-185.457
0
LINE
8
Black
10
181.22
20
-185.457
11
181.363
21
-185.386
0
LINE
8
Black
10
181.363
20
-185.386
11
181.649
21
-185.386
0
LINE
8
Black
10
181.649
20
-185.386
11
181.791
21
-185.457
0
LINE
8
Black
10
181.791
20
-185.457
11
181.863
21
-185.6
0
LINE
8
Black
10
181.863
20
-185.6
11
181.863
21
-185.743
0
LINE
8
Black
10
181.863
20
-185.743
11
181.149
21
-185.886
0
LINE
8
Black
10
182.506
20
-186.243
11
182.577
21
-186.314
0
LINE
8
Black
10
182.577
20
-186.314
11
182.506
21
-186.386
0
LINE
8
Black
10
182.506
20
-186.386
11
182.434
21
-186.314
0
LINE
8
Black
10
182.434
20
-186.314
11
182.506
21
-186.243
0
LINE
8
Black
10
182.506
20
-186.243
11
182.506
21
-186.386
0
LINE
8
Black
10
182.506
20
-185.457
11
182.577
21
-185.529
0
LINE
8
Black
10
182.577
20
-185.529
11
182.506
21
-185.6
0
LINE
8
Black
10
182.506
20
-185.6
11
182.434
21
-185.529
0
LINE
8
Black
10
182.434
20
-185.529
11
182.506
21
-185.457
0
LINE
8
Black
10
182.506
20
-185.457
11
182.506
21
-185.6
0
LINE
8
Black
10
184.863
20
-185.6
11
185.077
21
-185.671
0
LINE
8
Black
10
185.077
20
-185.671
11
185.149
21
-185.743
0
LINE
8
Black
10
185.149
20
-185.743
11
185.22
21
-185.886
0
LINE
8
Black
10
185.22
20
-185.886
11
185.22
21
-186.1
0
LINE
8
Black
10
185.22
20
-186.1
11
185.149
21
-186.243
0
LINE
8
Black
10
185.149
20
-186.243
11
185.077
21
-186.314
0
LINE
8
Black
10
185.077
20
-186.314
11
184.934
21
-186.386
0
LINE
8
Black
10
184.934
20
-186.386
11
184.363
21
-186.386
0
LINE
8
Black
10
184.363
20
-186.386
11
184.363
21
-184.886
0
LINE
8
Black
10
184.363
20
-184.886
11
184.863
21
-184.886
0
LINE
8
Black
10
184.863
20
-184.886
11
185.006
21
-184.957
0
LINE
8
Black
10
185.006
20
-184.957
11
185.077
21
-185.029
0
LINE
8
Black
10
185.077
20
-185.029
11
185.149
21
-185.171
0
LINE
8
Black
10
185.149
20
-185.171
11
185.149
21
-185.314
0
LINE
8
Black
10
185.149
20
-185.314
11
185.077
21
-185.457
0
LINE
8
Black
10
185.077
20
-185.457
11
185.006
21
-185.529
0
LINE
8
Black
10
185.006
20
-185.529
11
184.863
21
-185.6
0
LINE
8
Black
10
184.863
20
-185.6
11
184.363
21
-185.6
0
LINE
8
Black
10
186.506
20
-186.386
11
186.506
21
-185.6
0
LINE
8
Black
10
186.506
20
-185.6
11
186.434
21
-185.457
0
LINE
8
Black
10
186.434
20
-185.457
11
186.291
21
-185.386
0
LINE
8
Black
10
186.291
20
-185.386
11
186.006
21
-185.386
0
LINE
8
Black
10
186.006
20
-185.386
11
185.863
21
-185.457
0
LINE
8
Black
10
186.506
20
-186.314
11
186.363
21
-186.386
0
LINE
8
Black
10
186.363
20
-186.386
11
186.006
21
-186.386
0
LINE
8
Black
10
186.006
20
-186.386
11
185.863
21
-186.314
0
LINE
8
Black
10
185.863
20
-186.314
11
185.791
21
-186.171
0
LINE
8
Black
10
185.791
20
-186.171
11
185.791
21
-186.029
0
LINE
8
Black
10
185.791
20
-186.029
11
185.863
21
-185.886
0
LINE
8
Black
10
185.863
20
-185.886
11
186.006
21
-185.814
0
LINE
8
Black
10
186.006
20
-185.814
11
186.363
21
-185.814
0
LINE
8
Black
10
186.363
20
-185.814
11
186.506
21
-185.743
0
LINE
8
Black
10
187.863
20
-186.386
11
187.863
21
-184.886
0
LINE
8
Black
10
187.863
20
-186.314
11
187.72
21
-186.386
0
LINE
8
Black
10
187.72
20
-186.386
11
187.434
21
-186.386
0
LINE
8
Black
10
187.434
20
-186.386
11
187.291
21
-186.314
0
LINE
8
Black
10
187.291
20
-186.314
11
187.22
21
-186.243
0
LINE
8
Black
10
187.22
20
-186.243
11
187.149
21
-186.1
0
LINE
8
Black
10
187.149
20
-186.1
11
187.149
21
-185.671
0
LINE
8
Black
10
187.149
20
-185.671
11
187.22
21
-185.529
0
LINE
8
Black
10
187.22
20
-185.529
11
187.291
21
-185.457
0
LINE
8
Black
10
187.291
20
-185.457
11
187.434
21
-185.386
0
LINE
8
Black
10
187.434
20
-185.386
11
187.72
21
-185.386
0
LINE
8
Black
10
187.72
20
-185.386
11
187.863
21
-185.457
0
LINE
8
Black
10
189.22
20
-185.386
11
189.22
21
-186.6
0
LINE
8
Black
10
189.22
20
-186.6
11
189.149
21
-186.743
0
LINE
8
Black
10
189.149
20
-186.743
11
189.077
21
-186.814
0
LINE
8
Black
10
189.077
20
-186.814
11
188.934
21
-186.886
0
LINE
8
Black
10
188.934
20
-186.886
11
188.72
21
-186.886
0
LINE
8
Black
10
188.72
20
-186.886
11
188.577
21
-186.814
0
LINE
8
Black
10
189.22
20
-186.314
11
189.077
21
-186.386
0
LINE
8
Black
10
189.077
20
-186.386
11
188.791
21
-186.386
0
LINE
8
Black
10
188.791
20
-186.386
11
188.649
21
-186.314
0
LINE
8
Black
10
188.649
20
-186.314
11
188.577
21
-186.243
0
LINE
8
Black
10
188.577
20
-186.243
11
188.506
21
-186.1
0
LINE
8
Black
10
188.506
20
-186.1
11
188.506
21
-185.671
0
LINE
8
Black
10
188.506
20
-185.671
11
188.577
21
-185.529
0
LINE
8
Black
10
188.577
20
-185.529
11
188.649
21
-185.457
0
LINE
8
Black
10
188.649
20
-185.457
11
188.791
21
-185.386
0
LINE
8
Black
10
188.791
20
-185.386
11
189.077
21
-185.386
0
LINE
8
Black
10
189.077
20
-185.386
11
189.22
21
-185.457
0
LINE
8
Black
10
190.506
20
-186.314
11
190.363
21
-186.386
0
LINE
8
Black
10
190.363
20
-186.386
11
190.077
21
-186.386
0
LINE
8
Black
10
190.077
20
-186.386
11
189.934
21
-186.314
0
LINE
8
Black
10
189.934
20
-186.314
11
189.863
21
-186.171
0
LINE
8
Black
10
189.863
20
-186.171
11
189.863
21
-185.6
0
LINE
8
Black
10
189.863
20
-185.6
11
189.934
21
-185.457
0
LINE
8
Black
10
189.934
20
-185.457
11
190.077
21
-185.386
0
LINE
8
Black
10
190.077
20
-185.386
11
190.363
21
-185.386
0
LINE
8
Black
10
190.363
20
-185.386
11
190.506
21
-185.457
0
LINE
8
Black
10
190.506
20
-185.457
11
190.577
21
-185.6
0
LINE
8
Black
10
190.577
20
-185.6
11
190.577
21
-185.743
0
LINE
8
Black
10
190.577
20
-185.743
11
189.863
21
-185.886
0
LINE
8
Black
10
191.22
20
-186.243
11
191.291
21
-186.314
0
LINE
8
Black
10
191.291
20
-186.314
11
191.22
21
-186.386
0
LINE
8
Black
10
191.22
20
-186.386
11
191.149
21
-186.314
0
LINE
8
Black
10
191.149
20
-186.314
11
191.22
21
-186.243
0
LINE
8
Black
10
191.22
20
-186.243
11
191.22
21
-186.386
0
LINE
8
Black
10
191.934
20
-186.386
11
191.934
21
-184.886
0
LINE
8
Black
10
192.077
20
-185.814
11
192.506
21
-186.386
0
LINE
8
Black
10
192.506
20
-185.386
11
191.934
21
-185.957
0
LINE
8
Black
10
193.149
20
-186.386
11
193.149
21
-185.386
0
LINE
8
Black
10
193.149
20
-184.886
11
193.077
21
-184.957
0
LINE
8
Black
10
193.077
20
-184.957
11
193.149
21
-185.029
0
LINE
8
Black
10
193.149
20
-185.029
11
193.22
21
-184.957
0
LINE
8
Black
10
193.22
20
-184.957
11
193.149
21
-184.886
0
LINE
8
Black
10
193.149
20
-184.886
11
193.149
21
-185.029
0
LINE
8
Black
10
194.506
20
-186.314
11
194.363
21
-186.386
0
LINE
8
Black
10
194.363
20
-186.386
11
194.077
21
-186.386
0
LINE
8
Black
10
194.077
20
-186.386
11
193.934
21
-186.314
0
LINE
8
Black
10
193.934
20
-186.314
11
193.863
21
-186.243
0
LINE
8
Black
10
193.863
20
-186.243
11
193.791
21
-186.1
0
LINE
8
Black
10
193.791
20
-186.1
11
193.791
21
-185.671
0
LINE
8
Black
10
193.791
20
-185.671
11
193.863
21
-185.529
0
LINE
8
Black
10
193.863
20
-185.529
11
193.934
21
-185.457
0
LINE
8
Black
10
193.934
20
-185.457
11
194.077
21
-185.386
0
LINE
8
Black
10
194.077
20
-185.386
11
194.363
21
-185.386
0
LINE
8
Black
10
194.363
20
-185.386
11
194.506
21
-185.457
0
LINE
8
Black
10
195.791
20
-186.386
11
195.791
21
-185.6
0
LINE
8
Black
10
195.791
20
-185.6
11
195.72
21
-185.457
0
LINE
8
Black
10
195.72
20
-185.457
11
195.577
21
-185.386
0
LINE
8
Black
10
195.577
20
-185.386
11
195.291
21
-185.386
0
LINE
8
Black
10
195.291
20
-185.386
11
195.149
21
-185.457
0
LINE
8
Black
10
195.791
20
-186.314
11
195.649
21
-186.386
0
LINE
8
Black
10
195.649
20
-186.386
11
195.291
21
-186.386
0
LINE
8
Black
10
195.291
20
-186.386
11
195.149
21
-186.314
0
LINE
8
Black
10
195.149
20
-186.314
11
195.077
21
-186.171
0
LINE
8
Black
10
195.077
20
-186.171
11
195.077
21
-186.029
0
LINE
8
Black
10
195.077
20
-186.029
11
195.149
21
-185.886
0
LINE
8
Black
10
195.149
20
-185.886
11
195.291
21
-185.814
0
LINE
8
Black
10
195.291
20
-185.814
11
195.649
21
-185.814
0
LINE
8
Black
10
195.649
20
-185.814
11
195.791
21
-185.743
0
LINE
8
Black
10
197.149
20
-186.386
11
197.149
21
-184.886
0
LINE
8
Black
10
197.149
20
-186.314
11
197.006
21
-186.386
0
LINE
8
Black
10
197.006
20
-186.386
11
196.72
21
-186.386
0
LINE
8
Black
10
196.72
20
-186.386
11
196.577
21
-186.314
0
LINE
8
Black
10
196.577
20
-186.314
11
196.506
21
-186.243
0
LINE
8
Black
10
196.506
20
-186.243
11
196.434
21
-186.1
0
LINE
8
Black
10
196.434
20
-186.1
11
196.434
21
-185.671
0
LINE
8
Black
10
196.434
20
-185.671
11
196.506
21
-185.529
0
LINE
8
Black
10
196.506
20
-185.529
11
196.577
21
-185.457
0
LINE
8
Black
10
196.577
20
-185.457
11
196.72
21
-185.386
0
LINE
8
Black
10
196.72
20
-185.386
11
197.006
21
-185.386
0
LINE
8
Black
10
197.006
20
-185.386
11
197.149
21
-185.457
0
LINE
8
Black
10
197.506
20
-186.529
11
198.649
21
-186.529
0
LINE
8
Black
10
199.006
20
-185.386
11
199.006
21
-186.886
0
LINE
8
Black
10
199.006
20
-185.457
11
199.149
21
-185.386
0
LINE
8
Black
10
199.149
20
-185.386
11
199.434
21
-185.386
0
LINE
8
Black
10
199.434
20
-185.386
11
199.577
21
-185.457
0
LINE
8
Black
10
199.577
20
-185.457
11
199.649
21
-185.529
0
LINE
8
Black
10
199.649
20
-185.529
11
199.72
21
-185.671
0
LINE
8
Black
10
199.72
20
-185.671
11
199.72
21
-186.1
0
LINE
8
Black
10
199.72
20
-186.1
11
199.649
21
-186.243
0
LINE
8
Black
10
199.649
20
-186.243
11
199.577
21
-186.314
0
LINE
8
Black
10
199.577
20
-186.314
11
199.434
21
-186.386
0
LINE
8
Black
10
199.434
20
-186.386
11
199.149
21
-186.386
0
LINE
8
Black
10
199.149
20
-186.386
11
199.006
21
-186.314
0
LINE
8
Black
10
201.006
20
-186.314
11
200.863
21
-186.386
0
LINE
8
Black
10
200.863
20
-186.386
11
200.577
21
-186.386
0
LINE
8
Black
10
200.577
20
-186.386
11
200.434
21
-186.314
0
LINE
8
Black
10
200.434
20
-186.314
11
200.363
21
-186.243
0
LINE
8
Black
10
200.363
20
-186.243
11
200.291
21
-186.1
0
LINE
8
Black
10
200.291
20
-186.1
11
200.291
21
-185.671
0
LINE
8
Black
10
200.291
20
-185.671
11
200.363
21
-185.529
0
LINE
8
Black
10
200.363
20
-185.529
11
200.434
21
-185.457
0
LINE
8
Black
10
200.434
20
-185.457
11
200.577
21
-185.386
0
LINE
8
Black
10
200.577
20
-185.386
11
200.863
21
-185.386
0
LINE
8
Black
10
200.863
20
-185.386
11
201.006
21
-185.457
0
LINE
8
Black
10
201.649
20
-186.386
11
201.649
21
-184.886
0
LINE
8
Black
10
201.649
20
-185.457
11
201.791
21
-185.386
0
LINE
8
Black
10
201.791
20
-185.386
11
202.077
21
-185.386
0
LINE
8
Black
10
202.077
20
-185.386
11
202.22
21
-185.457
0
LINE
8
Black
10
202.22
20
-185.457
11
202.291
21
-185.529
0
LINE
8
Black
10
202.291
20
-185.529
11
202.363
21
-185.671
0
LINE
8
Black
10
202.363
20
-185.671
11
202.363
21
-186.1
0
LINE
8
Black
10
202.363
20
-186.1
11
202.291
21
-186.243
0
LINE
8
Black
10
202.291
20
-186.243
11
202.22
21
-186.314
0
LINE
8
Black
10
202.22
20
-186.314
11
202.077
21
-186.386
0
LINE
8
Black
10
202.077
20
-186.386
11
201.791
21
-186.386
0
LINE
8
Black
10
201.791
20
-186.386
11
201.649
21
-186.314
0
LINE
8
Black
10
177.002
20
-181.507
11
285.002
21
-181.507
0
LINE
8
Black
10
178.363
20
-183.614
11
178.577
21
-183.686
0
LINE
8
Black
10
178.577
20
-183.686
11
178.934
21
-183.686
0
LINE
8
Black
10
178.934
20
-183.686
11
179.077
21
-183.614
0
LINE
8
Black
10
179.077
20
-183.614
11
179.149
21
-183.543
0
LINE
8
Black
10
179.149
20
-183.543
11
179.22
21
-183.4
0
LINE
8
Black
10
179.22
20
-183.4
11
179.22
21
-183.257
0
LINE
8
Black
10
179.22
20
-183.257
11
179.149
21
-183.114
0
LINE
8
Black
10
179.149
20
-183.114
11
179.077
21
-183.043
0
LINE
8
Black
10
179.077
20
-183.043
11
178.934
21
-182.971
0
LINE
8
Black
10
178.934
20
-182.971
11
178.649
21
-182.9
0
LINE
8
Black
10
178.649
20
-182.9
11
178.506
21
-182.829
0
LINE
8
Black
10
178.506
20
-182.829
11
178.434
21
-182.757
0
LINE
8
Black
10
178.434
20
-182.757
11
178.363
21
-182.614
0
LINE
8
Black
10
178.363
20
-182.614
11
178.363
21
-182.471
0
LINE
8
Black
10
178.363
20
-182.471
11
178.434
21
-182.329
0
LINE
8
Black
10
178.434
20
-182.329
11
178.506
21
-182.257
0
LINE
8
Black
10
178.506
20
-182.257
11
178.649
21
-182.186
0
LINE
8
Black
10
178.649
20
-182.186
11
179.006
21
-182.186
0
LINE
8
Black
10
179.006
20
-182.186
11
179.22
21
-182.257
0
LINE
8
Black
10
179.863
20
-183.686
11
179.863
21
-182.186
0
LINE
8
Black
10
180.506
20
-183.686
11
180.506
21
-182.9
0
LINE
8
Black
10
180.506
20
-182.9
11
180.434
21
-182.757
0
LINE
8
Black
10
180.434
20
-182.757
11
180.291
21
-182.686
0
LINE
8
Black
10
180.291
20
-182.686
11
180.077
21
-182.686
0
LINE
8
Black
10
180.077
20
-182.686
11
179.934
21
-182.757
0
LINE
8
Black
10
179.934
20
-182.757
11
179.863
21
-182.829
0
LINE
8
Black
10
181.791
20
-183.614
11
181.649
21
-183.686
0
LINE
8
Black
10
181.649
20
-183.686
11
181.363
21
-183.686
0
LINE
8
Black
10
181.363
20
-183.686
11
181.22
21
-183.614
0
LINE
8
Black
10
181.22
20
-183.614
11
181.149
21
-183.471
0
LINE
8
Black
10
181.149
20
-183.471
11
181.149
21
-182.9
0
LINE
8
Black
10
181.149
20
-182.9
11
181.22
21
-182.757
0
LINE
8
Black
10
181.22
20
-182.757
11
181.363
21
-182.686
0
LINE
8
Black
10
181.363
20
-182.686
11
181.649
21
-182.686
0
LINE
8
Black
10
181.649
20
-182.686
11
181.791
21
-182.757
0
LINE
8
Black
10
181.791
20
-182.757
11
181.863
21
-182.9
0
LINE
8
Black
10
181.863
20
-182.9
11
181.863
21
-183.043
0
LINE
8
Black
10
181.863
20
-183.043
11
181.149
21
-183.186
0
LINE
8
Black
10
183.077
20
-183.614
11
182.934
21
-183.686
0
LINE
8
Black
10
182.934
20
-183.686
11
182.649
21
-183.686
0
LINE
8
Black
10
182.649
20
-183.686
11
182.506
21
-183.614
0
LINE
8
Black
10
182.506
20
-183.614
11
182.434
21
-183.471
0
LINE
8
Black
10
182.434
20
-183.471
11
182.434
21
-182.9
0
LINE
8
Black
10
182.434
20
-182.9
11
182.506
21
-182.757
0
LINE
8
Black
10
182.506
20
-182.757
11
182.649
21
-182.686
0
LINE
8
Black
10
182.649
20
-182.686
11
182.934
21
-182.686
0
LINE
8
Black
10
182.934
20
-182.686
11
183.077
21
-182.757
0
LINE
8
Black
10
183.077
20
-182.757
11
183.149
21
-182.9
0
LINE
8
Black
10
183.149
20
-182.9
11
183.149
21
-183.043
0
LINE
8
Black
10
183.149
20
-183.043
11
182.434
21
-183.186
0
LINE
8
Black
10
183.577
20
-182.686
11
184.149
21
-182.686
0
LINE
8
Black
10
183.791
20
-182.186
11
183.791
21
-183.471
0
LINE
8
Black
10
183.791
20
-183.471
11
183.863
21
-183.614
0
LINE
8
Black
10
183.863
20
-183.614
11
184.006
21
-183.686
0
LINE
8
Black
10
184.006
20
-183.686
11
184.149
21
-183.686
0
LINE
8
Black
10
184.649
20
-183.543
11
184.72
21
-183.614
0
LINE
8
Black
10
184.72
20
-183.614
11
184.649
21
-183.686
0
LINE
8
Black
10
184.649
20
-183.686
11
184.577
21
-183.614
0
LINE
8
Black
10
184.577
20
-183.614
11
184.649
21
-183.543
0
LINE
8
Black
10
184.649
20
-183.543
11
184.649
21
-183.686
0
LINE
8
Black
10
184.649
20
-182.757
11
184.72
21
-182.829
0
LINE
8
Black
10
184.72
20
-182.829
11
184.649
21
-182.9
0
LINE
8
Black
10
184.649
20
-182.9
11
184.577
21
-182.829
0
LINE
8
Black
10
184.577
20
-182.829
11
184.649
21
-182.757
0
LINE
8
Black
10
184.649
20
-182.757
11
184.649
21
-182.9
0
LINE
8
Black
10
197.002
20
-191.507
11
197.002
21
-194.507
0
LINE
8
Black
10
261.002
20
-191.507
11
261.002
21
-198.007
0
LINE
8
Black
10
208.009
20
-49.9015
11
208.017
21
-49.9015
0
LINE
8
Black
10
208.017
20
-49.9015
11
210.069
21
-50.2634
0
LINE
8
Black
10
210.069
20
-50.2634
11
210.102
21
-50.2752
0
LINE
8
Black
10
210.102
20
-50.2752
11
211.907
21
-51.3171
0
LINE
8
Black
10
211.907
20
-51.3171
11
211.933
21
-51.3395
0
LINE
8
Black
10
211.933
20
-51.3395
11
213.273
21
-52.9357
0
LINE
8
Black
10
213.273
20
-52.9357
11
213.29
21
-52.9658
0
LINE
8
Black
10
213.29
20
-52.9658
11
214.003
21
-54.9239
0
LINE
8
Black
10
214.003
20
-54.9239
11
214.005
21
-54.9368
0
LINE
8
Black
10
214.005
20
-54.9368
11
214.008
21
-54.9494
0
LINE
8
Black
10
214.008
20
-54.9494
11
214.1
21
-55.9913
0
LINE
8
Black
10
214.1
20
-55.9913
11
214.099
21
-55.9957
0
LINE
8
Black
10
214.099
20
-55.9957
11
214.1
21
-56
0
LINE
8
Black
10
214.1
20
-56
11
214.1
21
-106
0
LINE
8
Black
10
214.1
20
-106
11
214.098
21
-106.009
0
LINE
8
Black
10
214.098
20
-106.009
11
214.098
21
-106.017
0
LINE
8
Black
10
214.098
20
-106.017
11
213.737
21
-108.069
0
LINE
8
Black
10
213.737
20
-108.069
11
213.725
21
-108.102
0
LINE
8
Black
10
213.725
20
-108.102
11
212.683
21
-109.907
0
LINE
8
Black
10
212.683
20
-109.907
11
212.661
21
-109.933
0
LINE
8
Black
10
212.661
20
-109.933
11
211.064
21
-111.273
0
LINE
8
Black
10
211.064
20
-111.273
11
211.034
21
-111.29
0
LINE
8
Black
10
211.034
20
-111.29
11
209.076
21
-112.003
0
LINE
8
Black
10
209.076
20
-112.003
11
209.063
21
-112.005
0
LINE
8
Black
10
209.063
20
-112.005
11
209.051
21
-112.008
0
LINE
8
Black
10
209.051
20
-112.008
11
208.009
21
-112.1
0
LINE
8
Black
10
208.009
20
-112.1
11
208.004
21
-112.099
0
LINE
8
Black
10
208.004
20
-112.099
11
208
21
-112.1
0
LINE
8
Black
10
208
20
-112.1
11
117.9
21
-112.1
0
LINE
8
Black
10
117.9
20
-112.1
11
117.891
21
-112.098
0
LINE
8
Black
10
117.891
20
-112.098
11
117.883
21
-112.098
0
LINE
8
Black
10
117.883
20
-112.098
11
117.874
21
-112.095
0
LINE
8
Black
10
117.874
20
-112.095
11
117.866
21
-112.094
0
LINE
8
Black
10
117.866
20
-112.094
11
117.858
21
-112.09
0
LINE
8
Black
10
117.858
20
-112.09
11
117.85
21
-112.087
0
LINE
8
Black
10
117.85
20
-112.087
11
117.843
21
-112.081
0
LINE
8
Black
10
117.843
20
-112.081
11
117.836
21
-112.077
0
LINE
8
Black
10
117.836
20
-112.077
11
117.83
21
-112.07
0
LINE
8
Black
10
117.83
20
-112.07
11
117.823
21
-112.064
0
LINE
8
Black
10
117.823
20
-112.064
11
117.819
21
-112.057
0
LINE
8
Black
10
117.819
20
-112.057
11
117.813
21
-112.05
0
LINE
8
Black
10
117.813
20
-112.05
11
117.81
21
-112.042
0
LINE
8
Black
10
117.81
20
-112.042
11
117.806
21
-112.034
0
LINE
8
Black
10
117.806
20
-112.034
11
117.805
21
-112.026
0
LINE
8
Black
10
117.805
20
-112.026
11
117.802
21
-112.017
0
LINE
8
Black
10
117.802
20
-112.017
11
117.802
21
-112.009
0
LINE
8
Black
10
117.802
20
-112.009
11
117.8
21
-112
0
LINE
8
Black
10
117.8
20
-112
11
117.8
21
-106.1
0
LINE
8
Black
10
117.8
20
-106.1
11
110.2
21
-106.1
0
LINE
8
Black
10
110.2
20
-106.1
11
110.2
21
-112
0
LINE
8
Black
10
110.2
20
-112
11
110.198
21
-112.009
0
LINE
8
Black
10
110.198
20
-112.009
11
110.198
21
-112.017
0
LINE
8
Black
10
110.198
20
-112.017
11
110.195
21
-112.026
0
LINE
8
Black
10
110.195
20
-112.026
11
110.194
21
-112.034
0
LINE
8
Black
10
110.194
20
-112.034
11
110.19
21
-112.042
0
LINE
8
Black
10
110.19
20
-112.042
11
110.187
21
-112.05
0
LINE
8
Black
10
110.187
20
-112.05
11
110.181
21
-112.057
0
LINE
8
Black
10
110.181
20
-112.057
11
110.177
21
-112.064
0
LINE
8
Black
10
110.177
20
-112.064
11
110.17
21
-112.07
0
LINE
8
Black
10
110.17
20
-112.07
11
110.164
21
-112.077
0
LINE
8
Black
10
110.164
20
-112.077
11
110.157
21
-112.081
0
LINE
8
Black
10
110.157
20
-112.081
11
110.15
21
-112.087
0
LINE
8
Black
10
110.15
20
-112.087
11
110.142
21
-112.09
0
LINE
8
Black
10
110.142
20
-112.09
11
110.134
21
-112.094
0
LINE
8
Black
10
110.134
20
-112.094
11
110.126
21
-112.095
0
LINE
8
Black
10
110.126
20
-112.095
11
110.117
21
-112.098
0
LINE
8
Black
10
110.117
20
-112.098
11
110.109
21
-112.098
0
LINE
8
Black
10
110.109
20
-112.098
11
110.1
21
-112.1
0
LINE
8
Black
10
110.1
20
-112.1
11
106
21
-112.1
0
LINE
8
Black
10
106
20
-112.1
11
105.991
21
-112.098
0
LINE
8
Black
10
105.991
20
-112.098
11
105.983
21
-112.098
0
LINE
8
Black
10
105.983
20
-112.098
11
103.931
21
-111.737
0
LINE
8
Black
10
103.931
20
-111.737
11
103.898
21
-111.725
0
LINE
8
Black
10
103.898
20
-111.725
11
102.093
21
-110.683
0
LINE
8
Black
10
102.093
20
-110.683
11
102.067
21
-110.661
0
LINE
8
Black
10
102.067
20
-110.661
11
100.727
21
-109.064
0
LINE
8
Black
10
100.727
20
-109.064
11
100.71
21
-109.034
0
LINE
8
Black
10
100.71
20
-109.034
11
99.9972
21
-107.076
0
LINE
8
Black
10
99.9972
20
-107.076
11
99.9949
21
-107.063
0
LINE
8
Black
10
99.9949
20
-107.063
11
99.9915
21
-107.051
0
LINE
8
Black
10
99.9915
20
-107.051
11
99.9004
21
-106.009
0
LINE
8
Black
10
99.9004
20
-106.009
11
99.9008
21
-106.004
0
LINE
8
Black
10
99.9008
20
-106.004
11
99.9
21
-106
0
LINE
8
Black
10
99.9
20
-106
11
99.9
21
-56
0
LINE
8
Black
10
99.9
20
-56
11
99.9015
21
-55.9914
0
LINE
8
Black
10
99.9015
20
-55.9914
11
99.9015
21
-55.9826
0
LINE
8
Black
10
99.9015
20
-55.9826
11
100.263
21
-53.9305
0
LINE
8
Black
10
100.263
20
-53.9305
11
100.275
21
-53.8979
0
LINE
8
Black
10
100.275
20
-53.8979
11
101.317
21
-52.0933
0
LINE
8
Black
10
101.317
20
-52.0933
11
101.339
21
-52.0667
0
LINE
8
Black
10
101.339
20
-52.0667
11
102.936
21
-50.7272
0
LINE
8
Black
10
102.936
20
-50.7272
11
102.966
21
-50.7099
0
LINE
8
Black
10
102.966
20
-50.7099
11
104.924
21
-49.9972
0
LINE
8
Black
10
104.924
20
-49.9972
11
104.937
21
-49.9949
0
LINE
8
Black
10
104.937
20
-49.9949
11
104.949
21
-49.9915
0
LINE
8
Black
10
104.949
20
-49.9915
11
105.991
21
-49.9004
0
LINE
8
Black
10
105.991
20
-49.9004
11
105.996
21
-49.9008
0
LINE
8
Black
10
105.996
20
-49.9008
11
106
21
-49.9
0
LINE
8
Black
10
106
20
-49.9
11
208
21
-49.9
0
LINE
8
Black
10
208
20
-49.9
11
208.009
21
-49.9015
0
LINE
8
Black
10
106.004
20
-50.1
11
104.98
21
-50.1896
0
LINE
8
Black
10
104.98
20
-50.1896
11
103.051
21
-50.8918
0
LINE
8
Black
10
103.051
20
-50.8918
11
101.482
21
-52.2085
0
LINE
8
Black
10
101.482
20
-52.2085
11
100.457
21
-53.9826
0
LINE
8
Black
10
100.457
20
-53.9826
11
100.1
21
-56.0087
0
LINE
8
Black
10
100.1
20
-56.0087
11
100.1
21
-105.996
0
LINE
8
Black
10
100.1
20
-105.996
11
100.19
21
-107.02
0
LINE
8
Black
10
100.19
20
-107.02
11
100.892
21
-108.949
0
LINE
8
Black
10
100.892
20
-108.949
11
102.209
21
-110.518
0
LINE
8
Black
10
102.209
20
-110.518
11
103.983
21
-111.543
0
LINE
8
Black
10
103.983
20
-111.543
11
106.009
21
-111.9
0
LINE
8
Black
10
106.009
20
-111.9
11
110
21
-111.9
0
LINE
8
Black
10
110
20
-111.9
11
110
21
-106
0
LINE
8
Black
10
110
20
-106
11
110.002
21
-105.991
0
LINE
8
Black
10
110.002
20
-105.991
11
110.002
21
-105.983
0
LINE
8
Black
10
110.002
20
-105.983
11
110.005
21
-105.974
0
LINE
8
Black
10
110.005
20
-105.974
11
110.006
21
-105.966
0
LINE
8
Black
10
110.006
20
-105.966
11
110.01
21
-105.958
0
LINE
8
Black
10
110.01
20
-105.958
11
110.013
21
-105.95
0
LINE
8
Black
10
110.013
20
-105.95
11
110.019
21
-105.943
0
LINE
8
Black
10
110.019
20
-105.943
11
110.023
21
-105.936
0
LINE
8
Black
10
110.023
20
-105.936
11
110.03
21
-105.93
0
LINE
8
Black
10
110.03
20
-105.93
11
110.036
21
-105.923
0
LINE
8
Black
10
110.036
20
-105.923
11
110.043
21
-105.919
0
LINE
8
Black
10
110.043
20
-105.919
11
110.05
21
-105.913
0
LINE
8
Black
10
110.05
20
-105.913
11
110.058
21
-105.91
0
LINE
8
Black
10
110.058
20
-105.91
11
110.066
21
-105.906
0
LINE
8
Black
10
110.066
20
-105.906
11
110.074
21
-105.905
0
LINE
8
Black
10
110.074
20
-105.905
11
110.083
21
-105.902
0
LINE
8
Black
10
110.083
20
-105.902
11
110.091
21
-105.902
0
LINE
8
Black
10
110.091
20
-105.902
11
110.1
21
-105.9
0
LINE
8
Black
10
110.1
20
-105.9
11
117.9
21
-105.9
0
LINE
8
Black
10
117.9
20
-105.9
11
117.909
21
-105.902
0
LINE
8
Black
10
117.909
20
-105.902
11
117.917
21
-105.902
0
LINE
8
Black
10
117.917
20
-105.902
11
117.926
21
-105.905
0
LINE
8
Black
10
117.926
20
-105.905
11
117.934
21
-105.906
0
LINE
8
Black
10
117.934
20
-105.906
11
117.942
21
-105.91
0
LINE
8
Black
10
117.942
20
-105.91
11
117.95
21
-105.913
0
LINE
8
Black
10
117.95
20
-105.913
11
117.957
21
-105.919
0
LINE
8
Black
10
117.957
20
-105.919
11
117.964
21
-105.923
0
LINE
8
Black
10
117.964
20
-105.923
11
117.97
21
-105.93
0
LINE
8
Black
10
117.97
20
-105.93
11
117.977
21
-105.936
0
LINE
8
Black
10
117.977
20
-105.936
11
117.981
21
-105.943
0
LINE
8
Black
10
117.981
20
-105.943
11
117.987
21
-105.95
0
LINE
8
Black
10
117.987
20
-105.95
11
117.99
21
-105.958
0
LINE
8
Black
10
117.99
20
-105.958
11
117.994
21
-105.966
0
LINE
8
Black
10
117.994
20
-105.966
11
117.995
21
-105.974
0
LINE
8
Black
10
117.995
20
-105.974
11
117.998
21
-105.983
0
LINE
8
Black
10
117.998
20
-105.983
11
117.998
21
-105.991
0
LINE
8
Black
10
117.998
20
-105.991
11
118
21
-106
0
LINE
8
Black
10
118
20
-106
11
118
21
-111.9
0
LINE
8
Black
10
118
20
-111.9
11
207.996
21
-111.9
0
LINE
8
Black
10
207.996
20
-111.9
11
209.02
21
-111.81
0
LINE
8
Black
10
209.02
20
-111.81
11
210.949
21
-111.108
0
LINE
8
Black
10
210.949
20
-111.108
11
212.518
21
-109.791
0
LINE
8
Black
10
212.518
20
-109.791
11
213.543
21
-108.017
0
LINE
8
Black
10
213.543
20
-108.017
11
213.9
21
-105.991
0
LINE
8
Black
10
213.9
20
-105.991
11
213.9
21
-56.0044
0
LINE
8
Black
10
213.9
20
-56.0044
11
213.81
21
-54.9799
0
LINE
8
Black
10
213.81
20
-54.9799
11
213.108
21
-53.0508
0
LINE
8
Black
10
213.108
20
-53.0508
11
211.791
21
-51.4815
0
LINE
8
Black
10
211.791
20
-51.4815
11
210.017
21
-50.4573
0
LINE
8
Black
10
210.017
20
-50.4573
11
207.991
21
-50.1
0
LINE
8
Black
10
207.991
20
-50.1
11
106.004
21
-50.1
0
LINE
8
Black
10
199.817
20
-106.789
11
199.325
21
-107.202
0
LINE
8
Black
10
199.325
20
-107.202
11
198.721
21
-107.422
0
LINE
8
Black
10
198.721
20
-107.422
11
198.079
21
-107.422
0
LINE
8
Black
10
198.079
20
-107.422
11
197.475
21
-107.202
0
LINE
8
Black
10
197.475
20
-107.202
11
196.983
21
-106.789
0
LINE
8
Black
10
196.983
20
-106.789
11
196.662
21
-106.233
0
LINE
8
Black
10
196.662
20
-106.233
11
196.55
21
-105.6
0
LINE
8
Black
10
196.55
20
-105.6
11
196.662
21
-104.967
0
LINE
8
Black
10
196.662
20
-104.967
11
196.983
21
-104.411
0
LINE
8
Black
10
196.983
20
-104.411
11
197.475
21
-103.998
0
LINE
8
Black
10
197.475
20
-103.998
11
198.079
21
-103.778
0
LINE
8
Black
10
198.079
20
-103.778
11
198.721
21
-103.778
0
LINE
8
Black
10
198.721
20
-103.778
11
199.325
21
-103.998
0
LINE
8
Black
10
199.325
20
-103.998
11
199.817
21
-104.411
0
LINE
8
Black
10
199.817
20
-104.411
11
200.138
21
-104.967
0
LINE
8
Black
10
200.138
20
-104.967
11
200.25
21
-105.6
0
LINE
8
Black
10
200.25
20
-105.6
11
200.138
21
-106.233
0
LINE
8
Black
10
200.138
20
-106.233
11
199.817
21
-106.789
0
LINE
8
Black
10
199.741
20
-104.475
11
199.275
21
-104.084
0
LINE
8
Black
10
199.275
20
-104.084
11
198.704
21
-103.877
0
LINE
8
Black
10
198.704
20
-103.877
11
198.096
21
-103.877
0
LINE
8
Black
10
198.096
20
-103.877
11
197.525
21
-104.084
0
LINE
8
Black
10
197.525
20
-104.084
11
197.059
21
-104.475
0
LINE
8
Black
10
197.059
20
-104.475
11
196.756
21
-105.001
0
LINE
8
Black
10
196.756
20
-105.001
11
196.65
21
-105.6
0
LINE
8
Black
10
196.65
20
-105.6
11
196.756
21
-106.199
0
LINE
8
Black
10
196.756
20
-106.199
11
197.059
21
-106.725
0
LINE
8
Black
10
197.059
20
-106.725
11
197.525
21
-107.116
0
LINE
8
Black
10
197.525
20
-107.116
11
198.096
21
-107.323
0
LINE
8
Black
10
198.096
20
-107.323
11
198.704
21
-107.323
0
LINE
8
Black
10
198.704
20
-107.323
11
199.275
21
-107.116
0
LINE
8
Black
10
199.275
20
-107.116
11
199.741
21
-106.725
0
LINE
8
Black
10
199.741
20
-106.725
11
200.044
21
-106.199
0
LINE
8
Black
10
200.044
20
-106.199
11
200.15
21
-105.6
0
LINE
8
Black
10
200.15
20
-105.6
11
200.044
21
-105.001
0
LINE
8
Black
10
200.044
20
-105.001
11
199.741
21
-104.475
0
LINE
8
Black
10
106.417
20
-103.189
11
105.925
21
-103.602
0
LINE
8
Black
10
105.925
20
-103.602
11
105.321
21
-103.822
0
LINE
8
Black
10
105.321
20
-103.822
11
104.679
21
-103.822
0
LINE
8
Black
10
104.679
20
-103.822
11
104.075
21
-103.602
0
LINE
8
Black
10
104.075
20
-103.602
11
103.583
21
-103.189
0
LINE
8
Black
10
103.583
20
-103.189
11
103.262
21
-102.633
0
LINE
8
Black
10
103.262
20
-102.633
11
103.15
21
-102
0
LINE
8
Black
10
103.15
20
-102
11
103.262
21
-101.367
0
LINE
8
Black
10
103.262
20
-101.367
11
103.583
21
-100.811
0
LINE
8
Black
10
103.583
20
-100.811
11
104.075
21
-100.398
0
LINE
8
Black
10
104.075
20
-100.398
11
104.679
21
-100.178
0
LINE
8
Black
10
104.679
20
-100.178
11
105.321
21
-100.178
0
LINE
8
Black
10
105.321
20
-100.178
11
105.925
21
-100.398
0
LINE
8
Black
10
105.925
20
-100.398
11
106.417
21
-100.811
0
LINE
8
Black
10
106.417
20
-100.811
11
106.738
21
-101.367
0
LINE
8
Black
10
106.738
20
-101.367
11
106.85
21
-102
0
LINE
8
Black
10
106.85
20
-102
11
106.738
21
-102.633
0
LINE
8
Black
10
106.738
20
-102.633
11
106.417
21
-103.189
0
LINE
8
Black
10
106.341
20
-100.875
11
105.875
21
-100.484
0
LINE
8
Black
10
105.875
20
-100.484
11
105.304
21
-100.277
0
LINE
8
Black
10
105.304
20
-100.277
11
104.696
21
-100.277
0
LINE
8
Black
10
104.696
20
-100.277
11
104.125
21
-100.484
0
LINE
8
Black
10
104.125
20
-100.484
11
103.659
21
-100.875
0
LINE
8
Black
10
103.659
20
-100.875
11
103.356
21
-101.401
0
LINE
8
Black
10
103.356
20
-101.401
11
103.25
21
-102
0
LINE
8
Black
10
103.25
20
-102
11
103.356
21
-102.599
0
LINE
8
Black
10
103.356
20
-102.599
11
103.659
21
-103.125
0
LINE
8
Black
10
103.659
20
-103.125
11
104.125
21
-103.516
0
LINE
8
Black
10
104.125
20
-103.516
11
104.696
21
-103.723
0
LINE
8
Black
10
104.696
20
-103.723
11
105.304
21
-103.723
0
LINE
8
Black
10
105.304
20
-103.723
11
105.875
21
-103.516
0
LINE
8
Black
10
105.875
20
-103.516
11
106.341
21
-103.125
0
LINE
8
Black
10
106.341
20
-103.125
11
106.644
21
-102.599
0
LINE
8
Black
10
106.644
20
-102.599
11
106.75
21
-102
0
LINE
8
Black
10
106.75
20
-102
11
106.644
21
-101.401
0
LINE
8
Black
10
106.644
20
-101.401
11
106.341
21
-100.875
0
LINE
8
Black
10
200.004
20
-66.8508
11
200.009
21
-66.8508
0
LINE
8
Black
10
200.009
20
-66.8508
11
200.013
21
-66.8523
0
LINE
8
Black
10
200.013
20
-66.8523
11
200.017
21
-66.853
0
LINE
8
Black
10
200.017
20
-66.853
11
200.021
21
-66.8552
0
LINE
8
Black
10
200.021
20
-66.8552
11
200.025
21
-66.8567
0
LINE
8
Black
10
200.025
20
-66.8567
11
200.028
21
-66.8595
0
LINE
8
Black
10
200.028
20
-66.8595
11
200.032
21
-66.8617
0
LINE
8
Black
10
200.032
20
-66.8617
11
200.035
21
-66.865
0
LINE
8
Black
10
200.035
20
-66.865
11
200.038
21
-66.8679
0
LINE
8
Black
10
200.038
20
-66.8679
11
200.04
21
-66.8716
0
LINE
8
Black
10
200.04
20
-66.8716
11
200.043
21
-66.875
0
LINE
8
Black
10
200.043
20
-66.875
11
200.045
21
-66.8791
0
LINE
8
Black
10
200.045
20
-66.8791
11
200.047
21
-66.8829
0
LINE
8
Black
10
200.047
20
-66.8829
11
200.048
21
-66.8872
0
LINE
8
Black
10
200.048
20
-66.8872
11
200.049
21
-66.8913
0
LINE
8
Black
10
200.049
20
-66.8913
11
200.049
21
-66.8957
0
LINE
8
Black
10
200.049
20
-66.8957
11
200.05
21
-66.9
0
LINE
8
Black
10
200.05
20
-66.9
11
200.05
21
-101.9
0
LINE
8
Black
10
200.05
20
-101.9
11
200.049
21
-101.904
0
LINE
8
Black
10
200.049
20
-101.904
11
200.049
21
-101.909
0
LINE
8
Black
10
200.049
20
-101.909
11
200.048
21
-101.913
0
LINE
8
Black
10
200.048
20
-101.913
11
200.047
21
-101.917
0
LINE
8
Black
10
200.047
20
-101.917
11
200.045
21
-101.921
0
LINE
8
Black
10
200.045
20
-101.921
11
200.043
21
-101.925
0
LINE
8
Black
10
200.043
20
-101.925
11
200.04
21
-101.928
0
LINE
8
Black
10
200.04
20
-101.928
11
200.038
21
-101.932
0
LINE
8
Black
10
200.038
20
-101.932
11
200.035
21
-101.935
0
LINE
8
Black
10
200.035
20
-101.935
11
200.032
21
-101.938
0
LINE
8
Black
10
200.032
20
-101.938
11
200.028
21
-101.94
0
LINE
8
Black
10
200.028
20
-101.94
11
200.025
21
-101.943
0
LINE
8
Black
10
200.025
20
-101.943
11
200.021
21
-101.945
0
LINE
8
Black
10
200.021
20
-101.945
11
200.017
21
-101.947
0
LINE
8
Black
10
200.017
20
-101.947
11
200.013
21
-101.948
0
LINE
8
Black
10
200.013
20
-101.948
11
200.009
21
-101.949
0
LINE
8
Black
10
200.009
20
-101.949
11
200.004
21
-101.949
0
LINE
8
Black
10
200.004
20
-101.949
11
200
21
-101.95
0
LINE
8
Black
10
200
20
-101.95
11
144
21
-101.95
0
LINE
8
Black
10
144
20
-101.95
11
143.996
21
-101.949
0
LINE
8
Black
10
143.996
20
-101.949
11
143.991
21
-101.949
0
LINE
8
Black
10
143.991
20
-101.949
11
143.987
21
-101.948
0
LINE
8
Black
10
143.987
20
-101.948
11
143.983
21
-101.947
0
LINE
8
Black
10
143.983
20
-101.947
11
143.979
21
-101.945
0
LINE
8
Black
10
143.979
20
-101.945
11
143.975
21
-101.943
0
LINE
8
Black
10
143.975
20
-101.943
11
143.972
21
-101.94
0
LINE
8
Black
10
143.972
20
-101.94
11
143.968
21
-101.938
0
LINE
8
Black
10
143.968
20
-101.938
11
143.965
21
-101.935
0
LINE
8
Black
10
143.965
20
-101.935
11
143.962
21
-101.932
0
LINE
8
Black
10
143.962
20
-101.932
11
143.96
21
-101.928
0
LINE
8
Black
10
143.96
20
-101.928
11
143.957
21
-101.925
0
LINE
8
Black
10
143.957
20
-101.925
11
143.955
21
-101.921
0
LINE
8
Black
10
143.955
20
-101.921
11
143.953
21
-101.917
0
LINE
8
Black
10
143.953
20
-101.917
11
143.952
21
-101.913
0
LINE
8
Black
10
143.952
20
-101.913
11
143.951
21
-101.909
0
LINE
8
Black
10
143.951
20
-101.909
11
143.951
21
-101.904
0
LINE
8
Black
10
143.951
20
-101.904
11
143.95
21
-101.9
0
LINE
8
Black
10
143.95
20
-101.9
11
143.95
21
-66.9
0
LINE
8
Black
10
143.95
20
-66.9
11
143.951
21
-66.8957
0
LINE
8
Black
10
143.951
20
-66.8957
11
143.951
21
-66.8913
0
LINE
8
Black
10
143.951
20
-66.8913
11
143.952
21
-66.8872
0
LINE
8
Black
10
143.952
20
-66.8872
11
143.953
21
-66.8829
0
LINE
8
Black
10
143.953
20
-66.8829
11
143.955
21
-66.8791
0
LINE
8
Black
10
143.955
20
-66.8791
11
143.957
21
-66.875
0
LINE
8
Black
10
143.957
20
-66.875
11
143.96
21
-66.8716
0
LINE
8
Black
10
143.96
20
-66.8716
11
143.962
21
-66.8679
0
LINE
8
Black
10
143.962
20
-66.8679
11
143.965
21
-66.865
0
LINE
8
Black
10
143.965
20
-66.865
11
143.968
21
-66.8617
0
LINE
8
Black
10
143.968
20
-66.8617
11
143.972
21
-66.8595
0
LINE
8
Black
10
143.972
20
-66.8595
11
143.975
21
-66.8567
0
LINE
8
Black
10
143.975
20
-66.8567
11
143.979
21
-66.8552
0
LINE
8
Black
10
143.979
20
-66.8552
11
143.983
21
-66.853
0
LINE
8
Black
10
143.983
20
-66.853
11
143.987
21
-66.8523
0
LINE
8
Black
10
143.987
20
-66.8523
11
143.991
21
-66.8508
0
LINE
8
Black
10
143.991
20
-66.8508
11
143.996
21
-66.8508
0
LINE
8
Black
10
143.996
20
-66.8508
11
144
21
-66.85
0
LINE
8
Black
10
144
20
-66.85
11
200
21
-66.85
0
LINE
8
Black
10
200
20
-66.85
11
200.004
21
-66.8508
0
LINE
8
Black
10
144.05
20
-66.95
11
144.05
21
-101.85
0
LINE
8
Black
10
144.05
20
-101.85
11
199.95
21
-101.85
0
LINE
8
Black
10
199.95
20
-101.85
11
199.95
21
-66.95
0
LINE
8
Black
10
199.95
20
-66.95
11
144.05
21
-66.95
0
LINE
8
Black
10
199.817
20
-64.3892
11
199.325
21
-64.8021
0
LINE
8
Black
10
199.325
20
-64.8021
11
198.721
21
-65.0219
0
LINE
8
Black
10
198.721
20
-65.0219
11
198.079
21
-65.0219
0
LINE
8
Black
10
198.079
20
-65.0219
11
197.475
21
-64.8021
0
LINE
8
Black
10
197.475
20
-64.8021
11
196.983
21
-64.3892
0
LINE
8
Black
10
196.983
20
-64.3892
11
196.662
21
-63.8327
0
LINE
8
Black
10
196.662
20
-63.8327
11
196.55
21
-63.2
0
LINE
8
Black
10
196.55
20
-63.2
11
196.662
21
-62.5673
0
LINE
8
Black
10
196.662
20
-62.5673
11
196.983
21
-62.0108
0
LINE
8
Black
10
196.983
20
-62.0108
11
197.475
21
-61.5979
0
LINE
8
Black
10
197.475
20
-61.5979
11
198.079
21
-61.3781
0
LINE
8
Black
10
198.079
20
-61.3781
11
198.721
21
-61.3781
0
LINE
8
Black
10
198.721
20
-61.3781
11
199.325
21
-61.5979
0
LINE
8
Black
10
199.325
20
-61.5979
11
199.817
21
-62.0108
0
LINE
8
Black
10
199.817
20
-62.0108
11
200.138
21
-62.5673
0
LINE
8
Black
10
200.138
20
-62.5673
11
200.25
21
-63.2
0
LINE
8
Black
10
200.25
20
-63.2
11
200.138
21
-63.8327
0
LINE
8
Black
10
200.138
20
-63.8327
11
199.817
21
-64.3892
0
LINE
8
Black
10
199.741
20
-62.0751
11
199.275
21
-61.6845
0
LINE
8
Black
10
199.275
20
-61.6845
11
198.704
21
-61.4766
0
LINE
8
Black
10
198.704
20
-61.4766
11
198.096
21
-61.4766
0
LINE
8
Black
10
198.096
20
-61.4766
11
197.525
21
-61.6845
0
LINE
8
Black
10
197.525
20
-61.6845
11
197.059
21
-62.0751
0
LINE
8
Black
10
197.059
20
-62.0751
11
196.756
21
-62.6015
0
LINE
8
Black
10
196.756
20
-62.6015
11
196.65
21
-63.2
0
LINE
8
Black
10
196.65
20
-63.2
11
196.756
21
-63.7985
0
LINE
8
Black
10
196.756
20
-63.7985
11
197.059
21
-64.3249
0
LINE
8
Black
10
197.059
20
-64.3249
11
197.525
21
-64.7155
0
LINE
8
Black
10
197.525
20
-64.7155
11
198.096
21
-64.9234
0
LINE
8
Black
10
198.096
20
-64.9234
11
198.704
21
-64.9234
0
LINE
8
Black
10
198.704
20
-64.9234
11
199.275
21
-64.7155
0
LINE
8
Black
10
199.275
20
-64.7155
11
199.741
21
-64.3249
0
LINE
8
Black
10
199.741
20
-64.3249
11
200.044
21
-63.7985
0
LINE
8
Black
10
200.044
20
-63.7985
11
200.15
21
-63.2
0
LINE
8
Black
10
200.15
20
-63.2
11
200.044
21
-62.6015
0
LINE
8
Black
10
200.044
20
-62.6015
11
199.741
21
-62.0751
0
LINE
8
Black
10
106.417
20
-61.1892
11
105.925
21
-61.6021
0
LINE
8
Black
10
105.925
20
-61.6021
11
105.321
21
-61.8219
0
LINE
8
Black
10
105.321
20
-61.8219
11
104.679
21
-61.8219
0
LINE
8
Black
10
104.679
20
-61.8219
11
104.075
21
-61.6021
0
LINE
8
Black
10
104.075
20
-61.6021
11
103.583
21
-61.1892
0
LINE
8
Black
10
103.583
20
-61.1892
11
103.262
21
-60.6327
0
LINE
8
Black
10
103.262
20
-60.6327
11
103.15
21
-60
0
LINE
8
Black
10
103.15
20
-60
11
103.262
21
-59.3673
0
LINE
8
Black
10
103.262
20
-59.3673
11
103.583
21
-58.8108
0
LINE
8
Black
10
103.583
20
-58.8108
11
104.075
21
-58.3979
0
LINE
8
Black
10
104.075
20
-58.3979
11
104.679
21
-58.1781
0
LINE
8
Black
10
104.679
20
-58.1781
11
105.321
21
-58.1781
0
LINE
8
Black
10
105.321
20
-58.1781
11
105.925
21
-58.3979
0
LINE
8
Black
10
105.925
20
-58.3979
11
106.417
21
-58.8108
0
LINE
8
Black
10
106.417
20
-58.8108
11
106.738
21
-59.3673
0
LINE
8
Black
10
106.738
20
-59.3673
11
106.85
21
-60
0
LINE
8
Black
10
106.85
20
-60
11
106.738
21
-60.6327
0
LINE
8
Black
10
106.738
20
-60.6327
11
106.417
21
-61.1892
0
LINE
8
Black
10
106.341
20
-58.8751
11
105.875
21
-58.4845
0
LINE
8
Black
10
105.875
20
-58.4845
11
105.304
21
-58.2766
0
LINE
8
Black
10
105.304
20
-58.2766
11
104.696
21
-58.2766
0
LINE
8
Black
10
104.696
20
-58.2766
11
104.125
21
-58.4845
0
LINE
8
Black
10
104.125
20
-58.4845
11
103.659
21
-58.8751
0
LINE
8
Black
10
103.659
20
-58.8751
11
103.356
21
-59.4015
0
LINE
8
Black
10
103.356
20
-59.4015
11
103.25
21
-60
0
LINE
8
Black
10
103.25
20
-60
11
103.356
21
-60.5985
0
LINE
8
Black
10
103.356
20
-60.5985
11
103.659
21
-61.1249
0
LINE
8
Black
10
103.659
20
-61.1249
11
104.125
21
-61.5155
0
LINE
8
Black
10
104.125
20
-61.5155
11
104.696
21
-61.7234
0
LINE
8
Black
10
104.696
20
-61.7234
11
105.304
21
-61.7234
0
LINE
8
Black
10
105.304
20
-61.7234
11
105.875
21
-61.5155
0
LINE
8
Black
10
105.875
20
-61.5155
11
106.341
21
-61.1249
0
LINE
8
Black
10
106.341
20
-61.1249
11
106.644
21
-60.5985
0
LINE
8
Black
10
106.644
20
-60.5985
11
106.75
21
-60
0
LINE
8
Black
10
106.75
20
-60
11
106.644
21
-59.4015
0
LINE
8
Black
10
106.644
20
-59.4015
11
106.341
21
-58.8751
  0
ENDSEC
  0
EOF
