G04 #@! TF.GenerationSoftware,KiCad,Pcbnew,(2017-02-02 revision 8dadc18)-makepkg*
G04 #@! TF.CreationDate,2017-03-26T00:07:33+03:00*
G04 #@! TF.ProjectId,Badge,42616467652E6B696361645F70636200,rev?*
G04 #@! TF.FileFunction,Legend,Bot*
G04 #@! TF.FilePolarity,Positive*
%FSLAX46Y46*%
G04 Gerber Fmt 4.6, Leading zero omitted, Abs format (unit mm)*
G04 Created by KiCad (PCBNEW (2017-02-02 revision 8dadc18)-makepkg) date 03/26/17 00:07:33*
%MOMM*%
%LPD*%
G01*
G04 APERTURE LIST*
%ADD10C,0.100000*%
%ADD11C,0.300000*%
%ADD12C,0.150000*%
%ADD13C,0.149860*%
%ADD14C,0.010000*%
%ADD15C,0.031750*%
G04 APERTURE END LIST*
D10*
D11*
X202721428Y-101785714D02*
X201721428Y-101428571D01*
X202721428Y-101071428D01*
X201864285Y-100500000D02*
X201792857Y-100428571D01*
X201721428Y-100500000D01*
X201792857Y-100571428D01*
X201864285Y-100500000D01*
X201721428Y-100500000D01*
X201721428Y-97857142D02*
X201721428Y-98714285D01*
X201721428Y-98285714D02*
X203221428Y-98285714D01*
X203007142Y-98428571D01*
X202864285Y-98571428D01*
X202792857Y-98714285D01*
X201864285Y-97214285D02*
X201792857Y-97142857D01*
X201721428Y-97214285D01*
X201792857Y-97285714D01*
X201864285Y-97214285D01*
X201721428Y-97214285D01*
X203221428Y-96214285D02*
X203221428Y-96071428D01*
X203150000Y-95928571D01*
X203078571Y-95857142D01*
X202935714Y-95785714D01*
X202650000Y-95714285D01*
X202292857Y-95714285D01*
X202007142Y-95785714D01*
X201864285Y-95857142D01*
X201792857Y-95928571D01*
X201721428Y-96071428D01*
X201721428Y-96214285D01*
X201792857Y-96357142D01*
X201864285Y-96428571D01*
X202007142Y-96500000D01*
X202292857Y-96571428D01*
X202650000Y-96571428D01*
X202935714Y-96500000D01*
X203078571Y-96428571D01*
X203150000Y-96357142D01*
X203221428Y-96214285D01*
X203221428Y-94357142D02*
X203221428Y-95071428D01*
X202507142Y-95142857D01*
X202578571Y-95071428D01*
X202650000Y-94928571D01*
X202650000Y-94571428D01*
X202578571Y-94428571D01*
X202507142Y-94357142D01*
X202364285Y-94285714D01*
X202007142Y-94285714D01*
X201864285Y-94357142D01*
X201792857Y-94428571D01*
X201721428Y-94571428D01*
X201721428Y-94928571D01*
X201792857Y-95071428D01*
X201864285Y-95142857D01*
D12*
X127702000Y-94435700D02*
X127152000Y-94435700D01*
X127152000Y-94435700D02*
X127152000Y-94985700D01*
X127702000Y-100735700D02*
X127152000Y-100735700D01*
X127152000Y-100735700D02*
X127152000Y-100185700D01*
X132902000Y-100735700D02*
X133452000Y-100735700D01*
X133452000Y-100735700D02*
X133452000Y-100185700D01*
X133952000Y-93935700D02*
X126652000Y-93935700D01*
X126652000Y-93935700D02*
X126652000Y-101235700D01*
X126652000Y-101235700D02*
X133952000Y-101235700D01*
X133952000Y-101235700D02*
X133952000Y-93935700D01*
X132902000Y-94435700D02*
X133452000Y-94985700D01*
X133452000Y-94435700D02*
X132902000Y-94435700D01*
X133452000Y-94985700D02*
X133452000Y-94435700D01*
X158600000Y-108225000D02*
X160600000Y-108225000D01*
X158600000Y-106225000D02*
X158600000Y-108225000D01*
X160600000Y-106225000D02*
X158600000Y-106225000D01*
X160600000Y-108225000D02*
X160600000Y-106225000D01*
X160100000Y-108225000D02*
X160600000Y-107725000D01*
X160550000Y-107975000D02*
X160500000Y-108175000D01*
X160300000Y-108225000D02*
X160550000Y-107975000D01*
X160050000Y-108225000D02*
X160550000Y-107775000D01*
X160050000Y-108225000D02*
X160600000Y-107675000D01*
X135300000Y-83300000D02*
X135300000Y-78700000D01*
X126300000Y-83300000D02*
X135300000Y-83300000D01*
X126300000Y-78700000D02*
X126300000Y-83300000D01*
X135300000Y-78700000D02*
X126300000Y-78700000D01*
X162470000Y-108584000D02*
X163270000Y-108584000D01*
X163270000Y-108584000D02*
X163270000Y-105584000D01*
X163270000Y-105584000D02*
X161670000Y-105584000D01*
X161670000Y-105584000D02*
X161670000Y-108584000D01*
X161670000Y-108584000D02*
X162470000Y-108584000D01*
X139950000Y-82400000D02*
X139950000Y-82650000D01*
X139950000Y-82650000D02*
X140450000Y-82650000D01*
X140450000Y-82650000D02*
X140450000Y-82400000D01*
X139950000Y-88400000D02*
X139950000Y-88150000D01*
X139950000Y-88150000D02*
X140450000Y-88150000D01*
X140450000Y-88150000D02*
X140450000Y-88400000D01*
X142200000Y-85150000D02*
X141700000Y-85150000D01*
X141700000Y-85150000D02*
X141700000Y-85650000D01*
X141700000Y-85650000D02*
X142200000Y-85650000D01*
X140200000Y-82400000D02*
X142200000Y-82400000D01*
X142200000Y-82400000D02*
X142200000Y-88400000D01*
X142200000Y-88400000D02*
X140200000Y-88400000D01*
X140200000Y-88400000D02*
X137450000Y-88400000D01*
X137450000Y-88400000D02*
X137450000Y-82400000D01*
X137450000Y-82400000D02*
X140200000Y-82400000D01*
X159619000Y-105320000D02*
X160719000Y-105320000D01*
X160719000Y-105320000D02*
X160719000Y-104120000D01*
X160719000Y-104120000D02*
X158519000Y-104120000D01*
X158519000Y-104120000D02*
X158519000Y-105320000D01*
X158519000Y-105320000D02*
X159619000Y-105320000D01*
X115500000Y-84700000D02*
X114700000Y-83900000D01*
X115500000Y-83900000D02*
X111300000Y-83900000D01*
X111300000Y-83900000D02*
X111300000Y-88100000D01*
X111300000Y-88100000D02*
X115500000Y-88100000D01*
X115500000Y-88100000D02*
X115500000Y-83900000D01*
X114400000Y-87500000D02*
X114900000Y-87500000D01*
X114900000Y-87500000D02*
X114900000Y-87000000D01*
X111900000Y-87000000D02*
X111900000Y-87500000D01*
X111900000Y-87500000D02*
X112400000Y-87500000D01*
X112400000Y-84500000D02*
X111900000Y-84500000D01*
X111900000Y-84500000D02*
X111900000Y-85000000D01*
X114900000Y-85000000D02*
X114900000Y-84500000D01*
X114900000Y-84500000D02*
X114400000Y-84500000D01*
X114400000Y-84500000D02*
X114900000Y-85000000D01*
X104722000Y-74985600D02*
X110818000Y-74985600D01*
X104722000Y-81081600D02*
X104722000Y-74985600D01*
X110818000Y-81081600D02*
X104722000Y-81081600D01*
X110818000Y-74985600D02*
X110818000Y-81081600D01*
X109548000Y-78033600D02*
G75*
G03X109548000Y-78033600I-1778000J0D01*
G01*
X109448000Y-66352000D02*
X109448000Y-72448000D01*
X103352000Y-66352000D02*
X109448000Y-66352000D01*
X103352000Y-72448000D02*
X103352000Y-66352000D01*
X109448000Y-72448000D02*
X103352000Y-72448000D01*
X108178000Y-69400000D02*
G75*
G03X108178000Y-69400000I-1778000J0D01*
G01*
X127700000Y-88400000D02*
X127700000Y-87600000D01*
X124700000Y-88400000D02*
X127700000Y-88400000D01*
X124700000Y-86800000D02*
X124700000Y-88400000D01*
X127700000Y-86800000D02*
X124700000Y-86800000D01*
X127700000Y-87600000D02*
X127700000Y-86800000D01*
X110700000Y-66400000D02*
X110700000Y-67200000D01*
X110700000Y-67200000D02*
X113700000Y-67200000D01*
X113700000Y-67200000D02*
X113700000Y-65600000D01*
X113700000Y-65600000D02*
X110700000Y-65600000D01*
X110700000Y-65600000D02*
X110700000Y-66400000D01*
X111700000Y-58800000D02*
X111700000Y-58000000D01*
X108700000Y-58800000D02*
X111700000Y-58800000D01*
X108700000Y-57200000D02*
X108700000Y-58800000D01*
X111700000Y-57200000D02*
X108700000Y-57200000D01*
X111700000Y-58000000D02*
X111700000Y-57200000D01*
X140407000Y-66907700D02*
X140407000Y-66107700D01*
X140407000Y-66107700D02*
X137407000Y-66107700D01*
X137407000Y-66107700D02*
X137407000Y-67707700D01*
X137407000Y-67707700D02*
X140407000Y-67707700D01*
X140407000Y-67707700D02*
X140407000Y-66907700D01*
X118912000Y-72338400D02*
X118112000Y-72338400D01*
X118912000Y-75338400D02*
X118912000Y-72338400D01*
X117312000Y-75338400D02*
X118912000Y-75338400D01*
X117312000Y-72338400D02*
X117312000Y-75338400D01*
X118112000Y-72338400D02*
X117312000Y-72338400D01*
X113700000Y-69600000D02*
X113700000Y-68800000D01*
X113700000Y-68800000D02*
X110700000Y-68800000D01*
X110700000Y-68800000D02*
X110700000Y-70400000D01*
X110700000Y-70400000D02*
X113700000Y-70400000D01*
X113700000Y-70400000D02*
X113700000Y-69600000D01*
X111700000Y-51600000D02*
X111700000Y-50800000D01*
X111700000Y-50800000D02*
X108700000Y-50800000D01*
X108700000Y-50800000D02*
X108700000Y-52400000D01*
X108700000Y-52400000D02*
X111700000Y-52400000D01*
X111700000Y-52400000D02*
X111700000Y-51600000D01*
X111700000Y-57200000D02*
X111700000Y-56400000D01*
X108700000Y-57200000D02*
X111700000Y-57200000D01*
X108700000Y-55600000D02*
X108700000Y-57200000D01*
X111700000Y-55600000D02*
X108700000Y-55600000D01*
X111700000Y-56400000D02*
X111700000Y-55600000D01*
X111700000Y-55600000D02*
X111700000Y-54800000D01*
X108700000Y-55600000D02*
X111700000Y-55600000D01*
X108700000Y-54000000D02*
X108700000Y-55600000D01*
X111700000Y-54000000D02*
X108700000Y-54000000D01*
X111700000Y-54800000D02*
X111700000Y-54000000D01*
X140407000Y-69307700D02*
X140407000Y-68507700D01*
X137407000Y-69307700D02*
X140407000Y-69307700D01*
X137407000Y-67707700D02*
X137407000Y-69307700D01*
X140407000Y-67707700D02*
X137407000Y-67707700D01*
X140407000Y-68507700D02*
X140407000Y-67707700D01*
X140407000Y-70107700D02*
X140407000Y-69307700D01*
X140407000Y-69307700D02*
X137407000Y-69307700D01*
X137407000Y-69307700D02*
X137407000Y-70907700D01*
X137407000Y-70907700D02*
X140407000Y-70907700D01*
X140407000Y-70907700D02*
X140407000Y-70107700D01*
X129900000Y-83400000D02*
X129900000Y-84200000D01*
X132900000Y-83400000D02*
X129900000Y-83400000D01*
X132900000Y-85000000D02*
X132900000Y-83400000D01*
X129900000Y-85000000D02*
X132900000Y-85000000D01*
X129900000Y-84200000D02*
X129900000Y-85000000D01*
X111700000Y-53200000D02*
X111700000Y-52400000D01*
X111700000Y-52400000D02*
X108700000Y-52400000D01*
X108700000Y-52400000D02*
X108700000Y-54000000D01*
X108700000Y-54000000D02*
X111700000Y-54000000D01*
X111700000Y-54000000D02*
X111700000Y-53200000D01*
X144400000Y-105300000D02*
X143600000Y-105300000D01*
X144400000Y-108300000D02*
X144400000Y-105300000D01*
X142800000Y-108300000D02*
X144400000Y-108300000D01*
X142800000Y-105300000D02*
X142800000Y-108300000D01*
X143600000Y-105300000D02*
X142800000Y-105300000D01*
X130700000Y-52400000D02*
X130700000Y-51600000D01*
X130700000Y-51600000D02*
X127700000Y-51600000D01*
X127700000Y-51600000D02*
X127700000Y-53200000D01*
X127700000Y-53200000D02*
X130700000Y-53200000D01*
X130700000Y-53200000D02*
X130700000Y-52400000D01*
X119700000Y-52600000D02*
X119700000Y-51800000D01*
X119700000Y-51800000D02*
X116700000Y-51800000D01*
X116700000Y-51800000D02*
X116700000Y-53400000D01*
X116700000Y-53400000D02*
X119700000Y-53400000D01*
X119700000Y-53400000D02*
X119700000Y-52600000D01*
X108600000Y-90100000D02*
X107800000Y-90100000D01*
X107800000Y-90100000D02*
X107800000Y-93100000D01*
X107800000Y-93100000D02*
X109400000Y-93100000D01*
X109400000Y-93100000D02*
X109400000Y-90100000D01*
X109400000Y-90100000D02*
X108600000Y-90100000D01*
X136677000Y-96775000D02*
X136677000Y-97575000D01*
X136677000Y-97575000D02*
X139677000Y-97575000D01*
X139677000Y-97575000D02*
X139677000Y-95975000D01*
X139677000Y-95975000D02*
X136677000Y-95975000D01*
X136677000Y-95975000D02*
X136677000Y-96775000D01*
X123752000Y-101684000D02*
X123752000Y-100884000D01*
X120752000Y-101684000D02*
X123752000Y-101684000D01*
X120752000Y-100084000D02*
X120752000Y-101684000D01*
X123752000Y-100084000D02*
X120752000Y-100084000D01*
X123752000Y-100884000D02*
X123752000Y-100084000D01*
X111800000Y-90100000D02*
X111000000Y-90100000D01*
X111000000Y-90100000D02*
X111000000Y-93100000D01*
X111000000Y-93100000D02*
X112600000Y-93100000D01*
X112600000Y-93100000D02*
X112600000Y-90100000D01*
X112600000Y-90100000D02*
X111800000Y-90100000D01*
X131600000Y-103700000D02*
X130800000Y-103700000D01*
X130800000Y-103700000D02*
X130800000Y-106700000D01*
X130800000Y-106700000D02*
X132400000Y-106700000D01*
X132400000Y-106700000D02*
X132400000Y-103700000D01*
X132400000Y-103700000D02*
X131600000Y-103700000D01*
X120752000Y-101608000D02*
X120752000Y-102408000D01*
X123752000Y-101608000D02*
X120752000Y-101608000D01*
X123752000Y-103208000D02*
X123752000Y-101608000D01*
X120752000Y-103208000D02*
X123752000Y-103208000D01*
X120752000Y-102408000D02*
X120752000Y-103208000D01*
X132993000Y-86435000D02*
X132993000Y-87235000D01*
X132993000Y-87235000D02*
X135993000Y-87235000D01*
X135993000Y-87235000D02*
X135993000Y-85635000D01*
X135993000Y-85635000D02*
X132993000Y-85635000D01*
X132993000Y-85635000D02*
X132993000Y-86435000D01*
X130000000Y-103700000D02*
X129200000Y-103700000D01*
X129200000Y-103700000D02*
X129200000Y-106700000D01*
X129200000Y-106700000D02*
X130800000Y-106700000D01*
X130800000Y-106700000D02*
X130800000Y-103700000D01*
X130800000Y-103700000D02*
X130000000Y-103700000D01*
X144400000Y-108300000D02*
X143600000Y-108300000D01*
X144400000Y-111300000D02*
X144400000Y-108300000D01*
X142800000Y-111300000D02*
X144400000Y-111300000D01*
X142800000Y-108300000D02*
X142800000Y-111300000D01*
X143600000Y-108300000D02*
X142800000Y-108300000D01*
X113700000Y-68000000D02*
X113700000Y-67200000D01*
X113700000Y-67200000D02*
X110700000Y-67200000D01*
X110700000Y-67200000D02*
X110700000Y-68800000D01*
X110700000Y-68800000D02*
X113700000Y-68800000D01*
X113700000Y-68800000D02*
X113700000Y-68000000D01*
X133731000Y-103731000D02*
X132931000Y-103731000D01*
X132931000Y-103731000D02*
X132931000Y-106731000D01*
X132931000Y-106731000D02*
X134531000Y-106731000D01*
X134531000Y-106731000D02*
X134531000Y-103731000D01*
X134531000Y-103731000D02*
X133731000Y-103731000D01*
X129700000Y-89000000D02*
X129700000Y-89800000D01*
X132700000Y-89000000D02*
X129700000Y-89000000D01*
X132700000Y-90600000D02*
X132700000Y-89000000D01*
X129700000Y-90600000D02*
X132700000Y-90600000D01*
X129700000Y-89800000D02*
X129700000Y-90600000D01*
X132993000Y-84911000D02*
X132993000Y-85711000D01*
X132993000Y-85711000D02*
X135993000Y-85711000D01*
X135993000Y-85711000D02*
X135993000Y-84111000D01*
X135993000Y-84111000D02*
X132993000Y-84111000D01*
X132993000Y-84111000D02*
X132993000Y-84911000D01*
X135900000Y-90600000D02*
X135900000Y-89800000D01*
X132900000Y-90600000D02*
X135900000Y-90600000D01*
X132900000Y-89000000D02*
X132900000Y-90600000D01*
X135900000Y-89000000D02*
X132900000Y-89000000D01*
X135900000Y-89800000D02*
X135900000Y-89000000D01*
X126600000Y-103700000D02*
X125800000Y-103700000D01*
X125800000Y-103700000D02*
X125800000Y-106700000D01*
X125800000Y-106700000D02*
X127400000Y-106700000D01*
X127400000Y-106700000D02*
X127400000Y-103700000D01*
X127400000Y-103700000D02*
X126600000Y-103700000D01*
X113400000Y-90100000D02*
X112600000Y-90100000D01*
X112600000Y-90100000D02*
X112600000Y-93100000D01*
X112600000Y-93100000D02*
X114200000Y-93100000D01*
X114200000Y-93100000D02*
X114200000Y-90100000D01*
X114200000Y-90100000D02*
X113400000Y-90100000D01*
X136677000Y-99175000D02*
X136677000Y-99975000D01*
X139677000Y-99175000D02*
X136677000Y-99175000D01*
X139677000Y-100775000D02*
X139677000Y-99175000D01*
X136677000Y-100775000D02*
X139677000Y-100775000D01*
X136677000Y-99975000D02*
X136677000Y-100775000D01*
X124700000Y-89800000D02*
X124700000Y-90600000D01*
X124700000Y-90600000D02*
X127700000Y-90600000D01*
X127700000Y-90600000D02*
X127700000Y-89000000D01*
X127700000Y-89000000D02*
X124700000Y-89000000D01*
X124700000Y-89000000D02*
X124700000Y-89800000D01*
X136677000Y-97575000D02*
X136677000Y-98375000D01*
X139677000Y-97575000D02*
X136677000Y-97575000D01*
X139677000Y-99175000D02*
X139677000Y-97575000D01*
X136677000Y-99175000D02*
X139677000Y-99175000D01*
X136677000Y-98375000D02*
X136677000Y-99175000D01*
X111000000Y-90100000D02*
X110200000Y-90100000D01*
X111000000Y-93100000D02*
X111000000Y-90100000D01*
X109400000Y-93100000D02*
X111000000Y-93100000D01*
X109400000Y-90100000D02*
X109400000Y-93100000D01*
X110200000Y-90100000D02*
X109400000Y-90100000D01*
X124477000Y-98975000D02*
X124477000Y-98175000D01*
X124477000Y-98175000D02*
X121477000Y-98175000D01*
X121477000Y-98175000D02*
X121477000Y-99775000D01*
X121477000Y-99775000D02*
X124477000Y-99775000D01*
X124477000Y-99775000D02*
X124477000Y-98975000D01*
X122300000Y-105850000D02*
X121500000Y-105850000D01*
X122300000Y-108850000D02*
X122300000Y-105850000D01*
X120700000Y-108850000D02*
X122300000Y-108850000D01*
X120700000Y-105850000D02*
X120700000Y-108850000D01*
X121500000Y-105850000D02*
X120700000Y-105850000D01*
X124477000Y-97375000D02*
X124477000Y-96575000D01*
X124477000Y-96575000D02*
X121477000Y-96575000D01*
X121477000Y-96575000D02*
X121477000Y-98175000D01*
X121477000Y-98175000D02*
X124477000Y-98175000D01*
X124477000Y-98175000D02*
X124477000Y-97375000D01*
D13*
X151700540Y-65199580D02*
X151700540Y-51600420D01*
X156798320Y-54399500D02*
G75*
G02X157799080Y-53398740I1000760J0D01*
G01*
X157799080Y-53398740D02*
G75*
G02X158799840Y-54399500I0J-1000760D01*
G01*
X158799840Y-62400500D02*
G75*
G02X157799080Y-63401260I-1000760J0D01*
G01*
X157799080Y-63398720D02*
G75*
G02X156800860Y-62400500I0J998220D01*
G01*
X158799840Y-54399500D02*
X158799840Y-62400500D01*
X156800860Y-62400500D02*
X156800860Y-54399500D01*
X162200900Y-65199580D02*
G75*
G02X162200900Y-51600420I6799580J6799580D01*
G01*
X162200900Y-65199580D02*
X162200900Y-51600420D01*
X162200900Y-51600420D02*
X147799100Y-51600420D01*
X147799100Y-51600420D02*
X147799100Y-65199580D01*
X147799100Y-65199580D02*
X162200900Y-65199580D01*
D12*
X165676000Y-56730000D02*
X181170000Y-56730000D01*
X181170000Y-56730000D02*
X181170000Y-59270000D01*
X181170000Y-59270000D02*
X165676000Y-59270000D01*
X165676000Y-59270000D02*
X165676000Y-56730000D01*
X165676000Y-56730000D02*
X165803000Y-56730000D01*
X165803000Y-56730000D02*
X165803000Y-59270000D01*
X165803000Y-59270000D02*
X165930000Y-59270000D01*
X165930000Y-59270000D02*
X165930000Y-56730000D01*
X117900000Y-111600000D02*
X120200000Y-111600000D01*
X120200000Y-111600000D02*
X120200000Y-103900000D01*
X120200000Y-103900000D02*
X117700000Y-102200000D01*
X117700000Y-102200000D02*
X110300000Y-102200000D01*
X110300000Y-102200000D02*
X107800000Y-103900000D01*
X107800000Y-103900000D02*
X107800000Y-111600000D01*
X107800000Y-111600000D02*
X110100000Y-111600000D01*
X117900000Y-111600000D02*
X117900000Y-106000000D01*
X117900000Y-106000000D02*
X110100000Y-106000000D01*
X110100000Y-106000000D02*
X110100000Y-111600000D01*
X122700000Y-81550000D02*
X121950000Y-82300000D01*
X122450000Y-82550000D02*
X122950000Y-82550000D01*
X122950000Y-82550000D02*
X122950000Y-81800000D01*
X123200000Y-81800000D02*
X123200000Y-82800000D01*
X123200000Y-82800000D02*
X122450000Y-82800000D01*
D13*
X122399640Y-79800000D02*
G75*
G03X122399640Y-79800000I-2199640J0D01*
G01*
X122699360Y-77300640D02*
X117700640Y-77300640D01*
X117700640Y-77300640D02*
X117700640Y-82299360D01*
X117700640Y-82299360D02*
X122699360Y-82299360D01*
X122699360Y-82299360D02*
X122699360Y-77300640D01*
D12*
X118050000Y-70350000D02*
X131550000Y-70350000D01*
X131550000Y-70350000D02*
X131550000Y-56450000D01*
X131550000Y-56450000D02*
X117650000Y-56450000D01*
X117650000Y-56450000D02*
X117650000Y-69950000D01*
X117650000Y-69950000D02*
X118050000Y-70350000D01*
X113905000Y-62400000D02*
X113905000Y-59352000D01*
X113905000Y-59352000D02*
X110095000Y-59352000D01*
X110095000Y-59352000D02*
X110095000Y-65448000D01*
X110095000Y-65448000D02*
X113905000Y-65448000D01*
X113905000Y-65448000D02*
X113905000Y-62400000D01*
X120700000Y-98200000D02*
X120700000Y-97400000D01*
X117700000Y-98200000D02*
X120700000Y-98200000D01*
X117700000Y-96600000D02*
X117700000Y-98200000D01*
X120700000Y-96600000D02*
X117700000Y-96600000D01*
X120700000Y-97400000D02*
X120700000Y-96600000D01*
X114300000Y-72600000D02*
X114300000Y-71800000D01*
X111300000Y-72600000D02*
X114300000Y-72600000D01*
X111300000Y-71000000D02*
X111300000Y-72600000D01*
X114300000Y-71000000D02*
X111300000Y-71000000D01*
X114300000Y-71800000D02*
X114300000Y-71000000D01*
X146000000Y-108300000D02*
X145200000Y-108300000D01*
X146000000Y-111300000D02*
X146000000Y-108300000D01*
X144400000Y-111300000D02*
X146000000Y-111300000D01*
X144400000Y-108300000D02*
X144400000Y-111300000D01*
X145200000Y-108300000D02*
X144400000Y-108300000D01*
X104100000Y-63800000D02*
X104100000Y-63000000D01*
X104100000Y-63000000D02*
X101100000Y-63000000D01*
X101100000Y-63000000D02*
X101100000Y-64600000D01*
X101100000Y-64600000D02*
X104100000Y-64600000D01*
X104100000Y-64600000D02*
X104100000Y-63800000D01*
X119800000Y-87500000D02*
X120600000Y-87500000D01*
X119800000Y-84500000D02*
X119800000Y-87500000D01*
X121400000Y-84500000D02*
X119800000Y-84500000D01*
X121400000Y-87500000D02*
X121400000Y-84500000D01*
X120600000Y-87500000D02*
X121400000Y-87500000D01*
X123100000Y-105850000D02*
X122300000Y-105850000D01*
X122300000Y-105850000D02*
X122300000Y-108850000D01*
X122300000Y-108850000D02*
X123900000Y-108850000D01*
X123900000Y-108850000D02*
X123900000Y-105850000D01*
X123900000Y-105850000D02*
X123100000Y-105850000D01*
X146000000Y-105300000D02*
X145200000Y-105300000D01*
X146000000Y-108300000D02*
X146000000Y-105300000D01*
X144400000Y-108300000D02*
X146000000Y-108300000D01*
X144400000Y-105300000D02*
X144400000Y-108300000D01*
X145200000Y-105300000D02*
X144400000Y-105300000D01*
X120700000Y-99000000D02*
X120700000Y-98200000D01*
X120700000Y-98200000D02*
X117700000Y-98200000D01*
X117700000Y-98200000D02*
X117700000Y-99800000D01*
X117700000Y-99800000D02*
X120700000Y-99800000D01*
X120700000Y-99800000D02*
X120700000Y-99000000D01*
X111100000Y-88400000D02*
X111100000Y-89200000D01*
X114100000Y-88400000D02*
X111100000Y-88400000D01*
X114100000Y-90000000D02*
X114100000Y-88400000D01*
X111100000Y-90000000D02*
X114100000Y-90000000D01*
X111100000Y-89200000D02*
X111100000Y-90000000D01*
X121817000Y-91477000D02*
X121817000Y-92277000D01*
X124817000Y-91477000D02*
X121817000Y-91477000D01*
X124817000Y-93077000D02*
X124817000Y-91477000D01*
X121817000Y-93077000D02*
X124817000Y-93077000D01*
X121817000Y-92277000D02*
X121817000Y-93077000D01*
X139700000Y-95400000D02*
X139700000Y-94600000D01*
X136700000Y-95400000D02*
X139700000Y-95400000D01*
X136700000Y-93800000D02*
X136700000Y-95400000D01*
X139700000Y-93800000D02*
X136700000Y-93800000D01*
X139700000Y-94600000D02*
X139700000Y-93800000D01*
X129700000Y-87200000D02*
X129700000Y-88000000D01*
X132700000Y-87200000D02*
X129700000Y-87200000D01*
X132700000Y-88800000D02*
X132700000Y-87200000D01*
X129700000Y-88800000D02*
X132700000Y-88800000D01*
X129700000Y-88000000D02*
X129700000Y-88800000D01*
X135800000Y-106700000D02*
X136600000Y-106700000D01*
X136600000Y-106700000D02*
X136600000Y-103700000D01*
X136600000Y-103700000D02*
X135000000Y-103700000D01*
X135000000Y-103700000D02*
X135000000Y-106700000D01*
X135000000Y-106700000D02*
X135800000Y-106700000D01*
X141311000Y-91647000D02*
X141311000Y-90847000D01*
X138311000Y-91647000D02*
X141311000Y-91647000D01*
X138311000Y-90047000D02*
X138311000Y-91647000D01*
X141311000Y-90047000D02*
X138311000Y-90047000D01*
X141311000Y-90847000D02*
X141311000Y-90047000D01*
X141300000Y-92400000D02*
X141300000Y-91600000D01*
X141300000Y-91600000D02*
X138300000Y-91600000D01*
X138300000Y-91600000D02*
X138300000Y-93200000D01*
X138300000Y-93200000D02*
X141300000Y-93200000D01*
X141300000Y-93200000D02*
X141300000Y-92400000D01*
X141300000Y-90000000D02*
X141300000Y-89200000D01*
X138300000Y-90000000D02*
X141300000Y-90000000D01*
X138300000Y-88400000D02*
X138300000Y-90000000D01*
X141300000Y-88400000D02*
X138300000Y-88400000D01*
X141300000Y-89200000D02*
X141300000Y-88400000D01*
X128200000Y-103700000D02*
X127400000Y-103700000D01*
X127400000Y-103700000D02*
X127400000Y-106700000D01*
X127400000Y-106700000D02*
X129000000Y-106700000D01*
X129000000Y-106700000D02*
X129000000Y-103700000D01*
X129000000Y-103700000D02*
X128200000Y-103700000D01*
X124817000Y-94601000D02*
X124817000Y-93801000D01*
X121817000Y-94601000D02*
X124817000Y-94601000D01*
X121817000Y-93001000D02*
X121817000Y-94601000D01*
X124817000Y-93001000D02*
X121817000Y-93001000D01*
X124817000Y-93801000D02*
X124817000Y-93001000D01*
X121100000Y-88600000D02*
X121100000Y-87800000D01*
X121100000Y-87800000D02*
X118100000Y-87800000D01*
X118100000Y-87800000D02*
X118100000Y-89400000D01*
X118100000Y-89400000D02*
X121100000Y-89400000D01*
X121100000Y-89400000D02*
X121100000Y-88600000D01*
X115400000Y-91400000D02*
X116500000Y-91400000D01*
X116500000Y-91400000D02*
X116500000Y-90200000D01*
X116500000Y-90200000D02*
X114300000Y-90200000D01*
X114300000Y-90200000D02*
X114300000Y-91400000D01*
X114300000Y-91400000D02*
X115400000Y-91400000D01*
X124817000Y-96125000D02*
X124817000Y-95225000D01*
X121817000Y-96125000D02*
X124817000Y-96125000D01*
X121817000Y-94525000D02*
X121817000Y-96125000D01*
X124817000Y-94525000D02*
X121817000Y-94525000D01*
X124817000Y-95325000D02*
X124817000Y-94525000D01*
X121567000Y-94525000D02*
X121667000Y-94525000D01*
X121567000Y-96125000D02*
X121567000Y-94525000D01*
X121817000Y-96125000D02*
X121567000Y-96125000D01*
X121667000Y-96125000D02*
X121817000Y-96125000D01*
X121667000Y-94525000D02*
X121667000Y-96125000D01*
X121817000Y-94525000D02*
X121667000Y-94525000D01*
X121417000Y-96125000D02*
X121617000Y-96125000D01*
X121417000Y-94525000D02*
X121417000Y-96125000D01*
X121617000Y-94525000D02*
X121417000Y-94525000D01*
X114300000Y-74600000D02*
X114500000Y-74600000D01*
X114500000Y-74600000D02*
X114500000Y-73000000D01*
X114500000Y-73000000D02*
X114300000Y-73000000D01*
X114100000Y-74600000D02*
X114250000Y-74600000D01*
X114250000Y-74600000D02*
X114250000Y-73000000D01*
X114250000Y-73000000D02*
X114100000Y-73000000D01*
X114100000Y-73000000D02*
X114350000Y-73000000D01*
X114350000Y-73000000D02*
X114350000Y-74600000D01*
X114350000Y-74600000D02*
X114250000Y-74600000D01*
X111100000Y-73800000D02*
X111100000Y-74600000D01*
X111100000Y-74600000D02*
X114100000Y-74600000D01*
X114100000Y-74600000D02*
X114100000Y-73000000D01*
X114100000Y-73000000D02*
X111100000Y-73000000D01*
X111100000Y-73000000D02*
X111100000Y-73900000D01*
X132993000Y-87959000D02*
X132993000Y-88759000D01*
X132993000Y-88759000D02*
X135993000Y-88759000D01*
X135993000Y-88759000D02*
X135993000Y-87159000D01*
X135993000Y-87159000D02*
X132993000Y-87159000D01*
X132993000Y-87159000D02*
X132993000Y-87959000D01*
D14*
G36*
X201186222Y-72446889D02*
X201186222Y-86953111D01*
X211615272Y-86953111D01*
X211615272Y-86385143D01*
X211469363Y-86373978D01*
X211328262Y-86310438D01*
X211263507Y-86260072D01*
X211155937Y-86162889D01*
X201891778Y-86162889D01*
X201891778Y-73378223D01*
X212108222Y-73378223D01*
X212108222Y-82437556D01*
X204742222Y-82437556D01*
X204742222Y-76369778D01*
X208418381Y-76369778D01*
X208525951Y-76272595D01*
X208661425Y-76183311D01*
X208806092Y-76146466D01*
X208951014Y-76161929D01*
X209087254Y-76229568D01*
X209148209Y-76281791D01*
X209241635Y-76410657D01*
X209283167Y-76552076D01*
X209272807Y-76696393D01*
X209210553Y-76833957D01*
X209148209Y-76909321D01*
X209019496Y-77002510D01*
X208877717Y-77043588D01*
X208731808Y-77032423D01*
X208590707Y-76968883D01*
X208525951Y-76918517D01*
X208418381Y-76821334D01*
X205193778Y-76821334D01*
X205193778Y-81986000D01*
X211656667Y-81986000D01*
X211656667Y-73886223D01*
X202343333Y-73886223D01*
X202343333Y-85711334D01*
X211155937Y-85711334D01*
X211263507Y-85614151D01*
X211398981Y-85524866D01*
X211543647Y-85488021D01*
X211615272Y-85495663D01*
X211615272Y-85086921D01*
X211469363Y-85075756D01*
X211328262Y-85012216D01*
X211263507Y-84961850D01*
X211155937Y-84864667D01*
X202823111Y-84864667D01*
X202823111Y-74366000D01*
X211261555Y-74366000D01*
X211261555Y-81478000D01*
X205701778Y-81478000D01*
X205701778Y-77668000D01*
X208418381Y-77668000D01*
X208525951Y-77570817D01*
X208661425Y-77481533D01*
X208806092Y-77444688D01*
X208951014Y-77460151D01*
X209087254Y-77527790D01*
X209148209Y-77580013D01*
X209241635Y-77708879D01*
X209283167Y-77850298D01*
X209272807Y-77994615D01*
X209210553Y-78132179D01*
X209148209Y-78207543D01*
X209019496Y-78300732D01*
X208877717Y-78341810D01*
X208731808Y-78330645D01*
X208590707Y-78267105D01*
X208525951Y-78216739D01*
X208418381Y-78119556D01*
X206153333Y-78119556D01*
X206153333Y-81026445D01*
X210810000Y-81026445D01*
X210810000Y-74817556D01*
X203274667Y-74817556D01*
X203274667Y-84413111D01*
X211155937Y-84413111D01*
X211263507Y-84315928D01*
X211398981Y-84226644D01*
X211543647Y-84189799D01*
X211615272Y-84197441D01*
X211615272Y-83760476D01*
X211469363Y-83749312D01*
X211328262Y-83685772D01*
X211263507Y-83635406D01*
X211155937Y-83538223D01*
X203754444Y-83538223D01*
X203754444Y-75297334D01*
X210245555Y-75297334D01*
X210245555Y-80518445D01*
X206689555Y-80518445D01*
X206689555Y-78938000D01*
X208418381Y-78938000D01*
X208525951Y-78840817D01*
X208661425Y-78751533D01*
X208806092Y-78714688D01*
X208951014Y-78730151D01*
X209087254Y-78797790D01*
X209148209Y-78850013D01*
X209241635Y-78978879D01*
X209283167Y-79120298D01*
X209272807Y-79264615D01*
X209210553Y-79402179D01*
X209148209Y-79477543D01*
X209019496Y-79570732D01*
X208877717Y-79611810D01*
X208731808Y-79600645D01*
X208590707Y-79537105D01*
X208525951Y-79486739D01*
X208418381Y-79389556D01*
X207141111Y-79389556D01*
X207141111Y-80066889D01*
X209794000Y-80066889D01*
X209794000Y-75748889D01*
X204206000Y-75748889D01*
X204206000Y-83086667D01*
X211155937Y-83086667D01*
X211263507Y-82989484D01*
X211398981Y-82900199D01*
X211543647Y-82863355D01*
X211688570Y-82878818D01*
X211824810Y-82946456D01*
X211885765Y-82998680D01*
X211979190Y-83127546D01*
X212020723Y-83268964D01*
X212010362Y-83413282D01*
X211948108Y-83550846D01*
X211885765Y-83626210D01*
X211757052Y-83719398D01*
X211615272Y-83760476D01*
X211615272Y-84197441D01*
X211688570Y-84205262D01*
X211824810Y-84272901D01*
X211885765Y-84325125D01*
X211979190Y-84453991D01*
X212020723Y-84595409D01*
X212010362Y-84739727D01*
X211948108Y-84877290D01*
X211885765Y-84952654D01*
X211757052Y-85045843D01*
X211615272Y-85086921D01*
X211615272Y-85495663D01*
X211688570Y-85503484D01*
X211824810Y-85571123D01*
X211885765Y-85623347D01*
X211979190Y-85752213D01*
X212020723Y-85893631D01*
X212010362Y-86037949D01*
X211948108Y-86175513D01*
X211885765Y-86250876D01*
X211757052Y-86344065D01*
X211615272Y-86385143D01*
X211615272Y-86953111D01*
X212785555Y-86953111D01*
X212785555Y-72446889D01*
X201186222Y-72446889D01*
X201186222Y-72446889D01*
G37*
X201186222Y-72446889D02*
X201186222Y-86953111D01*
X211615272Y-86953111D01*
X211615272Y-86385143D01*
X211469363Y-86373978D01*
X211328262Y-86310438D01*
X211263507Y-86260072D01*
X211155937Y-86162889D01*
X201891778Y-86162889D01*
X201891778Y-73378223D01*
X212108222Y-73378223D01*
X212108222Y-82437556D01*
X204742222Y-82437556D01*
X204742222Y-76369778D01*
X208418381Y-76369778D01*
X208525951Y-76272595D01*
X208661425Y-76183311D01*
X208806092Y-76146466D01*
X208951014Y-76161929D01*
X209087254Y-76229568D01*
X209148209Y-76281791D01*
X209241635Y-76410657D01*
X209283167Y-76552076D01*
X209272807Y-76696393D01*
X209210553Y-76833957D01*
X209148209Y-76909321D01*
X209019496Y-77002510D01*
X208877717Y-77043588D01*
X208731808Y-77032423D01*
X208590707Y-76968883D01*
X208525951Y-76918517D01*
X208418381Y-76821334D01*
X205193778Y-76821334D01*
X205193778Y-81986000D01*
X211656667Y-81986000D01*
X211656667Y-73886223D01*
X202343333Y-73886223D01*
X202343333Y-85711334D01*
X211155937Y-85711334D01*
X211263507Y-85614151D01*
X211398981Y-85524866D01*
X211543647Y-85488021D01*
X211615272Y-85495663D01*
X211615272Y-85086921D01*
X211469363Y-85075756D01*
X211328262Y-85012216D01*
X211263507Y-84961850D01*
X211155937Y-84864667D01*
X202823111Y-84864667D01*
X202823111Y-74366000D01*
X211261555Y-74366000D01*
X211261555Y-81478000D01*
X205701778Y-81478000D01*
X205701778Y-77668000D01*
X208418381Y-77668000D01*
X208525951Y-77570817D01*
X208661425Y-77481533D01*
X208806092Y-77444688D01*
X208951014Y-77460151D01*
X209087254Y-77527790D01*
X209148209Y-77580013D01*
X209241635Y-77708879D01*
X209283167Y-77850298D01*
X209272807Y-77994615D01*
X209210553Y-78132179D01*
X209148209Y-78207543D01*
X209019496Y-78300732D01*
X208877717Y-78341810D01*
X208731808Y-78330645D01*
X208590707Y-78267105D01*
X208525951Y-78216739D01*
X208418381Y-78119556D01*
X206153333Y-78119556D01*
X206153333Y-81026445D01*
X210810000Y-81026445D01*
X210810000Y-74817556D01*
X203274667Y-74817556D01*
X203274667Y-84413111D01*
X211155937Y-84413111D01*
X211263507Y-84315928D01*
X211398981Y-84226644D01*
X211543647Y-84189799D01*
X211615272Y-84197441D01*
X211615272Y-83760476D01*
X211469363Y-83749312D01*
X211328262Y-83685772D01*
X211263507Y-83635406D01*
X211155937Y-83538223D01*
X203754444Y-83538223D01*
X203754444Y-75297334D01*
X210245555Y-75297334D01*
X210245555Y-80518445D01*
X206689555Y-80518445D01*
X206689555Y-78938000D01*
X208418381Y-78938000D01*
X208525951Y-78840817D01*
X208661425Y-78751533D01*
X208806092Y-78714688D01*
X208951014Y-78730151D01*
X209087254Y-78797790D01*
X209148209Y-78850013D01*
X209241635Y-78978879D01*
X209283167Y-79120298D01*
X209272807Y-79264615D01*
X209210553Y-79402179D01*
X209148209Y-79477543D01*
X209019496Y-79570732D01*
X208877717Y-79611810D01*
X208731808Y-79600645D01*
X208590707Y-79537105D01*
X208525951Y-79486739D01*
X208418381Y-79389556D01*
X207141111Y-79389556D01*
X207141111Y-80066889D01*
X209794000Y-80066889D01*
X209794000Y-75748889D01*
X204206000Y-75748889D01*
X204206000Y-83086667D01*
X211155937Y-83086667D01*
X211263507Y-82989484D01*
X211398981Y-82900199D01*
X211543647Y-82863355D01*
X211688570Y-82878818D01*
X211824810Y-82946456D01*
X211885765Y-82998680D01*
X211979190Y-83127546D01*
X212020723Y-83268964D01*
X212010362Y-83413282D01*
X211948108Y-83550846D01*
X211885765Y-83626210D01*
X211757052Y-83719398D01*
X211615272Y-83760476D01*
X211615272Y-84197441D01*
X211688570Y-84205262D01*
X211824810Y-84272901D01*
X211885765Y-84325125D01*
X211979190Y-84453991D01*
X212020723Y-84595409D01*
X212010362Y-84739727D01*
X211948108Y-84877290D01*
X211885765Y-84952654D01*
X211757052Y-85045843D01*
X211615272Y-85086921D01*
X211615272Y-85495663D01*
X211688570Y-85503484D01*
X211824810Y-85571123D01*
X211885765Y-85623347D01*
X211979190Y-85752213D01*
X212020723Y-85893631D01*
X212010362Y-86037949D01*
X211948108Y-86175513D01*
X211885765Y-86250876D01*
X211757052Y-86344065D01*
X211615272Y-86385143D01*
X211615272Y-86953111D01*
X212785555Y-86953111D01*
X212785555Y-72446889D01*
X201186222Y-72446889D01*
D12*
X131044857Y-93457128D02*
X131044857Y-92857128D01*
X130902000Y-92857128D01*
X130816285Y-92885700D01*
X130759142Y-92942842D01*
X130730571Y-92999985D01*
X130702000Y-93114271D01*
X130702000Y-93199985D01*
X130730571Y-93314271D01*
X130759142Y-93371414D01*
X130816285Y-93428557D01*
X130902000Y-93457128D01*
X131044857Y-93457128D01*
X130444857Y-93457128D02*
X130444857Y-92857128D01*
X130302000Y-92857128D01*
X130216285Y-92885700D01*
X130159142Y-92942842D01*
X130130571Y-92999985D01*
X130102000Y-93114271D01*
X130102000Y-93199985D01*
X130130571Y-93314271D01*
X130159142Y-93371414D01*
X130216285Y-93428557D01*
X130302000Y-93457128D01*
X130444857Y-93457128D01*
X129902000Y-92857128D02*
X129530571Y-92857128D01*
X129730571Y-93085700D01*
X129644857Y-93085700D01*
X129587714Y-93114271D01*
X129559142Y-93142842D01*
X129530571Y-93199985D01*
X129530571Y-93342842D01*
X129559142Y-93399985D01*
X129587714Y-93428557D01*
X129644857Y-93457128D01*
X129816285Y-93457128D01*
X129873428Y-93428557D01*
X129902000Y-93399985D01*
X131887714Y-102085700D02*
X131602000Y-102085700D01*
X131944857Y-102257128D02*
X131744857Y-101657128D01*
X131544857Y-102257128D01*
X131402000Y-101657128D02*
X131002000Y-102257128D01*
X131002000Y-101657128D02*
X131402000Y-102257128D01*
X130773428Y-102257128D02*
X130773428Y-101657128D01*
X130544857Y-101657128D01*
X130487714Y-101685700D01*
X130459142Y-101714271D01*
X130430571Y-101771414D01*
X130430571Y-101857128D01*
X130459142Y-101914271D01*
X130487714Y-101942842D01*
X130544857Y-101971414D01*
X130773428Y-101971414D01*
X130202000Y-101714271D02*
X130173428Y-101685700D01*
X130116285Y-101657128D01*
X129973428Y-101657128D01*
X129916285Y-101685700D01*
X129887714Y-101714271D01*
X129859142Y-101771414D01*
X129859142Y-101828557D01*
X129887714Y-101914271D01*
X130230571Y-102257128D01*
X129859142Y-102257128D01*
X129487714Y-101657128D02*
X129430571Y-101657128D01*
X129373428Y-101685700D01*
X129344857Y-101714271D01*
X129316285Y-101771414D01*
X129287714Y-101885700D01*
X129287714Y-102028557D01*
X129316285Y-102142842D01*
X129344857Y-102199985D01*
X129373428Y-102228557D01*
X129430571Y-102257128D01*
X129487714Y-102257128D01*
X129544857Y-102228557D01*
X129573428Y-102199985D01*
X129602000Y-102142842D01*
X129630571Y-102028557D01*
X129630571Y-101885700D01*
X129602000Y-101771414D01*
X129573428Y-101714271D01*
X129544857Y-101685700D01*
X129487714Y-101657128D01*
X129002000Y-102257128D02*
X128887714Y-102257128D01*
X128830571Y-102228557D01*
X128802000Y-102199985D01*
X128744857Y-102114271D01*
X128716285Y-101999985D01*
X128716285Y-101771414D01*
X128744857Y-101714271D01*
X128773428Y-101685700D01*
X128830571Y-101657128D01*
X128944857Y-101657128D01*
X129002000Y-101685700D01*
X129030571Y-101714271D01*
X129059142Y-101771414D01*
X129059142Y-101914271D01*
X129030571Y-101971414D01*
X129002000Y-101999985D01*
X128944857Y-102028557D01*
X128830571Y-102028557D01*
X128773428Y-101999985D01*
X128744857Y-101971414D01*
X128716285Y-101914271D01*
X134190571Y-94947128D02*
X134533428Y-94947128D01*
X134362000Y-94947128D02*
X134362000Y-94347128D01*
X134419142Y-94432842D01*
X134476285Y-94489985D01*
X134533428Y-94518557D01*
X159871428Y-106457142D02*
X159271428Y-106457142D01*
X159271428Y-106600000D01*
X159300000Y-106685714D01*
X159357142Y-106742857D01*
X159414285Y-106771428D01*
X159528571Y-106800000D01*
X159614285Y-106800000D01*
X159728571Y-106771428D01*
X159785714Y-106742857D01*
X159842857Y-106685714D01*
X159871428Y-106600000D01*
X159871428Y-106457142D01*
X159871428Y-107057142D02*
X159271428Y-107057142D01*
X159271428Y-107200000D01*
X159300000Y-107285714D01*
X159357142Y-107342857D01*
X159414285Y-107371428D01*
X159528571Y-107400000D01*
X159614285Y-107400000D01*
X159728571Y-107371428D01*
X159785714Y-107342857D01*
X159842857Y-107285714D01*
X159871428Y-107200000D01*
X159871428Y-107057142D01*
X159271428Y-107914285D02*
X159271428Y-107800000D01*
X159300000Y-107742857D01*
X159328571Y-107714285D01*
X159414285Y-107657142D01*
X159528571Y-107628571D01*
X159757142Y-107628571D01*
X159814285Y-107657142D01*
X159842857Y-107685714D01*
X159871428Y-107742857D01*
X159871428Y-107857142D01*
X159842857Y-107914285D01*
X159814285Y-107942857D01*
X159757142Y-107971428D01*
X159614285Y-107971428D01*
X159557142Y-107942857D01*
X159528571Y-107914285D01*
X159500000Y-107857142D01*
X159500000Y-107742857D01*
X159528571Y-107685714D01*
X159557142Y-107657142D01*
X159614285Y-107628571D01*
X157671428Y-105339285D02*
X157671428Y-105053571D01*
X157071428Y-105053571D01*
X157671428Y-105539285D02*
X157071428Y-105539285D01*
X157071428Y-105767857D01*
X157100000Y-105825000D01*
X157128571Y-105853571D01*
X157185714Y-105882142D01*
X157271428Y-105882142D01*
X157328571Y-105853571D01*
X157357142Y-105825000D01*
X157385714Y-105767857D01*
X157385714Y-105539285D01*
X157642857Y-106110714D02*
X157671428Y-106196428D01*
X157671428Y-106339285D01*
X157642857Y-106396428D01*
X157614285Y-106425000D01*
X157557142Y-106453571D01*
X157500000Y-106453571D01*
X157442857Y-106425000D01*
X157414285Y-106396428D01*
X157385714Y-106339285D01*
X157357142Y-106225000D01*
X157328571Y-106167857D01*
X157300000Y-106139285D01*
X157242857Y-106110714D01*
X157185714Y-106110714D01*
X157128571Y-106139285D01*
X157100000Y-106167857D01*
X157071428Y-106225000D01*
X157071428Y-106367857D01*
X157100000Y-106453571D01*
X157128571Y-106682142D02*
X157100000Y-106710714D01*
X157071428Y-106767857D01*
X157071428Y-106910714D01*
X157100000Y-106967857D01*
X157128571Y-106996428D01*
X157185714Y-107025000D01*
X157242857Y-107025000D01*
X157328571Y-106996428D01*
X157671428Y-106653571D01*
X157671428Y-107025000D01*
X157128571Y-107253571D02*
X157100000Y-107282142D01*
X157071428Y-107339285D01*
X157071428Y-107482142D01*
X157100000Y-107539285D01*
X157128571Y-107567857D01*
X157185714Y-107596428D01*
X157242857Y-107596428D01*
X157328571Y-107567857D01*
X157671428Y-107225000D01*
X157671428Y-107596428D01*
X157671428Y-107853571D02*
X157071428Y-107853571D01*
X157357142Y-107853571D02*
X157357142Y-108196428D01*
X157671428Y-108196428D02*
X157071428Y-108196428D01*
X157357142Y-108682142D02*
X157385714Y-108767857D01*
X157414285Y-108796428D01*
X157471428Y-108825000D01*
X157557142Y-108825000D01*
X157614285Y-108796428D01*
X157642857Y-108767857D01*
X157671428Y-108710714D01*
X157671428Y-108482142D01*
X157071428Y-108482142D01*
X157071428Y-108682142D01*
X157100000Y-108739285D01*
X157128571Y-108767857D01*
X157185714Y-108796428D01*
X157242857Y-108796428D01*
X157300000Y-108767857D01*
X157328571Y-108739285D01*
X157357142Y-108682142D01*
X157357142Y-108482142D01*
X161121428Y-108896428D02*
X161121428Y-108553571D01*
X161121428Y-108725000D02*
X160521428Y-108725000D01*
X160607142Y-108667857D01*
X160664285Y-108610714D01*
X160692857Y-108553571D01*
X130371428Y-80614285D02*
X130085714Y-80414285D01*
X130371428Y-80271428D02*
X129771428Y-80271428D01*
X129771428Y-80500000D01*
X129800000Y-80557142D01*
X129828571Y-80585714D01*
X129885714Y-80614285D01*
X129971428Y-80614285D01*
X130028571Y-80585714D01*
X130057142Y-80557142D01*
X130085714Y-80500000D01*
X130085714Y-80271428D01*
X130371428Y-81185714D02*
X130371428Y-80842857D01*
X130371428Y-81014285D02*
X129771428Y-81014285D01*
X129857142Y-80957142D01*
X129914285Y-80900000D01*
X129942857Y-80842857D01*
X129771428Y-81728571D02*
X129771428Y-81442857D01*
X130057142Y-81414285D01*
X130028571Y-81442857D01*
X130000000Y-81500000D01*
X130000000Y-81642857D01*
X130028571Y-81700000D01*
X130057142Y-81728571D01*
X130114285Y-81757142D01*
X130257142Y-81757142D01*
X130314285Y-81728571D01*
X130342857Y-81700000D01*
X130371428Y-81642857D01*
X130371428Y-81500000D01*
X130342857Y-81442857D01*
X130314285Y-81414285D01*
X131471428Y-80100000D02*
X131471428Y-80157142D01*
X131500000Y-80214285D01*
X131528571Y-80242857D01*
X131585714Y-80271428D01*
X131700000Y-80300000D01*
X131842857Y-80300000D01*
X131957142Y-80271428D01*
X132014285Y-80242857D01*
X132042857Y-80214285D01*
X132071428Y-80157142D01*
X132071428Y-80100000D01*
X132042857Y-80042857D01*
X132014285Y-80014285D01*
X131957142Y-79985714D01*
X131842857Y-79957142D01*
X131700000Y-79957142D01*
X131585714Y-79985714D01*
X131528571Y-80014285D01*
X131500000Y-80042857D01*
X131471428Y-80100000D01*
X132071428Y-80900000D02*
X131785714Y-80700000D01*
X132071428Y-80557142D02*
X131471428Y-80557142D01*
X131471428Y-80785714D01*
X131500000Y-80842857D01*
X131528571Y-80871428D01*
X131585714Y-80900000D01*
X131671428Y-80900000D01*
X131728571Y-80871428D01*
X131757142Y-80842857D01*
X131785714Y-80785714D01*
X131785714Y-80557142D01*
X131471428Y-81271428D02*
X131471428Y-81328571D01*
X131500000Y-81385714D01*
X131528571Y-81414285D01*
X131585714Y-81442857D01*
X131700000Y-81471428D01*
X131842857Y-81471428D01*
X131957142Y-81442857D01*
X132014285Y-81414285D01*
X132042857Y-81385714D01*
X132071428Y-81328571D01*
X132071428Y-81271428D01*
X132042857Y-81214285D01*
X132014285Y-81185714D01*
X131957142Y-81157142D01*
X131842857Y-81128571D01*
X131700000Y-81128571D01*
X131585714Y-81157142D01*
X131528571Y-81185714D01*
X131500000Y-81214285D01*
X131471428Y-81271428D01*
X131471428Y-81671428D02*
X131471428Y-82042857D01*
X131700000Y-81842857D01*
X131700000Y-81928571D01*
X131728571Y-81985714D01*
X131757142Y-82014285D01*
X131814285Y-82042857D01*
X131957142Y-82042857D01*
X132014285Y-82014285D01*
X132042857Y-81985714D01*
X132071428Y-81928571D01*
X132071428Y-81757142D01*
X132042857Y-81700000D01*
X132014285Y-81671428D01*
X162684285Y-106698285D02*
X162712857Y-106669714D01*
X162741428Y-106584000D01*
X162741428Y-106526857D01*
X162712857Y-106441142D01*
X162655714Y-106384000D01*
X162598571Y-106355428D01*
X162484285Y-106326857D01*
X162398571Y-106326857D01*
X162284285Y-106355428D01*
X162227142Y-106384000D01*
X162170000Y-106441142D01*
X162141428Y-106526857D01*
X162141428Y-106584000D01*
X162170000Y-106669714D01*
X162198571Y-106698285D01*
X162141428Y-107212571D02*
X162141428Y-107098285D01*
X162170000Y-107041142D01*
X162198571Y-107012571D01*
X162284285Y-106955428D01*
X162398571Y-106926857D01*
X162627142Y-106926857D01*
X162684285Y-106955428D01*
X162712857Y-106984000D01*
X162741428Y-107041142D01*
X162741428Y-107155428D01*
X162712857Y-107212571D01*
X162684285Y-107241142D01*
X162627142Y-107269714D01*
X162484285Y-107269714D01*
X162427142Y-107241142D01*
X162398571Y-107212571D01*
X162370000Y-107155428D01*
X162370000Y-107041142D01*
X162398571Y-106984000D01*
X162427142Y-106955428D01*
X162484285Y-106926857D01*
X162398571Y-107612571D02*
X162370000Y-107555428D01*
X162341428Y-107526857D01*
X162284285Y-107498285D01*
X162255714Y-107498285D01*
X162198571Y-107526857D01*
X162170000Y-107555428D01*
X162141428Y-107612571D01*
X162141428Y-107726857D01*
X162170000Y-107784000D01*
X162198571Y-107812571D01*
X162255714Y-107841142D01*
X162284285Y-107841142D01*
X162341428Y-107812571D01*
X162370000Y-107784000D01*
X162398571Y-107726857D01*
X162398571Y-107612571D01*
X162427142Y-107555428D01*
X162455714Y-107526857D01*
X162512857Y-107498285D01*
X162627142Y-107498285D01*
X162684285Y-107526857D01*
X162712857Y-107555428D01*
X162741428Y-107612571D01*
X162741428Y-107726857D01*
X162712857Y-107784000D01*
X162684285Y-107812571D01*
X162627142Y-107841142D01*
X162512857Y-107841142D01*
X162455714Y-107812571D01*
X162427142Y-107784000D01*
X162398571Y-107726857D01*
X163541428Y-105755428D02*
X163541428Y-105812571D01*
X163570000Y-105869714D01*
X163598571Y-105898285D01*
X163655714Y-105926857D01*
X163770000Y-105955428D01*
X163912857Y-105955428D01*
X164027142Y-105926857D01*
X164084285Y-105898285D01*
X164112857Y-105869714D01*
X164141428Y-105812571D01*
X164141428Y-105755428D01*
X164112857Y-105698285D01*
X164084285Y-105669714D01*
X164027142Y-105641142D01*
X163912857Y-105612571D01*
X163770000Y-105612571D01*
X163655714Y-105641142D01*
X163598571Y-105669714D01*
X163570000Y-105698285D01*
X163541428Y-105755428D01*
X164084285Y-106212571D02*
X164112857Y-106241142D01*
X164141428Y-106212571D01*
X164112857Y-106184000D01*
X164084285Y-106212571D01*
X164141428Y-106212571D01*
X164141428Y-106812571D02*
X164141428Y-106469714D01*
X164141428Y-106641142D02*
X163541428Y-106641142D01*
X163627142Y-106584000D01*
X163684285Y-106526857D01*
X163712857Y-106469714D01*
X163741428Y-107326857D02*
X164141428Y-107326857D01*
X163741428Y-107069714D02*
X164055714Y-107069714D01*
X164112857Y-107098285D01*
X164141428Y-107155428D01*
X164141428Y-107241142D01*
X164112857Y-107298285D01*
X164084285Y-107326857D01*
X138671428Y-83528571D02*
X138671428Y-83242857D01*
X138071428Y-83242857D01*
X138671428Y-83728571D02*
X138071428Y-83728571D01*
X138671428Y-84014285D02*
X138071428Y-84014285D01*
X138071428Y-84242857D01*
X138100000Y-84300000D01*
X138128571Y-84328571D01*
X138185714Y-84357142D01*
X138271428Y-84357142D01*
X138328571Y-84328571D01*
X138357142Y-84300000D01*
X138385714Y-84242857D01*
X138385714Y-84014285D01*
X138071428Y-84728571D02*
X138071428Y-84842857D01*
X138100000Y-84900000D01*
X138157142Y-84957142D01*
X138271428Y-84985714D01*
X138471428Y-84985714D01*
X138585714Y-84957142D01*
X138642857Y-84900000D01*
X138671428Y-84842857D01*
X138671428Y-84728571D01*
X138642857Y-84671428D01*
X138585714Y-84614285D01*
X138471428Y-84585714D01*
X138271428Y-84585714D01*
X138157142Y-84614285D01*
X138100000Y-84671428D01*
X138071428Y-84728571D01*
X138728571Y-85100000D02*
X138728571Y-85557142D01*
X138357142Y-85900000D02*
X138385714Y-85985714D01*
X138414285Y-86014285D01*
X138471428Y-86042857D01*
X138557142Y-86042857D01*
X138614285Y-86014285D01*
X138642857Y-85985714D01*
X138671428Y-85928571D01*
X138671428Y-85700000D01*
X138071428Y-85700000D01*
X138071428Y-85900000D01*
X138100000Y-85957142D01*
X138128571Y-85985714D01*
X138185714Y-86014285D01*
X138242857Y-86014285D01*
X138300000Y-85985714D01*
X138328571Y-85957142D01*
X138357142Y-85900000D01*
X138357142Y-85700000D01*
X138500000Y-86271428D02*
X138500000Y-86557142D01*
X138671428Y-86214285D02*
X138071428Y-86414285D01*
X138671428Y-86614285D01*
X138071428Y-86728571D02*
X138071428Y-87071428D01*
X138671428Y-86900000D02*
X138071428Y-86900000D01*
X138671428Y-87585714D02*
X138671428Y-87242857D01*
X138671428Y-87414285D02*
X138071428Y-87414285D01*
X138157142Y-87357142D01*
X138214285Y-87300000D01*
X138242857Y-87242857D01*
X142071428Y-82628571D02*
X141471428Y-82628571D01*
X141471428Y-82771428D01*
X141500000Y-82857142D01*
X141557142Y-82914285D01*
X141614285Y-82942857D01*
X141728571Y-82971428D01*
X141814285Y-82971428D01*
X141928571Y-82942857D01*
X141985714Y-82914285D01*
X142042857Y-82857142D01*
X142071428Y-82771428D01*
X142071428Y-82628571D01*
X141471428Y-83171428D02*
X142071428Y-83314285D01*
X141642857Y-83428571D01*
X142071428Y-83542857D01*
X141471428Y-83685714D01*
X141471428Y-84028571D02*
X141471428Y-84085714D01*
X141500000Y-84142857D01*
X141528571Y-84171428D01*
X141585714Y-84200000D01*
X141700000Y-84228571D01*
X141842857Y-84228571D01*
X141957142Y-84200000D01*
X142014285Y-84171428D01*
X142042857Y-84142857D01*
X142071428Y-84085714D01*
X142071428Y-84028571D01*
X142042857Y-83971428D01*
X142014285Y-83942857D01*
X141957142Y-83914285D01*
X141842857Y-83885714D01*
X141700000Y-83885714D01*
X141585714Y-83914285D01*
X141528571Y-83942857D01*
X141500000Y-83971428D01*
X141471428Y-84028571D01*
X141528571Y-84457142D02*
X141500000Y-84485714D01*
X141471428Y-84542857D01*
X141471428Y-84685714D01*
X141500000Y-84742857D01*
X141528571Y-84771428D01*
X141585714Y-84800000D01*
X141642857Y-84800000D01*
X141728571Y-84771428D01*
X142071428Y-84428571D01*
X142071428Y-84800000D01*
X142071428Y-85400000D02*
X141785714Y-85200000D01*
X142071428Y-85057142D02*
X141471428Y-85057142D01*
X141471428Y-85285714D01*
X141500000Y-85342857D01*
X141528571Y-85371428D01*
X141585714Y-85400000D01*
X141671428Y-85400000D01*
X141728571Y-85371428D01*
X141757142Y-85342857D01*
X141785714Y-85285714D01*
X141785714Y-85057142D01*
X161519000Y-104791428D02*
X161804714Y-104791428D01*
X161804714Y-104191428D01*
X161233285Y-104448571D02*
X161290428Y-104420000D01*
X161319000Y-104391428D01*
X161347571Y-104334285D01*
X161347571Y-104305714D01*
X161319000Y-104248571D01*
X161290428Y-104220000D01*
X161233285Y-104191428D01*
X161119000Y-104191428D01*
X161061857Y-104220000D01*
X161033285Y-104248571D01*
X161004714Y-104305714D01*
X161004714Y-104334285D01*
X161033285Y-104391428D01*
X161061857Y-104420000D01*
X161119000Y-104448571D01*
X161233285Y-104448571D01*
X161290428Y-104477142D01*
X161319000Y-104505714D01*
X161347571Y-104562857D01*
X161347571Y-104677142D01*
X161319000Y-104734285D01*
X161290428Y-104762857D01*
X161233285Y-104791428D01*
X161119000Y-104791428D01*
X161061857Y-104762857D01*
X161033285Y-104734285D01*
X161004714Y-104677142D01*
X161004714Y-104562857D01*
X161033285Y-104505714D01*
X161061857Y-104477142D01*
X161119000Y-104448571D01*
X162147571Y-103477142D02*
X162061857Y-103505714D01*
X162033285Y-103534285D01*
X162004714Y-103591428D01*
X162004714Y-103677142D01*
X162033285Y-103734285D01*
X162061857Y-103762857D01*
X162119000Y-103791428D01*
X162347571Y-103791428D01*
X162347571Y-103191428D01*
X162147571Y-103191428D01*
X162090428Y-103220000D01*
X162061857Y-103248571D01*
X162033285Y-103305714D01*
X162033285Y-103362857D01*
X162061857Y-103420000D01*
X162090428Y-103448571D01*
X162147571Y-103477142D01*
X162347571Y-103477142D01*
X161461857Y-103791428D02*
X161747571Y-103791428D01*
X161747571Y-103191428D01*
X161261857Y-103791428D02*
X161261857Y-103191428D01*
X161061857Y-103620000D01*
X160861857Y-103191428D01*
X160861857Y-103791428D01*
X160261857Y-103791428D02*
X160604714Y-103791428D01*
X160433285Y-103791428D02*
X160433285Y-103191428D01*
X160490428Y-103277142D01*
X160547571Y-103334285D01*
X160604714Y-103362857D01*
X159719000Y-103191428D02*
X160004714Y-103191428D01*
X160033285Y-103477142D01*
X160004714Y-103448571D01*
X159947571Y-103420000D01*
X159804714Y-103420000D01*
X159747571Y-103448571D01*
X159719000Y-103477142D01*
X159690428Y-103534285D01*
X159690428Y-103677142D01*
X159719000Y-103734285D01*
X159747571Y-103762857D01*
X159804714Y-103791428D01*
X159947571Y-103791428D01*
X160004714Y-103762857D01*
X160033285Y-103734285D01*
X159461857Y-103620000D02*
X159176142Y-103620000D01*
X159519000Y-103791428D02*
X159319000Y-103191428D01*
X159119000Y-103791428D01*
X158604714Y-103220000D02*
X158661857Y-103191428D01*
X158747571Y-103191428D01*
X158833285Y-103220000D01*
X158890428Y-103277142D01*
X158919000Y-103334285D01*
X158947571Y-103448571D01*
X158947571Y-103534285D01*
X158919000Y-103648571D01*
X158890428Y-103705714D01*
X158833285Y-103762857D01*
X158747571Y-103791428D01*
X158690428Y-103791428D01*
X158604714Y-103762857D01*
X158576142Y-103734285D01*
X158576142Y-103534285D01*
X158690428Y-103534285D01*
X158004714Y-103791428D02*
X158347571Y-103791428D01*
X158176142Y-103791428D02*
X158176142Y-103191428D01*
X158233285Y-103277142D01*
X158290428Y-103334285D01*
X158347571Y-103362857D01*
X157633285Y-103191428D02*
X157576142Y-103191428D01*
X157519000Y-103220000D01*
X157490428Y-103248571D01*
X157461857Y-103305714D01*
X157433285Y-103420000D01*
X157433285Y-103562857D01*
X157461857Y-103677142D01*
X157490428Y-103734285D01*
X157519000Y-103762857D01*
X157576142Y-103791428D01*
X157633285Y-103791428D01*
X157690428Y-103762857D01*
X157719000Y-103734285D01*
X157747571Y-103677142D01*
X157776142Y-103562857D01*
X157776142Y-103420000D01*
X157747571Y-103305714D01*
X157719000Y-103248571D01*
X157690428Y-103220000D01*
X157633285Y-103191428D01*
X157204714Y-103248571D02*
X157176142Y-103220000D01*
X157119000Y-103191428D01*
X156976142Y-103191428D01*
X156919000Y-103220000D01*
X156890428Y-103248571D01*
X156861857Y-103305714D01*
X156861857Y-103362857D01*
X156890428Y-103448571D01*
X157233285Y-103791428D01*
X156861857Y-103791428D01*
X116342857Y-88871428D02*
X116342857Y-88271428D01*
X116200000Y-88271428D01*
X116114285Y-88300000D01*
X116057142Y-88357142D01*
X116028571Y-88414285D01*
X116000000Y-88528571D01*
X116000000Y-88614285D01*
X116028571Y-88728571D01*
X116057142Y-88785714D01*
X116114285Y-88842857D01*
X116200000Y-88871428D01*
X116342857Y-88871428D01*
X115742857Y-88871428D02*
X115742857Y-88271428D01*
X115600000Y-88271428D01*
X115514285Y-88300000D01*
X115457142Y-88357142D01*
X115428571Y-88414285D01*
X115400000Y-88528571D01*
X115400000Y-88614285D01*
X115428571Y-88728571D01*
X115457142Y-88785714D01*
X115514285Y-88842857D01*
X115600000Y-88871428D01*
X115742857Y-88871428D01*
X114828571Y-88871428D02*
X115171428Y-88871428D01*
X115000000Y-88871428D02*
X115000000Y-88271428D01*
X115057142Y-88357142D01*
X115114285Y-88414285D01*
X115171428Y-88442857D01*
X110357142Y-87971428D02*
X110328571Y-87885714D01*
X110328571Y-87742857D01*
X110357142Y-87685714D01*
X110385714Y-87657142D01*
X110442857Y-87628571D01*
X110500000Y-87628571D01*
X110557142Y-87657142D01*
X110585714Y-87685714D01*
X110614285Y-87742857D01*
X110642857Y-87857142D01*
X110671428Y-87914285D01*
X110700000Y-87942857D01*
X110757142Y-87971428D01*
X110814285Y-87971428D01*
X110871428Y-87942857D01*
X110900000Y-87914285D01*
X110928571Y-87857142D01*
X110928571Y-87714285D01*
X110900000Y-87628571D01*
X110928571Y-87457142D02*
X110928571Y-87114285D01*
X110328571Y-87285714D02*
X110928571Y-87285714D01*
X110328571Y-86914285D02*
X110928571Y-86914285D01*
X110500000Y-86714285D01*
X110928571Y-86514285D01*
X110328571Y-86514285D01*
X110328571Y-86228571D02*
X110928571Y-86228571D01*
X110928571Y-86000000D01*
X110900000Y-85942857D01*
X110871428Y-85914285D01*
X110814285Y-85885714D01*
X110728571Y-85885714D01*
X110671428Y-85914285D01*
X110642857Y-85942857D01*
X110614285Y-86000000D01*
X110614285Y-86228571D01*
X110642857Y-85628571D02*
X110642857Y-85428571D01*
X110328571Y-85342857D02*
X110328571Y-85628571D01*
X110928571Y-85628571D01*
X110928571Y-85342857D01*
X110671428Y-85000000D02*
X110700000Y-85057142D01*
X110728571Y-85085714D01*
X110785714Y-85114285D01*
X110814285Y-85114285D01*
X110871428Y-85085714D01*
X110900000Y-85057142D01*
X110928571Y-85000000D01*
X110928571Y-84885714D01*
X110900000Y-84828571D01*
X110871428Y-84800000D01*
X110814285Y-84771428D01*
X110785714Y-84771428D01*
X110728571Y-84800000D01*
X110700000Y-84828571D01*
X110671428Y-84885714D01*
X110671428Y-85000000D01*
X110642857Y-85057142D01*
X110614285Y-85085714D01*
X110557142Y-85114285D01*
X110442857Y-85114285D01*
X110385714Y-85085714D01*
X110357142Y-85057142D01*
X110328571Y-85000000D01*
X110328571Y-84885714D01*
X110357142Y-84828571D01*
X110385714Y-84800000D01*
X110442857Y-84771428D01*
X110557142Y-84771428D01*
X110614285Y-84800000D01*
X110642857Y-84828571D01*
X110671428Y-84885714D01*
X110328571Y-84200000D02*
X110328571Y-84542857D01*
X110328571Y-84371428D02*
X110928571Y-84371428D01*
X110842857Y-84428571D01*
X110785714Y-84485714D01*
X110757142Y-84542857D01*
X110328571Y-83628571D02*
X110328571Y-83971428D01*
X110328571Y-83800000D02*
X110928571Y-83800000D01*
X110842857Y-83857142D01*
X110785714Y-83914285D01*
X110757142Y-83971428D01*
X115728571Y-84571428D02*
X116071428Y-84571428D01*
X115900000Y-84571428D02*
X115900000Y-83971428D01*
X115957142Y-84057142D01*
X116014285Y-84114285D01*
X116071428Y-84142857D01*
X108484285Y-81876457D02*
X108398571Y-81905028D01*
X108255714Y-81905028D01*
X108198571Y-81876457D01*
X108170000Y-81847885D01*
X108141428Y-81790742D01*
X108141428Y-81733600D01*
X108170000Y-81676457D01*
X108198571Y-81647885D01*
X108255714Y-81619314D01*
X108370000Y-81590742D01*
X108427142Y-81562171D01*
X108455714Y-81533600D01*
X108484285Y-81476457D01*
X108484285Y-81419314D01*
X108455714Y-81362171D01*
X108427142Y-81333600D01*
X108370000Y-81305028D01*
X108227142Y-81305028D01*
X108141428Y-81333600D01*
X107912857Y-81733600D02*
X107627142Y-81733600D01*
X107970000Y-81905028D02*
X107770000Y-81305028D01*
X107570000Y-81905028D01*
X107427142Y-81305028D02*
X107055714Y-81305028D01*
X107255714Y-81533600D01*
X107170000Y-81533600D01*
X107112857Y-81562171D01*
X107084285Y-81590742D01*
X107055714Y-81647885D01*
X107055714Y-81790742D01*
X107084285Y-81847885D01*
X107112857Y-81876457D01*
X107170000Y-81905028D01*
X107341428Y-81905028D01*
X107398571Y-81876457D01*
X107427142Y-81847885D01*
X109757142Y-76042857D02*
X109671428Y-76071428D01*
X109528571Y-76071428D01*
X109471428Y-76042857D01*
X109442857Y-76014285D01*
X109414285Y-75957142D01*
X109414285Y-75900000D01*
X109442857Y-75842857D01*
X109471428Y-75814285D01*
X109528571Y-75785714D01*
X109642857Y-75757142D01*
X109700000Y-75728571D01*
X109728571Y-75700000D01*
X109757142Y-75642857D01*
X109757142Y-75585714D01*
X109728571Y-75528571D01*
X109700000Y-75500000D01*
X109642857Y-75471428D01*
X109500000Y-75471428D01*
X109414285Y-75500000D01*
X109214285Y-75471428D02*
X109071428Y-76071428D01*
X108957142Y-75642857D01*
X108842857Y-76071428D01*
X108700000Y-75471428D01*
X108614285Y-76128571D02*
X108157142Y-76128571D01*
X108014285Y-76071428D02*
X108014285Y-75471428D01*
X107785714Y-75471428D01*
X107728571Y-75500000D01*
X107700000Y-75528571D01*
X107671428Y-75585714D01*
X107671428Y-75671428D01*
X107700000Y-75728571D01*
X107728571Y-75757142D01*
X107785714Y-75785714D01*
X108014285Y-75785714D01*
X107414285Y-75471428D02*
X107414285Y-75957142D01*
X107385714Y-76014285D01*
X107357142Y-76042857D01*
X107300000Y-76071428D01*
X107185714Y-76071428D01*
X107128571Y-76042857D01*
X107100000Y-76014285D01*
X107071428Y-75957142D01*
X107071428Y-75471428D01*
X106814285Y-76042857D02*
X106728571Y-76071428D01*
X106585714Y-76071428D01*
X106528571Y-76042857D01*
X106500000Y-76014285D01*
X106471428Y-75957142D01*
X106471428Y-75900000D01*
X106500000Y-75842857D01*
X106528571Y-75814285D01*
X106585714Y-75785714D01*
X106700000Y-75757142D01*
X106757142Y-75728571D01*
X106785714Y-75700000D01*
X106814285Y-75642857D01*
X106814285Y-75585714D01*
X106785714Y-75528571D01*
X106757142Y-75500000D01*
X106700000Y-75471428D01*
X106557142Y-75471428D01*
X106471428Y-75500000D01*
X106214285Y-76071428D02*
X106214285Y-75471428D01*
X106214285Y-75757142D02*
X105871428Y-75757142D01*
X105871428Y-76071428D02*
X105871428Y-75471428D01*
X104242857Y-68635714D02*
X104271428Y-68721428D01*
X104271428Y-68864285D01*
X104242857Y-68921428D01*
X104214285Y-68950000D01*
X104157142Y-68978571D01*
X104100000Y-68978571D01*
X104042857Y-68950000D01*
X104014285Y-68921428D01*
X103985714Y-68864285D01*
X103957142Y-68750000D01*
X103928571Y-68692857D01*
X103900000Y-68664285D01*
X103842857Y-68635714D01*
X103785714Y-68635714D01*
X103728571Y-68664285D01*
X103700000Y-68692857D01*
X103671428Y-68750000D01*
X103671428Y-68892857D01*
X103700000Y-68978571D01*
X104100000Y-69207142D02*
X104100000Y-69492857D01*
X104271428Y-69150000D02*
X103671428Y-69350000D01*
X104271428Y-69550000D01*
X103728571Y-69721428D02*
X103700000Y-69750000D01*
X103671428Y-69807142D01*
X103671428Y-69950000D01*
X103700000Y-70007142D01*
X103728571Y-70035714D01*
X103785714Y-70064285D01*
X103842857Y-70064285D01*
X103928571Y-70035714D01*
X104271428Y-69692857D01*
X104271428Y-70064285D01*
X109142857Y-67292857D02*
X109171428Y-67378571D01*
X109171428Y-67521428D01*
X109142857Y-67578571D01*
X109114285Y-67607142D01*
X109057142Y-67635714D01*
X109000000Y-67635714D01*
X108942857Y-67607142D01*
X108914285Y-67578571D01*
X108885714Y-67521428D01*
X108857142Y-67407142D01*
X108828571Y-67350000D01*
X108800000Y-67321428D01*
X108742857Y-67292857D01*
X108685714Y-67292857D01*
X108628571Y-67321428D01*
X108600000Y-67350000D01*
X108571428Y-67407142D01*
X108571428Y-67550000D01*
X108600000Y-67635714D01*
X108571428Y-67835714D02*
X109171428Y-67978571D01*
X108742857Y-68092857D01*
X109171428Y-68207142D01*
X108571428Y-68350000D01*
X109228571Y-68435714D02*
X109228571Y-68892857D01*
X109171428Y-69035714D02*
X108571428Y-69035714D01*
X108571428Y-69264285D01*
X108600000Y-69321428D01*
X108628571Y-69350000D01*
X108685714Y-69378571D01*
X108771428Y-69378571D01*
X108828571Y-69350000D01*
X108857142Y-69321428D01*
X108885714Y-69264285D01*
X108885714Y-69035714D01*
X108571428Y-69635714D02*
X109057142Y-69635714D01*
X109114285Y-69664285D01*
X109142857Y-69692857D01*
X109171428Y-69750000D01*
X109171428Y-69864285D01*
X109142857Y-69921428D01*
X109114285Y-69950000D01*
X109057142Y-69978571D01*
X108571428Y-69978571D01*
X109142857Y-70235714D02*
X109171428Y-70321428D01*
X109171428Y-70464285D01*
X109142857Y-70521428D01*
X109114285Y-70550000D01*
X109057142Y-70578571D01*
X109000000Y-70578571D01*
X108942857Y-70550000D01*
X108914285Y-70521428D01*
X108885714Y-70464285D01*
X108857142Y-70350000D01*
X108828571Y-70292857D01*
X108800000Y-70264285D01*
X108742857Y-70235714D01*
X108685714Y-70235714D01*
X108628571Y-70264285D01*
X108600000Y-70292857D01*
X108571428Y-70350000D01*
X108571428Y-70492857D01*
X108600000Y-70578571D01*
X109171428Y-70835714D02*
X108571428Y-70835714D01*
X108857142Y-70835714D02*
X108857142Y-71178571D01*
X109171428Y-71178571D02*
X108571428Y-71178571D01*
X126685714Y-87914285D02*
X126714285Y-87942857D01*
X126800000Y-87971428D01*
X126857142Y-87971428D01*
X126942857Y-87942857D01*
X127000000Y-87885714D01*
X127028571Y-87828571D01*
X127057142Y-87714285D01*
X127057142Y-87628571D01*
X127028571Y-87514285D01*
X127000000Y-87457142D01*
X126942857Y-87400000D01*
X126857142Y-87371428D01*
X126800000Y-87371428D01*
X126714285Y-87400000D01*
X126685714Y-87428571D01*
X126457142Y-87428571D02*
X126428571Y-87400000D01*
X126371428Y-87371428D01*
X126228571Y-87371428D01*
X126171428Y-87400000D01*
X126142857Y-87428571D01*
X126114285Y-87485714D01*
X126114285Y-87542857D01*
X126142857Y-87628571D01*
X126485714Y-87971428D01*
X126114285Y-87971428D01*
X125600000Y-87371428D02*
X125714285Y-87371428D01*
X125771428Y-87400000D01*
X125800000Y-87428571D01*
X125857142Y-87514285D01*
X125885714Y-87628571D01*
X125885714Y-87857142D01*
X125857142Y-87914285D01*
X125828571Y-87942857D01*
X125771428Y-87971428D01*
X125657142Y-87971428D01*
X125600000Y-87942857D01*
X125571428Y-87914285D01*
X125542857Y-87857142D01*
X125542857Y-87714285D01*
X125571428Y-87657142D01*
X125600000Y-87628571D01*
X125657142Y-87600000D01*
X125771428Y-87600000D01*
X125828571Y-87628571D01*
X125857142Y-87657142D01*
X125885714Y-87714285D01*
X125985714Y-86071428D02*
X125985714Y-86471428D01*
X126128571Y-85842857D02*
X126271428Y-86271428D01*
X125900000Y-86271428D01*
X125671428Y-86414285D02*
X125642857Y-86442857D01*
X125671428Y-86471428D01*
X125700000Y-86442857D01*
X125671428Y-86414285D01*
X125671428Y-86471428D01*
X125442857Y-85871428D02*
X125042857Y-85871428D01*
X125300000Y-86471428D01*
X124557142Y-86071428D02*
X124557142Y-86471428D01*
X124814285Y-86071428D02*
X124814285Y-86385714D01*
X124785714Y-86442857D01*
X124728571Y-86471428D01*
X124642857Y-86471428D01*
X124585714Y-86442857D01*
X124557142Y-86414285D01*
X112585714Y-66614285D02*
X112614285Y-66642857D01*
X112700000Y-66671428D01*
X112757142Y-66671428D01*
X112842857Y-66642857D01*
X112900000Y-66585714D01*
X112928571Y-66528571D01*
X112957142Y-66414285D01*
X112957142Y-66328571D01*
X112928571Y-66214285D01*
X112900000Y-66157142D01*
X112842857Y-66100000D01*
X112757142Y-66071428D01*
X112700000Y-66071428D01*
X112614285Y-66100000D01*
X112585714Y-66128571D01*
X112385714Y-66071428D02*
X112014285Y-66071428D01*
X112214285Y-66300000D01*
X112128571Y-66300000D01*
X112071428Y-66328571D01*
X112042857Y-66357142D01*
X112014285Y-66414285D01*
X112014285Y-66557142D01*
X112042857Y-66614285D01*
X112071428Y-66642857D01*
X112128571Y-66671428D01*
X112300000Y-66671428D01*
X112357142Y-66642857D01*
X112385714Y-66614285D01*
X111500000Y-66071428D02*
X111614285Y-66071428D01*
X111671428Y-66100000D01*
X111700000Y-66128571D01*
X111757142Y-66214285D01*
X111785714Y-66328571D01*
X111785714Y-66557142D01*
X111757142Y-66614285D01*
X111728571Y-66642857D01*
X111671428Y-66671428D01*
X111557142Y-66671428D01*
X111500000Y-66642857D01*
X111471428Y-66614285D01*
X111442857Y-66557142D01*
X111442857Y-66414285D01*
X111471428Y-66357142D01*
X111500000Y-66328571D01*
X111557142Y-66300000D01*
X111671428Y-66300000D01*
X111728571Y-66328571D01*
X111757142Y-66357142D01*
X111785714Y-66414285D01*
X115085714Y-66571428D02*
X115428571Y-66571428D01*
X115257142Y-66571428D02*
X115257142Y-65971428D01*
X115314285Y-66057142D01*
X115371428Y-66114285D01*
X115428571Y-66142857D01*
X114742857Y-66228571D02*
X114800000Y-66200000D01*
X114828571Y-66171428D01*
X114857142Y-66114285D01*
X114857142Y-66085714D01*
X114828571Y-66028571D01*
X114800000Y-66000000D01*
X114742857Y-65971428D01*
X114628571Y-65971428D01*
X114571428Y-66000000D01*
X114542857Y-66028571D01*
X114514285Y-66085714D01*
X114514285Y-66114285D01*
X114542857Y-66171428D01*
X114571428Y-66200000D01*
X114628571Y-66228571D01*
X114742857Y-66228571D01*
X114800000Y-66257142D01*
X114828571Y-66285714D01*
X114857142Y-66342857D01*
X114857142Y-66457142D01*
X114828571Y-66514285D01*
X114800000Y-66542857D01*
X114742857Y-66571428D01*
X114628571Y-66571428D01*
X114571428Y-66542857D01*
X114542857Y-66514285D01*
X114514285Y-66457142D01*
X114514285Y-66342857D01*
X114542857Y-66285714D01*
X114571428Y-66257142D01*
X114628571Y-66228571D01*
X114257142Y-66171428D02*
X114257142Y-66771428D01*
X114257142Y-66200000D02*
X114200000Y-66171428D01*
X114085714Y-66171428D01*
X114028571Y-66200000D01*
X114000000Y-66228571D01*
X113971428Y-66285714D01*
X113971428Y-66457142D01*
X114000000Y-66514285D01*
X114028571Y-66542857D01*
X114085714Y-66571428D01*
X114200000Y-66571428D01*
X114257142Y-66542857D01*
X110585714Y-58214285D02*
X110614285Y-58242857D01*
X110700000Y-58271428D01*
X110757142Y-58271428D01*
X110842857Y-58242857D01*
X110900000Y-58185714D01*
X110928571Y-58128571D01*
X110957142Y-58014285D01*
X110957142Y-57928571D01*
X110928571Y-57814285D01*
X110900000Y-57757142D01*
X110842857Y-57700000D01*
X110757142Y-57671428D01*
X110700000Y-57671428D01*
X110614285Y-57700000D01*
X110585714Y-57728571D01*
X110385714Y-57671428D02*
X110014285Y-57671428D01*
X110214285Y-57900000D01*
X110128571Y-57900000D01*
X110071428Y-57928571D01*
X110042857Y-57957142D01*
X110014285Y-58014285D01*
X110014285Y-58157142D01*
X110042857Y-58214285D01*
X110071428Y-58242857D01*
X110128571Y-58271428D01*
X110300000Y-58271428D01*
X110357142Y-58242857D01*
X110385714Y-58214285D01*
X109814285Y-57671428D02*
X109414285Y-57671428D01*
X109671428Y-58271428D01*
X112985714Y-58271428D02*
X113328571Y-58271428D01*
X113157142Y-58271428D02*
X113157142Y-57671428D01*
X113214285Y-57757142D01*
X113271428Y-57814285D01*
X113328571Y-57842857D01*
X112642857Y-57928571D02*
X112700000Y-57900000D01*
X112728571Y-57871428D01*
X112757142Y-57814285D01*
X112757142Y-57785714D01*
X112728571Y-57728571D01*
X112700000Y-57700000D01*
X112642857Y-57671428D01*
X112528571Y-57671428D01*
X112471428Y-57700000D01*
X112442857Y-57728571D01*
X112414285Y-57785714D01*
X112414285Y-57814285D01*
X112442857Y-57871428D01*
X112471428Y-57900000D01*
X112528571Y-57928571D01*
X112642857Y-57928571D01*
X112700000Y-57957142D01*
X112728571Y-57985714D01*
X112757142Y-58042857D01*
X112757142Y-58157142D01*
X112728571Y-58214285D01*
X112700000Y-58242857D01*
X112642857Y-58271428D01*
X112528571Y-58271428D01*
X112471428Y-58242857D01*
X112442857Y-58214285D01*
X112414285Y-58157142D01*
X112414285Y-58042857D01*
X112442857Y-57985714D01*
X112471428Y-57957142D01*
X112528571Y-57928571D01*
X112157142Y-57871428D02*
X112157142Y-58471428D01*
X112157142Y-57900000D02*
X112100000Y-57871428D01*
X111985714Y-57871428D01*
X111928571Y-57900000D01*
X111900000Y-57928571D01*
X111871428Y-57985714D01*
X111871428Y-58157142D01*
X111900000Y-58214285D01*
X111928571Y-58242857D01*
X111985714Y-58271428D01*
X112100000Y-58271428D01*
X112157142Y-58242857D01*
X139242714Y-67171985D02*
X139271285Y-67200557D01*
X139357000Y-67229128D01*
X139414142Y-67229128D01*
X139499857Y-67200557D01*
X139557000Y-67143414D01*
X139585571Y-67086271D01*
X139614142Y-66971985D01*
X139614142Y-66886271D01*
X139585571Y-66771985D01*
X139557000Y-66714842D01*
X139499857Y-66657700D01*
X139414142Y-66629128D01*
X139357000Y-66629128D01*
X139271285Y-66657700D01*
X139242714Y-66686271D01*
X139042714Y-66629128D02*
X138671285Y-66629128D01*
X138871285Y-66857700D01*
X138785571Y-66857700D01*
X138728428Y-66886271D01*
X138699857Y-66914842D01*
X138671285Y-66971985D01*
X138671285Y-67114842D01*
X138699857Y-67171985D01*
X138728428Y-67200557D01*
X138785571Y-67229128D01*
X138957000Y-67229128D01*
X139014142Y-67200557D01*
X139042714Y-67171985D01*
X138328428Y-66886271D02*
X138385571Y-66857700D01*
X138414142Y-66829128D01*
X138442714Y-66771985D01*
X138442714Y-66743414D01*
X138414142Y-66686271D01*
X138385571Y-66657700D01*
X138328428Y-66629128D01*
X138214142Y-66629128D01*
X138157000Y-66657700D01*
X138128428Y-66686271D01*
X138099857Y-66743414D01*
X138099857Y-66771985D01*
X138128428Y-66829128D01*
X138157000Y-66857700D01*
X138214142Y-66886271D01*
X138328428Y-66886271D01*
X138385571Y-66914842D01*
X138414142Y-66943414D01*
X138442714Y-67000557D01*
X138442714Y-67114842D01*
X138414142Y-67171985D01*
X138385571Y-67200557D01*
X138328428Y-67229128D01*
X138214142Y-67229128D01*
X138157000Y-67200557D01*
X138128428Y-67171985D01*
X138099857Y-67114842D01*
X138099857Y-67000557D01*
X138128428Y-66943414D01*
X138157000Y-66914842D01*
X138214142Y-66886271D01*
X142210571Y-66579128D02*
X142153428Y-66579128D01*
X142096285Y-66607700D01*
X142067714Y-66636271D01*
X142039142Y-66693414D01*
X142010571Y-66807700D01*
X142010571Y-66950557D01*
X142039142Y-67064842D01*
X142067714Y-67121985D01*
X142096285Y-67150557D01*
X142153428Y-67179128D01*
X142210571Y-67179128D01*
X142267714Y-67150557D01*
X142296285Y-67121985D01*
X142324857Y-67064842D01*
X142353428Y-66950557D01*
X142353428Y-66807700D01*
X142324857Y-66693414D01*
X142296285Y-66636271D01*
X142267714Y-66607700D01*
X142210571Y-66579128D01*
X141753428Y-67121985D02*
X141724857Y-67150557D01*
X141753428Y-67179128D01*
X141782000Y-67150557D01*
X141753428Y-67121985D01*
X141753428Y-67179128D01*
X141153428Y-67179128D02*
X141496285Y-67179128D01*
X141324857Y-67179128D02*
X141324857Y-66579128D01*
X141382000Y-66664842D01*
X141439142Y-66721985D01*
X141496285Y-66750557D01*
X140639142Y-66779128D02*
X140639142Y-67179128D01*
X140896285Y-66779128D02*
X140896285Y-67093414D01*
X140867714Y-67150557D01*
X140810571Y-67179128D01*
X140724857Y-67179128D01*
X140667714Y-67150557D01*
X140639142Y-67121985D01*
X118376285Y-73552685D02*
X118404857Y-73524114D01*
X118433428Y-73438400D01*
X118433428Y-73381257D01*
X118404857Y-73295542D01*
X118347714Y-73238400D01*
X118290571Y-73209828D01*
X118176285Y-73181257D01*
X118090571Y-73181257D01*
X117976285Y-73209828D01*
X117919142Y-73238400D01*
X117862000Y-73295542D01*
X117833428Y-73381257D01*
X117833428Y-73438400D01*
X117862000Y-73524114D01*
X117890571Y-73552685D01*
X117833428Y-73752685D02*
X117833428Y-74124114D01*
X118062000Y-73924114D01*
X118062000Y-74009828D01*
X118090571Y-74066971D01*
X118119142Y-74095542D01*
X118176285Y-74124114D01*
X118319142Y-74124114D01*
X118376285Y-74095542D01*
X118404857Y-74066971D01*
X118433428Y-74009828D01*
X118433428Y-73838400D01*
X118404857Y-73781257D01*
X118376285Y-73752685D01*
X118433428Y-74409828D02*
X118433428Y-74524114D01*
X118404857Y-74581257D01*
X118376285Y-74609828D01*
X118290571Y-74666971D01*
X118176285Y-74695542D01*
X117947714Y-74695542D01*
X117890571Y-74666971D01*
X117862000Y-74638400D01*
X117833428Y-74581257D01*
X117833428Y-74466971D01*
X117862000Y-74409828D01*
X117890571Y-74381257D01*
X117947714Y-74352685D01*
X118090571Y-74352685D01*
X118147714Y-74381257D01*
X118176285Y-74409828D01*
X118204857Y-74466971D01*
X118204857Y-74581257D01*
X118176285Y-74638400D01*
X118147714Y-74666971D01*
X118090571Y-74695542D01*
X116383428Y-73109828D02*
X116383428Y-73166971D01*
X116412000Y-73224114D01*
X116440571Y-73252685D01*
X116497714Y-73281257D01*
X116612000Y-73309828D01*
X116754857Y-73309828D01*
X116869142Y-73281257D01*
X116926285Y-73252685D01*
X116954857Y-73224114D01*
X116983428Y-73166971D01*
X116983428Y-73109828D01*
X116954857Y-73052685D01*
X116926285Y-73024114D01*
X116869142Y-72995542D01*
X116754857Y-72966971D01*
X116612000Y-72966971D01*
X116497714Y-72995542D01*
X116440571Y-73024114D01*
X116412000Y-73052685D01*
X116383428Y-73109828D01*
X116926285Y-73566971D02*
X116954857Y-73595542D01*
X116983428Y-73566971D01*
X116954857Y-73538400D01*
X116926285Y-73566971D01*
X116983428Y-73566971D01*
X116983428Y-74166971D02*
X116983428Y-73824114D01*
X116983428Y-73995542D02*
X116383428Y-73995542D01*
X116469142Y-73938400D01*
X116526285Y-73881257D01*
X116554857Y-73824114D01*
X116583428Y-74681257D02*
X116983428Y-74681257D01*
X116583428Y-74424114D02*
X116897714Y-74424114D01*
X116954857Y-74452685D01*
X116983428Y-74509828D01*
X116983428Y-74595542D01*
X116954857Y-74652685D01*
X116926285Y-74681257D01*
X112585714Y-69814285D02*
X112614285Y-69842857D01*
X112700000Y-69871428D01*
X112757142Y-69871428D01*
X112842857Y-69842857D01*
X112900000Y-69785714D01*
X112928571Y-69728571D01*
X112957142Y-69614285D01*
X112957142Y-69528571D01*
X112928571Y-69414285D01*
X112900000Y-69357142D01*
X112842857Y-69300000D01*
X112757142Y-69271428D01*
X112700000Y-69271428D01*
X112614285Y-69300000D01*
X112585714Y-69328571D01*
X112071428Y-69471428D02*
X112071428Y-69871428D01*
X112214285Y-69242857D02*
X112357142Y-69671428D01*
X111985714Y-69671428D01*
X111642857Y-69271428D02*
X111585714Y-69271428D01*
X111528571Y-69300000D01*
X111500000Y-69328571D01*
X111471428Y-69385714D01*
X111442857Y-69500000D01*
X111442857Y-69642857D01*
X111471428Y-69757142D01*
X111500000Y-69814285D01*
X111528571Y-69842857D01*
X111585714Y-69871428D01*
X111642857Y-69871428D01*
X111700000Y-69842857D01*
X111728571Y-69814285D01*
X111757142Y-69757142D01*
X111785714Y-69642857D01*
X111785714Y-69500000D01*
X111757142Y-69385714D01*
X111728571Y-69328571D01*
X111700000Y-69300000D01*
X111642857Y-69271428D01*
X115528571Y-69271428D02*
X115471428Y-69271428D01*
X115414285Y-69300000D01*
X115385714Y-69328571D01*
X115357142Y-69385714D01*
X115328571Y-69500000D01*
X115328571Y-69642857D01*
X115357142Y-69757142D01*
X115385714Y-69814285D01*
X115414285Y-69842857D01*
X115471428Y-69871428D01*
X115528571Y-69871428D01*
X115585714Y-69842857D01*
X115614285Y-69814285D01*
X115642857Y-69757142D01*
X115671428Y-69642857D01*
X115671428Y-69500000D01*
X115642857Y-69385714D01*
X115614285Y-69328571D01*
X115585714Y-69300000D01*
X115528571Y-69271428D01*
X115071428Y-69814285D02*
X115042857Y-69842857D01*
X115071428Y-69871428D01*
X115100000Y-69842857D01*
X115071428Y-69814285D01*
X115071428Y-69871428D01*
X114471428Y-69871428D02*
X114814285Y-69871428D01*
X114642857Y-69871428D02*
X114642857Y-69271428D01*
X114700000Y-69357142D01*
X114757142Y-69414285D01*
X114814285Y-69442857D01*
X113957142Y-69471428D02*
X113957142Y-69871428D01*
X114214285Y-69471428D02*
X114214285Y-69785714D01*
X114185714Y-69842857D01*
X114128571Y-69871428D01*
X114042857Y-69871428D01*
X113985714Y-69842857D01*
X113957142Y-69814285D01*
X110635714Y-53464285D02*
X110664285Y-53492857D01*
X110750000Y-53521428D01*
X110807142Y-53521428D01*
X110892857Y-53492857D01*
X110950000Y-53435714D01*
X110978571Y-53378571D01*
X111007142Y-53264285D01*
X111007142Y-53178571D01*
X110978571Y-53064285D01*
X110950000Y-53007142D01*
X110892857Y-52950000D01*
X110807142Y-52921428D01*
X110750000Y-52921428D01*
X110664285Y-52950000D01*
X110635714Y-52978571D01*
X110121428Y-53121428D02*
X110121428Y-53521428D01*
X110264285Y-52892857D02*
X110407142Y-53321428D01*
X110035714Y-53321428D01*
X109835714Y-52978571D02*
X109807142Y-52950000D01*
X109750000Y-52921428D01*
X109607142Y-52921428D01*
X109550000Y-52950000D01*
X109521428Y-52978571D01*
X109492857Y-53035714D01*
X109492857Y-53092857D01*
X109521428Y-53178571D01*
X109864285Y-53521428D01*
X109492857Y-53521428D01*
X112500000Y-51871428D02*
X112842857Y-51871428D01*
X112671428Y-51871428D02*
X112671428Y-51271428D01*
X112728571Y-51357142D01*
X112785714Y-51414285D01*
X112842857Y-51442857D01*
X111985714Y-51471428D02*
X111985714Y-51871428D01*
X112242857Y-51471428D02*
X112242857Y-51785714D01*
X112214285Y-51842857D01*
X112157142Y-51871428D01*
X112071428Y-51871428D01*
X112014285Y-51842857D01*
X111985714Y-51814285D01*
X110585714Y-56614285D02*
X110614285Y-56642857D01*
X110700000Y-56671428D01*
X110757142Y-56671428D01*
X110842857Y-56642857D01*
X110900000Y-56585714D01*
X110928571Y-56528571D01*
X110957142Y-56414285D01*
X110957142Y-56328571D01*
X110928571Y-56214285D01*
X110900000Y-56157142D01*
X110842857Y-56100000D01*
X110757142Y-56071428D01*
X110700000Y-56071428D01*
X110614285Y-56100000D01*
X110585714Y-56128571D01*
X110071428Y-56271428D02*
X110071428Y-56671428D01*
X110214285Y-56042857D02*
X110357142Y-56471428D01*
X109985714Y-56471428D01*
X109814285Y-56071428D02*
X109442857Y-56071428D01*
X109642857Y-56300000D01*
X109557142Y-56300000D01*
X109500000Y-56328571D01*
X109471428Y-56357142D01*
X109442857Y-56414285D01*
X109442857Y-56557142D01*
X109471428Y-56614285D01*
X109500000Y-56642857D01*
X109557142Y-56671428D01*
X109728571Y-56671428D01*
X109785714Y-56642857D01*
X109814285Y-56614285D01*
X113528571Y-56071428D02*
X113471428Y-56071428D01*
X113414285Y-56100000D01*
X113385714Y-56128571D01*
X113357142Y-56185714D01*
X113328571Y-56300000D01*
X113328571Y-56442857D01*
X113357142Y-56557142D01*
X113385714Y-56614285D01*
X113414285Y-56642857D01*
X113471428Y-56671428D01*
X113528571Y-56671428D01*
X113585714Y-56642857D01*
X113614285Y-56614285D01*
X113642857Y-56557142D01*
X113671428Y-56442857D01*
X113671428Y-56300000D01*
X113642857Y-56185714D01*
X113614285Y-56128571D01*
X113585714Y-56100000D01*
X113528571Y-56071428D01*
X113071428Y-56614285D02*
X113042857Y-56642857D01*
X113071428Y-56671428D01*
X113100000Y-56642857D01*
X113071428Y-56614285D01*
X113071428Y-56671428D01*
X112471428Y-56671428D02*
X112814285Y-56671428D01*
X112642857Y-56671428D02*
X112642857Y-56071428D01*
X112700000Y-56157142D01*
X112757142Y-56214285D01*
X112814285Y-56242857D01*
X111957142Y-56271428D02*
X111957142Y-56671428D01*
X112214285Y-56271428D02*
X112214285Y-56585714D01*
X112185714Y-56642857D01*
X112128571Y-56671428D01*
X112042857Y-56671428D01*
X111985714Y-56642857D01*
X111957142Y-56614285D01*
X110585714Y-55014285D02*
X110614285Y-55042857D01*
X110700000Y-55071428D01*
X110757142Y-55071428D01*
X110842857Y-55042857D01*
X110900000Y-54985714D01*
X110928571Y-54928571D01*
X110957142Y-54814285D01*
X110957142Y-54728571D01*
X110928571Y-54614285D01*
X110900000Y-54557142D01*
X110842857Y-54500000D01*
X110757142Y-54471428D01*
X110700000Y-54471428D01*
X110614285Y-54500000D01*
X110585714Y-54528571D01*
X110071428Y-54671428D02*
X110071428Y-55071428D01*
X110214285Y-54442857D02*
X110357142Y-54871428D01*
X109985714Y-54871428D01*
X109471428Y-54471428D02*
X109757142Y-54471428D01*
X109785714Y-54757142D01*
X109757142Y-54728571D01*
X109700000Y-54700000D01*
X109557142Y-54700000D01*
X109500000Y-54728571D01*
X109471428Y-54757142D01*
X109442857Y-54814285D01*
X109442857Y-54957142D01*
X109471428Y-55014285D01*
X109500000Y-55042857D01*
X109557142Y-55071428D01*
X109700000Y-55071428D01*
X109757142Y-55042857D01*
X109785714Y-55014285D01*
X112500000Y-55071428D02*
X112842857Y-55071428D01*
X112671428Y-55071428D02*
X112671428Y-54471428D01*
X112728571Y-54557142D01*
X112785714Y-54614285D01*
X112842857Y-54642857D01*
X111985714Y-54671428D02*
X111985714Y-55071428D01*
X112242857Y-54671428D02*
X112242857Y-54985714D01*
X112214285Y-55042857D01*
X112157142Y-55071428D01*
X112071428Y-55071428D01*
X112014285Y-55042857D01*
X111985714Y-55014285D01*
X139292714Y-68721985D02*
X139321285Y-68750557D01*
X139407000Y-68779128D01*
X139464142Y-68779128D01*
X139549857Y-68750557D01*
X139607000Y-68693414D01*
X139635571Y-68636271D01*
X139664142Y-68521985D01*
X139664142Y-68436271D01*
X139635571Y-68321985D01*
X139607000Y-68264842D01*
X139549857Y-68207700D01*
X139464142Y-68179128D01*
X139407000Y-68179128D01*
X139321285Y-68207700D01*
X139292714Y-68236271D01*
X138778428Y-68379128D02*
X138778428Y-68779128D01*
X138921285Y-68150557D02*
X139064142Y-68579128D01*
X138692714Y-68579128D01*
X138521285Y-68179128D02*
X138121285Y-68179128D01*
X138378428Y-68779128D01*
X142404571Y-68238128D02*
X142347428Y-68238128D01*
X142290285Y-68266700D01*
X142261714Y-68295271D01*
X142233142Y-68352414D01*
X142204571Y-68466700D01*
X142204571Y-68609557D01*
X142233142Y-68723842D01*
X142261714Y-68780985D01*
X142290285Y-68809557D01*
X142347428Y-68838128D01*
X142404571Y-68838128D01*
X142461714Y-68809557D01*
X142490285Y-68780985D01*
X142518857Y-68723842D01*
X142547428Y-68609557D01*
X142547428Y-68466700D01*
X142518857Y-68352414D01*
X142490285Y-68295271D01*
X142461714Y-68266700D01*
X142404571Y-68238128D01*
X141947428Y-68780985D02*
X141918857Y-68809557D01*
X141947428Y-68838128D01*
X141976000Y-68809557D01*
X141947428Y-68780985D01*
X141947428Y-68838128D01*
X141347428Y-68838128D02*
X141690285Y-68838128D01*
X141518857Y-68838128D02*
X141518857Y-68238128D01*
X141576000Y-68323842D01*
X141633142Y-68380985D01*
X141690285Y-68409557D01*
X140833142Y-68438128D02*
X140833142Y-68838128D01*
X141090285Y-68438128D02*
X141090285Y-68752414D01*
X141061714Y-68809557D01*
X141004571Y-68838128D01*
X140918857Y-68838128D01*
X140861714Y-68809557D01*
X140833142Y-68780985D01*
X139317714Y-70296985D02*
X139346285Y-70325557D01*
X139432000Y-70354128D01*
X139489142Y-70354128D01*
X139574857Y-70325557D01*
X139632000Y-70268414D01*
X139660571Y-70211271D01*
X139689142Y-70096985D01*
X139689142Y-70011271D01*
X139660571Y-69896985D01*
X139632000Y-69839842D01*
X139574857Y-69782700D01*
X139489142Y-69754128D01*
X139432000Y-69754128D01*
X139346285Y-69782700D01*
X139317714Y-69811271D01*
X138803428Y-69954128D02*
X138803428Y-70354128D01*
X138946285Y-69725557D02*
X139089142Y-70154128D01*
X138717714Y-70154128D01*
X138403428Y-70011271D02*
X138460571Y-69982700D01*
X138489142Y-69954128D01*
X138517714Y-69896985D01*
X138517714Y-69868414D01*
X138489142Y-69811271D01*
X138460571Y-69782700D01*
X138403428Y-69754128D01*
X138289142Y-69754128D01*
X138232000Y-69782700D01*
X138203428Y-69811271D01*
X138174857Y-69868414D01*
X138174857Y-69896985D01*
X138203428Y-69954128D01*
X138232000Y-69982700D01*
X138289142Y-70011271D01*
X138403428Y-70011271D01*
X138460571Y-70039842D01*
X138489142Y-70068414D01*
X138517714Y-70125557D01*
X138517714Y-70239842D01*
X138489142Y-70296985D01*
X138460571Y-70325557D01*
X138403428Y-70354128D01*
X138289142Y-70354128D01*
X138232000Y-70325557D01*
X138203428Y-70296985D01*
X138174857Y-70239842D01*
X138174857Y-70125557D01*
X138203428Y-70068414D01*
X138232000Y-70039842D01*
X138289142Y-70011271D01*
X141182000Y-70329128D02*
X141524857Y-70329128D01*
X141353428Y-70329128D02*
X141353428Y-69729128D01*
X141410571Y-69814842D01*
X141467714Y-69871985D01*
X141524857Y-69900557D01*
X140667714Y-69929128D02*
X140667714Y-70329128D01*
X140924857Y-69929128D02*
X140924857Y-70243414D01*
X140896285Y-70300557D01*
X140839142Y-70329128D01*
X140753428Y-70329128D01*
X140696285Y-70300557D01*
X140667714Y-70271985D01*
X131585714Y-84414285D02*
X131614285Y-84442857D01*
X131700000Y-84471428D01*
X131757142Y-84471428D01*
X131842857Y-84442857D01*
X131900000Y-84385714D01*
X131928571Y-84328571D01*
X131957142Y-84214285D01*
X131957142Y-84128571D01*
X131928571Y-84014285D01*
X131900000Y-83957142D01*
X131842857Y-83900000D01*
X131757142Y-83871428D01*
X131700000Y-83871428D01*
X131614285Y-83900000D01*
X131585714Y-83928571D01*
X131357142Y-83928571D02*
X131328571Y-83900000D01*
X131271428Y-83871428D01*
X131128571Y-83871428D01*
X131071428Y-83900000D01*
X131042857Y-83928571D01*
X131014285Y-83985714D01*
X131014285Y-84042857D01*
X131042857Y-84128571D01*
X131385714Y-84471428D01*
X131014285Y-84471428D01*
X130500000Y-84071428D02*
X130500000Y-84471428D01*
X130642857Y-83842857D02*
X130785714Y-84271428D01*
X130414285Y-84271428D01*
X129385714Y-84271428D02*
X129728571Y-84271428D01*
X129557142Y-84271428D02*
X129557142Y-83671428D01*
X129614285Y-83757142D01*
X129671428Y-83814285D01*
X129728571Y-83842857D01*
X129014285Y-83671428D02*
X128957142Y-83671428D01*
X128900000Y-83700000D01*
X128871428Y-83728571D01*
X128842857Y-83785714D01*
X128814285Y-83900000D01*
X128814285Y-84042857D01*
X128842857Y-84157142D01*
X128871428Y-84214285D01*
X128900000Y-84242857D01*
X128957142Y-84271428D01*
X129014285Y-84271428D01*
X129071428Y-84242857D01*
X129100000Y-84214285D01*
X129128571Y-84157142D01*
X129157142Y-84042857D01*
X129157142Y-83900000D01*
X129128571Y-83785714D01*
X129100000Y-83728571D01*
X129071428Y-83700000D01*
X129014285Y-83671428D01*
X128300000Y-83871428D02*
X128300000Y-84271428D01*
X128557142Y-83871428D02*
X128557142Y-84185714D01*
X128528571Y-84242857D01*
X128471428Y-84271428D01*
X128385714Y-84271428D01*
X128328571Y-84242857D01*
X128300000Y-84214285D01*
X110585714Y-51814285D02*
X110614285Y-51842857D01*
X110700000Y-51871428D01*
X110757142Y-51871428D01*
X110842857Y-51842857D01*
X110900000Y-51785714D01*
X110928571Y-51728571D01*
X110957142Y-51614285D01*
X110957142Y-51528571D01*
X110928571Y-51414285D01*
X110900000Y-51357142D01*
X110842857Y-51300000D01*
X110757142Y-51271428D01*
X110700000Y-51271428D01*
X110614285Y-51300000D01*
X110585714Y-51328571D01*
X110071428Y-51471428D02*
X110071428Y-51871428D01*
X110214285Y-51242857D02*
X110357142Y-51671428D01*
X109985714Y-51671428D01*
X109442857Y-51871428D02*
X109785714Y-51871428D01*
X109614285Y-51871428D02*
X109614285Y-51271428D01*
X109671428Y-51357142D01*
X109728571Y-51414285D01*
X109785714Y-51442857D01*
X113528571Y-52871428D02*
X113471428Y-52871428D01*
X113414285Y-52900000D01*
X113385714Y-52928571D01*
X113357142Y-52985714D01*
X113328571Y-53100000D01*
X113328571Y-53242857D01*
X113357142Y-53357142D01*
X113385714Y-53414285D01*
X113414285Y-53442857D01*
X113471428Y-53471428D01*
X113528571Y-53471428D01*
X113585714Y-53442857D01*
X113614285Y-53414285D01*
X113642857Y-53357142D01*
X113671428Y-53242857D01*
X113671428Y-53100000D01*
X113642857Y-52985714D01*
X113614285Y-52928571D01*
X113585714Y-52900000D01*
X113528571Y-52871428D01*
X113071428Y-53414285D02*
X113042857Y-53442857D01*
X113071428Y-53471428D01*
X113100000Y-53442857D01*
X113071428Y-53414285D01*
X113071428Y-53471428D01*
X112471428Y-53471428D02*
X112814285Y-53471428D01*
X112642857Y-53471428D02*
X112642857Y-52871428D01*
X112700000Y-52957142D01*
X112757142Y-53014285D01*
X112814285Y-53042857D01*
X111957142Y-53071428D02*
X111957142Y-53471428D01*
X112214285Y-53071428D02*
X112214285Y-53385714D01*
X112185714Y-53442857D01*
X112128571Y-53471428D01*
X112042857Y-53471428D01*
X111985714Y-53442857D01*
X111957142Y-53414285D01*
X143674285Y-106414285D02*
X143702857Y-106385714D01*
X143731428Y-106300000D01*
X143731428Y-106242857D01*
X143702857Y-106157142D01*
X143645714Y-106100000D01*
X143588571Y-106071428D01*
X143474285Y-106042857D01*
X143388571Y-106042857D01*
X143274285Y-106071428D01*
X143217142Y-106100000D01*
X143160000Y-106157142D01*
X143131428Y-106242857D01*
X143131428Y-106300000D01*
X143160000Y-106385714D01*
X143188571Y-106414285D01*
X143131428Y-106928571D02*
X143131428Y-106814285D01*
X143160000Y-106757142D01*
X143188571Y-106728571D01*
X143274285Y-106671428D01*
X143388571Y-106642857D01*
X143617142Y-106642857D01*
X143674285Y-106671428D01*
X143702857Y-106700000D01*
X143731428Y-106757142D01*
X143731428Y-106871428D01*
X143702857Y-106928571D01*
X143674285Y-106957142D01*
X143617142Y-106985714D01*
X143474285Y-106985714D01*
X143417142Y-106957142D01*
X143388571Y-106928571D01*
X143360000Y-106871428D01*
X143360000Y-106757142D01*
X143388571Y-106700000D01*
X143417142Y-106671428D01*
X143474285Y-106642857D01*
X143131428Y-107185714D02*
X143131428Y-107557142D01*
X143360000Y-107357142D01*
X143360000Y-107442857D01*
X143388571Y-107500000D01*
X143417142Y-107528571D01*
X143474285Y-107557142D01*
X143617142Y-107557142D01*
X143674285Y-107528571D01*
X143702857Y-107500000D01*
X143731428Y-107442857D01*
X143731428Y-107271428D01*
X143702857Y-107214285D01*
X143674285Y-107185714D01*
X141871428Y-106071428D02*
X141871428Y-106128571D01*
X141900000Y-106185714D01*
X141928571Y-106214285D01*
X141985714Y-106242857D01*
X142100000Y-106271428D01*
X142242857Y-106271428D01*
X142357142Y-106242857D01*
X142414285Y-106214285D01*
X142442857Y-106185714D01*
X142471428Y-106128571D01*
X142471428Y-106071428D01*
X142442857Y-106014285D01*
X142414285Y-105985714D01*
X142357142Y-105957142D01*
X142242857Y-105928571D01*
X142100000Y-105928571D01*
X141985714Y-105957142D01*
X141928571Y-105985714D01*
X141900000Y-106014285D01*
X141871428Y-106071428D01*
X142414285Y-106528571D02*
X142442857Y-106557142D01*
X142471428Y-106528571D01*
X142442857Y-106500000D01*
X142414285Y-106528571D01*
X142471428Y-106528571D01*
X142471428Y-107128571D02*
X142471428Y-106785714D01*
X142471428Y-106957142D02*
X141871428Y-106957142D01*
X141957142Y-106900000D01*
X142014285Y-106842857D01*
X142042857Y-106785714D01*
X142071428Y-107642857D02*
X142471428Y-107642857D01*
X142071428Y-107385714D02*
X142385714Y-107385714D01*
X142442857Y-107414285D01*
X142471428Y-107471428D01*
X142471428Y-107557142D01*
X142442857Y-107614285D01*
X142414285Y-107642857D01*
X129685714Y-52664285D02*
X129714285Y-52692857D01*
X129800000Y-52721428D01*
X129857142Y-52721428D01*
X129942857Y-52692857D01*
X130000000Y-52635714D01*
X130028571Y-52578571D01*
X130057142Y-52464285D01*
X130057142Y-52378571D01*
X130028571Y-52264285D01*
X130000000Y-52207142D01*
X129942857Y-52150000D01*
X129857142Y-52121428D01*
X129800000Y-52121428D01*
X129714285Y-52150000D01*
X129685714Y-52178571D01*
X129485714Y-52121428D02*
X129114285Y-52121428D01*
X129314285Y-52350000D01*
X129228571Y-52350000D01*
X129171428Y-52378571D01*
X129142857Y-52407142D01*
X129114285Y-52464285D01*
X129114285Y-52607142D01*
X129142857Y-52664285D01*
X129171428Y-52692857D01*
X129228571Y-52721428D01*
X129400000Y-52721428D01*
X129457142Y-52692857D01*
X129485714Y-52664285D01*
X128571428Y-52121428D02*
X128857142Y-52121428D01*
X128885714Y-52407142D01*
X128857142Y-52378571D01*
X128800000Y-52350000D01*
X128657142Y-52350000D01*
X128600000Y-52378571D01*
X128571428Y-52407142D01*
X128542857Y-52464285D01*
X128542857Y-52607142D01*
X128571428Y-52664285D01*
X128600000Y-52692857D01*
X128657142Y-52721428D01*
X128800000Y-52721428D01*
X128857142Y-52692857D01*
X128885714Y-52664285D01*
X129878571Y-50671428D02*
X129821428Y-50671428D01*
X129764285Y-50700000D01*
X129735714Y-50728571D01*
X129707142Y-50785714D01*
X129678571Y-50900000D01*
X129678571Y-51042857D01*
X129707142Y-51157142D01*
X129735714Y-51214285D01*
X129764285Y-51242857D01*
X129821428Y-51271428D01*
X129878571Y-51271428D01*
X129935714Y-51242857D01*
X129964285Y-51214285D01*
X129992857Y-51157142D01*
X130021428Y-51042857D01*
X130021428Y-50900000D01*
X129992857Y-50785714D01*
X129964285Y-50728571D01*
X129935714Y-50700000D01*
X129878571Y-50671428D01*
X129421428Y-51214285D02*
X129392857Y-51242857D01*
X129421428Y-51271428D01*
X129450000Y-51242857D01*
X129421428Y-51214285D01*
X129421428Y-51271428D01*
X128821428Y-51271428D02*
X129164285Y-51271428D01*
X128992857Y-51271428D02*
X128992857Y-50671428D01*
X129050000Y-50757142D01*
X129107142Y-50814285D01*
X129164285Y-50842857D01*
X128307142Y-50871428D02*
X128307142Y-51271428D01*
X128564285Y-50871428D02*
X128564285Y-51185714D01*
X128535714Y-51242857D01*
X128478571Y-51271428D01*
X128392857Y-51271428D01*
X128335714Y-51242857D01*
X128307142Y-51214285D01*
X118635714Y-52814285D02*
X118664285Y-52842857D01*
X118750000Y-52871428D01*
X118807142Y-52871428D01*
X118892857Y-52842857D01*
X118950000Y-52785714D01*
X118978571Y-52728571D01*
X119007142Y-52614285D01*
X119007142Y-52528571D01*
X118978571Y-52414285D01*
X118950000Y-52357142D01*
X118892857Y-52300000D01*
X118807142Y-52271428D01*
X118750000Y-52271428D01*
X118664285Y-52300000D01*
X118635714Y-52328571D01*
X118435714Y-52271428D02*
X118064285Y-52271428D01*
X118264285Y-52500000D01*
X118178571Y-52500000D01*
X118121428Y-52528571D01*
X118092857Y-52557142D01*
X118064285Y-52614285D01*
X118064285Y-52757142D01*
X118092857Y-52814285D01*
X118121428Y-52842857D01*
X118178571Y-52871428D01*
X118350000Y-52871428D01*
X118407142Y-52842857D01*
X118435714Y-52814285D01*
X117550000Y-52471428D02*
X117550000Y-52871428D01*
X117692857Y-52242857D02*
X117835714Y-52671428D01*
X117464285Y-52671428D01*
X118128571Y-50871428D02*
X118071428Y-50871428D01*
X118014285Y-50900000D01*
X117985714Y-50928571D01*
X117957142Y-50985714D01*
X117928571Y-51100000D01*
X117928571Y-51242857D01*
X117957142Y-51357142D01*
X117985714Y-51414285D01*
X118014285Y-51442857D01*
X118071428Y-51471428D01*
X118128571Y-51471428D01*
X118185714Y-51442857D01*
X118214285Y-51414285D01*
X118242857Y-51357142D01*
X118271428Y-51242857D01*
X118271428Y-51100000D01*
X118242857Y-50985714D01*
X118214285Y-50928571D01*
X118185714Y-50900000D01*
X118128571Y-50871428D01*
X117671428Y-51414285D02*
X117642857Y-51442857D01*
X117671428Y-51471428D01*
X117700000Y-51442857D01*
X117671428Y-51414285D01*
X117671428Y-51471428D01*
X117071428Y-51471428D02*
X117414285Y-51471428D01*
X117242857Y-51471428D02*
X117242857Y-50871428D01*
X117300000Y-50957142D01*
X117357142Y-51014285D01*
X117414285Y-51042857D01*
X116557142Y-51071428D02*
X116557142Y-51471428D01*
X116814285Y-51071428D02*
X116814285Y-51385714D01*
X116785714Y-51442857D01*
X116728571Y-51471428D01*
X116642857Y-51471428D01*
X116585714Y-51442857D01*
X116557142Y-51414285D01*
X108734285Y-91294285D02*
X108762857Y-91265714D01*
X108791428Y-91180000D01*
X108791428Y-91122857D01*
X108762857Y-91037142D01*
X108705714Y-90980000D01*
X108648571Y-90951428D01*
X108534285Y-90922857D01*
X108448571Y-90922857D01*
X108334285Y-90951428D01*
X108277142Y-90980000D01*
X108220000Y-91037142D01*
X108191428Y-91122857D01*
X108191428Y-91180000D01*
X108220000Y-91265714D01*
X108248571Y-91294285D01*
X108791428Y-91865714D02*
X108791428Y-91522857D01*
X108791428Y-91694285D02*
X108191428Y-91694285D01*
X108277142Y-91637142D01*
X108334285Y-91580000D01*
X108362857Y-91522857D01*
X108191428Y-92408571D02*
X108191428Y-92122857D01*
X108477142Y-92094285D01*
X108448571Y-92122857D01*
X108420000Y-92180000D01*
X108420000Y-92322857D01*
X108448571Y-92380000D01*
X108477142Y-92408571D01*
X108534285Y-92437142D01*
X108677142Y-92437142D01*
X108734285Y-92408571D01*
X108762857Y-92380000D01*
X108791428Y-92322857D01*
X108791428Y-92180000D01*
X108762857Y-92122857D01*
X108734285Y-92094285D01*
X109271428Y-93700000D02*
X109271428Y-93357142D01*
X109271428Y-93528571D02*
X108671428Y-93528571D01*
X108757142Y-93471428D01*
X108814285Y-93414285D01*
X108842857Y-93357142D01*
X108871428Y-94214285D02*
X109271428Y-94214285D01*
X108871428Y-93957142D02*
X109185714Y-93957142D01*
X109242857Y-93985714D01*
X109271428Y-94042857D01*
X109271428Y-94128571D01*
X109242857Y-94185714D01*
X109214285Y-94214285D01*
X138562714Y-96989285D02*
X138591285Y-97017857D01*
X138677000Y-97046428D01*
X138734142Y-97046428D01*
X138819857Y-97017857D01*
X138877000Y-96960714D01*
X138905571Y-96903571D01*
X138934142Y-96789285D01*
X138934142Y-96703571D01*
X138905571Y-96589285D01*
X138877000Y-96532142D01*
X138819857Y-96475000D01*
X138734142Y-96446428D01*
X138677000Y-96446428D01*
X138591285Y-96475000D01*
X138562714Y-96503571D01*
X137991285Y-97046428D02*
X138334142Y-97046428D01*
X138162714Y-97046428D02*
X138162714Y-96446428D01*
X138219857Y-96532142D01*
X138277000Y-96589285D01*
X138334142Y-96617857D01*
X137791285Y-96446428D02*
X137419857Y-96446428D01*
X137619857Y-96675000D01*
X137534142Y-96675000D01*
X137477000Y-96703571D01*
X137448428Y-96732142D01*
X137419857Y-96789285D01*
X137419857Y-96932142D01*
X137448428Y-96989285D01*
X137477000Y-97017857D01*
X137534142Y-97046428D01*
X137705571Y-97046428D01*
X137762714Y-97017857D01*
X137791285Y-96989285D01*
X140962714Y-97046428D02*
X141305571Y-97046428D01*
X141134142Y-97046428D02*
X141134142Y-96446428D01*
X141191285Y-96532142D01*
X141248428Y-96589285D01*
X141305571Y-96617857D01*
X140591285Y-96446428D02*
X140534142Y-96446428D01*
X140477000Y-96475000D01*
X140448428Y-96503571D01*
X140419857Y-96560714D01*
X140391285Y-96675000D01*
X140391285Y-96817857D01*
X140419857Y-96932142D01*
X140448428Y-96989285D01*
X140477000Y-97017857D01*
X140534142Y-97046428D01*
X140591285Y-97046428D01*
X140648428Y-97017857D01*
X140677000Y-96989285D01*
X140705571Y-96932142D01*
X140734142Y-96817857D01*
X140734142Y-96675000D01*
X140705571Y-96560714D01*
X140677000Y-96503571D01*
X140648428Y-96475000D01*
X140591285Y-96446428D01*
X139877000Y-96646428D02*
X139877000Y-97046428D01*
X140134142Y-96646428D02*
X140134142Y-96960714D01*
X140105571Y-97017857D01*
X140048428Y-97046428D01*
X139962714Y-97046428D01*
X139905571Y-97017857D01*
X139877000Y-96989285D01*
X122687714Y-101048285D02*
X122716285Y-101076857D01*
X122802000Y-101105428D01*
X122859142Y-101105428D01*
X122944857Y-101076857D01*
X123002000Y-101019714D01*
X123030571Y-100962571D01*
X123059142Y-100848285D01*
X123059142Y-100762571D01*
X123030571Y-100648285D01*
X123002000Y-100591142D01*
X122944857Y-100534000D01*
X122859142Y-100505428D01*
X122802000Y-100505428D01*
X122716285Y-100534000D01*
X122687714Y-100562571D01*
X122116285Y-101105428D02*
X122459142Y-101105428D01*
X122287714Y-101105428D02*
X122287714Y-100505428D01*
X122344857Y-100591142D01*
X122402000Y-100648285D01*
X122459142Y-100676857D01*
X121744857Y-100505428D02*
X121687714Y-100505428D01*
X121630571Y-100534000D01*
X121602000Y-100562571D01*
X121573428Y-100619714D01*
X121544857Y-100734000D01*
X121544857Y-100876857D01*
X121573428Y-100991142D01*
X121602000Y-101048285D01*
X121630571Y-101076857D01*
X121687714Y-101105428D01*
X121744857Y-101105428D01*
X121802000Y-101076857D01*
X121830571Y-101048285D01*
X121859142Y-100991142D01*
X121887714Y-100876857D01*
X121887714Y-100734000D01*
X121859142Y-100619714D01*
X121830571Y-100562571D01*
X121802000Y-100534000D01*
X121744857Y-100505428D01*
X125385714Y-101071428D02*
X125385714Y-101471428D01*
X125528571Y-100842857D02*
X125671428Y-101271428D01*
X125300000Y-101271428D01*
X125071428Y-101414285D02*
X125042857Y-101442857D01*
X125071428Y-101471428D01*
X125100000Y-101442857D01*
X125071428Y-101414285D01*
X125071428Y-101471428D01*
X124842857Y-100871428D02*
X124442857Y-100871428D01*
X124700000Y-101471428D01*
X123957142Y-101071428D02*
X123957142Y-101471428D01*
X124214285Y-101071428D02*
X124214285Y-101385714D01*
X124185714Y-101442857D01*
X124128571Y-101471428D01*
X124042857Y-101471428D01*
X123985714Y-101442857D01*
X123957142Y-101414285D01*
X111939285Y-91425000D02*
X111967857Y-91396428D01*
X111996428Y-91310714D01*
X111996428Y-91253571D01*
X111967857Y-91167857D01*
X111910714Y-91110714D01*
X111853571Y-91082142D01*
X111739285Y-91053571D01*
X111653571Y-91053571D01*
X111539285Y-91082142D01*
X111482142Y-91110714D01*
X111425000Y-91167857D01*
X111396428Y-91253571D01*
X111396428Y-91310714D01*
X111425000Y-91396428D01*
X111453571Y-91425000D01*
X111996428Y-91710714D02*
X111996428Y-91825000D01*
X111967857Y-91882142D01*
X111939285Y-91910714D01*
X111853571Y-91967857D01*
X111739285Y-91996428D01*
X111510714Y-91996428D01*
X111453571Y-91967857D01*
X111425000Y-91939285D01*
X111396428Y-91882142D01*
X111396428Y-91767857D01*
X111425000Y-91710714D01*
X111453571Y-91682142D01*
X111510714Y-91653571D01*
X111653571Y-91653571D01*
X111710714Y-91682142D01*
X111739285Y-91710714D01*
X111767857Y-91767857D01*
X111767857Y-91882142D01*
X111739285Y-91939285D01*
X111710714Y-91967857D01*
X111653571Y-91996428D01*
X111671428Y-93471428D02*
X111671428Y-93528571D01*
X111700000Y-93585714D01*
X111728571Y-93614285D01*
X111785714Y-93642857D01*
X111900000Y-93671428D01*
X112042857Y-93671428D01*
X112157142Y-93642857D01*
X112214285Y-93614285D01*
X112242857Y-93585714D01*
X112271428Y-93528571D01*
X112271428Y-93471428D01*
X112242857Y-93414285D01*
X112214285Y-93385714D01*
X112157142Y-93357142D01*
X112042857Y-93328571D01*
X111900000Y-93328571D01*
X111785714Y-93357142D01*
X111728571Y-93385714D01*
X111700000Y-93414285D01*
X111671428Y-93471428D01*
X112214285Y-93928571D02*
X112242857Y-93957142D01*
X112271428Y-93928571D01*
X112242857Y-93900000D01*
X112214285Y-93928571D01*
X112271428Y-93928571D01*
X112271428Y-94528571D02*
X112271428Y-94185714D01*
X112271428Y-94357142D02*
X111671428Y-94357142D01*
X111757142Y-94300000D01*
X111814285Y-94242857D01*
X111842857Y-94185714D01*
X111871428Y-95042857D02*
X112271428Y-95042857D01*
X111871428Y-94785714D02*
X112185714Y-94785714D01*
X112242857Y-94814285D01*
X112271428Y-94871428D01*
X112271428Y-94957142D01*
X112242857Y-95014285D01*
X112214285Y-95042857D01*
X131814285Y-105100000D02*
X131842857Y-105071428D01*
X131871428Y-104985714D01*
X131871428Y-104928571D01*
X131842857Y-104842857D01*
X131785714Y-104785714D01*
X131728571Y-104757142D01*
X131614285Y-104728571D01*
X131528571Y-104728571D01*
X131414285Y-104757142D01*
X131357142Y-104785714D01*
X131300000Y-104842857D01*
X131271428Y-104928571D01*
X131271428Y-104985714D01*
X131300000Y-105071428D01*
X131328571Y-105100000D01*
X131271428Y-105300000D02*
X131271428Y-105700000D01*
X131871428Y-105442857D01*
X131328571Y-106928571D02*
X131300000Y-106957142D01*
X131271428Y-107014285D01*
X131271428Y-107157142D01*
X131300000Y-107214285D01*
X131328571Y-107242857D01*
X131385714Y-107271428D01*
X131442857Y-107271428D01*
X131528571Y-107242857D01*
X131871428Y-106900000D01*
X131871428Y-107271428D01*
X131814285Y-107528571D02*
X131842857Y-107557142D01*
X131871428Y-107528571D01*
X131842857Y-107500000D01*
X131814285Y-107528571D01*
X131871428Y-107528571D01*
X131328571Y-107785714D02*
X131300000Y-107814285D01*
X131271428Y-107871428D01*
X131271428Y-108014285D01*
X131300000Y-108071428D01*
X131328571Y-108100000D01*
X131385714Y-108128571D01*
X131442857Y-108128571D01*
X131528571Y-108100000D01*
X131871428Y-107757142D01*
X131871428Y-108128571D01*
X131471428Y-108642857D02*
X131871428Y-108642857D01*
X131471428Y-108385714D02*
X131785714Y-108385714D01*
X131842857Y-108414285D01*
X131871428Y-108471428D01*
X131871428Y-108557142D01*
X131842857Y-108614285D01*
X131814285Y-108642857D01*
X122252000Y-102622285D02*
X122280571Y-102650857D01*
X122366285Y-102679428D01*
X122423428Y-102679428D01*
X122509142Y-102650857D01*
X122566285Y-102593714D01*
X122594857Y-102536571D01*
X122623428Y-102422285D01*
X122623428Y-102336571D01*
X122594857Y-102222285D01*
X122566285Y-102165142D01*
X122509142Y-102108000D01*
X122423428Y-102079428D01*
X122366285Y-102079428D01*
X122280571Y-102108000D01*
X122252000Y-102136571D01*
X121737714Y-102079428D02*
X121852000Y-102079428D01*
X121909142Y-102108000D01*
X121937714Y-102136571D01*
X121994857Y-102222285D01*
X122023428Y-102336571D01*
X122023428Y-102565142D01*
X121994857Y-102622285D01*
X121966285Y-102650857D01*
X121909142Y-102679428D01*
X121794857Y-102679428D01*
X121737714Y-102650857D01*
X121709142Y-102622285D01*
X121680571Y-102565142D01*
X121680571Y-102422285D01*
X121709142Y-102365142D01*
X121737714Y-102336571D01*
X121794857Y-102308000D01*
X121909142Y-102308000D01*
X121966285Y-102336571D01*
X121994857Y-102365142D01*
X122023428Y-102422285D01*
X125085714Y-103071428D02*
X125428571Y-103071428D01*
X125257142Y-103071428D02*
X125257142Y-102471428D01*
X125314285Y-102557142D01*
X125371428Y-102614285D01*
X125428571Y-102642857D01*
X124714285Y-102471428D02*
X124657142Y-102471428D01*
X124600000Y-102500000D01*
X124571428Y-102528571D01*
X124542857Y-102585714D01*
X124514285Y-102700000D01*
X124514285Y-102842857D01*
X124542857Y-102957142D01*
X124571428Y-103014285D01*
X124600000Y-103042857D01*
X124657142Y-103071428D01*
X124714285Y-103071428D01*
X124771428Y-103042857D01*
X124800000Y-103014285D01*
X124828571Y-102957142D01*
X124857142Y-102842857D01*
X124857142Y-102700000D01*
X124828571Y-102585714D01*
X124800000Y-102528571D01*
X124771428Y-102500000D01*
X124714285Y-102471428D01*
X124257142Y-102671428D02*
X124257142Y-103071428D01*
X124257142Y-102728571D02*
X124228571Y-102700000D01*
X124171428Y-102671428D01*
X124085714Y-102671428D01*
X124028571Y-102700000D01*
X124000000Y-102757142D01*
X124000000Y-103071428D01*
X134593000Y-86649285D02*
X134621571Y-86677857D01*
X134707285Y-86706428D01*
X134764428Y-86706428D01*
X134850142Y-86677857D01*
X134907285Y-86620714D01*
X134935857Y-86563571D01*
X134964428Y-86449285D01*
X134964428Y-86363571D01*
X134935857Y-86249285D01*
X134907285Y-86192142D01*
X134850142Y-86135000D01*
X134764428Y-86106428D01*
X134707285Y-86106428D01*
X134621571Y-86135000D01*
X134593000Y-86163571D01*
X134050142Y-86106428D02*
X134335857Y-86106428D01*
X134364428Y-86392142D01*
X134335857Y-86363571D01*
X134278714Y-86335000D01*
X134135857Y-86335000D01*
X134078714Y-86363571D01*
X134050142Y-86392142D01*
X134021571Y-86449285D01*
X134021571Y-86592142D01*
X134050142Y-86649285D01*
X134078714Y-86677857D01*
X134135857Y-86706428D01*
X134278714Y-86706428D01*
X134335857Y-86677857D01*
X134364428Y-86649285D01*
X136328571Y-86385714D02*
X136328571Y-86728571D01*
X136328571Y-86557142D02*
X136928571Y-86557142D01*
X136842857Y-86614285D01*
X136785714Y-86671428D01*
X136757142Y-86728571D01*
X136928571Y-86014285D02*
X136928571Y-85957142D01*
X136900000Y-85900000D01*
X136871428Y-85871428D01*
X136814285Y-85842857D01*
X136700000Y-85814285D01*
X136557142Y-85814285D01*
X136442857Y-85842857D01*
X136385714Y-85871428D01*
X136357142Y-85900000D01*
X136328571Y-85957142D01*
X136328571Y-86014285D01*
X136357142Y-86071428D01*
X136385714Y-86100000D01*
X136442857Y-86128571D01*
X136557142Y-86157142D01*
X136700000Y-86157142D01*
X136814285Y-86128571D01*
X136871428Y-86100000D01*
X136900000Y-86071428D01*
X136928571Y-86014285D01*
X136728571Y-85300000D02*
X136328571Y-85300000D01*
X136728571Y-85557142D02*
X136414285Y-85557142D01*
X136357142Y-85528571D01*
X136328571Y-85471428D01*
X136328571Y-85385714D01*
X136357142Y-85328571D01*
X136385714Y-85300000D01*
X130164285Y-105100000D02*
X130192857Y-105071428D01*
X130221428Y-104985714D01*
X130221428Y-104928571D01*
X130192857Y-104842857D01*
X130135714Y-104785714D01*
X130078571Y-104757142D01*
X129964285Y-104728571D01*
X129878571Y-104728571D01*
X129764285Y-104757142D01*
X129707142Y-104785714D01*
X129650000Y-104842857D01*
X129621428Y-104928571D01*
X129621428Y-104985714D01*
X129650000Y-105071428D01*
X129678571Y-105100000D01*
X129678571Y-105328571D02*
X129650000Y-105357142D01*
X129621428Y-105414285D01*
X129621428Y-105557142D01*
X129650000Y-105614285D01*
X129678571Y-105642857D01*
X129735714Y-105671428D01*
X129792857Y-105671428D01*
X129878571Y-105642857D01*
X130221428Y-105300000D01*
X130221428Y-105671428D01*
X129471428Y-107185714D02*
X129471428Y-107242857D01*
X129500000Y-107300000D01*
X129528571Y-107328571D01*
X129585714Y-107357142D01*
X129700000Y-107385714D01*
X129842857Y-107385714D01*
X129957142Y-107357142D01*
X130014285Y-107328571D01*
X130042857Y-107300000D01*
X130071428Y-107242857D01*
X130071428Y-107185714D01*
X130042857Y-107128571D01*
X130014285Y-107100000D01*
X129957142Y-107071428D01*
X129842857Y-107042857D01*
X129700000Y-107042857D01*
X129585714Y-107071428D01*
X129528571Y-107100000D01*
X129500000Y-107128571D01*
X129471428Y-107185714D01*
X130014285Y-107642857D02*
X130042857Y-107671428D01*
X130071428Y-107642857D01*
X130042857Y-107614285D01*
X130014285Y-107642857D01*
X130071428Y-107642857D01*
X129528571Y-107900000D02*
X129500000Y-107928571D01*
X129471428Y-107985714D01*
X129471428Y-108128571D01*
X129500000Y-108185714D01*
X129528571Y-108214285D01*
X129585714Y-108242857D01*
X129642857Y-108242857D01*
X129728571Y-108214285D01*
X130071428Y-107871428D01*
X130071428Y-108242857D01*
X129528571Y-108471428D02*
X129500000Y-108500000D01*
X129471428Y-108557142D01*
X129471428Y-108700000D01*
X129500000Y-108757142D01*
X129528571Y-108785714D01*
X129585714Y-108814285D01*
X129642857Y-108814285D01*
X129728571Y-108785714D01*
X130071428Y-108442857D01*
X130071428Y-108814285D01*
X129671428Y-109328571D02*
X130071428Y-109328571D01*
X129671428Y-109071428D02*
X129985714Y-109071428D01*
X130042857Y-109100000D01*
X130071428Y-109157142D01*
X130071428Y-109242857D01*
X130042857Y-109300000D01*
X130014285Y-109328571D01*
X143854285Y-109304285D02*
X143882857Y-109275714D01*
X143911428Y-109190000D01*
X143911428Y-109132857D01*
X143882857Y-109047142D01*
X143825714Y-108990000D01*
X143768571Y-108961428D01*
X143654285Y-108932857D01*
X143568571Y-108932857D01*
X143454285Y-108961428D01*
X143397142Y-108990000D01*
X143340000Y-109047142D01*
X143311428Y-109132857D01*
X143311428Y-109190000D01*
X143340000Y-109275714D01*
X143368571Y-109304285D01*
X143311428Y-109818571D02*
X143311428Y-109704285D01*
X143340000Y-109647142D01*
X143368571Y-109618571D01*
X143454285Y-109561428D01*
X143568571Y-109532857D01*
X143797142Y-109532857D01*
X143854285Y-109561428D01*
X143882857Y-109590000D01*
X143911428Y-109647142D01*
X143911428Y-109761428D01*
X143882857Y-109818571D01*
X143854285Y-109847142D01*
X143797142Y-109875714D01*
X143654285Y-109875714D01*
X143597142Y-109847142D01*
X143568571Y-109818571D01*
X143540000Y-109761428D01*
X143540000Y-109647142D01*
X143568571Y-109590000D01*
X143597142Y-109561428D01*
X143654285Y-109532857D01*
X143311428Y-110418571D02*
X143311428Y-110132857D01*
X143597142Y-110104285D01*
X143568571Y-110132857D01*
X143540000Y-110190000D01*
X143540000Y-110332857D01*
X143568571Y-110390000D01*
X143597142Y-110418571D01*
X143654285Y-110447142D01*
X143797142Y-110447142D01*
X143854285Y-110418571D01*
X143882857Y-110390000D01*
X143911428Y-110332857D01*
X143911428Y-110190000D01*
X143882857Y-110132857D01*
X143854285Y-110104285D01*
X141871428Y-109071428D02*
X141871428Y-109128571D01*
X141900000Y-109185714D01*
X141928571Y-109214285D01*
X141985714Y-109242857D01*
X142100000Y-109271428D01*
X142242857Y-109271428D01*
X142357142Y-109242857D01*
X142414285Y-109214285D01*
X142442857Y-109185714D01*
X142471428Y-109128571D01*
X142471428Y-109071428D01*
X142442857Y-109014285D01*
X142414285Y-108985714D01*
X142357142Y-108957142D01*
X142242857Y-108928571D01*
X142100000Y-108928571D01*
X141985714Y-108957142D01*
X141928571Y-108985714D01*
X141900000Y-109014285D01*
X141871428Y-109071428D01*
X142414285Y-109528571D02*
X142442857Y-109557142D01*
X142471428Y-109528571D01*
X142442857Y-109500000D01*
X142414285Y-109528571D01*
X142471428Y-109528571D01*
X142471428Y-110128571D02*
X142471428Y-109785714D01*
X142471428Y-109957142D02*
X141871428Y-109957142D01*
X141957142Y-109900000D01*
X142014285Y-109842857D01*
X142042857Y-109785714D01*
X142071428Y-110642857D02*
X142471428Y-110642857D01*
X142071428Y-110385714D02*
X142385714Y-110385714D01*
X142442857Y-110414285D01*
X142471428Y-110471428D01*
X142471428Y-110557142D01*
X142442857Y-110614285D01*
X142414285Y-110642857D01*
X112590719Y-68174785D02*
X112619290Y-68203357D01*
X112705005Y-68231928D01*
X112762147Y-68231928D01*
X112847862Y-68203357D01*
X112905005Y-68146214D01*
X112933576Y-68089071D01*
X112962147Y-67974785D01*
X112962147Y-67889071D01*
X112933576Y-67774785D01*
X112905005Y-67717642D01*
X112847862Y-67660500D01*
X112762147Y-67631928D01*
X112705005Y-67631928D01*
X112619290Y-67660500D01*
X112590719Y-67689071D01*
X112390719Y-67631928D02*
X112019290Y-67631928D01*
X112219290Y-67860500D01*
X112133576Y-67860500D01*
X112076433Y-67889071D01*
X112047862Y-67917642D01*
X112019290Y-67974785D01*
X112019290Y-68117642D01*
X112047862Y-68174785D01*
X112076433Y-68203357D01*
X112133576Y-68231928D01*
X112305005Y-68231928D01*
X112362147Y-68203357D01*
X112390719Y-68174785D01*
X111790719Y-67689071D02*
X111762147Y-67660500D01*
X111705005Y-67631928D01*
X111562147Y-67631928D01*
X111505005Y-67660500D01*
X111476433Y-67689071D01*
X111447862Y-67746214D01*
X111447862Y-67803357D01*
X111476433Y-67889071D01*
X111819290Y-68231928D01*
X111447862Y-68231928D01*
X115528571Y-67571428D02*
X115471428Y-67571428D01*
X115414285Y-67600000D01*
X115385714Y-67628571D01*
X115357142Y-67685714D01*
X115328571Y-67800000D01*
X115328571Y-67942857D01*
X115357142Y-68057142D01*
X115385714Y-68114285D01*
X115414285Y-68142857D01*
X115471428Y-68171428D01*
X115528571Y-68171428D01*
X115585714Y-68142857D01*
X115614285Y-68114285D01*
X115642857Y-68057142D01*
X115671428Y-67942857D01*
X115671428Y-67800000D01*
X115642857Y-67685714D01*
X115614285Y-67628571D01*
X115585714Y-67600000D01*
X115528571Y-67571428D01*
X115071428Y-68114285D02*
X115042857Y-68142857D01*
X115071428Y-68171428D01*
X115100000Y-68142857D01*
X115071428Y-68114285D01*
X115071428Y-68171428D01*
X114471428Y-68171428D02*
X114814285Y-68171428D01*
X114642857Y-68171428D02*
X114642857Y-67571428D01*
X114700000Y-67657142D01*
X114757142Y-67714285D01*
X114814285Y-67742857D01*
X113957142Y-67771428D02*
X113957142Y-68171428D01*
X114214285Y-67771428D02*
X114214285Y-68085714D01*
X114185714Y-68142857D01*
X114128571Y-68171428D01*
X114042857Y-68171428D01*
X113985714Y-68142857D01*
X113957142Y-68114285D01*
X133925285Y-104715285D02*
X133953857Y-104686714D01*
X133982428Y-104601000D01*
X133982428Y-104543857D01*
X133953857Y-104458142D01*
X133896714Y-104401000D01*
X133839571Y-104372428D01*
X133725285Y-104343857D01*
X133639571Y-104343857D01*
X133525285Y-104372428D01*
X133468142Y-104401000D01*
X133411000Y-104458142D01*
X133382428Y-104543857D01*
X133382428Y-104601000D01*
X133411000Y-104686714D01*
X133439571Y-104715285D01*
X133382428Y-104915285D02*
X133382428Y-105286714D01*
X133611000Y-105086714D01*
X133611000Y-105172428D01*
X133639571Y-105229571D01*
X133668142Y-105258142D01*
X133725285Y-105286714D01*
X133868142Y-105286714D01*
X133925285Y-105258142D01*
X133953857Y-105229571D01*
X133982428Y-105172428D01*
X133982428Y-105001000D01*
X133953857Y-104943857D01*
X133925285Y-104915285D01*
X133382428Y-105658142D02*
X133382428Y-105715285D01*
X133411000Y-105772428D01*
X133439571Y-105801000D01*
X133496714Y-105829571D01*
X133611000Y-105858142D01*
X133753857Y-105858142D01*
X133868142Y-105829571D01*
X133925285Y-105801000D01*
X133953857Y-105772428D01*
X133982428Y-105715285D01*
X133982428Y-105658142D01*
X133953857Y-105601000D01*
X133925285Y-105572428D01*
X133868142Y-105543857D01*
X133753857Y-105515285D01*
X133611000Y-105515285D01*
X133496714Y-105543857D01*
X133439571Y-105572428D01*
X133411000Y-105601000D01*
X133382428Y-105658142D01*
X133728571Y-107128571D02*
X133700000Y-107157142D01*
X133671428Y-107214285D01*
X133671428Y-107357142D01*
X133700000Y-107414285D01*
X133728571Y-107442857D01*
X133785714Y-107471428D01*
X133842857Y-107471428D01*
X133928571Y-107442857D01*
X134271428Y-107100000D01*
X134271428Y-107471428D01*
X134214285Y-107728571D02*
X134242857Y-107757142D01*
X134271428Y-107728571D01*
X134242857Y-107700000D01*
X134214285Y-107728571D01*
X134271428Y-107728571D01*
X133728571Y-107985714D02*
X133700000Y-108014285D01*
X133671428Y-108071428D01*
X133671428Y-108214285D01*
X133700000Y-108271428D01*
X133728571Y-108300000D01*
X133785714Y-108328571D01*
X133842857Y-108328571D01*
X133928571Y-108300000D01*
X134271428Y-107957142D01*
X134271428Y-108328571D01*
X133871428Y-108842857D02*
X134271428Y-108842857D01*
X133871428Y-108585714D02*
X134185714Y-108585714D01*
X134242857Y-108614285D01*
X134271428Y-108671428D01*
X134271428Y-108757142D01*
X134242857Y-108814285D01*
X134214285Y-108842857D01*
X131585714Y-90014285D02*
X131614285Y-90042857D01*
X131700000Y-90071428D01*
X131757142Y-90071428D01*
X131842857Y-90042857D01*
X131900000Y-89985714D01*
X131928571Y-89928571D01*
X131957142Y-89814285D01*
X131957142Y-89728571D01*
X131928571Y-89614285D01*
X131900000Y-89557142D01*
X131842857Y-89500000D01*
X131757142Y-89471428D01*
X131700000Y-89471428D01*
X131614285Y-89500000D01*
X131585714Y-89528571D01*
X131357142Y-89528571D02*
X131328571Y-89500000D01*
X131271428Y-89471428D01*
X131128571Y-89471428D01*
X131071428Y-89500000D01*
X131042857Y-89528571D01*
X131014285Y-89585714D01*
X131014285Y-89642857D01*
X131042857Y-89728571D01*
X131385714Y-90071428D01*
X131014285Y-90071428D01*
X130728571Y-90071428D02*
X130614285Y-90071428D01*
X130557142Y-90042857D01*
X130528571Y-90014285D01*
X130471428Y-89928571D01*
X130442857Y-89814285D01*
X130442857Y-89585714D01*
X130471428Y-89528571D01*
X130500000Y-89500000D01*
X130557142Y-89471428D01*
X130671428Y-89471428D01*
X130728571Y-89500000D01*
X130757142Y-89528571D01*
X130785714Y-89585714D01*
X130785714Y-89728571D01*
X130757142Y-89785714D01*
X130728571Y-89814285D01*
X130671428Y-89842857D01*
X130557142Y-89842857D01*
X130500000Y-89814285D01*
X130471428Y-89785714D01*
X130442857Y-89728571D01*
X130785714Y-91471428D02*
X131128571Y-91471428D01*
X130957142Y-91471428D02*
X130957142Y-90871428D01*
X131014285Y-90957142D01*
X131071428Y-91014285D01*
X131128571Y-91042857D01*
X130414285Y-90871428D02*
X130357142Y-90871428D01*
X130300000Y-90900000D01*
X130271428Y-90928571D01*
X130242857Y-90985714D01*
X130214285Y-91100000D01*
X130214285Y-91242857D01*
X130242857Y-91357142D01*
X130271428Y-91414285D01*
X130300000Y-91442857D01*
X130357142Y-91471428D01*
X130414285Y-91471428D01*
X130471428Y-91442857D01*
X130500000Y-91414285D01*
X130528571Y-91357142D01*
X130557142Y-91242857D01*
X130557142Y-91100000D01*
X130528571Y-90985714D01*
X130500000Y-90928571D01*
X130471428Y-90900000D01*
X130414285Y-90871428D01*
X129700000Y-91071428D02*
X129700000Y-91471428D01*
X129957142Y-91071428D02*
X129957142Y-91385714D01*
X129928571Y-91442857D01*
X129871428Y-91471428D01*
X129785714Y-91471428D01*
X129728571Y-91442857D01*
X129700000Y-91414285D01*
X134978714Y-85225285D02*
X135007285Y-85253857D01*
X135093000Y-85282428D01*
X135150142Y-85282428D01*
X135235857Y-85253857D01*
X135293000Y-85196714D01*
X135321571Y-85139571D01*
X135350142Y-85025285D01*
X135350142Y-84939571D01*
X135321571Y-84825285D01*
X135293000Y-84768142D01*
X135235857Y-84711000D01*
X135150142Y-84682428D01*
X135093000Y-84682428D01*
X135007285Y-84711000D01*
X134978714Y-84739571D01*
X134750142Y-84739571D02*
X134721571Y-84711000D01*
X134664428Y-84682428D01*
X134521571Y-84682428D01*
X134464428Y-84711000D01*
X134435857Y-84739571D01*
X134407285Y-84796714D01*
X134407285Y-84853857D01*
X134435857Y-84939571D01*
X134778714Y-85282428D01*
X134407285Y-85282428D01*
X134064428Y-84939571D02*
X134121571Y-84911000D01*
X134150142Y-84882428D01*
X134178714Y-84825285D01*
X134178714Y-84796714D01*
X134150142Y-84739571D01*
X134121571Y-84711000D01*
X134064428Y-84682428D01*
X133950142Y-84682428D01*
X133893000Y-84711000D01*
X133864428Y-84739571D01*
X133835857Y-84796714D01*
X133835857Y-84825285D01*
X133864428Y-84882428D01*
X133893000Y-84911000D01*
X133950142Y-84939571D01*
X134064428Y-84939571D01*
X134121571Y-84968142D01*
X134150142Y-84996714D01*
X134178714Y-85053857D01*
X134178714Y-85168142D01*
X134150142Y-85225285D01*
X134121571Y-85253857D01*
X134064428Y-85282428D01*
X133950142Y-85282428D01*
X133893000Y-85253857D01*
X133864428Y-85225285D01*
X133835857Y-85168142D01*
X133835857Y-85053857D01*
X133864428Y-84996714D01*
X133893000Y-84968142D01*
X133950142Y-84939571D01*
X136585714Y-83871428D02*
X136928571Y-83871428D01*
X136757142Y-83871428D02*
X136757142Y-83271428D01*
X136814285Y-83357142D01*
X136871428Y-83414285D01*
X136928571Y-83442857D01*
X136214285Y-83271428D02*
X136157142Y-83271428D01*
X136100000Y-83300000D01*
X136071428Y-83328571D01*
X136042857Y-83385714D01*
X136014285Y-83500000D01*
X136014285Y-83642857D01*
X136042857Y-83757142D01*
X136071428Y-83814285D01*
X136100000Y-83842857D01*
X136157142Y-83871428D01*
X136214285Y-83871428D01*
X136271428Y-83842857D01*
X136300000Y-83814285D01*
X136328571Y-83757142D01*
X136357142Y-83642857D01*
X136357142Y-83500000D01*
X136328571Y-83385714D01*
X136300000Y-83328571D01*
X136271428Y-83300000D01*
X136214285Y-83271428D01*
X135500000Y-83471428D02*
X135500000Y-83871428D01*
X135757142Y-83471428D02*
X135757142Y-83785714D01*
X135728571Y-83842857D01*
X135671428Y-83871428D01*
X135585714Y-83871428D01*
X135528571Y-83842857D01*
X135500000Y-83814285D01*
X134785714Y-90014285D02*
X134814285Y-90042857D01*
X134900000Y-90071428D01*
X134957142Y-90071428D01*
X135042857Y-90042857D01*
X135100000Y-89985714D01*
X135128571Y-89928571D01*
X135157142Y-89814285D01*
X135157142Y-89728571D01*
X135128571Y-89614285D01*
X135100000Y-89557142D01*
X135042857Y-89500000D01*
X134957142Y-89471428D01*
X134900000Y-89471428D01*
X134814285Y-89500000D01*
X134785714Y-89528571D01*
X134557142Y-89528571D02*
X134528571Y-89500000D01*
X134471428Y-89471428D01*
X134328571Y-89471428D01*
X134271428Y-89500000D01*
X134242857Y-89528571D01*
X134214285Y-89585714D01*
X134214285Y-89642857D01*
X134242857Y-89728571D01*
X134585714Y-90071428D01*
X134214285Y-90071428D01*
X134014285Y-89471428D02*
X133614285Y-89471428D01*
X133871428Y-90071428D01*
X134871428Y-91471428D02*
X135214285Y-91471428D01*
X135042857Y-91471428D02*
X135042857Y-90871428D01*
X135100000Y-90957142D01*
X135157142Y-91014285D01*
X135214285Y-91042857D01*
X134500000Y-90871428D02*
X134442857Y-90871428D01*
X134385714Y-90900000D01*
X134357142Y-90928571D01*
X134328571Y-90985714D01*
X134300000Y-91100000D01*
X134300000Y-91242857D01*
X134328571Y-91357142D01*
X134357142Y-91414285D01*
X134385714Y-91442857D01*
X134442857Y-91471428D01*
X134500000Y-91471428D01*
X134557142Y-91442857D01*
X134585714Y-91414285D01*
X134614285Y-91357142D01*
X134642857Y-91242857D01*
X134642857Y-91100000D01*
X134614285Y-90985714D01*
X134585714Y-90928571D01*
X134557142Y-90900000D01*
X134500000Y-90871428D01*
X133928571Y-90871428D02*
X133871428Y-90871428D01*
X133814285Y-90900000D01*
X133785714Y-90928571D01*
X133757142Y-90985714D01*
X133728571Y-91100000D01*
X133728571Y-91242857D01*
X133757142Y-91357142D01*
X133785714Y-91414285D01*
X133814285Y-91442857D01*
X133871428Y-91471428D01*
X133928571Y-91471428D01*
X133985714Y-91442857D01*
X134014285Y-91414285D01*
X134042857Y-91357142D01*
X134071428Y-91242857D01*
X134071428Y-91100000D01*
X134042857Y-90985714D01*
X134014285Y-90928571D01*
X133985714Y-90900000D01*
X133928571Y-90871428D01*
X133471428Y-91071428D02*
X133471428Y-91671428D01*
X133471428Y-91100000D02*
X133414285Y-91071428D01*
X133300000Y-91071428D01*
X133242857Y-91100000D01*
X133214285Y-91128571D01*
X133185714Y-91185714D01*
X133185714Y-91357142D01*
X133214285Y-91414285D01*
X133242857Y-91442857D01*
X133300000Y-91471428D01*
X133414285Y-91471428D01*
X133471428Y-91442857D01*
X126864285Y-104814285D02*
X126892857Y-104785714D01*
X126921428Y-104700000D01*
X126921428Y-104642857D01*
X126892857Y-104557142D01*
X126835714Y-104500000D01*
X126778571Y-104471428D01*
X126664285Y-104442857D01*
X126578571Y-104442857D01*
X126464285Y-104471428D01*
X126407142Y-104500000D01*
X126350000Y-104557142D01*
X126321428Y-104642857D01*
X126321428Y-104700000D01*
X126350000Y-104785714D01*
X126378571Y-104814285D01*
X126921428Y-105385714D02*
X126921428Y-105042857D01*
X126921428Y-105214285D02*
X126321428Y-105214285D01*
X126407142Y-105157142D01*
X126464285Y-105100000D01*
X126492857Y-105042857D01*
X126321428Y-105585714D02*
X126321428Y-105985714D01*
X126921428Y-105728571D01*
X126871428Y-107500000D02*
X126871428Y-107157142D01*
X126871428Y-107328571D02*
X126271428Y-107328571D01*
X126357142Y-107271428D01*
X126414285Y-107214285D01*
X126442857Y-107157142D01*
X126471428Y-108014285D02*
X126871428Y-108014285D01*
X126471428Y-107757142D02*
X126785714Y-107757142D01*
X126842857Y-107785714D01*
X126871428Y-107842857D01*
X126871428Y-107928571D01*
X126842857Y-107985714D01*
X126814285Y-108014285D01*
X113559285Y-91505000D02*
X113587857Y-91476428D01*
X113616428Y-91390714D01*
X113616428Y-91333571D01*
X113587857Y-91247857D01*
X113530714Y-91190714D01*
X113473571Y-91162142D01*
X113359285Y-91133571D01*
X113273571Y-91133571D01*
X113159285Y-91162142D01*
X113102142Y-91190714D01*
X113045000Y-91247857D01*
X113016428Y-91333571D01*
X113016428Y-91390714D01*
X113045000Y-91476428D01*
X113073571Y-91505000D01*
X113016428Y-91705000D02*
X113016428Y-92076428D01*
X113245000Y-91876428D01*
X113245000Y-91962142D01*
X113273571Y-92019285D01*
X113302142Y-92047857D01*
X113359285Y-92076428D01*
X113502142Y-92076428D01*
X113559285Y-92047857D01*
X113587857Y-92019285D01*
X113616428Y-91962142D01*
X113616428Y-91790714D01*
X113587857Y-91733571D01*
X113559285Y-91705000D01*
X114071428Y-93614285D02*
X114071428Y-93271428D01*
X114071428Y-93442857D02*
X113471428Y-93442857D01*
X113557142Y-93385714D01*
X113614285Y-93328571D01*
X113642857Y-93271428D01*
X113471428Y-93985714D02*
X113471428Y-94042857D01*
X113500000Y-94100000D01*
X113528571Y-94128571D01*
X113585714Y-94157142D01*
X113700000Y-94185714D01*
X113842857Y-94185714D01*
X113957142Y-94157142D01*
X114014285Y-94128571D01*
X114042857Y-94100000D01*
X114071428Y-94042857D01*
X114071428Y-93985714D01*
X114042857Y-93928571D01*
X114014285Y-93900000D01*
X113957142Y-93871428D01*
X113842857Y-93842857D01*
X113700000Y-93842857D01*
X113585714Y-93871428D01*
X113528571Y-93900000D01*
X113500000Y-93928571D01*
X113471428Y-93985714D01*
X113671428Y-94700000D02*
X114071428Y-94700000D01*
X113671428Y-94442857D02*
X113985714Y-94442857D01*
X114042857Y-94471428D01*
X114071428Y-94528571D01*
X114071428Y-94614285D01*
X114042857Y-94671428D01*
X114014285Y-94700000D01*
X138562714Y-100169285D02*
X138591285Y-100197857D01*
X138677000Y-100226428D01*
X138734142Y-100226428D01*
X138819857Y-100197857D01*
X138877000Y-100140714D01*
X138905571Y-100083571D01*
X138934142Y-99969285D01*
X138934142Y-99883571D01*
X138905571Y-99769285D01*
X138877000Y-99712142D01*
X138819857Y-99655000D01*
X138734142Y-99626428D01*
X138677000Y-99626428D01*
X138591285Y-99655000D01*
X138562714Y-99683571D01*
X138334142Y-99683571D02*
X138305571Y-99655000D01*
X138248428Y-99626428D01*
X138105571Y-99626428D01*
X138048428Y-99655000D01*
X138019857Y-99683571D01*
X137991285Y-99740714D01*
X137991285Y-99797857D01*
X138019857Y-99883571D01*
X138362714Y-100226428D01*
X137991285Y-100226428D01*
X137791285Y-99626428D02*
X137419857Y-99626428D01*
X137619857Y-99855000D01*
X137534142Y-99855000D01*
X137477000Y-99883571D01*
X137448428Y-99912142D01*
X137419857Y-99969285D01*
X137419857Y-100112142D01*
X137448428Y-100169285D01*
X137477000Y-100197857D01*
X137534142Y-100226428D01*
X137705571Y-100226428D01*
X137762714Y-100197857D01*
X137791285Y-100169285D01*
X141362714Y-99846428D02*
X141362714Y-100246428D01*
X141505571Y-99617857D02*
X141648428Y-100046428D01*
X141277000Y-100046428D01*
X141048428Y-100189285D02*
X141019857Y-100217857D01*
X141048428Y-100246428D01*
X141077000Y-100217857D01*
X141048428Y-100189285D01*
X141048428Y-100246428D01*
X140819857Y-99646428D02*
X140419857Y-99646428D01*
X140677000Y-100246428D01*
X139934142Y-99846428D02*
X139934142Y-100246428D01*
X140191285Y-99846428D02*
X140191285Y-100160714D01*
X140162714Y-100217857D01*
X140105571Y-100246428D01*
X140019857Y-100246428D01*
X139962714Y-100217857D01*
X139934142Y-100189285D01*
X126585714Y-90014285D02*
X126614285Y-90042857D01*
X126700000Y-90071428D01*
X126757142Y-90071428D01*
X126842857Y-90042857D01*
X126900000Y-89985714D01*
X126928571Y-89928571D01*
X126957142Y-89814285D01*
X126957142Y-89728571D01*
X126928571Y-89614285D01*
X126900000Y-89557142D01*
X126842857Y-89500000D01*
X126757142Y-89471428D01*
X126700000Y-89471428D01*
X126614285Y-89500000D01*
X126585714Y-89528571D01*
X126357142Y-89528571D02*
X126328571Y-89500000D01*
X126271428Y-89471428D01*
X126128571Y-89471428D01*
X126071428Y-89500000D01*
X126042857Y-89528571D01*
X126014285Y-89585714D01*
X126014285Y-89642857D01*
X126042857Y-89728571D01*
X126385714Y-90071428D01*
X126014285Y-90071428D01*
X125785714Y-89528571D02*
X125757142Y-89500000D01*
X125700000Y-89471428D01*
X125557142Y-89471428D01*
X125500000Y-89500000D01*
X125471428Y-89528571D01*
X125442857Y-89585714D01*
X125442857Y-89642857D01*
X125471428Y-89728571D01*
X125814285Y-90071428D01*
X125442857Y-90071428D01*
X127585714Y-91071428D02*
X127585714Y-91471428D01*
X127728571Y-90842857D02*
X127871428Y-91271428D01*
X127500000Y-91271428D01*
X127271428Y-91414285D02*
X127242857Y-91442857D01*
X127271428Y-91471428D01*
X127300000Y-91442857D01*
X127271428Y-91414285D01*
X127271428Y-91471428D01*
X127042857Y-90871428D02*
X126642857Y-90871428D01*
X126900000Y-91471428D01*
X126157142Y-91071428D02*
X126157142Y-91471428D01*
X126414285Y-91071428D02*
X126414285Y-91385714D01*
X126385714Y-91442857D01*
X126328571Y-91471428D01*
X126242857Y-91471428D01*
X126185714Y-91442857D01*
X126157142Y-91414285D01*
X138362714Y-98789285D02*
X138391285Y-98817857D01*
X138477000Y-98846428D01*
X138534142Y-98846428D01*
X138619857Y-98817857D01*
X138677000Y-98760714D01*
X138705571Y-98703571D01*
X138734142Y-98589285D01*
X138734142Y-98503571D01*
X138705571Y-98389285D01*
X138677000Y-98332142D01*
X138619857Y-98275000D01*
X138534142Y-98246428D01*
X138477000Y-98246428D01*
X138391285Y-98275000D01*
X138362714Y-98303571D01*
X138134142Y-98303571D02*
X138105571Y-98275000D01*
X138048428Y-98246428D01*
X137905571Y-98246428D01*
X137848428Y-98275000D01*
X137819857Y-98303571D01*
X137791285Y-98360714D01*
X137791285Y-98417857D01*
X137819857Y-98503571D01*
X138162714Y-98846428D01*
X137791285Y-98846428D01*
X137219857Y-98846428D02*
X137562714Y-98846428D01*
X137391285Y-98846428D02*
X137391285Y-98246428D01*
X137448428Y-98332142D01*
X137505571Y-98389285D01*
X137562714Y-98417857D01*
X141362714Y-98646428D02*
X141362714Y-99046428D01*
X141505571Y-98417857D02*
X141648428Y-98846428D01*
X141277000Y-98846428D01*
X141048428Y-98989285D02*
X141019857Y-99017857D01*
X141048428Y-99046428D01*
X141077000Y-99017857D01*
X141048428Y-98989285D01*
X141048428Y-99046428D01*
X140819857Y-98446428D02*
X140419857Y-98446428D01*
X140677000Y-99046428D01*
X139934142Y-98646428D02*
X139934142Y-99046428D01*
X140191285Y-98646428D02*
X140191285Y-98960714D01*
X140162714Y-99017857D01*
X140105571Y-99046428D01*
X140019857Y-99046428D01*
X139962714Y-99017857D01*
X139934142Y-98989285D01*
X110374285Y-91194285D02*
X110402857Y-91165714D01*
X110431428Y-91080000D01*
X110431428Y-91022857D01*
X110402857Y-90937142D01*
X110345714Y-90880000D01*
X110288571Y-90851428D01*
X110174285Y-90822857D01*
X110088571Y-90822857D01*
X109974285Y-90851428D01*
X109917142Y-90880000D01*
X109860000Y-90937142D01*
X109831428Y-91022857D01*
X109831428Y-91080000D01*
X109860000Y-91165714D01*
X109888571Y-91194285D01*
X110431428Y-91765714D02*
X110431428Y-91422857D01*
X110431428Y-91594285D02*
X109831428Y-91594285D01*
X109917142Y-91537142D01*
X109974285Y-91480000D01*
X110002857Y-91422857D01*
X110431428Y-92051428D02*
X110431428Y-92165714D01*
X110402857Y-92222857D01*
X110374285Y-92251428D01*
X110288571Y-92308571D01*
X110174285Y-92337142D01*
X109945714Y-92337142D01*
X109888571Y-92308571D01*
X109860000Y-92280000D01*
X109831428Y-92222857D01*
X109831428Y-92108571D01*
X109860000Y-92051428D01*
X109888571Y-92022857D01*
X109945714Y-91994285D01*
X110088571Y-91994285D01*
X110145714Y-92022857D01*
X110174285Y-92051428D01*
X110202857Y-92108571D01*
X110202857Y-92222857D01*
X110174285Y-92280000D01*
X110145714Y-92308571D01*
X110088571Y-92337142D01*
X110071428Y-93471428D02*
X110071428Y-93528571D01*
X110100000Y-93585714D01*
X110128571Y-93614285D01*
X110185714Y-93642857D01*
X110300000Y-93671428D01*
X110442857Y-93671428D01*
X110557142Y-93642857D01*
X110614285Y-93614285D01*
X110642857Y-93585714D01*
X110671428Y-93528571D01*
X110671428Y-93471428D01*
X110642857Y-93414285D01*
X110614285Y-93385714D01*
X110557142Y-93357142D01*
X110442857Y-93328571D01*
X110300000Y-93328571D01*
X110185714Y-93357142D01*
X110128571Y-93385714D01*
X110100000Y-93414285D01*
X110071428Y-93471428D01*
X110614285Y-93928571D02*
X110642857Y-93957142D01*
X110671428Y-93928571D01*
X110642857Y-93900000D01*
X110614285Y-93928571D01*
X110671428Y-93928571D01*
X110671428Y-94528571D02*
X110671428Y-94185714D01*
X110671428Y-94357142D02*
X110071428Y-94357142D01*
X110157142Y-94300000D01*
X110214285Y-94242857D01*
X110242857Y-94185714D01*
X110271428Y-95042857D02*
X110671428Y-95042857D01*
X110271428Y-94785714D02*
X110585714Y-94785714D01*
X110642857Y-94814285D01*
X110671428Y-94871428D01*
X110671428Y-94957142D01*
X110642857Y-95014285D01*
X110614285Y-95042857D01*
X123362714Y-99189285D02*
X123391285Y-99217857D01*
X123477000Y-99246428D01*
X123534142Y-99246428D01*
X123619857Y-99217857D01*
X123677000Y-99160714D01*
X123705571Y-99103571D01*
X123734142Y-98989285D01*
X123734142Y-98903571D01*
X123705571Y-98789285D01*
X123677000Y-98732142D01*
X123619857Y-98675000D01*
X123534142Y-98646428D01*
X123477000Y-98646428D01*
X123391285Y-98675000D01*
X123362714Y-98703571D01*
X122791285Y-99246428D02*
X123134142Y-99246428D01*
X122962714Y-99246428D02*
X122962714Y-98646428D01*
X123019857Y-98732142D01*
X123077000Y-98789285D01*
X123134142Y-98817857D01*
X122448428Y-98903571D02*
X122505571Y-98875000D01*
X122534142Y-98846428D01*
X122562714Y-98789285D01*
X122562714Y-98760714D01*
X122534142Y-98703571D01*
X122505571Y-98675000D01*
X122448428Y-98646428D01*
X122334142Y-98646428D01*
X122277000Y-98675000D01*
X122248428Y-98703571D01*
X122219857Y-98760714D01*
X122219857Y-98789285D01*
X122248428Y-98846428D01*
X122277000Y-98875000D01*
X122334142Y-98903571D01*
X122448428Y-98903571D01*
X122505571Y-98932142D01*
X122534142Y-98960714D01*
X122562714Y-99017857D01*
X122562714Y-99132142D01*
X122534142Y-99189285D01*
X122505571Y-99217857D01*
X122448428Y-99246428D01*
X122334142Y-99246428D01*
X122277000Y-99217857D01*
X122248428Y-99189285D01*
X122219857Y-99132142D01*
X122219857Y-99017857D01*
X122248428Y-98960714D01*
X122277000Y-98932142D01*
X122334142Y-98903571D01*
X125200000Y-99471428D02*
X125542857Y-99471428D01*
X125371428Y-99471428D02*
X125371428Y-98871428D01*
X125428571Y-98957142D01*
X125485714Y-99014285D01*
X125542857Y-99042857D01*
X124685714Y-99071428D02*
X124685714Y-99471428D01*
X124942857Y-99071428D02*
X124942857Y-99385714D01*
X124914285Y-99442857D01*
X124857142Y-99471428D01*
X124771428Y-99471428D01*
X124714285Y-99442857D01*
X124685714Y-99414285D01*
X121664285Y-107150000D02*
X121692857Y-107121428D01*
X121721428Y-107035714D01*
X121721428Y-106978571D01*
X121692857Y-106892857D01*
X121635714Y-106835714D01*
X121578571Y-106807142D01*
X121464285Y-106778571D01*
X121378571Y-106778571D01*
X121264285Y-106807142D01*
X121207142Y-106835714D01*
X121150000Y-106892857D01*
X121121428Y-106978571D01*
X121121428Y-107035714D01*
X121150000Y-107121428D01*
X121178571Y-107150000D01*
X121721428Y-107721428D02*
X121721428Y-107378571D01*
X121721428Y-107550000D02*
X121121428Y-107550000D01*
X121207142Y-107492857D01*
X121264285Y-107435714D01*
X121292857Y-107378571D01*
X121871428Y-109414285D02*
X121871428Y-109071428D01*
X121871428Y-109242857D02*
X121271428Y-109242857D01*
X121357142Y-109185714D01*
X121414285Y-109128571D01*
X121442857Y-109071428D01*
X121271428Y-109785714D02*
X121271428Y-109842857D01*
X121300000Y-109900000D01*
X121328571Y-109928571D01*
X121385714Y-109957142D01*
X121500000Y-109985714D01*
X121642857Y-109985714D01*
X121757142Y-109957142D01*
X121814285Y-109928571D01*
X121842857Y-109900000D01*
X121871428Y-109842857D01*
X121871428Y-109785714D01*
X121842857Y-109728571D01*
X121814285Y-109700000D01*
X121757142Y-109671428D01*
X121642857Y-109642857D01*
X121500000Y-109642857D01*
X121385714Y-109671428D01*
X121328571Y-109700000D01*
X121300000Y-109728571D01*
X121271428Y-109785714D01*
X121471428Y-110242857D02*
X121871428Y-110242857D01*
X121528571Y-110242857D02*
X121500000Y-110271428D01*
X121471428Y-110328571D01*
X121471428Y-110414285D01*
X121500000Y-110471428D01*
X121557142Y-110500000D01*
X121871428Y-110500000D01*
X123362714Y-97589285D02*
X123391285Y-97617857D01*
X123477000Y-97646428D01*
X123534142Y-97646428D01*
X123619857Y-97617857D01*
X123677000Y-97560714D01*
X123705571Y-97503571D01*
X123734142Y-97389285D01*
X123734142Y-97303571D01*
X123705571Y-97189285D01*
X123677000Y-97132142D01*
X123619857Y-97075000D01*
X123534142Y-97046428D01*
X123477000Y-97046428D01*
X123391285Y-97075000D01*
X123362714Y-97103571D01*
X123134142Y-97103571D02*
X123105571Y-97075000D01*
X123048428Y-97046428D01*
X122905571Y-97046428D01*
X122848428Y-97075000D01*
X122819857Y-97103571D01*
X122791285Y-97160714D01*
X122791285Y-97217857D01*
X122819857Y-97303571D01*
X123162714Y-97646428D01*
X122791285Y-97646428D01*
X122248428Y-97046428D02*
X122534142Y-97046428D01*
X122562714Y-97332142D01*
X122534142Y-97303571D01*
X122477000Y-97275000D01*
X122334142Y-97275000D01*
X122277000Y-97303571D01*
X122248428Y-97332142D01*
X122219857Y-97389285D01*
X122219857Y-97532142D01*
X122248428Y-97589285D01*
X122277000Y-97617857D01*
X122334142Y-97646428D01*
X122477000Y-97646428D01*
X122534142Y-97617857D01*
X122562714Y-97589285D01*
X125200000Y-97871428D02*
X125542857Y-97871428D01*
X125371428Y-97871428D02*
X125371428Y-97271428D01*
X125428571Y-97357142D01*
X125485714Y-97414285D01*
X125542857Y-97442857D01*
X124685714Y-97471428D02*
X124685714Y-97871428D01*
X124942857Y-97471428D02*
X124942857Y-97785714D01*
X124914285Y-97842857D01*
X124857142Y-97871428D01*
X124771428Y-97871428D01*
X124714285Y-97842857D01*
X124685714Y-97814285D01*
D13*
X154528164Y-59328551D02*
X153928724Y-58928924D01*
X154528164Y-58928924D02*
X153928724Y-59328551D01*
X153928724Y-58415119D02*
X153928724Y-58700566D01*
X154528164Y-58700566D01*
X154528164Y-58272395D02*
X154528164Y-57901313D01*
X154299806Y-58101126D01*
X154299806Y-58015492D01*
X154271261Y-57958402D01*
X154242717Y-57929858D01*
X154185627Y-57901313D01*
X154042903Y-57901313D01*
X153985814Y-57929858D01*
X153957269Y-57958402D01*
X153928724Y-58015492D01*
X153928724Y-58186760D01*
X153957269Y-58243850D01*
X153985814Y-58272395D01*
X155286294Y-61668375D02*
X155257749Y-61696920D01*
X155229204Y-61782554D01*
X155229204Y-61839643D01*
X155257749Y-61925278D01*
X155314839Y-61982367D01*
X155371928Y-62010912D01*
X155486107Y-62039457D01*
X155571741Y-62039457D01*
X155685920Y-62010912D01*
X155743010Y-61982367D01*
X155800100Y-61925278D01*
X155828644Y-61839643D01*
X155828644Y-61782554D01*
X155800100Y-61696920D01*
X155771555Y-61668375D01*
X155828644Y-61297293D02*
X155828644Y-61183114D01*
X155800100Y-61126024D01*
X155743010Y-61068935D01*
X155628831Y-61040390D01*
X155429018Y-61040390D01*
X155314839Y-61068935D01*
X155257749Y-61126024D01*
X155229204Y-61183114D01*
X155229204Y-61297293D01*
X155257749Y-61354382D01*
X155314839Y-61411472D01*
X155429018Y-61440017D01*
X155628831Y-61440017D01*
X155743010Y-61411472D01*
X155800100Y-61354382D01*
X155828644Y-61297293D01*
X155229204Y-60783487D02*
X155828644Y-60783487D01*
X155229204Y-60440950D01*
X155828644Y-60440950D01*
X155229204Y-60155502D02*
X155828644Y-60155502D01*
X155229204Y-59812965D01*
X155828644Y-59812965D01*
X155172115Y-59670241D02*
X155172115Y-59213525D01*
X155229204Y-59070801D02*
X155828644Y-59070801D01*
X155400473Y-58870988D01*
X155828644Y-58671175D01*
X155229204Y-58671175D01*
X155229204Y-58385727D02*
X155828644Y-58385727D01*
X155286294Y-57757742D02*
X155257749Y-57786287D01*
X155229204Y-57871921D01*
X155229204Y-57929011D01*
X155257749Y-58014645D01*
X155314839Y-58071735D01*
X155371928Y-58100280D01*
X155486107Y-58128824D01*
X155571741Y-58128824D01*
X155685920Y-58100280D01*
X155743010Y-58071735D01*
X155800100Y-58014645D01*
X155828644Y-57929011D01*
X155828644Y-57871921D01*
X155800100Y-57786287D01*
X155771555Y-57757742D01*
X155229204Y-57158302D02*
X155514652Y-57358116D01*
X155229204Y-57500840D02*
X155828644Y-57500840D01*
X155828644Y-57272481D01*
X155800100Y-57215392D01*
X155771555Y-57186847D01*
X155714465Y-57158302D01*
X155628831Y-57158302D01*
X155571741Y-57186847D01*
X155543197Y-57215392D01*
X155514652Y-57272481D01*
X155514652Y-57500840D01*
X155828644Y-56787220D02*
X155828644Y-56673041D01*
X155800100Y-56615952D01*
X155743010Y-56558862D01*
X155628831Y-56530318D01*
X155429018Y-56530318D01*
X155314839Y-56558862D01*
X155257749Y-56615952D01*
X155229204Y-56673041D01*
X155229204Y-56787220D01*
X155257749Y-56844310D01*
X155314839Y-56901400D01*
X155429018Y-56929944D01*
X155628831Y-56929944D01*
X155743010Y-56901400D01*
X155800100Y-56844310D01*
X155828644Y-56787220D01*
X155257749Y-56301960D02*
X155229204Y-56216325D01*
X155229204Y-56073601D01*
X155257749Y-56016512D01*
X155286294Y-55987967D01*
X155343383Y-55959422D01*
X155400473Y-55959422D01*
X155457562Y-55987967D01*
X155486107Y-56016512D01*
X155514652Y-56073601D01*
X155543197Y-56187780D01*
X155571741Y-56244870D01*
X155600286Y-56273415D01*
X155657376Y-56301960D01*
X155714465Y-56301960D01*
X155771555Y-56273415D01*
X155800100Y-56244870D01*
X155828644Y-56187780D01*
X155828644Y-56045057D01*
X155800100Y-55959422D01*
X155229204Y-55702520D02*
X155828644Y-55702520D01*
X155828644Y-55559796D01*
X155800100Y-55474161D01*
X155743010Y-55417072D01*
X155685920Y-55388527D01*
X155571741Y-55359982D01*
X155486107Y-55359982D01*
X155371928Y-55388527D01*
X155314839Y-55417072D01*
X155257749Y-55474161D01*
X155229204Y-55559796D01*
X155229204Y-55702520D01*
D12*
X164914285Y-58452380D02*
X165485714Y-58452380D01*
X165200000Y-58452380D02*
X165200000Y-57452380D01*
X165295238Y-57595238D01*
X165390476Y-57690476D01*
X165485714Y-57738095D01*
X111903571Y-101296428D02*
X111503571Y-101896428D01*
X111503571Y-101296428D02*
X111903571Y-101896428D01*
X110989285Y-101896428D02*
X111275000Y-101896428D01*
X111275000Y-101296428D01*
X110817857Y-101353571D02*
X110789285Y-101325000D01*
X110732142Y-101296428D01*
X110589285Y-101296428D01*
X110532142Y-101325000D01*
X110503571Y-101353571D01*
X110475000Y-101410714D01*
X110475000Y-101467857D01*
X110503571Y-101553571D01*
X110846428Y-101896428D01*
X110475000Y-101896428D01*
X116914285Y-102871428D02*
X116914285Y-103357142D01*
X116885714Y-103414285D01*
X116857142Y-103442857D01*
X116800000Y-103471428D01*
X116685714Y-103471428D01*
X116628571Y-103442857D01*
X116600000Y-103414285D01*
X116571428Y-103357142D01*
X116571428Y-102871428D01*
X116314285Y-103442857D02*
X116228571Y-103471428D01*
X116085714Y-103471428D01*
X116028571Y-103442857D01*
X116000000Y-103414285D01*
X115971428Y-103357142D01*
X115971428Y-103300000D01*
X116000000Y-103242857D01*
X116028571Y-103214285D01*
X116085714Y-103185714D01*
X116200000Y-103157142D01*
X116257142Y-103128571D01*
X116285714Y-103100000D01*
X116314285Y-103042857D01*
X116314285Y-102985714D01*
X116285714Y-102928571D01*
X116257142Y-102900000D01*
X116200000Y-102871428D01*
X116057142Y-102871428D01*
X115971428Y-102900000D01*
X115514285Y-103157142D02*
X115428571Y-103185714D01*
X115400000Y-103214285D01*
X115371428Y-103271428D01*
X115371428Y-103357142D01*
X115400000Y-103414285D01*
X115428571Y-103442857D01*
X115485714Y-103471428D01*
X115714285Y-103471428D01*
X115714285Y-102871428D01*
X115514285Y-102871428D01*
X115457142Y-102900000D01*
X115428571Y-102928571D01*
X115400000Y-102985714D01*
X115400000Y-103042857D01*
X115428571Y-103100000D01*
X115457142Y-103128571D01*
X115514285Y-103157142D01*
X115714285Y-103157142D01*
X115257142Y-103528571D02*
X114800000Y-103528571D01*
X114657142Y-103471428D02*
X114657142Y-102871428D01*
X114457142Y-103300000D01*
X114257142Y-102871428D01*
X114257142Y-103471428D01*
X113971428Y-103471428D02*
X113971428Y-102871428D01*
X113342857Y-103414285D02*
X113371428Y-103442857D01*
X113457142Y-103471428D01*
X113514285Y-103471428D01*
X113600000Y-103442857D01*
X113657142Y-103385714D01*
X113685714Y-103328571D01*
X113714285Y-103214285D01*
X113714285Y-103128571D01*
X113685714Y-103014285D01*
X113657142Y-102957142D01*
X113600000Y-102900000D01*
X113514285Y-102871428D01*
X113457142Y-102871428D01*
X113371428Y-102900000D01*
X113342857Y-102928571D01*
X112742857Y-103471428D02*
X112942857Y-103185714D01*
X113085714Y-103471428D02*
X113085714Y-102871428D01*
X112857142Y-102871428D01*
X112800000Y-102900000D01*
X112771428Y-102928571D01*
X112742857Y-102985714D01*
X112742857Y-103071428D01*
X112771428Y-103128571D01*
X112800000Y-103157142D01*
X112857142Y-103185714D01*
X113085714Y-103185714D01*
X112371428Y-102871428D02*
X112257142Y-102871428D01*
X112200000Y-102900000D01*
X112142857Y-102957142D01*
X112114285Y-103071428D01*
X112114285Y-103271428D01*
X112142857Y-103385714D01*
X112200000Y-103442857D01*
X112257142Y-103471428D01*
X112371428Y-103471428D01*
X112428571Y-103442857D01*
X112485714Y-103385714D01*
X112514285Y-103271428D01*
X112514285Y-103071428D01*
X112485714Y-102957142D01*
X112428571Y-102900000D01*
X112371428Y-102871428D01*
X112000000Y-103528571D02*
X111542857Y-103528571D01*
X111200000Y-103157142D02*
X111114285Y-103185714D01*
X111085714Y-103214285D01*
X111057142Y-103271428D01*
X111057142Y-103357142D01*
X111085714Y-103414285D01*
X111114285Y-103442857D01*
X111171428Y-103471428D01*
X111400000Y-103471428D01*
X111400000Y-102871428D01*
X111200000Y-102871428D01*
X111142857Y-102900000D01*
X111114285Y-102928571D01*
X111085714Y-102985714D01*
X111085714Y-103042857D01*
X111114285Y-103100000D01*
X111142857Y-103128571D01*
X111200000Y-103157142D01*
X111400000Y-103157142D01*
D13*
X120471175Y-79407556D02*
X119871735Y-79407556D01*
X119871735Y-79550280D01*
X119900280Y-79635914D01*
X119957369Y-79693003D01*
X120014459Y-79721548D01*
X120128638Y-79750093D01*
X120214272Y-79750093D01*
X120328451Y-79721548D01*
X120385540Y-79693003D01*
X120442630Y-79635914D01*
X120471175Y-79550280D01*
X120471175Y-79407556D01*
X120071548Y-80263899D02*
X120471175Y-80263899D01*
X119843190Y-80121175D02*
X120271361Y-79978451D01*
X120271361Y-80349533D01*
X121621175Y-78137127D02*
X121621175Y-77851680D01*
X121021735Y-77851680D01*
X121307182Y-78336940D02*
X121307182Y-78536754D01*
X121621175Y-78622388D02*
X121621175Y-78336940D01*
X121021735Y-78336940D01*
X121021735Y-78622388D01*
X121621175Y-78879291D02*
X121021735Y-78879291D01*
X121021735Y-79022015D01*
X121050280Y-79107649D01*
X121107369Y-79164739D01*
X121164459Y-79193283D01*
X121278638Y-79221828D01*
X121364272Y-79221828D01*
X121478451Y-79193283D01*
X121535540Y-79164739D01*
X121592630Y-79107649D01*
X121621175Y-79022015D01*
X121621175Y-78879291D01*
X121678264Y-79336007D02*
X121678264Y-79792723D01*
X121621175Y-80277984D02*
X121335727Y-80078171D01*
X121621175Y-79935447D02*
X121021735Y-79935447D01*
X121021735Y-80163805D01*
X121050280Y-80220895D01*
X121078824Y-80249440D01*
X121135914Y-80277984D01*
X121221548Y-80277984D01*
X121278638Y-80249440D01*
X121307182Y-80220895D01*
X121335727Y-80163805D01*
X121335727Y-79935447D01*
X121050280Y-80848880D02*
X121021735Y-80791790D01*
X121021735Y-80706156D01*
X121050280Y-80620521D01*
X121107369Y-80563432D01*
X121164459Y-80534887D01*
X121278638Y-80506342D01*
X121364272Y-80506342D01*
X121478451Y-80534887D01*
X121535540Y-80563432D01*
X121592630Y-80620521D01*
X121621175Y-80706156D01*
X121621175Y-80763245D01*
X121592630Y-80848880D01*
X121564085Y-80877424D01*
X121364272Y-80877424D01*
X121364272Y-80763245D01*
X121307182Y-81334140D02*
X121335727Y-81419775D01*
X121364272Y-81448320D01*
X121421361Y-81476864D01*
X121506996Y-81476864D01*
X121564085Y-81448320D01*
X121592630Y-81419775D01*
X121621175Y-81362685D01*
X121621175Y-81134327D01*
X121021735Y-81134327D01*
X121021735Y-81334140D01*
X121050280Y-81391230D01*
X121078824Y-81419775D01*
X121135914Y-81448320D01*
X121193003Y-81448320D01*
X121250093Y-81419775D01*
X121278638Y-81391230D01*
X121307182Y-81334140D01*
X121307182Y-81134327D01*
D12*
X122221428Y-83771428D02*
X122221428Y-83428571D01*
X122221428Y-83600000D02*
X121621428Y-83600000D01*
X121707142Y-83542857D01*
X121764285Y-83485714D01*
X121792857Y-83428571D01*
X120300000Y-83407142D02*
X120300000Y-83692857D01*
X120471428Y-83350000D02*
X119871428Y-83550000D01*
X120471428Y-83750000D01*
X125382857Y-68251428D02*
X125382857Y-67651428D01*
X125240000Y-67651428D01*
X125154285Y-67680000D01*
X125097142Y-67737142D01*
X125068571Y-67794285D01*
X125040000Y-67908571D01*
X125040000Y-67994285D01*
X125068571Y-68108571D01*
X125097142Y-68165714D01*
X125154285Y-68222857D01*
X125240000Y-68251428D01*
X125382857Y-68251428D01*
X124782857Y-68251428D02*
X124782857Y-67651428D01*
X124640000Y-67651428D01*
X124554285Y-67680000D01*
X124497142Y-67737142D01*
X124468571Y-67794285D01*
X124440000Y-67908571D01*
X124440000Y-67994285D01*
X124468571Y-68108571D01*
X124497142Y-68165714D01*
X124554285Y-68222857D01*
X124640000Y-68251428D01*
X124782857Y-68251428D01*
X123925714Y-67851428D02*
X123925714Y-68251428D01*
X124068571Y-67622857D02*
X124211428Y-68051428D01*
X123840000Y-68051428D01*
X127534285Y-59852857D02*
X127448571Y-59881428D01*
X127305714Y-59881428D01*
X127248571Y-59852857D01*
X127220000Y-59824285D01*
X127191428Y-59767142D01*
X127191428Y-59710000D01*
X127220000Y-59652857D01*
X127248571Y-59624285D01*
X127305714Y-59595714D01*
X127420000Y-59567142D01*
X127477142Y-59538571D01*
X127505714Y-59510000D01*
X127534285Y-59452857D01*
X127534285Y-59395714D01*
X127505714Y-59338571D01*
X127477142Y-59310000D01*
X127420000Y-59281428D01*
X127277142Y-59281428D01*
X127191428Y-59310000D01*
X127020000Y-59281428D02*
X126677142Y-59281428D01*
X126848571Y-59881428D02*
X126848571Y-59281428D01*
X126477142Y-59881428D02*
X126477142Y-59281428D01*
X126277142Y-59710000D01*
X126077142Y-59281428D01*
X126077142Y-59881428D01*
X125848571Y-59281428D02*
X125477142Y-59281428D01*
X125677142Y-59510000D01*
X125591428Y-59510000D01*
X125534285Y-59538571D01*
X125505714Y-59567142D01*
X125477142Y-59624285D01*
X125477142Y-59767142D01*
X125505714Y-59824285D01*
X125534285Y-59852857D01*
X125591428Y-59881428D01*
X125762857Y-59881428D01*
X125820000Y-59852857D01*
X125848571Y-59824285D01*
X125248571Y-59338571D02*
X125220000Y-59310000D01*
X125162857Y-59281428D01*
X125020000Y-59281428D01*
X124962857Y-59310000D01*
X124934285Y-59338571D01*
X124905714Y-59395714D01*
X124905714Y-59452857D01*
X124934285Y-59538571D01*
X125277142Y-59881428D01*
X124905714Y-59881428D01*
X124362857Y-59881428D02*
X124648571Y-59881428D01*
X124648571Y-59281428D01*
X123905714Y-59481428D02*
X123905714Y-59881428D01*
X124048571Y-59252857D02*
X124191428Y-59681428D01*
X123820000Y-59681428D01*
X123648571Y-59281428D02*
X123248571Y-59281428D01*
X123505714Y-59881428D01*
X122762857Y-59281428D02*
X122877142Y-59281428D01*
X122934285Y-59310000D01*
X122962857Y-59338571D01*
X123020000Y-59424285D01*
X123048571Y-59538571D01*
X123048571Y-59767142D01*
X123020000Y-59824285D01*
X122991428Y-59852857D01*
X122934285Y-59881428D01*
X122820000Y-59881428D01*
X122762857Y-59852857D01*
X122734285Y-59824285D01*
X122705714Y-59767142D01*
X122705714Y-59624285D01*
X122734285Y-59567142D01*
X122762857Y-59538571D01*
X122820000Y-59510000D01*
X122934285Y-59510000D01*
X122991428Y-59538571D01*
X123020000Y-59567142D01*
X123048571Y-59624285D01*
X122534285Y-59281428D02*
X122334285Y-59881428D01*
X122134285Y-59281428D01*
X121991428Y-59881428D02*
X121677142Y-59481428D01*
X121991428Y-59481428D02*
X121677142Y-59881428D01*
X116728571Y-70731428D02*
X117071428Y-70731428D01*
X116900000Y-70731428D02*
X116900000Y-70131428D01*
X116957142Y-70217142D01*
X117014285Y-70274285D01*
X117071428Y-70302857D01*
X112196428Y-61160714D02*
X112796428Y-61560714D01*
X112196428Y-61560714D02*
X112796428Y-61160714D01*
X112196428Y-61703571D02*
X112196428Y-62046428D01*
X112796428Y-61875000D02*
X112196428Y-61875000D01*
X112625000Y-62217857D02*
X112625000Y-62503571D01*
X112796428Y-62160714D02*
X112196428Y-62360714D01*
X112796428Y-62560714D01*
X112796428Y-63046428D02*
X112796428Y-62760714D01*
X112196428Y-62760714D01*
X112796428Y-63560714D02*
X112796428Y-63217857D01*
X112796428Y-63389285D02*
X112196428Y-63389285D01*
X112282142Y-63332142D01*
X112339285Y-63275000D01*
X112367857Y-63217857D01*
X114671428Y-61385714D02*
X114671428Y-61042857D01*
X114671428Y-61214285D02*
X114071428Y-61214285D01*
X114157142Y-61157142D01*
X114214285Y-61100000D01*
X114242857Y-61042857D01*
X114128571Y-61614285D02*
X114100000Y-61642857D01*
X114071428Y-61700000D01*
X114071428Y-61842857D01*
X114100000Y-61900000D01*
X114128571Y-61928571D01*
X114185714Y-61957142D01*
X114242857Y-61957142D01*
X114328571Y-61928571D01*
X114671428Y-61585714D01*
X114671428Y-61957142D01*
X114671428Y-62214285D02*
X114071428Y-62214285D01*
X114500000Y-62414285D01*
X114071428Y-62614285D01*
X114671428Y-62614285D01*
X114671428Y-62900000D02*
X114071428Y-62900000D01*
X114357142Y-62900000D02*
X114357142Y-63242857D01*
X114671428Y-63242857D02*
X114071428Y-63242857D01*
X114271428Y-63471428D02*
X114271428Y-63785714D01*
X114671428Y-63471428D01*
X114671428Y-63785714D01*
X119585714Y-97671428D02*
X119785714Y-97385714D01*
X119928571Y-97671428D02*
X119928571Y-97071428D01*
X119700000Y-97071428D01*
X119642857Y-97100000D01*
X119614285Y-97128571D01*
X119585714Y-97185714D01*
X119585714Y-97271428D01*
X119614285Y-97328571D01*
X119642857Y-97357142D01*
X119700000Y-97385714D01*
X119928571Y-97385714D01*
X119357142Y-97128571D02*
X119328571Y-97100000D01*
X119271428Y-97071428D01*
X119128571Y-97071428D01*
X119071428Y-97100000D01*
X119042857Y-97128571D01*
X119014285Y-97185714D01*
X119014285Y-97242857D01*
X119042857Y-97328571D01*
X119385714Y-97671428D01*
X119014285Y-97671428D01*
X118728571Y-97671428D02*
X118614285Y-97671428D01*
X118557142Y-97642857D01*
X118528571Y-97614285D01*
X118471428Y-97528571D01*
X118442857Y-97414285D01*
X118442857Y-97185714D01*
X118471428Y-97128571D01*
X118500000Y-97100000D01*
X118557142Y-97071428D01*
X118671428Y-97071428D01*
X118728571Y-97100000D01*
X118757142Y-97128571D01*
X118785714Y-97185714D01*
X118785714Y-97328571D01*
X118757142Y-97385714D01*
X118728571Y-97414285D01*
X118671428Y-97442857D01*
X118557142Y-97442857D01*
X118500000Y-97414285D01*
X118471428Y-97385714D01*
X118442857Y-97328571D01*
X118255428Y-96401428D02*
X118598285Y-96401428D01*
X118426857Y-96401428D02*
X118426857Y-95801428D01*
X118484000Y-95887142D01*
X118541142Y-95944285D01*
X118598285Y-95972857D01*
X117998285Y-96401428D02*
X117998285Y-95801428D01*
X117941142Y-96172857D02*
X117769714Y-96401428D01*
X117769714Y-96001428D02*
X117998285Y-96230000D01*
X113185714Y-72071428D02*
X113385714Y-71785714D01*
X113528571Y-72071428D02*
X113528571Y-71471428D01*
X113300000Y-71471428D01*
X113242857Y-71500000D01*
X113214285Y-71528571D01*
X113185714Y-71585714D01*
X113185714Y-71671428D01*
X113214285Y-71728571D01*
X113242857Y-71757142D01*
X113300000Y-71785714D01*
X113528571Y-71785714D01*
X112985714Y-71471428D02*
X112614285Y-71471428D01*
X112814285Y-71700000D01*
X112728571Y-71700000D01*
X112671428Y-71728571D01*
X112642857Y-71757142D01*
X112614285Y-71814285D01*
X112614285Y-71957142D01*
X112642857Y-72014285D01*
X112671428Y-72042857D01*
X112728571Y-72071428D01*
X112900000Y-72071428D01*
X112957142Y-72042857D01*
X112985714Y-72014285D01*
X112042857Y-72071428D02*
X112385714Y-72071428D01*
X112214285Y-72071428D02*
X112214285Y-71471428D01*
X112271428Y-71557142D01*
X112328571Y-71614285D01*
X112385714Y-71642857D01*
X115071428Y-72071428D02*
X115414285Y-72071428D01*
X115242857Y-72071428D02*
X115242857Y-71471428D01*
X115300000Y-71557142D01*
X115357142Y-71614285D01*
X115414285Y-71642857D01*
X114814285Y-72071428D02*
X114814285Y-71471428D01*
X114757142Y-71842857D02*
X114585714Y-72071428D01*
X114585714Y-71671428D02*
X114814285Y-71900000D01*
X145541428Y-109369285D02*
X145255714Y-109169285D01*
X145541428Y-109026428D02*
X144941428Y-109026428D01*
X144941428Y-109255000D01*
X144970000Y-109312142D01*
X144998571Y-109340714D01*
X145055714Y-109369285D01*
X145141428Y-109369285D01*
X145198571Y-109340714D01*
X145227142Y-109312142D01*
X145255714Y-109255000D01*
X145255714Y-109026428D01*
X145141428Y-109883571D02*
X145541428Y-109883571D01*
X144912857Y-109740714D02*
X145341428Y-109597857D01*
X145341428Y-109969285D01*
X144941428Y-110312142D02*
X144941428Y-110369285D01*
X144970000Y-110426428D01*
X144998571Y-110455000D01*
X145055714Y-110483571D01*
X145170000Y-110512142D01*
X145312857Y-110512142D01*
X145427142Y-110483571D01*
X145484285Y-110455000D01*
X145512857Y-110426428D01*
X145541428Y-110369285D01*
X145541428Y-110312142D01*
X145512857Y-110255000D01*
X145484285Y-110226428D01*
X145427142Y-110197857D01*
X145312857Y-110169285D01*
X145170000Y-110169285D01*
X145055714Y-110197857D01*
X144998571Y-110226428D01*
X144970000Y-110255000D01*
X144941428Y-110312142D01*
X146871428Y-109728571D02*
X146871428Y-109385714D01*
X146871428Y-109557142D02*
X146271428Y-109557142D01*
X146357142Y-109500000D01*
X146414285Y-109442857D01*
X146442857Y-109385714D01*
X146871428Y-109985714D02*
X146271428Y-109985714D01*
X146642857Y-110042857D02*
X146871428Y-110214285D01*
X146471428Y-110214285D02*
X146700000Y-109985714D01*
X102985714Y-64071428D02*
X103185714Y-63785714D01*
X103328571Y-64071428D02*
X103328571Y-63471428D01*
X103100000Y-63471428D01*
X103042857Y-63500000D01*
X103014285Y-63528571D01*
X102985714Y-63585714D01*
X102985714Y-63671428D01*
X103014285Y-63728571D01*
X103042857Y-63757142D01*
X103100000Y-63785714D01*
X103328571Y-63785714D01*
X102471428Y-63671428D02*
X102471428Y-64071428D01*
X102614285Y-63442857D02*
X102757142Y-63871428D01*
X102385714Y-63871428D01*
X101842857Y-64071428D02*
X102185714Y-64071428D01*
X102014285Y-64071428D02*
X102014285Y-63471428D01*
X102071428Y-63557142D01*
X102128571Y-63614285D01*
X102185714Y-63642857D01*
X102185714Y-64871428D02*
X102471428Y-64871428D01*
X102500000Y-65157142D01*
X102471428Y-65128571D01*
X102414285Y-65100000D01*
X102271428Y-65100000D01*
X102214285Y-65128571D01*
X102185714Y-65157142D01*
X102157142Y-65214285D01*
X102157142Y-65357142D01*
X102185714Y-65414285D01*
X102214285Y-65442857D01*
X102271428Y-65471428D01*
X102414285Y-65471428D01*
X102471428Y-65442857D01*
X102500000Y-65414285D01*
X101585714Y-65471428D02*
X101928571Y-65471428D01*
X101757142Y-65471428D02*
X101757142Y-64871428D01*
X101814285Y-64957142D01*
X101871428Y-65014285D01*
X101928571Y-65042857D01*
X101328571Y-65471428D02*
X101328571Y-64871428D01*
X101271428Y-65242857D02*
X101100000Y-65471428D01*
X101100000Y-65071428D02*
X101328571Y-65300000D01*
X120921428Y-85514285D02*
X120635714Y-85314285D01*
X120921428Y-85171428D02*
X120321428Y-85171428D01*
X120321428Y-85400000D01*
X120350000Y-85457142D01*
X120378571Y-85485714D01*
X120435714Y-85514285D01*
X120521428Y-85514285D01*
X120578571Y-85485714D01*
X120607142Y-85457142D01*
X120635714Y-85400000D01*
X120635714Y-85171428D01*
X120521428Y-86028571D02*
X120921428Y-86028571D01*
X120292857Y-85885714D02*
X120721428Y-85742857D01*
X120721428Y-86114285D01*
X120378571Y-86314285D02*
X120350000Y-86342857D01*
X120321428Y-86400000D01*
X120321428Y-86542857D01*
X120350000Y-86600000D01*
X120378571Y-86628571D01*
X120435714Y-86657142D01*
X120492857Y-86657142D01*
X120578571Y-86628571D01*
X120921428Y-86285714D01*
X120921428Y-86657142D01*
X122171428Y-85778571D02*
X122171428Y-85435714D01*
X122171428Y-85607142D02*
X121571428Y-85607142D01*
X121657142Y-85550000D01*
X121714285Y-85492857D01*
X121742857Y-85435714D01*
X122171428Y-86035714D02*
X121571428Y-86035714D01*
X121942857Y-86092857D02*
X122171428Y-86264285D01*
X121771428Y-86264285D02*
X122000000Y-86035714D01*
X123371428Y-107250000D02*
X123085714Y-107050000D01*
X123371428Y-106907142D02*
X122771428Y-106907142D01*
X122771428Y-107135714D01*
X122800000Y-107192857D01*
X122828571Y-107221428D01*
X122885714Y-107250000D01*
X122971428Y-107250000D01*
X123028571Y-107221428D01*
X123057142Y-107192857D01*
X123085714Y-107135714D01*
X123085714Y-106907142D01*
X123371428Y-107821428D02*
X123371428Y-107478571D01*
X123371428Y-107650000D02*
X122771428Y-107650000D01*
X122857142Y-107592857D01*
X122914285Y-107535714D01*
X122942857Y-107478571D01*
X123271428Y-109628571D02*
X123271428Y-109285714D01*
X123271428Y-109457142D02*
X122671428Y-109457142D01*
X122757142Y-109400000D01*
X122814285Y-109342857D01*
X122842857Y-109285714D01*
X123271428Y-109885714D02*
X122671428Y-109885714D01*
X123100000Y-110085714D01*
X122671428Y-110285714D01*
X123271428Y-110285714D01*
X145471428Y-106484285D02*
X145185714Y-106284285D01*
X145471428Y-106141428D02*
X144871428Y-106141428D01*
X144871428Y-106370000D01*
X144900000Y-106427142D01*
X144928571Y-106455714D01*
X144985714Y-106484285D01*
X145071428Y-106484285D01*
X145128571Y-106455714D01*
X145157142Y-106427142D01*
X145185714Y-106370000D01*
X145185714Y-106141428D01*
X144871428Y-106684285D02*
X144871428Y-107055714D01*
X145100000Y-106855714D01*
X145100000Y-106941428D01*
X145128571Y-106998571D01*
X145157142Y-107027142D01*
X145214285Y-107055714D01*
X145357142Y-107055714D01*
X145414285Y-107027142D01*
X145442857Y-106998571D01*
X145471428Y-106941428D01*
X145471428Y-106770000D01*
X145442857Y-106712857D01*
X145414285Y-106684285D01*
X145471428Y-107341428D02*
X145471428Y-107455714D01*
X145442857Y-107512857D01*
X145414285Y-107541428D01*
X145328571Y-107598571D01*
X145214285Y-107627142D01*
X144985714Y-107627142D01*
X144928571Y-107598571D01*
X144900000Y-107570000D01*
X144871428Y-107512857D01*
X144871428Y-107398571D01*
X144900000Y-107341428D01*
X144928571Y-107312857D01*
X144985714Y-107284285D01*
X145128571Y-107284285D01*
X145185714Y-107312857D01*
X145214285Y-107341428D01*
X145242857Y-107398571D01*
X145242857Y-107512857D01*
X145214285Y-107570000D01*
X145185714Y-107598571D01*
X145128571Y-107627142D01*
X146871428Y-106528571D02*
X146871428Y-106185714D01*
X146871428Y-106357142D02*
X146271428Y-106357142D01*
X146357142Y-106300000D01*
X146414285Y-106242857D01*
X146442857Y-106185714D01*
X146871428Y-106785714D02*
X146271428Y-106785714D01*
X146642857Y-106842857D02*
X146871428Y-107014285D01*
X146471428Y-107014285D02*
X146700000Y-106785714D01*
X119300000Y-99271428D02*
X119500000Y-98985714D01*
X119642857Y-99271428D02*
X119642857Y-98671428D01*
X119414285Y-98671428D01*
X119357142Y-98700000D01*
X119328571Y-98728571D01*
X119300000Y-98785714D01*
X119300000Y-98871428D01*
X119328571Y-98928571D01*
X119357142Y-98957142D01*
X119414285Y-98985714D01*
X119642857Y-98985714D01*
X118785714Y-98871428D02*
X118785714Y-99271428D01*
X118928571Y-98642857D02*
X119071428Y-99071428D01*
X118700000Y-99071428D01*
X120007142Y-100028571D02*
X119978571Y-100000000D01*
X119921428Y-99971428D01*
X119778571Y-99971428D01*
X119721428Y-100000000D01*
X119692857Y-100028571D01*
X119664285Y-100085714D01*
X119664285Y-100142857D01*
X119692857Y-100228571D01*
X120035714Y-100571428D01*
X119664285Y-100571428D01*
X119064285Y-100571428D02*
X119264285Y-100285714D01*
X119407142Y-100571428D02*
X119407142Y-99971428D01*
X119178571Y-99971428D01*
X119121428Y-100000000D01*
X119092857Y-100028571D01*
X119064285Y-100085714D01*
X119064285Y-100171428D01*
X119092857Y-100228571D01*
X119121428Y-100257142D01*
X119178571Y-100285714D01*
X119407142Y-100285714D01*
X118835714Y-100028571D02*
X118807142Y-100000000D01*
X118750000Y-99971428D01*
X118607142Y-99971428D01*
X118550000Y-100000000D01*
X118521428Y-100028571D01*
X118492857Y-100085714D01*
X118492857Y-100142857D01*
X118521428Y-100228571D01*
X118864285Y-100571428D01*
X118492857Y-100571428D01*
X112700000Y-89471428D02*
X112900000Y-89185714D01*
X113042857Y-89471428D02*
X113042857Y-88871428D01*
X112814285Y-88871428D01*
X112757142Y-88900000D01*
X112728571Y-88928571D01*
X112700000Y-88985714D01*
X112700000Y-89071428D01*
X112728571Y-89128571D01*
X112757142Y-89157142D01*
X112814285Y-89185714D01*
X113042857Y-89185714D01*
X112157142Y-88871428D02*
X112442857Y-88871428D01*
X112471428Y-89157142D01*
X112442857Y-89128571D01*
X112385714Y-89100000D01*
X112242857Y-89100000D01*
X112185714Y-89128571D01*
X112157142Y-89157142D01*
X112128571Y-89214285D01*
X112128571Y-89357142D01*
X112157142Y-89414285D01*
X112185714Y-89442857D01*
X112242857Y-89471428D01*
X112385714Y-89471428D01*
X112442857Y-89442857D01*
X112471428Y-89414285D01*
X110557142Y-89071428D02*
X110900000Y-89071428D01*
X110728571Y-89071428D02*
X110728571Y-88471428D01*
X110785714Y-88557142D01*
X110842857Y-88614285D01*
X110900000Y-88642857D01*
X110185714Y-88471428D02*
X110128571Y-88471428D01*
X110071428Y-88500000D01*
X110042857Y-88528571D01*
X110014285Y-88585714D01*
X109985714Y-88700000D01*
X109985714Y-88842857D01*
X110014285Y-88957142D01*
X110042857Y-89014285D01*
X110071428Y-89042857D01*
X110128571Y-89071428D01*
X110185714Y-89071428D01*
X110242857Y-89042857D01*
X110271428Y-89014285D01*
X110300000Y-88957142D01*
X110328571Y-88842857D01*
X110328571Y-88700000D01*
X110300000Y-88585714D01*
X110271428Y-88528571D01*
X110242857Y-88500000D01*
X110185714Y-88471428D01*
X109728571Y-89071428D02*
X109728571Y-88471428D01*
X109671428Y-88842857D02*
X109500000Y-89071428D01*
X109500000Y-88671428D02*
X109728571Y-88900000D01*
X123492000Y-92448428D02*
X123692000Y-92162714D01*
X123834857Y-92448428D02*
X123834857Y-91848428D01*
X123606285Y-91848428D01*
X123549142Y-91877000D01*
X123520571Y-91905571D01*
X123492000Y-91962714D01*
X123492000Y-92048428D01*
X123520571Y-92105571D01*
X123549142Y-92134142D01*
X123606285Y-92162714D01*
X123834857Y-92162714D01*
X123206285Y-92448428D02*
X123092000Y-92448428D01*
X123034857Y-92419857D01*
X123006285Y-92391285D01*
X122949142Y-92305571D01*
X122920571Y-92191285D01*
X122920571Y-91962714D01*
X122949142Y-91905571D01*
X122977714Y-91877000D01*
X123034857Y-91848428D01*
X123149142Y-91848428D01*
X123206285Y-91877000D01*
X123234857Y-91905571D01*
X123263428Y-91962714D01*
X123263428Y-92105571D01*
X123234857Y-92162714D01*
X123206285Y-92191285D01*
X123149142Y-92219857D01*
X123034857Y-92219857D01*
X122977714Y-92191285D01*
X122949142Y-92162714D01*
X122920571Y-92105571D01*
X121565857Y-91751571D02*
X121537285Y-91723000D01*
X121480142Y-91694428D01*
X121337285Y-91694428D01*
X121280142Y-91723000D01*
X121251571Y-91751571D01*
X121223000Y-91808714D01*
X121223000Y-91865857D01*
X121251571Y-91951571D01*
X121594428Y-92294428D01*
X121223000Y-92294428D01*
X120708714Y-91894428D02*
X120708714Y-92294428D01*
X120851571Y-91665857D02*
X120994428Y-92094428D01*
X120623000Y-92094428D01*
X120280142Y-91694428D02*
X120223000Y-91694428D01*
X120165857Y-91723000D01*
X120137285Y-91751571D01*
X120108714Y-91808714D01*
X120080142Y-91923000D01*
X120080142Y-92065857D01*
X120108714Y-92180142D01*
X120137285Y-92237285D01*
X120165857Y-92265857D01*
X120223000Y-92294428D01*
X120280142Y-92294428D01*
X120337285Y-92265857D01*
X120365857Y-92237285D01*
X120394428Y-92180142D01*
X120423000Y-92065857D01*
X120423000Y-91923000D01*
X120394428Y-91808714D01*
X120365857Y-91751571D01*
X120337285Y-91723000D01*
X120280142Y-91694428D01*
X119480142Y-92294428D02*
X119680142Y-92008714D01*
X119823000Y-92294428D02*
X119823000Y-91694428D01*
X119594428Y-91694428D01*
X119537285Y-91723000D01*
X119508714Y-91751571D01*
X119480142Y-91808714D01*
X119480142Y-91894428D01*
X119508714Y-91951571D01*
X119537285Y-91980142D01*
X119594428Y-92008714D01*
X119823000Y-92008714D01*
X138685714Y-94971428D02*
X138885714Y-94685714D01*
X139028571Y-94971428D02*
X139028571Y-94371428D01*
X138800000Y-94371428D01*
X138742857Y-94400000D01*
X138714285Y-94428571D01*
X138685714Y-94485714D01*
X138685714Y-94571428D01*
X138714285Y-94628571D01*
X138742857Y-94657142D01*
X138800000Y-94685714D01*
X139028571Y-94685714D01*
X138114285Y-94971428D02*
X138457142Y-94971428D01*
X138285714Y-94971428D02*
X138285714Y-94371428D01*
X138342857Y-94457142D01*
X138400000Y-94514285D01*
X138457142Y-94542857D01*
X137542857Y-94971428D02*
X137885714Y-94971428D01*
X137714285Y-94971428D02*
X137714285Y-94371428D01*
X137771428Y-94457142D01*
X137828571Y-94514285D01*
X137885714Y-94542857D01*
X141692857Y-94428571D02*
X141664285Y-94400000D01*
X141607142Y-94371428D01*
X141464285Y-94371428D01*
X141407142Y-94400000D01*
X141378571Y-94428571D01*
X141350000Y-94485714D01*
X141350000Y-94542857D01*
X141378571Y-94628571D01*
X141721428Y-94971428D01*
X141350000Y-94971428D01*
X141092857Y-94914285D02*
X141064285Y-94942857D01*
X141092857Y-94971428D01*
X141121428Y-94942857D01*
X141092857Y-94914285D01*
X141092857Y-94971428D01*
X140835714Y-94428571D02*
X140807142Y-94400000D01*
X140750000Y-94371428D01*
X140607142Y-94371428D01*
X140550000Y-94400000D01*
X140521428Y-94428571D01*
X140492857Y-94485714D01*
X140492857Y-94542857D01*
X140521428Y-94628571D01*
X140864285Y-94971428D01*
X140492857Y-94971428D01*
X140235714Y-94971428D02*
X140235714Y-94371428D01*
X140178571Y-94742857D02*
X140007142Y-94971428D01*
X140007142Y-94571428D02*
X140235714Y-94800000D01*
X131535714Y-88321428D02*
X131735714Y-88035714D01*
X131878571Y-88321428D02*
X131878571Y-87721428D01*
X131650000Y-87721428D01*
X131592857Y-87750000D01*
X131564285Y-87778571D01*
X131535714Y-87835714D01*
X131535714Y-87921428D01*
X131564285Y-87978571D01*
X131592857Y-88007142D01*
X131650000Y-88035714D01*
X131878571Y-88035714D01*
X130964285Y-88321428D02*
X131307142Y-88321428D01*
X131135714Y-88321428D02*
X131135714Y-87721428D01*
X131192857Y-87807142D01*
X131250000Y-87864285D01*
X131307142Y-87892857D01*
X130764285Y-87721428D02*
X130392857Y-87721428D01*
X130592857Y-87950000D01*
X130507142Y-87950000D01*
X130450000Y-87978571D01*
X130421428Y-88007142D01*
X130392857Y-88064285D01*
X130392857Y-88207142D01*
X130421428Y-88264285D01*
X130450000Y-88292857D01*
X130507142Y-88321428D01*
X130678571Y-88321428D01*
X130735714Y-88292857D01*
X130764285Y-88264285D01*
X129071428Y-88271428D02*
X129414285Y-88271428D01*
X129242857Y-88271428D02*
X129242857Y-87671428D01*
X129300000Y-87757142D01*
X129357142Y-87814285D01*
X129414285Y-87842857D01*
X128814285Y-88271428D02*
X128814285Y-87671428D01*
X128757142Y-88042857D02*
X128585714Y-88271428D01*
X128585714Y-87871428D02*
X128814285Y-88100000D01*
X136121428Y-104789285D02*
X135835714Y-104589285D01*
X136121428Y-104446428D02*
X135521428Y-104446428D01*
X135521428Y-104675000D01*
X135550000Y-104732142D01*
X135578571Y-104760714D01*
X135635714Y-104789285D01*
X135721428Y-104789285D01*
X135778571Y-104760714D01*
X135807142Y-104732142D01*
X135835714Y-104675000D01*
X135835714Y-104446428D01*
X136121428Y-105360714D02*
X136121428Y-105017857D01*
X136121428Y-105189285D02*
X135521428Y-105189285D01*
X135607142Y-105132142D01*
X135664285Y-105075000D01*
X135692857Y-105017857D01*
X135521428Y-105560714D02*
X135521428Y-105960714D01*
X136121428Y-105703571D01*
X136096428Y-107196428D02*
X136096428Y-106853571D01*
X136096428Y-107025000D02*
X135496428Y-107025000D01*
X135582142Y-106967857D01*
X135639285Y-106910714D01*
X135667857Y-106853571D01*
X136096428Y-107796428D02*
X135810714Y-107596428D01*
X136096428Y-107453571D02*
X135496428Y-107453571D01*
X135496428Y-107682142D01*
X135525000Y-107739285D01*
X135553571Y-107767857D01*
X135610714Y-107796428D01*
X135696428Y-107796428D01*
X135753571Y-107767857D01*
X135782142Y-107739285D01*
X135810714Y-107682142D01*
X135810714Y-107453571D01*
X140171714Y-91118428D02*
X140371714Y-90832714D01*
X140514571Y-91118428D02*
X140514571Y-90518428D01*
X140286000Y-90518428D01*
X140228857Y-90547000D01*
X140200285Y-90575571D01*
X140171714Y-90632714D01*
X140171714Y-90718428D01*
X140200285Y-90775571D01*
X140228857Y-90804142D01*
X140286000Y-90832714D01*
X140514571Y-90832714D01*
X139943142Y-90575571D02*
X139914571Y-90547000D01*
X139857428Y-90518428D01*
X139714571Y-90518428D01*
X139657428Y-90547000D01*
X139628857Y-90575571D01*
X139600285Y-90632714D01*
X139600285Y-90689857D01*
X139628857Y-90775571D01*
X139971714Y-91118428D01*
X139600285Y-91118428D01*
X139028857Y-91118428D02*
X139371714Y-91118428D01*
X139200285Y-91118428D02*
X139200285Y-90518428D01*
X139257428Y-90604142D01*
X139314571Y-90661285D01*
X139371714Y-90689857D01*
X142814285Y-90871428D02*
X142814285Y-91271428D01*
X142957142Y-90642857D02*
X143100000Y-91071428D01*
X142728571Y-91071428D01*
X142500000Y-91271428D02*
X142500000Y-90671428D01*
X142442857Y-91042857D02*
X142271428Y-91271428D01*
X142271428Y-90871428D02*
X142500000Y-91100000D01*
X142071428Y-90671428D02*
X141671428Y-90671428D01*
X141928571Y-91271428D01*
X140235714Y-92671428D02*
X140435714Y-92385714D01*
X140578571Y-92671428D02*
X140578571Y-92071428D01*
X140350000Y-92071428D01*
X140292857Y-92100000D01*
X140264285Y-92128571D01*
X140235714Y-92185714D01*
X140235714Y-92271428D01*
X140264285Y-92328571D01*
X140292857Y-92357142D01*
X140350000Y-92385714D01*
X140578571Y-92385714D01*
X140007142Y-92128571D02*
X139978571Y-92100000D01*
X139921428Y-92071428D01*
X139778571Y-92071428D01*
X139721428Y-92100000D01*
X139692857Y-92128571D01*
X139664285Y-92185714D01*
X139664285Y-92242857D01*
X139692857Y-92328571D01*
X140035714Y-92671428D01*
X139664285Y-92671428D01*
X139435714Y-92128571D02*
X139407142Y-92100000D01*
X139350000Y-92071428D01*
X139207142Y-92071428D01*
X139150000Y-92100000D01*
X139121428Y-92128571D01*
X139092857Y-92185714D01*
X139092857Y-92242857D01*
X139121428Y-92328571D01*
X139464285Y-92671428D01*
X139092857Y-92671428D01*
X142614285Y-92471428D02*
X142614285Y-92871428D01*
X142757142Y-92242857D02*
X142900000Y-92671428D01*
X142528571Y-92671428D01*
X142300000Y-92871428D02*
X142300000Y-92271428D01*
X142242857Y-92642857D02*
X142071428Y-92871428D01*
X142071428Y-92471428D02*
X142300000Y-92700000D01*
X141871428Y-92271428D02*
X141471428Y-92271428D01*
X141728571Y-92871428D01*
X140205714Y-89431428D02*
X140405714Y-89145714D01*
X140548571Y-89431428D02*
X140548571Y-88831428D01*
X140320000Y-88831428D01*
X140262857Y-88860000D01*
X140234285Y-88888571D01*
X140205714Y-88945714D01*
X140205714Y-89031428D01*
X140234285Y-89088571D01*
X140262857Y-89117142D01*
X140320000Y-89145714D01*
X140548571Y-89145714D01*
X139977142Y-88888571D02*
X139948571Y-88860000D01*
X139891428Y-88831428D01*
X139748571Y-88831428D01*
X139691428Y-88860000D01*
X139662857Y-88888571D01*
X139634285Y-88945714D01*
X139634285Y-89002857D01*
X139662857Y-89088571D01*
X140005714Y-89431428D01*
X139634285Y-89431428D01*
X139434285Y-88831428D02*
X139062857Y-88831428D01*
X139262857Y-89060000D01*
X139177142Y-89060000D01*
X139120000Y-89088571D01*
X139091428Y-89117142D01*
X139062857Y-89174285D01*
X139062857Y-89317142D01*
X139091428Y-89374285D01*
X139120000Y-89402857D01*
X139177142Y-89431428D01*
X139348571Y-89431428D01*
X139405714Y-89402857D01*
X139434285Y-89374285D01*
X142785714Y-88871428D02*
X143071428Y-88871428D01*
X143100000Y-89157142D01*
X143071428Y-89128571D01*
X143014285Y-89100000D01*
X142871428Y-89100000D01*
X142814285Y-89128571D01*
X142785714Y-89157142D01*
X142757142Y-89214285D01*
X142757142Y-89357142D01*
X142785714Y-89414285D01*
X142814285Y-89442857D01*
X142871428Y-89471428D01*
X143014285Y-89471428D01*
X143071428Y-89442857D01*
X143100000Y-89414285D01*
X142185714Y-89471428D02*
X142528571Y-89471428D01*
X142357142Y-89471428D02*
X142357142Y-88871428D01*
X142414285Y-88957142D01*
X142471428Y-89014285D01*
X142528571Y-89042857D01*
X141928571Y-89471428D02*
X141928571Y-88871428D01*
X141871428Y-89242857D02*
X141700000Y-89471428D01*
X141700000Y-89071428D02*
X141928571Y-89300000D01*
X128471428Y-105100000D02*
X128185714Y-104900000D01*
X128471428Y-104757142D02*
X127871428Y-104757142D01*
X127871428Y-104985714D01*
X127900000Y-105042857D01*
X127928571Y-105071428D01*
X127985714Y-105100000D01*
X128071428Y-105100000D01*
X128128571Y-105071428D01*
X128157142Y-105042857D01*
X128185714Y-104985714D01*
X128185714Y-104757142D01*
X127871428Y-105300000D02*
X127871428Y-105671428D01*
X128100000Y-105471428D01*
X128100000Y-105557142D01*
X128128571Y-105614285D01*
X128157142Y-105642857D01*
X128214285Y-105671428D01*
X128357142Y-105671428D01*
X128414285Y-105642857D01*
X128442857Y-105614285D01*
X128471428Y-105557142D01*
X128471428Y-105385714D01*
X128442857Y-105328571D01*
X128414285Y-105300000D01*
X127928571Y-107014285D02*
X127900000Y-107042857D01*
X127871428Y-107100000D01*
X127871428Y-107242857D01*
X127900000Y-107300000D01*
X127928571Y-107328571D01*
X127985714Y-107357142D01*
X128042857Y-107357142D01*
X128128571Y-107328571D01*
X128471428Y-106985714D01*
X128471428Y-107357142D01*
X127871428Y-107728571D02*
X127871428Y-107785714D01*
X127900000Y-107842857D01*
X127928571Y-107871428D01*
X127985714Y-107900000D01*
X128100000Y-107928571D01*
X128242857Y-107928571D01*
X128357142Y-107900000D01*
X128414285Y-107871428D01*
X128442857Y-107842857D01*
X128471428Y-107785714D01*
X128471428Y-107728571D01*
X128442857Y-107671428D01*
X128414285Y-107642857D01*
X128357142Y-107614285D01*
X128242857Y-107585714D01*
X128100000Y-107585714D01*
X127985714Y-107614285D01*
X127928571Y-107642857D01*
X127900000Y-107671428D01*
X127871428Y-107728571D01*
X127871428Y-108300000D02*
X127871428Y-108357142D01*
X127900000Y-108414285D01*
X127928571Y-108442857D01*
X127985714Y-108471428D01*
X128100000Y-108500000D01*
X128242857Y-108500000D01*
X128357142Y-108471428D01*
X128414285Y-108442857D01*
X128442857Y-108414285D01*
X128471428Y-108357142D01*
X128471428Y-108300000D01*
X128442857Y-108242857D01*
X128414285Y-108214285D01*
X128357142Y-108185714D01*
X128242857Y-108157142D01*
X128100000Y-108157142D01*
X127985714Y-108185714D01*
X127928571Y-108214285D01*
X127900000Y-108242857D01*
X127871428Y-108300000D01*
X128471428Y-108757142D02*
X127871428Y-108757142D01*
X128242857Y-108814285D02*
X128471428Y-108985714D01*
X128071428Y-108985714D02*
X128300000Y-108757142D01*
X123367000Y-94172428D02*
X123567000Y-93886714D01*
X123709857Y-94172428D02*
X123709857Y-93572428D01*
X123481285Y-93572428D01*
X123424142Y-93601000D01*
X123395571Y-93629571D01*
X123367000Y-93686714D01*
X123367000Y-93772428D01*
X123395571Y-93829571D01*
X123424142Y-93858142D01*
X123481285Y-93886714D01*
X123709857Y-93886714D01*
X123138428Y-93629571D02*
X123109857Y-93601000D01*
X123052714Y-93572428D01*
X122909857Y-93572428D01*
X122852714Y-93601000D01*
X122824142Y-93629571D01*
X122795571Y-93686714D01*
X122795571Y-93743857D01*
X122824142Y-93829571D01*
X123167000Y-94172428D01*
X122795571Y-94172428D01*
X121163428Y-94072428D02*
X121506285Y-94072428D01*
X121334857Y-94072428D02*
X121334857Y-93472428D01*
X121392000Y-93558142D01*
X121449142Y-93615285D01*
X121506285Y-93643857D01*
X120906285Y-94072428D02*
X120906285Y-93472428D01*
X120849142Y-93843857D02*
X120677714Y-94072428D01*
X120677714Y-93672428D02*
X120906285Y-93901000D01*
X119985714Y-89071428D02*
X120185714Y-88785714D01*
X120328571Y-89071428D02*
X120328571Y-88471428D01*
X120100000Y-88471428D01*
X120042857Y-88500000D01*
X120014285Y-88528571D01*
X119985714Y-88585714D01*
X119985714Y-88671428D01*
X120014285Y-88728571D01*
X120042857Y-88757142D01*
X120100000Y-88785714D01*
X120328571Y-88785714D01*
X119471428Y-88671428D02*
X119471428Y-89071428D01*
X119614285Y-88442857D02*
X119757142Y-88871428D01*
X119385714Y-88871428D01*
X118900000Y-88471428D02*
X119014285Y-88471428D01*
X119071428Y-88500000D01*
X119100000Y-88528571D01*
X119157142Y-88614285D01*
X119185714Y-88728571D01*
X119185714Y-88957142D01*
X119157142Y-89014285D01*
X119128571Y-89042857D01*
X119071428Y-89071428D01*
X118957142Y-89071428D01*
X118900000Y-89042857D01*
X118871428Y-89014285D01*
X118842857Y-88957142D01*
X118842857Y-88814285D01*
X118871428Y-88757142D01*
X118900000Y-88728571D01*
X118957142Y-88700000D01*
X119071428Y-88700000D01*
X119128571Y-88728571D01*
X119157142Y-88757142D01*
X119185714Y-88814285D01*
X120772368Y-89956682D02*
X120972368Y-89956682D01*
X120972368Y-90270968D02*
X120972368Y-89670968D01*
X120686654Y-89670968D01*
X120200940Y-89870968D02*
X120200940Y-90270968D01*
X120458082Y-89870968D02*
X120458082Y-90185254D01*
X120429511Y-90242397D01*
X120372368Y-90270968D01*
X120286654Y-90270968D01*
X120229511Y-90242397D01*
X120200940Y-90213825D01*
X119943797Y-90242397D02*
X119886654Y-90270968D01*
X119772368Y-90270968D01*
X119715225Y-90242397D01*
X119686654Y-90185254D01*
X119686654Y-90156682D01*
X119715225Y-90099540D01*
X119772368Y-90070968D01*
X119858082Y-90070968D01*
X119915225Y-90042397D01*
X119943797Y-89985254D01*
X119943797Y-89956682D01*
X119915225Y-89899540D01*
X119858082Y-89870968D01*
X119772368Y-89870968D01*
X119715225Y-89899540D01*
X119200940Y-90242397D02*
X119258082Y-90270968D01*
X119372368Y-90270968D01*
X119429511Y-90242397D01*
X119458082Y-90185254D01*
X119458082Y-89956682D01*
X119429511Y-89899540D01*
X119372368Y-89870968D01*
X119258082Y-89870968D01*
X119200940Y-89899540D01*
X119172368Y-89956682D01*
X119172368Y-90013825D01*
X119458082Y-90070968D01*
X118800940Y-89670968D02*
X118743797Y-89670968D01*
X118686654Y-89699540D01*
X118658082Y-89728111D01*
X118629511Y-89785254D01*
X118600940Y-89899540D01*
X118600940Y-90042397D01*
X118629511Y-90156682D01*
X118658082Y-90213825D01*
X118686654Y-90242397D01*
X118743797Y-90270968D01*
X118800940Y-90270968D01*
X118858082Y-90242397D01*
X118886654Y-90213825D01*
X118915225Y-90156682D01*
X118943797Y-90042397D01*
X118943797Y-89899540D01*
X118915225Y-89785254D01*
X118886654Y-89728111D01*
X118858082Y-89699540D01*
X118800940Y-89670968D01*
X118000940Y-90270968D02*
X118200940Y-89985254D01*
X118343797Y-90270968D02*
X118343797Y-89670968D01*
X118115225Y-89670968D01*
X118058082Y-89699540D01*
X118029511Y-89728111D01*
X118000940Y-89785254D01*
X118000940Y-89870968D01*
X118029511Y-89928111D01*
X118058082Y-89956682D01*
X118115225Y-89985254D01*
X118343797Y-89985254D01*
X116300000Y-92271428D02*
X116585714Y-92271428D01*
X116585714Y-91671428D01*
X116128571Y-91728571D02*
X116100000Y-91700000D01*
X116042857Y-91671428D01*
X115900000Y-91671428D01*
X115842857Y-91700000D01*
X115814285Y-91728571D01*
X115785714Y-91785714D01*
X115785714Y-91842857D01*
X115814285Y-91928571D01*
X116157142Y-92271428D01*
X115785714Y-92271428D01*
D15*
X115935214Y-90790928D02*
X115917071Y-90796976D01*
X115911023Y-90803023D01*
X115904976Y-90815119D01*
X115904976Y-90833261D01*
X115911023Y-90845357D01*
X115917071Y-90851404D01*
X115929166Y-90857452D01*
X115977547Y-90857452D01*
X115977547Y-90730452D01*
X115935214Y-90730452D01*
X115923119Y-90736500D01*
X115917071Y-90742547D01*
X115911023Y-90754642D01*
X115911023Y-90766738D01*
X115917071Y-90778833D01*
X115923119Y-90784880D01*
X115935214Y-90790928D01*
X115977547Y-90790928D01*
X115790071Y-90857452D02*
X115850547Y-90857452D01*
X115850547Y-90730452D01*
X115747738Y-90857452D02*
X115747738Y-90730452D01*
X115705404Y-90821166D01*
X115663071Y-90730452D01*
X115663071Y-90857452D01*
X115536071Y-90857452D02*
X115608642Y-90857452D01*
X115572357Y-90857452D02*
X115572357Y-90730452D01*
X115584452Y-90748595D01*
X115596547Y-90760690D01*
X115608642Y-90766738D01*
X115421166Y-90730452D02*
X115481642Y-90730452D01*
X115487690Y-90790928D01*
X115481642Y-90784880D01*
X115469547Y-90778833D01*
X115439309Y-90778833D01*
X115427214Y-90784880D01*
X115421166Y-90790928D01*
X115415119Y-90803023D01*
X115415119Y-90833261D01*
X115421166Y-90845357D01*
X115427214Y-90851404D01*
X115439309Y-90857452D01*
X115469547Y-90857452D01*
X115481642Y-90851404D01*
X115487690Y-90845357D01*
X115366738Y-90821166D02*
X115306261Y-90821166D01*
X115378833Y-90857452D02*
X115336500Y-90730452D01*
X115294166Y-90857452D01*
X115185309Y-90736500D02*
X115197404Y-90730452D01*
X115215547Y-90730452D01*
X115233690Y-90736500D01*
X115245785Y-90748595D01*
X115251833Y-90760690D01*
X115257880Y-90784880D01*
X115257880Y-90803023D01*
X115251833Y-90827214D01*
X115245785Y-90839309D01*
X115233690Y-90851404D01*
X115215547Y-90857452D01*
X115203452Y-90857452D01*
X115185309Y-90851404D01*
X115179261Y-90845357D01*
X115179261Y-90803023D01*
X115203452Y-90803023D01*
X115058309Y-90857452D02*
X115130880Y-90857452D01*
X115094595Y-90857452D02*
X115094595Y-90730452D01*
X115106690Y-90748595D01*
X115118785Y-90760690D01*
X115130880Y-90766738D01*
X114979690Y-90730452D02*
X114967595Y-90730452D01*
X114955500Y-90736500D01*
X114949452Y-90742547D01*
X114943404Y-90754642D01*
X114937357Y-90778833D01*
X114937357Y-90809071D01*
X114943404Y-90833261D01*
X114949452Y-90845357D01*
X114955500Y-90851404D01*
X114967595Y-90857452D01*
X114979690Y-90857452D01*
X114991785Y-90851404D01*
X114997833Y-90845357D01*
X115003880Y-90833261D01*
X115009928Y-90809071D01*
X115009928Y-90778833D01*
X115003880Y-90754642D01*
X114997833Y-90742547D01*
X114991785Y-90736500D01*
X114979690Y-90730452D01*
X114888976Y-90742547D02*
X114882928Y-90736500D01*
X114870833Y-90730452D01*
X114840595Y-90730452D01*
X114828500Y-90736500D01*
X114822452Y-90742547D01*
X114816404Y-90754642D01*
X114816404Y-90766738D01*
X114822452Y-90784880D01*
X114895023Y-90857452D01*
X114816404Y-90857452D01*
D12*
X120965857Y-95596428D02*
X120965857Y-94996428D01*
X120823000Y-94996428D01*
X120737285Y-95025000D01*
X120680142Y-95082142D01*
X120651571Y-95139285D01*
X120623000Y-95253571D01*
X120623000Y-95339285D01*
X120651571Y-95453571D01*
X120680142Y-95510714D01*
X120737285Y-95567857D01*
X120823000Y-95596428D01*
X120965857Y-95596428D01*
X120051571Y-95596428D02*
X120394428Y-95596428D01*
X120223000Y-95596428D02*
X120223000Y-94996428D01*
X120280142Y-95082142D01*
X120337285Y-95139285D01*
X120394428Y-95167857D01*
X123677714Y-95596428D02*
X123963428Y-95596428D01*
X123963428Y-94996428D01*
X123477714Y-95282142D02*
X123277714Y-95282142D01*
X123192000Y-95596428D02*
X123477714Y-95596428D01*
X123477714Y-94996428D01*
X123192000Y-94996428D01*
X122934857Y-95596428D02*
X122934857Y-94996428D01*
X122792000Y-94996428D01*
X122706285Y-95025000D01*
X122649142Y-95082142D01*
X122620571Y-95139285D01*
X122592000Y-95253571D01*
X122592000Y-95339285D01*
X122620571Y-95453571D01*
X122649142Y-95510714D01*
X122706285Y-95567857D01*
X122792000Y-95596428D01*
X122934857Y-95596428D01*
X110842857Y-74046428D02*
X110842857Y-73446428D01*
X110700000Y-73446428D01*
X110614285Y-73475000D01*
X110557142Y-73532142D01*
X110528571Y-73589285D01*
X110500000Y-73703571D01*
X110500000Y-73789285D01*
X110528571Y-73903571D01*
X110557142Y-73960714D01*
X110614285Y-74017857D01*
X110700000Y-74046428D01*
X110842857Y-74046428D01*
X110271428Y-73503571D02*
X110242857Y-73475000D01*
X110185714Y-73446428D01*
X110042857Y-73446428D01*
X109985714Y-73475000D01*
X109957142Y-73503571D01*
X109928571Y-73560714D01*
X109928571Y-73617857D01*
X109957142Y-73703571D01*
X110300000Y-74046428D01*
X109928571Y-74046428D01*
X113085714Y-74121428D02*
X113371428Y-74121428D01*
X113371428Y-73521428D01*
X112885714Y-73807142D02*
X112685714Y-73807142D01*
X112600000Y-74121428D02*
X112885714Y-74121428D01*
X112885714Y-73521428D01*
X112600000Y-73521428D01*
X112342857Y-74121428D02*
X112342857Y-73521428D01*
X112200000Y-73521428D01*
X112114285Y-73550000D01*
X112057142Y-73607142D01*
X112028571Y-73664285D01*
X112000000Y-73778571D01*
X112000000Y-73864285D01*
X112028571Y-73978571D01*
X112057142Y-74035714D01*
X112114285Y-74092857D01*
X112200000Y-74121428D01*
X112342857Y-74121428D01*
X134928714Y-88223285D02*
X134957285Y-88251857D01*
X135043000Y-88280428D01*
X135100142Y-88280428D01*
X135185857Y-88251857D01*
X135243000Y-88194714D01*
X135271571Y-88137571D01*
X135300142Y-88023285D01*
X135300142Y-87937571D01*
X135271571Y-87823285D01*
X135243000Y-87766142D01*
X135185857Y-87709000D01*
X135100142Y-87680428D01*
X135043000Y-87680428D01*
X134957285Y-87709000D01*
X134928714Y-87737571D01*
X134414428Y-87680428D02*
X134528714Y-87680428D01*
X134585857Y-87709000D01*
X134614428Y-87737571D01*
X134671571Y-87823285D01*
X134700142Y-87937571D01*
X134700142Y-88166142D01*
X134671571Y-88223285D01*
X134643000Y-88251857D01*
X134585857Y-88280428D01*
X134471571Y-88280428D01*
X134414428Y-88251857D01*
X134385857Y-88223285D01*
X134357285Y-88166142D01*
X134357285Y-88023285D01*
X134385857Y-87966142D01*
X134414428Y-87937571D01*
X134471571Y-87909000D01*
X134585857Y-87909000D01*
X134643000Y-87937571D01*
X134671571Y-87966142D01*
X134700142Y-88023285D01*
X134157285Y-87680428D02*
X133757285Y-87680428D01*
X134014428Y-88280428D01*
X136328571Y-88385714D02*
X136328571Y-88728571D01*
X136328571Y-88557142D02*
X136928571Y-88557142D01*
X136842857Y-88614285D01*
X136785714Y-88671428D01*
X136757142Y-88728571D01*
X136928571Y-88014285D02*
X136928571Y-87957142D01*
X136900000Y-87900000D01*
X136871428Y-87871428D01*
X136814285Y-87842857D01*
X136700000Y-87814285D01*
X136557142Y-87814285D01*
X136442857Y-87842857D01*
X136385714Y-87871428D01*
X136357142Y-87900000D01*
X136328571Y-87957142D01*
X136328571Y-88014285D01*
X136357142Y-88071428D01*
X136385714Y-88100000D01*
X136442857Y-88128571D01*
X136557142Y-88157142D01*
X136700000Y-88157142D01*
X136814285Y-88128571D01*
X136871428Y-88100000D01*
X136900000Y-88071428D01*
X136928571Y-88014285D01*
X136728571Y-87300000D02*
X136328571Y-87300000D01*
X136728571Y-87557142D02*
X136414285Y-87557142D01*
X136357142Y-87528571D01*
X136328571Y-87471428D01*
X136328571Y-87385714D01*
X136357142Y-87328571D01*
X136385714Y-87300000D01*
M02*
