G04 #@! TF.GenerationSoftware,KiCad,Pcbnew,(2017-02-02 revision 8dadc18)-makepkg*
G04 #@! TF.CreationDate,2017-11-18T17:45:44+03:00*
G04 #@! TF.ProjectId,BmstuAnchor,426D737475416E63686F722E6B696361,rev?*
G04 #@! TF.FileFunction,Copper,L1,Top,Signal*
G04 #@! TF.FilePolarity,Positive*
%FSLAX46Y46*%
G04 Gerber Fmt 4.6, Leading zero omitted, Abs format (unit mm)*
G04 Created by KiCad (PCBNEW (2017-02-02 revision 8dadc18)-makepkg) date 11/18/17 17:45:44*
%MOMM*%
%LPD*%
G01*
G04 APERTURE LIST*
%ADD10C,0.100000*%
%ADD11C,1.000000*%
%ADD12C,2.000000*%
%ADD13C,0.200000*%
%ADD14R,0.600000X0.600000*%
%ADD15R,1.080000X1.000000*%
%ADD16R,0.889000X1.016000*%
%ADD17R,2.000000X2.700000*%
%ADD18R,1.600000X3.400000*%
%ADD19R,5.000000X5.000000*%
%ADD20C,5.000000*%
%ADD21R,1.800860X1.998980*%
%ADD22R,1.200000X0.270000*%
%ADD23O,1.200000X0.270000*%
%ADD24O,0.270000X1.200000*%
%ADD25C,1.000000*%
%ADD26R,0.914400X0.914400*%
%ADD27C,1.524000*%
%ADD28C,2.524000*%
%ADD29R,1.000000X13.000000*%
%ADD30R,1.016000X0.889000*%
%ADD31R,1.500000X1.500000*%
%ADD32C,1.500000*%
%ADD33R,3.000000X2.600000*%
%ADD34R,2.800000X3.600000*%
%ADD35R,1.600000X1.100000*%
%ADD36R,0.280000X1.000000*%
%ADD37O,0.280000X1.000000*%
%ADD38O,1.000000X0.280000*%
%ADD39R,0.800000X0.800000*%
%ADD40R,1.000000X1.400000*%
%ADD41R,0.600000X0.350000*%
%ADD42R,0.900000X1.000000*%
%ADD43R,1.000000X0.900000*%
%ADD44C,0.700000*%
%ADD45C,0.250000*%
%ADD46C,0.400000*%
%ADD47C,0.600000*%
G04 APERTURE END LIST*
D10*
D11*
X113653100Y-104185200D02*
X113653100Y-107285200D01*
X109653100Y-104185200D02*
X113653100Y-104185200D01*
X103653100Y-104185200D02*
X108653100Y-104185200D01*
X158653100Y-104185200D02*
X158653100Y-107285200D01*
X154153100Y-104185200D02*
X158653100Y-104185200D01*
X154153100Y-107285200D02*
X154153100Y-104185200D01*
X149653100Y-107285200D02*
X154153100Y-107285200D01*
X149653100Y-104185200D02*
X149653100Y-107285200D01*
X145153100Y-104185200D02*
X149653100Y-104185200D01*
X145153100Y-107285200D02*
X145153100Y-104185200D01*
X140653100Y-107285200D02*
X145153100Y-107285200D01*
X140653100Y-104185200D02*
X140653100Y-107285200D01*
X136153100Y-104185200D02*
X140653100Y-104185200D01*
X136153100Y-107285200D02*
X136153100Y-104185200D01*
X131653100Y-107285200D02*
X136153100Y-107285200D01*
X131653100Y-104185200D02*
X131653100Y-107185200D01*
X127153100Y-104185200D02*
X131653100Y-104185200D01*
X127153100Y-107185200D02*
X127153100Y-104185200D01*
X122653100Y-107285200D02*
X127153100Y-107285200D01*
X122653100Y-104185200D02*
X122653100Y-107285200D01*
X118153100Y-104185200D02*
X122653100Y-104185200D01*
X118153100Y-107285200D02*
X118153100Y-104185200D01*
X113653100Y-107285200D02*
X118153100Y-107285200D01*
D12*
X109153100Y-116985200D02*
X109153100Y-104685200D01*
D13*
X103253100Y-103785200D02*
X103253100Y-104285200D01*
X103753100Y-103785200D02*
X103253100Y-103785200D01*
X113353100Y-103785200D02*
X103753100Y-103785200D01*
X114053100Y-103785200D02*
X113353100Y-103785200D01*
X114053100Y-104685200D02*
X114053100Y-103785200D01*
X113253100Y-107685200D02*
X113253100Y-107085200D01*
X113753100Y-107685200D02*
X113253100Y-107685200D01*
X117953100Y-107685200D02*
X113753100Y-107685200D01*
X118553100Y-107685200D02*
X117953100Y-107685200D01*
X118553100Y-107185200D02*
X118553100Y-107685200D01*
X117753100Y-103785200D02*
X117753100Y-104285200D01*
X118253100Y-103785200D02*
X117753100Y-103785200D01*
X122053100Y-103785200D02*
X118253100Y-103785200D01*
X123053100Y-103785200D02*
X122053100Y-103785200D01*
X123053100Y-104885200D02*
X123053100Y-103785200D01*
X122253100Y-107085200D02*
X123053100Y-104885200D01*
X122253100Y-107685200D02*
X122253100Y-107085200D01*
X123253100Y-107685200D02*
X122253100Y-107685200D01*
X126653100Y-107685200D02*
X123253100Y-107685200D01*
X127553100Y-107685200D02*
X126653100Y-107685200D01*
X127553100Y-107185200D02*
X127553100Y-107685200D01*
X126753100Y-104285200D02*
X127553100Y-107185200D01*
X126753100Y-103785200D02*
X126753100Y-104285200D01*
X127453100Y-103785200D02*
X126753100Y-103785200D01*
X131253100Y-103785200D02*
X127453100Y-103785200D01*
X132053100Y-103785200D02*
X131253100Y-103785200D01*
X132053100Y-104685200D02*
X132053100Y-103785200D01*
X131253100Y-107685200D02*
X131253100Y-107085200D01*
X132253100Y-107685200D02*
X131253100Y-107685200D01*
X136553100Y-107685200D02*
X135253100Y-107685200D01*
X136553100Y-106785200D02*
X136553100Y-107685200D01*
X135753100Y-103785200D02*
X135753100Y-104685200D01*
X136253100Y-103785200D02*
X135753100Y-103785200D01*
X141053100Y-103785200D02*
X140353100Y-103785200D01*
X141053100Y-104885200D02*
X141053100Y-103785200D01*
X140253100Y-107185200D02*
X141053100Y-104885200D01*
X140253100Y-107685200D02*
X140253100Y-107185200D01*
X140853100Y-107685200D02*
X140253100Y-107685200D01*
X145553100Y-107685200D02*
X144553100Y-107685200D01*
X145553100Y-106185200D02*
X145553100Y-107685200D01*
X144753100Y-103785200D02*
X144753100Y-104585200D01*
X149353100Y-103785200D02*
X144753100Y-103785200D01*
X150053100Y-103785200D02*
X149353100Y-103785200D01*
X150053100Y-104385200D02*
X150053100Y-103785200D01*
X149253100Y-107685200D02*
X149253100Y-106885200D01*
X149953100Y-107685200D02*
X149253100Y-107685200D01*
X153653100Y-107685200D02*
X149953100Y-107685200D01*
X154553100Y-107685200D02*
X153653100Y-107685200D01*
X154553100Y-106685200D02*
X154553100Y-107685200D01*
X153753100Y-104685200D02*
X154553100Y-106685200D01*
X153753100Y-103785200D02*
X153753100Y-104685200D01*
X159053100Y-103785200D02*
X153753100Y-103785200D01*
X159053100Y-104485200D02*
X159053100Y-103785200D01*
X158253100Y-107685200D02*
X158253100Y-107185200D01*
X159053100Y-107685200D02*
X158253100Y-107685200D01*
X159053100Y-107185200D02*
X159053100Y-107685200D01*
D14*
X109450700Y-117846100D03*
X109450700Y-118846100D03*
D15*
X122240000Y-130200000D03*
X123560000Y-130200000D03*
D16*
X154333800Y-130597500D03*
X155857800Y-130597500D03*
D17*
X152954000Y-133758000D03*
X156154000Y-133758000D03*
D18*
X146052000Y-140146000D03*
X141452000Y-140146000D03*
D19*
X142659600Y-146826400D03*
D20*
X150659600Y-146826400D03*
X150659600Y-146826400D03*
D19*
X142659600Y-146826400D03*
X142659600Y-146826400D03*
D20*
X150659600Y-146826400D03*
X150659600Y-146826400D03*
D19*
X142659600Y-146826400D03*
D21*
X153565000Y-141760000D03*
X153565000Y-137950000D03*
X150129000Y-137874000D03*
X150129000Y-141684000D03*
D22*
X118050000Y-146950000D03*
D23*
X118050000Y-146450000D03*
X118050000Y-145950000D03*
X118050000Y-145450000D03*
X118050000Y-144950000D03*
X118050000Y-144450000D03*
X118050000Y-143950000D03*
X118050000Y-143450000D03*
X118050000Y-142950000D03*
X118050000Y-142450000D03*
X118050000Y-141950000D03*
X118050000Y-141450000D03*
D24*
X116550000Y-139950000D03*
X116050000Y-139950000D03*
X115550000Y-139950000D03*
X115050000Y-139950000D03*
X114550000Y-139950000D03*
X114050000Y-139950000D03*
X113550000Y-139950000D03*
X113050000Y-139950000D03*
X112550000Y-139950000D03*
X112050000Y-139950000D03*
X111550000Y-139950000D03*
X111050000Y-139950000D03*
D23*
X109550000Y-141450000D03*
X109550000Y-141950000D03*
X109550000Y-142450000D03*
X109550000Y-142950000D03*
X109550000Y-143450000D03*
X109550000Y-143950000D03*
X109550000Y-144450000D03*
X109550000Y-144950000D03*
X109550000Y-145450000D03*
X109550000Y-145950000D03*
X109550000Y-146450000D03*
X109550000Y-146950000D03*
D24*
X111050000Y-148450000D03*
X111550000Y-148450000D03*
X112050000Y-148450000D03*
X112550000Y-148450000D03*
X113050000Y-148450000D03*
X113550000Y-148450000D03*
X114050000Y-148450000D03*
X114550000Y-148450000D03*
X115050000Y-148450000D03*
X115550000Y-148450000D03*
X116050000Y-148450000D03*
X116550000Y-148450000D03*
D25*
X128300000Y-145300000D03*
D26*
X157924300Y-138808100D03*
X157924300Y-140586100D03*
X155892300Y-139697100D03*
D27*
X103653100Y-116985200D03*
D28*
X109153100Y-116985200D03*
D29*
X103653100Y-110185200D03*
D14*
X111770000Y-121134000D03*
X110770000Y-121134000D03*
X108214000Y-120118000D03*
X107214000Y-120118000D03*
D16*
X106001000Y-123526000D03*
X104477000Y-123526000D03*
X113762000Y-123250000D03*
X112238000Y-123250000D03*
D30*
X114470000Y-127108000D03*
X114470000Y-128632000D03*
X108000000Y-134362000D03*
X108000000Y-132838000D03*
D16*
X105862000Y-128100000D03*
X104338000Y-128100000D03*
X154171300Y-125147800D03*
X155695300Y-125147800D03*
D30*
X107814000Y-121714000D03*
X107814000Y-123238000D03*
X109600000Y-132838000D03*
X109600000Y-134362000D03*
D16*
X118042000Y-124170000D03*
X116518000Y-124170000D03*
X118042000Y-131370000D03*
X116518000Y-131370000D03*
X125162000Y-145500000D03*
X123638000Y-145500000D03*
X123638000Y-147100000D03*
X125162000Y-147100000D03*
X117838000Y-149800000D03*
X119362000Y-149800000D03*
D30*
X121300000Y-146438000D03*
X121300000Y-147962000D03*
D16*
X125181100Y-143923600D03*
X123657100Y-143923600D03*
D30*
X109600000Y-138362000D03*
X109600000Y-136838000D03*
D31*
X104500000Y-145780100D03*
D32*
X104500000Y-143240100D03*
X104500000Y-140700100D03*
X104500000Y-138160100D03*
X104500000Y-135620100D03*
X104500000Y-133080100D03*
D14*
X109492000Y-121126000D03*
X109492000Y-120126000D03*
X128038500Y-140378500D03*
X128038500Y-141378500D03*
D33*
X149979000Y-127303000D03*
D34*
X128679000Y-127303000D03*
D35*
X119900000Y-138500000D03*
X119900000Y-136900000D03*
X119900000Y-135300000D03*
X124900000Y-138500000D03*
X124900000Y-136900000D03*
X124900000Y-135300000D03*
D36*
X108740000Y-129800000D03*
D37*
X109240000Y-129800000D03*
X109740000Y-129800000D03*
X110240000Y-129800000D03*
X110740000Y-129800000D03*
D38*
X111690000Y-128850000D03*
X111690000Y-128350000D03*
X111690000Y-127850000D03*
X111690000Y-127350000D03*
X111690000Y-126850000D03*
D37*
X110740000Y-125900000D03*
X110240000Y-125900000D03*
X109740000Y-125900000D03*
X109240000Y-125900000D03*
X108740000Y-125900000D03*
D38*
X107790000Y-126850000D03*
X107790000Y-127350000D03*
X107790000Y-127850000D03*
X107790000Y-128350000D03*
X107790000Y-128850000D03*
D39*
X109740000Y-127850000D03*
X109740000Y-127050000D03*
X108940000Y-127850000D03*
X108940000Y-127050000D03*
X108940000Y-128650000D03*
X109740000Y-128650000D03*
X110540000Y-128650000D03*
X110540000Y-127850000D03*
X110540000Y-127050000D03*
D40*
X118080000Y-128870000D03*
X118080000Y-126670000D03*
X116480000Y-126670000D03*
X116480000Y-128870000D03*
D41*
X109340000Y-122300000D03*
X109340000Y-122950000D03*
X109340000Y-123600000D03*
X110740000Y-123600000D03*
X110740000Y-122950000D03*
X110740000Y-122300000D03*
D42*
X116150000Y-137700000D03*
X114650000Y-137700000D03*
X114650000Y-136100000D03*
X116150000Y-136100000D03*
X116150000Y-134500000D03*
X114650000Y-134500000D03*
D43*
X111200000Y-134350000D03*
X111200000Y-132850000D03*
D42*
X105850000Y-126400000D03*
X104350000Y-126400000D03*
D26*
X156053100Y-127160500D03*
X156053100Y-128938500D03*
X154021100Y-128049500D03*
D44*
X118700000Y-117400000D03*
X122400000Y-125800000D03*
X125200000Y-122800000D03*
X121100000Y-122600000D03*
X118700000Y-120300000D03*
X114600000Y-120300000D03*
X114600000Y-117400000D03*
X156800000Y-122200000D03*
X153400000Y-122200000D03*
X152200000Y-120900000D03*
X152200000Y-118300000D03*
X152200000Y-115500000D03*
X147200000Y-115500000D03*
X140900000Y-115500000D03*
X133800000Y-115500000D03*
X129300000Y-115500000D03*
X119900000Y-115500000D03*
X116700000Y-115500000D03*
X112700000Y-115500000D03*
X112200000Y-145300000D03*
X112200000Y-142800000D03*
X128900000Y-137100000D03*
X128989193Y-133961693D03*
X127000000Y-131900000D03*
X130300000Y-131900000D03*
X146000000Y-134700000D03*
X141300000Y-134900000D03*
X136900000Y-134800000D03*
X132200000Y-134900000D03*
X135000000Y-131900000D03*
X139100000Y-131900000D03*
X143900000Y-131900000D03*
X148300000Y-131900000D03*
X145700000Y-129200000D03*
X141200000Y-129200000D03*
X136600000Y-129300000D03*
X132500000Y-129200000D03*
X128700000Y-122000000D03*
X150200000Y-122000000D03*
X144400000Y-121900000D03*
X138700000Y-121900000D03*
X133200000Y-122000000D03*
X120500000Y-140800000D03*
X123500000Y-140800000D03*
X108300000Y-149100000D03*
X128400000Y-149800000D03*
X123600000Y-149800000D03*
X125900000Y-149700000D03*
X127400000Y-148400000D03*
X129400000Y-148400000D03*
X128700000Y-117700000D03*
X150000000Y-117700000D03*
X147600000Y-117700000D03*
X136500000Y-117700000D03*
X131600000Y-117700000D03*
X110663800Y-138839400D03*
X121756800Y-142805900D03*
X106867700Y-146914100D03*
X117235100Y-148550700D03*
X116648400Y-142209500D03*
X114412700Y-141966600D03*
X118224600Y-139903100D03*
X111943100Y-129540100D03*
X113571800Y-136240200D03*
X113998300Y-145731600D03*
X104400000Y-121300000D03*
X105900000Y-115300000D03*
X104400000Y-115300000D03*
X104400000Y-116800000D03*
X105900000Y-116800000D03*
X105900000Y-118300000D03*
X104400000Y-118400000D03*
X104400000Y-119900000D03*
X105897310Y-119888276D03*
X105900000Y-121300000D03*
X111350200Y-141521500D03*
X108560700Y-137529300D03*
X125606600Y-139921200D03*
X126156600Y-147382800D03*
X120241900Y-147736100D03*
X116840400Y-149652200D03*
X125710300Y-142865500D03*
X107524900Y-130311300D03*
X113801100Y-141150800D03*
X109351300Y-130928400D03*
X115002800Y-138812800D03*
X108380500Y-130870100D03*
X115096600Y-141194700D03*
X116653000Y-141200200D03*
X112720000Y-135032500D03*
X113405900Y-126767500D03*
X112928400Y-125071000D03*
X106995600Y-124150300D03*
X105606200Y-129158100D03*
X110354900Y-130871700D03*
X123321500Y-131770000D03*
X127336300Y-139116800D03*
X113538600Y-133806700D03*
X118001900Y-133028200D03*
X119268800Y-144078000D03*
X126483500Y-145058300D03*
D45*
X116700000Y-115500000D02*
X116500000Y-115500000D01*
X118700000Y-122100000D02*
X118700000Y-117400000D01*
X122400000Y-125800000D02*
X118700000Y-122100000D01*
X121300000Y-122800000D02*
X125200000Y-122800000D01*
X121100000Y-122600000D02*
X121300000Y-122800000D01*
X114600000Y-120300000D02*
X118700000Y-120300000D01*
X116500000Y-115500000D02*
X114600000Y-117400000D01*
X153400000Y-122100000D02*
X153400000Y-122200000D01*
X152200000Y-120900000D02*
X153400000Y-122100000D01*
X152200000Y-115500000D02*
X152200000Y-118300000D01*
X140900000Y-115500000D02*
X147200000Y-115500000D01*
X129300000Y-115500000D02*
X133800000Y-115500000D01*
X116700000Y-115500000D02*
X119900000Y-115500000D01*
X112200000Y-142800000D02*
X112200000Y-145300000D01*
X135000000Y-131900000D02*
X130300000Y-131900000D01*
X128989193Y-133889193D02*
X128989193Y-133961693D01*
X127000000Y-131900000D02*
X128989193Y-133889193D01*
X132500000Y-129300000D02*
X132500000Y-129200000D01*
X137000000Y-134900000D02*
X141300000Y-134900000D01*
X136900000Y-134800000D02*
X137000000Y-134900000D01*
X132200000Y-134700000D02*
X132200000Y-134900000D01*
X135000000Y-131900000D02*
X132200000Y-134700000D01*
X143900000Y-131900000D02*
X139100000Y-131900000D01*
X148300000Y-131800000D02*
X148300000Y-131900000D01*
X145700000Y-129200000D02*
X148300000Y-131800000D01*
X136700000Y-129200000D02*
X141200000Y-129200000D01*
X136600000Y-129300000D02*
X136700000Y-129200000D01*
X138700000Y-121900000D02*
X144400000Y-121900000D01*
X133200000Y-122000000D02*
X128700000Y-122000000D01*
X120500000Y-140800000D02*
X123500000Y-140800000D01*
X129500000Y-148500000D02*
X129400000Y-148400000D01*
X123600000Y-149800000D02*
X128400000Y-149800000D01*
X126100000Y-149700000D02*
X125900000Y-149700000D01*
X127400000Y-148400000D02*
X126100000Y-149700000D01*
X136500000Y-117700000D02*
X147600000Y-117700000D01*
X131600000Y-117700000D02*
X128700000Y-117700000D01*
X121984100Y-148831600D02*
X119680500Y-148966900D01*
X123245300Y-147733000D02*
X121984100Y-148831600D01*
X123318500Y-147659800D02*
X123245300Y-147733000D01*
X123318500Y-147608000D02*
X123318500Y-147659800D01*
X123318500Y-147483000D02*
X123318500Y-147608000D01*
X123638000Y-147100000D02*
X123318500Y-147483000D01*
X116550000Y-148550700D02*
X116550000Y-148450000D01*
X117235100Y-148550700D02*
X116550000Y-148550700D01*
X118525000Y-146940000D02*
X118050000Y-146950000D01*
X118650000Y-146940000D02*
X118525000Y-146940000D01*
X118701800Y-146940000D02*
X118650000Y-146940000D01*
X120740200Y-146757500D02*
X118701800Y-146940000D01*
X120792000Y-146757500D02*
X120740200Y-146757500D01*
X120917000Y-146757500D02*
X120792000Y-146757500D01*
X121300000Y-146438000D02*
X120917000Y-146757500D01*
X119680500Y-149292000D02*
X119680500Y-148966900D01*
X119680500Y-149417000D02*
X119680500Y-149292000D01*
X119362000Y-149800000D02*
X119680500Y-149417000D01*
X127863500Y-141553500D02*
X128038500Y-141378500D01*
X127738500Y-141553500D02*
X127863500Y-141553500D01*
X127686700Y-141553500D02*
X127738500Y-141553500D01*
X125389200Y-142090400D02*
X127686700Y-141553500D01*
X124049800Y-143290600D02*
X125389200Y-142090400D01*
X123976600Y-143363800D02*
X124049800Y-143290600D01*
X123976600Y-143415600D02*
X123976600Y-143363800D01*
X123976600Y-143540600D02*
X123976600Y-143415600D01*
X123657100Y-143923600D02*
X123976600Y-143540600D01*
X111050000Y-139520300D02*
X111050000Y-139950000D01*
X110381800Y-139520300D02*
X111050000Y-139520300D01*
X109982900Y-139121400D02*
X110381800Y-139520300D01*
X109982900Y-138806500D02*
X109982900Y-139121400D01*
X109982900Y-138681500D02*
X109982900Y-138806500D01*
X109600000Y-138362000D02*
X109982900Y-138681500D01*
X116648400Y-142209500D02*
X114412700Y-141966600D01*
X121683000Y-146757500D02*
X121300000Y-146438000D01*
X121808000Y-146757500D02*
X121683000Y-146757500D01*
X123193500Y-146757500D02*
X121808000Y-146757500D01*
X123318500Y-146757500D02*
X123193500Y-146757500D01*
X123638000Y-147100000D02*
X123318500Y-146757500D01*
X118515000Y-142950000D02*
X118050000Y-142950000D01*
X118722100Y-142950000D02*
X118515000Y-142950000D01*
X119589900Y-143302900D02*
X118722100Y-142950000D01*
X123141700Y-145117100D02*
X119589900Y-143302900D01*
X123193500Y-145117100D02*
X123141700Y-145117100D01*
X123318500Y-145117100D02*
X123193500Y-145117100D01*
X123638000Y-145500000D02*
X123318500Y-145117100D01*
X123647500Y-145117000D02*
X123638000Y-145500000D01*
X123647500Y-144992000D02*
X123647500Y-145117000D01*
X123647500Y-144431600D02*
X123647500Y-144992000D01*
X123647500Y-144306600D02*
X123647500Y-144431600D01*
X123657100Y-143923600D02*
X123647500Y-144306600D01*
X119218600Y-148866900D02*
X117235100Y-148550700D01*
X119680500Y-148966900D02*
X119218600Y-148866900D01*
X123638000Y-146717000D02*
X123638000Y-147100000D01*
X123638000Y-146592000D02*
X123638000Y-146717000D01*
X123638000Y-146008000D02*
X123638000Y-146592000D01*
X123638000Y-145883000D02*
X123638000Y-146008000D01*
X123638000Y-145500000D02*
X123638000Y-145883000D01*
X105198200Y-146655100D02*
X106867700Y-146914100D01*
X105125000Y-146581900D02*
X105198200Y-146655100D01*
X105125000Y-146530100D02*
X105125000Y-146581900D01*
X105125000Y-146405100D02*
X105125000Y-146530100D01*
X104500000Y-145780100D02*
X105125000Y-146405100D01*
X110159800Y-138681500D02*
X110663800Y-138839400D01*
X110108000Y-138681500D02*
X110159800Y-138681500D01*
X109983000Y-138681500D02*
X110108000Y-138681500D01*
X109600000Y-138362000D02*
X109983000Y-138681500D01*
X123657100Y-143923600D02*
X121756800Y-142805900D01*
X111943100Y-128850000D02*
X111943100Y-129540100D01*
X111690000Y-128850000D02*
X111943100Y-128850000D01*
X118515000Y-141950000D02*
X118050000Y-141950000D01*
X118722100Y-141950000D02*
X118515000Y-141950000D01*
X119015000Y-141657100D02*
X118722100Y-141950000D01*
X119015000Y-141242900D02*
X119015000Y-141657100D01*
X118224600Y-139903100D02*
X119015000Y-141242900D01*
X113050000Y-147985000D02*
X113050000Y-148450000D01*
X113050000Y-147777900D02*
X113050000Y-147985000D01*
X113998300Y-145731600D02*
X113050000Y-147777900D01*
X113808900Y-135563000D02*
X113571800Y-136240200D01*
X113865000Y-135506800D02*
X113808900Y-135563000D01*
X113865000Y-135461200D02*
X113865000Y-135506800D01*
X114075000Y-134948200D02*
X113865000Y-135461200D01*
X114148200Y-134875000D02*
X114075000Y-134948200D01*
X114200000Y-134875000D02*
X114148200Y-134875000D01*
X114325000Y-134875000D02*
X114200000Y-134875000D01*
X114650000Y-134500000D02*
X114325000Y-134875000D01*
X109085000Y-145950000D02*
X109550000Y-145950000D01*
X108877900Y-145950000D02*
X109085000Y-145950000D01*
X108585000Y-145657100D02*
X108877900Y-145950000D01*
X105675100Y-140213400D02*
X108585000Y-145657100D01*
X104500000Y-138160100D02*
X105675100Y-140213400D01*
X108853000Y-147510100D02*
X104500000Y-143240100D01*
X111050000Y-147985000D02*
X108853000Y-147510100D01*
X111050000Y-148450000D02*
X111050000Y-147985000D01*
X105900000Y-115400000D02*
X105900000Y-115300000D01*
X104400000Y-116800000D02*
X104400000Y-115300000D01*
X105900000Y-118300000D02*
X105900000Y-116800000D01*
X104400000Y-119900000D02*
X104400000Y-118400000D01*
X105897310Y-121297310D02*
X105897310Y-119888276D01*
X105900000Y-121300000D02*
X105897310Y-121297310D01*
X107430000Y-128350000D02*
X107790000Y-128350000D01*
X107222900Y-128350000D02*
X107430000Y-128350000D01*
X106930000Y-128642900D02*
X107222900Y-128350000D01*
X106381300Y-129479200D02*
X106930000Y-128642900D01*
X105900400Y-130003400D02*
X106381300Y-129479200D01*
D13*
X110540000Y-122950000D02*
X110740000Y-122950000D01*
X110440000Y-122950000D02*
X110540000Y-122950000D01*
X109640000Y-122950000D02*
X110440000Y-122950000D01*
X109540000Y-122950000D02*
X109640000Y-122950000D01*
X109340000Y-122950000D02*
X109540000Y-122950000D01*
D45*
X125500600Y-143540700D02*
X125181100Y-143923600D01*
X125625600Y-143540700D02*
X125500600Y-143540700D01*
X125677400Y-143540700D02*
X125625600Y-143540700D01*
X125750700Y-143467400D02*
X125677400Y-143540700D01*
X125750700Y-143363800D02*
X125750700Y-143467400D01*
X125750700Y-143312000D02*
X125750700Y-143363800D01*
X125710300Y-142865500D02*
X125750700Y-143312000D01*
D13*
X116499000Y-130962000D02*
X116518000Y-131370000D01*
X116499000Y-130862000D02*
X116499000Y-130962000D01*
X116499000Y-129570000D02*
X116499000Y-130862000D01*
X116499000Y-129470000D02*
X116499000Y-129570000D01*
X116480000Y-128870000D02*
X116499000Y-129470000D01*
X117697500Y-123762000D02*
X118042000Y-124170000D01*
X117697500Y-123662000D02*
X117697500Y-123762000D01*
X117697500Y-123620600D02*
X117697500Y-123662000D01*
X117638900Y-123562000D02*
X117697500Y-123620600D01*
X117128200Y-123261900D02*
X117638900Y-123562000D01*
X114206500Y-123261900D02*
X117128200Y-123261900D01*
X114106500Y-123261900D02*
X114206500Y-123261900D01*
X113762000Y-123250000D02*
X114106500Y-123261900D01*
X116862500Y-131778000D02*
X116518000Y-131370000D01*
X116862500Y-131878000D02*
X116862500Y-131778000D01*
X116862500Y-131919400D02*
X116862500Y-131878000D01*
X116921100Y-131978000D02*
X116862500Y-131919400D01*
X117431800Y-132278100D02*
X116921100Y-131978000D01*
X118320800Y-132278100D02*
X117431800Y-132278100D01*
X118652200Y-132278100D02*
X118320800Y-132278100D01*
X118886600Y-132043700D02*
X118652200Y-132278100D01*
X118980100Y-129735700D02*
X118886600Y-132043700D01*
X118980100Y-129404300D02*
X118980100Y-129735700D01*
X118980100Y-128004300D02*
X118980100Y-129404300D01*
X118705000Y-127318200D02*
X118980100Y-128004300D01*
X118631800Y-127245000D02*
X118705000Y-127318200D01*
X118580000Y-127245000D02*
X118631800Y-127245000D01*
X118480000Y-127245000D02*
X118580000Y-127245000D01*
X118080000Y-126670000D02*
X118480000Y-127245000D01*
D45*
X121825000Y-129825000D02*
X122240000Y-130200000D01*
X121825000Y-129700000D02*
X121825000Y-129825000D01*
X121825000Y-129648200D02*
X121825000Y-129700000D01*
X121751800Y-129575000D02*
X121825000Y-129648200D01*
X118963100Y-127245000D02*
X121751800Y-129575000D01*
X118580000Y-127245000D02*
X118963100Y-127245000D01*
X118455000Y-127245000D02*
X118580000Y-127245000D01*
X118080000Y-126670000D02*
X118455000Y-127245000D01*
X105285100Y-129933200D02*
X105900400Y-130003400D01*
X104831100Y-129479200D02*
X105285100Y-129933200D01*
X104657500Y-128659800D02*
X104831100Y-129479200D01*
X104657500Y-128608000D02*
X104657500Y-128659800D01*
X104657500Y-128483000D02*
X104657500Y-128608000D01*
X104338000Y-128100000D02*
X104657500Y-128483000D01*
D13*
X109140000Y-122875000D02*
X109340000Y-122950000D01*
X109040000Y-122875000D02*
X109140000Y-122875000D01*
X108974300Y-122875100D02*
X109040000Y-122875000D01*
X108888500Y-122840800D02*
X108974300Y-122875100D01*
X108674200Y-122626500D02*
X108888500Y-122840800D01*
X108422000Y-122117100D02*
X108674200Y-122626500D01*
X108363400Y-122058500D02*
X108422000Y-122117100D01*
X108322000Y-122058500D02*
X108363400Y-122058500D01*
X108222000Y-122058500D02*
X108322000Y-122058500D01*
X107814000Y-121714000D02*
X108222000Y-122058500D01*
D45*
X125171500Y-144306600D02*
X125181100Y-143923600D01*
X125171500Y-144431600D02*
X125171500Y-144306600D01*
X125171500Y-144992000D02*
X125171500Y-144431600D01*
X125171500Y-145117000D02*
X125171500Y-144992000D01*
X125162000Y-145500000D02*
X125171500Y-145117000D01*
X125575000Y-134875000D02*
X124900000Y-135300000D01*
X125700000Y-134875000D02*
X125575000Y-134875000D01*
X125751800Y-134875000D02*
X125700000Y-134875000D01*
X148427200Y-128478000D02*
X125751800Y-134875000D01*
X148479000Y-128478000D02*
X148427200Y-128478000D01*
X148604000Y-128478000D02*
X148479000Y-128478000D01*
X149979000Y-127303000D02*
X148604000Y-128478000D01*
D13*
X111570000Y-121334000D02*
X111770000Y-121134000D01*
X111570000Y-121434000D02*
X111570000Y-121334000D01*
X111570000Y-121475400D02*
X111570000Y-121434000D01*
X111511400Y-121534000D02*
X111570000Y-121475400D01*
X110998600Y-122025000D02*
X111511400Y-121534000D01*
X110940000Y-122083600D02*
X110998600Y-122025000D01*
X110940000Y-122125000D02*
X110940000Y-122083600D01*
X110940000Y-122225000D02*
X110940000Y-122125000D01*
X110740000Y-122300000D02*
X110940000Y-122225000D01*
X113417500Y-122842000D02*
X113762000Y-123250000D01*
X113417500Y-122742000D02*
X113417500Y-122842000D01*
X113417500Y-122700600D02*
X113417500Y-122742000D01*
X112170000Y-121392600D02*
X113417500Y-122700600D01*
X112111400Y-121334000D02*
X112170000Y-121392600D01*
X112070000Y-121334000D02*
X112111400Y-121334000D01*
X111970000Y-121334000D02*
X112070000Y-121334000D01*
X111770000Y-121134000D02*
X111970000Y-121334000D01*
D45*
X116050000Y-147985000D02*
X116050000Y-148450000D01*
X116050000Y-147777900D02*
X116050000Y-147985000D01*
X115757100Y-147485000D02*
X116050000Y-147777900D01*
X115607800Y-147407700D02*
X115757100Y-147485000D01*
X104344000Y-127717000D02*
X104338000Y-128100000D01*
X104344000Y-127592000D02*
X104344000Y-127717000D01*
X104344000Y-126900000D02*
X104344000Y-127592000D01*
X104344000Y-126775000D02*
X104344000Y-126900000D01*
X104350000Y-126400000D02*
X104344000Y-126775000D01*
X108383000Y-134362000D02*
X108000000Y-134362000D01*
X108508000Y-134362000D02*
X108383000Y-134362000D01*
X109092000Y-134362000D02*
X108508000Y-134362000D01*
X109217000Y-134362000D02*
X109092000Y-134362000D01*
X109600000Y-134362000D02*
X109217000Y-134362000D01*
D13*
X118061000Y-124578000D02*
X118042000Y-124170000D01*
X118061000Y-124678000D02*
X118061000Y-124578000D01*
X118061000Y-125970000D02*
X118061000Y-124678000D01*
X118061000Y-126070000D02*
X118061000Y-125970000D01*
X118080000Y-126670000D02*
X118061000Y-126070000D01*
D45*
X104157500Y-123143100D02*
X104477000Y-123526000D01*
X104032500Y-123143100D02*
X104157500Y-123143100D01*
X103980700Y-123143100D02*
X104032500Y-123143100D01*
X103907400Y-123069800D02*
X103980700Y-123143100D01*
X103907400Y-122966200D02*
X103907400Y-123069800D01*
X103907400Y-122845600D02*
X103907400Y-122966200D01*
X105586400Y-119878800D02*
X103907400Y-122845600D01*
D13*
X108150000Y-126850000D02*
X107790000Y-126850000D01*
X108540000Y-126850000D02*
X108150000Y-126850000D01*
X108640000Y-126850000D02*
X108540000Y-126850000D01*
X108940000Y-127050000D02*
X108640000Y-126850000D01*
D45*
X107617000Y-134042500D02*
X108000000Y-134362000D01*
X107492000Y-134042500D02*
X107617000Y-134042500D01*
X107440200Y-134042500D02*
X107492000Y-134042500D01*
X107367000Y-133969300D02*
X107440200Y-134042500D01*
X107066900Y-133458600D02*
X107367000Y-133969300D01*
X105900400Y-130003400D02*
X107066900Y-133458600D01*
X124900000Y-136475000D02*
X124900000Y-136900000D01*
X124900000Y-136350000D02*
X124900000Y-136475000D01*
X124900000Y-135850000D02*
X124900000Y-136350000D01*
X124900000Y-135725000D02*
X124900000Y-135850000D01*
X124900000Y-135300000D02*
X124900000Y-135725000D01*
X122546400Y-130575000D02*
X122240000Y-130200000D01*
X122546400Y-130700000D02*
X122546400Y-130575000D01*
X122546400Y-132091100D02*
X122546400Y-130700000D01*
X124225000Y-134698200D02*
X122546400Y-132091100D01*
X124225000Y-134750000D02*
X124225000Y-134698200D01*
X124225000Y-134875000D02*
X124225000Y-134750000D01*
X124900000Y-135300000D02*
X124225000Y-134875000D01*
X125575000Y-139101800D02*
X125606600Y-139921200D01*
X125575000Y-139050000D02*
X125575000Y-139101800D01*
X125575000Y-138925000D02*
X125575000Y-139050000D01*
X124900000Y-138500000D02*
X125575000Y-138925000D01*
X104413500Y-126025000D02*
X104350000Y-126400000D01*
X104413500Y-125900000D02*
X104413500Y-126025000D01*
X104413500Y-124034000D02*
X104413500Y-125900000D01*
X104413500Y-123909000D02*
X104413500Y-124034000D01*
X104477000Y-123526000D02*
X104413500Y-123909000D01*
X109217000Y-137157500D02*
X109600000Y-136838000D01*
X109092000Y-137157500D02*
X109217000Y-137157500D01*
X109040200Y-137157500D02*
X109092000Y-137157500D01*
X108560700Y-137529300D02*
X109040200Y-137157500D01*
X117585000Y-143450000D02*
X118050000Y-143450000D01*
X117377900Y-143450000D02*
X117585000Y-143450000D01*
X117085000Y-143742900D02*
X117377900Y-143450000D01*
X115607800Y-147407700D02*
X117085000Y-143742900D01*
X115318000Y-147424900D02*
X115607800Y-147407700D01*
X114842900Y-147485000D02*
X115318000Y-147424900D01*
X114550000Y-147777900D02*
X114842900Y-147485000D01*
X114550000Y-147985000D02*
X114550000Y-147777900D01*
X114550000Y-148450000D02*
X114550000Y-147985000D01*
X109600000Y-134681500D02*
X109600000Y-134362000D01*
X109600000Y-134806500D02*
X109600000Y-134681500D01*
X109600000Y-136393500D02*
X109600000Y-134806500D01*
X109600000Y-136518500D02*
X109600000Y-136393500D01*
X109600000Y-136838000D02*
X109600000Y-136518500D01*
D13*
X114878000Y-128751000D02*
X114470000Y-128632000D01*
X114978000Y-128751000D02*
X114878000Y-128751000D01*
X115980000Y-128751000D02*
X114978000Y-128751000D01*
X116080000Y-128751000D02*
X115980000Y-128751000D01*
X116480000Y-128870000D02*
X116080000Y-128751000D01*
D45*
X117393500Y-149652200D02*
X116840400Y-149652200D01*
X117518500Y-149652200D02*
X117393500Y-149652200D01*
X117838000Y-149800000D02*
X117518500Y-149652200D01*
D13*
X106872600Y-119918000D02*
X105586400Y-119878800D01*
X106914000Y-119918000D02*
X106872600Y-119918000D01*
X107014000Y-119918000D02*
X106914000Y-119918000D01*
X107214000Y-120118000D02*
X107014000Y-119918000D01*
D45*
X120917000Y-147736100D02*
X121300000Y-147962000D01*
X120792000Y-147736100D02*
X120917000Y-147736100D01*
X120241900Y-147736100D02*
X120792000Y-147736100D01*
D13*
X105586400Y-119878800D02*
X103653100Y-116985200D01*
X110740000Y-122375000D02*
X110740000Y-122300000D01*
X110740000Y-122475000D02*
X110740000Y-122375000D01*
X110740000Y-122775000D02*
X110740000Y-122475000D01*
X110740000Y-122875000D02*
X110740000Y-122775000D01*
X110740000Y-122950000D02*
X110740000Y-122875000D01*
D45*
X116342900Y-149415000D02*
X116840400Y-149652200D01*
X116050000Y-149122100D02*
X116342900Y-149415000D01*
X116050000Y-148915000D02*
X116050000Y-149122100D01*
X116050000Y-148450000D02*
X116050000Y-148915000D01*
D13*
X103653100Y-116585200D02*
X103653100Y-110185200D01*
X103653100Y-116685200D02*
X103653100Y-116585200D01*
X103653100Y-116985200D02*
X103653100Y-116685200D01*
X107414000Y-121369500D02*
X107814000Y-121714000D01*
X107414000Y-121269500D02*
X107414000Y-121369500D01*
X107414000Y-120418000D02*
X107414000Y-121269500D01*
X107414000Y-120318000D02*
X107414000Y-120418000D01*
X107214000Y-120118000D02*
X107414000Y-120318000D01*
D45*
X125162000Y-145883000D02*
X125162000Y-145500000D01*
X125162000Y-146008000D02*
X125162000Y-145883000D01*
X125162000Y-146592000D02*
X125162000Y-146008000D01*
X125162000Y-146717000D02*
X125162000Y-146592000D01*
X125162000Y-147100000D02*
X125162000Y-146717000D01*
X125481500Y-147382800D02*
X125162000Y-147100000D01*
X125606500Y-147382800D02*
X125481500Y-147382800D01*
X126156600Y-147382800D02*
X125606500Y-147382800D01*
X111550000Y-140415000D02*
X111550000Y-139950000D01*
X111550000Y-140622100D02*
X111550000Y-140415000D01*
X111350200Y-141521500D02*
X111550000Y-140622100D01*
X124900000Y-138075000D02*
X124900000Y-138500000D01*
X124900000Y-137950000D02*
X124900000Y-138075000D01*
X124900000Y-137450000D02*
X124900000Y-137950000D01*
X124900000Y-137325000D02*
X124900000Y-137450000D01*
X124900000Y-136900000D02*
X124900000Y-137325000D01*
X108150000Y-128350000D02*
X108541400Y-128383400D01*
D13*
X107524900Y-128850000D02*
X107790000Y-128850000D01*
X107524900Y-130311300D02*
X107524900Y-128850000D01*
D45*
X114550000Y-140415000D02*
X114550000Y-139950000D01*
X114550000Y-140622100D02*
X114550000Y-140415000D01*
X114257100Y-140915000D02*
X114550000Y-140622100D01*
X113801100Y-141150800D02*
X114257100Y-140915000D01*
X115050000Y-139277900D02*
X115002800Y-138812800D01*
X115050000Y-139485000D02*
X115050000Y-139277900D01*
X115050000Y-139950000D02*
X115050000Y-139485000D01*
D13*
X109240000Y-130160000D02*
X109240000Y-129800000D01*
X109240000Y-130367100D02*
X109240000Y-130160000D01*
X109351300Y-130928400D02*
X109240000Y-130367100D01*
X108700000Y-130200000D02*
X108740000Y-129800000D01*
X108700000Y-130300000D02*
X108700000Y-130200000D01*
X108700000Y-130341400D02*
X108700000Y-130300000D01*
X108380500Y-130870100D02*
X108700000Y-130341400D01*
D45*
X115550000Y-140415000D02*
X115550000Y-139950000D01*
X115550000Y-140622100D02*
X115550000Y-140415000D01*
X115096600Y-141194700D02*
X115550000Y-140622100D01*
X114050000Y-139485000D02*
X114050000Y-139950000D01*
X114050000Y-139277900D02*
X114050000Y-139485000D01*
X114325000Y-138251800D02*
X114050000Y-139277900D01*
X114325000Y-138200000D02*
X114325000Y-138251800D01*
X114325000Y-138075000D02*
X114325000Y-138200000D01*
X114650000Y-137700000D02*
X114325000Y-138075000D01*
X113550000Y-139485000D02*
X113550000Y-139950000D01*
X113550000Y-139070800D02*
X113550000Y-139485000D01*
X113774900Y-137148900D02*
X113550000Y-139070800D01*
X114023900Y-136899900D02*
X113774900Y-137148900D01*
X114251800Y-136725000D02*
X114023900Y-136899900D01*
X114325000Y-136651800D02*
X114251800Y-136725000D01*
X114325000Y-136600000D02*
X114325000Y-136651800D01*
X114325000Y-136475000D02*
X114325000Y-136600000D01*
X114650000Y-136100000D02*
X114325000Y-136475000D01*
X109085000Y-143950000D02*
X109550000Y-143950000D01*
X108877900Y-143950000D02*
X109085000Y-143950000D01*
X108585000Y-143657100D02*
X108877900Y-143950000D01*
X105675100Y-137673400D02*
X108585000Y-143657100D01*
X104500000Y-135620100D02*
X105675100Y-137673400D01*
X110015000Y-144450000D02*
X109550000Y-144450000D01*
X110222100Y-144450000D02*
X110015000Y-144450000D01*
X110515000Y-144157100D02*
X110222100Y-144450000D01*
X110575100Y-143682000D02*
X110515000Y-144157100D01*
X110575100Y-143218000D02*
X110575100Y-143682000D01*
X110575100Y-141218000D02*
X110575100Y-143218000D01*
X108666900Y-138982600D02*
X110575100Y-141218000D01*
X107785600Y-137850400D02*
X108666900Y-138982600D01*
X104500000Y-133080100D02*
X107785600Y-137850400D01*
D13*
X112050000Y-128350000D02*
X111690000Y-128350000D01*
X112257100Y-128350000D02*
X112050000Y-128350000D01*
X112550000Y-128642900D02*
X112257100Y-128350000D01*
X112693200Y-129229400D02*
X112550000Y-128642900D01*
X112693200Y-129850800D02*
X112693200Y-129229400D01*
X111575000Y-132348200D02*
X112693200Y-129850800D01*
X111575000Y-132400000D02*
X111575000Y-132348200D01*
X111575000Y-132500000D02*
X111575000Y-132400000D01*
X111200000Y-132850000D02*
X111575000Y-132500000D01*
D45*
X111575000Y-133175000D02*
X111200000Y-132850000D01*
X111700000Y-133175000D02*
X111575000Y-133175000D01*
X111751800Y-133175000D02*
X111700000Y-133175000D01*
X111825000Y-133248200D02*
X111751800Y-133175000D01*
X112675200Y-134396100D02*
X111825000Y-133248200D01*
X112720000Y-135032500D02*
X112675200Y-134396100D01*
X116342900Y-140915000D02*
X116653000Y-141200200D01*
X116050000Y-140622100D02*
X116342900Y-140915000D01*
X116050000Y-140415000D02*
X116050000Y-140622100D01*
X116050000Y-139950000D02*
X116050000Y-140415000D01*
D46*
X154089300Y-130905500D02*
X154333800Y-130597500D01*
X154089300Y-131105500D02*
X154089300Y-130905500D01*
X154089300Y-131188300D02*
X154089300Y-131105500D01*
X153754000Y-132325200D02*
X154089300Y-131188300D01*
X153754000Y-132408000D02*
X153754000Y-132325200D01*
X153754000Y-132608000D02*
X153754000Y-132408000D01*
X152954000Y-133758000D02*
X153754000Y-132608000D01*
X155635100Y-139439900D02*
X155892300Y-139697100D01*
X155435100Y-139439900D02*
X155635100Y-139439900D01*
X155352300Y-139439900D02*
X155435100Y-139439900D01*
X154548200Y-138749500D02*
X155352300Y-139439900D01*
X154465400Y-138749500D02*
X154548200Y-138749500D01*
X154265400Y-138749500D02*
X154465400Y-138749500D01*
X153565000Y-137950000D02*
X154265400Y-138749500D01*
X153754000Y-134908000D02*
X152954000Y-133758000D01*
X153754000Y-135108000D02*
X153754000Y-134908000D01*
X153754000Y-135190800D02*
X153754000Y-135108000D01*
X155065900Y-136701800D02*
X153754000Y-135190800D01*
X155635100Y-138465000D02*
X155065900Y-136701800D01*
X155635100Y-139239900D02*
X155635100Y-138465000D01*
X155635100Y-139439900D02*
X155635100Y-139239900D01*
X155892300Y-139697100D02*
X155635100Y-139439900D01*
X154177400Y-128306700D02*
X154021100Y-128049500D01*
X154177400Y-128506700D02*
X154177400Y-128306700D01*
X154177400Y-130089500D02*
X154177400Y-128506700D01*
X154177400Y-130289500D02*
X154177400Y-130089500D01*
X154333800Y-130597500D02*
X154177400Y-130289500D01*
D13*
X107430000Y-127350000D02*
X107790000Y-127350000D01*
X107222900Y-127350000D02*
X107430000Y-127350000D01*
X106258600Y-127000000D02*
X107222900Y-127350000D01*
X106200000Y-126941400D02*
X106258600Y-127000000D01*
X106200000Y-126900000D02*
X106200000Y-126941400D01*
X106200000Y-126800000D02*
X106200000Y-126900000D01*
X105850000Y-126400000D02*
X106200000Y-126800000D01*
D45*
X116475000Y-134875000D02*
X116150000Y-134500000D01*
X116600000Y-134875000D02*
X116475000Y-134875000D01*
X119100000Y-134875000D02*
X116600000Y-134875000D01*
X119225000Y-134875000D02*
X119100000Y-134875000D01*
X119900000Y-135300000D02*
X119225000Y-134875000D01*
X116475000Y-136475000D02*
X116150000Y-136100000D01*
X116600000Y-136475000D02*
X116475000Y-136475000D01*
X119100000Y-136475000D02*
X116600000Y-136475000D01*
X119225000Y-136475000D02*
X119100000Y-136475000D01*
X119900000Y-136900000D02*
X119225000Y-136475000D01*
X116475000Y-138075000D02*
X116150000Y-137700000D01*
X116600000Y-138075000D02*
X116475000Y-138075000D01*
X119100000Y-138075000D02*
X116600000Y-138075000D01*
X119225000Y-138075000D02*
X119100000Y-138075000D01*
X119900000Y-138500000D02*
X119225000Y-138075000D01*
D47*
X110470000Y-121134000D02*
X110770000Y-121134000D01*
X110345700Y-121134000D02*
X110470000Y-121134000D01*
X109916300Y-121126000D02*
X110345700Y-121134000D01*
X109792000Y-121126000D02*
X109916300Y-121126000D01*
X109492000Y-121126000D02*
X109792000Y-121126000D01*
D13*
X109492000Y-121326000D02*
X109492000Y-121126000D01*
X109492000Y-121426000D02*
X109492000Y-121326000D01*
X109492000Y-122125000D02*
X109492000Y-121426000D01*
X109492000Y-122225000D02*
X109492000Y-122125000D01*
X109340000Y-122300000D02*
X109492000Y-122225000D01*
X109540000Y-123675000D02*
X109340000Y-123600000D01*
X109540000Y-123775000D02*
X109540000Y-123675000D01*
X109540000Y-123816400D02*
X109540000Y-123775000D01*
X109740000Y-125125800D02*
X109540000Y-123816400D01*
X109740000Y-125540000D02*
X109740000Y-125125800D01*
X109740000Y-125900000D02*
X109740000Y-125540000D01*
X110540000Y-123675000D02*
X110740000Y-123600000D01*
X110540000Y-123775000D02*
X110540000Y-123675000D01*
X110540000Y-123816400D02*
X110540000Y-123775000D01*
X110240000Y-125332900D02*
X110540000Y-123816400D01*
X110240000Y-125540000D02*
X110240000Y-125332900D01*
X110240000Y-125900000D02*
X110240000Y-125540000D01*
X118061000Y-130962000D02*
X118042000Y-131370000D01*
X118061000Y-130862000D02*
X118061000Y-130962000D01*
X118061000Y-129570000D02*
X118061000Y-130862000D01*
X118061000Y-129470000D02*
X118061000Y-129570000D01*
X118080000Y-128870000D02*
X118061000Y-129470000D01*
X117680000Y-128270000D02*
X118080000Y-128870000D01*
X117680000Y-128170000D02*
X117680000Y-128270000D01*
X117680000Y-128128600D02*
X117680000Y-128170000D01*
X117621400Y-128070000D02*
X117680000Y-128128600D01*
X117145700Y-127770000D02*
X117621400Y-128070000D01*
X116145700Y-127770000D02*
X117145700Y-127770000D01*
X115814300Y-127770000D02*
X116145700Y-127770000D01*
X115109500Y-127870000D02*
X115814300Y-127770000D01*
X113930500Y-127870000D02*
X115109500Y-127870000D01*
X113831100Y-127871400D02*
X113930500Y-127870000D01*
X113779100Y-127923500D02*
X113831100Y-127871400D01*
X113691800Y-127952500D02*
X113779100Y-127923500D01*
X113486800Y-127969300D02*
X113691800Y-127952500D01*
X113072600Y-127969300D02*
X113486800Y-127969300D01*
X112909000Y-127950300D02*
X113072600Y-127969300D01*
X112570600Y-127910800D02*
X112909000Y-127950300D01*
X112464200Y-127850000D02*
X112570600Y-127910800D01*
X112050000Y-127850000D02*
X112464200Y-127850000D01*
X111690000Y-127850000D02*
X112050000Y-127850000D01*
X116080000Y-125928600D02*
X115806200Y-125631100D01*
X116080000Y-125970000D02*
X116080000Y-125928600D01*
X116080000Y-126070000D02*
X116080000Y-125970000D01*
X116480000Y-126670000D02*
X116080000Y-126070000D01*
X116173500Y-124578000D02*
X116518000Y-124170000D01*
X116173500Y-124678000D02*
X116173500Y-124578000D01*
X116173500Y-124719400D02*
X116173500Y-124678000D01*
X115806200Y-125631100D02*
X116173500Y-124719400D01*
X113095200Y-126017400D02*
X115806200Y-125631100D01*
X112050000Y-126850000D02*
X113095200Y-126017400D01*
X111690000Y-126850000D02*
X112050000Y-126850000D01*
X110008000Y-132493500D02*
X109600000Y-132838000D01*
X110008000Y-132393500D02*
X110008000Y-132493500D01*
X110008000Y-132352100D02*
X110008000Y-132393500D01*
X111105000Y-131182400D02*
X110008000Y-132352100D01*
X111105000Y-130561000D02*
X111105000Y-131182400D01*
X110740000Y-130121600D02*
X111105000Y-130561000D01*
X110740000Y-129800000D02*
X110740000Y-130121600D01*
D47*
X109450700Y-119146100D02*
X109450700Y-118846100D01*
X109450700Y-119270400D02*
X109450700Y-119146100D01*
X109492000Y-119701700D02*
X109450700Y-119270400D01*
X109492000Y-119826000D02*
X109492000Y-119701700D01*
X109492000Y-120126000D02*
X109492000Y-119826000D01*
X108514000Y-120118000D02*
X108214000Y-120118000D01*
X108638300Y-120118000D02*
X108514000Y-120118000D01*
X109067700Y-120126000D02*
X108638300Y-120118000D01*
X109192000Y-120126000D02*
X109067700Y-120126000D01*
X109492000Y-120126000D02*
X109192000Y-120126000D01*
D45*
X110083300Y-131231600D02*
X110354900Y-130871700D01*
X109654500Y-131660400D02*
X110083300Y-131231600D01*
X108915900Y-131968400D02*
X109654500Y-131660400D01*
X108456200Y-132268400D02*
X108915900Y-131968400D01*
X108382900Y-132341700D02*
X108456200Y-132268400D01*
X108382900Y-132393500D02*
X108382900Y-132341700D01*
X108382900Y-132518500D02*
X108382900Y-132393500D01*
X108000000Y-132838000D02*
X108382900Y-132518500D01*
X114023900Y-133574900D02*
X118001900Y-133028200D01*
X113538600Y-133806700D02*
X114023900Y-133574900D01*
X129954000Y-125628000D02*
X128679000Y-127303000D01*
X130079000Y-125628000D02*
X129954000Y-125628000D01*
X130130800Y-125628000D02*
X130079000Y-125628000D01*
X153675000Y-125530700D02*
X130130800Y-125628000D01*
X153726800Y-125530700D02*
X153675000Y-125530700D01*
X153851800Y-125530700D02*
X153726800Y-125530700D01*
X154171300Y-125147800D02*
X153851800Y-125530700D01*
X110740000Y-125540000D02*
X110740000Y-125900000D01*
X111668400Y-123706200D02*
X110740000Y-125540000D01*
X111741700Y-123632900D02*
X111668400Y-123706200D01*
X111793500Y-123632900D02*
X111741700Y-123632900D01*
X111918500Y-123632900D02*
X111793500Y-123632900D01*
X112238000Y-123250000D02*
X111918500Y-123632900D01*
X113405000Y-134670700D02*
X113538600Y-133806700D01*
X113405000Y-135316200D02*
X113405000Y-134670700D01*
X113003700Y-135717500D02*
X113405000Y-135316200D01*
X112436300Y-135717500D02*
X113003700Y-135717500D01*
X112035000Y-135316200D02*
X112436300Y-135717500D01*
X111825000Y-134748200D02*
X112035000Y-135316200D01*
X111751800Y-134675000D02*
X111825000Y-134748200D01*
X111700000Y-134675000D02*
X111751800Y-134675000D01*
X111575000Y-134675000D02*
X111700000Y-134675000D01*
X111200000Y-134350000D02*
X111575000Y-134675000D01*
X106320500Y-123896600D02*
X106001000Y-123526000D01*
X106445500Y-123896600D02*
X106320500Y-123896600D01*
X106308100Y-123896600D02*
X106445500Y-123896600D01*
X106497300Y-123908900D02*
X106995600Y-124150300D01*
X106445500Y-123908900D02*
X106497300Y-123908900D01*
X106320500Y-123908900D02*
X106445500Y-123908900D01*
X106001000Y-123526000D02*
X106320500Y-123908900D01*
X124317700Y-131225500D02*
X123321500Y-131770000D01*
X127330800Y-129228000D02*
X124317700Y-131225500D01*
X127404000Y-129154800D02*
X127330800Y-129228000D01*
X127404000Y-129103000D02*
X127404000Y-129154800D01*
X127404000Y-128978000D02*
X127404000Y-129103000D01*
X128679000Y-127303000D02*
X127404000Y-128978000D01*
X154490800Y-125530800D02*
X154171300Y-125147800D01*
X154490800Y-125655800D02*
X154490800Y-125530800D01*
X154490800Y-125707600D02*
X154490800Y-125655800D01*
X155470900Y-126755100D02*
X154490800Y-125707600D01*
X155544100Y-126828300D02*
X155470900Y-126755100D01*
X155595900Y-126828300D02*
X155544100Y-126828300D01*
X155720900Y-126828300D02*
X155595900Y-126828300D01*
X156053100Y-127160500D02*
X155720900Y-126828300D01*
D13*
X112050000Y-127350000D02*
X112257100Y-127350000D01*
X111690000Y-127350000D02*
X112050000Y-127350000D01*
D45*
X106001000Y-123589500D02*
X106308100Y-123896600D01*
X106001000Y-123526000D02*
X106001000Y-123589500D01*
X106320500Y-124034000D02*
X106308100Y-123896600D01*
X106320500Y-123909000D02*
X106320500Y-124034000D01*
X106001000Y-123526000D02*
X106320500Y-123909000D01*
D13*
X108740000Y-125540000D02*
X108274900Y-125364700D01*
X108740000Y-125900000D02*
X108740000Y-125540000D01*
D45*
X112557500Y-123809800D02*
X112928400Y-125071000D01*
X112557500Y-123758000D02*
X112557500Y-123809800D01*
X112557500Y-123633000D02*
X112557500Y-123758000D01*
X112238000Y-123250000D02*
X112557500Y-123633000D01*
D46*
X114162000Y-126863500D02*
X114470000Y-127108000D01*
X113962000Y-126863500D02*
X114162000Y-126863500D01*
X113879200Y-126863500D02*
X113962000Y-126863500D01*
X113405900Y-126767500D02*
X113879200Y-126863500D01*
D45*
X106716000Y-124825400D02*
X108274900Y-125364700D01*
X106320500Y-124429900D02*
X106716000Y-124825400D01*
X106320500Y-124034000D02*
X106320500Y-124429900D01*
X106320500Y-123909000D02*
X106320500Y-124034000D01*
X106001000Y-123526000D02*
X106320500Y-123909000D01*
D13*
X114062000Y-127352500D02*
X114470000Y-127108000D01*
X113962000Y-127352500D02*
X114062000Y-127352500D01*
X113879200Y-127352500D02*
X113962000Y-127352500D01*
X113658800Y-127455400D02*
X113879200Y-127352500D01*
X113606700Y-127507400D02*
X113658800Y-127455400D01*
D46*
X107506000Y-123482500D02*
X107814000Y-123238000D01*
X107506000Y-123682500D02*
X107506000Y-123482500D01*
X106995600Y-124150300D02*
X107506000Y-123682500D01*
D45*
X105606200Y-128483000D02*
X105862000Y-128100000D01*
X105606200Y-128608000D02*
X105606200Y-128483000D01*
X105606200Y-129158100D02*
X105606200Y-128608000D01*
D13*
X108947100Y-125040000D02*
X108502300Y-124867600D01*
X109240000Y-125332900D02*
X108947100Y-125040000D01*
X109240000Y-125540000D02*
X109240000Y-125332900D01*
X109240000Y-125900000D02*
X109240000Y-125540000D01*
D45*
X110240000Y-130160000D02*
X110240000Y-129800000D01*
X110240000Y-130367100D02*
X110240000Y-130160000D01*
X110354900Y-130871700D02*
X110240000Y-130367100D01*
X127863500Y-140203500D02*
X128038500Y-140378500D01*
X127863500Y-140078500D02*
X127863500Y-140203500D01*
X127863500Y-140026700D02*
X127863500Y-140078500D01*
X127336300Y-139116800D02*
X127863500Y-140026700D01*
X106306500Y-127850000D02*
X107430000Y-127850000D01*
D13*
X112257100Y-127350000D02*
X113606700Y-127507400D01*
D45*
X107814000Y-123238000D02*
X108502300Y-124867600D01*
D46*
X150659600Y-142683500D02*
X150659600Y-146826400D01*
X150659600Y-142483500D02*
X150659600Y-142683500D01*
X150129000Y-141684000D02*
X150659600Y-142483500D01*
X156005900Y-130905500D02*
X155857800Y-130597500D01*
X156005900Y-131105500D02*
X156005900Y-130905500D01*
X156005900Y-132408000D02*
X156005900Y-131105500D01*
X156005900Y-132608000D02*
X156005900Y-132408000D01*
X156154000Y-133758000D02*
X156005900Y-132608000D01*
X155450800Y-124839800D02*
X155695300Y-125147800D01*
X155450800Y-124639800D02*
X155450800Y-124839800D01*
X155450800Y-124557000D02*
X155450800Y-124639800D01*
X155333600Y-124439800D02*
X155450800Y-124557000D01*
X154864500Y-124039300D02*
X155333600Y-124439800D01*
X153975500Y-124039300D02*
X154864500Y-124039300D01*
X153478100Y-124039300D02*
X153975500Y-124039300D01*
X127030300Y-124902500D02*
X153478100Y-124039300D01*
X126678500Y-125254300D02*
X127030300Y-124902500D01*
X123900000Y-129617200D02*
X126678500Y-125254300D01*
X123900000Y-129700000D02*
X123900000Y-129617200D01*
X123900000Y-129900000D02*
X123900000Y-129700000D01*
X123560000Y-130200000D02*
X123900000Y-129900000D01*
X158381500Y-140794600D02*
X158981500Y-140794600D01*
X158181500Y-140794600D02*
X158381500Y-140794600D01*
X157924300Y-140586100D02*
X158181500Y-140794600D01*
X158630100Y-141643400D02*
X150659600Y-146826400D01*
X158981600Y-141291900D02*
X158630100Y-141643400D01*
X158981500Y-140794600D02*
X158981600Y-141291900D01*
X156310300Y-128681300D02*
X156053100Y-128938500D01*
X156510300Y-128681300D02*
X156310300Y-128681300D01*
X156593100Y-128681300D02*
X156510300Y-128681300D01*
X156710300Y-128564100D02*
X156593100Y-128681300D01*
X157110800Y-127866400D02*
X156710300Y-128564100D01*
X157110800Y-127369000D02*
X157110800Y-127866400D01*
X157110800Y-126454600D02*
X157110800Y-127369000D01*
X156339800Y-125573000D02*
X157110800Y-126454600D01*
X156222600Y-125455800D02*
X156339800Y-125573000D01*
X156139800Y-125455800D02*
X156222600Y-125455800D01*
X155939800Y-125455800D02*
X156139800Y-125455800D01*
X155695300Y-125147800D02*
X155939800Y-125455800D01*
X158982000Y-140577600D02*
X158981500Y-140794600D01*
X158982000Y-140080200D02*
X158982000Y-140577600D01*
X158982000Y-138102200D02*
X158982000Y-140080200D01*
X157354000Y-135025200D02*
X158982000Y-138102200D01*
X157236800Y-134908000D02*
X157354000Y-135025200D01*
X157154000Y-134908000D02*
X157236800Y-134908000D01*
X156954000Y-134908000D02*
X157154000Y-134908000D01*
X156154000Y-133758000D02*
X156954000Y-134908000D01*
X155955400Y-129195700D02*
X156053100Y-128938500D01*
X155955400Y-129395700D02*
X155955400Y-129195700D01*
X155955400Y-130089500D02*
X155955400Y-129395700D01*
X155955400Y-130289500D02*
X155955400Y-130089500D01*
X155857800Y-130597500D02*
X155955400Y-130289500D01*
D45*
X118722100Y-143950000D02*
X119268800Y-144078000D01*
X118515000Y-143950000D02*
X118722100Y-143950000D01*
X118050000Y-143950000D02*
X118515000Y-143950000D01*
X126483500Y-145058300D02*
X128300000Y-145300000D01*
D46*
X152864600Y-140960500D02*
X153565000Y-141760000D01*
X152864600Y-140760500D02*
X152864600Y-140960500D01*
X152864600Y-140677700D02*
X152864600Y-140760500D01*
X152747400Y-140560500D02*
X152864600Y-140677700D01*
X150946600Y-139073500D02*
X152747400Y-140560500D01*
X150829400Y-138956300D02*
X150946600Y-139073500D01*
X150829400Y-138873500D02*
X150829400Y-138956300D01*
X150829400Y-138673500D02*
X150829400Y-138873500D01*
X150129000Y-137874000D02*
X150829400Y-138673500D01*
X149428600Y-138673500D02*
X150129000Y-137874000D01*
X149228600Y-138673500D02*
X149428600Y-138673500D01*
X146852000Y-138673500D02*
X149228600Y-138673500D01*
X146652000Y-138673500D02*
X146852000Y-138673500D01*
X146052000Y-140146000D02*
X146652000Y-138673500D01*
X142052000Y-141646000D02*
X141452000Y-140146000D01*
X142052000Y-141846000D02*
X142052000Y-141646000D01*
X142052000Y-144326400D02*
X142052000Y-141846000D01*
X142052000Y-144526400D02*
X142052000Y-144326400D01*
X142659600Y-146826400D02*
X142052000Y-144526400D01*
D45*
X109275700Y-117671100D02*
X109450700Y-117846100D01*
X109275700Y-117546100D02*
X109275700Y-117671100D01*
X109153100Y-116985200D02*
X109275700Y-117546100D01*
G36*
X159025000Y-136953956D02*
X157862246Y-134756294D01*
X157808182Y-134689845D01*
X157760587Y-134618614D01*
X157643386Y-134501414D01*
X157536346Y-134429892D01*
X157536346Y-132408000D01*
X157507242Y-132261683D01*
X157424359Y-132137641D01*
X157300317Y-132054758D01*
X157154000Y-132025654D01*
X156580900Y-132025654D01*
X156580900Y-131363526D01*
X156655542Y-131251817D01*
X156684646Y-131105500D01*
X156684646Y-130089500D01*
X156655542Y-129943183D01*
X156572659Y-129819141D01*
X156530400Y-129790904D01*
X156530400Y-129774048D01*
X156656617Y-129748942D01*
X156780659Y-129666059D01*
X156863542Y-129542017D01*
X156892646Y-129395700D01*
X156892646Y-129159408D01*
X156999686Y-129087886D01*
X157116887Y-128970686D01*
X157159066Y-128907560D01*
X157208980Y-128850357D01*
X157609480Y-128152657D01*
X157621354Y-128117388D01*
X157642031Y-128086443D01*
X157656843Y-128011980D01*
X157681066Y-127940031D01*
X157678539Y-127902902D01*
X157685800Y-127866400D01*
X157685800Y-126454600D01*
X157667593Y-126363065D01*
X157655539Y-126270521D01*
X157645829Y-126253648D01*
X157642031Y-126234557D01*
X157590184Y-126156964D01*
X157543629Y-126076071D01*
X156772629Y-125194471D01*
X156757202Y-125182600D01*
X156746387Y-125166414D01*
X156629186Y-125049214D01*
X156522146Y-124977692D01*
X156522146Y-124639800D01*
X156493042Y-124493483D01*
X156410159Y-124369441D01*
X156286117Y-124286558D01*
X156139800Y-124257454D01*
X155928909Y-124257454D01*
X155857387Y-124150414D01*
X155740186Y-124033214D01*
X155721139Y-124020487D01*
X155706952Y-124002498D01*
X155237852Y-123601998D01*
X155159349Y-123558053D01*
X155084543Y-123508069D01*
X155062073Y-123503599D01*
X155042084Y-123492410D01*
X154952742Y-123481852D01*
X154864500Y-123464300D01*
X153478100Y-123464300D01*
X153468749Y-123466160D01*
X153459343Y-123464606D01*
X127011543Y-124327806D01*
X126911246Y-124351182D01*
X126810257Y-124371269D01*
X126802329Y-124376566D01*
X126793045Y-124378730D01*
X126709338Y-124438701D01*
X126623713Y-124495914D01*
X126271914Y-124847714D01*
X126236981Y-124899995D01*
X126193501Y-124945429D01*
X123415001Y-129308330D01*
X123411377Y-129317654D01*
X123020000Y-129317654D01*
X122873683Y-129346758D01*
X122749641Y-129429641D01*
X122666758Y-129553683D01*
X122637654Y-129700000D01*
X122637654Y-130700000D01*
X122666758Y-130846317D01*
X122749641Y-130970359D01*
X122873683Y-131053242D01*
X123020000Y-131082346D01*
X123087232Y-131082346D01*
X122911357Y-131155016D01*
X122707233Y-131358784D01*
X122596626Y-131625156D01*
X122596374Y-131913579D01*
X122706516Y-132180143D01*
X122910284Y-132384267D01*
X123176656Y-132494874D01*
X123465079Y-132495126D01*
X123731643Y-132384984D01*
X123935767Y-132181216D01*
X124030920Y-131952061D01*
X124557506Y-131664241D01*
X124574036Y-131650415D01*
X124593974Y-131642241D01*
X127607073Y-129644741D01*
X127642660Y-129609412D01*
X127684353Y-129581553D01*
X127757553Y-129508354D01*
X127772927Y-129485346D01*
X130079000Y-129485346D01*
X130225317Y-129456242D01*
X130349359Y-129373359D01*
X130432242Y-129249317D01*
X130461346Y-129103000D01*
X130461346Y-126126639D01*
X153676098Y-126030700D01*
X153689366Y-126030700D01*
X153726800Y-126038146D01*
X154118822Y-126038146D01*
X154125696Y-126049212D01*
X155105796Y-127096712D01*
X155112657Y-127101634D01*
X155117347Y-127108653D01*
X155190546Y-127181853D01*
X155213554Y-127197227D01*
X155213554Y-127617700D01*
X155242658Y-127764017D01*
X155325541Y-127888059D01*
X155449583Y-127970942D01*
X155595900Y-128000046D01*
X156371084Y-128000046D01*
X156314307Y-128098954D01*
X155595900Y-128098954D01*
X155449583Y-128128058D01*
X155325541Y-128210941D01*
X155242658Y-128334983D01*
X155213554Y-128481300D01*
X155213554Y-129395700D01*
X155242658Y-129542017D01*
X155325541Y-129666059D01*
X155380400Y-129702715D01*
X155380400Y-129713698D01*
X155266983Y-129736258D01*
X155142941Y-129819141D01*
X155095800Y-129889692D01*
X155048659Y-129819141D01*
X154924617Y-129736258D01*
X154778300Y-129707154D01*
X154752400Y-129707154D01*
X154752400Y-128771460D01*
X154831542Y-128653017D01*
X154860646Y-128506700D01*
X154860646Y-127592300D01*
X154831542Y-127445983D01*
X154748659Y-127321941D01*
X154624617Y-127239058D01*
X154478300Y-127209954D01*
X153563900Y-127209954D01*
X153417583Y-127239058D01*
X153293541Y-127321941D01*
X153210658Y-127445983D01*
X153181554Y-127592300D01*
X153181554Y-128506700D01*
X153210658Y-128653017D01*
X153293541Y-128777059D01*
X153417583Y-128859942D01*
X153563900Y-128889046D01*
X153602400Y-128889046D01*
X153602400Y-129843896D01*
X153536058Y-129943183D01*
X153506954Y-130089500D01*
X153506954Y-131105500D01*
X153509886Y-131120241D01*
X153242858Y-132025654D01*
X151954000Y-132025654D01*
X151807683Y-132054758D01*
X151683641Y-132137641D01*
X151600758Y-132261683D01*
X151571654Y-132408000D01*
X151571654Y-135108000D01*
X151600758Y-135254317D01*
X151683641Y-135378359D01*
X151807683Y-135461242D01*
X151954000Y-135490346D01*
X153275624Y-135490346D01*
X153319816Y-135567773D01*
X154188388Y-136568164D01*
X152664570Y-136568164D01*
X152518253Y-136597268D01*
X152394211Y-136680151D01*
X152311328Y-136804193D01*
X152282224Y-136950510D01*
X152282224Y-138949490D01*
X152311328Y-139095807D01*
X152394211Y-139219849D01*
X152518253Y-139302732D01*
X152664570Y-139331836D01*
X154343764Y-139331836D01*
X154977729Y-139876158D01*
X155052754Y-139918432D01*
X155052754Y-140154300D01*
X155081858Y-140300617D01*
X155164741Y-140424659D01*
X155288783Y-140507542D01*
X155435100Y-140536646D01*
X156349500Y-140536646D01*
X156495817Y-140507542D01*
X156619859Y-140424659D01*
X156702742Y-140300617D01*
X156731846Y-140154300D01*
X156731846Y-139239900D01*
X156702742Y-139093583D01*
X156619859Y-138969541D01*
X156495817Y-138886658D01*
X156349500Y-138857554D01*
X156210100Y-138857554D01*
X156210100Y-138465000D01*
X156192643Y-138377237D01*
X156182294Y-138288354D01*
X155613094Y-136525154D01*
X155611665Y-136522591D01*
X155611296Y-136519677D01*
X155557090Y-136424704D01*
X155503842Y-136329198D01*
X155501539Y-136327375D01*
X155500084Y-136324826D01*
X154336346Y-134984475D01*
X154336346Y-132408000D01*
X154333414Y-132393259D01*
X154600442Y-131487846D01*
X154778300Y-131487846D01*
X154924617Y-131458742D01*
X155048659Y-131375859D01*
X155095800Y-131305308D01*
X155142941Y-131375859D01*
X155266983Y-131458742D01*
X155413300Y-131487846D01*
X155430900Y-131487846D01*
X155430900Y-132025654D01*
X155154000Y-132025654D01*
X155007683Y-132054758D01*
X154883641Y-132137641D01*
X154800758Y-132261683D01*
X154771654Y-132408000D01*
X154771654Y-135108000D01*
X154800758Y-135254317D01*
X154883641Y-135378359D01*
X155007683Y-135461242D01*
X155154000Y-135490346D01*
X156949582Y-135490346D01*
X158260769Y-137968554D01*
X157467100Y-137968554D01*
X157320783Y-137997658D01*
X157196741Y-138080541D01*
X157113858Y-138204583D01*
X157084754Y-138350900D01*
X157084754Y-139265300D01*
X157113858Y-139411617D01*
X157196741Y-139535659D01*
X157320783Y-139618542D01*
X157467100Y-139647646D01*
X158381500Y-139647646D01*
X158407000Y-139642574D01*
X158407000Y-139751626D01*
X158381500Y-139746554D01*
X157467100Y-139746554D01*
X157320783Y-139775658D01*
X157196741Y-139858541D01*
X157113858Y-139982583D01*
X157084754Y-140128900D01*
X157084754Y-141043300D01*
X157113858Y-141189617D01*
X157196741Y-141313659D01*
X157320783Y-141396542D01*
X157467100Y-141425646D01*
X157910209Y-141425646D01*
X152707722Y-144808682D01*
X152290283Y-144390514D01*
X151234600Y-143952157D01*
X151234600Y-142997407D01*
X151299789Y-142953849D01*
X151382672Y-142829807D01*
X151411776Y-142683490D01*
X151411776Y-140684510D01*
X151382672Y-140538193D01*
X151299789Y-140414151D01*
X151175747Y-140331268D01*
X151029430Y-140302164D01*
X149228570Y-140302164D01*
X149082253Y-140331268D01*
X148958211Y-140414151D01*
X148875328Y-140538193D01*
X148846224Y-140684510D01*
X148846224Y-142683490D01*
X148875328Y-142829807D01*
X148958211Y-142953849D01*
X149082253Y-143036732D01*
X149228570Y-143065836D01*
X150084600Y-143065836D01*
X150084600Y-143953231D01*
X149033171Y-144387672D01*
X148223714Y-145195717D01*
X147785100Y-146252018D01*
X147784102Y-147395764D01*
X148220872Y-148452829D01*
X149028917Y-149262286D01*
X150085218Y-149700900D01*
X151228964Y-149701898D01*
X152286029Y-149265128D01*
X153095486Y-148457083D01*
X153534100Y-147400782D01*
X153535098Y-146257036D01*
X153334928Y-145772587D01*
X158943561Y-142125445D01*
X158986647Y-142083421D01*
X159025000Y-142057794D01*
X159025000Y-148610178D01*
X158641965Y-148686368D01*
X158470737Y-148757293D01*
X157821890Y-149190838D01*
X157690838Y-149321890D01*
X157690838Y-149321891D01*
X157257293Y-149970737D01*
X157186368Y-150141965D01*
X157110178Y-150525000D01*
X138675000Y-150525000D01*
X138675000Y-144326400D01*
X139777254Y-144326400D01*
X139777254Y-149326400D01*
X139806358Y-149472717D01*
X139889241Y-149596759D01*
X140013283Y-149679642D01*
X140159600Y-149708746D01*
X145159600Y-149708746D01*
X145305917Y-149679642D01*
X145429959Y-149596759D01*
X145512842Y-149472717D01*
X145541946Y-149326400D01*
X145541946Y-144326400D01*
X145512842Y-144180083D01*
X145429959Y-144056041D01*
X145305917Y-143973158D01*
X145159600Y-143944054D01*
X142627000Y-143944054D01*
X142627000Y-141882931D01*
X142634346Y-141846000D01*
X142634346Y-138446000D01*
X144869654Y-138446000D01*
X144869654Y-141846000D01*
X144898758Y-141992317D01*
X144981641Y-142116359D01*
X145105683Y-142199242D01*
X145252000Y-142228346D01*
X146852000Y-142228346D01*
X146998317Y-142199242D01*
X147122359Y-142116359D01*
X147205242Y-141992317D01*
X147234346Y-141846000D01*
X147234346Y-139248500D01*
X149191689Y-139248500D01*
X149228570Y-139255836D01*
X150351285Y-139255836D01*
X150422814Y-139362886D01*
X150540014Y-139480087D01*
X150563007Y-139495450D01*
X150580484Y-139516878D01*
X152282224Y-140922080D01*
X152282224Y-142759490D01*
X152311328Y-142905807D01*
X152394211Y-143029849D01*
X152518253Y-143112732D01*
X152664570Y-143141836D01*
X154465430Y-143141836D01*
X154611747Y-143112732D01*
X154735789Y-143029849D01*
X154818672Y-142905807D01*
X154847776Y-142759490D01*
X154847776Y-140760510D01*
X154818672Y-140614193D01*
X154735789Y-140490151D01*
X154611747Y-140407268D01*
X154465430Y-140378164D01*
X153342715Y-140378164D01*
X153271187Y-140271114D01*
X153153986Y-140153914D01*
X153130995Y-140138552D01*
X153113517Y-140117123D01*
X151411776Y-138711920D01*
X151411776Y-136874510D01*
X151382672Y-136728193D01*
X151299789Y-136604151D01*
X151175747Y-136521268D01*
X151029430Y-136492164D01*
X149228570Y-136492164D01*
X149082253Y-136521268D01*
X148958211Y-136604151D01*
X148875328Y-136728193D01*
X148846224Y-136874510D01*
X148846224Y-138098500D01*
X147006910Y-138098500D01*
X146998317Y-138092758D01*
X146852000Y-138063654D01*
X145252000Y-138063654D01*
X145105683Y-138092758D01*
X144981641Y-138175641D01*
X144898758Y-138299683D01*
X144869654Y-138446000D01*
X142634346Y-138446000D01*
X142605242Y-138299683D01*
X142522359Y-138175641D01*
X142398317Y-138092758D01*
X142252000Y-138063654D01*
X140652000Y-138063654D01*
X140505683Y-138092758D01*
X140381641Y-138175641D01*
X140298758Y-138299683D01*
X140269654Y-138446000D01*
X140269654Y-141846000D01*
X140298758Y-141992317D01*
X140381641Y-142116359D01*
X140505683Y-142199242D01*
X140652000Y-142228346D01*
X141477000Y-142228346D01*
X141477000Y-143944054D01*
X140159600Y-143944054D01*
X140013283Y-143973158D01*
X139889241Y-144056041D01*
X139806358Y-144180083D01*
X139777254Y-144326400D01*
X138675000Y-144326400D01*
X138675000Y-137400000D01*
X138638843Y-137218225D01*
X138535876Y-137064124D01*
X138381775Y-136961157D01*
X138200000Y-136925000D01*
X131800000Y-136925000D01*
X131618225Y-136961157D01*
X131464124Y-137064124D01*
X131361157Y-137218225D01*
X131325000Y-137400000D01*
X131325000Y-150525000D01*
X120112513Y-150525000D01*
X120159742Y-150454317D01*
X120188846Y-150308000D01*
X120188846Y-149437905D01*
X122013417Y-149330740D01*
X122077526Y-149314027D01*
X122143235Y-149305600D01*
X122171110Y-149289630D01*
X122202198Y-149281526D01*
X122255030Y-149241553D01*
X122312513Y-149208621D01*
X123573713Y-148110021D01*
X123584367Y-148096232D01*
X123598853Y-148086553D01*
X123672053Y-148013354D01*
X123687427Y-147990346D01*
X124082500Y-147990346D01*
X124228817Y-147961242D01*
X124352859Y-147878359D01*
X124435742Y-147754317D01*
X124464846Y-147608000D01*
X124464846Y-146592000D01*
X124435742Y-146445683D01*
X124352859Y-146321641D01*
X124320471Y-146300000D01*
X124352859Y-146278359D01*
X124435742Y-146154317D01*
X124464846Y-146008000D01*
X124464846Y-145201879D01*
X125758374Y-145201879D01*
X125868516Y-145468443D01*
X126072284Y-145672567D01*
X126338656Y-145783174D01*
X126627079Y-145783426D01*
X126893643Y-145673284D01*
X126943147Y-145623867D01*
X127518712Y-145700450D01*
X127557779Y-145795000D01*
X127803705Y-146041356D01*
X128125188Y-146174848D01*
X128473285Y-146175151D01*
X128795000Y-146042221D01*
X129041356Y-145796295D01*
X129174848Y-145474812D01*
X129175151Y-145126715D01*
X129042221Y-144805000D01*
X128796295Y-144558644D01*
X128474812Y-144425152D01*
X128126715Y-144424849D01*
X127805000Y-144557779D01*
X127653008Y-144709506D01*
X127084169Y-144633817D01*
X126894716Y-144444033D01*
X126628344Y-144333426D01*
X126339921Y-144333174D01*
X126073357Y-144443316D01*
X125869233Y-144647084D01*
X125758626Y-144913456D01*
X125758374Y-145201879D01*
X124464846Y-145201879D01*
X124464846Y-144992000D01*
X124435742Y-144845683D01*
X124352859Y-144721641D01*
X124347681Y-144718181D01*
X124371959Y-144701959D01*
X124454842Y-144577917D01*
X124483946Y-144431600D01*
X124483946Y-143572943D01*
X125627579Y-142548164D01*
X127724676Y-142058096D01*
X127738500Y-142060846D01*
X128338500Y-142060846D01*
X128484817Y-142031742D01*
X128608859Y-141948859D01*
X128691742Y-141824817D01*
X128720846Y-141678500D01*
X128720846Y-141078500D01*
X128691742Y-140932183D01*
X128655872Y-140878500D01*
X128691742Y-140824817D01*
X128720846Y-140678500D01*
X128720846Y-140078500D01*
X128691742Y-139932183D01*
X128608859Y-139808141D01*
X128484817Y-139725258D01*
X128338500Y-139696154D01*
X128249845Y-139696154D01*
X128034837Y-139325070D01*
X128061174Y-139261644D01*
X128061426Y-138973221D01*
X127951284Y-138706657D01*
X127747516Y-138502533D01*
X127481144Y-138391926D01*
X127192721Y-138391674D01*
X126926157Y-138501816D01*
X126722033Y-138705584D01*
X126611426Y-138971956D01*
X126611174Y-139260379D01*
X126721316Y-139526943D01*
X126925084Y-139731067D01*
X127174305Y-139834552D01*
X127356154Y-140148408D01*
X127356154Y-140678500D01*
X127385258Y-140824817D01*
X127421128Y-140878500D01*
X127385258Y-140932183D01*
X127356154Y-141078500D01*
X127356154Y-141117274D01*
X125275421Y-141603518D01*
X125250511Y-141614819D01*
X125223427Y-141618680D01*
X125162365Y-141654810D01*
X125097760Y-141684121D01*
X125079070Y-141704096D01*
X125055526Y-141718027D01*
X123716126Y-142918227D01*
X123707792Y-142929332D01*
X123696246Y-142937047D01*
X123623047Y-143010247D01*
X123607674Y-143033254D01*
X123212600Y-143033254D01*
X123150560Y-143045594D01*
X122476469Y-142649114D01*
X122371784Y-142395757D01*
X122168016Y-142191633D01*
X121901644Y-142081026D01*
X121613221Y-142080774D01*
X121346657Y-142190916D01*
X121142533Y-142394684D01*
X121031926Y-142661056D01*
X121031674Y-142949479D01*
X121141816Y-143216043D01*
X121345584Y-143420167D01*
X121611956Y-143530774D01*
X121900379Y-143531026D01*
X121960900Y-143506019D01*
X122830254Y-144017347D01*
X122830254Y-144396570D01*
X119817340Y-142857624D01*
X119796415Y-142851700D01*
X119778252Y-142839733D01*
X119027321Y-142534359D01*
X119044101Y-142450000D01*
X119022090Y-142339343D01*
X119075653Y-142303553D01*
X119368553Y-142010653D01*
X119476940Y-141848442D01*
X119481983Y-141823087D01*
X119515000Y-141657100D01*
X119515000Y-141242900D01*
X119508109Y-141208254D01*
X119510088Y-141172985D01*
X119489248Y-141113437D01*
X119476940Y-141051558D01*
X119457314Y-141022186D01*
X119445646Y-140988845D01*
X118925142Y-140106543D01*
X118949474Y-140047944D01*
X118949726Y-139759521D01*
X118839584Y-139492957D01*
X118635816Y-139288833D01*
X118369444Y-139178226D01*
X118081021Y-139177974D01*
X117814457Y-139288116D01*
X117610333Y-139491884D01*
X117499726Y-139758256D01*
X117499474Y-140046679D01*
X117609616Y-140313243D01*
X117813384Y-140517367D01*
X118069097Y-140623548D01*
X118255785Y-140940000D01*
X117565899Y-140940000D01*
X117370730Y-140978821D01*
X117351335Y-140991781D01*
X117267984Y-140790057D01*
X117064216Y-140585933D01*
X117032425Y-140572732D01*
X117060000Y-140434101D01*
X117060000Y-139465899D01*
X117021179Y-139270730D01*
X116910624Y-139105275D01*
X116745169Y-138994720D01*
X116550000Y-138955899D01*
X116354831Y-138994720D01*
X116300000Y-139031357D01*
X116245169Y-138994720D01*
X116050000Y-138955899D01*
X115854831Y-138994720D01*
X115800000Y-139031357D01*
X115745169Y-138994720D01*
X115714788Y-138988677D01*
X115727674Y-138957644D01*
X115727926Y-138669221D01*
X115691316Y-138580619D01*
X115700000Y-138582346D01*
X116600000Y-138582346D01*
X116636931Y-138575000D01*
X118717654Y-138575000D01*
X118717654Y-139050000D01*
X118746758Y-139196317D01*
X118829641Y-139320359D01*
X118953683Y-139403242D01*
X119100000Y-139432346D01*
X120700000Y-139432346D01*
X120846317Y-139403242D01*
X120970359Y-139320359D01*
X121053242Y-139196317D01*
X121082346Y-139050000D01*
X121082346Y-137950000D01*
X121053242Y-137803683D01*
X120983963Y-137700000D01*
X121053242Y-137596317D01*
X121082346Y-137450000D01*
X121082346Y-136350000D01*
X121053242Y-136203683D01*
X120983963Y-136100000D01*
X121053242Y-135996317D01*
X121082346Y-135850000D01*
X121082346Y-134750000D01*
X121053242Y-134603683D01*
X120970359Y-134479641D01*
X120846317Y-134396758D01*
X120700000Y-134367654D01*
X119100000Y-134367654D01*
X119063069Y-134375000D01*
X116982346Y-134375000D01*
X116982346Y-134000000D01*
X116953242Y-133853683D01*
X116870359Y-133729641D01*
X116819178Y-133695442D01*
X117544112Y-133595814D01*
X117590684Y-133642467D01*
X117857056Y-133753074D01*
X118145479Y-133753326D01*
X118412043Y-133643184D01*
X118616167Y-133439416D01*
X118726774Y-133173044D01*
X118727026Y-132884621D01*
X118616884Y-132618057D01*
X118413116Y-132413933D01*
X118146744Y-132303326D01*
X117858321Y-132303074D01*
X117591757Y-132413216D01*
X117398163Y-132606472D01*
X113955824Y-133079556D01*
X113883039Y-133104725D01*
X113808399Y-133123724D01*
X113797213Y-133129067D01*
X113683444Y-133081826D01*
X113395021Y-133081574D01*
X113128457Y-133191716D01*
X112924333Y-133395484D01*
X112813726Y-133661856D01*
X112813655Y-133742959D01*
X112226795Y-132950608D01*
X112199232Y-132925594D01*
X112178553Y-132894646D01*
X112105353Y-132821447D01*
X112082346Y-132806074D01*
X112082346Y-132400000D01*
X112079239Y-132384382D01*
X113126728Y-130044910D01*
X113128249Y-130038253D01*
X113132043Y-130032575D01*
X113148836Y-129948148D01*
X113168010Y-129864231D01*
X113166868Y-129857498D01*
X113168200Y-129850800D01*
X113168200Y-129229400D01*
X113157098Y-129173588D01*
X113154645Y-129116734D01*
X113011445Y-128530234D01*
X112995987Y-128497040D01*
X112988843Y-128461125D01*
X112971922Y-128435800D01*
X113017804Y-128441129D01*
X113045424Y-128438894D01*
X113072600Y-128444300D01*
X113486800Y-128444300D01*
X113506074Y-128440466D01*
X113525597Y-128442713D01*
X113730597Y-128425913D01*
X113785201Y-128410323D01*
X113841543Y-128403279D01*
X113928844Y-128374279D01*
X113944093Y-128365607D01*
X113961296Y-128362168D01*
X113986936Y-128345000D01*
X115109500Y-128345000D01*
X115142565Y-128338423D01*
X115176227Y-128340290D01*
X115847831Y-128245000D01*
X117008429Y-128245000D01*
X117197654Y-128364335D01*
X117197654Y-129570000D01*
X117226758Y-129716317D01*
X117309641Y-129840359D01*
X117433683Y-129923242D01*
X117580000Y-129952346D01*
X117586000Y-129952346D01*
X117586000Y-130481941D01*
X117451183Y-130508758D01*
X117327141Y-130591641D01*
X117244258Y-130715683D01*
X117215154Y-130862000D01*
X117215154Y-131878000D01*
X117244258Y-132024317D01*
X117327141Y-132148359D01*
X117451183Y-132231242D01*
X117597500Y-132260346D01*
X118486500Y-132260346D01*
X118632817Y-132231242D01*
X118756859Y-132148359D01*
X118839742Y-132024317D01*
X118868846Y-131878000D01*
X118868846Y-130862000D01*
X118839742Y-130715683D01*
X118756859Y-130591641D01*
X118632817Y-130508758D01*
X118536000Y-130489500D01*
X118536000Y-129952346D01*
X118580000Y-129952346D01*
X118726317Y-129923242D01*
X118850359Y-129840359D01*
X118933242Y-129716317D01*
X118962346Y-129570000D01*
X118962346Y-128170000D01*
X118933242Y-128023683D01*
X118850359Y-127899641D01*
X118726317Y-127816758D01*
X118580000Y-127787654D01*
X118010806Y-127787654D01*
X117957276Y-127734124D01*
X117913221Y-127704688D01*
X117874780Y-127668224D01*
X117399080Y-127368224D01*
X117362346Y-127354132D01*
X117362346Y-125970000D01*
X117333242Y-125823683D01*
X117250359Y-125699641D01*
X117126317Y-125616758D01*
X116980000Y-125587654D01*
X116411764Y-125587654D01*
X116358930Y-125530247D01*
X116548241Y-125060346D01*
X116962500Y-125060346D01*
X117108817Y-125031242D01*
X117232859Y-124948359D01*
X117315742Y-124824317D01*
X117344846Y-124678000D01*
X117344846Y-123662000D01*
X117315742Y-123515683D01*
X117232859Y-123391641D01*
X117108817Y-123308758D01*
X116962500Y-123279654D01*
X116073500Y-123279654D01*
X115927183Y-123308758D01*
X115803141Y-123391641D01*
X115720258Y-123515683D01*
X115691154Y-123662000D01*
X115691154Y-124645548D01*
X115467983Y-125199495D01*
X113546363Y-125473314D01*
X113653274Y-125215844D01*
X113653526Y-124927421D01*
X113543384Y-124660857D01*
X113339616Y-124456733D01*
X113259094Y-124423297D01*
X113064279Y-123760853D01*
X113064846Y-123758000D01*
X113064846Y-122742000D01*
X113035742Y-122595683D01*
X112952859Y-122471641D01*
X112828817Y-122388758D01*
X112682500Y-122359654D01*
X111793500Y-122359654D01*
X111647183Y-122388758D01*
X111523141Y-122471641D01*
X111440258Y-122595683D01*
X111411154Y-122742000D01*
X111411154Y-123263974D01*
X111391976Y-123276788D01*
X111310359Y-123154641D01*
X111186317Y-123071758D01*
X111040000Y-123042654D01*
X110440000Y-123042654D01*
X110293683Y-123071758D01*
X110169641Y-123154641D01*
X110086758Y-123278683D01*
X110057654Y-123425000D01*
X110057654Y-123775000D01*
X110060828Y-123790957D01*
X110035883Y-123917054D01*
X110017730Y-123798207D01*
X110022346Y-123775000D01*
X110022346Y-123425000D01*
X109993242Y-123278683D01*
X109910359Y-123154641D01*
X109786317Y-123071758D01*
X109640000Y-123042654D01*
X109040000Y-123042654D01*
X108893683Y-123071758D01*
X108769641Y-123154641D01*
X108704346Y-123252361D01*
X108704346Y-122793500D01*
X108675242Y-122647183D01*
X108592359Y-122523141D01*
X108468317Y-122440258D01*
X108322000Y-122411154D01*
X107306000Y-122411154D01*
X107159683Y-122440258D01*
X107035641Y-122523141D01*
X106952758Y-122647183D01*
X106923654Y-122793500D01*
X106923654Y-123425237D01*
X106852021Y-123425174D01*
X106827846Y-123435163D01*
X106827846Y-123018000D01*
X106798742Y-122871683D01*
X106715859Y-122747641D01*
X106591817Y-122664758D01*
X106445500Y-122635654D01*
X105556500Y-122635654D01*
X105410183Y-122664758D01*
X105286141Y-122747641D01*
X105203258Y-122871683D01*
X105174154Y-123018000D01*
X105174154Y-124034000D01*
X105203258Y-124180317D01*
X105286141Y-124304359D01*
X105410183Y-124387242D01*
X105556500Y-124416346D01*
X105820500Y-124416346D01*
X105820500Y-124429900D01*
X105849959Y-124578000D01*
X105858560Y-124621242D01*
X105966947Y-124783453D01*
X106362446Y-125178953D01*
X106375013Y-125187350D01*
X106384147Y-125199398D01*
X106455719Y-125241276D01*
X106524658Y-125287340D01*
X106539484Y-125290289D01*
X106552531Y-125297923D01*
X108111432Y-125837223D01*
X108222223Y-125852465D01*
X108225000Y-125853512D01*
X108225000Y-126277142D01*
X108264202Y-126474224D01*
X108375840Y-126641302D01*
X108542918Y-126752940D01*
X108740000Y-126792142D01*
X108937082Y-126752940D01*
X108990000Y-126717581D01*
X109042918Y-126752940D01*
X109240000Y-126792142D01*
X109437082Y-126752940D01*
X109490000Y-126717581D01*
X109542918Y-126752940D01*
X109740000Y-126792142D01*
X109937082Y-126752940D01*
X109990000Y-126717581D01*
X110042918Y-126752940D01*
X110240000Y-126792142D01*
X110437082Y-126752940D01*
X110490000Y-126717581D01*
X110542918Y-126752940D01*
X110740000Y-126792142D01*
X110812224Y-126777776D01*
X110797858Y-126850000D01*
X110837060Y-127047082D01*
X110872419Y-127100000D01*
X110837060Y-127152918D01*
X110797858Y-127350000D01*
X110837060Y-127547082D01*
X110872419Y-127600000D01*
X110837060Y-127652918D01*
X110797858Y-127850000D01*
X110837060Y-128047082D01*
X110872419Y-128100000D01*
X110837060Y-128152918D01*
X110797858Y-128350000D01*
X110837060Y-128547082D01*
X110872419Y-128600000D01*
X110837060Y-128652918D01*
X110797858Y-128850000D01*
X110812224Y-128922224D01*
X110740000Y-128907858D01*
X110542918Y-128947060D01*
X110490000Y-128982419D01*
X110437082Y-128947060D01*
X110240000Y-128907858D01*
X110042918Y-128947060D01*
X109990000Y-128982419D01*
X109937082Y-128947060D01*
X109740000Y-128907858D01*
X109542918Y-128947060D01*
X109490000Y-128982419D01*
X109437082Y-128947060D01*
X109240000Y-128907858D01*
X109042918Y-128947060D01*
X109034843Y-128952455D01*
X109026317Y-128946758D01*
X108880000Y-128917654D01*
X108668685Y-128917654D01*
X108682142Y-128850000D01*
X108642940Y-128652918D01*
X108531302Y-128485840D01*
X108364224Y-128374202D01*
X108242552Y-128350000D01*
X108364224Y-128325798D01*
X108531302Y-128214160D01*
X108642940Y-128047082D01*
X108682142Y-127850000D01*
X108642940Y-127652918D01*
X108607581Y-127600000D01*
X108642940Y-127547082D01*
X108682142Y-127350000D01*
X108642940Y-127152918D01*
X108531302Y-126985840D01*
X108364224Y-126874202D01*
X108167142Y-126835000D01*
X107412858Y-126835000D01*
X107272920Y-126862835D01*
X106682346Y-126648482D01*
X106682346Y-125900000D01*
X106653242Y-125753683D01*
X106570359Y-125629641D01*
X106446317Y-125546758D01*
X106300000Y-125517654D01*
X105400000Y-125517654D01*
X105253683Y-125546758D01*
X105129641Y-125629641D01*
X105046758Y-125753683D01*
X105017654Y-125900000D01*
X105017654Y-126900000D01*
X105046758Y-127046317D01*
X105129641Y-127170359D01*
X105251595Y-127251847D01*
X105147141Y-127321641D01*
X105064258Y-127445683D01*
X105035154Y-127592000D01*
X105035154Y-128608000D01*
X105051042Y-128687878D01*
X104991933Y-128746884D01*
X104881326Y-129013256D01*
X104881074Y-129301679D01*
X104991216Y-129568243D01*
X105194984Y-129772367D01*
X105461356Y-129882974D01*
X105749779Y-129883226D01*
X106016343Y-129773084D01*
X106220467Y-129569316D01*
X106331074Y-129302944D01*
X106331326Y-129014521D01*
X106320210Y-128987619D01*
X106452817Y-128961242D01*
X106576859Y-128878359D01*
X106659742Y-128754317D01*
X106688846Y-128608000D01*
X106688846Y-128350000D01*
X107337448Y-128350000D01*
X107215776Y-128374202D01*
X107048698Y-128485840D01*
X106937060Y-128652918D01*
X106897858Y-128850000D01*
X106937060Y-129047082D01*
X107048698Y-129214160D01*
X107049900Y-129214963D01*
X107049900Y-129761060D01*
X106910633Y-129900084D01*
X106800026Y-130166456D01*
X106799774Y-130454879D01*
X106909916Y-130721443D01*
X107113684Y-130925567D01*
X107380056Y-131036174D01*
X107664772Y-131036423D01*
X107765516Y-131280243D01*
X107969284Y-131484367D01*
X108235656Y-131594974D01*
X108524079Y-131595226D01*
X108700525Y-131522320D01*
X108685299Y-131532546D01*
X108642641Y-131549676D01*
X108182941Y-131849676D01*
X108145822Y-131885998D01*
X108102647Y-131914847D01*
X108029347Y-131988147D01*
X108013974Y-132011154D01*
X107492000Y-132011154D01*
X107345683Y-132040258D01*
X107221641Y-132123141D01*
X107138758Y-132247183D01*
X107109654Y-132393500D01*
X107109654Y-133282500D01*
X107138758Y-133428817D01*
X107221641Y-133552859D01*
X107345683Y-133635742D01*
X107492000Y-133664846D01*
X108508000Y-133664846D01*
X108654317Y-133635742D01*
X108778359Y-133552859D01*
X108800000Y-133520471D01*
X108821641Y-133552859D01*
X108945683Y-133635742D01*
X109092000Y-133664846D01*
X110108000Y-133664846D01*
X110254317Y-133635742D01*
X110378359Y-133552859D01*
X110398153Y-133523235D01*
X110429641Y-133570359D01*
X110474001Y-133600000D01*
X110429641Y-133629641D01*
X110346758Y-133753683D01*
X110317654Y-133900000D01*
X110317654Y-134800000D01*
X110346758Y-134946317D01*
X110429641Y-135070359D01*
X110553683Y-135153242D01*
X110700000Y-135182346D01*
X111452433Y-135182346D01*
X111566026Y-135489588D01*
X111571149Y-135497935D01*
X111573060Y-135507542D01*
X111621997Y-135580781D01*
X111668077Y-135655858D01*
X111676006Y-135661610D01*
X111681447Y-135669753D01*
X112082747Y-136071053D01*
X112244958Y-136179440D01*
X112436300Y-136217500D01*
X112846819Y-136217500D01*
X112846674Y-136383779D01*
X112956816Y-136650343D01*
X113160584Y-136854467D01*
X113331740Y-136925537D01*
X113329286Y-136933124D01*
X113312960Y-136957558D01*
X113299509Y-137025184D01*
X113278289Y-137090787D01*
X113059806Y-138957850D01*
X113050000Y-138955899D01*
X112854831Y-138994720D01*
X112800000Y-139031357D01*
X112745169Y-138994720D01*
X112550000Y-138955899D01*
X112354831Y-138994720D01*
X112300000Y-139031357D01*
X112245169Y-138994720D01*
X112050000Y-138955899D01*
X111854831Y-138994720D01*
X111689376Y-139105275D01*
X111578821Y-139270730D01*
X111550000Y-139415625D01*
X111521179Y-139270730D01*
X111410624Y-139105275D01*
X111354100Y-139067507D01*
X111388674Y-138984244D01*
X111388926Y-138695821D01*
X111278784Y-138429257D01*
X111075016Y-138225133D01*
X110808644Y-138114526D01*
X110520221Y-138114274D01*
X110490346Y-138126618D01*
X110490346Y-137917500D01*
X110461242Y-137771183D01*
X110378359Y-137647141D01*
X110254317Y-137564258D01*
X110108000Y-137535154D01*
X109092000Y-137535154D01*
X108945683Y-137564258D01*
X108821641Y-137647141D01*
X108738758Y-137771183D01*
X108709654Y-137917500D01*
X108709654Y-138223518D01*
X108189108Y-137554776D01*
X105488318Y-133633551D01*
X105624804Y-133304858D01*
X105625195Y-132857305D01*
X105454285Y-132443671D01*
X105138093Y-132126928D01*
X104724758Y-131955296D01*
X104277205Y-131954905D01*
X103863571Y-132125815D01*
X103546828Y-132442007D01*
X103375196Y-132855342D01*
X103374805Y-133302895D01*
X103545715Y-133716529D01*
X103861907Y-134033272D01*
X104275242Y-134204904D01*
X104667836Y-134205247D01*
X104924831Y-134578374D01*
X104724758Y-134495296D01*
X104277205Y-134494905D01*
X103863571Y-134665815D01*
X103546828Y-134982007D01*
X103375196Y-135395342D01*
X103374805Y-135842895D01*
X103545715Y-136256529D01*
X103861907Y-136573272D01*
X104275242Y-136744904D01*
X104567778Y-136745160D01*
X104736648Y-137040233D01*
X104724758Y-137035296D01*
X104277205Y-137034905D01*
X103863571Y-137205815D01*
X103546828Y-137522007D01*
X103375196Y-137935342D01*
X103374805Y-138382895D01*
X103545715Y-138796529D01*
X103861907Y-139113272D01*
X104275242Y-139284904D01*
X104567778Y-139285160D01*
X105237545Y-140455471D01*
X108144045Y-145892810D01*
X108190646Y-145949590D01*
X108231447Y-146010653D01*
X108524347Y-146303553D01*
X108577910Y-146339343D01*
X108555899Y-146450000D01*
X108572769Y-146534815D01*
X105572225Y-143591482D01*
X105624804Y-143464858D01*
X105625195Y-143017305D01*
X105454285Y-142603671D01*
X105138093Y-142286928D01*
X104724758Y-142115296D01*
X104277205Y-142114905D01*
X103863571Y-142285815D01*
X103546828Y-142602007D01*
X103375196Y-143015342D01*
X103374805Y-143462895D01*
X103545715Y-143876529D01*
X103861907Y-144193272D01*
X104275242Y-144364904D01*
X104722795Y-144365295D01*
X104870738Y-144304166D01*
X105221004Y-144647754D01*
X103750000Y-144647754D01*
X103603683Y-144676858D01*
X103479641Y-144759741D01*
X103396758Y-144883783D01*
X103367654Y-145030100D01*
X103367654Y-146530100D01*
X103396758Y-146676417D01*
X103479641Y-146800459D01*
X103603683Y-146883342D01*
X103750000Y-146912446D01*
X104756074Y-146912446D01*
X104771447Y-146935453D01*
X104844646Y-147008653D01*
X104894313Y-147041840D01*
X104938303Y-147082246D01*
X104974667Y-147095531D01*
X105006858Y-147117040D01*
X105065441Y-147128693D01*
X105121549Y-147149190D01*
X106253226Y-147324754D01*
X106456484Y-147528367D01*
X106722856Y-147638974D01*
X107011279Y-147639226D01*
X107277843Y-147529084D01*
X107481967Y-147325316D01*
X107592574Y-147058944D01*
X107592648Y-146974177D01*
X108502866Y-147867040D01*
X108538645Y-147890452D01*
X108568379Y-147921186D01*
X108619495Y-147943356D01*
X108666113Y-147973860D01*
X108708130Y-147981798D01*
X108747361Y-147998813D01*
X110540000Y-148386307D01*
X110540000Y-148934101D01*
X110578821Y-149129270D01*
X110689376Y-149294725D01*
X110854831Y-149405280D01*
X111050000Y-149444101D01*
X111245169Y-149405280D01*
X111300000Y-149368643D01*
X111354831Y-149405280D01*
X111550000Y-149444101D01*
X111745169Y-149405280D01*
X111800000Y-149368643D01*
X111854831Y-149405280D01*
X112050000Y-149444101D01*
X112245169Y-149405280D01*
X112300000Y-149368643D01*
X112354831Y-149405280D01*
X112550000Y-149444101D01*
X112745169Y-149405280D01*
X112800000Y-149368643D01*
X112854831Y-149405280D01*
X113050000Y-149444101D01*
X113245169Y-149405280D01*
X113300000Y-149368643D01*
X113354831Y-149405280D01*
X113550000Y-149444101D01*
X113745169Y-149405280D01*
X113800000Y-149368643D01*
X113854831Y-149405280D01*
X114050000Y-149444101D01*
X114245169Y-149405280D01*
X114410624Y-149294725D01*
X114521179Y-149129270D01*
X114550000Y-148984375D01*
X114578821Y-149129270D01*
X114689376Y-149294725D01*
X114854831Y-149405280D01*
X115050000Y-149444101D01*
X115245169Y-149405280D01*
X115300000Y-149368643D01*
X115354831Y-149405280D01*
X115550000Y-149444101D01*
X115745169Y-149405280D01*
X115910624Y-149294725D01*
X116021179Y-149129270D01*
X116050000Y-148984375D01*
X116078821Y-149129270D01*
X116189376Y-149294725D01*
X116354831Y-149405280D01*
X116550000Y-149444101D01*
X116745169Y-149405280D01*
X116910624Y-149294725D01*
X116959656Y-149221344D01*
X117090256Y-149275574D01*
X117378679Y-149275826D01*
X117645243Y-149165684D01*
X117682635Y-149128357D01*
X118540502Y-149265114D01*
X118535154Y-149292000D01*
X118535154Y-150308000D01*
X118564258Y-150454317D01*
X118611487Y-150525000D01*
X104889822Y-150525000D01*
X104813632Y-150141965D01*
X104742707Y-149970737D01*
X104309162Y-149321890D01*
X104178110Y-149190838D01*
X104178107Y-149190837D01*
X103529263Y-148757293D01*
X103478108Y-148736104D01*
X103358035Y-148686368D01*
X102975000Y-148610178D01*
X102975000Y-114625000D01*
X106675000Y-114625000D01*
X106675000Y-119400000D01*
X106684515Y-119447835D01*
X106711612Y-119488388D01*
X106752165Y-119515485D01*
X106800000Y-119525000D01*
X107677525Y-119525000D01*
X107643641Y-119547641D01*
X107560758Y-119671683D01*
X107531654Y-119818000D01*
X107531654Y-120418000D01*
X107560758Y-120564317D01*
X107643641Y-120688359D01*
X107767683Y-120771242D01*
X107914000Y-120800346D01*
X108514000Y-120800346D01*
X108550931Y-120793000D01*
X108632006Y-120793000D01*
X108815538Y-120796419D01*
X108809654Y-120826000D01*
X108809654Y-121426000D01*
X108838758Y-121572317D01*
X108921641Y-121696359D01*
X109002183Y-121750176D01*
X108893683Y-121771758D01*
X108769641Y-121854641D01*
X108686758Y-121978683D01*
X108657654Y-122125000D01*
X108657654Y-122475000D01*
X108686758Y-122621317D01*
X108769641Y-122745359D01*
X108893683Y-122828242D01*
X109040000Y-122857346D01*
X109640000Y-122857346D01*
X109786317Y-122828242D01*
X109910359Y-122745359D01*
X109993242Y-122621317D01*
X110022346Y-122475000D01*
X110022346Y-122125000D01*
X109993242Y-121978683D01*
X109967000Y-121939409D01*
X109967000Y-121802062D01*
X110333127Y-121808883D01*
X110339425Y-121807752D01*
X110345700Y-121809000D01*
X110433069Y-121809000D01*
X110470000Y-121816346D01*
X111070000Y-121816346D01*
X111216317Y-121787242D01*
X111340359Y-121704359D01*
X111423242Y-121580317D01*
X111452346Y-121434000D01*
X111452346Y-120834000D01*
X111423242Y-120687683D01*
X111340359Y-120563641D01*
X111216317Y-120480758D01*
X111070000Y-120451654D01*
X110470000Y-120451654D01*
X110433069Y-120459000D01*
X110351994Y-120459000D01*
X110168462Y-120455581D01*
X110174346Y-120426000D01*
X110174346Y-119826000D01*
X110167000Y-119789069D01*
X110167000Y-119701700D01*
X110160646Y-119669758D01*
X110163926Y-119637358D01*
X110153167Y-119525000D01*
X111400000Y-119525000D01*
X111447835Y-119515485D01*
X111488388Y-119488388D01*
X111515485Y-119447835D01*
X111525000Y-119400000D01*
X111525000Y-118000000D01*
X120525000Y-118000000D01*
X120713398Y-118947141D01*
X121249911Y-119750089D01*
X122052859Y-120286602D01*
X123000000Y-120475000D01*
X123947141Y-120286602D01*
X124750089Y-119750089D01*
X125286602Y-118947141D01*
X125475000Y-118000000D01*
X153525000Y-118000000D01*
X153713398Y-118947141D01*
X154249911Y-119750089D01*
X155052859Y-120286602D01*
X156000000Y-120475000D01*
X156947141Y-120286602D01*
X157750089Y-119750089D01*
X158286602Y-118947141D01*
X158475000Y-118000000D01*
X158286602Y-117052859D01*
X157750089Y-116249911D01*
X156947141Y-115713398D01*
X156000000Y-115525000D01*
X155052859Y-115713398D01*
X154249911Y-116249911D01*
X153713398Y-117052859D01*
X153525000Y-118000000D01*
X125475000Y-118000000D01*
X125286602Y-117052859D01*
X124750089Y-116249911D01*
X123947141Y-115713398D01*
X123000000Y-115525000D01*
X122052859Y-115713398D01*
X121249911Y-116249911D01*
X120713398Y-117052859D01*
X120525000Y-118000000D01*
X111525000Y-118000000D01*
X111525000Y-114525000D01*
X159025000Y-114525000D01*
X159025000Y-136953956D01*
X159025000Y-136953956D01*
G37*
X159025000Y-136953956D02*
X157862246Y-134756294D01*
X157808182Y-134689845D01*
X157760587Y-134618614D01*
X157643386Y-134501414D01*
X157536346Y-134429892D01*
X157536346Y-132408000D01*
X157507242Y-132261683D01*
X157424359Y-132137641D01*
X157300317Y-132054758D01*
X157154000Y-132025654D01*
X156580900Y-132025654D01*
X156580900Y-131363526D01*
X156655542Y-131251817D01*
X156684646Y-131105500D01*
X156684646Y-130089500D01*
X156655542Y-129943183D01*
X156572659Y-129819141D01*
X156530400Y-129790904D01*
X156530400Y-129774048D01*
X156656617Y-129748942D01*
X156780659Y-129666059D01*
X156863542Y-129542017D01*
X156892646Y-129395700D01*
X156892646Y-129159408D01*
X156999686Y-129087886D01*
X157116887Y-128970686D01*
X157159066Y-128907560D01*
X157208980Y-128850357D01*
X157609480Y-128152657D01*
X157621354Y-128117388D01*
X157642031Y-128086443D01*
X157656843Y-128011980D01*
X157681066Y-127940031D01*
X157678539Y-127902902D01*
X157685800Y-127866400D01*
X157685800Y-126454600D01*
X157667593Y-126363065D01*
X157655539Y-126270521D01*
X157645829Y-126253648D01*
X157642031Y-126234557D01*
X157590184Y-126156964D01*
X157543629Y-126076071D01*
X156772629Y-125194471D01*
X156757202Y-125182600D01*
X156746387Y-125166414D01*
X156629186Y-125049214D01*
X156522146Y-124977692D01*
X156522146Y-124639800D01*
X156493042Y-124493483D01*
X156410159Y-124369441D01*
X156286117Y-124286558D01*
X156139800Y-124257454D01*
X155928909Y-124257454D01*
X155857387Y-124150414D01*
X155740186Y-124033214D01*
X155721139Y-124020487D01*
X155706952Y-124002498D01*
X155237852Y-123601998D01*
X155159349Y-123558053D01*
X155084543Y-123508069D01*
X155062073Y-123503599D01*
X155042084Y-123492410D01*
X154952742Y-123481852D01*
X154864500Y-123464300D01*
X153478100Y-123464300D01*
X153468749Y-123466160D01*
X153459343Y-123464606D01*
X127011543Y-124327806D01*
X126911246Y-124351182D01*
X126810257Y-124371269D01*
X126802329Y-124376566D01*
X126793045Y-124378730D01*
X126709338Y-124438701D01*
X126623713Y-124495914D01*
X126271914Y-124847714D01*
X126236981Y-124899995D01*
X126193501Y-124945429D01*
X123415001Y-129308330D01*
X123411377Y-129317654D01*
X123020000Y-129317654D01*
X122873683Y-129346758D01*
X122749641Y-129429641D01*
X122666758Y-129553683D01*
X122637654Y-129700000D01*
X122637654Y-130700000D01*
X122666758Y-130846317D01*
X122749641Y-130970359D01*
X122873683Y-131053242D01*
X123020000Y-131082346D01*
X123087232Y-131082346D01*
X122911357Y-131155016D01*
X122707233Y-131358784D01*
X122596626Y-131625156D01*
X122596374Y-131913579D01*
X122706516Y-132180143D01*
X122910284Y-132384267D01*
X123176656Y-132494874D01*
X123465079Y-132495126D01*
X123731643Y-132384984D01*
X123935767Y-132181216D01*
X124030920Y-131952061D01*
X124557506Y-131664241D01*
X124574036Y-131650415D01*
X124593974Y-131642241D01*
X127607073Y-129644741D01*
X127642660Y-129609412D01*
X127684353Y-129581553D01*
X127757553Y-129508354D01*
X127772927Y-129485346D01*
X130079000Y-129485346D01*
X130225317Y-129456242D01*
X130349359Y-129373359D01*
X130432242Y-129249317D01*
X130461346Y-129103000D01*
X130461346Y-126126639D01*
X153676098Y-126030700D01*
X153689366Y-126030700D01*
X153726800Y-126038146D01*
X154118822Y-126038146D01*
X154125696Y-126049212D01*
X155105796Y-127096712D01*
X155112657Y-127101634D01*
X155117347Y-127108653D01*
X155190546Y-127181853D01*
X155213554Y-127197227D01*
X155213554Y-127617700D01*
X155242658Y-127764017D01*
X155325541Y-127888059D01*
X155449583Y-127970942D01*
X155595900Y-128000046D01*
X156371084Y-128000046D01*
X156314307Y-128098954D01*
X155595900Y-128098954D01*
X155449583Y-128128058D01*
X155325541Y-128210941D01*
X155242658Y-128334983D01*
X155213554Y-128481300D01*
X155213554Y-129395700D01*
X155242658Y-129542017D01*
X155325541Y-129666059D01*
X155380400Y-129702715D01*
X155380400Y-129713698D01*
X155266983Y-129736258D01*
X155142941Y-129819141D01*
X155095800Y-129889692D01*
X155048659Y-129819141D01*
X154924617Y-129736258D01*
X154778300Y-129707154D01*
X154752400Y-129707154D01*
X154752400Y-128771460D01*
X154831542Y-128653017D01*
X154860646Y-128506700D01*
X154860646Y-127592300D01*
X154831542Y-127445983D01*
X154748659Y-127321941D01*
X154624617Y-127239058D01*
X154478300Y-127209954D01*
X153563900Y-127209954D01*
X153417583Y-127239058D01*
X153293541Y-127321941D01*
X153210658Y-127445983D01*
X153181554Y-127592300D01*
X153181554Y-128506700D01*
X153210658Y-128653017D01*
X153293541Y-128777059D01*
X153417583Y-128859942D01*
X153563900Y-128889046D01*
X153602400Y-128889046D01*
X153602400Y-129843896D01*
X153536058Y-129943183D01*
X153506954Y-130089500D01*
X153506954Y-131105500D01*
X153509886Y-131120241D01*
X153242858Y-132025654D01*
X151954000Y-132025654D01*
X151807683Y-132054758D01*
X151683641Y-132137641D01*
X151600758Y-132261683D01*
X151571654Y-132408000D01*
X151571654Y-135108000D01*
X151600758Y-135254317D01*
X151683641Y-135378359D01*
X151807683Y-135461242D01*
X151954000Y-135490346D01*
X153275624Y-135490346D01*
X153319816Y-135567773D01*
X154188388Y-136568164D01*
X152664570Y-136568164D01*
X152518253Y-136597268D01*
X152394211Y-136680151D01*
X152311328Y-136804193D01*
X152282224Y-136950510D01*
X152282224Y-138949490D01*
X152311328Y-139095807D01*
X152394211Y-139219849D01*
X152518253Y-139302732D01*
X152664570Y-139331836D01*
X154343764Y-139331836D01*
X154977729Y-139876158D01*
X155052754Y-139918432D01*
X155052754Y-140154300D01*
X155081858Y-140300617D01*
X155164741Y-140424659D01*
X155288783Y-140507542D01*
X155435100Y-140536646D01*
X156349500Y-140536646D01*
X156495817Y-140507542D01*
X156619859Y-140424659D01*
X156702742Y-140300617D01*
X156731846Y-140154300D01*
X156731846Y-139239900D01*
X156702742Y-139093583D01*
X156619859Y-138969541D01*
X156495817Y-138886658D01*
X156349500Y-138857554D01*
X156210100Y-138857554D01*
X156210100Y-138465000D01*
X156192643Y-138377237D01*
X156182294Y-138288354D01*
X155613094Y-136525154D01*
X155611665Y-136522591D01*
X155611296Y-136519677D01*
X155557090Y-136424704D01*
X155503842Y-136329198D01*
X155501539Y-136327375D01*
X155500084Y-136324826D01*
X154336346Y-134984475D01*
X154336346Y-132408000D01*
X154333414Y-132393259D01*
X154600442Y-131487846D01*
X154778300Y-131487846D01*
X154924617Y-131458742D01*
X155048659Y-131375859D01*
X155095800Y-131305308D01*
X155142941Y-131375859D01*
X155266983Y-131458742D01*
X155413300Y-131487846D01*
X155430900Y-131487846D01*
X155430900Y-132025654D01*
X155154000Y-132025654D01*
X155007683Y-132054758D01*
X154883641Y-132137641D01*
X154800758Y-132261683D01*
X154771654Y-132408000D01*
X154771654Y-135108000D01*
X154800758Y-135254317D01*
X154883641Y-135378359D01*
X155007683Y-135461242D01*
X155154000Y-135490346D01*
X156949582Y-135490346D01*
X158260769Y-137968554D01*
X157467100Y-137968554D01*
X157320783Y-137997658D01*
X157196741Y-138080541D01*
X157113858Y-138204583D01*
X157084754Y-138350900D01*
X157084754Y-139265300D01*
X157113858Y-139411617D01*
X157196741Y-139535659D01*
X157320783Y-139618542D01*
X157467100Y-139647646D01*
X158381500Y-139647646D01*
X158407000Y-139642574D01*
X158407000Y-139751626D01*
X158381500Y-139746554D01*
X157467100Y-139746554D01*
X157320783Y-139775658D01*
X157196741Y-139858541D01*
X157113858Y-139982583D01*
X157084754Y-140128900D01*
X157084754Y-141043300D01*
X157113858Y-141189617D01*
X157196741Y-141313659D01*
X157320783Y-141396542D01*
X157467100Y-141425646D01*
X157910209Y-141425646D01*
X152707722Y-144808682D01*
X152290283Y-144390514D01*
X151234600Y-143952157D01*
X151234600Y-142997407D01*
X151299789Y-142953849D01*
X151382672Y-142829807D01*
X151411776Y-142683490D01*
X151411776Y-140684510D01*
X151382672Y-140538193D01*
X151299789Y-140414151D01*
X151175747Y-140331268D01*
X151029430Y-140302164D01*
X149228570Y-140302164D01*
X149082253Y-140331268D01*
X148958211Y-140414151D01*
X148875328Y-140538193D01*
X148846224Y-140684510D01*
X148846224Y-142683490D01*
X148875328Y-142829807D01*
X148958211Y-142953849D01*
X149082253Y-143036732D01*
X149228570Y-143065836D01*
X150084600Y-143065836D01*
X150084600Y-143953231D01*
X149033171Y-144387672D01*
X148223714Y-145195717D01*
X147785100Y-146252018D01*
X147784102Y-147395764D01*
X148220872Y-148452829D01*
X149028917Y-149262286D01*
X150085218Y-149700900D01*
X151228964Y-149701898D01*
X152286029Y-149265128D01*
X153095486Y-148457083D01*
X153534100Y-147400782D01*
X153535098Y-146257036D01*
X153334928Y-145772587D01*
X158943561Y-142125445D01*
X158986647Y-142083421D01*
X159025000Y-142057794D01*
X159025000Y-148610178D01*
X158641965Y-148686368D01*
X158470737Y-148757293D01*
X157821890Y-149190838D01*
X157690838Y-149321890D01*
X157690838Y-149321891D01*
X157257293Y-149970737D01*
X157186368Y-150141965D01*
X157110178Y-150525000D01*
X138675000Y-150525000D01*
X138675000Y-144326400D01*
X139777254Y-144326400D01*
X139777254Y-149326400D01*
X139806358Y-149472717D01*
X139889241Y-149596759D01*
X140013283Y-149679642D01*
X140159600Y-149708746D01*
X145159600Y-149708746D01*
X145305917Y-149679642D01*
X145429959Y-149596759D01*
X145512842Y-149472717D01*
X145541946Y-149326400D01*
X145541946Y-144326400D01*
X145512842Y-144180083D01*
X145429959Y-144056041D01*
X145305917Y-143973158D01*
X145159600Y-143944054D01*
X142627000Y-143944054D01*
X142627000Y-141882931D01*
X142634346Y-141846000D01*
X142634346Y-138446000D01*
X144869654Y-138446000D01*
X144869654Y-141846000D01*
X144898758Y-141992317D01*
X144981641Y-142116359D01*
X145105683Y-142199242D01*
X145252000Y-142228346D01*
X146852000Y-142228346D01*
X146998317Y-142199242D01*
X147122359Y-142116359D01*
X147205242Y-141992317D01*
X147234346Y-141846000D01*
X147234346Y-139248500D01*
X149191689Y-139248500D01*
X149228570Y-139255836D01*
X150351285Y-139255836D01*
X150422814Y-139362886D01*
X150540014Y-139480087D01*
X150563007Y-139495450D01*
X150580484Y-139516878D01*
X152282224Y-140922080D01*
X152282224Y-142759490D01*
X152311328Y-142905807D01*
X152394211Y-143029849D01*
X152518253Y-143112732D01*
X152664570Y-143141836D01*
X154465430Y-143141836D01*
X154611747Y-143112732D01*
X154735789Y-143029849D01*
X154818672Y-142905807D01*
X154847776Y-142759490D01*
X154847776Y-140760510D01*
X154818672Y-140614193D01*
X154735789Y-140490151D01*
X154611747Y-140407268D01*
X154465430Y-140378164D01*
X153342715Y-140378164D01*
X153271187Y-140271114D01*
X153153986Y-140153914D01*
X153130995Y-140138552D01*
X153113517Y-140117123D01*
X151411776Y-138711920D01*
X151411776Y-136874510D01*
X151382672Y-136728193D01*
X151299789Y-136604151D01*
X151175747Y-136521268D01*
X151029430Y-136492164D01*
X149228570Y-136492164D01*
X149082253Y-136521268D01*
X148958211Y-136604151D01*
X148875328Y-136728193D01*
X148846224Y-136874510D01*
X148846224Y-138098500D01*
X147006910Y-138098500D01*
X146998317Y-138092758D01*
X146852000Y-138063654D01*
X145252000Y-138063654D01*
X145105683Y-138092758D01*
X144981641Y-138175641D01*
X144898758Y-138299683D01*
X144869654Y-138446000D01*
X142634346Y-138446000D01*
X142605242Y-138299683D01*
X142522359Y-138175641D01*
X142398317Y-138092758D01*
X142252000Y-138063654D01*
X140652000Y-138063654D01*
X140505683Y-138092758D01*
X140381641Y-138175641D01*
X140298758Y-138299683D01*
X140269654Y-138446000D01*
X140269654Y-141846000D01*
X140298758Y-141992317D01*
X140381641Y-142116359D01*
X140505683Y-142199242D01*
X140652000Y-142228346D01*
X141477000Y-142228346D01*
X141477000Y-143944054D01*
X140159600Y-143944054D01*
X140013283Y-143973158D01*
X139889241Y-144056041D01*
X139806358Y-144180083D01*
X139777254Y-144326400D01*
X138675000Y-144326400D01*
X138675000Y-137400000D01*
X138638843Y-137218225D01*
X138535876Y-137064124D01*
X138381775Y-136961157D01*
X138200000Y-136925000D01*
X131800000Y-136925000D01*
X131618225Y-136961157D01*
X131464124Y-137064124D01*
X131361157Y-137218225D01*
X131325000Y-137400000D01*
X131325000Y-150525000D01*
X120112513Y-150525000D01*
X120159742Y-150454317D01*
X120188846Y-150308000D01*
X120188846Y-149437905D01*
X122013417Y-149330740D01*
X122077526Y-149314027D01*
X122143235Y-149305600D01*
X122171110Y-149289630D01*
X122202198Y-149281526D01*
X122255030Y-149241553D01*
X122312513Y-149208621D01*
X123573713Y-148110021D01*
X123584367Y-148096232D01*
X123598853Y-148086553D01*
X123672053Y-148013354D01*
X123687427Y-147990346D01*
X124082500Y-147990346D01*
X124228817Y-147961242D01*
X124352859Y-147878359D01*
X124435742Y-147754317D01*
X124464846Y-147608000D01*
X124464846Y-146592000D01*
X124435742Y-146445683D01*
X124352859Y-146321641D01*
X124320471Y-146300000D01*
X124352859Y-146278359D01*
X124435742Y-146154317D01*
X124464846Y-146008000D01*
X124464846Y-145201879D01*
X125758374Y-145201879D01*
X125868516Y-145468443D01*
X126072284Y-145672567D01*
X126338656Y-145783174D01*
X126627079Y-145783426D01*
X126893643Y-145673284D01*
X126943147Y-145623867D01*
X127518712Y-145700450D01*
X127557779Y-145795000D01*
X127803705Y-146041356D01*
X128125188Y-146174848D01*
X128473285Y-146175151D01*
X128795000Y-146042221D01*
X129041356Y-145796295D01*
X129174848Y-145474812D01*
X129175151Y-145126715D01*
X129042221Y-144805000D01*
X128796295Y-144558644D01*
X128474812Y-144425152D01*
X128126715Y-144424849D01*
X127805000Y-144557779D01*
X127653008Y-144709506D01*
X127084169Y-144633817D01*
X126894716Y-144444033D01*
X126628344Y-144333426D01*
X126339921Y-144333174D01*
X126073357Y-144443316D01*
X125869233Y-144647084D01*
X125758626Y-144913456D01*
X125758374Y-145201879D01*
X124464846Y-145201879D01*
X124464846Y-144992000D01*
X124435742Y-144845683D01*
X124352859Y-144721641D01*
X124347681Y-144718181D01*
X124371959Y-144701959D01*
X124454842Y-144577917D01*
X124483946Y-144431600D01*
X124483946Y-143572943D01*
X125627579Y-142548164D01*
X127724676Y-142058096D01*
X127738500Y-142060846D01*
X128338500Y-142060846D01*
X128484817Y-142031742D01*
X128608859Y-141948859D01*
X128691742Y-141824817D01*
X128720846Y-141678500D01*
X128720846Y-141078500D01*
X128691742Y-140932183D01*
X128655872Y-140878500D01*
X128691742Y-140824817D01*
X128720846Y-140678500D01*
X128720846Y-140078500D01*
X128691742Y-139932183D01*
X128608859Y-139808141D01*
X128484817Y-139725258D01*
X128338500Y-139696154D01*
X128249845Y-139696154D01*
X128034837Y-139325070D01*
X128061174Y-139261644D01*
X128061426Y-138973221D01*
X127951284Y-138706657D01*
X127747516Y-138502533D01*
X127481144Y-138391926D01*
X127192721Y-138391674D01*
X126926157Y-138501816D01*
X126722033Y-138705584D01*
X126611426Y-138971956D01*
X126611174Y-139260379D01*
X126721316Y-139526943D01*
X126925084Y-139731067D01*
X127174305Y-139834552D01*
X127356154Y-140148408D01*
X127356154Y-140678500D01*
X127385258Y-140824817D01*
X127421128Y-140878500D01*
X127385258Y-140932183D01*
X127356154Y-141078500D01*
X127356154Y-141117274D01*
X125275421Y-141603518D01*
X125250511Y-141614819D01*
X125223427Y-141618680D01*
X125162365Y-141654810D01*
X125097760Y-141684121D01*
X125079070Y-141704096D01*
X125055526Y-141718027D01*
X123716126Y-142918227D01*
X123707792Y-142929332D01*
X123696246Y-142937047D01*
X123623047Y-143010247D01*
X123607674Y-143033254D01*
X123212600Y-143033254D01*
X123150560Y-143045594D01*
X122476469Y-142649114D01*
X122371784Y-142395757D01*
X122168016Y-142191633D01*
X121901644Y-142081026D01*
X121613221Y-142080774D01*
X121346657Y-142190916D01*
X121142533Y-142394684D01*
X121031926Y-142661056D01*
X121031674Y-142949479D01*
X121141816Y-143216043D01*
X121345584Y-143420167D01*
X121611956Y-143530774D01*
X121900379Y-143531026D01*
X121960900Y-143506019D01*
X122830254Y-144017347D01*
X122830254Y-144396570D01*
X119817340Y-142857624D01*
X119796415Y-142851700D01*
X119778252Y-142839733D01*
X119027321Y-142534359D01*
X119044101Y-142450000D01*
X119022090Y-142339343D01*
X119075653Y-142303553D01*
X119368553Y-142010653D01*
X119476940Y-141848442D01*
X119481983Y-141823087D01*
X119515000Y-141657100D01*
X119515000Y-141242900D01*
X119508109Y-141208254D01*
X119510088Y-141172985D01*
X119489248Y-141113437D01*
X119476940Y-141051558D01*
X119457314Y-141022186D01*
X119445646Y-140988845D01*
X118925142Y-140106543D01*
X118949474Y-140047944D01*
X118949726Y-139759521D01*
X118839584Y-139492957D01*
X118635816Y-139288833D01*
X118369444Y-139178226D01*
X118081021Y-139177974D01*
X117814457Y-139288116D01*
X117610333Y-139491884D01*
X117499726Y-139758256D01*
X117499474Y-140046679D01*
X117609616Y-140313243D01*
X117813384Y-140517367D01*
X118069097Y-140623548D01*
X118255785Y-140940000D01*
X117565899Y-140940000D01*
X117370730Y-140978821D01*
X117351335Y-140991781D01*
X117267984Y-140790057D01*
X117064216Y-140585933D01*
X117032425Y-140572732D01*
X117060000Y-140434101D01*
X117060000Y-139465899D01*
X117021179Y-139270730D01*
X116910624Y-139105275D01*
X116745169Y-138994720D01*
X116550000Y-138955899D01*
X116354831Y-138994720D01*
X116300000Y-139031357D01*
X116245169Y-138994720D01*
X116050000Y-138955899D01*
X115854831Y-138994720D01*
X115800000Y-139031357D01*
X115745169Y-138994720D01*
X115714788Y-138988677D01*
X115727674Y-138957644D01*
X115727926Y-138669221D01*
X115691316Y-138580619D01*
X115700000Y-138582346D01*
X116600000Y-138582346D01*
X116636931Y-138575000D01*
X118717654Y-138575000D01*
X118717654Y-139050000D01*
X118746758Y-139196317D01*
X118829641Y-139320359D01*
X118953683Y-139403242D01*
X119100000Y-139432346D01*
X120700000Y-139432346D01*
X120846317Y-139403242D01*
X120970359Y-139320359D01*
X121053242Y-139196317D01*
X121082346Y-139050000D01*
X121082346Y-137950000D01*
X121053242Y-137803683D01*
X120983963Y-137700000D01*
X121053242Y-137596317D01*
X121082346Y-137450000D01*
X121082346Y-136350000D01*
X121053242Y-136203683D01*
X120983963Y-136100000D01*
X121053242Y-135996317D01*
X121082346Y-135850000D01*
X121082346Y-134750000D01*
X121053242Y-134603683D01*
X120970359Y-134479641D01*
X120846317Y-134396758D01*
X120700000Y-134367654D01*
X119100000Y-134367654D01*
X119063069Y-134375000D01*
X116982346Y-134375000D01*
X116982346Y-134000000D01*
X116953242Y-133853683D01*
X116870359Y-133729641D01*
X116819178Y-133695442D01*
X117544112Y-133595814D01*
X117590684Y-133642467D01*
X117857056Y-133753074D01*
X118145479Y-133753326D01*
X118412043Y-133643184D01*
X118616167Y-133439416D01*
X118726774Y-133173044D01*
X118727026Y-132884621D01*
X118616884Y-132618057D01*
X118413116Y-132413933D01*
X118146744Y-132303326D01*
X117858321Y-132303074D01*
X117591757Y-132413216D01*
X117398163Y-132606472D01*
X113955824Y-133079556D01*
X113883039Y-133104725D01*
X113808399Y-133123724D01*
X113797213Y-133129067D01*
X113683444Y-133081826D01*
X113395021Y-133081574D01*
X113128457Y-133191716D01*
X112924333Y-133395484D01*
X112813726Y-133661856D01*
X112813655Y-133742959D01*
X112226795Y-132950608D01*
X112199232Y-132925594D01*
X112178553Y-132894646D01*
X112105353Y-132821447D01*
X112082346Y-132806074D01*
X112082346Y-132400000D01*
X112079239Y-132384382D01*
X113126728Y-130044910D01*
X113128249Y-130038253D01*
X113132043Y-130032575D01*
X113148836Y-129948148D01*
X113168010Y-129864231D01*
X113166868Y-129857498D01*
X113168200Y-129850800D01*
X113168200Y-129229400D01*
X113157098Y-129173588D01*
X113154645Y-129116734D01*
X113011445Y-128530234D01*
X112995987Y-128497040D01*
X112988843Y-128461125D01*
X112971922Y-128435800D01*
X113017804Y-128441129D01*
X113045424Y-128438894D01*
X113072600Y-128444300D01*
X113486800Y-128444300D01*
X113506074Y-128440466D01*
X113525597Y-128442713D01*
X113730597Y-128425913D01*
X113785201Y-128410323D01*
X113841543Y-128403279D01*
X113928844Y-128374279D01*
X113944093Y-128365607D01*
X113961296Y-128362168D01*
X113986936Y-128345000D01*
X115109500Y-128345000D01*
X115142565Y-128338423D01*
X115176227Y-128340290D01*
X115847831Y-128245000D01*
X117008429Y-128245000D01*
X117197654Y-128364335D01*
X117197654Y-129570000D01*
X117226758Y-129716317D01*
X117309641Y-129840359D01*
X117433683Y-129923242D01*
X117580000Y-129952346D01*
X117586000Y-129952346D01*
X117586000Y-130481941D01*
X117451183Y-130508758D01*
X117327141Y-130591641D01*
X117244258Y-130715683D01*
X117215154Y-130862000D01*
X117215154Y-131878000D01*
X117244258Y-132024317D01*
X117327141Y-132148359D01*
X117451183Y-132231242D01*
X117597500Y-132260346D01*
X118486500Y-132260346D01*
X118632817Y-132231242D01*
X118756859Y-132148359D01*
X118839742Y-132024317D01*
X118868846Y-131878000D01*
X118868846Y-130862000D01*
X118839742Y-130715683D01*
X118756859Y-130591641D01*
X118632817Y-130508758D01*
X118536000Y-130489500D01*
X118536000Y-129952346D01*
X118580000Y-129952346D01*
X118726317Y-129923242D01*
X118850359Y-129840359D01*
X118933242Y-129716317D01*
X118962346Y-129570000D01*
X118962346Y-128170000D01*
X118933242Y-128023683D01*
X118850359Y-127899641D01*
X118726317Y-127816758D01*
X118580000Y-127787654D01*
X118010806Y-127787654D01*
X117957276Y-127734124D01*
X117913221Y-127704688D01*
X117874780Y-127668224D01*
X117399080Y-127368224D01*
X117362346Y-127354132D01*
X117362346Y-125970000D01*
X117333242Y-125823683D01*
X117250359Y-125699641D01*
X117126317Y-125616758D01*
X116980000Y-125587654D01*
X116411764Y-125587654D01*
X116358930Y-125530247D01*
X116548241Y-125060346D01*
X116962500Y-125060346D01*
X117108817Y-125031242D01*
X117232859Y-124948359D01*
X117315742Y-124824317D01*
X117344846Y-124678000D01*
X117344846Y-123662000D01*
X117315742Y-123515683D01*
X117232859Y-123391641D01*
X117108817Y-123308758D01*
X116962500Y-123279654D01*
X116073500Y-123279654D01*
X115927183Y-123308758D01*
X115803141Y-123391641D01*
X115720258Y-123515683D01*
X115691154Y-123662000D01*
X115691154Y-124645548D01*
X115467983Y-125199495D01*
X113546363Y-125473314D01*
X113653274Y-125215844D01*
X113653526Y-124927421D01*
X113543384Y-124660857D01*
X113339616Y-124456733D01*
X113259094Y-124423297D01*
X113064279Y-123760853D01*
X113064846Y-123758000D01*
X113064846Y-122742000D01*
X113035742Y-122595683D01*
X112952859Y-122471641D01*
X112828817Y-122388758D01*
X112682500Y-122359654D01*
X111793500Y-122359654D01*
X111647183Y-122388758D01*
X111523141Y-122471641D01*
X111440258Y-122595683D01*
X111411154Y-122742000D01*
X111411154Y-123263974D01*
X111391976Y-123276788D01*
X111310359Y-123154641D01*
X111186317Y-123071758D01*
X111040000Y-123042654D01*
X110440000Y-123042654D01*
X110293683Y-123071758D01*
X110169641Y-123154641D01*
X110086758Y-123278683D01*
X110057654Y-123425000D01*
X110057654Y-123775000D01*
X110060828Y-123790957D01*
X110035883Y-123917054D01*
X110017730Y-123798207D01*
X110022346Y-123775000D01*
X110022346Y-123425000D01*
X109993242Y-123278683D01*
X109910359Y-123154641D01*
X109786317Y-123071758D01*
X109640000Y-123042654D01*
X109040000Y-123042654D01*
X108893683Y-123071758D01*
X108769641Y-123154641D01*
X108704346Y-123252361D01*
X108704346Y-122793500D01*
X108675242Y-122647183D01*
X108592359Y-122523141D01*
X108468317Y-122440258D01*
X108322000Y-122411154D01*
X107306000Y-122411154D01*
X107159683Y-122440258D01*
X107035641Y-122523141D01*
X106952758Y-122647183D01*
X106923654Y-122793500D01*
X106923654Y-123425237D01*
X106852021Y-123425174D01*
X106827846Y-123435163D01*
X106827846Y-123018000D01*
X106798742Y-122871683D01*
X106715859Y-122747641D01*
X106591817Y-122664758D01*
X106445500Y-122635654D01*
X105556500Y-122635654D01*
X105410183Y-122664758D01*
X105286141Y-122747641D01*
X105203258Y-122871683D01*
X105174154Y-123018000D01*
X105174154Y-124034000D01*
X105203258Y-124180317D01*
X105286141Y-124304359D01*
X105410183Y-124387242D01*
X105556500Y-124416346D01*
X105820500Y-124416346D01*
X105820500Y-124429900D01*
X105849959Y-124578000D01*
X105858560Y-124621242D01*
X105966947Y-124783453D01*
X106362446Y-125178953D01*
X106375013Y-125187350D01*
X106384147Y-125199398D01*
X106455719Y-125241276D01*
X106524658Y-125287340D01*
X106539484Y-125290289D01*
X106552531Y-125297923D01*
X108111432Y-125837223D01*
X108222223Y-125852465D01*
X108225000Y-125853512D01*
X108225000Y-126277142D01*
X108264202Y-126474224D01*
X108375840Y-126641302D01*
X108542918Y-126752940D01*
X108740000Y-126792142D01*
X108937082Y-126752940D01*
X108990000Y-126717581D01*
X109042918Y-126752940D01*
X109240000Y-126792142D01*
X109437082Y-126752940D01*
X109490000Y-126717581D01*
X109542918Y-126752940D01*
X109740000Y-126792142D01*
X109937082Y-126752940D01*
X109990000Y-126717581D01*
X110042918Y-126752940D01*
X110240000Y-126792142D01*
X110437082Y-126752940D01*
X110490000Y-126717581D01*
X110542918Y-126752940D01*
X110740000Y-126792142D01*
X110812224Y-126777776D01*
X110797858Y-126850000D01*
X110837060Y-127047082D01*
X110872419Y-127100000D01*
X110837060Y-127152918D01*
X110797858Y-127350000D01*
X110837060Y-127547082D01*
X110872419Y-127600000D01*
X110837060Y-127652918D01*
X110797858Y-127850000D01*
X110837060Y-128047082D01*
X110872419Y-128100000D01*
X110837060Y-128152918D01*
X110797858Y-128350000D01*
X110837060Y-128547082D01*
X110872419Y-128600000D01*
X110837060Y-128652918D01*
X110797858Y-128850000D01*
X110812224Y-128922224D01*
X110740000Y-128907858D01*
X110542918Y-128947060D01*
X110490000Y-128982419D01*
X110437082Y-128947060D01*
X110240000Y-128907858D01*
X110042918Y-128947060D01*
X109990000Y-128982419D01*
X109937082Y-128947060D01*
X109740000Y-128907858D01*
X109542918Y-128947060D01*
X109490000Y-128982419D01*
X109437082Y-128947060D01*
X109240000Y-128907858D01*
X109042918Y-128947060D01*
X109034843Y-128952455D01*
X109026317Y-128946758D01*
X108880000Y-128917654D01*
X108668685Y-128917654D01*
X108682142Y-128850000D01*
X108642940Y-128652918D01*
X108531302Y-128485840D01*
X108364224Y-128374202D01*
X108242552Y-128350000D01*
X108364224Y-128325798D01*
X108531302Y-128214160D01*
X108642940Y-128047082D01*
X108682142Y-127850000D01*
X108642940Y-127652918D01*
X108607581Y-127600000D01*
X108642940Y-127547082D01*
X108682142Y-127350000D01*
X108642940Y-127152918D01*
X108531302Y-126985840D01*
X108364224Y-126874202D01*
X108167142Y-126835000D01*
X107412858Y-126835000D01*
X107272920Y-126862835D01*
X106682346Y-126648482D01*
X106682346Y-125900000D01*
X106653242Y-125753683D01*
X106570359Y-125629641D01*
X106446317Y-125546758D01*
X106300000Y-125517654D01*
X105400000Y-125517654D01*
X105253683Y-125546758D01*
X105129641Y-125629641D01*
X105046758Y-125753683D01*
X105017654Y-125900000D01*
X105017654Y-126900000D01*
X105046758Y-127046317D01*
X105129641Y-127170359D01*
X105251595Y-127251847D01*
X105147141Y-127321641D01*
X105064258Y-127445683D01*
X105035154Y-127592000D01*
X105035154Y-128608000D01*
X105051042Y-128687878D01*
X104991933Y-128746884D01*
X104881326Y-129013256D01*
X104881074Y-129301679D01*
X104991216Y-129568243D01*
X105194984Y-129772367D01*
X105461356Y-129882974D01*
X105749779Y-129883226D01*
X106016343Y-129773084D01*
X106220467Y-129569316D01*
X106331074Y-129302944D01*
X106331326Y-129014521D01*
X106320210Y-128987619D01*
X106452817Y-128961242D01*
X106576859Y-128878359D01*
X106659742Y-128754317D01*
X106688846Y-128608000D01*
X106688846Y-128350000D01*
X107337448Y-128350000D01*
X107215776Y-128374202D01*
X107048698Y-128485840D01*
X106937060Y-128652918D01*
X106897858Y-128850000D01*
X106937060Y-129047082D01*
X107048698Y-129214160D01*
X107049900Y-129214963D01*
X107049900Y-129761060D01*
X106910633Y-129900084D01*
X106800026Y-130166456D01*
X106799774Y-130454879D01*
X106909916Y-130721443D01*
X107113684Y-130925567D01*
X107380056Y-131036174D01*
X107664772Y-131036423D01*
X107765516Y-131280243D01*
X107969284Y-131484367D01*
X108235656Y-131594974D01*
X108524079Y-131595226D01*
X108700525Y-131522320D01*
X108685299Y-131532546D01*
X108642641Y-131549676D01*
X108182941Y-131849676D01*
X108145822Y-131885998D01*
X108102647Y-131914847D01*
X108029347Y-131988147D01*
X108013974Y-132011154D01*
X107492000Y-132011154D01*
X107345683Y-132040258D01*
X107221641Y-132123141D01*
X107138758Y-132247183D01*
X107109654Y-132393500D01*
X107109654Y-133282500D01*
X107138758Y-133428817D01*
X107221641Y-133552859D01*
X107345683Y-133635742D01*
X107492000Y-133664846D01*
X108508000Y-133664846D01*
X108654317Y-133635742D01*
X108778359Y-133552859D01*
X108800000Y-133520471D01*
X108821641Y-133552859D01*
X108945683Y-133635742D01*
X109092000Y-133664846D01*
X110108000Y-133664846D01*
X110254317Y-133635742D01*
X110378359Y-133552859D01*
X110398153Y-133523235D01*
X110429641Y-133570359D01*
X110474001Y-133600000D01*
X110429641Y-133629641D01*
X110346758Y-133753683D01*
X110317654Y-133900000D01*
X110317654Y-134800000D01*
X110346758Y-134946317D01*
X110429641Y-135070359D01*
X110553683Y-135153242D01*
X110700000Y-135182346D01*
X111452433Y-135182346D01*
X111566026Y-135489588D01*
X111571149Y-135497935D01*
X111573060Y-135507542D01*
X111621997Y-135580781D01*
X111668077Y-135655858D01*
X111676006Y-135661610D01*
X111681447Y-135669753D01*
X112082747Y-136071053D01*
X112244958Y-136179440D01*
X112436300Y-136217500D01*
X112846819Y-136217500D01*
X112846674Y-136383779D01*
X112956816Y-136650343D01*
X113160584Y-136854467D01*
X113331740Y-136925537D01*
X113329286Y-136933124D01*
X113312960Y-136957558D01*
X113299509Y-137025184D01*
X113278289Y-137090787D01*
X113059806Y-138957850D01*
X113050000Y-138955899D01*
X112854831Y-138994720D01*
X112800000Y-139031357D01*
X112745169Y-138994720D01*
X112550000Y-138955899D01*
X112354831Y-138994720D01*
X112300000Y-139031357D01*
X112245169Y-138994720D01*
X112050000Y-138955899D01*
X111854831Y-138994720D01*
X111689376Y-139105275D01*
X111578821Y-139270730D01*
X111550000Y-139415625D01*
X111521179Y-139270730D01*
X111410624Y-139105275D01*
X111354100Y-139067507D01*
X111388674Y-138984244D01*
X111388926Y-138695821D01*
X111278784Y-138429257D01*
X111075016Y-138225133D01*
X110808644Y-138114526D01*
X110520221Y-138114274D01*
X110490346Y-138126618D01*
X110490346Y-137917500D01*
X110461242Y-137771183D01*
X110378359Y-137647141D01*
X110254317Y-137564258D01*
X110108000Y-137535154D01*
X109092000Y-137535154D01*
X108945683Y-137564258D01*
X108821641Y-137647141D01*
X108738758Y-137771183D01*
X108709654Y-137917500D01*
X108709654Y-138223518D01*
X108189108Y-137554776D01*
X105488318Y-133633551D01*
X105624804Y-133304858D01*
X105625195Y-132857305D01*
X105454285Y-132443671D01*
X105138093Y-132126928D01*
X104724758Y-131955296D01*
X104277205Y-131954905D01*
X103863571Y-132125815D01*
X103546828Y-132442007D01*
X103375196Y-132855342D01*
X103374805Y-133302895D01*
X103545715Y-133716529D01*
X103861907Y-134033272D01*
X104275242Y-134204904D01*
X104667836Y-134205247D01*
X104924831Y-134578374D01*
X104724758Y-134495296D01*
X104277205Y-134494905D01*
X103863571Y-134665815D01*
X103546828Y-134982007D01*
X103375196Y-135395342D01*
X103374805Y-135842895D01*
X103545715Y-136256529D01*
X103861907Y-136573272D01*
X104275242Y-136744904D01*
X104567778Y-136745160D01*
X104736648Y-137040233D01*
X104724758Y-137035296D01*
X104277205Y-137034905D01*
X103863571Y-137205815D01*
X103546828Y-137522007D01*
X103375196Y-137935342D01*
X103374805Y-138382895D01*
X103545715Y-138796529D01*
X103861907Y-139113272D01*
X104275242Y-139284904D01*
X104567778Y-139285160D01*
X105237545Y-140455471D01*
X108144045Y-145892810D01*
X108190646Y-145949590D01*
X108231447Y-146010653D01*
X108524347Y-146303553D01*
X108577910Y-146339343D01*
X108555899Y-146450000D01*
X108572769Y-146534815D01*
X105572225Y-143591482D01*
X105624804Y-143464858D01*
X105625195Y-143017305D01*
X105454285Y-142603671D01*
X105138093Y-142286928D01*
X104724758Y-142115296D01*
X104277205Y-142114905D01*
X103863571Y-142285815D01*
X103546828Y-142602007D01*
X103375196Y-143015342D01*
X103374805Y-143462895D01*
X103545715Y-143876529D01*
X103861907Y-144193272D01*
X104275242Y-144364904D01*
X104722795Y-144365295D01*
X104870738Y-144304166D01*
X105221004Y-144647754D01*
X103750000Y-144647754D01*
X103603683Y-144676858D01*
X103479641Y-144759741D01*
X103396758Y-144883783D01*
X103367654Y-145030100D01*
X103367654Y-146530100D01*
X103396758Y-146676417D01*
X103479641Y-146800459D01*
X103603683Y-146883342D01*
X103750000Y-146912446D01*
X104756074Y-146912446D01*
X104771447Y-146935453D01*
X104844646Y-147008653D01*
X104894313Y-147041840D01*
X104938303Y-147082246D01*
X104974667Y-147095531D01*
X105006858Y-147117040D01*
X105065441Y-147128693D01*
X105121549Y-147149190D01*
X106253226Y-147324754D01*
X106456484Y-147528367D01*
X106722856Y-147638974D01*
X107011279Y-147639226D01*
X107277843Y-147529084D01*
X107481967Y-147325316D01*
X107592574Y-147058944D01*
X107592648Y-146974177D01*
X108502866Y-147867040D01*
X108538645Y-147890452D01*
X108568379Y-147921186D01*
X108619495Y-147943356D01*
X108666113Y-147973860D01*
X108708130Y-147981798D01*
X108747361Y-147998813D01*
X110540000Y-148386307D01*
X110540000Y-148934101D01*
X110578821Y-149129270D01*
X110689376Y-149294725D01*
X110854831Y-149405280D01*
X111050000Y-149444101D01*
X111245169Y-149405280D01*
X111300000Y-149368643D01*
X111354831Y-149405280D01*
X111550000Y-149444101D01*
X111745169Y-149405280D01*
X111800000Y-149368643D01*
X111854831Y-149405280D01*
X112050000Y-149444101D01*
X112245169Y-149405280D01*
X112300000Y-149368643D01*
X112354831Y-149405280D01*
X112550000Y-149444101D01*
X112745169Y-149405280D01*
X112800000Y-149368643D01*
X112854831Y-149405280D01*
X113050000Y-149444101D01*
X113245169Y-149405280D01*
X113300000Y-149368643D01*
X113354831Y-149405280D01*
X113550000Y-149444101D01*
X113745169Y-149405280D01*
X113800000Y-149368643D01*
X113854831Y-149405280D01*
X114050000Y-149444101D01*
X114245169Y-149405280D01*
X114410624Y-149294725D01*
X114521179Y-149129270D01*
X114550000Y-148984375D01*
X114578821Y-149129270D01*
X114689376Y-149294725D01*
X114854831Y-149405280D01*
X115050000Y-149444101D01*
X115245169Y-149405280D01*
X115300000Y-149368643D01*
X115354831Y-149405280D01*
X115550000Y-149444101D01*
X115745169Y-149405280D01*
X115910624Y-149294725D01*
X116021179Y-149129270D01*
X116050000Y-148984375D01*
X116078821Y-149129270D01*
X116189376Y-149294725D01*
X116354831Y-149405280D01*
X116550000Y-149444101D01*
X116745169Y-149405280D01*
X116910624Y-149294725D01*
X116959656Y-149221344D01*
X117090256Y-149275574D01*
X117378679Y-149275826D01*
X117645243Y-149165684D01*
X117682635Y-149128357D01*
X118540502Y-149265114D01*
X118535154Y-149292000D01*
X118535154Y-150308000D01*
X118564258Y-150454317D01*
X118611487Y-150525000D01*
X104889822Y-150525000D01*
X104813632Y-150141965D01*
X104742707Y-149970737D01*
X104309162Y-149321890D01*
X104178110Y-149190838D01*
X104178107Y-149190837D01*
X103529263Y-148757293D01*
X103478108Y-148736104D01*
X103358035Y-148686368D01*
X102975000Y-148610178D01*
X102975000Y-114625000D01*
X106675000Y-114625000D01*
X106675000Y-119400000D01*
X106684515Y-119447835D01*
X106711612Y-119488388D01*
X106752165Y-119515485D01*
X106800000Y-119525000D01*
X107677525Y-119525000D01*
X107643641Y-119547641D01*
X107560758Y-119671683D01*
X107531654Y-119818000D01*
X107531654Y-120418000D01*
X107560758Y-120564317D01*
X107643641Y-120688359D01*
X107767683Y-120771242D01*
X107914000Y-120800346D01*
X108514000Y-120800346D01*
X108550931Y-120793000D01*
X108632006Y-120793000D01*
X108815538Y-120796419D01*
X108809654Y-120826000D01*
X108809654Y-121426000D01*
X108838758Y-121572317D01*
X108921641Y-121696359D01*
X109002183Y-121750176D01*
X108893683Y-121771758D01*
X108769641Y-121854641D01*
X108686758Y-121978683D01*
X108657654Y-122125000D01*
X108657654Y-122475000D01*
X108686758Y-122621317D01*
X108769641Y-122745359D01*
X108893683Y-122828242D01*
X109040000Y-122857346D01*
X109640000Y-122857346D01*
X109786317Y-122828242D01*
X109910359Y-122745359D01*
X109993242Y-122621317D01*
X110022346Y-122475000D01*
X110022346Y-122125000D01*
X109993242Y-121978683D01*
X109967000Y-121939409D01*
X109967000Y-121802062D01*
X110333127Y-121808883D01*
X110339425Y-121807752D01*
X110345700Y-121809000D01*
X110433069Y-121809000D01*
X110470000Y-121816346D01*
X111070000Y-121816346D01*
X111216317Y-121787242D01*
X111340359Y-121704359D01*
X111423242Y-121580317D01*
X111452346Y-121434000D01*
X111452346Y-120834000D01*
X111423242Y-120687683D01*
X111340359Y-120563641D01*
X111216317Y-120480758D01*
X111070000Y-120451654D01*
X110470000Y-120451654D01*
X110433069Y-120459000D01*
X110351994Y-120459000D01*
X110168462Y-120455581D01*
X110174346Y-120426000D01*
X110174346Y-119826000D01*
X110167000Y-119789069D01*
X110167000Y-119701700D01*
X110160646Y-119669758D01*
X110163926Y-119637358D01*
X110153167Y-119525000D01*
X111400000Y-119525000D01*
X111447835Y-119515485D01*
X111488388Y-119488388D01*
X111515485Y-119447835D01*
X111525000Y-119400000D01*
X111525000Y-118000000D01*
X120525000Y-118000000D01*
X120713398Y-118947141D01*
X121249911Y-119750089D01*
X122052859Y-120286602D01*
X123000000Y-120475000D01*
X123947141Y-120286602D01*
X124750089Y-119750089D01*
X125286602Y-118947141D01*
X125475000Y-118000000D01*
X153525000Y-118000000D01*
X153713398Y-118947141D01*
X154249911Y-119750089D01*
X155052859Y-120286602D01*
X156000000Y-120475000D01*
X156947141Y-120286602D01*
X157750089Y-119750089D01*
X158286602Y-118947141D01*
X158475000Y-118000000D01*
X158286602Y-117052859D01*
X157750089Y-116249911D01*
X156947141Y-115713398D01*
X156000000Y-115525000D01*
X155052859Y-115713398D01*
X154249911Y-116249911D01*
X153713398Y-117052859D01*
X153525000Y-118000000D01*
X125475000Y-118000000D01*
X125286602Y-117052859D01*
X124750089Y-116249911D01*
X123947141Y-115713398D01*
X123000000Y-115525000D01*
X122052859Y-115713398D01*
X121249911Y-116249911D01*
X120713398Y-117052859D01*
X120525000Y-118000000D01*
X111525000Y-118000000D01*
X111525000Y-114525000D01*
X159025000Y-114525000D01*
X159025000Y-136953956D01*
G36*
X111578821Y-140629270D02*
X111689376Y-140794725D01*
X111854831Y-140905280D01*
X112050000Y-140944101D01*
X112245169Y-140905280D01*
X112300000Y-140868643D01*
X112354831Y-140905280D01*
X112550000Y-140944101D01*
X112745169Y-140905280D01*
X112800000Y-140868643D01*
X112854831Y-140905280D01*
X113050000Y-140944101D01*
X113106584Y-140932846D01*
X113076226Y-141005956D01*
X113075974Y-141294379D01*
X113186116Y-141560943D01*
X113389884Y-141765067D01*
X113656256Y-141875674D01*
X113687779Y-141875702D01*
X113687574Y-142110179D01*
X113797716Y-142376743D01*
X114001484Y-142580867D01*
X114267856Y-142691474D01*
X114556279Y-142691726D01*
X114822843Y-142581584D01*
X114883807Y-142520726D01*
X116062510Y-142648788D01*
X116237184Y-142823767D01*
X116503556Y-142934374D01*
X116791979Y-142934626D01*
X117058543Y-142824484D01*
X117086396Y-142796680D01*
X117055899Y-142950000D01*
X117094720Y-143145169D01*
X117205275Y-143310624D01*
X117370730Y-143421179D01*
X117515625Y-143450000D01*
X117370730Y-143478821D01*
X117205275Y-143589376D01*
X117094720Y-143754831D01*
X117055899Y-143950000D01*
X117094720Y-144145169D01*
X117131357Y-144200000D01*
X117094720Y-144254831D01*
X117055899Y-144450000D01*
X117094720Y-144645169D01*
X117131357Y-144700000D01*
X117094720Y-144754831D01*
X117055899Y-144950000D01*
X117094720Y-145145169D01*
X117131357Y-145200000D01*
X117094720Y-145254831D01*
X117055899Y-145450000D01*
X117094720Y-145645169D01*
X117131357Y-145700000D01*
X117094720Y-145754831D01*
X117055899Y-145950000D01*
X117094720Y-146145169D01*
X117131357Y-146200000D01*
X117094720Y-146254831D01*
X117055899Y-146450000D01*
X117094720Y-146645169D01*
X117103595Y-146658451D01*
X117096758Y-146668683D01*
X117067654Y-146815000D01*
X117067654Y-147085000D01*
X117096758Y-147231317D01*
X117179641Y-147355359D01*
X117303683Y-147438242D01*
X117450000Y-147467346D01*
X118650000Y-147467346D01*
X118796317Y-147438242D01*
X118804447Y-147432810D01*
X120757387Y-147257961D01*
X120792000Y-147264846D01*
X121808000Y-147264846D01*
X121844931Y-147257500D01*
X122811154Y-147257500D01*
X122811154Y-147448080D01*
X121784391Y-148342468D01*
X119719457Y-148463750D01*
X119324398Y-148378221D01*
X119310420Y-148377985D01*
X119297313Y-148373135D01*
X117850910Y-148142556D01*
X117850084Y-148140557D01*
X117646316Y-147936433D01*
X117379944Y-147825826D01*
X117091521Y-147825574D01*
X117036602Y-147848266D01*
X117021179Y-147770730D01*
X116910624Y-147605275D01*
X116745169Y-147494720D01*
X116550000Y-147455899D01*
X116354831Y-147494720D01*
X116189376Y-147605275D01*
X116078821Y-147770730D01*
X116050000Y-147915625D01*
X116021179Y-147770730D01*
X115910624Y-147605275D01*
X115745169Y-147494720D01*
X115550000Y-147455899D01*
X115354831Y-147494720D01*
X115300000Y-147531357D01*
X115245169Y-147494720D01*
X115050000Y-147455899D01*
X114854831Y-147494720D01*
X114689376Y-147605275D01*
X114578821Y-147770730D01*
X114550000Y-147915625D01*
X114521179Y-147770730D01*
X114410624Y-147605275D01*
X114245169Y-147494720D01*
X114050000Y-147455899D01*
X113854831Y-147494720D01*
X113800000Y-147531357D01*
X113745169Y-147494720D01*
X113733397Y-147492379D01*
X114230266Y-146420205D01*
X114408443Y-146346584D01*
X114612567Y-146142816D01*
X114723174Y-145876444D01*
X114723426Y-145588021D01*
X114613284Y-145321457D01*
X114409516Y-145117333D01*
X114143144Y-145006726D01*
X113854721Y-145006474D01*
X113588157Y-145116616D01*
X113384033Y-145320384D01*
X113273426Y-145586756D01*
X113273174Y-145875179D01*
X113323848Y-145997819D01*
X112639859Y-147473773D01*
X112550000Y-147455899D01*
X112354831Y-147494720D01*
X112300000Y-147531357D01*
X112245169Y-147494720D01*
X112050000Y-147455899D01*
X111854831Y-147494720D01*
X111800000Y-147531357D01*
X111745169Y-147494720D01*
X111550000Y-147455899D01*
X111354831Y-147494720D01*
X111300000Y-147531357D01*
X111245169Y-147494720D01*
X111050000Y-147455899D01*
X111007710Y-147464311D01*
X110370770Y-147326631D01*
X110394725Y-147310624D01*
X110505280Y-147145169D01*
X110544101Y-146950000D01*
X110505280Y-146754831D01*
X110468643Y-146700000D01*
X110505280Y-146645169D01*
X110544101Y-146450000D01*
X110505280Y-146254831D01*
X110468643Y-146200000D01*
X110505280Y-146145169D01*
X110544101Y-145950000D01*
X110505280Y-145754831D01*
X110468643Y-145700000D01*
X110505280Y-145645169D01*
X110544101Y-145450000D01*
X110505280Y-145254831D01*
X110468643Y-145200000D01*
X110505280Y-145145169D01*
X110544101Y-144950000D01*
X110522090Y-144839343D01*
X110575653Y-144803553D01*
X110868553Y-144510653D01*
X110905583Y-144455234D01*
X110949274Y-144404902D01*
X110959317Y-144374816D01*
X110976940Y-144348442D01*
X110989942Y-144283073D01*
X111011047Y-144219850D01*
X111071147Y-143744750D01*
X111068912Y-143713109D01*
X111075100Y-143682000D01*
X111075100Y-141218000D01*
X111059841Y-141141289D01*
X111050669Y-141063616D01*
X111040930Y-141046215D01*
X111037040Y-141026658D01*
X110993589Y-140961629D01*
X110975483Y-140929279D01*
X111050000Y-140944101D01*
X111245169Y-140905280D01*
X111410624Y-140794725D01*
X111521179Y-140629270D01*
X111550000Y-140484375D01*
X111578821Y-140629270D01*
X111578821Y-140629270D01*
G37*
X111578821Y-140629270D02*
X111689376Y-140794725D01*
X111854831Y-140905280D01*
X112050000Y-140944101D01*
X112245169Y-140905280D01*
X112300000Y-140868643D01*
X112354831Y-140905280D01*
X112550000Y-140944101D01*
X112745169Y-140905280D01*
X112800000Y-140868643D01*
X112854831Y-140905280D01*
X113050000Y-140944101D01*
X113106584Y-140932846D01*
X113076226Y-141005956D01*
X113075974Y-141294379D01*
X113186116Y-141560943D01*
X113389884Y-141765067D01*
X113656256Y-141875674D01*
X113687779Y-141875702D01*
X113687574Y-142110179D01*
X113797716Y-142376743D01*
X114001484Y-142580867D01*
X114267856Y-142691474D01*
X114556279Y-142691726D01*
X114822843Y-142581584D01*
X114883807Y-142520726D01*
X116062510Y-142648788D01*
X116237184Y-142823767D01*
X116503556Y-142934374D01*
X116791979Y-142934626D01*
X117058543Y-142824484D01*
X117086396Y-142796680D01*
X117055899Y-142950000D01*
X117094720Y-143145169D01*
X117205275Y-143310624D01*
X117370730Y-143421179D01*
X117515625Y-143450000D01*
X117370730Y-143478821D01*
X117205275Y-143589376D01*
X117094720Y-143754831D01*
X117055899Y-143950000D01*
X117094720Y-144145169D01*
X117131357Y-144200000D01*
X117094720Y-144254831D01*
X117055899Y-144450000D01*
X117094720Y-144645169D01*
X117131357Y-144700000D01*
X117094720Y-144754831D01*
X117055899Y-144950000D01*
X117094720Y-145145169D01*
X117131357Y-145200000D01*
X117094720Y-145254831D01*
X117055899Y-145450000D01*
X117094720Y-145645169D01*
X117131357Y-145700000D01*
X117094720Y-145754831D01*
X117055899Y-145950000D01*
X117094720Y-146145169D01*
X117131357Y-146200000D01*
X117094720Y-146254831D01*
X117055899Y-146450000D01*
X117094720Y-146645169D01*
X117103595Y-146658451D01*
X117096758Y-146668683D01*
X117067654Y-146815000D01*
X117067654Y-147085000D01*
X117096758Y-147231317D01*
X117179641Y-147355359D01*
X117303683Y-147438242D01*
X117450000Y-147467346D01*
X118650000Y-147467346D01*
X118796317Y-147438242D01*
X118804447Y-147432810D01*
X120757387Y-147257961D01*
X120792000Y-147264846D01*
X121808000Y-147264846D01*
X121844931Y-147257500D01*
X122811154Y-147257500D01*
X122811154Y-147448080D01*
X121784391Y-148342468D01*
X119719457Y-148463750D01*
X119324398Y-148378221D01*
X119310420Y-148377985D01*
X119297313Y-148373135D01*
X117850910Y-148142556D01*
X117850084Y-148140557D01*
X117646316Y-147936433D01*
X117379944Y-147825826D01*
X117091521Y-147825574D01*
X117036602Y-147848266D01*
X117021179Y-147770730D01*
X116910624Y-147605275D01*
X116745169Y-147494720D01*
X116550000Y-147455899D01*
X116354831Y-147494720D01*
X116189376Y-147605275D01*
X116078821Y-147770730D01*
X116050000Y-147915625D01*
X116021179Y-147770730D01*
X115910624Y-147605275D01*
X115745169Y-147494720D01*
X115550000Y-147455899D01*
X115354831Y-147494720D01*
X115300000Y-147531357D01*
X115245169Y-147494720D01*
X115050000Y-147455899D01*
X114854831Y-147494720D01*
X114689376Y-147605275D01*
X114578821Y-147770730D01*
X114550000Y-147915625D01*
X114521179Y-147770730D01*
X114410624Y-147605275D01*
X114245169Y-147494720D01*
X114050000Y-147455899D01*
X113854831Y-147494720D01*
X113800000Y-147531357D01*
X113745169Y-147494720D01*
X113733397Y-147492379D01*
X114230266Y-146420205D01*
X114408443Y-146346584D01*
X114612567Y-146142816D01*
X114723174Y-145876444D01*
X114723426Y-145588021D01*
X114613284Y-145321457D01*
X114409516Y-145117333D01*
X114143144Y-145006726D01*
X113854721Y-145006474D01*
X113588157Y-145116616D01*
X113384033Y-145320384D01*
X113273426Y-145586756D01*
X113273174Y-145875179D01*
X113323848Y-145997819D01*
X112639859Y-147473773D01*
X112550000Y-147455899D01*
X112354831Y-147494720D01*
X112300000Y-147531357D01*
X112245169Y-147494720D01*
X112050000Y-147455899D01*
X111854831Y-147494720D01*
X111800000Y-147531357D01*
X111745169Y-147494720D01*
X111550000Y-147455899D01*
X111354831Y-147494720D01*
X111300000Y-147531357D01*
X111245169Y-147494720D01*
X111050000Y-147455899D01*
X111007710Y-147464311D01*
X110370770Y-147326631D01*
X110394725Y-147310624D01*
X110505280Y-147145169D01*
X110544101Y-146950000D01*
X110505280Y-146754831D01*
X110468643Y-146700000D01*
X110505280Y-146645169D01*
X110544101Y-146450000D01*
X110505280Y-146254831D01*
X110468643Y-146200000D01*
X110505280Y-146145169D01*
X110544101Y-145950000D01*
X110505280Y-145754831D01*
X110468643Y-145700000D01*
X110505280Y-145645169D01*
X110544101Y-145450000D01*
X110505280Y-145254831D01*
X110468643Y-145200000D01*
X110505280Y-145145169D01*
X110544101Y-144950000D01*
X110522090Y-144839343D01*
X110575653Y-144803553D01*
X110868553Y-144510653D01*
X110905583Y-144455234D01*
X110949274Y-144404902D01*
X110959317Y-144374816D01*
X110976940Y-144348442D01*
X110989942Y-144283073D01*
X111011047Y-144219850D01*
X111071147Y-143744750D01*
X111068912Y-143713109D01*
X111075100Y-143682000D01*
X111075100Y-141218000D01*
X111059841Y-141141289D01*
X111050669Y-141063616D01*
X111040930Y-141046215D01*
X111037040Y-141026658D01*
X110993589Y-140961629D01*
X110975483Y-140929279D01*
X111050000Y-140944101D01*
X111245169Y-140905280D01*
X111410624Y-140794725D01*
X111521179Y-140629270D01*
X111550000Y-140484375D01*
X111578821Y-140629270D01*
M02*
