G04 #@! TF.GenerationSoftware,KiCad,Pcbnew,(2017-02-02 revision 8dadc18)-makepkg*
G04 #@! TF.CreationDate,2017-11-18T17:45:44+03:00*
G04 #@! TF.ProjectId,BmstuAnchor,426D737475416E63686F722E6B696361,rev?*
G04 #@! TF.FileFunction,Soldermask,Top*
G04 #@! TF.FilePolarity,Negative*
%FSLAX46Y46*%
G04 Gerber Fmt 4.6, Leading zero omitted, Abs format (unit mm)*
G04 Created by KiCad (PCBNEW (2017-02-02 revision 8dadc18)-makepkg) date 11/18/17 17:45:44*
%MOMM*%
%LPD*%
G01*
G04 APERTURE LIST*
%ADD10C,0.100000*%
%ADD11R,0.800000X0.800000*%
%ADD12R,1.280000X1.200000*%
%ADD13R,1.089000X1.216000*%
%ADD14R,2.200000X2.900000*%
%ADD15R,1.800000X3.600000*%
%ADD16R,5.200000X5.200000*%
%ADD17C,5.200000*%
%ADD18R,2.000860X2.198980*%
%ADD19R,1.400000X0.470000*%
%ADD20O,1.400000X0.470000*%
%ADD21O,0.470000X1.400000*%
%ADD22C,1.200000*%
%ADD23R,1.114400X1.114400*%
%ADD24R,1.216000X1.089000*%
%ADD25R,1.700000X1.700000*%
%ADD26C,1.700000*%
%ADD27R,3.200000X2.800000*%
%ADD28R,3.000000X3.800000*%
%ADD29R,1.800000X1.300000*%
%ADD30R,0.480000X1.200000*%
%ADD31O,0.480000X1.200000*%
%ADD32O,1.200000X0.480000*%
%ADD33R,1.000000X1.000000*%
%ADD34R,1.200000X1.600000*%
%ADD35R,0.800000X0.550000*%
%ADD36R,1.100000X1.200000*%
%ADD37R,1.200000X1.100000*%
G04 APERTURE END LIST*
D10*
D11*
X109450700Y-117846100D03*
X109450700Y-118846100D03*
D12*
X122240000Y-130200000D03*
X123560000Y-130200000D03*
D13*
X154333800Y-130597500D03*
X155857800Y-130597500D03*
D14*
X152954000Y-133758000D03*
X156154000Y-133758000D03*
D15*
X146052000Y-140146000D03*
X141452000Y-140146000D03*
D16*
X142659600Y-146826400D03*
D17*
X150659600Y-146826400D03*
X150659600Y-146826400D03*
D16*
X142659600Y-146826400D03*
X142659600Y-146826400D03*
D17*
X150659600Y-146826400D03*
X150659600Y-146826400D03*
D16*
X142659600Y-146826400D03*
D18*
X153565000Y-141760000D03*
X153565000Y-137950000D03*
X150129000Y-137874000D03*
X150129000Y-141684000D03*
D19*
X118050000Y-146950000D03*
D20*
X118050000Y-146450000D03*
X118050000Y-145950000D03*
X118050000Y-145450000D03*
X118050000Y-144950000D03*
X118050000Y-144450000D03*
X118050000Y-143950000D03*
X118050000Y-143450000D03*
X118050000Y-142950000D03*
X118050000Y-142450000D03*
X118050000Y-141950000D03*
X118050000Y-141450000D03*
D21*
X116550000Y-139950000D03*
X116050000Y-139950000D03*
X115550000Y-139950000D03*
X115050000Y-139950000D03*
X114550000Y-139950000D03*
X114050000Y-139950000D03*
X113550000Y-139950000D03*
X113050000Y-139950000D03*
X112550000Y-139950000D03*
X112050000Y-139950000D03*
X111550000Y-139950000D03*
X111050000Y-139950000D03*
D20*
X109550000Y-141450000D03*
X109550000Y-141950000D03*
X109550000Y-142450000D03*
X109550000Y-142950000D03*
X109550000Y-143450000D03*
X109550000Y-143950000D03*
X109550000Y-144450000D03*
X109550000Y-144950000D03*
X109550000Y-145450000D03*
X109550000Y-145950000D03*
X109550000Y-146450000D03*
X109550000Y-146950000D03*
D21*
X111050000Y-148450000D03*
X111550000Y-148450000D03*
X112050000Y-148450000D03*
X112550000Y-148450000D03*
X113050000Y-148450000D03*
X113550000Y-148450000D03*
X114050000Y-148450000D03*
X114550000Y-148450000D03*
X115050000Y-148450000D03*
X115550000Y-148450000D03*
X116050000Y-148450000D03*
X116550000Y-148450000D03*
D22*
X128300000Y-145300000D03*
D23*
X157924300Y-138808100D03*
X157924300Y-140586100D03*
X155892300Y-139697100D03*
D11*
X111770000Y-121134000D03*
X110770000Y-121134000D03*
X108214000Y-120118000D03*
X107214000Y-120118000D03*
D13*
X106001000Y-123526000D03*
X104477000Y-123526000D03*
X113762000Y-123250000D03*
X112238000Y-123250000D03*
D24*
X114470000Y-127108000D03*
X114470000Y-128632000D03*
X108000000Y-134362000D03*
X108000000Y-132838000D03*
D13*
X105862000Y-128100000D03*
X104338000Y-128100000D03*
X154171300Y-125147800D03*
X155695300Y-125147800D03*
D24*
X107814000Y-121714000D03*
X107814000Y-123238000D03*
X109600000Y-132838000D03*
X109600000Y-134362000D03*
D13*
X118042000Y-124170000D03*
X116518000Y-124170000D03*
X118042000Y-131370000D03*
X116518000Y-131370000D03*
X125162000Y-145500000D03*
X123638000Y-145500000D03*
X123638000Y-147100000D03*
X125162000Y-147100000D03*
X117838000Y-149800000D03*
X119362000Y-149800000D03*
D24*
X121300000Y-146438000D03*
X121300000Y-147962000D03*
D13*
X125181100Y-143923600D03*
X123657100Y-143923600D03*
D24*
X109600000Y-138362000D03*
X109600000Y-136838000D03*
D25*
X104500000Y-145780100D03*
D26*
X104500000Y-143240100D03*
X104500000Y-140700100D03*
X104500000Y-138160100D03*
X104500000Y-135620100D03*
X104500000Y-133080100D03*
D11*
X109492000Y-121126000D03*
X109492000Y-120126000D03*
X128038500Y-140378500D03*
X128038500Y-141378500D03*
D27*
X149979000Y-127303000D03*
D28*
X128679000Y-127303000D03*
D29*
X119900000Y-138500000D03*
X119900000Y-136900000D03*
X119900000Y-135300000D03*
X124900000Y-138500000D03*
X124900000Y-136900000D03*
X124900000Y-135300000D03*
D30*
X108740000Y-129800000D03*
D31*
X109240000Y-129800000D03*
X109740000Y-129800000D03*
X110240000Y-129800000D03*
X110740000Y-129800000D03*
D32*
X111690000Y-128850000D03*
X111690000Y-128350000D03*
X111690000Y-127850000D03*
X111690000Y-127350000D03*
X111690000Y-126850000D03*
D31*
X110740000Y-125900000D03*
X110240000Y-125900000D03*
X109740000Y-125900000D03*
X109240000Y-125900000D03*
X108740000Y-125900000D03*
D32*
X107790000Y-126850000D03*
X107790000Y-127350000D03*
X107790000Y-127850000D03*
X107790000Y-128350000D03*
X107790000Y-128850000D03*
D33*
X109740000Y-127850000D03*
X109740000Y-127050000D03*
X108940000Y-127850000D03*
X108940000Y-127050000D03*
X108940000Y-128650000D03*
X109740000Y-128650000D03*
X110540000Y-128650000D03*
X110540000Y-127850000D03*
X110540000Y-127050000D03*
D34*
X118080000Y-128870000D03*
X118080000Y-126670000D03*
X116480000Y-126670000D03*
X116480000Y-128870000D03*
D35*
X109340000Y-122300000D03*
X109340000Y-122950000D03*
X109340000Y-123600000D03*
X110740000Y-123600000D03*
X110740000Y-122950000D03*
X110740000Y-122300000D03*
D36*
X116150000Y-137700000D03*
X114650000Y-137700000D03*
X114650000Y-136100000D03*
X116150000Y-136100000D03*
X116150000Y-134500000D03*
X114650000Y-134500000D03*
D37*
X111200000Y-134350000D03*
X111200000Y-132850000D03*
D36*
X105850000Y-126400000D03*
X104350000Y-126400000D03*
D23*
X156053100Y-127160500D03*
X156053100Y-128938500D03*
X154021100Y-128049500D03*
M02*
