G04 #@! TF.GenerationSoftware,KiCad,Pcbnew,(2017-02-02 revision 8dadc18)-makepkg*
G04 #@! TF.CreationDate,2017-11-18T17:45:44+03:00*
G04 #@! TF.ProjectId,BmstuAnchor,426D737475416E63686F722E6B696361,rev?*
G04 #@! TF.FileFunction,Copper,L2,Bot,Signal*
G04 #@! TF.FilePolarity,Positive*
%FSLAX46Y46*%
G04 Gerber Fmt 4.6, Leading zero omitted, Abs format (unit mm)*
G04 Created by KiCad (PCBNEW (2017-02-02 revision 8dadc18)-makepkg) date 11/18/17 17:45:44*
%MOMM*%
%LPD*%
G01*
G04 APERTURE LIST*
%ADD10C,0.100000*%
%ADD11R,5.000000X5.000000*%
%ADD12C,5.000000*%
%ADD13R,1.500000X1.500000*%
%ADD14C,1.500000*%
%ADD15C,1.000000*%
%ADD16R,0.800000X0.800000*%
%ADD17C,0.700000*%
%ADD18C,0.250000*%
%ADD19C,0.400000*%
G04 APERTURE END LIST*
D10*
D11*
X142659600Y-146826400D03*
D12*
X150659600Y-146826400D03*
X150659600Y-146826400D03*
D11*
X142659600Y-146826400D03*
X142659600Y-146826400D03*
D12*
X150659600Y-146826400D03*
X150659600Y-146826400D03*
D11*
X142659600Y-146826400D03*
D13*
X104500000Y-145780100D03*
D14*
X104500000Y-143240100D03*
X104500000Y-140700100D03*
X104500000Y-138160100D03*
X104500000Y-135620100D03*
X104500000Y-133080100D03*
D15*
X112900200Y-131891400D03*
D16*
X109740000Y-127850000D03*
X109740000Y-127050000D03*
X108940000Y-127850000D03*
X108940000Y-127050000D03*
X108940000Y-128650000D03*
X109740000Y-128650000D03*
X110540000Y-128650000D03*
X110540000Y-127850000D03*
X110540000Y-127050000D03*
D17*
X118700000Y-117400000D03*
X122400000Y-125800000D03*
X125200000Y-122800000D03*
X121100000Y-122600000D03*
X118700000Y-120300000D03*
X114600000Y-120300000D03*
X114600000Y-117400000D03*
X156800000Y-122200000D03*
X153400000Y-122200000D03*
X152200000Y-120900000D03*
X152200000Y-118300000D03*
X152200000Y-115500000D03*
X147200000Y-115500000D03*
X140900000Y-115500000D03*
X133800000Y-115500000D03*
X129300000Y-115500000D03*
X119900000Y-115500000D03*
X116700000Y-115500000D03*
X112700000Y-115500000D03*
X112200000Y-145300000D03*
X112200000Y-142800000D03*
X128900000Y-137100000D03*
X128989193Y-133961693D03*
X127000000Y-131900000D03*
X130300000Y-131900000D03*
X146000000Y-134700000D03*
X141300000Y-134900000D03*
X136900000Y-134800000D03*
X132200000Y-134900000D03*
X135000000Y-131900000D03*
X139100000Y-131900000D03*
X143900000Y-131900000D03*
X148300000Y-131900000D03*
X145700000Y-129200000D03*
X141200000Y-129200000D03*
X136600000Y-129300000D03*
X132500000Y-129200000D03*
X128700000Y-122000000D03*
X150200000Y-122000000D03*
X144400000Y-121900000D03*
X138700000Y-121900000D03*
X133200000Y-122000000D03*
X120500000Y-140800000D03*
X123500000Y-140800000D03*
X108300000Y-149100000D03*
X128400000Y-149800000D03*
X123600000Y-149800000D03*
X125900000Y-149700000D03*
X127400000Y-148400000D03*
X129400000Y-148400000D03*
X128700000Y-117700000D03*
X150000000Y-117700000D03*
X147600000Y-117700000D03*
X136500000Y-117700000D03*
X131600000Y-117700000D03*
X110663800Y-138839400D03*
X121756800Y-142805900D03*
X106867700Y-146914100D03*
X117235100Y-148550700D03*
X116648400Y-142209500D03*
X114412700Y-141966600D03*
X118224600Y-139903100D03*
X111943100Y-129540100D03*
X113571800Y-136240200D03*
X113998300Y-145731600D03*
X104400000Y-121300000D03*
X105900000Y-115300000D03*
X104400000Y-115300000D03*
X104400000Y-116800000D03*
X105900000Y-116800000D03*
X105900000Y-118300000D03*
X104400000Y-118400000D03*
X104400000Y-119900000D03*
X105897310Y-119888276D03*
X105900000Y-121300000D03*
X111350200Y-141521500D03*
X108560700Y-137529300D03*
X125606600Y-139921200D03*
X126156600Y-147382800D03*
X120241900Y-147736100D03*
X116840400Y-149652200D03*
X125710300Y-142865500D03*
X107524900Y-130311300D03*
X113801100Y-141150800D03*
X109351300Y-130928400D03*
X115002800Y-138812800D03*
X108380500Y-130870100D03*
X115096600Y-141194700D03*
X116653000Y-141200200D03*
X112720000Y-135032500D03*
X113405900Y-126767500D03*
X112928400Y-125071000D03*
X106995600Y-124150300D03*
X105606200Y-129158100D03*
X110354900Y-130871700D03*
X123321500Y-131770000D03*
X127336300Y-139116800D03*
X113538600Y-133806700D03*
X118001900Y-133028200D03*
X119268800Y-144078000D03*
X126483500Y-145058300D03*
D18*
X118700000Y-117400000D02*
X118700000Y-117500000D01*
X122400000Y-125600000D02*
X122400000Y-125800000D01*
X125200000Y-122800000D02*
X122400000Y-125600000D01*
X121000000Y-122600000D02*
X121100000Y-122600000D01*
X118700000Y-120300000D02*
X121000000Y-122600000D01*
X114600000Y-117400000D02*
X114600000Y-120300000D01*
X156800000Y-122200000D02*
X153400000Y-122200000D01*
X152200000Y-118300000D02*
X152200000Y-120900000D01*
X147200000Y-115500000D02*
X152200000Y-115500000D01*
X133800000Y-115500000D02*
X140900000Y-115500000D01*
X119900000Y-115500000D02*
X129300000Y-115500000D01*
X116700000Y-115500000D02*
X112700000Y-115500000D01*
X128900000Y-134050886D02*
X128900000Y-137100000D01*
X128989193Y-133961693D02*
X128900000Y-134050886D01*
X130300000Y-131900000D02*
X127000000Y-131900000D01*
X141500000Y-134700000D02*
X146000000Y-134700000D01*
X141300000Y-134900000D02*
X141500000Y-134700000D01*
X132300000Y-134800000D02*
X136900000Y-134800000D01*
X132200000Y-134900000D02*
X132300000Y-134800000D01*
X139100000Y-131900000D02*
X135000000Y-131900000D01*
X148300000Y-131900000D02*
X143900000Y-131900000D01*
X141200000Y-129200000D02*
X145700000Y-129200000D01*
X132600000Y-129300000D02*
X136600000Y-129300000D01*
X132500000Y-129200000D02*
X132600000Y-129300000D01*
X150200000Y-122000000D02*
X144500000Y-122000000D01*
X144400000Y-121900000D02*
X144500000Y-122000000D01*
X138700000Y-122000000D02*
X138700000Y-121900000D01*
X133200000Y-122000000D02*
X138700000Y-122000000D01*
X108300000Y-149100000D02*
X108300000Y-149200000D01*
X125800000Y-149800000D02*
X123600000Y-149800000D01*
X125900000Y-149700000D02*
X125800000Y-149800000D01*
X129400000Y-148400000D02*
X127400000Y-148400000D01*
X150000000Y-117700000D02*
X147600000Y-117700000D01*
X131600000Y-117700000D02*
X136500000Y-117700000D01*
X121756800Y-142805900D02*
X116648400Y-142209500D01*
X106867700Y-146914100D02*
X117235100Y-148550700D01*
X113480000Y-141925900D02*
X114412700Y-141966600D01*
X113026000Y-141471900D02*
X113480000Y-141925900D01*
X110663800Y-138839400D02*
X113026000Y-141471900D01*
X111943100Y-129540100D02*
X113366000Y-131208600D01*
X113712300Y-131555000D02*
X118224600Y-139903100D01*
X113366000Y-131208600D02*
X113712300Y-131555000D01*
X112900200Y-131891400D02*
X113366000Y-131208600D01*
X115871700Y-141515800D02*
X113998300Y-145731600D01*
X115871700Y-140873600D02*
X115871700Y-141515800D01*
X115777900Y-138491700D02*
X115871700Y-140873600D01*
X113571800Y-136240200D02*
X115777900Y-138491700D01*
X104400000Y-115300000D02*
X105900000Y-115300000D01*
X105900000Y-116800000D02*
X104400000Y-116800000D01*
X104500000Y-118300000D02*
X105900000Y-118300000D01*
X104400000Y-118400000D02*
X104500000Y-118300000D01*
X105885586Y-119900000D02*
X104400000Y-119900000D01*
X105897310Y-119888276D02*
X105885586Y-119900000D01*
X105900000Y-121300000D02*
X104400000Y-121300000D01*
X111350200Y-141521500D02*
X108330300Y-139157100D01*
X117556200Y-149325800D02*
X116840400Y-149652200D01*
X120241900Y-147736100D02*
X117556200Y-149325800D01*
X108330300Y-139157100D02*
X108560700Y-137529300D01*
X126156600Y-147382800D02*
X120241900Y-147736100D01*
X108330300Y-139157100D02*
X104500000Y-140700100D01*
X125606600Y-139921200D02*
X125710300Y-142865500D01*
X107605400Y-131191200D02*
X107524900Y-130311300D01*
X113801100Y-141150800D02*
X107605400Y-131191200D01*
X112796700Y-136561300D02*
X115002800Y-138812800D01*
X111944900Y-135353600D02*
X112796700Y-136561300D01*
X109351300Y-130928400D02*
X111944900Y-135353600D01*
X108576200Y-131249500D02*
X108380500Y-130870100D01*
X111404700Y-135591300D02*
X108576200Y-131249500D01*
X115096600Y-141194700D02*
X111404700Y-135591300D01*
X113892900Y-135465100D02*
X112720000Y-135032500D01*
X114346900Y-135919100D02*
X113892900Y-135465100D01*
X116318100Y-138254000D02*
X114346900Y-135919100D01*
X116328000Y-138277900D02*
X116318100Y-138254000D01*
X116653000Y-141200200D02*
X116328000Y-138277900D01*
D19*
X106995600Y-124150300D02*
X105606200Y-129158100D01*
X110201400Y-130576300D02*
X110354900Y-130871700D01*
X109703400Y-130078300D02*
X110201400Y-130576300D01*
X107877000Y-129461200D02*
X109703400Y-130078300D01*
X105606200Y-129158100D02*
X107877000Y-129461200D01*
D18*
X113405900Y-126767500D02*
X123321500Y-131770000D01*
D19*
X113405900Y-126767500D02*
X112928400Y-125071000D01*
D18*
X118001900Y-133028200D02*
X123321500Y-131770000D01*
X127336300Y-139116800D02*
X123321500Y-131770000D01*
X110354900Y-130871700D02*
X113538600Y-133806700D01*
X119268800Y-144078000D02*
X126483500Y-145058300D01*
G36*
X159025000Y-148610178D02*
X158641965Y-148686368D01*
X158470737Y-148757293D01*
X157821890Y-149190838D01*
X157690838Y-149321890D01*
X157690838Y-149321891D01*
X157257293Y-149970737D01*
X157186368Y-150141965D01*
X157110178Y-150525000D01*
X138675000Y-150525000D01*
X138675000Y-144326400D01*
X139777254Y-144326400D01*
X139777254Y-149326400D01*
X139806358Y-149472717D01*
X139889241Y-149596759D01*
X140013283Y-149679642D01*
X140159600Y-149708746D01*
X145159600Y-149708746D01*
X145305917Y-149679642D01*
X145429959Y-149596759D01*
X145512842Y-149472717D01*
X145541946Y-149326400D01*
X145541946Y-147395764D01*
X147784102Y-147395764D01*
X148220872Y-148452829D01*
X149028917Y-149262286D01*
X150085218Y-149700900D01*
X151228964Y-149701898D01*
X152286029Y-149265128D01*
X153095486Y-148457083D01*
X153534100Y-147400782D01*
X153535098Y-146257036D01*
X153098328Y-145199971D01*
X152290283Y-144390514D01*
X151233982Y-143951900D01*
X150090236Y-143950902D01*
X149033171Y-144387672D01*
X148223714Y-145195717D01*
X147785100Y-146252018D01*
X147784102Y-147395764D01*
X145541946Y-147395764D01*
X145541946Y-144326400D01*
X145512842Y-144180083D01*
X145429959Y-144056041D01*
X145305917Y-143973158D01*
X145159600Y-143944054D01*
X140159600Y-143944054D01*
X140013283Y-143973158D01*
X139889241Y-144056041D01*
X139806358Y-144180083D01*
X139777254Y-144326400D01*
X138675000Y-144326400D01*
X138675000Y-137400000D01*
X138638843Y-137218225D01*
X138535876Y-137064124D01*
X138381775Y-136961157D01*
X138200000Y-136925000D01*
X131800000Y-136925000D01*
X131618225Y-136961157D01*
X131464124Y-137064124D01*
X131361157Y-137218225D01*
X131325000Y-137400000D01*
X131325000Y-150525000D01*
X104889822Y-150525000D01*
X104813632Y-150141965D01*
X104742707Y-149970737D01*
X104309162Y-149321890D01*
X104178110Y-149190838D01*
X104178107Y-149190837D01*
X103529263Y-148757293D01*
X103478108Y-148736104D01*
X103358035Y-148686368D01*
X102975000Y-148610178D01*
X102975000Y-147057679D01*
X106142574Y-147057679D01*
X106252716Y-147324243D01*
X106456484Y-147528367D01*
X106722856Y-147638974D01*
X107011279Y-147639226D01*
X107277843Y-147529084D01*
X107315942Y-147491051D01*
X116619659Y-148959738D01*
X116620116Y-148960843D01*
X116823884Y-149164967D01*
X117090256Y-149275574D01*
X117378679Y-149275826D01*
X117645243Y-149165684D01*
X117849367Y-148961916D01*
X117959974Y-148695544D01*
X117960226Y-148407121D01*
X117850084Y-148140557D01*
X117646316Y-147936433D01*
X117379944Y-147825826D01*
X117091521Y-147825574D01*
X116824957Y-147935716D01*
X116786858Y-147973749D01*
X107483141Y-146505062D01*
X107482684Y-146503957D01*
X107278916Y-146299833D01*
X107012544Y-146189226D01*
X106724121Y-146188974D01*
X106457557Y-146299116D01*
X106253433Y-146502884D01*
X106142826Y-146769256D01*
X106142574Y-147057679D01*
X102975000Y-147057679D01*
X102975000Y-145030100D01*
X103367654Y-145030100D01*
X103367654Y-146530100D01*
X103396758Y-146676417D01*
X103479641Y-146800459D01*
X103603683Y-146883342D01*
X103750000Y-146912446D01*
X105250000Y-146912446D01*
X105396317Y-146883342D01*
X105520359Y-146800459D01*
X105603242Y-146676417D01*
X105632346Y-146530100D01*
X105632346Y-145030100D01*
X105603242Y-144883783D01*
X105520359Y-144759741D01*
X105396317Y-144676858D01*
X105250000Y-144647754D01*
X103750000Y-144647754D01*
X103603683Y-144676858D01*
X103479641Y-144759741D01*
X103396758Y-144883783D01*
X103367654Y-145030100D01*
X102975000Y-145030100D01*
X102975000Y-143462895D01*
X103374805Y-143462895D01*
X103545715Y-143876529D01*
X103861907Y-144193272D01*
X104275242Y-144364904D01*
X104722795Y-144365295D01*
X105136429Y-144194385D01*
X105453172Y-143878193D01*
X105624804Y-143464858D01*
X105625195Y-143017305D01*
X105454285Y-142603671D01*
X105138093Y-142286928D01*
X104724758Y-142115296D01*
X104277205Y-142114905D01*
X103863571Y-142285815D01*
X103546828Y-142602007D01*
X103375196Y-143015342D01*
X103374805Y-143462895D01*
X102975000Y-143462895D01*
X102975000Y-138382895D01*
X103374805Y-138382895D01*
X103545715Y-138796529D01*
X103861907Y-139113272D01*
X104275242Y-139284904D01*
X104722795Y-139285295D01*
X105136429Y-139114385D01*
X105453172Y-138798193D01*
X105624804Y-138384858D01*
X105625195Y-137937305D01*
X105454285Y-137523671D01*
X105138093Y-137206928D01*
X104724758Y-137035296D01*
X104277205Y-137034905D01*
X103863571Y-137205815D01*
X103546828Y-137522007D01*
X103375196Y-137935342D01*
X103374805Y-138382895D01*
X102975000Y-138382895D01*
X102975000Y-135842895D01*
X103374805Y-135842895D01*
X103545715Y-136256529D01*
X103861907Y-136573272D01*
X104275242Y-136744904D01*
X104722795Y-136745295D01*
X105136429Y-136574385D01*
X105453172Y-136258193D01*
X105624804Y-135844858D01*
X105625195Y-135397305D01*
X105454285Y-134983671D01*
X105138093Y-134666928D01*
X104724758Y-134495296D01*
X104277205Y-134494905D01*
X103863571Y-134665815D01*
X103546828Y-134982007D01*
X103375196Y-135395342D01*
X103374805Y-135842895D01*
X102975000Y-135842895D01*
X102975000Y-133302895D01*
X103374805Y-133302895D01*
X103545715Y-133716529D01*
X103861907Y-134033272D01*
X104275242Y-134204904D01*
X104722795Y-134205295D01*
X105136429Y-134034385D01*
X105453172Y-133718193D01*
X105624804Y-133304858D01*
X105625195Y-132857305D01*
X105454285Y-132443671D01*
X105138093Y-132126928D01*
X104724758Y-131955296D01*
X104277205Y-131954905D01*
X103863571Y-132125815D01*
X103546828Y-132442007D01*
X103375196Y-132855342D01*
X103374805Y-133302895D01*
X102975000Y-133302895D01*
X102975000Y-129301679D01*
X104881074Y-129301679D01*
X104991216Y-129568243D01*
X105194984Y-129772367D01*
X105461356Y-129882974D01*
X105749779Y-129883226D01*
X105980014Y-129788095D01*
X106905822Y-129911669D01*
X106800026Y-130166456D01*
X106799774Y-130454879D01*
X106909916Y-130721443D01*
X107075511Y-130887327D01*
X107107479Y-131236754D01*
X107112690Y-131254372D01*
X107112092Y-131272734D01*
X107140195Y-131347362D01*
X107162814Y-131423833D01*
X107174371Y-131438116D01*
X107180845Y-131455308D01*
X112766074Y-140433574D01*
X111388749Y-138898646D01*
X111388926Y-138695821D01*
X111278784Y-138429257D01*
X111075016Y-138225133D01*
X110808644Y-138114526D01*
X110520221Y-138114274D01*
X110253657Y-138224416D01*
X110049533Y-138428184D01*
X109938926Y-138694556D01*
X109938674Y-138982979D01*
X110048816Y-139249543D01*
X110252584Y-139453667D01*
X110518956Y-139564274D01*
X110642557Y-139564382D01*
X112653858Y-141805831D01*
X112664830Y-141814053D01*
X112672447Y-141825453D01*
X113126447Y-142279453D01*
X113198661Y-142327706D01*
X113268702Y-142379059D01*
X113279453Y-142381690D01*
X113288658Y-142387840D01*
X113373829Y-142404781D01*
X113458202Y-142425425D01*
X113863989Y-142443132D01*
X114001484Y-142580867D01*
X114267856Y-142691474D01*
X114556279Y-142691726D01*
X114822843Y-142581584D01*
X114873353Y-142531162D01*
X113755091Y-145047640D01*
X113588157Y-145116616D01*
X113384033Y-145320384D01*
X113273426Y-145586756D01*
X113273174Y-145875179D01*
X113383316Y-146141743D01*
X113587084Y-146345867D01*
X113853456Y-146456474D01*
X114141879Y-146456726D01*
X114408443Y-146346584D01*
X114612567Y-146142816D01*
X114723174Y-145876444D01*
X114723426Y-145588021D01*
X114668413Y-145454879D01*
X115216462Y-144221579D01*
X118543674Y-144221579D01*
X118653816Y-144488143D01*
X118857584Y-144692267D01*
X119123956Y-144802874D01*
X119412379Y-144803126D01*
X119678943Y-144692984D01*
X119727140Y-144644871D01*
X125881093Y-145481042D01*
X126072284Y-145672567D01*
X126338656Y-145783174D01*
X126627079Y-145783426D01*
X126893643Y-145673284D01*
X127097767Y-145469516D01*
X127208374Y-145203144D01*
X127208626Y-144914721D01*
X127098484Y-144648157D01*
X126894716Y-144444033D01*
X126628344Y-144333426D01*
X126339921Y-144333174D01*
X126073357Y-144443316D01*
X126025160Y-144491429D01*
X119871207Y-143655258D01*
X119680016Y-143463733D01*
X119413644Y-143353126D01*
X119125221Y-143352874D01*
X118858657Y-143463016D01*
X118654533Y-143666784D01*
X118543926Y-143933156D01*
X118543674Y-144221579D01*
X115216462Y-144221579D01*
X115982781Y-142497096D01*
X116033416Y-142619643D01*
X116237184Y-142823767D01*
X116503556Y-142934374D01*
X116791979Y-142934626D01*
X117058543Y-142824484D01*
X117115676Y-142767450D01*
X121166058Y-143240328D01*
X121345584Y-143420167D01*
X121611956Y-143530774D01*
X121900379Y-143531026D01*
X122166943Y-143420884D01*
X122371067Y-143217116D01*
X122481674Y-142950744D01*
X122481926Y-142662321D01*
X122371784Y-142395757D01*
X122168016Y-142191633D01*
X121901644Y-142081026D01*
X121613221Y-142080774D01*
X121346657Y-142190916D01*
X121289524Y-142247950D01*
X117239142Y-141775072D01*
X117171352Y-141707164D01*
X117267267Y-141611416D01*
X117377874Y-141345044D01*
X117378126Y-141056621D01*
X117267984Y-140790057D01*
X117090720Y-140612483D01*
X116844890Y-138402052D01*
X117533708Y-139676418D01*
X117499726Y-139758256D01*
X117499474Y-140046679D01*
X117609616Y-140313243D01*
X117813384Y-140517367D01*
X118079756Y-140627974D01*
X118368179Y-140628226D01*
X118634743Y-140518084D01*
X118838867Y-140314316D01*
X118949474Y-140047944D01*
X118949726Y-139759521D01*
X118839584Y-139492957D01*
X118635816Y-139288833D01*
X118410336Y-139195206D01*
X114152157Y-131317249D01*
X114106050Y-131261598D01*
X114065905Y-131201498D01*
X113733599Y-130869097D01*
X112668031Y-129619606D01*
X112668226Y-129396521D01*
X112558084Y-129129957D01*
X112354316Y-128925833D01*
X112087944Y-128815226D01*
X111799521Y-128814974D01*
X111532957Y-128925116D01*
X111328833Y-129128884D01*
X111218226Y-129395256D01*
X111217974Y-129683679D01*
X111328116Y-129950243D01*
X111531884Y-130154367D01*
X111798256Y-130264974D01*
X111904224Y-130265067D01*
X112592277Y-131071880D01*
X112405200Y-131149179D01*
X112158844Y-131395105D01*
X112025352Y-131716588D01*
X112025339Y-131731601D01*
X111079911Y-130860026D01*
X111080026Y-130728121D01*
X110969884Y-130461557D01*
X110766116Y-130257433D01*
X110628385Y-130200242D01*
X110607986Y-130169713D01*
X110109986Y-129671714D01*
X110093792Y-129660894D01*
X110081912Y-129645456D01*
X110001029Y-129598911D01*
X109923443Y-129547069D01*
X109904339Y-129543269D01*
X109887457Y-129533554D01*
X108061057Y-128916454D01*
X108005804Y-128909259D01*
X107953075Y-128891255D01*
X106336811Y-128675521D01*
X107297038Y-125214579D01*
X112203274Y-125214579D01*
X112313416Y-125481143D01*
X112498754Y-125666805D01*
X112732738Y-126498120D01*
X112681026Y-126622656D01*
X112680774Y-126911079D01*
X112790916Y-127177643D01*
X112994684Y-127381767D01*
X113261056Y-127492374D01*
X113549479Y-127492626D01*
X113650449Y-127450906D01*
X121872403Y-131598948D01*
X118415709Y-132416530D01*
X118413116Y-132413933D01*
X118146744Y-132303326D01*
X117858321Y-132303074D01*
X117591757Y-132413216D01*
X117387633Y-132616984D01*
X117277026Y-132883356D01*
X117276774Y-133171779D01*
X117386916Y-133438343D01*
X117590684Y-133642467D01*
X117857056Y-133753074D01*
X118145479Y-133753326D01*
X118412043Y-133643184D01*
X118616167Y-133439416D01*
X118635832Y-133392056D01*
X122907691Y-132381670D01*
X122910284Y-132384267D01*
X123139374Y-132479393D01*
X126644212Y-138892998D01*
X126611426Y-138971956D01*
X126611174Y-139260379D01*
X126721316Y-139526943D01*
X126925084Y-139731067D01*
X127191456Y-139841674D01*
X127479879Y-139841926D01*
X127746443Y-139731784D01*
X127950567Y-139528016D01*
X128061174Y-139261644D01*
X128061426Y-138973221D01*
X127951284Y-138706657D01*
X127747516Y-138502533D01*
X127518425Y-138407406D01*
X124013588Y-131993802D01*
X124046374Y-131914844D01*
X124046626Y-131626421D01*
X123936484Y-131359857D01*
X123732716Y-131155733D01*
X123466344Y-131045126D01*
X123177921Y-131044874D01*
X123076951Y-131086594D01*
X114104603Y-126559973D01*
X114020884Y-126357357D01*
X113835546Y-126171695D01*
X113601562Y-125340380D01*
X113653274Y-125215844D01*
X113653526Y-124927421D01*
X113543384Y-124660857D01*
X113339616Y-124456733D01*
X113073244Y-124346126D01*
X112784821Y-124345874D01*
X112518257Y-124456016D01*
X112314133Y-124659784D01*
X112203526Y-124926156D01*
X112203274Y-125214579D01*
X107297038Y-125214579D01*
X107427805Y-124743260D01*
X107609867Y-124561516D01*
X107720474Y-124295144D01*
X107720726Y-124006721D01*
X107610584Y-123740157D01*
X107406816Y-123536033D01*
X107140444Y-123425426D01*
X106852021Y-123425174D01*
X106585457Y-123535316D01*
X106381333Y-123739084D01*
X106270726Y-124005456D01*
X106270474Y-124293879D01*
X106323463Y-124422122D01*
X105173994Y-128565140D01*
X104991933Y-128746884D01*
X104881326Y-129013256D01*
X104881074Y-129301679D01*
X102975000Y-129301679D01*
X102975000Y-114625000D01*
X106675000Y-114625000D01*
X106675000Y-119400000D01*
X106684515Y-119447835D01*
X106711612Y-119488388D01*
X106752165Y-119515485D01*
X106800000Y-119525000D01*
X111400000Y-119525000D01*
X111447835Y-119515485D01*
X111488388Y-119488388D01*
X111515485Y-119447835D01*
X111525000Y-119400000D01*
X111525000Y-118000000D01*
X120525000Y-118000000D01*
X120713398Y-118947141D01*
X121249911Y-119750089D01*
X122052859Y-120286602D01*
X123000000Y-120475000D01*
X123947141Y-120286602D01*
X124750089Y-119750089D01*
X125286602Y-118947141D01*
X125475000Y-118000000D01*
X153525000Y-118000000D01*
X153713398Y-118947141D01*
X154249911Y-119750089D01*
X155052859Y-120286602D01*
X156000000Y-120475000D01*
X156947141Y-120286602D01*
X157750089Y-119750089D01*
X158286602Y-118947141D01*
X158475000Y-118000000D01*
X158286602Y-117052859D01*
X157750089Y-116249911D01*
X156947141Y-115713398D01*
X156000000Y-115525000D01*
X155052859Y-115713398D01*
X154249911Y-116249911D01*
X153713398Y-117052859D01*
X153525000Y-118000000D01*
X125475000Y-118000000D01*
X125286602Y-117052859D01*
X124750089Y-116249911D01*
X123947141Y-115713398D01*
X123000000Y-115525000D01*
X122052859Y-115713398D01*
X121249911Y-116249911D01*
X120713398Y-117052859D01*
X120525000Y-118000000D01*
X111525000Y-118000000D01*
X111525000Y-114525000D01*
X159025000Y-114525000D01*
X159025000Y-148610178D01*
X159025000Y-148610178D01*
G37*
X159025000Y-148610178D02*
X158641965Y-148686368D01*
X158470737Y-148757293D01*
X157821890Y-149190838D01*
X157690838Y-149321890D01*
X157690838Y-149321891D01*
X157257293Y-149970737D01*
X157186368Y-150141965D01*
X157110178Y-150525000D01*
X138675000Y-150525000D01*
X138675000Y-144326400D01*
X139777254Y-144326400D01*
X139777254Y-149326400D01*
X139806358Y-149472717D01*
X139889241Y-149596759D01*
X140013283Y-149679642D01*
X140159600Y-149708746D01*
X145159600Y-149708746D01*
X145305917Y-149679642D01*
X145429959Y-149596759D01*
X145512842Y-149472717D01*
X145541946Y-149326400D01*
X145541946Y-147395764D01*
X147784102Y-147395764D01*
X148220872Y-148452829D01*
X149028917Y-149262286D01*
X150085218Y-149700900D01*
X151228964Y-149701898D01*
X152286029Y-149265128D01*
X153095486Y-148457083D01*
X153534100Y-147400782D01*
X153535098Y-146257036D01*
X153098328Y-145199971D01*
X152290283Y-144390514D01*
X151233982Y-143951900D01*
X150090236Y-143950902D01*
X149033171Y-144387672D01*
X148223714Y-145195717D01*
X147785100Y-146252018D01*
X147784102Y-147395764D01*
X145541946Y-147395764D01*
X145541946Y-144326400D01*
X145512842Y-144180083D01*
X145429959Y-144056041D01*
X145305917Y-143973158D01*
X145159600Y-143944054D01*
X140159600Y-143944054D01*
X140013283Y-143973158D01*
X139889241Y-144056041D01*
X139806358Y-144180083D01*
X139777254Y-144326400D01*
X138675000Y-144326400D01*
X138675000Y-137400000D01*
X138638843Y-137218225D01*
X138535876Y-137064124D01*
X138381775Y-136961157D01*
X138200000Y-136925000D01*
X131800000Y-136925000D01*
X131618225Y-136961157D01*
X131464124Y-137064124D01*
X131361157Y-137218225D01*
X131325000Y-137400000D01*
X131325000Y-150525000D01*
X104889822Y-150525000D01*
X104813632Y-150141965D01*
X104742707Y-149970737D01*
X104309162Y-149321890D01*
X104178110Y-149190838D01*
X104178107Y-149190837D01*
X103529263Y-148757293D01*
X103478108Y-148736104D01*
X103358035Y-148686368D01*
X102975000Y-148610178D01*
X102975000Y-147057679D01*
X106142574Y-147057679D01*
X106252716Y-147324243D01*
X106456484Y-147528367D01*
X106722856Y-147638974D01*
X107011279Y-147639226D01*
X107277843Y-147529084D01*
X107315942Y-147491051D01*
X116619659Y-148959738D01*
X116620116Y-148960843D01*
X116823884Y-149164967D01*
X117090256Y-149275574D01*
X117378679Y-149275826D01*
X117645243Y-149165684D01*
X117849367Y-148961916D01*
X117959974Y-148695544D01*
X117960226Y-148407121D01*
X117850084Y-148140557D01*
X117646316Y-147936433D01*
X117379944Y-147825826D01*
X117091521Y-147825574D01*
X116824957Y-147935716D01*
X116786858Y-147973749D01*
X107483141Y-146505062D01*
X107482684Y-146503957D01*
X107278916Y-146299833D01*
X107012544Y-146189226D01*
X106724121Y-146188974D01*
X106457557Y-146299116D01*
X106253433Y-146502884D01*
X106142826Y-146769256D01*
X106142574Y-147057679D01*
X102975000Y-147057679D01*
X102975000Y-145030100D01*
X103367654Y-145030100D01*
X103367654Y-146530100D01*
X103396758Y-146676417D01*
X103479641Y-146800459D01*
X103603683Y-146883342D01*
X103750000Y-146912446D01*
X105250000Y-146912446D01*
X105396317Y-146883342D01*
X105520359Y-146800459D01*
X105603242Y-146676417D01*
X105632346Y-146530100D01*
X105632346Y-145030100D01*
X105603242Y-144883783D01*
X105520359Y-144759741D01*
X105396317Y-144676858D01*
X105250000Y-144647754D01*
X103750000Y-144647754D01*
X103603683Y-144676858D01*
X103479641Y-144759741D01*
X103396758Y-144883783D01*
X103367654Y-145030100D01*
X102975000Y-145030100D01*
X102975000Y-143462895D01*
X103374805Y-143462895D01*
X103545715Y-143876529D01*
X103861907Y-144193272D01*
X104275242Y-144364904D01*
X104722795Y-144365295D01*
X105136429Y-144194385D01*
X105453172Y-143878193D01*
X105624804Y-143464858D01*
X105625195Y-143017305D01*
X105454285Y-142603671D01*
X105138093Y-142286928D01*
X104724758Y-142115296D01*
X104277205Y-142114905D01*
X103863571Y-142285815D01*
X103546828Y-142602007D01*
X103375196Y-143015342D01*
X103374805Y-143462895D01*
X102975000Y-143462895D01*
X102975000Y-138382895D01*
X103374805Y-138382895D01*
X103545715Y-138796529D01*
X103861907Y-139113272D01*
X104275242Y-139284904D01*
X104722795Y-139285295D01*
X105136429Y-139114385D01*
X105453172Y-138798193D01*
X105624804Y-138384858D01*
X105625195Y-137937305D01*
X105454285Y-137523671D01*
X105138093Y-137206928D01*
X104724758Y-137035296D01*
X104277205Y-137034905D01*
X103863571Y-137205815D01*
X103546828Y-137522007D01*
X103375196Y-137935342D01*
X103374805Y-138382895D01*
X102975000Y-138382895D01*
X102975000Y-135842895D01*
X103374805Y-135842895D01*
X103545715Y-136256529D01*
X103861907Y-136573272D01*
X104275242Y-136744904D01*
X104722795Y-136745295D01*
X105136429Y-136574385D01*
X105453172Y-136258193D01*
X105624804Y-135844858D01*
X105625195Y-135397305D01*
X105454285Y-134983671D01*
X105138093Y-134666928D01*
X104724758Y-134495296D01*
X104277205Y-134494905D01*
X103863571Y-134665815D01*
X103546828Y-134982007D01*
X103375196Y-135395342D01*
X103374805Y-135842895D01*
X102975000Y-135842895D01*
X102975000Y-133302895D01*
X103374805Y-133302895D01*
X103545715Y-133716529D01*
X103861907Y-134033272D01*
X104275242Y-134204904D01*
X104722795Y-134205295D01*
X105136429Y-134034385D01*
X105453172Y-133718193D01*
X105624804Y-133304858D01*
X105625195Y-132857305D01*
X105454285Y-132443671D01*
X105138093Y-132126928D01*
X104724758Y-131955296D01*
X104277205Y-131954905D01*
X103863571Y-132125815D01*
X103546828Y-132442007D01*
X103375196Y-132855342D01*
X103374805Y-133302895D01*
X102975000Y-133302895D01*
X102975000Y-129301679D01*
X104881074Y-129301679D01*
X104991216Y-129568243D01*
X105194984Y-129772367D01*
X105461356Y-129882974D01*
X105749779Y-129883226D01*
X105980014Y-129788095D01*
X106905822Y-129911669D01*
X106800026Y-130166456D01*
X106799774Y-130454879D01*
X106909916Y-130721443D01*
X107075511Y-130887327D01*
X107107479Y-131236754D01*
X107112690Y-131254372D01*
X107112092Y-131272734D01*
X107140195Y-131347362D01*
X107162814Y-131423833D01*
X107174371Y-131438116D01*
X107180845Y-131455308D01*
X112766074Y-140433574D01*
X111388749Y-138898646D01*
X111388926Y-138695821D01*
X111278784Y-138429257D01*
X111075016Y-138225133D01*
X110808644Y-138114526D01*
X110520221Y-138114274D01*
X110253657Y-138224416D01*
X110049533Y-138428184D01*
X109938926Y-138694556D01*
X109938674Y-138982979D01*
X110048816Y-139249543D01*
X110252584Y-139453667D01*
X110518956Y-139564274D01*
X110642557Y-139564382D01*
X112653858Y-141805831D01*
X112664830Y-141814053D01*
X112672447Y-141825453D01*
X113126447Y-142279453D01*
X113198661Y-142327706D01*
X113268702Y-142379059D01*
X113279453Y-142381690D01*
X113288658Y-142387840D01*
X113373829Y-142404781D01*
X113458202Y-142425425D01*
X113863989Y-142443132D01*
X114001484Y-142580867D01*
X114267856Y-142691474D01*
X114556279Y-142691726D01*
X114822843Y-142581584D01*
X114873353Y-142531162D01*
X113755091Y-145047640D01*
X113588157Y-145116616D01*
X113384033Y-145320384D01*
X113273426Y-145586756D01*
X113273174Y-145875179D01*
X113383316Y-146141743D01*
X113587084Y-146345867D01*
X113853456Y-146456474D01*
X114141879Y-146456726D01*
X114408443Y-146346584D01*
X114612567Y-146142816D01*
X114723174Y-145876444D01*
X114723426Y-145588021D01*
X114668413Y-145454879D01*
X115216462Y-144221579D01*
X118543674Y-144221579D01*
X118653816Y-144488143D01*
X118857584Y-144692267D01*
X119123956Y-144802874D01*
X119412379Y-144803126D01*
X119678943Y-144692984D01*
X119727140Y-144644871D01*
X125881093Y-145481042D01*
X126072284Y-145672567D01*
X126338656Y-145783174D01*
X126627079Y-145783426D01*
X126893643Y-145673284D01*
X127097767Y-145469516D01*
X127208374Y-145203144D01*
X127208626Y-144914721D01*
X127098484Y-144648157D01*
X126894716Y-144444033D01*
X126628344Y-144333426D01*
X126339921Y-144333174D01*
X126073357Y-144443316D01*
X126025160Y-144491429D01*
X119871207Y-143655258D01*
X119680016Y-143463733D01*
X119413644Y-143353126D01*
X119125221Y-143352874D01*
X118858657Y-143463016D01*
X118654533Y-143666784D01*
X118543926Y-143933156D01*
X118543674Y-144221579D01*
X115216462Y-144221579D01*
X115982781Y-142497096D01*
X116033416Y-142619643D01*
X116237184Y-142823767D01*
X116503556Y-142934374D01*
X116791979Y-142934626D01*
X117058543Y-142824484D01*
X117115676Y-142767450D01*
X121166058Y-143240328D01*
X121345584Y-143420167D01*
X121611956Y-143530774D01*
X121900379Y-143531026D01*
X122166943Y-143420884D01*
X122371067Y-143217116D01*
X122481674Y-142950744D01*
X122481926Y-142662321D01*
X122371784Y-142395757D01*
X122168016Y-142191633D01*
X121901644Y-142081026D01*
X121613221Y-142080774D01*
X121346657Y-142190916D01*
X121289524Y-142247950D01*
X117239142Y-141775072D01*
X117171352Y-141707164D01*
X117267267Y-141611416D01*
X117377874Y-141345044D01*
X117378126Y-141056621D01*
X117267984Y-140790057D01*
X117090720Y-140612483D01*
X116844890Y-138402052D01*
X117533708Y-139676418D01*
X117499726Y-139758256D01*
X117499474Y-140046679D01*
X117609616Y-140313243D01*
X117813384Y-140517367D01*
X118079756Y-140627974D01*
X118368179Y-140628226D01*
X118634743Y-140518084D01*
X118838867Y-140314316D01*
X118949474Y-140047944D01*
X118949726Y-139759521D01*
X118839584Y-139492957D01*
X118635816Y-139288833D01*
X118410336Y-139195206D01*
X114152157Y-131317249D01*
X114106050Y-131261598D01*
X114065905Y-131201498D01*
X113733599Y-130869097D01*
X112668031Y-129619606D01*
X112668226Y-129396521D01*
X112558084Y-129129957D01*
X112354316Y-128925833D01*
X112087944Y-128815226D01*
X111799521Y-128814974D01*
X111532957Y-128925116D01*
X111328833Y-129128884D01*
X111218226Y-129395256D01*
X111217974Y-129683679D01*
X111328116Y-129950243D01*
X111531884Y-130154367D01*
X111798256Y-130264974D01*
X111904224Y-130265067D01*
X112592277Y-131071880D01*
X112405200Y-131149179D01*
X112158844Y-131395105D01*
X112025352Y-131716588D01*
X112025339Y-131731601D01*
X111079911Y-130860026D01*
X111080026Y-130728121D01*
X110969884Y-130461557D01*
X110766116Y-130257433D01*
X110628385Y-130200242D01*
X110607986Y-130169713D01*
X110109986Y-129671714D01*
X110093792Y-129660894D01*
X110081912Y-129645456D01*
X110001029Y-129598911D01*
X109923443Y-129547069D01*
X109904339Y-129543269D01*
X109887457Y-129533554D01*
X108061057Y-128916454D01*
X108005804Y-128909259D01*
X107953075Y-128891255D01*
X106336811Y-128675521D01*
X107297038Y-125214579D01*
X112203274Y-125214579D01*
X112313416Y-125481143D01*
X112498754Y-125666805D01*
X112732738Y-126498120D01*
X112681026Y-126622656D01*
X112680774Y-126911079D01*
X112790916Y-127177643D01*
X112994684Y-127381767D01*
X113261056Y-127492374D01*
X113549479Y-127492626D01*
X113650449Y-127450906D01*
X121872403Y-131598948D01*
X118415709Y-132416530D01*
X118413116Y-132413933D01*
X118146744Y-132303326D01*
X117858321Y-132303074D01*
X117591757Y-132413216D01*
X117387633Y-132616984D01*
X117277026Y-132883356D01*
X117276774Y-133171779D01*
X117386916Y-133438343D01*
X117590684Y-133642467D01*
X117857056Y-133753074D01*
X118145479Y-133753326D01*
X118412043Y-133643184D01*
X118616167Y-133439416D01*
X118635832Y-133392056D01*
X122907691Y-132381670D01*
X122910284Y-132384267D01*
X123139374Y-132479393D01*
X126644212Y-138892998D01*
X126611426Y-138971956D01*
X126611174Y-139260379D01*
X126721316Y-139526943D01*
X126925084Y-139731067D01*
X127191456Y-139841674D01*
X127479879Y-139841926D01*
X127746443Y-139731784D01*
X127950567Y-139528016D01*
X128061174Y-139261644D01*
X128061426Y-138973221D01*
X127951284Y-138706657D01*
X127747516Y-138502533D01*
X127518425Y-138407406D01*
X124013588Y-131993802D01*
X124046374Y-131914844D01*
X124046626Y-131626421D01*
X123936484Y-131359857D01*
X123732716Y-131155733D01*
X123466344Y-131045126D01*
X123177921Y-131044874D01*
X123076951Y-131086594D01*
X114104603Y-126559973D01*
X114020884Y-126357357D01*
X113835546Y-126171695D01*
X113601562Y-125340380D01*
X113653274Y-125215844D01*
X113653526Y-124927421D01*
X113543384Y-124660857D01*
X113339616Y-124456733D01*
X113073244Y-124346126D01*
X112784821Y-124345874D01*
X112518257Y-124456016D01*
X112314133Y-124659784D01*
X112203526Y-124926156D01*
X112203274Y-125214579D01*
X107297038Y-125214579D01*
X107427805Y-124743260D01*
X107609867Y-124561516D01*
X107720474Y-124295144D01*
X107720726Y-124006721D01*
X107610584Y-123740157D01*
X107406816Y-123536033D01*
X107140444Y-123425426D01*
X106852021Y-123425174D01*
X106585457Y-123535316D01*
X106381333Y-123739084D01*
X106270726Y-124005456D01*
X106270474Y-124293879D01*
X106323463Y-124422122D01*
X105173994Y-128565140D01*
X104991933Y-128746884D01*
X104881326Y-129013256D01*
X104881074Y-129301679D01*
X102975000Y-129301679D01*
X102975000Y-114625000D01*
X106675000Y-114625000D01*
X106675000Y-119400000D01*
X106684515Y-119447835D01*
X106711612Y-119488388D01*
X106752165Y-119515485D01*
X106800000Y-119525000D01*
X111400000Y-119525000D01*
X111447835Y-119515485D01*
X111488388Y-119488388D01*
X111515485Y-119447835D01*
X111525000Y-119400000D01*
X111525000Y-118000000D01*
X120525000Y-118000000D01*
X120713398Y-118947141D01*
X121249911Y-119750089D01*
X122052859Y-120286602D01*
X123000000Y-120475000D01*
X123947141Y-120286602D01*
X124750089Y-119750089D01*
X125286602Y-118947141D01*
X125475000Y-118000000D01*
X153525000Y-118000000D01*
X153713398Y-118947141D01*
X154249911Y-119750089D01*
X155052859Y-120286602D01*
X156000000Y-120475000D01*
X156947141Y-120286602D01*
X157750089Y-119750089D01*
X158286602Y-118947141D01*
X158475000Y-118000000D01*
X158286602Y-117052859D01*
X157750089Y-116249911D01*
X156947141Y-115713398D01*
X156000000Y-115525000D01*
X155052859Y-115713398D01*
X154249911Y-116249911D01*
X153713398Y-117052859D01*
X153525000Y-118000000D01*
X125475000Y-118000000D01*
X125286602Y-117052859D01*
X124750089Y-116249911D01*
X123947141Y-115713398D01*
X123000000Y-115525000D01*
X122052859Y-115713398D01*
X121249911Y-116249911D01*
X120713398Y-117052859D01*
X120525000Y-118000000D01*
X111525000Y-118000000D01*
X111525000Y-114525000D01*
X159025000Y-114525000D01*
X159025000Y-148610178D01*
M02*
