  0
SECTION
  2
HEADER
  9
$ANGBASE
  50
0.0
  9
$ANGDIR
  70
  1
  9
$MEASUREMENT
  70
0
  0
ENDSEC
  0
SECTION
  2
TABLES
  0
TABLE
  2
LTYPE
  70
1
  0
LTYPE
  2
CONTINUOUS
  70
0
  3
Solid line
  72
65
  73
0
  40
0.0
  0
ENDTAB
  0
TABLE
  2
STYLE
  70
4
  0
STYLE
  2
KICAD
  70
0
  40
0
  41
1
  42
1
  50
0
  71
0
  3
isocp.shx
  0
STYLE
  2
KICADB
  70
0
  40
0
  41
1
  42
1
  50
0
  71
0
  3
isocp.shx
  0
STYLE
  2
KICADI
  70
0
  40
0
  41
1
  42
1
  50
15
  71
0
  3
isocp.shx
  0
STYLE
  2
KICADBI
  70
0
  40
0
  41
1
  42
1
  50
15
  71
0
  3
isocp.shx
  0
ENDTAB
  0
TABLE
  2
LAYER
  70
30
  0
LAYER
  2
BLACK
  70
0
  62
7
  6
CONTINUOUS
  0
LAYER
  2
GRAY1
  70
0
  62
251
  6
CONTINUOUS
  0
LAYER
  2
GRAY2
  70
0
  62
8
  6
CONTINUOUS
  0
LAYER
  2
GRAY3
  70
0
  62
9
  6
CONTINUOUS
  0
LAYER
  2
WHITE
  70
0
  62
7
  6
CONTINUOUS
  0
LAYER
  2
LYELLOW
  70
0
  62
51
  6
CONTINUOUS
  0
LAYER
  2
BLUE1
  70
0
  62
178
  6
CONTINUOUS
  0
LAYER
  2
GREEN1
  70
0
  62
98
  6
CONTINUOUS
  0
LAYER
  2
CYAN1
  70
0
  62
138
  6
CONTINUOUS
  0
LAYER
  2
RED1
  70
0
  62
18
  6
CONTINUOUS
  0
LAYER
  2
MAGENTA1
  70
0
  62
228
  6
CONTINUOUS
  0
LAYER
  2
BROWN1
  70
0
  62
58
  6
CONTINUOUS
  0
LAYER
  2
BLUE2
  70
0
  62
5
  6
CONTINUOUS
  0
LAYER
  2
GREEN2
  70
0
  62
3
  6
CONTINUOUS
  0
LAYER
  2
CYAN2
  70
0
  62
4
  6
CONTINUOUS
  0
LAYER
  2
RED2
  70
0
  62
1
  6
CONTINUOUS
  0
LAYER
  2
MAGENTA2
  70
0
  62
6
  6
CONTINUOUS
  0
LAYER
  2
BROWN2
  70
0
  62
54
  6
CONTINUOUS
  0
LAYER
  2
BLUE3
  70
0
  62
171
  6
CONTINUOUS
  0
LAYER
  2
GREEN3
  70
0
  62
91
  6
CONTINUOUS
  0
LAYER
  2
CYAN3
  70
0
  62
131
  6
CONTINUOUS
  0
LAYER
  2
RED3
  70
0
  62
11
  6
CONTINUOUS
  0
LAYER
  2
MAGENTA3
  70
0
  62
221
  6
CONTINUOUS
  0
LAYER
  2
YELLOW3
  70
0
  62
2
  6
CONTINUOUS
  0
LAYER
  2
BLUE4
  70
0
  62
5
  6
CONTINUOUS
  0
LAYER
  2
GREEN4
  70
0
  62
3
  6
CONTINUOUS
  0
LAYER
  2
CYAN4
  70
0
  62
4
  6
CONTINUOUS
  0
LAYER
  2
RED4
  70
0
  62
1
  6
CONTINUOUS
  0
LAYER
  2
MAGENTA4
  70
0
  62
6
  6
CONTINUOUS
  0
LAYER
  2
YELLOW4
  70
0
  62
2
  6
CONTINUOUS
  0
ENDTAB
  0
ENDSEC
  0
SECTION
  2
ENTITIES
0
LINE
8
Black
10
138.191
20
-151.098
11
138.183
21
-151.098
0
LINE
8
Black
10
138.183
20
-151.098
11
138.174
21
-151.095
0
LINE
8
Black
10
138.174
20
-151.095
11
138.166
21
-151.094
0
LINE
8
Black
10
138.166
20
-151.094
11
138.158
21
-151.09
0
LINE
8
Black
10
138.158
20
-151.09
11
138.15
21
-151.087
0
LINE
8
Black
10
138.15
20
-151.087
11
138.143
21
-151.081
0
LINE
8
Black
10
138.143
20
-151.081
11
138.136
21
-151.077
0
LINE
8
Black
10
138.136
20
-151.077
11
138.13
21
-151.07
0
LINE
8
Black
10
138.13
20
-151.07
11
138.123
21
-151.064
0
LINE
8
Black
10
138.123
20
-151.064
11
138.119
21
-151.057
0
LINE
8
Black
10
138.119
20
-151.057
11
138.113
21
-151.05
0
LINE
8
Black
10
138.113
20
-151.05
11
138.11
21
-151.042
0
LINE
8
Black
10
138.11
20
-151.042
11
138.106
21
-151.034
0
LINE
8
Black
10
138.106
20
-151.034
11
138.105
21
-151.026
0
LINE
8
Black
10
138.105
20
-151.026
11
138.102
21
-151.017
0
LINE
8
Black
10
138.102
20
-151.017
11
138.102
21
-151.009
0
LINE
8
Black
10
138.102
20
-151.009
11
138.1
21
-151
0
LINE
8
Black
10
138.1
20
-151
11
138.1
21
-137.5
0
LINE
8
Black
10
138.1
20
-137.5
11
131.9
21
-137.5
0
LINE
8
Black
10
131.9
20
-137.5
11
131.9
21
-151
0
LINE
8
Black
10
131.9
20
-151
11
131.898
21
-151.009
0
LINE
8
Black
10
131.898
20
-151.009
11
131.898
21
-151.017
0
LINE
8
Black
10
131.898
20
-151.017
11
131.895
21
-151.026
0
LINE
8
Black
10
131.895
20
-151.026
11
131.894
21
-151.034
0
LINE
8
Black
10
131.894
20
-151.034
11
131.89
21
-151.042
0
LINE
8
Black
10
131.89
20
-151.042
11
131.887
21
-151.05
0
LINE
8
Black
10
131.887
20
-151.05
11
131.881
21
-151.057
0
LINE
8
Black
10
131.881
20
-151.057
11
131.877
21
-151.064
0
LINE
8
Black
10
131.877
20
-151.064
11
131.87
21
-151.07
0
LINE
8
Black
10
131.87
20
-151.07
11
131.864
21
-151.077
0
LINE
8
Black
10
131.864
20
-151.077
11
131.857
21
-151.081
0
LINE
8
Black
10
131.857
20
-151.081
11
131.85
21
-151.087
0
LINE
8
Black
10
131.85
20
-151.087
11
131.842
21
-151.09
0
LINE
8
Black
10
131.842
20
-151.09
11
131.834
21
-151.094
0
LINE
8
Black
10
131.834
20
-151.094
11
131.826
21
-151.095
0
LINE
8
Black
10
131.826
20
-151.095
11
131.817
21
-151.098
0
LINE
8
Black
10
131.817
20
-151.098
11
131.809
21
-151.098
0
LINE
8
Black
10
131.809
20
-151.098
11
131.8
21
-151.1
0
LINE
8
Black
10
131.8
20
-151.1
11
104.5
21
-151.1
0
LINE
8
Black
10
104.5
20
-151.1
11
104.496
21
-151.099
0
LINE
8
Black
10
104.496
20
-151.099
11
104.491
21
-151.1
0
LINE
8
Black
10
104.491
20
-151.1
11
104.479
21
-151.096
0
LINE
8
Black
10
104.479
20
-151.096
11
104.466
21
-151.094
0
LINE
8
Black
10
104.466
20
-151.094
11
104.462
21
-151.092
0
LINE
8
Black
10
104.462
20
-151.092
11
104.458
21
-151.091
0
LINE
8
Black
10
104.458
20
-151.091
11
104.447
21
-151.083
0
LINE
8
Black
10
104.447
20
-151.083
11
104.436
21
-151.077
0
LINE
8
Black
10
104.436
20
-151.077
11
104.433
21
-151.073
0
LINE
8
Black
10
104.433
20
-151.073
11
104.429
21
-151.071
0
LINE
8
Black
10
104.429
20
-151.071
11
104.422
21
-151.06
0
LINE
8
Black
10
104.422
20
-151.06
11
104.413
21
-151.05
0
LINE
8
Black
10
104.413
20
-151.05
11
104.412
21
-151.046
0
LINE
8
Black
10
104.412
20
-151.046
11
104.409
21
-151.042
0
LINE
8
Black
10
104.409
20
-151.042
11
104.406
21
-151.03
0
LINE
8
Black
10
104.406
20
-151.03
11
104.402
21
-151.017
0
LINE
8
Black
10
104.402
20
-151.017
11
104.402
21
-151.013
0
LINE
8
Black
10
104.402
20
-151.013
11
104.4
21
-151.009
0
LINE
8
Black
10
104.4
20
-151.009
11
104.371
21
-150.675
0
LINE
8
Black
10
104.371
20
-150.675
11
104.144
21
-150.051
0
LINE
8
Black
10
104.144
20
-150.051
11
103.72
21
-149.546
0
LINE
8
Black
10
103.72
20
-149.546
11
103.149
21
-149.216
0
LINE
8
Black
10
103.149
20
-149.216
11
102.483
21
-149.098
0
LINE
8
Black
10
102.483
20
-149.098
11
102.45
21
-149.087
0
LINE
8
Black
10
102.45
20
-149.087
11
102.423
21
-149.064
0
LINE
8
Black
10
102.423
20
-149.064
11
102.423
21
-149.064
0
LINE
8
Black
10
102.423
20
-149.064
11
102.406
21
-149.034
0
LINE
8
Black
10
102.406
20
-149.034
11
102.4
21
-149
0
LINE
8
Black
10
102.4
20
-149
11
102.4
21
-101
0
LINE
8
Black
10
102.4
20
-101
11
102.402
21
-100.991
0
LINE
8
Black
10
102.402
20
-100.991
11
102.402
21
-100.983
0
LINE
8
Black
10
102.402
20
-100.983
11
102.405
21
-100.974
0
LINE
8
Black
10
102.405
20
-100.974
11
102.406
21
-100.966
0
LINE
8
Black
10
102.406
20
-100.966
11
102.41
21
-100.958
0
LINE
8
Black
10
102.41
20
-100.958
11
102.413
21
-100.95
0
LINE
8
Black
10
102.413
20
-100.95
11
102.419
21
-100.943
0
LINE
8
Black
10
102.419
20
-100.943
11
102.423
21
-100.936
0
LINE
8
Black
10
102.423
20
-100.936
11
102.43
21
-100.93
0
LINE
8
Black
10
102.43
20
-100.93
11
102.436
21
-100.923
0
LINE
8
Black
10
102.436
20
-100.923
11
102.443
21
-100.919
0
LINE
8
Black
10
102.443
20
-100.919
11
102.45
21
-100.913
0
LINE
8
Black
10
102.45
20
-100.913
11
102.458
21
-100.91
0
LINE
8
Black
10
102.458
20
-100.91
11
102.466
21
-100.906
0
LINE
8
Black
10
102.466
20
-100.906
11
102.474
21
-100.905
0
LINE
8
Black
10
102.474
20
-100.905
11
102.483
21
-100.902
0
LINE
8
Black
10
102.483
20
-100.902
11
102.491
21
-100.902
0
LINE
8
Black
10
102.491
20
-100.902
11
102.5
21
-100.9
0
LINE
8
Black
10
102.5
20
-100.9
11
159.5
21
-100.9
0
LINE
8
Black
10
159.5
20
-100.9
11
159.509
21
-100.902
0
LINE
8
Black
10
159.509
20
-100.902
11
159.517
21
-100.902
0
LINE
8
Black
10
159.517
20
-100.902
11
159.526
21
-100.905
0
LINE
8
Black
10
159.526
20
-100.905
11
159.534
21
-100.906
0
LINE
8
Black
10
159.534
20
-100.906
11
159.542
21
-100.91
0
LINE
8
Black
10
159.542
20
-100.91
11
159.55
21
-100.913
0
LINE
8
Black
10
159.55
20
-100.913
11
159.557
21
-100.919
0
LINE
8
Black
10
159.557
20
-100.919
11
159.564
21
-100.923
0
LINE
8
Black
10
159.564
20
-100.923
11
159.57
21
-100.93
0
LINE
8
Black
10
159.57
20
-100.93
11
159.577
21
-100.936
0
LINE
8
Black
10
159.577
20
-100.936
11
159.581
21
-100.943
0
LINE
8
Black
10
159.581
20
-100.943
11
159.587
21
-100.95
0
LINE
8
Black
10
159.587
20
-100.95
11
159.59
21
-100.958
0
LINE
8
Black
10
159.59
20
-100.958
11
159.594
21
-100.966
0
LINE
8
Black
10
159.594
20
-100.966
11
159.595
21
-100.974
0
LINE
8
Black
10
159.595
20
-100.974
11
159.598
21
-100.983
0
LINE
8
Black
10
159.598
20
-100.983
11
159.598
21
-100.991
0
LINE
8
Black
10
159.598
20
-100.991
11
159.6
21
-101
0
LINE
8
Black
10
159.6
20
-101
11
159.6
21
-149
0
LINE
8
Black
10
159.6
20
-149
11
159.599
21
-149.004
0
LINE
8
Black
10
159.599
20
-149.004
11
159.6
21
-149.009
0
LINE
8
Black
10
159.6
20
-149.009
11
159.596
21
-149.021
0
LINE
8
Black
10
159.596
20
-149.021
11
159.594
21
-149.034
0
LINE
8
Black
10
159.594
20
-149.034
11
159.592
21
-149.038
0
LINE
8
Black
10
159.592
20
-149.038
11
159.591
21
-149.042
0
LINE
8
Black
10
159.591
20
-149.042
11
159.583
21
-149.053
0
LINE
8
Black
10
159.583
20
-149.053
11
159.577
21
-149.064
0
LINE
8
Black
10
159.577
20
-149.064
11
159.573
21
-149.067
0
LINE
8
Black
10
159.573
20
-149.067
11
159.571
21
-149.071
0
LINE
8
Black
10
159.571
20
-149.071
11
159.56
21
-149.078
0
LINE
8
Black
10
159.56
20
-149.078
11
159.55
21
-149.087
0
LINE
8
Black
10
159.55
20
-149.087
11
159.546
21
-149.088
0
LINE
8
Black
10
159.546
20
-149.088
11
159.542
21
-149.091
0
LINE
8
Black
10
159.542
20
-149.091
11
159.53
21
-149.094
0
LINE
8
Black
10
159.53
20
-149.094
11
159.517
21
-149.098
0
LINE
8
Black
10
159.517
20
-149.098
11
159.513
21
-149.098
0
LINE
8
Black
10
159.513
20
-149.098
11
159.509
21
-149.1
0
LINE
8
Black
10
159.509
20
-149.1
11
159.175
21
-149.129
0
LINE
8
Black
10
159.175
20
-149.129
11
158.551
21
-149.356
0
LINE
8
Black
10
158.551
20
-149.356
11
158.046
21
-149.78
0
LINE
8
Black
10
158.046
20
-149.78
11
157.716
21
-150.351
0
LINE
8
Black
10
157.716
20
-150.351
11
157.598
21
-151.017
0
LINE
8
Black
10
157.598
20
-151.017
11
157.587
21
-151.05
0
LINE
8
Black
10
157.587
20
-151.05
11
157.575
21
-151.064
0
LINE
8
Black
10
157.575
20
-151.064
11
157.564
21
-151.077
0
LINE
8
Black
10
157.564
20
-151.077
11
157.534
21
-151.094
0
LINE
8
Black
10
157.534
20
-151.094
11
157.5
21
-151.1
0
LINE
8
Black
10
157.5
20
-151.1
11
138.2
21
-151.1
0
LINE
8
Black
10
138.2
20
-151.1
11
138.191
21
-151.098
0
LINE
8
Black
10
102.6
20
-101.1
11
102.6
21
-148.916
0
LINE
8
Black
10
102.6
20
-148.916
11
103.201
21
-149.022
0
LINE
8
Black
10
103.201
20
-149.022
11
103.201
21
-149.022
0
LINE
8
Black
10
103.201
20
-149.022
11
103.234
21
-149.034
0
LINE
8
Black
10
103.234
20
-149.034
11
103.836
21
-149.381
0
LINE
8
Black
10
103.836
20
-149.381
11
103.862
21
-149.404
0
LINE
8
Black
10
103.862
20
-149.404
11
104.309
21
-149.936
0
LINE
8
Black
10
104.309
20
-149.936
11
104.326
21
-149.966
0
LINE
8
Black
10
104.326
20
-149.966
11
104.564
21
-150.619
0
LINE
8
Black
10
104.564
20
-150.619
11
104.566
21
-150.631
0
LINE
8
Black
10
104.566
20
-150.631
11
104.569
21
-150.644
0
LINE
8
Black
10
104.569
20
-150.644
11
104.592
21
-150.9
0
LINE
8
Black
10
104.592
20
-150.9
11
131.7
21
-150.9
0
LINE
8
Black
10
131.7
20
-150.9
11
131.7
21
-137.4
0
LINE
8
Black
10
131.7
20
-137.4
11
131.702
21
-137.391
0
LINE
8
Black
10
131.702
20
-137.391
11
131.702
21
-137.383
0
LINE
8
Black
10
131.702
20
-137.383
11
131.705
21
-137.374
0
LINE
8
Black
10
131.705
20
-137.374
11
131.706
21
-137.366
0
LINE
8
Black
10
131.706
20
-137.366
11
131.71
21
-137.358
0
LINE
8
Black
10
131.71
20
-137.358
11
131.713
21
-137.35
0
LINE
8
Black
10
131.713
20
-137.35
11
131.719
21
-137.343
0
LINE
8
Black
10
131.719
20
-137.343
11
131.723
21
-137.336
0
LINE
8
Black
10
131.723
20
-137.336
11
131.73
21
-137.33
0
LINE
8
Black
10
131.73
20
-137.33
11
131.736
21
-137.323
0
LINE
8
Black
10
131.736
20
-137.323
11
131.743
21
-137.319
0
LINE
8
Black
10
131.743
20
-137.319
11
131.75
21
-137.313
0
LINE
8
Black
10
131.75
20
-137.313
11
131.758
21
-137.31
0
LINE
8
Black
10
131.758
20
-137.31
11
131.766
21
-137.306
0
LINE
8
Black
10
131.766
20
-137.306
11
131.774
21
-137.305
0
LINE
8
Black
10
131.774
20
-137.305
11
131.783
21
-137.302
0
LINE
8
Black
10
131.783
20
-137.302
11
131.791
21
-137.302
0
LINE
8
Black
10
131.791
20
-137.302
11
131.8
21
-137.3
0
LINE
8
Black
10
131.8
20
-137.3
11
138.2
21
-137.3
0
LINE
8
Black
10
138.2
20
-137.3
11
138.209
21
-137.302
0
LINE
8
Black
10
138.209
20
-137.302
11
138.217
21
-137.302
0
LINE
8
Black
10
138.217
20
-137.302
11
138.226
21
-137.305
0
LINE
8
Black
10
138.226
20
-137.305
11
138.234
21
-137.306
0
LINE
8
Black
10
138.234
20
-137.306
11
138.242
21
-137.31
0
LINE
8
Black
10
138.242
20
-137.31
11
138.25
21
-137.313
0
LINE
8
Black
10
138.25
20
-137.313
11
138.257
21
-137.319
0
LINE
8
Black
10
138.257
20
-137.319
11
138.264
21
-137.323
0
LINE
8
Black
10
138.264
20
-137.323
11
138.27
21
-137.33
0
LINE
8
Black
10
138.27
20
-137.33
11
138.277
21
-137.336
0
LINE
8
Black
10
138.277
20
-137.336
11
138.281
21
-137.343
0
LINE
8
Black
10
138.281
20
-137.343
11
138.287
21
-137.35
0
LINE
8
Black
10
138.287
20
-137.35
11
138.29
21
-137.358
0
LINE
8
Black
10
138.29
20
-137.358
11
138.294
21
-137.366
0
LINE
8
Black
10
138.294
20
-137.366
11
138.295
21
-137.374
0
LINE
8
Black
10
138.295
20
-137.374
11
138.298
21
-137.383
0
LINE
8
Black
10
138.298
20
-137.383
11
138.298
21
-137.391
0
LINE
8
Black
10
138.298
20
-137.391
11
138.3
21
-137.4
0
LINE
8
Black
10
138.3
20
-137.4
11
138.3
21
-150.9
0
LINE
8
Black
10
138.3
20
-150.9
11
157.416
21
-150.9
0
LINE
8
Black
10
157.416
20
-150.9
11
157.522
21
-150.299
0
LINE
8
Black
10
157.522
20
-150.299
11
157.522
21
-150.299
0
LINE
8
Black
10
157.522
20
-150.299
11
157.534
21
-150.266
0
LINE
8
Black
10
157.534
20
-150.266
11
157.881
21
-149.664
0
LINE
8
Black
10
157.881
20
-149.664
11
157.904
21
-149.638
0
LINE
8
Black
10
157.904
20
-149.638
11
157.904
21
-149.638
0
LINE
8
Black
10
157.904
20
-149.638
11
158.436
21
-149.191
0
LINE
8
Black
10
158.436
20
-149.191
11
158.466
21
-149.174
0
LINE
8
Black
10
158.466
20
-149.174
11
159.119
21
-148.936
0
LINE
8
Black
10
159.119
20
-148.936
11
159.131
21
-148.934
0
LINE
8
Black
10
159.131
20
-148.934
11
159.144
21
-148.931
0
LINE
8
Black
10
159.144
20
-148.931
11
159.4
21
-148.908
0
LINE
8
Black
10
159.4
20
-148.908
11
159.4
21
-101.1
0
LINE
8
Black
10
159.4
20
-101.1
11
102.6
21
-101.1
0
LINE
8
Black
10
157.609
20
-119.35
11
157.05
21
-119.819
0
LINE
8
Black
10
157.05
20
-119.819
11
156.365
21
-120.068
0
LINE
8
Black
10
156.365
20
-120.068
11
155.635
21
-120.068
0
LINE
8
Black
10
155.635
20
-120.068
11
154.95
21
-119.819
0
LINE
8
Black
10
154.95
20
-119.819
11
154.391
21
-119.35
0
LINE
8
Black
10
154.391
20
-119.35
11
154.027
21
-118.718
0
LINE
8
Black
10
154.027
20
-118.718
11
153.9
21
-118
0
LINE
8
Black
10
153.9
20
-118
11
154.027
21
-117.282
0
LINE
8
Black
10
154.027
20
-117.282
11
154.391
21
-116.65
0
LINE
8
Black
10
154.391
20
-116.65
11
154.95
21
-116.181
0
LINE
8
Black
10
154.95
20
-116.181
11
155.635
21
-115.932
0
LINE
8
Black
10
155.635
20
-115.932
11
156.365
21
-115.932
0
LINE
8
Black
10
156.365
20
-115.932
11
157.05
21
-116.181
0
LINE
8
Black
10
157.05
20
-116.181
11
157.609
21
-116.65
0
LINE
8
Black
10
157.609
20
-116.65
11
157.973
21
-117.282
0
LINE
8
Black
10
157.973
20
-117.282
11
158.1
21
-118
0
LINE
8
Black
10
158.1
20
-118
11
157.973
21
-118.718
0
LINE
8
Black
10
157.973
20
-118.718
11
157.609
21
-119.35
0
LINE
8
Black
10
157.455
20
-116.779
11
156.95
21
-116.355
0
LINE
8
Black
10
156.95
20
-116.355
11
156.33
21
-116.129
0
LINE
8
Black
10
156.33
20
-116.129
11
155.67
21
-116.129
0
LINE
8
Black
10
155.67
20
-116.129
11
155.05
21
-116.355
0
LINE
8
Black
10
155.05
20
-116.355
11
154.545
21
-116.779
0
LINE
8
Black
10
154.545
20
-116.779
11
154.215
21
-117.35
0
LINE
8
Black
10
154.215
20
-117.35
11
154.1
21
-118
0
LINE
8
Black
10
154.1
20
-118
11
154.215
21
-118.65
0
LINE
8
Black
10
154.215
20
-118.65
11
154.545
21
-119.221
0
LINE
8
Black
10
154.545
20
-119.221
11
155.05
21
-119.645
0
LINE
8
Black
10
155.05
20
-119.645
11
155.67
21
-119.871
0
LINE
8
Black
10
155.67
20
-119.871
11
156.33
21
-119.871
0
LINE
8
Black
10
156.33
20
-119.871
11
156.95
21
-119.645
0
LINE
8
Black
10
156.95
20
-119.645
11
157.455
21
-119.221
0
LINE
8
Black
10
157.455
20
-119.221
11
157.785
21
-118.65
0
LINE
8
Black
10
157.785
20
-118.65
11
157.9
21
-118
0
LINE
8
Black
10
157.9
20
-118
11
157.785
21
-117.35
0
LINE
8
Black
10
157.785
20
-117.35
11
157.455
21
-116.779
0
LINE
8
Black
10
124.609
20
-119.35
11
124.05
21
-119.819
0
LINE
8
Black
10
124.05
20
-119.819
11
123.365
21
-120.068
0
LINE
8
Black
10
123.365
20
-120.068
11
122.635
21
-120.068
0
LINE
8
Black
10
122.635
20
-120.068
11
121.95
21
-119.819
0
LINE
8
Black
10
121.95
20
-119.819
11
121.391
21
-119.35
0
LINE
8
Black
10
121.391
20
-119.35
11
121.027
21
-118.718
0
LINE
8
Black
10
121.027
20
-118.718
11
120.9
21
-118
0
LINE
8
Black
10
120.9
20
-118
11
121.027
21
-117.282
0
LINE
8
Black
10
121.027
20
-117.282
11
121.391
21
-116.65
0
LINE
8
Black
10
121.391
20
-116.65
11
121.95
21
-116.181
0
LINE
8
Black
10
121.95
20
-116.181
11
122.635
21
-115.932
0
LINE
8
Black
10
122.635
20
-115.932
11
123.365
21
-115.932
0
LINE
8
Black
10
123.365
20
-115.932
11
124.05
21
-116.181
0
LINE
8
Black
10
124.05
20
-116.181
11
124.609
21
-116.65
0
LINE
8
Black
10
124.609
20
-116.65
11
124.973
21
-117.282
0
LINE
8
Black
10
124.973
20
-117.282
11
125.1
21
-118
0
LINE
8
Black
10
125.1
20
-118
11
124.973
21
-118.718
0
LINE
8
Black
10
124.973
20
-118.718
11
124.609
21
-119.35
0
LINE
8
Black
10
124.455
20
-116.779
11
123.95
21
-116.355
0
LINE
8
Black
10
123.95
20
-116.355
11
123.33
21
-116.129
0
LINE
8
Black
10
123.33
20
-116.129
11
122.67
21
-116.129
0
LINE
8
Black
10
122.67
20
-116.129
11
122.05
21
-116.355
0
LINE
8
Black
10
122.05
20
-116.355
11
121.545
21
-116.779
0
LINE
8
Black
10
121.545
20
-116.779
11
121.215
21
-117.35
0
LINE
8
Black
10
121.215
20
-117.35
11
121.1
21
-118
0
LINE
8
Black
10
121.1
20
-118
11
121.215
21
-118.65
0
LINE
8
Black
10
121.215
20
-118.65
11
121.545
21
-119.221
0
LINE
8
Black
10
121.545
20
-119.221
11
122.05
21
-119.645
0
LINE
8
Black
10
122.05
20
-119.645
11
122.67
21
-119.871
0
LINE
8
Black
10
122.67
20
-119.871
11
123.33
21
-119.871
0
LINE
8
Black
10
123.33
20
-119.871
11
123.95
21
-119.645
0
LINE
8
Black
10
123.95
20
-119.645
11
124.455
21
-119.221
0
LINE
8
Black
10
124.455
20
-119.221
11
124.785
21
-118.65
0
LINE
8
Black
10
124.785
20
-118.65
11
124.9
21
-118
0
LINE
8
Black
10
124.9
20
-118
11
124.785
21
-117.35
0
LINE
8
Black
10
124.785
20
-117.35
11
124.455
21
-116.779
  0
ENDSEC
  0
EOF
