G04 #@! TF.GenerationSoftware,KiCad,Pcbnew,(2017-02-02 revision 8dadc18)-makepkg*
G04 #@! TF.CreationDate,2017-11-18T17:45:44+03:00*
G04 #@! TF.ProjectId,BmstuAnchor,426D737475416E63686F722E6B696361,rev?*
G04 #@! TF.FileFunction,Legend,Top*
G04 #@! TF.FilePolarity,Positive*
%FSLAX46Y46*%
G04 Gerber Fmt 4.6, Leading zero omitted, Abs format (unit mm)*
G04 Created by KiCad (PCBNEW (2017-02-02 revision 8dadc18)-makepkg) date 11/18/17 17:45:44*
%MOMM*%
%LPD*%
G01*
G04 APERTURE LIST*
%ADD10C,0.100000*%
%ADD11C,0.150000*%
%ADD12C,0.200660*%
%ADD13C,0.127000*%
%ADD14C,0.149860*%
%ADD15C,0.050000*%
G04 APERTURE END LIST*
D10*
D11*
X110050700Y-118346100D02*
X110050700Y-119446100D01*
X110050700Y-119446100D02*
X108850700Y-119446100D01*
X108850700Y-119446100D02*
X108850700Y-117246100D01*
X108850700Y-117246100D02*
X110050700Y-117246100D01*
X110050700Y-117246100D02*
X110050700Y-118346100D01*
X121400000Y-130200000D02*
X121400000Y-129400000D01*
X121400000Y-129400000D02*
X124400000Y-129400000D01*
X124400000Y-129400000D02*
X124400000Y-131000000D01*
X124400000Y-131000000D02*
X121400000Y-131000000D01*
X121400000Y-131000000D02*
X121400000Y-130200000D01*
X153595800Y-130597500D02*
X153595800Y-129797500D01*
X153595800Y-129797500D02*
X156595800Y-129797500D01*
X156595800Y-129797500D02*
X156595800Y-131397500D01*
X156595800Y-131397500D02*
X153595800Y-131397500D01*
X153595800Y-131397500D02*
X153595800Y-130597500D01*
X158754000Y-135958000D02*
X158754000Y-131558000D01*
X150354000Y-131558000D02*
X150354000Y-135958000D01*
X150354000Y-131558000D02*
X158754000Y-131558000D01*
X150354000Y-135958000D02*
X158754000Y-135958000D01*
X148252000Y-143146000D02*
X139252000Y-143146000D01*
X139252000Y-143146000D02*
X139252000Y-137146000D01*
X148252000Y-137146000D02*
X139252000Y-137146000D01*
X148252000Y-137146000D02*
X148252000Y-143146000D01*
X138859600Y-150226400D02*
X138859600Y-143226400D01*
X138859600Y-150426400D02*
X138859600Y-148826400D01*
X154759600Y-150426400D02*
X138659600Y-150426400D01*
X154759600Y-143226400D02*
X154759600Y-150426400D01*
X138659600Y-150426400D02*
X138659600Y-143226400D01*
X138959600Y-143226400D02*
X138959600Y-150426400D01*
X139159600Y-143226400D02*
X139159600Y-150426400D01*
X139059600Y-150426400D02*
X139059600Y-143226400D01*
X138859600Y-150426400D02*
X138859600Y-148826400D01*
X138859600Y-150426400D02*
X138859600Y-148826400D01*
X138759600Y-143226400D02*
X138759600Y-150426400D01*
X138659600Y-143226400D02*
X154759600Y-143226400D01*
D12*
X155066140Y-142354360D02*
X154565760Y-142354360D01*
X155066140Y-137355640D02*
X155066140Y-142354360D01*
X154565760Y-137355640D02*
X155066140Y-137355640D01*
X152063860Y-137355640D02*
X152564240Y-137355640D01*
X152063860Y-142354360D02*
X152063860Y-137355640D01*
X152564240Y-142354360D02*
X152063860Y-142354360D01*
X152965560Y-140454440D02*
X153565000Y-140454440D01*
X153565000Y-139255560D02*
X152965560Y-140454440D01*
X154164440Y-140454440D02*
X153565000Y-139255560D01*
X153565000Y-140454440D02*
X154164440Y-140454440D01*
X154164440Y-139255560D02*
X152965560Y-139255560D01*
X150728440Y-139179560D02*
X149529560Y-139179560D01*
X150129000Y-140378440D02*
X150728440Y-140378440D01*
X150728440Y-140378440D02*
X150129000Y-139179560D01*
X150129000Y-139179560D02*
X149529560Y-140378440D01*
X149529560Y-140378440D02*
X150129000Y-140378440D01*
X149128240Y-142278360D02*
X148627860Y-142278360D01*
X148627860Y-142278360D02*
X148627860Y-137279640D01*
X148627860Y-137279640D02*
X149128240Y-137279640D01*
X151129760Y-137279640D02*
X151630140Y-137279640D01*
X151630140Y-137279640D02*
X151630140Y-142278360D01*
X151630140Y-142278360D02*
X151129760Y-142278360D01*
D11*
X117250000Y-146950000D02*
X116550000Y-147650000D01*
X113800000Y-147650000D02*
X110350000Y-147650000D01*
X110350000Y-147650000D02*
X110350000Y-140750000D01*
X110350000Y-140750000D02*
X117250000Y-140750000D01*
X117250000Y-140750000D02*
X117250000Y-147650000D01*
X117250000Y-147650000D02*
X113800000Y-147650000D01*
D13*
X157289300Y-138173100D02*
X157289300Y-141221100D01*
X157289300Y-141221100D02*
X156527300Y-141221100D01*
X156527300Y-141221100D02*
X156527300Y-138173100D01*
X156527300Y-138173100D02*
X157289300Y-138173100D01*
D11*
X110170000Y-120534000D02*
X111270000Y-120534000D01*
X110170000Y-121734000D02*
X110170000Y-120534000D01*
X112370000Y-121734000D02*
X110170000Y-121734000D01*
X112370000Y-120534000D02*
X112370000Y-121734000D01*
X111270000Y-120534000D02*
X112370000Y-120534000D01*
X107714000Y-120718000D02*
X106614000Y-120718000D01*
X106614000Y-120718000D02*
X106614000Y-119518000D01*
X106614000Y-119518000D02*
X108814000Y-119518000D01*
X108814000Y-119518000D02*
X108814000Y-120718000D01*
X108814000Y-120718000D02*
X107714000Y-120718000D01*
X106739000Y-123526000D02*
X106739000Y-124326000D01*
X106739000Y-124326000D02*
X103739000Y-124326000D01*
X103739000Y-124326000D02*
X103739000Y-122726000D01*
X103739000Y-122726000D02*
X106739000Y-122726000D01*
X106739000Y-122726000D02*
X106739000Y-123526000D01*
X111500000Y-124050000D02*
X111500000Y-123250000D01*
X114500000Y-124050000D02*
X111500000Y-124050000D01*
X114500000Y-122450000D02*
X114500000Y-124050000D01*
X111500000Y-122450000D02*
X114500000Y-122450000D01*
X111500000Y-123250000D02*
X111500000Y-122450000D01*
X114470000Y-126370000D02*
X115270000Y-126370000D01*
X115270000Y-126370000D02*
X115270000Y-129370000D01*
X115270000Y-129370000D02*
X113670000Y-129370000D01*
X113670000Y-129370000D02*
X113670000Y-126370000D01*
X113670000Y-126370000D02*
X114470000Y-126370000D01*
X107200000Y-132100000D02*
X108000000Y-132100000D01*
X107200000Y-135100000D02*
X107200000Y-132100000D01*
X108800000Y-135100000D02*
X107200000Y-135100000D01*
X108800000Y-132100000D02*
X108800000Y-135100000D01*
X108000000Y-132100000D02*
X108800000Y-132100000D01*
X106600000Y-128100000D02*
X106600000Y-128900000D01*
X106600000Y-128900000D02*
X103600000Y-128900000D01*
X103600000Y-128900000D02*
X103600000Y-127300000D01*
X103600000Y-127300000D02*
X106600000Y-127300000D01*
X106600000Y-127300000D02*
X106600000Y-128100000D01*
X153433300Y-125147800D02*
X153433300Y-124347800D01*
X153433300Y-124347800D02*
X156433300Y-124347800D01*
X156433300Y-124347800D02*
X156433300Y-125947800D01*
X156433300Y-125947800D02*
X153433300Y-125947800D01*
X153433300Y-125947800D02*
X153433300Y-125147800D01*
X108614000Y-123976000D02*
X107814000Y-123976000D01*
X108614000Y-120976000D02*
X108614000Y-123976000D01*
X107014000Y-120976000D02*
X108614000Y-120976000D01*
X107014000Y-123976000D02*
X107014000Y-120976000D01*
X107814000Y-123976000D02*
X107014000Y-123976000D01*
X109600000Y-132100000D02*
X110400000Y-132100000D01*
X110400000Y-132100000D02*
X110400000Y-135100000D01*
X110400000Y-135100000D02*
X108800000Y-135100000D01*
X108800000Y-135100000D02*
X108800000Y-132100000D01*
X108800000Y-132100000D02*
X109600000Y-132100000D01*
X115780000Y-124970000D02*
X115780000Y-124170000D01*
X118780000Y-124970000D02*
X115780000Y-124970000D01*
X118780000Y-123370000D02*
X118780000Y-124970000D01*
X115780000Y-123370000D02*
X118780000Y-123370000D01*
X115780000Y-124170000D02*
X115780000Y-123370000D01*
X118780000Y-131370000D02*
X118780000Y-132170000D01*
X118780000Y-132170000D02*
X115780000Y-132170000D01*
X115780000Y-132170000D02*
X115780000Y-130570000D01*
X115780000Y-130570000D02*
X118780000Y-130570000D01*
X118780000Y-130570000D02*
X118780000Y-131370000D01*
X122900000Y-146300000D02*
X122900000Y-145500000D01*
X125900000Y-146300000D02*
X122900000Y-146300000D01*
X125900000Y-144700000D02*
X125900000Y-146300000D01*
X122900000Y-144700000D02*
X125900000Y-144700000D01*
X122900000Y-145500000D02*
X122900000Y-144700000D01*
X122900000Y-147100000D02*
X122900000Y-146300000D01*
X122900000Y-146300000D02*
X125900000Y-146300000D01*
X125900000Y-146300000D02*
X125900000Y-147900000D01*
X125900000Y-147900000D02*
X122900000Y-147900000D01*
X122900000Y-147900000D02*
X122900000Y-147100000D01*
X120100000Y-149000000D02*
X120100000Y-149800000D01*
X117100000Y-149000000D02*
X120100000Y-149000000D01*
X117100000Y-150600000D02*
X117100000Y-149000000D01*
X120100000Y-150600000D02*
X117100000Y-150600000D01*
X120100000Y-149800000D02*
X120100000Y-150600000D01*
X121300000Y-145700000D02*
X122100000Y-145700000D01*
X122100000Y-145700000D02*
X122100000Y-148700000D01*
X122100000Y-148700000D02*
X120500000Y-148700000D01*
X120500000Y-148700000D02*
X120500000Y-145700000D01*
X120500000Y-145700000D02*
X121300000Y-145700000D01*
X122919100Y-144723600D02*
X122919100Y-143923600D01*
X125919100Y-144723600D02*
X122919100Y-144723600D01*
X125919100Y-143123600D02*
X125919100Y-144723600D01*
X122919100Y-143123600D02*
X125919100Y-143123600D01*
X122919100Y-143923600D02*
X122919100Y-143123600D01*
X109600000Y-139100000D02*
X108800000Y-139100000D01*
X108800000Y-139100000D02*
X108800000Y-136100000D01*
X108800000Y-136100000D02*
X110400000Y-136100000D01*
X110400000Y-136100000D02*
X110400000Y-139100000D01*
X110400000Y-139100000D02*
X109600000Y-139100000D01*
X105770000Y-147050100D02*
X105770000Y-131810100D01*
X103230000Y-131810100D02*
X103230000Y-147050100D01*
X103230000Y-131810100D02*
X105770000Y-131810100D01*
X105770000Y-147050100D02*
X105770000Y-147304100D01*
X105770000Y-147304100D02*
X103230000Y-147304100D01*
X103230000Y-147304100D02*
X103230000Y-147050100D01*
X103230000Y-147050100D02*
X103230000Y-147177100D01*
X103230000Y-147177100D02*
X105770000Y-147177100D01*
X105770000Y-147050100D02*
X103230000Y-147050100D01*
X110092000Y-119526000D02*
X110092000Y-120626000D01*
X108892000Y-119526000D02*
X110092000Y-119526000D01*
X108892000Y-121726000D02*
X108892000Y-119526000D01*
X110092000Y-121726000D02*
X108892000Y-121726000D01*
X110092000Y-120626000D02*
X110092000Y-121726000D01*
X128638500Y-140878500D02*
X128638500Y-141978500D01*
X128638500Y-141978500D02*
X127438500Y-141978500D01*
X127438500Y-141978500D02*
X127438500Y-139778500D01*
X127438500Y-139778500D02*
X128638500Y-139778500D01*
X128638500Y-139778500D02*
X128638500Y-140878500D01*
X149479000Y-119303000D02*
X147679000Y-119303000D01*
X149479000Y-135303000D02*
X147679000Y-135303000D01*
X149479000Y-135303000D02*
G75*
G03X149479000Y-119303000I-8000000J8000000D01*
G01*
X127229000Y-125553000D02*
X127229000Y-119303000D01*
X127229000Y-119303000D02*
X135229000Y-119303000D01*
X127229000Y-129303000D02*
X127229000Y-135303000D01*
X127229000Y-135303000D02*
X135479000Y-135303000D01*
X151579000Y-127303000D02*
G75*
G03X151579000Y-127303000I-10100000J0D01*
G01*
X124150000Y-139400000D02*
X124900000Y-138650000D01*
X125150000Y-139150000D02*
X125150000Y-139650000D01*
X125150000Y-139650000D02*
X124400000Y-139650000D01*
X124400000Y-139900000D02*
X125400000Y-139900000D01*
X125400000Y-139900000D02*
X125400000Y-139150000D01*
D14*
X124599640Y-136900000D02*
G75*
G03X124599640Y-136900000I-2199640J0D01*
G01*
X119900640Y-139399360D02*
X119900640Y-134400640D01*
X119900640Y-134400640D02*
X124899360Y-134400640D01*
X124899360Y-134400640D02*
X124899360Y-139399360D01*
X124899360Y-139399360D02*
X119900640Y-139399360D01*
D11*
X111740000Y-129350000D02*
X111740000Y-129850000D01*
X111740000Y-129850000D02*
X111240000Y-129850000D01*
X111240000Y-125850000D02*
X111740000Y-125850000D01*
X111740000Y-125850000D02*
X111740000Y-126350000D01*
X107740000Y-126350000D02*
X107740000Y-125850000D01*
X107740000Y-125850000D02*
X108240000Y-125850000D01*
X108240000Y-129850000D02*
X107740000Y-129850000D01*
X107740000Y-129850000D02*
X107740000Y-129350000D01*
X107740000Y-129350000D02*
X108240000Y-129850000D01*
X108190000Y-130550000D02*
X107040000Y-129400000D01*
X107040000Y-125150000D02*
X112440000Y-125150000D01*
X112440000Y-125150000D02*
X112440000Y-130550000D01*
X112440000Y-130550000D02*
X107040000Y-130550000D01*
X107040000Y-130550000D02*
X107040000Y-125150000D01*
X115756000Y-129802000D02*
X115756000Y-125738000D01*
X115756000Y-125738000D02*
X118804000Y-125738000D01*
X118804000Y-125738000D02*
X118804000Y-129802000D01*
X118804000Y-129802000D02*
X115756000Y-129802000D01*
X109840000Y-121900000D02*
X109840000Y-122470000D01*
X109840000Y-122470000D02*
X110240000Y-122470000D01*
X110240000Y-122470000D02*
X110240000Y-121900000D01*
X110670000Y-123950000D02*
X110670000Y-121950000D01*
X109410000Y-123950000D02*
X109410000Y-121950000D01*
X108860000Y-124000000D02*
X108860000Y-121900000D01*
X108860000Y-121900000D02*
X111220000Y-121900000D01*
X111220000Y-121900000D02*
X111220000Y-124000000D01*
X111220000Y-124000000D02*
X108860000Y-124000000D01*
X116900000Y-137700000D02*
X116900000Y-138500000D01*
X116900000Y-138500000D02*
X113900000Y-138500000D01*
X113900000Y-138500000D02*
X113900000Y-136900000D01*
X113900000Y-136900000D02*
X116900000Y-136900000D01*
X116900000Y-136900000D02*
X116900000Y-137700000D01*
X116900000Y-135300000D02*
X116900000Y-136100000D01*
X113900000Y-135300000D02*
X116900000Y-135300000D01*
X113900000Y-136900000D02*
X113900000Y-135300000D01*
X116900000Y-136900000D02*
X113900000Y-136900000D01*
X116900000Y-136100000D02*
X116900000Y-136900000D01*
X116900000Y-134500000D02*
X116900000Y-135300000D01*
X116900000Y-135300000D02*
X113900000Y-135300000D01*
X113900000Y-135300000D02*
X113900000Y-133700000D01*
X113900000Y-133700000D02*
X116900000Y-133700000D01*
X116900000Y-133700000D02*
X116900000Y-134500000D01*
X110400000Y-132100000D02*
X111200000Y-132100000D01*
X110400000Y-135100000D02*
X110400000Y-132100000D01*
X112000000Y-135100000D02*
X110400000Y-135100000D01*
X112000000Y-132100000D02*
X112000000Y-135100000D01*
X111200000Y-132100000D02*
X112000000Y-132100000D01*
X106600000Y-126400000D02*
X106600000Y-127200000D01*
X106600000Y-127200000D02*
X103600000Y-127200000D01*
X103600000Y-127200000D02*
X103600000Y-125600000D01*
X103600000Y-125600000D02*
X106600000Y-125600000D01*
X106600000Y-125600000D02*
X106600000Y-126400000D01*
D13*
X155418100Y-126525500D02*
X155418100Y-129573500D01*
X155418100Y-129573500D02*
X154656100Y-129573500D01*
X154656100Y-129573500D02*
X154656100Y-126525500D01*
X154656100Y-126525500D02*
X155418100Y-126525500D01*
D11*
X109614285Y-118685714D02*
X109642857Y-118714285D01*
X109671428Y-118800000D01*
X109671428Y-118857142D01*
X109642857Y-118942857D01*
X109585714Y-119000000D01*
X109528571Y-119028571D01*
X109414285Y-119057142D01*
X109328571Y-119057142D01*
X109214285Y-119028571D01*
X109157142Y-119000000D01*
X109100000Y-118942857D01*
X109071428Y-118857142D01*
X109071428Y-118800000D01*
X109100000Y-118714285D01*
X109128571Y-118685714D01*
X109128571Y-118457142D02*
X109100000Y-118428571D01*
X109071428Y-118371428D01*
X109071428Y-118228571D01*
X109100000Y-118171428D01*
X109128571Y-118142857D01*
X109185714Y-118114285D01*
X109242857Y-118114285D01*
X109328571Y-118142857D01*
X109671428Y-118485714D01*
X109671428Y-118114285D01*
X109128571Y-117885714D02*
X109100000Y-117857142D01*
X109071428Y-117800000D01*
X109071428Y-117657142D01*
X109100000Y-117600000D01*
X109128571Y-117571428D01*
X109185714Y-117542857D01*
X109242857Y-117542857D01*
X109328571Y-117571428D01*
X109671428Y-117914285D01*
X109671428Y-117542857D01*
X110671428Y-118371428D02*
X110328571Y-118371428D01*
X110500000Y-118371428D02*
X110500000Y-117771428D01*
X110442857Y-117857142D01*
X110385714Y-117914285D01*
X110328571Y-117942857D01*
X111042857Y-117771428D02*
X111100000Y-117771428D01*
X111157142Y-117800000D01*
X111185714Y-117828571D01*
X111214285Y-117885714D01*
X111242857Y-118000000D01*
X111242857Y-118142857D01*
X111214285Y-118257142D01*
X111185714Y-118314285D01*
X111157142Y-118342857D01*
X111100000Y-118371428D01*
X111042857Y-118371428D01*
X110985714Y-118342857D01*
X110957142Y-118314285D01*
X110928571Y-118257142D01*
X110900000Y-118142857D01*
X110900000Y-118000000D01*
X110928571Y-117885714D01*
X110957142Y-117828571D01*
X110985714Y-117800000D01*
X111042857Y-117771428D01*
X111614285Y-117771428D02*
X111671428Y-117771428D01*
X111728571Y-117800000D01*
X111757142Y-117828571D01*
X111785714Y-117885714D01*
X111814285Y-118000000D01*
X111814285Y-118142857D01*
X111785714Y-118257142D01*
X111757142Y-118314285D01*
X111728571Y-118342857D01*
X111671428Y-118371428D01*
X111614285Y-118371428D01*
X111557142Y-118342857D01*
X111528571Y-118314285D01*
X111500000Y-118257142D01*
X111471428Y-118142857D01*
X111471428Y-118000000D01*
X111500000Y-117885714D01*
X111528571Y-117828571D01*
X111557142Y-117800000D01*
X111614285Y-117771428D01*
X112071428Y-117971428D02*
X112071428Y-118571428D01*
X112071428Y-118000000D02*
X112128571Y-117971428D01*
X112242857Y-117971428D01*
X112300000Y-118000000D01*
X112328571Y-118028571D01*
X112357142Y-118085714D01*
X112357142Y-118257142D01*
X112328571Y-118314285D01*
X112300000Y-118342857D01*
X112242857Y-118371428D01*
X112128571Y-118371428D01*
X112071428Y-118342857D01*
X112814285Y-118057142D02*
X112614285Y-118057142D01*
X112614285Y-118371428D02*
X112614285Y-117771428D01*
X112900000Y-117771428D01*
X122636500Y-128887142D02*
X122436500Y-128887142D01*
X122436500Y-129201428D02*
X122436500Y-128601428D01*
X122722214Y-128601428D01*
X122922214Y-128658571D02*
X122950785Y-128630000D01*
X123007928Y-128601428D01*
X123150785Y-128601428D01*
X123207928Y-128630000D01*
X123236500Y-128658571D01*
X123265071Y-128715714D01*
X123265071Y-128772857D01*
X123236500Y-128858571D01*
X122893642Y-129201428D01*
X123265071Y-129201428D01*
X121727631Y-131556682D02*
X121527631Y-131556682D01*
X121527631Y-131870968D02*
X121527631Y-131270968D01*
X121813345Y-131270968D01*
X122299060Y-131470968D02*
X122299060Y-131870968D01*
X122041917Y-131470968D02*
X122041917Y-131785254D01*
X122070488Y-131842397D01*
X122127631Y-131870968D01*
X122213345Y-131870968D01*
X122270488Y-131842397D01*
X122299060Y-131813825D01*
X122556202Y-131842397D02*
X122613345Y-131870968D01*
X122727631Y-131870968D01*
X122784774Y-131842397D01*
X122813345Y-131785254D01*
X122813345Y-131756682D01*
X122784774Y-131699540D01*
X122727631Y-131670968D01*
X122641917Y-131670968D01*
X122584774Y-131642397D01*
X122556202Y-131585254D01*
X122556202Y-131556682D01*
X122584774Y-131499540D01*
X122641917Y-131470968D01*
X122727631Y-131470968D01*
X122784774Y-131499540D01*
X123299060Y-131842397D02*
X123241917Y-131870968D01*
X123127631Y-131870968D01*
X123070488Y-131842397D01*
X123041917Y-131785254D01*
X123041917Y-131556682D01*
X123070488Y-131499540D01*
X123127631Y-131470968D01*
X123241917Y-131470968D01*
X123299060Y-131499540D01*
X123327631Y-131556682D01*
X123327631Y-131613825D01*
X123041917Y-131670968D01*
X123699060Y-131270968D02*
X123756202Y-131270968D01*
X123813345Y-131299540D01*
X123841917Y-131328111D01*
X123870488Y-131385254D01*
X123899060Y-131499540D01*
X123899060Y-131642397D01*
X123870488Y-131756682D01*
X123841917Y-131813825D01*
X123813345Y-131842397D01*
X123756202Y-131870968D01*
X123699060Y-131870968D01*
X123641917Y-131842397D01*
X123613345Y-131813825D01*
X123584774Y-131756682D01*
X123556202Y-131642397D01*
X123556202Y-131499540D01*
X123584774Y-131385254D01*
X123613345Y-131328111D01*
X123641917Y-131299540D01*
X123699060Y-131270968D01*
X124499060Y-131870968D02*
X124299060Y-131585254D01*
X124156202Y-131870968D02*
X124156202Y-131270968D01*
X124384774Y-131270968D01*
X124441917Y-131299540D01*
X124470488Y-131328111D01*
X124499060Y-131385254D01*
X124499060Y-131470968D01*
X124470488Y-131528111D01*
X124441917Y-131556682D01*
X124384774Y-131585254D01*
X124156202Y-131585254D01*
X154689085Y-130926785D02*
X154660514Y-130955357D01*
X154574800Y-130983928D01*
X154517657Y-130983928D01*
X154431942Y-130955357D01*
X154374800Y-130898214D01*
X154346228Y-130841071D01*
X154317657Y-130726785D01*
X154317657Y-130641071D01*
X154346228Y-130526785D01*
X154374800Y-130469642D01*
X154431942Y-130412500D01*
X154517657Y-130383928D01*
X154574800Y-130383928D01*
X154660514Y-130412500D01*
X154689085Y-130441071D01*
X155260514Y-130983928D02*
X154917657Y-130983928D01*
X155089085Y-130983928D02*
X155089085Y-130383928D01*
X155031942Y-130469642D01*
X154974800Y-130526785D01*
X154917657Y-130555357D01*
X155603371Y-130641071D02*
X155546228Y-130612500D01*
X155517657Y-130583928D01*
X155489085Y-130526785D01*
X155489085Y-130498214D01*
X155517657Y-130441071D01*
X155546228Y-130412500D01*
X155603371Y-130383928D01*
X155717657Y-130383928D01*
X155774800Y-130412500D01*
X155803371Y-130441071D01*
X155831942Y-130498214D01*
X155831942Y-130526785D01*
X155803371Y-130583928D01*
X155774800Y-130612500D01*
X155717657Y-130641071D01*
X155603371Y-130641071D01*
X155546228Y-130669642D01*
X155517657Y-130698214D01*
X155489085Y-130755357D01*
X155489085Y-130869642D01*
X155517657Y-130926785D01*
X155546228Y-130955357D01*
X155603371Y-130983928D01*
X155717657Y-130983928D01*
X155774800Y-130955357D01*
X155803371Y-130926785D01*
X155831942Y-130869642D01*
X155831942Y-130755357D01*
X155803371Y-130698214D01*
X155774800Y-130669642D01*
X155717657Y-130641071D01*
X157200000Y-130671428D02*
X156857142Y-130671428D01*
X157028571Y-130671428D02*
X157028571Y-130071428D01*
X156971428Y-130157142D01*
X156914285Y-130214285D01*
X156857142Y-130242857D01*
X157714285Y-130271428D02*
X157714285Y-130671428D01*
X157457142Y-130271428D02*
X157457142Y-130585714D01*
X157485714Y-130642857D01*
X157542857Y-130671428D01*
X157628571Y-130671428D01*
X157685714Y-130642857D01*
X157714285Y-130614285D01*
X154114285Y-133714285D02*
X154085714Y-133742857D01*
X154000000Y-133771428D01*
X153942857Y-133771428D01*
X153857142Y-133742857D01*
X153800000Y-133685714D01*
X153771428Y-133628571D01*
X153742857Y-133514285D01*
X153742857Y-133428571D01*
X153771428Y-133314285D01*
X153800000Y-133257142D01*
X153857142Y-133200000D01*
X153942857Y-133171428D01*
X154000000Y-133171428D01*
X154085714Y-133200000D01*
X154114285Y-133228571D01*
X154342857Y-133228571D02*
X154371428Y-133200000D01*
X154428571Y-133171428D01*
X154571428Y-133171428D01*
X154628571Y-133200000D01*
X154657142Y-133228571D01*
X154685714Y-133285714D01*
X154685714Y-133342857D01*
X154657142Y-133428571D01*
X154314285Y-133771428D01*
X154685714Y-133771428D01*
X155257142Y-133771428D02*
X154914285Y-133771428D01*
X155085714Y-133771428D02*
X155085714Y-133171428D01*
X155028571Y-133257142D01*
X154971428Y-133314285D01*
X154914285Y-133342857D01*
X158271428Y-133671428D02*
X158271428Y-134014285D01*
X158271428Y-133842857D02*
X157671428Y-133842857D01*
X157757142Y-133900000D01*
X157814285Y-133957142D01*
X157842857Y-134014285D01*
X157671428Y-133300000D02*
X157671428Y-133242857D01*
X157700000Y-133185714D01*
X157728571Y-133157142D01*
X157785714Y-133128571D01*
X157900000Y-133100000D01*
X158042857Y-133100000D01*
X158157142Y-133128571D01*
X158214285Y-133157142D01*
X158242857Y-133185714D01*
X158271428Y-133242857D01*
X158271428Y-133300000D01*
X158242857Y-133357142D01*
X158214285Y-133385714D01*
X158157142Y-133414285D01*
X158042857Y-133442857D01*
X157900000Y-133442857D01*
X157785714Y-133414285D01*
X157728571Y-133385714D01*
X157700000Y-133357142D01*
X157671428Y-133300000D01*
X157671428Y-132728571D02*
X157671428Y-132671428D01*
X157700000Y-132614285D01*
X157728571Y-132585714D01*
X157785714Y-132557142D01*
X157900000Y-132528571D01*
X158042857Y-132528571D01*
X158157142Y-132557142D01*
X158214285Y-132585714D01*
X158242857Y-132614285D01*
X158271428Y-132671428D01*
X158271428Y-132728571D01*
X158242857Y-132785714D01*
X158214285Y-132814285D01*
X158157142Y-132842857D01*
X158042857Y-132871428D01*
X157900000Y-132871428D01*
X157785714Y-132842857D01*
X157728571Y-132814285D01*
X157700000Y-132785714D01*
X157671428Y-132728571D01*
X157871428Y-132014285D02*
X158271428Y-132014285D01*
X157871428Y-132271428D02*
X158185714Y-132271428D01*
X158242857Y-132242857D01*
X158271428Y-132185714D01*
X158271428Y-132100000D01*
X158242857Y-132042857D01*
X158214285Y-132014285D01*
X148866285Y-142260285D02*
X148837714Y-142288857D01*
X148752000Y-142317428D01*
X148694857Y-142317428D01*
X148609142Y-142288857D01*
X148552000Y-142231714D01*
X148523428Y-142174571D01*
X148494857Y-142060285D01*
X148494857Y-141974571D01*
X148523428Y-141860285D01*
X148552000Y-141803142D01*
X148609142Y-141746000D01*
X148694857Y-141717428D01*
X148752000Y-141717428D01*
X148837714Y-141746000D01*
X148866285Y-141774571D01*
X149437714Y-142317428D02*
X149094857Y-142317428D01*
X149266285Y-142317428D02*
X149266285Y-141717428D01*
X149209142Y-141803142D01*
X149152000Y-141860285D01*
X149094857Y-141888857D01*
X150009142Y-142317428D02*
X149666285Y-142317428D01*
X149837714Y-142317428D02*
X149837714Y-141717428D01*
X149780571Y-141803142D01*
X149723428Y-141860285D01*
X149666285Y-141888857D01*
X141428571Y-137471428D02*
X141485714Y-137471428D01*
X141542857Y-137500000D01*
X141571428Y-137528571D01*
X141600000Y-137585714D01*
X141628571Y-137700000D01*
X141628571Y-137842857D01*
X141600000Y-137957142D01*
X141571428Y-138014285D01*
X141542857Y-138042857D01*
X141485714Y-138071428D01*
X141428571Y-138071428D01*
X141371428Y-138042857D01*
X141342857Y-138014285D01*
X141314285Y-137957142D01*
X141285714Y-137842857D01*
X141285714Y-137700000D01*
X141314285Y-137585714D01*
X141342857Y-137528571D01*
X141371428Y-137500000D01*
X141428571Y-137471428D01*
X141885714Y-138014285D02*
X141914285Y-138042857D01*
X141885714Y-138071428D01*
X141857142Y-138042857D01*
X141885714Y-138014285D01*
X141885714Y-138071428D01*
X142485714Y-138071428D02*
X142142857Y-138071428D01*
X142314285Y-138071428D02*
X142314285Y-137471428D01*
X142257142Y-137557142D01*
X142200000Y-137614285D01*
X142142857Y-137642857D01*
X143000000Y-137671428D02*
X143000000Y-138071428D01*
X142742857Y-137671428D02*
X142742857Y-137985714D01*
X142771428Y-138042857D01*
X142828571Y-138071428D01*
X142914285Y-138071428D01*
X142971428Y-138042857D01*
X143000000Y-138014285D01*
X144000000Y-137671428D02*
X144000000Y-138071428D01*
X143857142Y-137442857D02*
X143714285Y-137871428D01*
X144085714Y-137871428D01*
X144428571Y-137471428D02*
X144485714Y-137471428D01*
X144542857Y-137500000D01*
X144571428Y-137528571D01*
X144600000Y-137585714D01*
X144628571Y-137700000D01*
X144628571Y-137842857D01*
X144600000Y-137957142D01*
X144571428Y-138014285D01*
X144542857Y-138042857D01*
X144485714Y-138071428D01*
X144428571Y-138071428D01*
X144371428Y-138042857D01*
X144342857Y-138014285D01*
X144314285Y-137957142D01*
X144285714Y-137842857D01*
X144285714Y-137700000D01*
X144314285Y-137585714D01*
X144342857Y-137528571D01*
X144371428Y-137500000D01*
X144428571Y-137471428D01*
X145000000Y-137471428D02*
X145057142Y-137471428D01*
X145114285Y-137500000D01*
X145142857Y-137528571D01*
X145171428Y-137585714D01*
X145200000Y-137700000D01*
X145200000Y-137842857D01*
X145171428Y-137957142D01*
X145142857Y-138014285D01*
X145114285Y-138042857D01*
X145057142Y-138071428D01*
X145000000Y-138071428D01*
X144942857Y-138042857D01*
X144914285Y-138014285D01*
X144885714Y-137957142D01*
X144857142Y-137842857D01*
X144857142Y-137700000D01*
X144885714Y-137585714D01*
X144914285Y-137528571D01*
X144942857Y-137500000D01*
X145000000Y-137471428D01*
X145371428Y-137471428D02*
X145571428Y-138071428D01*
X145771428Y-137471428D01*
X141588171Y-142797828D02*
X141302457Y-142797828D01*
X141302457Y-142197828D01*
X141788171Y-142797828D02*
X141788171Y-142197828D01*
X142073885Y-142797828D02*
X142073885Y-142197828D01*
X142302457Y-142197828D01*
X142359600Y-142226400D01*
X142388171Y-142254971D01*
X142416742Y-142312114D01*
X142416742Y-142397828D01*
X142388171Y-142454971D01*
X142359600Y-142483542D01*
X142302457Y-142512114D01*
X142073885Y-142512114D01*
X142788171Y-142197828D02*
X142902457Y-142197828D01*
X142959600Y-142226400D01*
X143016742Y-142283542D01*
X143045314Y-142397828D01*
X143045314Y-142597828D01*
X143016742Y-142712114D01*
X142959600Y-142769257D01*
X142902457Y-142797828D01*
X142788171Y-142797828D01*
X142731028Y-142769257D01*
X142673885Y-142712114D01*
X142645314Y-142597828D01*
X142645314Y-142397828D01*
X142673885Y-142283542D01*
X142731028Y-142226400D01*
X142788171Y-142197828D01*
X143159600Y-142854971D02*
X143616742Y-142854971D01*
X143959600Y-142483542D02*
X144045314Y-142512114D01*
X144073885Y-142540685D01*
X144102457Y-142597828D01*
X144102457Y-142683542D01*
X144073885Y-142740685D01*
X144045314Y-142769257D01*
X143988171Y-142797828D01*
X143759600Y-142797828D01*
X143759600Y-142197828D01*
X143959600Y-142197828D01*
X144016742Y-142226400D01*
X144045314Y-142254971D01*
X144073885Y-142312114D01*
X144073885Y-142369257D01*
X144045314Y-142426400D01*
X144016742Y-142454971D01*
X143959600Y-142483542D01*
X143759600Y-142483542D01*
X144331028Y-142626400D02*
X144616742Y-142626400D01*
X144273885Y-142797828D02*
X144473885Y-142197828D01*
X144673885Y-142797828D01*
X144788171Y-142197828D02*
X145131028Y-142197828D01*
X144959600Y-142797828D02*
X144959600Y-142197828D01*
X145645314Y-142797828D02*
X145302457Y-142797828D01*
X145473885Y-142797828D02*
X145473885Y-142197828D01*
X145416742Y-142283542D01*
X145359600Y-142340685D01*
X145302457Y-142369257D01*
D14*
X155871175Y-142442443D02*
X155271735Y-142442443D01*
X155271735Y-142299720D01*
X155300280Y-142214085D01*
X155357369Y-142156996D01*
X155414459Y-142128451D01*
X155528638Y-142099906D01*
X155614272Y-142099906D01*
X155728451Y-142128451D01*
X155785540Y-142156996D01*
X155842630Y-142214085D01*
X155871175Y-142299720D01*
X155871175Y-142442443D01*
X155271735Y-141900093D02*
X155271735Y-141529011D01*
X155500093Y-141728824D01*
X155500093Y-141643190D01*
X155528638Y-141586100D01*
X155557182Y-141557556D01*
X155614272Y-141529011D01*
X155756996Y-141529011D01*
X155814085Y-141557556D01*
X155842630Y-141586100D01*
X155871175Y-141643190D01*
X155871175Y-141814459D01*
X155842630Y-141871548D01*
X155814085Y-141900093D01*
X153871175Y-140984607D02*
X153271735Y-140984607D01*
X153271735Y-140841883D01*
X153300280Y-140756249D01*
X153357369Y-140699160D01*
X153414459Y-140670615D01*
X153528638Y-140642070D01*
X153614272Y-140642070D01*
X153728451Y-140670615D01*
X153785540Y-140699160D01*
X153842630Y-140756249D01*
X153871175Y-140841883D01*
X153871175Y-140984607D01*
X153871175Y-140385167D02*
X153271735Y-140385167D01*
X153271735Y-139985540D02*
X153271735Y-139871361D01*
X153300280Y-139814272D01*
X153357369Y-139757182D01*
X153471548Y-139728638D01*
X153671361Y-139728638D01*
X153785540Y-139757182D01*
X153842630Y-139814272D01*
X153871175Y-139871361D01*
X153871175Y-139985540D01*
X153842630Y-140042630D01*
X153785540Y-140099720D01*
X153671361Y-140128264D01*
X153471548Y-140128264D01*
X153357369Y-140099720D01*
X153300280Y-140042630D01*
X153271735Y-139985540D01*
X153871175Y-139471735D02*
X153271735Y-139471735D01*
X153271735Y-139329011D01*
X153300280Y-139243377D01*
X153357369Y-139186287D01*
X153414459Y-139157742D01*
X153528638Y-139129198D01*
X153614272Y-139129198D01*
X153728451Y-139157742D01*
X153785540Y-139186287D01*
X153842630Y-139243377D01*
X153871175Y-139329011D01*
X153871175Y-139471735D01*
X153557182Y-138872295D02*
X153557182Y-138672481D01*
X153871175Y-138586847D02*
X153871175Y-138872295D01*
X153271735Y-138872295D01*
X153271735Y-138586847D01*
X148557556Y-136571175D02*
X148557556Y-135971735D01*
X148700280Y-135971735D01*
X148785914Y-136000280D01*
X148843003Y-136057369D01*
X148871548Y-136114459D01*
X148900093Y-136228638D01*
X148900093Y-136314272D01*
X148871548Y-136428451D01*
X148843003Y-136485540D01*
X148785914Y-136542630D01*
X148700280Y-136571175D01*
X148557556Y-136571175D01*
X149128451Y-136028824D02*
X149156996Y-136000280D01*
X149214085Y-135971735D01*
X149356809Y-135971735D01*
X149413899Y-136000280D01*
X149442443Y-136028824D01*
X149470988Y-136085914D01*
X149470988Y-136143003D01*
X149442443Y-136228638D01*
X149099906Y-136571175D01*
X149470988Y-136571175D01*
X150671175Y-140884607D02*
X150071735Y-140884607D01*
X150071735Y-140741883D01*
X150100280Y-140656249D01*
X150157369Y-140599160D01*
X150214459Y-140570615D01*
X150328638Y-140542070D01*
X150414272Y-140542070D01*
X150528451Y-140570615D01*
X150585540Y-140599160D01*
X150642630Y-140656249D01*
X150671175Y-140741883D01*
X150671175Y-140884607D01*
X150671175Y-140285167D02*
X150071735Y-140285167D01*
X150071735Y-139885540D02*
X150071735Y-139771361D01*
X150100280Y-139714272D01*
X150157369Y-139657182D01*
X150271548Y-139628638D01*
X150471361Y-139628638D01*
X150585540Y-139657182D01*
X150642630Y-139714272D01*
X150671175Y-139771361D01*
X150671175Y-139885540D01*
X150642630Y-139942630D01*
X150585540Y-139999720D01*
X150471361Y-140028264D01*
X150271548Y-140028264D01*
X150157369Y-139999720D01*
X150100280Y-139942630D01*
X150071735Y-139885540D01*
X150671175Y-139371735D02*
X150071735Y-139371735D01*
X150071735Y-139229011D01*
X150100280Y-139143377D01*
X150157369Y-139086287D01*
X150214459Y-139057742D01*
X150328638Y-139029198D01*
X150414272Y-139029198D01*
X150528451Y-139057742D01*
X150585540Y-139086287D01*
X150642630Y-139143377D01*
X150671175Y-139229011D01*
X150671175Y-139371735D01*
X150357182Y-138772295D02*
X150357182Y-138572481D01*
X150671175Y-138486847D02*
X150671175Y-138772295D01*
X150071735Y-138772295D01*
X150071735Y-138486847D01*
X112659056Y-146970535D02*
X112659056Y-146371095D01*
X112801780Y-146371095D01*
X112887414Y-146399640D01*
X112944503Y-146456729D01*
X112973048Y-146513819D01*
X113001593Y-146627998D01*
X113001593Y-146713632D01*
X112973048Y-146827811D01*
X112944503Y-146884900D01*
X112887414Y-146941990D01*
X112801780Y-146970535D01*
X112659056Y-146970535D01*
X113258496Y-146970535D02*
X113258496Y-146371095D01*
X113401220Y-146371095D01*
X113486854Y-146399640D01*
X113543943Y-146456729D01*
X113572488Y-146513819D01*
X113601033Y-146627998D01*
X113601033Y-146713632D01*
X113572488Y-146827811D01*
X113543943Y-146884900D01*
X113486854Y-146941990D01*
X113401220Y-146970535D01*
X113258496Y-146970535D01*
X114171928Y-146970535D02*
X113829391Y-146970535D01*
X114000660Y-146970535D02*
X114000660Y-146371095D01*
X113943570Y-146456729D01*
X113886480Y-146513819D01*
X113829391Y-146542363D01*
X110217539Y-145442630D02*
X110303173Y-145471175D01*
X110445897Y-145471175D01*
X110502986Y-145442630D01*
X110531531Y-145414085D01*
X110560076Y-145356996D01*
X110560076Y-145299906D01*
X110531531Y-145242817D01*
X110502986Y-145214272D01*
X110445897Y-145185727D01*
X110331718Y-145157182D01*
X110274628Y-145128638D01*
X110246083Y-145100093D01*
X110217539Y-145043003D01*
X110217539Y-144985914D01*
X110246083Y-144928824D01*
X110274628Y-144900280D01*
X110331718Y-144871735D01*
X110474441Y-144871735D01*
X110560076Y-144900280D01*
X110731344Y-144871735D02*
X111073881Y-144871735D01*
X110902613Y-145471175D02*
X110902613Y-144871735D01*
X111273695Y-145471175D02*
X111273695Y-144871735D01*
X111473508Y-145299906D01*
X111673321Y-144871735D01*
X111673321Y-145471175D01*
X111901680Y-144871735D02*
X112272761Y-144871735D01*
X112072948Y-145100093D01*
X112158582Y-145100093D01*
X112215672Y-145128638D01*
X112244217Y-145157182D01*
X112272761Y-145214272D01*
X112272761Y-145356996D01*
X112244217Y-145414085D01*
X112215672Y-145442630D01*
X112158582Y-145471175D01*
X111987314Y-145471175D01*
X111930224Y-145442630D01*
X111901680Y-145414085D01*
X112501120Y-144928824D02*
X112529664Y-144900280D01*
X112586754Y-144871735D01*
X112729478Y-144871735D01*
X112786567Y-144900280D01*
X112815112Y-144928824D01*
X112843657Y-144985914D01*
X112843657Y-145043003D01*
X112815112Y-145128638D01*
X112472575Y-145471175D01*
X112843657Y-145471175D01*
X113300373Y-145157182D02*
X113100560Y-145157182D01*
X113100560Y-145471175D02*
X113100560Y-144871735D01*
X113386007Y-144871735D01*
X113728544Y-144871735D02*
X113785634Y-144871735D01*
X113842723Y-144900280D01*
X113871268Y-144928824D01*
X113899813Y-144985914D01*
X113928358Y-145100093D01*
X113928358Y-145242817D01*
X113899813Y-145356996D01*
X113871268Y-145414085D01*
X113842723Y-145442630D01*
X113785634Y-145471175D01*
X113728544Y-145471175D01*
X113671455Y-145442630D01*
X113642910Y-145414085D01*
X113614365Y-145356996D01*
X113585820Y-145242817D01*
X113585820Y-145100093D01*
X113614365Y-144985914D01*
X113642910Y-144928824D01*
X113671455Y-144900280D01*
X113728544Y-144871735D01*
X114128171Y-144871735D02*
X114499253Y-144871735D01*
X114299440Y-145100093D01*
X114385074Y-145100093D01*
X114442163Y-145128638D01*
X114470708Y-145157182D01*
X114499253Y-145214272D01*
X114499253Y-145356996D01*
X114470708Y-145414085D01*
X114442163Y-145442630D01*
X114385074Y-145471175D01*
X114213805Y-145471175D01*
X114156716Y-145442630D01*
X114128171Y-145414085D01*
X114870335Y-144871735D02*
X114927424Y-144871735D01*
X114984514Y-144900280D01*
X115013059Y-144928824D01*
X115041603Y-144985914D01*
X115070148Y-145100093D01*
X115070148Y-145242817D01*
X115041603Y-145356996D01*
X115013059Y-145414085D01*
X114984514Y-145442630D01*
X114927424Y-145471175D01*
X114870335Y-145471175D01*
X114813245Y-145442630D01*
X114784700Y-145414085D01*
X114756156Y-145356996D01*
X114727611Y-145242817D01*
X114727611Y-145100093D01*
X114756156Y-144985914D01*
X114784700Y-144928824D01*
X114813245Y-144900280D01*
X114870335Y-144871735D01*
X115669588Y-145414085D02*
X115641043Y-145442630D01*
X115555409Y-145471175D01*
X115498320Y-145471175D01*
X115412685Y-145442630D01*
X115355596Y-145385540D01*
X115327051Y-145328451D01*
X115298506Y-145214272D01*
X115298506Y-145128638D01*
X115327051Y-145014459D01*
X115355596Y-144957369D01*
X115412685Y-144900280D01*
X115498320Y-144871735D01*
X115555409Y-144871735D01*
X115641043Y-144900280D01*
X115669588Y-144928824D01*
X116012125Y-145128638D02*
X115955036Y-145100093D01*
X115926491Y-145071548D01*
X115897946Y-145014459D01*
X115897946Y-144985914D01*
X115926491Y-144928824D01*
X115955036Y-144900280D01*
X116012125Y-144871735D01*
X116126304Y-144871735D01*
X116183394Y-144900280D01*
X116211939Y-144928824D01*
X116240483Y-144985914D01*
X116240483Y-145014459D01*
X116211939Y-145071548D01*
X116183394Y-145100093D01*
X116126304Y-145128638D01*
X116012125Y-145128638D01*
X115955036Y-145157182D01*
X115926491Y-145185727D01*
X115897946Y-145242817D01*
X115897946Y-145356996D01*
X115926491Y-145414085D01*
X115955036Y-145442630D01*
X116012125Y-145471175D01*
X116126304Y-145471175D01*
X116183394Y-145442630D01*
X116211939Y-145414085D01*
X116240483Y-145356996D01*
X116240483Y-145242817D01*
X116211939Y-145185727D01*
X116183394Y-145157182D01*
X116126304Y-145128638D01*
X116411752Y-144871735D02*
X116754289Y-144871735D01*
X116583020Y-145471175D02*
X116583020Y-144871735D01*
X116897013Y-145471175D02*
X117211005Y-145071548D01*
X116897013Y-145071548D02*
X117211005Y-145471175D01*
D11*
X118149714Y-148462380D02*
X117578285Y-148462380D01*
X117864000Y-148462380D02*
X117864000Y-147462380D01*
X117768761Y-147605238D01*
X117673523Y-147700476D01*
X117578285Y-147748095D01*
X156757142Y-142071428D02*
X156757142Y-141471428D01*
X156900000Y-141471428D01*
X156985714Y-141500000D01*
X157042857Y-141557142D01*
X157071428Y-141614285D01*
X157100000Y-141728571D01*
X157100000Y-141814285D01*
X157071428Y-141928571D01*
X157042857Y-141985714D01*
X156985714Y-142042857D01*
X156900000Y-142071428D01*
X156757142Y-142071428D01*
X157614285Y-141671428D02*
X157614285Y-142071428D01*
X157471428Y-141442857D02*
X157328571Y-141871428D01*
X157700000Y-141871428D01*
D14*
X156329664Y-142371735D02*
X156729291Y-142371735D01*
X156329664Y-142971175D01*
X156729291Y-142971175D01*
X157186007Y-142942630D02*
X157128918Y-142971175D01*
X157014739Y-142971175D01*
X156957649Y-142942630D01*
X156929104Y-142885540D01*
X156929104Y-142657182D01*
X156957649Y-142600093D01*
X157014739Y-142571548D01*
X157128918Y-142571548D01*
X157186007Y-142600093D01*
X157214552Y-142657182D01*
X157214552Y-142714272D01*
X156929104Y-142771361D01*
X157471455Y-142571548D02*
X157471455Y-142971175D01*
X157471455Y-142628638D02*
X157500000Y-142600093D01*
X157557089Y-142571548D01*
X157642723Y-142571548D01*
X157699813Y-142600093D01*
X157728358Y-142657182D01*
X157728358Y-142971175D01*
X158242163Y-142942630D02*
X158185074Y-142971175D01*
X158070895Y-142971175D01*
X158013805Y-142942630D01*
X157985260Y-142885540D01*
X157985260Y-142657182D01*
X158013805Y-142600093D01*
X158070895Y-142571548D01*
X158185074Y-142571548D01*
X158242163Y-142600093D01*
X158270708Y-142657182D01*
X158270708Y-142714272D01*
X157985260Y-142771361D01*
X158527611Y-142971175D02*
X158527611Y-142571548D01*
X158527611Y-142685727D02*
X158556156Y-142628638D01*
X158584700Y-142600093D01*
X158641790Y-142571548D01*
X158698880Y-142571548D01*
D11*
X130115004Y-112627580D02*
X130115004Y-111627580D01*
X130353100Y-111627580D01*
X130495957Y-111675200D01*
X130591195Y-111770438D01*
X130638814Y-111865676D01*
X130686433Y-112056152D01*
X130686433Y-112199009D01*
X130638814Y-112389485D01*
X130591195Y-112484723D01*
X130495957Y-112579961D01*
X130353100Y-112627580D01*
X130115004Y-112627580D01*
X131591195Y-111627580D02*
X131115004Y-111627580D01*
X131067385Y-112103771D01*
X131115004Y-112056152D01*
X131210242Y-112008533D01*
X131448338Y-112008533D01*
X131543576Y-112056152D01*
X131591195Y-112103771D01*
X131638814Y-112199009D01*
X131638814Y-112437104D01*
X131591195Y-112532342D01*
X131543576Y-112579961D01*
X131448338Y-112627580D01*
X131210242Y-112627580D01*
X131115004Y-112579961D01*
X131067385Y-112532342D01*
X129710242Y-109801866D02*
X130186433Y-109801866D01*
X129615004Y-110087580D02*
X129948338Y-109087580D01*
X130281671Y-110087580D01*
X130615004Y-110087580D02*
X130615004Y-109087580D01*
X131186433Y-110087580D01*
X131186433Y-109087580D01*
X131519766Y-109087580D02*
X132091195Y-109087580D01*
X131805480Y-110087580D02*
X131805480Y-109087580D01*
X110884285Y-121348285D02*
X110855714Y-121376857D01*
X110770000Y-121405428D01*
X110712857Y-121405428D01*
X110627142Y-121376857D01*
X110570000Y-121319714D01*
X110541428Y-121262571D01*
X110512857Y-121148285D01*
X110512857Y-121062571D01*
X110541428Y-120948285D01*
X110570000Y-120891142D01*
X110627142Y-120834000D01*
X110712857Y-120805428D01*
X110770000Y-120805428D01*
X110855714Y-120834000D01*
X110884285Y-120862571D01*
X111455714Y-121405428D02*
X111112857Y-121405428D01*
X111284285Y-121405428D02*
X111284285Y-120805428D01*
X111227142Y-120891142D01*
X111170000Y-120948285D01*
X111112857Y-120976857D01*
X111655714Y-120805428D02*
X112055714Y-120805428D01*
X111798571Y-121405428D01*
X110395428Y-119535428D02*
X110766857Y-119535428D01*
X110566857Y-119764000D01*
X110652571Y-119764000D01*
X110709714Y-119792571D01*
X110738285Y-119821142D01*
X110766857Y-119878285D01*
X110766857Y-120021142D01*
X110738285Y-120078285D01*
X110709714Y-120106857D01*
X110652571Y-120135428D01*
X110481142Y-120135428D01*
X110424000Y-120106857D01*
X110395428Y-120078285D01*
X111024000Y-120078285D02*
X111052571Y-120106857D01*
X111024000Y-120135428D01*
X110995428Y-120106857D01*
X111024000Y-120078285D01*
X111024000Y-120135428D01*
X111338285Y-120135428D02*
X111452571Y-120135428D01*
X111509714Y-120106857D01*
X111538285Y-120078285D01*
X111595428Y-119992571D01*
X111624000Y-119878285D01*
X111624000Y-119649714D01*
X111595428Y-119592571D01*
X111566857Y-119564000D01*
X111509714Y-119535428D01*
X111395428Y-119535428D01*
X111338285Y-119564000D01*
X111309714Y-119592571D01*
X111281142Y-119649714D01*
X111281142Y-119792571D01*
X111309714Y-119849714D01*
X111338285Y-119878285D01*
X111395428Y-119906857D01*
X111509714Y-119906857D01*
X111566857Y-119878285D01*
X111595428Y-119849714D01*
X111624000Y-119792571D01*
X111881142Y-119735428D02*
X111881142Y-120335428D01*
X111881142Y-119764000D02*
X111938285Y-119735428D01*
X112052571Y-119735428D01*
X112109714Y-119764000D01*
X112138285Y-119792571D01*
X112166857Y-119849714D01*
X112166857Y-120021142D01*
X112138285Y-120078285D01*
X112109714Y-120106857D01*
X112052571Y-120135428D01*
X111938285Y-120135428D01*
X111881142Y-120106857D01*
X112509714Y-119535428D02*
X112509714Y-119678285D01*
X112366857Y-119621142D02*
X112509714Y-119678285D01*
X112652571Y-119621142D01*
X112424000Y-119792571D02*
X112509714Y-119678285D01*
X112595428Y-119792571D01*
X107328285Y-120332285D02*
X107299714Y-120360857D01*
X107214000Y-120389428D01*
X107156857Y-120389428D01*
X107071142Y-120360857D01*
X107014000Y-120303714D01*
X106985428Y-120246571D01*
X106956857Y-120132285D01*
X106956857Y-120046571D01*
X106985428Y-119932285D01*
X107014000Y-119875142D01*
X107071142Y-119818000D01*
X107156857Y-119789428D01*
X107214000Y-119789428D01*
X107299714Y-119818000D01*
X107328285Y-119846571D01*
X107899714Y-120389428D02*
X107556857Y-120389428D01*
X107728285Y-120389428D02*
X107728285Y-119789428D01*
X107671142Y-119875142D01*
X107614000Y-119932285D01*
X107556857Y-119960857D01*
X108185428Y-120389428D02*
X108299714Y-120389428D01*
X108356857Y-120360857D01*
X108385428Y-120332285D01*
X108442571Y-120246571D01*
X108471142Y-120132285D01*
X108471142Y-119903714D01*
X108442571Y-119846571D01*
X108414000Y-119818000D01*
X108356857Y-119789428D01*
X108242571Y-119789428D01*
X108185428Y-119818000D01*
X108156857Y-119846571D01*
X108128285Y-119903714D01*
X108128285Y-120046571D01*
X108156857Y-120103714D01*
X108185428Y-120132285D01*
X108242571Y-120160857D01*
X108356857Y-120160857D01*
X108414000Y-120132285D01*
X108442571Y-120103714D01*
X108471142Y-120046571D01*
D15*
X106875904Y-119446476D02*
X106875904Y-119246476D01*
X106923523Y-119246476D01*
X106952095Y-119256000D01*
X106971142Y-119275047D01*
X106980666Y-119294095D01*
X106990190Y-119332190D01*
X106990190Y-119360761D01*
X106980666Y-119398857D01*
X106971142Y-119417904D01*
X106952095Y-119436952D01*
X106923523Y-119446476D01*
X106875904Y-119446476D01*
X107104476Y-119446476D02*
X107085428Y-119436952D01*
X107075904Y-119427428D01*
X107066380Y-119408380D01*
X107066380Y-119351238D01*
X107075904Y-119332190D01*
X107085428Y-119322666D01*
X107104476Y-119313142D01*
X107133047Y-119313142D01*
X107152095Y-119322666D01*
X107161619Y-119332190D01*
X107171142Y-119351238D01*
X107171142Y-119408380D01*
X107161619Y-119427428D01*
X107152095Y-119436952D01*
X107133047Y-119446476D01*
X107104476Y-119446476D01*
X107256857Y-119446476D02*
X107256857Y-119246476D01*
X107371142Y-119446476D01*
X107371142Y-119246476D01*
X107494952Y-119446476D02*
X107475904Y-119436952D01*
X107466380Y-119427428D01*
X107456857Y-119408380D01*
X107456857Y-119351238D01*
X107466380Y-119332190D01*
X107475904Y-119322666D01*
X107494952Y-119313142D01*
X107523523Y-119313142D01*
X107542571Y-119322666D01*
X107552095Y-119332190D01*
X107561619Y-119351238D01*
X107561619Y-119408380D01*
X107552095Y-119427428D01*
X107542571Y-119436952D01*
X107523523Y-119446476D01*
X107494952Y-119446476D01*
X107618761Y-119313142D02*
X107694952Y-119313142D01*
X107647333Y-119246476D02*
X107647333Y-119417904D01*
X107656857Y-119436952D01*
X107675904Y-119446476D01*
X107694952Y-119446476D01*
X107761619Y-119446476D02*
X107761619Y-119246476D01*
X107828285Y-119389333D01*
X107894952Y-119246476D01*
X107894952Y-119446476D01*
X108018761Y-119446476D02*
X107999714Y-119436952D01*
X107990190Y-119427428D01*
X107980666Y-119408380D01*
X107980666Y-119351238D01*
X107990190Y-119332190D01*
X107999714Y-119322666D01*
X108018761Y-119313142D01*
X108047333Y-119313142D01*
X108066380Y-119322666D01*
X108075904Y-119332190D01*
X108085428Y-119351238D01*
X108085428Y-119408380D01*
X108075904Y-119427428D01*
X108066380Y-119436952D01*
X108047333Y-119446476D01*
X108018761Y-119446476D01*
X108256857Y-119313142D02*
X108256857Y-119446476D01*
X108171142Y-119313142D02*
X108171142Y-119417904D01*
X108180666Y-119436952D01*
X108199714Y-119446476D01*
X108228285Y-119446476D01*
X108247333Y-119436952D01*
X108256857Y-119427428D01*
X108352095Y-119313142D02*
X108352095Y-119446476D01*
X108352095Y-119332190D02*
X108361619Y-119322666D01*
X108380666Y-119313142D01*
X108409238Y-119313142D01*
X108428285Y-119322666D01*
X108437809Y-119341714D01*
X108437809Y-119446476D01*
X108504476Y-119313142D02*
X108580666Y-119313142D01*
X108533047Y-119246476D02*
X108533047Y-119417904D01*
X108542571Y-119436952D01*
X108561619Y-119446476D01*
X108580666Y-119446476D01*
D11*
X104853285Y-123740285D02*
X104824714Y-123768857D01*
X104739000Y-123797428D01*
X104681857Y-123797428D01*
X104596142Y-123768857D01*
X104539000Y-123711714D01*
X104510428Y-123654571D01*
X104481857Y-123540285D01*
X104481857Y-123454571D01*
X104510428Y-123340285D01*
X104539000Y-123283142D01*
X104596142Y-123226000D01*
X104681857Y-123197428D01*
X104739000Y-123197428D01*
X104824714Y-123226000D01*
X104853285Y-123254571D01*
X105424714Y-123797428D02*
X105081857Y-123797428D01*
X105253285Y-123797428D02*
X105253285Y-123197428D01*
X105196142Y-123283142D01*
X105139000Y-123340285D01*
X105081857Y-123368857D01*
X105796142Y-123197428D02*
X105853285Y-123197428D01*
X105910428Y-123226000D01*
X105939000Y-123254571D01*
X105967571Y-123311714D01*
X105996142Y-123426000D01*
X105996142Y-123568857D01*
X105967571Y-123683142D01*
X105939000Y-123740285D01*
X105910428Y-123768857D01*
X105853285Y-123797428D01*
X105796142Y-123797428D01*
X105739000Y-123768857D01*
X105710428Y-123740285D01*
X105681857Y-123683142D01*
X105653285Y-123568857D01*
X105653285Y-123426000D01*
X105681857Y-123311714D01*
X105710428Y-123254571D01*
X105739000Y-123226000D01*
X105796142Y-123197428D01*
X104411368Y-121797888D02*
X104468511Y-121797888D01*
X104525654Y-121826460D01*
X104554225Y-121855031D01*
X104582797Y-121912174D01*
X104611368Y-122026460D01*
X104611368Y-122169317D01*
X104582797Y-122283602D01*
X104554225Y-122340745D01*
X104525654Y-122369317D01*
X104468511Y-122397888D01*
X104411368Y-122397888D01*
X104354225Y-122369317D01*
X104325654Y-122340745D01*
X104297082Y-122283602D01*
X104268511Y-122169317D01*
X104268511Y-122026460D01*
X104297082Y-121912174D01*
X104325654Y-121855031D01*
X104354225Y-121826460D01*
X104411368Y-121797888D01*
X104868511Y-122340745D02*
X104897082Y-122369317D01*
X104868511Y-122397888D01*
X104839940Y-122369317D01*
X104868511Y-122340745D01*
X104868511Y-122397888D01*
X105468511Y-122397888D02*
X105125654Y-122397888D01*
X105297082Y-122397888D02*
X105297082Y-121797888D01*
X105239940Y-121883602D01*
X105182797Y-121940745D01*
X105125654Y-121969317D01*
X105982797Y-121997888D02*
X105982797Y-122397888D01*
X105725654Y-121997888D02*
X105725654Y-122312174D01*
X105754225Y-122369317D01*
X105811368Y-122397888D01*
X105897082Y-122397888D01*
X105954225Y-122369317D01*
X105982797Y-122340745D01*
X112624285Y-123474285D02*
X112595714Y-123502857D01*
X112510000Y-123531428D01*
X112452857Y-123531428D01*
X112367142Y-123502857D01*
X112310000Y-123445714D01*
X112281428Y-123388571D01*
X112252857Y-123274285D01*
X112252857Y-123188571D01*
X112281428Y-123074285D01*
X112310000Y-123017142D01*
X112367142Y-122960000D01*
X112452857Y-122931428D01*
X112510000Y-122931428D01*
X112595714Y-122960000D01*
X112624285Y-122988571D01*
X113195714Y-123531428D02*
X112852857Y-123531428D01*
X113024285Y-123531428D02*
X113024285Y-122931428D01*
X112967142Y-123017142D01*
X112910000Y-123074285D01*
X112852857Y-123102857D01*
X113395714Y-122931428D02*
X113767142Y-122931428D01*
X113567142Y-123160000D01*
X113652857Y-123160000D01*
X113710000Y-123188571D01*
X113738571Y-123217142D01*
X113767142Y-123274285D01*
X113767142Y-123417142D01*
X113738571Y-123474285D01*
X113710000Y-123502857D01*
X113652857Y-123531428D01*
X113481428Y-123531428D01*
X113424285Y-123502857D01*
X113395714Y-123474285D01*
X113081428Y-121567428D02*
X113138571Y-121567428D01*
X113195714Y-121596000D01*
X113224285Y-121624571D01*
X113252857Y-121681714D01*
X113281428Y-121796000D01*
X113281428Y-121938857D01*
X113252857Y-122053142D01*
X113224285Y-122110285D01*
X113195714Y-122138857D01*
X113138571Y-122167428D01*
X113081428Y-122167428D01*
X113024285Y-122138857D01*
X112995714Y-122110285D01*
X112967142Y-122053142D01*
X112938571Y-121938857D01*
X112938571Y-121796000D01*
X112967142Y-121681714D01*
X112995714Y-121624571D01*
X113024285Y-121596000D01*
X113081428Y-121567428D01*
X113538571Y-122110285D02*
X113567142Y-122138857D01*
X113538571Y-122167428D01*
X113510000Y-122138857D01*
X113538571Y-122110285D01*
X113538571Y-122167428D01*
X114138571Y-122167428D02*
X113795714Y-122167428D01*
X113967142Y-122167428D02*
X113967142Y-121567428D01*
X113910000Y-121653142D01*
X113852857Y-121710285D01*
X113795714Y-121738857D01*
X114652857Y-121767428D02*
X114652857Y-122167428D01*
X114395714Y-121767428D02*
X114395714Y-122081714D01*
X114424285Y-122138857D01*
X114481428Y-122167428D01*
X114567142Y-122167428D01*
X114624285Y-122138857D01*
X114652857Y-122110285D01*
X114624285Y-128295714D02*
X114652857Y-128324285D01*
X114681428Y-128410000D01*
X114681428Y-128467142D01*
X114652857Y-128552857D01*
X114595714Y-128610000D01*
X114538571Y-128638571D01*
X114424285Y-128667142D01*
X114338571Y-128667142D01*
X114224285Y-128638571D01*
X114167142Y-128610000D01*
X114110000Y-128552857D01*
X114081428Y-128467142D01*
X114081428Y-128410000D01*
X114110000Y-128324285D01*
X114138571Y-128295714D01*
X114681428Y-127724285D02*
X114681428Y-128067142D01*
X114681428Y-127895714D02*
X114081428Y-127895714D01*
X114167142Y-127952857D01*
X114224285Y-128010000D01*
X114252857Y-128067142D01*
X114281428Y-127210000D02*
X114681428Y-127210000D01*
X114052857Y-127352857D02*
X114481428Y-127495714D01*
X114481428Y-127124285D01*
X114061428Y-126148571D02*
X114061428Y-126091428D01*
X114090000Y-126034285D01*
X114118571Y-126005714D01*
X114175714Y-125977142D01*
X114290000Y-125948571D01*
X114432857Y-125948571D01*
X114547142Y-125977142D01*
X114604285Y-126005714D01*
X114632857Y-126034285D01*
X114661428Y-126091428D01*
X114661428Y-126148571D01*
X114632857Y-126205714D01*
X114604285Y-126234285D01*
X114547142Y-126262857D01*
X114432857Y-126291428D01*
X114290000Y-126291428D01*
X114175714Y-126262857D01*
X114118571Y-126234285D01*
X114090000Y-126205714D01*
X114061428Y-126148571D01*
X114604285Y-125691428D02*
X114632857Y-125662857D01*
X114661428Y-125691428D01*
X114632857Y-125720000D01*
X114604285Y-125691428D01*
X114661428Y-125691428D01*
X114661428Y-125091428D02*
X114661428Y-125434285D01*
X114661428Y-125262857D02*
X114061428Y-125262857D01*
X114147142Y-125320000D01*
X114204285Y-125377142D01*
X114232857Y-125434285D01*
X114261428Y-124577142D02*
X114661428Y-124577142D01*
X114261428Y-124834285D02*
X114575714Y-124834285D01*
X114632857Y-124805714D01*
X114661428Y-124748571D01*
X114661428Y-124662857D01*
X114632857Y-124605714D01*
X114604285Y-124577142D01*
X108244285Y-133985714D02*
X108272857Y-134014285D01*
X108301428Y-134100000D01*
X108301428Y-134157142D01*
X108272857Y-134242857D01*
X108215714Y-134300000D01*
X108158571Y-134328571D01*
X108044285Y-134357142D01*
X107958571Y-134357142D01*
X107844285Y-134328571D01*
X107787142Y-134300000D01*
X107730000Y-134242857D01*
X107701428Y-134157142D01*
X107701428Y-134100000D01*
X107730000Y-134014285D01*
X107758571Y-133985714D01*
X108301428Y-133414285D02*
X108301428Y-133757142D01*
X108301428Y-133585714D02*
X107701428Y-133585714D01*
X107787142Y-133642857D01*
X107844285Y-133700000D01*
X107872857Y-133757142D01*
X107701428Y-132871428D02*
X107701428Y-133157142D01*
X107987142Y-133185714D01*
X107958571Y-133157142D01*
X107930000Y-133100000D01*
X107930000Y-132957142D01*
X107958571Y-132900000D01*
X107987142Y-132871428D01*
X108044285Y-132842857D01*
X108187142Y-132842857D01*
X108244285Y-132871428D01*
X108272857Y-132900000D01*
X108301428Y-132957142D01*
X108301428Y-133100000D01*
X108272857Y-133157142D01*
X108244285Y-133185714D01*
X106161428Y-134228571D02*
X106161428Y-134171428D01*
X106190000Y-134114285D01*
X106218571Y-134085714D01*
X106275714Y-134057142D01*
X106390000Y-134028571D01*
X106532857Y-134028571D01*
X106647142Y-134057142D01*
X106704285Y-134085714D01*
X106732857Y-134114285D01*
X106761428Y-134171428D01*
X106761428Y-134228571D01*
X106732857Y-134285714D01*
X106704285Y-134314285D01*
X106647142Y-134342857D01*
X106532857Y-134371428D01*
X106390000Y-134371428D01*
X106275714Y-134342857D01*
X106218571Y-134314285D01*
X106190000Y-134285714D01*
X106161428Y-134228571D01*
X106704285Y-133771428D02*
X106732857Y-133742857D01*
X106761428Y-133771428D01*
X106732857Y-133800000D01*
X106704285Y-133771428D01*
X106761428Y-133771428D01*
X106761428Y-133171428D02*
X106761428Y-133514285D01*
X106761428Y-133342857D02*
X106161428Y-133342857D01*
X106247142Y-133400000D01*
X106304285Y-133457142D01*
X106332857Y-133514285D01*
X106361428Y-132657142D02*
X106761428Y-132657142D01*
X106361428Y-132914285D02*
X106675714Y-132914285D01*
X106732857Y-132885714D01*
X106761428Y-132828571D01*
X106761428Y-132742857D01*
X106732857Y-132685714D01*
X106704285Y-132657142D01*
X104820985Y-128384885D02*
X104792414Y-128413457D01*
X104706700Y-128442028D01*
X104649557Y-128442028D01*
X104563842Y-128413457D01*
X104506700Y-128356314D01*
X104478128Y-128299171D01*
X104449557Y-128184885D01*
X104449557Y-128099171D01*
X104478128Y-127984885D01*
X104506700Y-127927742D01*
X104563842Y-127870600D01*
X104649557Y-127842028D01*
X104706700Y-127842028D01*
X104792414Y-127870600D01*
X104820985Y-127899171D01*
X105392414Y-128442028D02*
X105049557Y-128442028D01*
X105220985Y-128442028D02*
X105220985Y-127842028D01*
X105163842Y-127927742D01*
X105106700Y-127984885D01*
X105049557Y-128013457D01*
X105906700Y-127842028D02*
X105792414Y-127842028D01*
X105735271Y-127870600D01*
X105706700Y-127899171D01*
X105649557Y-127984885D01*
X105620985Y-128099171D01*
X105620985Y-128327742D01*
X105649557Y-128384885D01*
X105678128Y-128413457D01*
X105735271Y-128442028D01*
X105849557Y-128442028D01*
X105906700Y-128413457D01*
X105935271Y-128384885D01*
X105963842Y-128327742D01*
X105963842Y-128184885D01*
X105935271Y-128127742D01*
X105906700Y-128099171D01*
X105849557Y-128070600D01*
X105735271Y-128070600D01*
X105678128Y-128099171D01*
X105649557Y-128127742D01*
X105620985Y-128184885D01*
X104351428Y-129421428D02*
X104408571Y-129421428D01*
X104465714Y-129450000D01*
X104494285Y-129478571D01*
X104522857Y-129535714D01*
X104551428Y-129650000D01*
X104551428Y-129792857D01*
X104522857Y-129907142D01*
X104494285Y-129964285D01*
X104465714Y-129992857D01*
X104408571Y-130021428D01*
X104351428Y-130021428D01*
X104294285Y-129992857D01*
X104265714Y-129964285D01*
X104237142Y-129907142D01*
X104208571Y-129792857D01*
X104208571Y-129650000D01*
X104237142Y-129535714D01*
X104265714Y-129478571D01*
X104294285Y-129450000D01*
X104351428Y-129421428D01*
X104808571Y-129964285D02*
X104837142Y-129992857D01*
X104808571Y-130021428D01*
X104780000Y-129992857D01*
X104808571Y-129964285D01*
X104808571Y-130021428D01*
X105408571Y-130021428D02*
X105065714Y-130021428D01*
X105237142Y-130021428D02*
X105237142Y-129421428D01*
X105180000Y-129507142D01*
X105122857Y-129564285D01*
X105065714Y-129592857D01*
X105922857Y-129621428D02*
X105922857Y-130021428D01*
X105665714Y-129621428D02*
X105665714Y-129935714D01*
X105694285Y-129992857D01*
X105751428Y-130021428D01*
X105837142Y-130021428D01*
X105894285Y-129992857D01*
X105922857Y-129964285D01*
X154447585Y-125362085D02*
X154419014Y-125390657D01*
X154333300Y-125419228D01*
X154276157Y-125419228D01*
X154190442Y-125390657D01*
X154133300Y-125333514D01*
X154104728Y-125276371D01*
X154076157Y-125162085D01*
X154076157Y-125076371D01*
X154104728Y-124962085D01*
X154133300Y-124904942D01*
X154190442Y-124847800D01*
X154276157Y-124819228D01*
X154333300Y-124819228D01*
X154419014Y-124847800D01*
X154447585Y-124876371D01*
X154676157Y-124876371D02*
X154704728Y-124847800D01*
X154761871Y-124819228D01*
X154904728Y-124819228D01*
X154961871Y-124847800D01*
X154990442Y-124876371D01*
X155019014Y-124933514D01*
X155019014Y-124990657D01*
X154990442Y-125076371D01*
X154647585Y-125419228D01*
X155019014Y-125419228D01*
X155390442Y-124819228D02*
X155447585Y-124819228D01*
X155504728Y-124847800D01*
X155533300Y-124876371D01*
X155561871Y-124933514D01*
X155590442Y-125047800D01*
X155590442Y-125190657D01*
X155561871Y-125304942D01*
X155533300Y-125362085D01*
X155504728Y-125390657D01*
X155447585Y-125419228D01*
X155390442Y-125419228D01*
X155333300Y-125390657D01*
X155304728Y-125362085D01*
X155276157Y-125304942D01*
X155247585Y-125190657D01*
X155247585Y-125047800D01*
X155276157Y-124933514D01*
X155304728Y-124876371D01*
X155333300Y-124847800D01*
X155390442Y-124819228D01*
X156200000Y-123971428D02*
X155857142Y-123971428D01*
X156028571Y-123971428D02*
X156028571Y-123371428D01*
X155971428Y-123457142D01*
X155914285Y-123514285D01*
X155857142Y-123542857D01*
X156714285Y-123571428D02*
X156714285Y-123971428D01*
X156457142Y-123571428D02*
X156457142Y-123885714D01*
X156485714Y-123942857D01*
X156542857Y-123971428D01*
X156628571Y-123971428D01*
X156685714Y-123942857D01*
X156714285Y-123914285D01*
X107964285Y-122753714D02*
X107992857Y-122782285D01*
X108021428Y-122868000D01*
X108021428Y-122925142D01*
X107992857Y-123010857D01*
X107935714Y-123068000D01*
X107878571Y-123096571D01*
X107764285Y-123125142D01*
X107678571Y-123125142D01*
X107564285Y-123096571D01*
X107507142Y-123068000D01*
X107450000Y-123010857D01*
X107421428Y-122925142D01*
X107421428Y-122868000D01*
X107450000Y-122782285D01*
X107478571Y-122753714D01*
X108021428Y-122182285D02*
X108021428Y-122525142D01*
X108021428Y-122353714D02*
X107421428Y-122353714D01*
X107507142Y-122410857D01*
X107564285Y-122468000D01*
X107592857Y-122525142D01*
X107478571Y-121953714D02*
X107450000Y-121925142D01*
X107421428Y-121868000D01*
X107421428Y-121725142D01*
X107450000Y-121668000D01*
X107478571Y-121639428D01*
X107535714Y-121610857D01*
X107592857Y-121610857D01*
X107678571Y-121639428D01*
X108021428Y-121982285D01*
X108021428Y-121610857D01*
X106151428Y-123096571D02*
X106151428Y-123039428D01*
X106180000Y-122982285D01*
X106208571Y-122953714D01*
X106265714Y-122925142D01*
X106380000Y-122896571D01*
X106522857Y-122896571D01*
X106637142Y-122925142D01*
X106694285Y-122953714D01*
X106722857Y-122982285D01*
X106751428Y-123039428D01*
X106751428Y-123096571D01*
X106722857Y-123153714D01*
X106694285Y-123182285D01*
X106637142Y-123210857D01*
X106522857Y-123239428D01*
X106380000Y-123239428D01*
X106265714Y-123210857D01*
X106208571Y-123182285D01*
X106180000Y-123153714D01*
X106151428Y-123096571D01*
X106694285Y-122639428D02*
X106722857Y-122610857D01*
X106751428Y-122639428D01*
X106722857Y-122668000D01*
X106694285Y-122639428D01*
X106751428Y-122639428D01*
X106751428Y-122039428D02*
X106751428Y-122382285D01*
X106751428Y-122210857D02*
X106151428Y-122210857D01*
X106237142Y-122268000D01*
X106294285Y-122325142D01*
X106322857Y-122382285D01*
X106351428Y-121525142D02*
X106751428Y-121525142D01*
X106351428Y-121782285D02*
X106665714Y-121782285D01*
X106722857Y-121753714D01*
X106751428Y-121696571D01*
X106751428Y-121610857D01*
X106722857Y-121553714D01*
X106694285Y-121525142D01*
X109844285Y-133680000D02*
X109872857Y-133708571D01*
X109901428Y-133794285D01*
X109901428Y-133851428D01*
X109872857Y-133937142D01*
X109815714Y-133994285D01*
X109758571Y-134022857D01*
X109644285Y-134051428D01*
X109558571Y-134051428D01*
X109444285Y-134022857D01*
X109387142Y-133994285D01*
X109330000Y-133937142D01*
X109301428Y-133851428D01*
X109301428Y-133794285D01*
X109330000Y-133708571D01*
X109358571Y-133680000D01*
X109901428Y-133394285D02*
X109901428Y-133280000D01*
X109872857Y-133222857D01*
X109844285Y-133194285D01*
X109758571Y-133137142D01*
X109644285Y-133108571D01*
X109415714Y-133108571D01*
X109358571Y-133137142D01*
X109330000Y-133165714D01*
X109301428Y-133222857D01*
X109301428Y-133337142D01*
X109330000Y-133394285D01*
X109358571Y-133422857D01*
X109415714Y-133451428D01*
X109558571Y-133451428D01*
X109615714Y-133422857D01*
X109644285Y-133394285D01*
X109672857Y-133337142D01*
X109672857Y-133222857D01*
X109644285Y-133165714D01*
X109615714Y-133137142D01*
X109558571Y-133108571D01*
X108871428Y-135303428D02*
X108928571Y-135303428D01*
X108985714Y-135332000D01*
X109014285Y-135360571D01*
X109042857Y-135417714D01*
X109071428Y-135532000D01*
X109071428Y-135674857D01*
X109042857Y-135789142D01*
X109014285Y-135846285D01*
X108985714Y-135874857D01*
X108928571Y-135903428D01*
X108871428Y-135903428D01*
X108814285Y-135874857D01*
X108785714Y-135846285D01*
X108757142Y-135789142D01*
X108728571Y-135674857D01*
X108728571Y-135532000D01*
X108757142Y-135417714D01*
X108785714Y-135360571D01*
X108814285Y-135332000D01*
X108871428Y-135303428D01*
X109328571Y-135846285D02*
X109357142Y-135874857D01*
X109328571Y-135903428D01*
X109300000Y-135874857D01*
X109328571Y-135846285D01*
X109328571Y-135903428D01*
X109928571Y-135903428D02*
X109585714Y-135903428D01*
X109757142Y-135903428D02*
X109757142Y-135303428D01*
X109700000Y-135389142D01*
X109642857Y-135446285D01*
X109585714Y-135474857D01*
X110442857Y-135503428D02*
X110442857Y-135903428D01*
X110185714Y-135503428D02*
X110185714Y-135817714D01*
X110214285Y-135874857D01*
X110271428Y-135903428D01*
X110357142Y-135903428D01*
X110414285Y-135874857D01*
X110442857Y-135846285D01*
X117080000Y-124284285D02*
X117051428Y-124312857D01*
X116965714Y-124341428D01*
X116908571Y-124341428D01*
X116822857Y-124312857D01*
X116765714Y-124255714D01*
X116737142Y-124198571D01*
X116708571Y-124084285D01*
X116708571Y-123998571D01*
X116737142Y-123884285D01*
X116765714Y-123827142D01*
X116822857Y-123770000D01*
X116908571Y-123741428D01*
X116965714Y-123741428D01*
X117051428Y-123770000D01*
X117080000Y-123798571D01*
X117422857Y-123998571D02*
X117365714Y-123970000D01*
X117337142Y-123941428D01*
X117308571Y-123884285D01*
X117308571Y-123855714D01*
X117337142Y-123798571D01*
X117365714Y-123770000D01*
X117422857Y-123741428D01*
X117537142Y-123741428D01*
X117594285Y-123770000D01*
X117622857Y-123798571D01*
X117651428Y-123855714D01*
X117651428Y-123884285D01*
X117622857Y-123941428D01*
X117594285Y-123970000D01*
X117537142Y-123998571D01*
X117422857Y-123998571D01*
X117365714Y-124027142D01*
X117337142Y-124055714D01*
X117308571Y-124112857D01*
X117308571Y-124227142D01*
X117337142Y-124284285D01*
X117365714Y-124312857D01*
X117422857Y-124341428D01*
X117537142Y-124341428D01*
X117594285Y-124312857D01*
X117622857Y-124284285D01*
X117651428Y-124227142D01*
X117651428Y-124112857D01*
X117622857Y-124055714D01*
X117594285Y-124027142D01*
X117537142Y-123998571D01*
X116894285Y-123041428D02*
X116551428Y-123041428D01*
X116722857Y-123041428D02*
X116722857Y-122441428D01*
X116665714Y-122527142D01*
X116608571Y-122584285D01*
X116551428Y-122612857D01*
X117237142Y-122698571D02*
X117180000Y-122670000D01*
X117151428Y-122641428D01*
X117122857Y-122584285D01*
X117122857Y-122555714D01*
X117151428Y-122498571D01*
X117180000Y-122470000D01*
X117237142Y-122441428D01*
X117351428Y-122441428D01*
X117408571Y-122470000D01*
X117437142Y-122498571D01*
X117465714Y-122555714D01*
X117465714Y-122584285D01*
X117437142Y-122641428D01*
X117408571Y-122670000D01*
X117351428Y-122698571D01*
X117237142Y-122698571D01*
X117180000Y-122727142D01*
X117151428Y-122755714D01*
X117122857Y-122812857D01*
X117122857Y-122927142D01*
X117151428Y-122984285D01*
X117180000Y-123012857D01*
X117237142Y-123041428D01*
X117351428Y-123041428D01*
X117408571Y-123012857D01*
X117437142Y-122984285D01*
X117465714Y-122927142D01*
X117465714Y-122812857D01*
X117437142Y-122755714D01*
X117408571Y-122727142D01*
X117351428Y-122698571D01*
X117722857Y-122641428D02*
X117722857Y-123241428D01*
X117722857Y-122670000D02*
X117780000Y-122641428D01*
X117894285Y-122641428D01*
X117951428Y-122670000D01*
X117980000Y-122698571D01*
X118008571Y-122755714D01*
X118008571Y-122927142D01*
X117980000Y-122984285D01*
X117951428Y-123012857D01*
X117894285Y-123041428D01*
X117780000Y-123041428D01*
X117722857Y-123012857D01*
X117180000Y-131584285D02*
X117151428Y-131612857D01*
X117065714Y-131641428D01*
X117008571Y-131641428D01*
X116922857Y-131612857D01*
X116865714Y-131555714D01*
X116837142Y-131498571D01*
X116808571Y-131384285D01*
X116808571Y-131298571D01*
X116837142Y-131184285D01*
X116865714Y-131127142D01*
X116922857Y-131070000D01*
X117008571Y-131041428D01*
X117065714Y-131041428D01*
X117151428Y-131070000D01*
X117180000Y-131098571D01*
X117380000Y-131041428D02*
X117780000Y-131041428D01*
X117522857Y-131641428D01*
X116794285Y-133241428D02*
X116451428Y-133241428D01*
X116622857Y-133241428D02*
X116622857Y-132641428D01*
X116565714Y-132727142D01*
X116508571Y-132784285D01*
X116451428Y-132812857D01*
X117137142Y-132898571D02*
X117080000Y-132870000D01*
X117051428Y-132841428D01*
X117022857Y-132784285D01*
X117022857Y-132755714D01*
X117051428Y-132698571D01*
X117080000Y-132670000D01*
X117137142Y-132641428D01*
X117251428Y-132641428D01*
X117308571Y-132670000D01*
X117337142Y-132698571D01*
X117365714Y-132755714D01*
X117365714Y-132784285D01*
X117337142Y-132841428D01*
X117308571Y-132870000D01*
X117251428Y-132898571D01*
X117137142Y-132898571D01*
X117080000Y-132927142D01*
X117051428Y-132955714D01*
X117022857Y-133012857D01*
X117022857Y-133127142D01*
X117051428Y-133184285D01*
X117080000Y-133212857D01*
X117137142Y-133241428D01*
X117251428Y-133241428D01*
X117308571Y-133212857D01*
X117337142Y-133184285D01*
X117365714Y-133127142D01*
X117365714Y-133012857D01*
X117337142Y-132955714D01*
X117308571Y-132927142D01*
X117251428Y-132898571D01*
X117622857Y-132841428D02*
X117622857Y-133441428D01*
X117622857Y-132870000D02*
X117680000Y-132841428D01*
X117794285Y-132841428D01*
X117851428Y-132870000D01*
X117880000Y-132898571D01*
X117908571Y-132955714D01*
X117908571Y-133127142D01*
X117880000Y-133184285D01*
X117851428Y-133212857D01*
X117794285Y-133241428D01*
X117680000Y-133241428D01*
X117622857Y-133212857D01*
X124300000Y-145714285D02*
X124271428Y-145742857D01*
X124185714Y-145771428D01*
X124128571Y-145771428D01*
X124042857Y-145742857D01*
X123985714Y-145685714D01*
X123957142Y-145628571D01*
X123928571Y-145514285D01*
X123928571Y-145428571D01*
X123957142Y-145314285D01*
X123985714Y-145257142D01*
X124042857Y-145200000D01*
X124128571Y-145171428D01*
X124185714Y-145171428D01*
X124271428Y-145200000D01*
X124300000Y-145228571D01*
X124814285Y-145171428D02*
X124700000Y-145171428D01*
X124642857Y-145200000D01*
X124614285Y-145228571D01*
X124557142Y-145314285D01*
X124528571Y-145428571D01*
X124528571Y-145657142D01*
X124557142Y-145714285D01*
X124585714Y-145742857D01*
X124642857Y-145771428D01*
X124757142Y-145771428D01*
X124814285Y-145742857D01*
X124842857Y-145714285D01*
X124871428Y-145657142D01*
X124871428Y-145514285D01*
X124842857Y-145457142D01*
X124814285Y-145428571D01*
X124757142Y-145400000D01*
X124642857Y-145400000D01*
X124585714Y-145428571D01*
X124557142Y-145457142D01*
X124528571Y-145514285D01*
X126500000Y-146071428D02*
X126157142Y-146071428D01*
X126328571Y-146071428D02*
X126328571Y-145471428D01*
X126271428Y-145557142D01*
X126214285Y-145614285D01*
X126157142Y-145642857D01*
X127014285Y-145671428D02*
X127014285Y-146071428D01*
X126757142Y-145671428D02*
X126757142Y-145985714D01*
X126785714Y-146042857D01*
X126842857Y-146071428D01*
X126928571Y-146071428D01*
X126985714Y-146042857D01*
X127014285Y-146014285D01*
X124300000Y-147314285D02*
X124271428Y-147342857D01*
X124185714Y-147371428D01*
X124128571Y-147371428D01*
X124042857Y-147342857D01*
X123985714Y-147285714D01*
X123957142Y-147228571D01*
X123928571Y-147114285D01*
X123928571Y-147028571D01*
X123957142Y-146914285D01*
X123985714Y-146857142D01*
X124042857Y-146800000D01*
X124128571Y-146771428D01*
X124185714Y-146771428D01*
X124271428Y-146800000D01*
X124300000Y-146828571D01*
X124842857Y-146771428D02*
X124557142Y-146771428D01*
X124528571Y-147057142D01*
X124557142Y-147028571D01*
X124614285Y-147000000D01*
X124757142Y-147000000D01*
X124814285Y-147028571D01*
X124842857Y-147057142D01*
X124871428Y-147114285D01*
X124871428Y-147257142D01*
X124842857Y-147314285D01*
X124814285Y-147342857D01*
X124757142Y-147371428D01*
X124614285Y-147371428D01*
X124557142Y-147342857D01*
X124528571Y-147314285D01*
X124171428Y-147971428D02*
X124228571Y-147971428D01*
X124285714Y-148000000D01*
X124314285Y-148028571D01*
X124342857Y-148085714D01*
X124371428Y-148200000D01*
X124371428Y-148342857D01*
X124342857Y-148457142D01*
X124314285Y-148514285D01*
X124285714Y-148542857D01*
X124228571Y-148571428D01*
X124171428Y-148571428D01*
X124114285Y-148542857D01*
X124085714Y-148514285D01*
X124057142Y-148457142D01*
X124028571Y-148342857D01*
X124028571Y-148200000D01*
X124057142Y-148085714D01*
X124085714Y-148028571D01*
X124114285Y-148000000D01*
X124171428Y-147971428D01*
X124628571Y-148514285D02*
X124657142Y-148542857D01*
X124628571Y-148571428D01*
X124600000Y-148542857D01*
X124628571Y-148514285D01*
X124628571Y-148571428D01*
X125228571Y-148571428D02*
X124885714Y-148571428D01*
X125057142Y-148571428D02*
X125057142Y-147971428D01*
X125000000Y-148057142D01*
X124942857Y-148114285D01*
X124885714Y-148142857D01*
X125742857Y-148171428D02*
X125742857Y-148571428D01*
X125485714Y-148171428D02*
X125485714Y-148485714D01*
X125514285Y-148542857D01*
X125571428Y-148571428D01*
X125657142Y-148571428D01*
X125714285Y-148542857D01*
X125742857Y-148514285D01*
X118388000Y-150188285D02*
X118359428Y-150216857D01*
X118273714Y-150245428D01*
X118216571Y-150245428D01*
X118130857Y-150216857D01*
X118073714Y-150159714D01*
X118045142Y-150102571D01*
X118016571Y-149988285D01*
X118016571Y-149902571D01*
X118045142Y-149788285D01*
X118073714Y-149731142D01*
X118130857Y-149674000D01*
X118216571Y-149645428D01*
X118273714Y-149645428D01*
X118359428Y-149674000D01*
X118388000Y-149702571D01*
X118616571Y-149702571D02*
X118645142Y-149674000D01*
X118702285Y-149645428D01*
X118845142Y-149645428D01*
X118902285Y-149674000D01*
X118930857Y-149702571D01*
X118959428Y-149759714D01*
X118959428Y-149816857D01*
X118930857Y-149902571D01*
X118588000Y-150245428D01*
X118959428Y-150245428D01*
X120571428Y-149471428D02*
X120628571Y-149471428D01*
X120685714Y-149500000D01*
X120714285Y-149528571D01*
X120742857Y-149585714D01*
X120771428Y-149700000D01*
X120771428Y-149842857D01*
X120742857Y-149957142D01*
X120714285Y-150014285D01*
X120685714Y-150042857D01*
X120628571Y-150071428D01*
X120571428Y-150071428D01*
X120514285Y-150042857D01*
X120485714Y-150014285D01*
X120457142Y-149957142D01*
X120428571Y-149842857D01*
X120428571Y-149700000D01*
X120457142Y-149585714D01*
X120485714Y-149528571D01*
X120514285Y-149500000D01*
X120571428Y-149471428D01*
X121028571Y-150014285D02*
X121057142Y-150042857D01*
X121028571Y-150071428D01*
X121000000Y-150042857D01*
X121028571Y-150014285D01*
X121028571Y-150071428D01*
X121628571Y-150071428D02*
X121285714Y-150071428D01*
X121457142Y-150071428D02*
X121457142Y-149471428D01*
X121400000Y-149557142D01*
X121342857Y-149614285D01*
X121285714Y-149642857D01*
X122142857Y-149671428D02*
X122142857Y-150071428D01*
X121885714Y-149671428D02*
X121885714Y-149985714D01*
X121914285Y-150042857D01*
X121971428Y-150071428D01*
X122057142Y-150071428D01*
X122114285Y-150042857D01*
X122142857Y-150014285D01*
X121614285Y-147300000D02*
X121642857Y-147328571D01*
X121671428Y-147414285D01*
X121671428Y-147471428D01*
X121642857Y-147557142D01*
X121585714Y-147614285D01*
X121528571Y-147642857D01*
X121414285Y-147671428D01*
X121328571Y-147671428D01*
X121214285Y-147642857D01*
X121157142Y-147614285D01*
X121100000Y-147557142D01*
X121071428Y-147471428D01*
X121071428Y-147414285D01*
X121100000Y-147328571D01*
X121128571Y-147300000D01*
X121271428Y-146785714D02*
X121671428Y-146785714D01*
X121042857Y-146928571D02*
X121471428Y-147071428D01*
X121471428Y-146700000D01*
X120471428Y-144771428D02*
X120528571Y-144771428D01*
X120585714Y-144800000D01*
X120614285Y-144828571D01*
X120642857Y-144885714D01*
X120671428Y-145000000D01*
X120671428Y-145142857D01*
X120642857Y-145257142D01*
X120614285Y-145314285D01*
X120585714Y-145342857D01*
X120528571Y-145371428D01*
X120471428Y-145371428D01*
X120414285Y-145342857D01*
X120385714Y-145314285D01*
X120357142Y-145257142D01*
X120328571Y-145142857D01*
X120328571Y-145000000D01*
X120357142Y-144885714D01*
X120385714Y-144828571D01*
X120414285Y-144800000D01*
X120471428Y-144771428D01*
X120928571Y-145314285D02*
X120957142Y-145342857D01*
X120928571Y-145371428D01*
X120900000Y-145342857D01*
X120928571Y-145314285D01*
X120928571Y-145371428D01*
X121528571Y-145371428D02*
X121185714Y-145371428D01*
X121357142Y-145371428D02*
X121357142Y-144771428D01*
X121300000Y-144857142D01*
X121242857Y-144914285D01*
X121185714Y-144942857D01*
X122042857Y-144971428D02*
X122042857Y-145371428D01*
X121785714Y-144971428D02*
X121785714Y-145285714D01*
X121814285Y-145342857D01*
X121871428Y-145371428D01*
X121957142Y-145371428D01*
X122014285Y-145342857D01*
X122042857Y-145314285D01*
X124319100Y-144237885D02*
X124290528Y-144266457D01*
X124204814Y-144295028D01*
X124147671Y-144295028D01*
X124061957Y-144266457D01*
X124004814Y-144209314D01*
X123976242Y-144152171D01*
X123947671Y-144037885D01*
X123947671Y-143952171D01*
X123976242Y-143837885D01*
X124004814Y-143780742D01*
X124061957Y-143723600D01*
X124147671Y-143695028D01*
X124204814Y-143695028D01*
X124290528Y-143723600D01*
X124319100Y-143752171D01*
X124519100Y-143695028D02*
X124890528Y-143695028D01*
X124690528Y-143923600D01*
X124776242Y-143923600D01*
X124833385Y-143952171D01*
X124861957Y-143980742D01*
X124890528Y-144037885D01*
X124890528Y-144180742D01*
X124861957Y-144237885D01*
X124833385Y-144266457D01*
X124776242Y-144295028D01*
X124604814Y-144295028D01*
X124547671Y-144266457D01*
X124519100Y-144237885D01*
X126614285Y-144271428D02*
X126271428Y-144271428D01*
X126442857Y-144271428D02*
X126442857Y-143671428D01*
X126385714Y-143757142D01*
X126328571Y-143814285D01*
X126271428Y-143842857D01*
X126985714Y-143671428D02*
X127042857Y-143671428D01*
X127100000Y-143700000D01*
X127128571Y-143728571D01*
X127157142Y-143785714D01*
X127185714Y-143900000D01*
X127185714Y-144042857D01*
X127157142Y-144157142D01*
X127128571Y-144214285D01*
X127100000Y-144242857D01*
X127042857Y-144271428D01*
X126985714Y-144271428D01*
X126928571Y-144242857D01*
X126900000Y-144214285D01*
X126871428Y-144157142D01*
X126842857Y-144042857D01*
X126842857Y-143900000D01*
X126871428Y-143785714D01*
X126900000Y-143728571D01*
X126928571Y-143700000D01*
X126985714Y-143671428D01*
X127700000Y-143871428D02*
X127700000Y-144271428D01*
X127442857Y-143871428D02*
X127442857Y-144185714D01*
X127471428Y-144242857D01*
X127528571Y-144271428D01*
X127614285Y-144271428D01*
X127671428Y-144242857D01*
X127700000Y-144214285D01*
X109814285Y-137700000D02*
X109842857Y-137728571D01*
X109871428Y-137814285D01*
X109871428Y-137871428D01*
X109842857Y-137957142D01*
X109785714Y-138014285D01*
X109728571Y-138042857D01*
X109614285Y-138071428D01*
X109528571Y-138071428D01*
X109414285Y-138042857D01*
X109357142Y-138014285D01*
X109300000Y-137957142D01*
X109271428Y-137871428D01*
X109271428Y-137814285D01*
X109300000Y-137728571D01*
X109328571Y-137700000D01*
X109871428Y-137128571D02*
X109871428Y-137471428D01*
X109871428Y-137300000D02*
X109271428Y-137300000D01*
X109357142Y-137357142D01*
X109414285Y-137414285D01*
X109442857Y-137471428D01*
X108571428Y-139171428D02*
X108628571Y-139171428D01*
X108685714Y-139200000D01*
X108714285Y-139228571D01*
X108742857Y-139285714D01*
X108771428Y-139400000D01*
X108771428Y-139542857D01*
X108742857Y-139657142D01*
X108714285Y-139714285D01*
X108685714Y-139742857D01*
X108628571Y-139771428D01*
X108571428Y-139771428D01*
X108514285Y-139742857D01*
X108485714Y-139714285D01*
X108457142Y-139657142D01*
X108428571Y-139542857D01*
X108428571Y-139400000D01*
X108457142Y-139285714D01*
X108485714Y-139228571D01*
X108514285Y-139200000D01*
X108571428Y-139171428D01*
X109028571Y-139714285D02*
X109057142Y-139742857D01*
X109028571Y-139771428D01*
X109000000Y-139742857D01*
X109028571Y-139714285D01*
X109028571Y-139771428D01*
X109628571Y-139771428D02*
X109285714Y-139771428D01*
X109457142Y-139771428D02*
X109457142Y-139171428D01*
X109400000Y-139257142D01*
X109342857Y-139314285D01*
X109285714Y-139342857D01*
X110142857Y-139371428D02*
X110142857Y-139771428D01*
X109885714Y-139371428D02*
X109885714Y-139685714D01*
X109914285Y-139742857D01*
X109971428Y-139771428D01*
X110057142Y-139771428D01*
X110114285Y-139742857D01*
X110142857Y-139714285D01*
X105471428Y-148928571D02*
X106071428Y-148528571D01*
X105471428Y-148528571D02*
X106071428Y-148928571D01*
X106071428Y-148014285D02*
X106071428Y-148300000D01*
X105471428Y-148300000D01*
X106071428Y-147500000D02*
X106071428Y-147842857D01*
X106071428Y-147671428D02*
X105471428Y-147671428D01*
X105557142Y-147728571D01*
X105614285Y-147785714D01*
X105642857Y-147842857D01*
X104952380Y-147494385D02*
X104952380Y-148065814D01*
X104952380Y-147780100D02*
X103952380Y-147780100D01*
X104095238Y-147875338D01*
X104190476Y-147970576D01*
X104238095Y-148065814D01*
X109763428Y-120726000D02*
X109763428Y-121011714D01*
X109163428Y-121011714D01*
X109220571Y-120554571D02*
X109192000Y-120526000D01*
X109163428Y-120468857D01*
X109163428Y-120326000D01*
X109192000Y-120268857D01*
X109220571Y-120240285D01*
X109277714Y-120211714D01*
X109334857Y-120211714D01*
X109420571Y-120240285D01*
X109763428Y-120583142D01*
X109763428Y-120211714D01*
X110671428Y-119371428D02*
X110328571Y-119371428D01*
X110500000Y-119371428D02*
X110500000Y-118771428D01*
X110442857Y-118857142D01*
X110385714Y-118914285D01*
X110328571Y-118942857D01*
X110900000Y-118828571D02*
X110928571Y-118800000D01*
X110985714Y-118771428D01*
X111128571Y-118771428D01*
X111185714Y-118800000D01*
X111214285Y-118828571D01*
X111242857Y-118885714D01*
X111242857Y-118942857D01*
X111214285Y-119028571D01*
X110871428Y-119371428D01*
X111242857Y-119371428D01*
X111500000Y-118971428D02*
X111500000Y-119371428D01*
X111500000Y-119028571D02*
X111528571Y-119000000D01*
X111585714Y-118971428D01*
X111671428Y-118971428D01*
X111728571Y-119000000D01*
X111757142Y-119057142D01*
X111757142Y-119371428D01*
X112042857Y-119371428D02*
X112042857Y-118771428D01*
X112042857Y-119057142D02*
X112385714Y-119057142D01*
X112385714Y-119371428D02*
X112385714Y-118771428D01*
X112757142Y-118771428D02*
X112757142Y-118914285D01*
X112614285Y-118857142D02*
X112757142Y-118914285D01*
X112900000Y-118857142D01*
X112671428Y-119028571D02*
X112757142Y-118914285D01*
X112842857Y-119028571D01*
X129409928Y-140978500D02*
X129409928Y-141264214D01*
X128809928Y-141264214D01*
X129409928Y-140464214D02*
X129409928Y-140807071D01*
X129409928Y-140635642D02*
X128809928Y-140635642D01*
X128895642Y-140692785D01*
X128952785Y-140749928D01*
X128981357Y-140807071D01*
X129957142Y-142828571D02*
X129985714Y-142742857D01*
X130014285Y-142714285D01*
X130071428Y-142685714D01*
X130157142Y-142685714D01*
X130214285Y-142714285D01*
X130242857Y-142742857D01*
X130271428Y-142800000D01*
X130271428Y-143028571D01*
X129671428Y-143028571D01*
X129671428Y-142828571D01*
X129700000Y-142771428D01*
X129728571Y-142742857D01*
X129785714Y-142714285D01*
X129842857Y-142714285D01*
X129900000Y-142742857D01*
X129928571Y-142771428D01*
X129957142Y-142828571D01*
X129957142Y-143028571D01*
X130271428Y-142142857D02*
X130271428Y-142428571D01*
X129671428Y-142428571D01*
X130271428Y-141942857D02*
X129671428Y-141942857D01*
X130100000Y-141742857D01*
X129671428Y-141542857D01*
X130271428Y-141542857D01*
X130271428Y-140942857D02*
X130271428Y-141285714D01*
X130271428Y-141114285D02*
X129671428Y-141114285D01*
X129757142Y-141171428D01*
X129814285Y-141228571D01*
X129842857Y-141285714D01*
X129671428Y-140400000D02*
X129671428Y-140685714D01*
X129957142Y-140714285D01*
X129928571Y-140685714D01*
X129900000Y-140628571D01*
X129900000Y-140485714D01*
X129928571Y-140428571D01*
X129957142Y-140400000D01*
X130014285Y-140371428D01*
X130157142Y-140371428D01*
X130214285Y-140400000D01*
X130242857Y-140428571D01*
X130271428Y-140485714D01*
X130271428Y-140628571D01*
X130242857Y-140685714D01*
X130214285Y-140714285D01*
X130100000Y-140142857D02*
X130100000Y-139857142D01*
X130271428Y-140200000D02*
X129671428Y-140000000D01*
X130271428Y-139800000D01*
X129700000Y-139285714D02*
X129671428Y-139342857D01*
X129671428Y-139428571D01*
X129700000Y-139514285D01*
X129757142Y-139571428D01*
X129814285Y-139600000D01*
X129928571Y-139628571D01*
X130014285Y-139628571D01*
X130128571Y-139600000D01*
X130185714Y-139571428D01*
X130242857Y-139514285D01*
X130271428Y-139428571D01*
X130271428Y-139371428D01*
X130242857Y-139285714D01*
X130214285Y-139257142D01*
X130014285Y-139257142D01*
X130014285Y-139371428D01*
X130271428Y-138685714D02*
X130271428Y-139028571D01*
X130271428Y-138857142D02*
X129671428Y-138857142D01*
X129757142Y-138914285D01*
X129814285Y-138971428D01*
X129842857Y-139028571D01*
X129671428Y-138314285D02*
X129671428Y-138257142D01*
X129700000Y-138200000D01*
X129728571Y-138171428D01*
X129785714Y-138142857D01*
X129900000Y-138114285D01*
X130042857Y-138114285D01*
X130157142Y-138142857D01*
X130214285Y-138171428D01*
X130242857Y-138200000D01*
X130271428Y-138257142D01*
X130271428Y-138314285D01*
X130242857Y-138371428D01*
X130214285Y-138400000D01*
X130157142Y-138428571D01*
X130042857Y-138457142D01*
X129900000Y-138457142D01*
X129785714Y-138428571D01*
X129728571Y-138400000D01*
X129700000Y-138371428D01*
X129671428Y-138314285D01*
X129728571Y-137885714D02*
X129700000Y-137857142D01*
X129671428Y-137800000D01*
X129671428Y-137657142D01*
X129700000Y-137600000D01*
X129728571Y-137571428D01*
X129785714Y-137542857D01*
X129842857Y-137542857D01*
X129928571Y-137571428D01*
X130271428Y-137914285D01*
X130271428Y-137542857D01*
D14*
X122103556Y-136743175D02*
X122103556Y-136143735D01*
X122246280Y-136143735D01*
X122331914Y-136172280D01*
X122389003Y-136229369D01*
X122417548Y-136286459D01*
X122446093Y-136400638D01*
X122446093Y-136486272D01*
X122417548Y-136600451D01*
X122389003Y-136657540D01*
X122331914Y-136714630D01*
X122246280Y-136743175D01*
X122103556Y-136743175D01*
X123016988Y-136743175D02*
X122674451Y-136743175D01*
X122845720Y-136743175D02*
X122845720Y-136143735D01*
X122788630Y-136229369D01*
X122731540Y-136286459D01*
X122674451Y-136315003D01*
X120737127Y-138321175D02*
X120451680Y-138321175D01*
X120451680Y-137721735D01*
X120936940Y-138007182D02*
X121136754Y-138007182D01*
X121222388Y-138321175D02*
X120936940Y-138321175D01*
X120936940Y-137721735D01*
X121222388Y-137721735D01*
X121479291Y-138321175D02*
X121479291Y-137721735D01*
X121622015Y-137721735D01*
X121707649Y-137750280D01*
X121764739Y-137807369D01*
X121793283Y-137864459D01*
X121821828Y-137978638D01*
X121821828Y-138064272D01*
X121793283Y-138178451D01*
X121764739Y-138235540D01*
X121707649Y-138292630D01*
X121622015Y-138321175D01*
X121479291Y-138321175D01*
X121936007Y-138378264D02*
X122392723Y-138378264D01*
X122877984Y-138321175D02*
X122678171Y-138035727D01*
X122535447Y-138321175D02*
X122535447Y-137721735D01*
X122763805Y-137721735D01*
X122820895Y-137750280D01*
X122849440Y-137778824D01*
X122877984Y-137835914D01*
X122877984Y-137921548D01*
X122849440Y-137978638D01*
X122820895Y-138007182D01*
X122763805Y-138035727D01*
X122535447Y-138035727D01*
X123448880Y-137750280D02*
X123391790Y-137721735D01*
X123306156Y-137721735D01*
X123220521Y-137750280D01*
X123163432Y-137807369D01*
X123134887Y-137864459D01*
X123106342Y-137978638D01*
X123106342Y-138064272D01*
X123134887Y-138178451D01*
X123163432Y-138235540D01*
X123220521Y-138292630D01*
X123306156Y-138321175D01*
X123363245Y-138321175D01*
X123448880Y-138292630D01*
X123477424Y-138264085D01*
X123477424Y-138064272D01*
X123363245Y-138064272D01*
X123934140Y-138007182D02*
X124019775Y-138035727D01*
X124048320Y-138064272D01*
X124076864Y-138121361D01*
X124076864Y-138206996D01*
X124048320Y-138264085D01*
X124019775Y-138292630D01*
X123962685Y-138321175D01*
X123734327Y-138321175D01*
X123734327Y-137721735D01*
X123934140Y-137721735D01*
X123991230Y-137750280D01*
X124019775Y-137778824D01*
X124048320Y-137835914D01*
X124048320Y-137893003D01*
X124019775Y-137950093D01*
X123991230Y-137978638D01*
X123934140Y-138007182D01*
X123734327Y-138007182D01*
D11*
X126371428Y-138921428D02*
X126028571Y-138921428D01*
X126200000Y-138921428D02*
X126200000Y-138321428D01*
X126142857Y-138407142D01*
X126085714Y-138464285D01*
X126028571Y-138492857D01*
X126007142Y-137000000D02*
X126292857Y-137000000D01*
X125950000Y-137171428D02*
X126150000Y-136571428D01*
X126350000Y-137171428D01*
X113211428Y-128642857D02*
X112611428Y-128642857D01*
X112611428Y-128500000D01*
X112640000Y-128414285D01*
X112697142Y-128357142D01*
X112754285Y-128328571D01*
X112868571Y-128300000D01*
X112954285Y-128300000D01*
X113068571Y-128328571D01*
X113125714Y-128357142D01*
X113182857Y-128414285D01*
X113211428Y-128500000D01*
X113211428Y-128642857D01*
X113211428Y-128042857D02*
X112611428Y-128042857D01*
X112611428Y-127900000D01*
X112640000Y-127814285D01*
X112697142Y-127757142D01*
X112754285Y-127728571D01*
X112868571Y-127700000D01*
X112954285Y-127700000D01*
X113068571Y-127728571D01*
X113125714Y-127757142D01*
X113182857Y-127814285D01*
X113211428Y-127900000D01*
X113211428Y-128042857D01*
X112668571Y-127471428D02*
X112640000Y-127442857D01*
X112611428Y-127385714D01*
X112611428Y-127242857D01*
X112640000Y-127185714D01*
X112668571Y-127157142D01*
X112725714Y-127128571D01*
X112782857Y-127128571D01*
X112868571Y-127157142D01*
X113211428Y-127500000D01*
X113211428Y-127128571D01*
X109042857Y-131314285D02*
X109014285Y-131342857D01*
X108928571Y-131371428D01*
X108871428Y-131371428D01*
X108785714Y-131342857D01*
X108728571Y-131285714D01*
X108700000Y-131228571D01*
X108671428Y-131114285D01*
X108671428Y-131028571D01*
X108700000Y-130914285D01*
X108728571Y-130857142D01*
X108785714Y-130800000D01*
X108871428Y-130771428D01*
X108928571Y-130771428D01*
X109014285Y-130800000D01*
X109042857Y-130828571D01*
X109642857Y-131314285D02*
X109614285Y-131342857D01*
X109528571Y-131371428D01*
X109471428Y-131371428D01*
X109385714Y-131342857D01*
X109328571Y-131285714D01*
X109300000Y-131228571D01*
X109271428Y-131114285D01*
X109271428Y-131028571D01*
X109300000Y-130914285D01*
X109328571Y-130857142D01*
X109385714Y-130800000D01*
X109471428Y-130771428D01*
X109528571Y-130771428D01*
X109614285Y-130800000D01*
X109642857Y-130828571D01*
X110214285Y-131371428D02*
X109871428Y-131371428D01*
X110042857Y-131371428D02*
X110042857Y-130771428D01*
X109985714Y-130857142D01*
X109928571Y-130914285D01*
X109871428Y-130942857D01*
X110785714Y-131371428D02*
X110442857Y-131371428D01*
X110614285Y-131371428D02*
X110614285Y-130771428D01*
X110557142Y-130857142D01*
X110500000Y-130914285D01*
X110442857Y-130942857D01*
X111157142Y-130771428D02*
X111214285Y-130771428D01*
X111271428Y-130800000D01*
X111300000Y-130828571D01*
X111328571Y-130885714D01*
X111357142Y-131000000D01*
X111357142Y-131142857D01*
X111328571Y-131257142D01*
X111300000Y-131314285D01*
X111271428Y-131342857D01*
X111214285Y-131371428D01*
X111157142Y-131371428D01*
X111100000Y-131342857D01*
X111071428Y-131314285D01*
X111042857Y-131257142D01*
X111014285Y-131142857D01*
X111014285Y-131000000D01*
X111042857Y-130885714D01*
X111071428Y-130828571D01*
X111100000Y-130800000D01*
X111157142Y-130771428D01*
X111928571Y-131371428D02*
X111585714Y-131371428D01*
X111757142Y-131371428D02*
X111757142Y-130771428D01*
X111700000Y-130857142D01*
X111642857Y-130914285D01*
X111585714Y-130942857D01*
X107911428Y-130718571D02*
X107911428Y-131061428D01*
X107911428Y-130890000D02*
X107311428Y-130890000D01*
X107397142Y-130947142D01*
X107454285Y-131004285D01*
X107482857Y-131061428D01*
D14*
X117051735Y-128883152D02*
X117651175Y-128483525D01*
X117051735Y-128483525D02*
X117651175Y-128883152D01*
X117051735Y-128340801D02*
X117051735Y-127998264D01*
X117651175Y-128169533D02*
X117051735Y-128169533D01*
X117479906Y-127826996D02*
X117479906Y-127541548D01*
X117651175Y-127884085D02*
X117051735Y-127684272D01*
X117651175Y-127484459D01*
X117651175Y-126999198D02*
X117651175Y-127284645D01*
X117051735Y-127284645D01*
X117108824Y-126827929D02*
X117080280Y-126799384D01*
X117051735Y-126742295D01*
X117051735Y-126599571D01*
X117080280Y-126542481D01*
X117108824Y-126513937D01*
X117165914Y-126485392D01*
X117223003Y-126485392D01*
X117308638Y-126513937D01*
X117651175Y-126856474D01*
X117651175Y-126485392D01*
X119208824Y-129025876D02*
X119180280Y-128997331D01*
X119151735Y-128940241D01*
X119151735Y-128797518D01*
X119180280Y-128740428D01*
X119208824Y-128711883D01*
X119265914Y-128683339D01*
X119323003Y-128683339D01*
X119408638Y-128711883D01*
X119751175Y-129054420D01*
X119751175Y-128683339D01*
X119151735Y-128483525D02*
X119151735Y-128083899D01*
X119751175Y-128340801D01*
X119751175Y-127855540D02*
X119151735Y-127855540D01*
X119579906Y-127655727D01*
X119151735Y-127455914D01*
X119751175Y-127455914D01*
X119751175Y-127170466D02*
X119151735Y-127170466D01*
X119437182Y-127170466D02*
X119437182Y-126827929D01*
X119751175Y-126827929D02*
X119151735Y-126827929D01*
X119351548Y-126599571D02*
X119351548Y-126285579D01*
X119751175Y-126599571D01*
X119751175Y-126285579D01*
D11*
X109140000Y-124507142D02*
X109225714Y-124535714D01*
X109254285Y-124564285D01*
X109282857Y-124621428D01*
X109282857Y-124707142D01*
X109254285Y-124764285D01*
X109225714Y-124792857D01*
X109168571Y-124821428D01*
X108940000Y-124821428D01*
X108940000Y-124221428D01*
X109140000Y-124221428D01*
X109197142Y-124250000D01*
X109225714Y-124278571D01*
X109254285Y-124335714D01*
X109254285Y-124392857D01*
X109225714Y-124450000D01*
X109197142Y-124478571D01*
X109140000Y-124507142D01*
X108940000Y-124507142D01*
X109825714Y-124821428D02*
X109540000Y-124821428D01*
X109540000Y-124221428D01*
X110025714Y-124821428D02*
X110025714Y-124221428D01*
X110368571Y-124821428D01*
X110368571Y-124221428D01*
X110968571Y-124821428D02*
X110625714Y-124821428D01*
X110797142Y-124821428D02*
X110797142Y-124221428D01*
X110740000Y-124307142D01*
X110682857Y-124364285D01*
X110625714Y-124392857D01*
D15*
X108571428Y-121620571D02*
X108600000Y-121634857D01*
X108609523Y-121649142D01*
X108619047Y-121677714D01*
X108619047Y-121720571D01*
X108609523Y-121749142D01*
X108600000Y-121763428D01*
X108580952Y-121777714D01*
X108504761Y-121777714D01*
X108504761Y-121477714D01*
X108571428Y-121477714D01*
X108590476Y-121492000D01*
X108600000Y-121506285D01*
X108609523Y-121534857D01*
X108609523Y-121563428D01*
X108600000Y-121592000D01*
X108590476Y-121606285D01*
X108571428Y-121620571D01*
X108504761Y-121620571D01*
X108695238Y-121692000D02*
X108790476Y-121692000D01*
X108676190Y-121777714D02*
X108742857Y-121477714D01*
X108809523Y-121777714D01*
X108971428Y-121777714D02*
X108876190Y-121777714D01*
X108876190Y-121477714D01*
X109038095Y-121477714D02*
X109038095Y-121720571D01*
X109047619Y-121749142D01*
X109057142Y-121763428D01*
X109076190Y-121777714D01*
X109114285Y-121777714D01*
X109133333Y-121763428D01*
X109142857Y-121749142D01*
X109152380Y-121720571D01*
X109152380Y-121477714D01*
X109247619Y-121777714D02*
X109247619Y-121477714D01*
X109361904Y-121777714D01*
X109361904Y-121477714D01*
X109485714Y-121606285D02*
X109466666Y-121592000D01*
X109457142Y-121577714D01*
X109447619Y-121549142D01*
X109447619Y-121534857D01*
X109457142Y-121506285D01*
X109466666Y-121492000D01*
X109485714Y-121477714D01*
X109523809Y-121477714D01*
X109542857Y-121492000D01*
X109552380Y-121506285D01*
X109561904Y-121534857D01*
X109561904Y-121549142D01*
X109552380Y-121577714D01*
X109542857Y-121592000D01*
X109523809Y-121606285D01*
X109485714Y-121606285D01*
X109466666Y-121620571D01*
X109457142Y-121634857D01*
X109447619Y-121663428D01*
X109447619Y-121720571D01*
X109457142Y-121749142D01*
X109466666Y-121763428D01*
X109485714Y-121777714D01*
X109523809Y-121777714D01*
X109542857Y-121763428D01*
X109552380Y-121749142D01*
X109561904Y-121720571D01*
X109561904Y-121663428D01*
X109552380Y-121634857D01*
X109542857Y-121620571D01*
X109523809Y-121606285D01*
X109733333Y-121477714D02*
X109695238Y-121477714D01*
X109676190Y-121492000D01*
X109666666Y-121506285D01*
X109647619Y-121549142D01*
X109638095Y-121606285D01*
X109638095Y-121720571D01*
X109647619Y-121749142D01*
X109657142Y-121763428D01*
X109676190Y-121777714D01*
X109714285Y-121777714D01*
X109733333Y-121763428D01*
X109742857Y-121749142D01*
X109752380Y-121720571D01*
X109752380Y-121649142D01*
X109742857Y-121620571D01*
X109733333Y-121606285D01*
X109714285Y-121592000D01*
X109676190Y-121592000D01*
X109657142Y-121606285D01*
X109647619Y-121620571D01*
X109638095Y-121649142D01*
X109866666Y-121606285D02*
X109847619Y-121592000D01*
X109838095Y-121577714D01*
X109828571Y-121549142D01*
X109828571Y-121534857D01*
X109838095Y-121506285D01*
X109847619Y-121492000D01*
X109866666Y-121477714D01*
X109904761Y-121477714D01*
X109923809Y-121492000D01*
X109933333Y-121506285D01*
X109942857Y-121534857D01*
X109942857Y-121549142D01*
X109933333Y-121577714D01*
X109923809Y-121592000D01*
X109904761Y-121606285D01*
X109866666Y-121606285D01*
X109847619Y-121620571D01*
X109838095Y-121634857D01*
X109828571Y-121663428D01*
X109828571Y-121720571D01*
X109838095Y-121749142D01*
X109847619Y-121763428D01*
X109866666Y-121777714D01*
X109904761Y-121777714D01*
X109923809Y-121763428D01*
X109933333Y-121749142D01*
X109942857Y-121720571D01*
X109942857Y-121663428D01*
X109933333Y-121634857D01*
X109923809Y-121620571D01*
X109904761Y-121606285D01*
X110085714Y-121477714D02*
X110085714Y-121692000D01*
X110076190Y-121734857D01*
X110057142Y-121763428D01*
X110028571Y-121777714D01*
X110009523Y-121777714D01*
X110219047Y-121477714D02*
X110257142Y-121477714D01*
X110276190Y-121492000D01*
X110295238Y-121520571D01*
X110304761Y-121577714D01*
X110304761Y-121677714D01*
X110295238Y-121734857D01*
X110276190Y-121763428D01*
X110257142Y-121777714D01*
X110219047Y-121777714D01*
X110200000Y-121763428D01*
X110180952Y-121734857D01*
X110171428Y-121677714D01*
X110171428Y-121577714D01*
X110180952Y-121520571D01*
X110200000Y-121492000D01*
X110219047Y-121477714D01*
X110390476Y-121777714D02*
X110390476Y-121477714D01*
X110390476Y-121620571D02*
X110504761Y-121620571D01*
X110504761Y-121777714D02*
X110504761Y-121477714D01*
X110590476Y-121692000D02*
X110685714Y-121692000D01*
X110571428Y-121777714D02*
X110638095Y-121477714D01*
X110704761Y-121777714D01*
X110771428Y-121777714D02*
X110771428Y-121477714D01*
X110885714Y-121777714D01*
X110885714Y-121477714D01*
X110971428Y-121763428D02*
X111000000Y-121777714D01*
X111047619Y-121777714D01*
X111066666Y-121763428D01*
X111076190Y-121749142D01*
X111085714Y-121720571D01*
X111085714Y-121692000D01*
X111076190Y-121663428D01*
X111066666Y-121649142D01*
X111047619Y-121634857D01*
X111009523Y-121620571D01*
X110990476Y-121606285D01*
X110980952Y-121592000D01*
X110971428Y-121563428D01*
X110971428Y-121534857D01*
X110980952Y-121506285D01*
X110990476Y-121492000D01*
X111009523Y-121477714D01*
X111057142Y-121477714D01*
X111085714Y-121492000D01*
X111209523Y-121477714D02*
X111247619Y-121477714D01*
X111266666Y-121492000D01*
X111285714Y-121520571D01*
X111295238Y-121577714D01*
X111295238Y-121677714D01*
X111285714Y-121734857D01*
X111266666Y-121763428D01*
X111247619Y-121777714D01*
X111209523Y-121777714D01*
X111190476Y-121763428D01*
X111171428Y-121734857D01*
X111161904Y-121677714D01*
X111161904Y-121577714D01*
X111171428Y-121520571D01*
X111190476Y-121492000D01*
X111209523Y-121477714D01*
X111380952Y-121777714D02*
X111380952Y-121477714D01*
X111495238Y-121777714D01*
X111495238Y-121477714D01*
D11*
X109061428Y-121278571D02*
X109061428Y-121621428D01*
X109061428Y-121450000D02*
X108461428Y-121450000D01*
X108547142Y-121507142D01*
X108604285Y-121564285D01*
X108632857Y-121621428D01*
X115200000Y-137871428D02*
X115000000Y-137585714D01*
X114857142Y-137871428D02*
X114857142Y-137271428D01*
X115085714Y-137271428D01*
X115142857Y-137300000D01*
X115171428Y-137328571D01*
X115200000Y-137385714D01*
X115200000Y-137471428D01*
X115171428Y-137528571D01*
X115142857Y-137557142D01*
X115085714Y-137585714D01*
X114857142Y-137585714D01*
X115771428Y-137871428D02*
X115428571Y-137871428D01*
X115600000Y-137871428D02*
X115600000Y-137271428D01*
X115542857Y-137357142D01*
X115485714Y-137414285D01*
X115428571Y-137442857D01*
X117410571Y-138045428D02*
X117067714Y-138045428D01*
X117239142Y-138045428D02*
X117239142Y-137445428D01*
X117182000Y-137531142D01*
X117124857Y-137588285D01*
X117067714Y-137616857D01*
X117667714Y-138045428D02*
X117667714Y-137445428D01*
X117724857Y-137816857D02*
X117896285Y-138045428D01*
X117896285Y-137645428D02*
X117667714Y-137874000D01*
X115200000Y-136371428D02*
X115000000Y-136085714D01*
X114857142Y-136371428D02*
X114857142Y-135771428D01*
X115085714Y-135771428D01*
X115142857Y-135800000D01*
X115171428Y-135828571D01*
X115200000Y-135885714D01*
X115200000Y-135971428D01*
X115171428Y-136028571D01*
X115142857Y-136057142D01*
X115085714Y-136085714D01*
X114857142Y-136085714D01*
X115428571Y-135828571D02*
X115457142Y-135800000D01*
X115514285Y-135771428D01*
X115657142Y-135771428D01*
X115714285Y-135800000D01*
X115742857Y-135828571D01*
X115771428Y-135885714D01*
X115771428Y-135942857D01*
X115742857Y-136028571D01*
X115400000Y-136371428D01*
X115771428Y-136371428D01*
X117410571Y-136369428D02*
X117067714Y-136369428D01*
X117239142Y-136369428D02*
X117239142Y-135769428D01*
X117182000Y-135855142D01*
X117124857Y-135912285D01*
X117067714Y-135940857D01*
X117667714Y-136369428D02*
X117667714Y-135769428D01*
X117724857Y-136140857D02*
X117896285Y-136369428D01*
X117896285Y-135969428D02*
X117667714Y-136198000D01*
X115300000Y-134771428D02*
X115100000Y-134485714D01*
X114957142Y-134771428D02*
X114957142Y-134171428D01*
X115185714Y-134171428D01*
X115242857Y-134200000D01*
X115271428Y-134228571D01*
X115300000Y-134285714D01*
X115300000Y-134371428D01*
X115271428Y-134428571D01*
X115242857Y-134457142D01*
X115185714Y-134485714D01*
X114957142Y-134485714D01*
X115500000Y-134171428D02*
X115871428Y-134171428D01*
X115671428Y-134400000D01*
X115757142Y-134400000D01*
X115814285Y-134428571D01*
X115842857Y-134457142D01*
X115871428Y-134514285D01*
X115871428Y-134657142D01*
X115842857Y-134714285D01*
X115814285Y-134742857D01*
X115757142Y-134771428D01*
X115585714Y-134771428D01*
X115528571Y-134742857D01*
X115500000Y-134714285D01*
X117410571Y-134947428D02*
X117067714Y-134947428D01*
X117239142Y-134947428D02*
X117239142Y-134347428D01*
X117182000Y-134433142D01*
X117124857Y-134490285D01*
X117067714Y-134518857D01*
X117667714Y-134947428D02*
X117667714Y-134347428D01*
X117724857Y-134718857D02*
X117896285Y-134947428D01*
X117896285Y-134547428D02*
X117667714Y-134776000D01*
X111471428Y-133700000D02*
X111185714Y-133900000D01*
X111471428Y-134042857D02*
X110871428Y-134042857D01*
X110871428Y-133814285D01*
X110900000Y-133757142D01*
X110928571Y-133728571D01*
X110985714Y-133700000D01*
X111071428Y-133700000D01*
X111128571Y-133728571D01*
X111157142Y-133757142D01*
X111185714Y-133814285D01*
X111185714Y-134042857D01*
X110871428Y-133185714D02*
X110871428Y-133300000D01*
X110900000Y-133357142D01*
X110928571Y-133385714D01*
X111014285Y-133442857D01*
X111128571Y-133471428D01*
X111357142Y-133471428D01*
X111414285Y-133442857D01*
X111442857Y-133414285D01*
X111471428Y-133357142D01*
X111471428Y-133242857D01*
X111442857Y-133185714D01*
X111414285Y-133157142D01*
X111357142Y-133128571D01*
X111214285Y-133128571D01*
X111157142Y-133157142D01*
X111128571Y-133185714D01*
X111100000Y-133242857D01*
X111100000Y-133357142D01*
X111128571Y-133414285D01*
X111157142Y-133442857D01*
X111214285Y-133471428D01*
X112371428Y-134185714D02*
X112371428Y-134471428D01*
X112657142Y-134500000D01*
X112628571Y-134471428D01*
X112600000Y-134414285D01*
X112600000Y-134271428D01*
X112628571Y-134214285D01*
X112657142Y-134185714D01*
X112714285Y-134157142D01*
X112857142Y-134157142D01*
X112914285Y-134185714D01*
X112942857Y-134214285D01*
X112971428Y-134271428D01*
X112971428Y-134414285D01*
X112942857Y-134471428D01*
X112914285Y-134500000D01*
X112371428Y-133642857D02*
X112371428Y-133757142D01*
X112400000Y-133814285D01*
X112428571Y-133842857D01*
X112514285Y-133900000D01*
X112628571Y-133928571D01*
X112857142Y-133928571D01*
X112914285Y-133900000D01*
X112942857Y-133871428D01*
X112971428Y-133814285D01*
X112971428Y-133700000D01*
X112942857Y-133642857D01*
X112914285Y-133614285D01*
X112857142Y-133585714D01*
X112714285Y-133585714D01*
X112657142Y-133614285D01*
X112628571Y-133642857D01*
X112600000Y-133700000D01*
X112600000Y-133814285D01*
X112628571Y-133871428D01*
X112657142Y-133900000D01*
X112714285Y-133928571D01*
X112971428Y-133328571D02*
X112371428Y-133328571D01*
X112742857Y-133271428D02*
X112971428Y-133100000D01*
X112571428Y-133100000D02*
X112800000Y-133328571D01*
X105000000Y-126671428D02*
X104800000Y-126385714D01*
X104657142Y-126671428D02*
X104657142Y-126071428D01*
X104885714Y-126071428D01*
X104942857Y-126100000D01*
X104971428Y-126128571D01*
X105000000Y-126185714D01*
X105000000Y-126271428D01*
X104971428Y-126328571D01*
X104942857Y-126357142D01*
X104885714Y-126385714D01*
X104657142Y-126385714D01*
X105200000Y-126071428D02*
X105600000Y-126071428D01*
X105342857Y-126671428D01*
X104714285Y-124871428D02*
X104428571Y-124871428D01*
X104400000Y-125157142D01*
X104428571Y-125128571D01*
X104485714Y-125100000D01*
X104628571Y-125100000D01*
X104685714Y-125128571D01*
X104714285Y-125157142D01*
X104742857Y-125214285D01*
X104742857Y-125357142D01*
X104714285Y-125414285D01*
X104685714Y-125442857D01*
X104628571Y-125471428D01*
X104485714Y-125471428D01*
X104428571Y-125442857D01*
X104400000Y-125414285D01*
X105257142Y-124871428D02*
X105142857Y-124871428D01*
X105085714Y-124900000D01*
X105057142Y-124928571D01*
X105000000Y-125014285D01*
X104971428Y-125128571D01*
X104971428Y-125357142D01*
X105000000Y-125414285D01*
X105028571Y-125442857D01*
X105085714Y-125471428D01*
X105200000Y-125471428D01*
X105257142Y-125442857D01*
X105285714Y-125414285D01*
X105314285Y-125357142D01*
X105314285Y-125214285D01*
X105285714Y-125157142D01*
X105257142Y-125128571D01*
X105200000Y-125100000D01*
X105085714Y-125100000D01*
X105028571Y-125128571D01*
X105000000Y-125157142D01*
X104971428Y-125214285D01*
X105571428Y-125471428D02*
X105571428Y-124871428D01*
X105628571Y-125242857D02*
X105800000Y-125471428D01*
X105800000Y-125071428D02*
X105571428Y-125300000D01*
X156867528Y-128506642D02*
X157353242Y-128506642D01*
X157410385Y-128478071D01*
X157438957Y-128449500D01*
X157467528Y-128392357D01*
X157467528Y-128278071D01*
X157438957Y-128220928D01*
X157410385Y-128192357D01*
X157353242Y-128163785D01*
X156867528Y-128163785D01*
X157467528Y-127563785D02*
X157467528Y-127906642D01*
X157467528Y-127735214D02*
X156867528Y-127735214D01*
X156953242Y-127792357D01*
X157010385Y-127849500D01*
X157038957Y-127906642D01*
D14*
X158871175Y-131124158D02*
X158271735Y-131124158D01*
X158699906Y-130924344D01*
X158271735Y-130724531D01*
X158871175Y-130724531D01*
X158814085Y-130096546D02*
X158842630Y-130125091D01*
X158871175Y-130210725D01*
X158871175Y-130267815D01*
X158842630Y-130353449D01*
X158785540Y-130410539D01*
X158728451Y-130439083D01*
X158614272Y-130467628D01*
X158528638Y-130467628D01*
X158414459Y-130439083D01*
X158357369Y-130410539D01*
X158300280Y-130353449D01*
X158271735Y-130267815D01*
X158271735Y-130210725D01*
X158300280Y-130125091D01*
X158328824Y-130096546D01*
X158871175Y-129839643D02*
X158271735Y-129839643D01*
X158271735Y-129611285D01*
X158300280Y-129554196D01*
X158328824Y-129525651D01*
X158385914Y-129497106D01*
X158471548Y-129497106D01*
X158528638Y-129525651D01*
X158557182Y-129554196D01*
X158585727Y-129611285D01*
X158585727Y-129839643D01*
X158871175Y-128926211D02*
X158871175Y-129268748D01*
X158871175Y-129097480D02*
X158271735Y-129097480D01*
X158357369Y-129154569D01*
X158414459Y-129211659D01*
X158443003Y-129268748D01*
X158271735Y-128726398D02*
X158271735Y-128326771D01*
X158871175Y-128583674D01*
X158271735Y-127984234D02*
X158271735Y-127927144D01*
X158300280Y-127870055D01*
X158328824Y-127841510D01*
X158385914Y-127812965D01*
X158500093Y-127784420D01*
X158642817Y-127784420D01*
X158756996Y-127812965D01*
X158814085Y-127841510D01*
X158842630Y-127870055D01*
X158871175Y-127927144D01*
X158871175Y-127984234D01*
X158842630Y-128041323D01*
X158814085Y-128069868D01*
X158756996Y-128098413D01*
X158642817Y-128126958D01*
X158500093Y-128126958D01*
X158385914Y-128098413D01*
X158328824Y-128069868D01*
X158300280Y-128041323D01*
X158271735Y-127984234D01*
X158271735Y-127413339D02*
X158271735Y-127356249D01*
X158300280Y-127299160D01*
X158328824Y-127270615D01*
X158385914Y-127242070D01*
X158500093Y-127213525D01*
X158642817Y-127213525D01*
X158756996Y-127242070D01*
X158814085Y-127270615D01*
X158842630Y-127299160D01*
X158871175Y-127356249D01*
X158871175Y-127413339D01*
X158842630Y-127470428D01*
X158814085Y-127498973D01*
X158756996Y-127527518D01*
X158642817Y-127556062D01*
X158500093Y-127556062D01*
X158385914Y-127527518D01*
X158328824Y-127498973D01*
X158300280Y-127470428D01*
X158271735Y-127413339D01*
X158271735Y-127042257D02*
X158271735Y-126699720D01*
X158871175Y-126870988D02*
X158271735Y-126870988D01*
X158642817Y-126499906D02*
X158642817Y-126043190D01*
X158271735Y-125814832D02*
X158271735Y-125443750D01*
X158500093Y-125643563D01*
X158500093Y-125557929D01*
X158528638Y-125500840D01*
X158557182Y-125472295D01*
X158614272Y-125443750D01*
X158756996Y-125443750D01*
X158814085Y-125472295D01*
X158842630Y-125500840D01*
X158871175Y-125557929D01*
X158871175Y-125729198D01*
X158842630Y-125786287D01*
X158814085Y-125814832D01*
X158271735Y-125072668D02*
X158271735Y-125015579D01*
X158300280Y-124958489D01*
X158328824Y-124929944D01*
X158385914Y-124901400D01*
X158500093Y-124872855D01*
X158642817Y-124872855D01*
X158756996Y-124901400D01*
X158814085Y-124929944D01*
X158842630Y-124958489D01*
X158871175Y-125015579D01*
X158871175Y-125072668D01*
X158842630Y-125129758D01*
X158814085Y-125158302D01*
X158756996Y-125186847D01*
X158642817Y-125215392D01*
X158500093Y-125215392D01*
X158385914Y-125186847D01*
X158328824Y-125158302D01*
X158300280Y-125129758D01*
X158271735Y-125072668D01*
X158271735Y-124501773D02*
X158271735Y-124444683D01*
X158300280Y-124387594D01*
X158328824Y-124359049D01*
X158385914Y-124330504D01*
X158500093Y-124301960D01*
X158642817Y-124301960D01*
X158756996Y-124330504D01*
X158814085Y-124359049D01*
X158842630Y-124387594D01*
X158871175Y-124444683D01*
X158871175Y-124501773D01*
X158842630Y-124558862D01*
X158814085Y-124587407D01*
X158756996Y-124615952D01*
X158642817Y-124644497D01*
X158500093Y-124644497D01*
X158385914Y-124615952D01*
X158328824Y-124587407D01*
X158300280Y-124558862D01*
X158271735Y-124501773D01*
X158328824Y-124073601D02*
X158300280Y-124045057D01*
X158271735Y-123987967D01*
X158271735Y-123845243D01*
X158300280Y-123788154D01*
X158328824Y-123759609D01*
X158385914Y-123731064D01*
X158443003Y-123731064D01*
X158528638Y-123759609D01*
X158871175Y-124102146D01*
X158871175Y-123731064D01*
X158557182Y-123474161D02*
X158557182Y-123274348D01*
X158871175Y-123188714D02*
X158871175Y-123474161D01*
X158271735Y-123474161D01*
X158271735Y-123188714D01*
X158243190Y-122503640D02*
X159013899Y-123017445D01*
X158271735Y-122389460D02*
X158271735Y-122046923D01*
X158871175Y-122218192D02*
X158271735Y-122218192D01*
X158271735Y-121932744D02*
X158271735Y-121590207D01*
X158871175Y-121761476D02*
X158271735Y-121761476D01*
M02*
