M48
;DRILL file {KiCad (2017-02-02 revision 8dadc18)-makepkg} date 11/18/17 17:46:00
;FORMAT={-:-/ absolute / metric / decimal}
FMAT,2
METRIC,TZ
T1C0.300
T2C0.900
T3C4.000
%
G90
G05
M71
T1
X104.4Y-115.3
X104.4Y-116.8
X104.4Y-118.4
X104.4Y-119.9
X104.4Y-121.3
X105.606Y-129.158
X105.897Y-119.888
X105.9Y-115.3
X105.9Y-116.8
X105.9Y-118.3
X105.9Y-121.3
X106.868Y-146.914
X106.996Y-124.15
X107.525Y-130.311
X108.3Y-149.1
X108.38Y-130.87
X108.561Y-137.529
X108.94Y-127.05
X108.94Y-127.85
X108.94Y-128.65
X109.351Y-130.928
X109.74Y-127.05
X109.74Y-127.85
X109.74Y-128.65
X110.355Y-130.872
X110.54Y-127.05
X110.54Y-127.85
X110.54Y-128.65
X110.664Y-138.839
X111.35Y-141.522
X111.943Y-129.54
X112.2Y-142.8
X112.2Y-145.3
X112.7Y-115.5
X112.72Y-135.032
X112.928Y-125.071
X113.406Y-126.767
X113.539Y-133.807
X113.572Y-136.24
X113.801Y-141.151
X113.998Y-145.732
X114.413Y-141.967
X114.6Y-117.4
X114.6Y-120.3
X115.003Y-138.813
X115.097Y-141.195
X116.648Y-142.209
X116.653Y-141.2
X116.7Y-115.5
X116.84Y-149.652
X117.235Y-148.551
X118.002Y-133.028
X118.225Y-139.903
X118.7Y-117.4
X118.7Y-120.3
X119.269Y-144.078
X119.9Y-115.5
X120.242Y-147.736
X120.5Y-140.8
X121.1Y-122.6
X121.757Y-142.806
X122.4Y-125.8
X123.322Y-131.77
X123.5Y-140.8
X123.6Y-149.8
X125.2Y-122.8
X125.607Y-139.921
X125.71Y-142.865
X125.9Y-149.7
X126.157Y-147.383
X126.483Y-145.058
X127.Y-131.9
X127.336Y-139.117
X127.4Y-148.4
X128.4Y-149.8
X128.7Y-117.7
X128.7Y-122.
X128.9Y-137.1
X128.989Y-133.962
X129.3Y-115.5
X129.4Y-148.4
X130.3Y-131.9
X131.6Y-117.7
X132.2Y-134.9
X132.5Y-129.2
X133.2Y-122.
X133.8Y-115.5
X135.Y-131.9
X136.5Y-117.7
X136.6Y-129.3
X136.9Y-134.8
X138.7Y-121.9
X139.1Y-131.9
X140.9Y-115.5
X141.2Y-129.2
X141.3Y-134.9
X143.9Y-131.9
X144.4Y-121.9
X145.7Y-129.2
X146.Y-134.7
X147.2Y-115.5
X147.6Y-117.7
X148.3Y-131.9
X150.Y-117.7
X150.2Y-122.
X152.2Y-115.5
X152.2Y-118.3
X152.2Y-120.9
X153.4Y-122.2
X156.8Y-122.2
T2
X104.5Y-133.08
X104.5Y-135.62
X104.5Y-138.16
X104.5Y-140.7
X104.5Y-143.24
X104.5Y-145.78
T3
X142.66Y-146.826
X142.66Y-146.826
X142.66Y-146.826
X142.66Y-146.826
X150.66Y-146.826
X150.66Y-146.826
X150.66Y-146.826
X150.66Y-146.826
T0
M30
